<?xml version="1.0" encoding="utf-8" standalone="no"?>
<!DOCTYPE svg PUBLIC "-//W3C//DTD SVG 1.1//EN"
  "http://www.w3.org/Graphics/SVG/1.1/DTD/svg11.dtd">
<svg xmlns:xlink="http://www.w3.org/1999/xlink" width="864pt" height="360pt" viewBox="0 0 864 360" xmlns="http://www.w3.org/2000/svg" version="1.1">
 <metadata>
  <rdf:RDF xmlns:dc="http://purl.org/dc/elements/1.1/" xmlns:cc="http://creativecommons.org/ns#" xmlns:rdf="http://www.w3.org/1999/02/22-rdf-syntax-ns#">
   <cc:Work>
    <dc:type rdf:resource="http://purl.org/dc/dcmitype/StillImage"/>
    <dc:date>2025-01-15T16:17:15.346677</dc:date>
    <dc:format>image/svg+xml</dc:format>
    <dc:creator>
     <cc:Agent>
      <dc:title>Matplotlib v3.5.2, https://matplotlib.org/</dc:title>
     </cc:Agent>
    </dc:creator>
   </cc:Work>
  </rdf:RDF>
 </metadata>
 <defs>
  <style type="text/css">*{stroke-linejoin: round; stroke-linecap: butt}</style>
 </defs>
 <g id="figure_1">
  <g id="patch_1">
   <path d="M 0 360 
L 864 360 
L 864 0 
L 0 0 
z
" style="fill: #ffffff"/>
  </g>
  <g id="axes_1">
   <g id="patch_2">
    <path d="M 70.188125 82.1725 
L 278.434814 82.1725 
L 278.434814 25.918125 
L 70.188125 25.918125 
z
" style="fill: #ffffff"/>
   </g>
   <g id="matplotlib.axis_1">
    <g id="xtick_1">
     <g id="line2d_1">
      <defs>
       <path id="mf8bc856652" d="M 0 0 
L 0 3.5 
" style="stroke: #000000; stroke-width: 0.8"/>
      </defs>
      <g>
       <use xlink:href="#mf8bc856652" x="79.653884" y="82.1725" style="stroke: #000000; stroke-width: 0.8"/>
      </g>
     </g>
     <g id="text_1">
      <!-- 0.00 -->
      <g transform="translate(66.294509 98.290625)scale(0.12 -0.12)">
       <defs>
        <path id="DejaVuSans-30" d="M 2034 4250 
Q 1547 4250 1301 3770 
Q 1056 3291 1056 2328 
Q 1056 1369 1301 889 
Q 1547 409 2034 409 
Q 2525 409 2770 889 
Q 3016 1369 3016 2328 
Q 3016 3291 2770 3770 
Q 2525 4250 2034 4250 
z
M 2034 4750 
Q 2819 4750 3233 4129 
Q 3647 3509 3647 2328 
Q 3647 1150 3233 529 
Q 2819 -91 2034 -91 
Q 1250 -91 836 529 
Q 422 1150 422 2328 
Q 422 3509 836 4129 
Q 1250 4750 2034 4750 
z
" transform="scale(0.015625)"/>
        <path id="DejaVuSans-2e" d="M 684 794 
L 1344 794 
L 1344 0 
L 684 0 
L 684 794 
z
" transform="scale(0.015625)"/>
       </defs>
       <use xlink:href="#DejaVuSans-30"/>
       <use xlink:href="#DejaVuSans-2e" x="63.623047"/>
       <use xlink:href="#DejaVuSans-30" x="95.410156"/>
       <use xlink:href="#DejaVuSans-30" x="159.033203"/>
      </g>
     </g>
    </g>
    <g id="xtick_2">
     <g id="line2d_2">
      <g>
       <use xlink:href="#mf8bc856652" x="117.668978" y="82.1725" style="stroke: #000000; stroke-width: 0.8"/>
      </g>
     </g>
     <g id="text_2">
      <!-- 0.05 -->
      <g transform="translate(104.309603 98.290625)scale(0.12 -0.12)">
       <defs>
        <path id="DejaVuSans-35" d="M 691 4666 
L 3169 4666 
L 3169 4134 
L 1269 4134 
L 1269 2991 
Q 1406 3038 1543 3061 
Q 1681 3084 1819 3084 
Q 2600 3084 3056 2656 
Q 3513 2228 3513 1497 
Q 3513 744 3044 326 
Q 2575 -91 1722 -91 
Q 1428 -91 1123 -41 
Q 819 9 494 109 
L 494 744 
Q 775 591 1075 516 
Q 1375 441 1709 441 
Q 2250 441 2565 725 
Q 2881 1009 2881 1497 
Q 2881 1984 2565 2268 
Q 2250 2553 1709 2553 
Q 1456 2553 1204 2497 
Q 953 2441 691 2322 
L 691 4666 
z
" transform="scale(0.015625)"/>
       </defs>
       <use xlink:href="#DejaVuSans-30"/>
       <use xlink:href="#DejaVuSans-2e" x="63.623047"/>
       <use xlink:href="#DejaVuSans-30" x="95.410156"/>
       <use xlink:href="#DejaVuSans-35" x="159.033203"/>
      </g>
     </g>
    </g>
    <g id="xtick_3">
     <g id="line2d_3">
      <g>
       <use xlink:href="#mf8bc856652" x="155.684073" y="82.1725" style="stroke: #000000; stroke-width: 0.8"/>
      </g>
     </g>
     <g id="text_3">
      <!-- 0.10 -->
      <g transform="translate(142.324698 98.290625)scale(0.12 -0.12)">
       <defs>
        <path id="DejaVuSans-31" d="M 794 531 
L 1825 531 
L 1825 4091 
L 703 3866 
L 703 4441 
L 1819 4666 
L 2450 4666 
L 2450 531 
L 3481 531 
L 3481 0 
L 794 0 
L 794 531 
z
" transform="scale(0.015625)"/>
       </defs>
       <use xlink:href="#DejaVuSans-30"/>
       <use xlink:href="#DejaVuSans-2e" x="63.623047"/>
       <use xlink:href="#DejaVuSans-31" x="95.410156"/>
       <use xlink:href="#DejaVuSans-30" x="159.033203"/>
      </g>
     </g>
    </g>
    <g id="xtick_4">
     <g id="line2d_4">
      <g>
       <use xlink:href="#mf8bc856652" x="193.699168" y="82.1725" style="stroke: #000000; stroke-width: 0.8"/>
      </g>
     </g>
     <g id="text_4">
      <!-- 0.15 -->
      <g transform="translate(180.339793 98.290625)scale(0.12 -0.12)">
       <use xlink:href="#DejaVuSans-30"/>
       <use xlink:href="#DejaVuSans-2e" x="63.623047"/>
       <use xlink:href="#DejaVuSans-31" x="95.410156"/>
       <use xlink:href="#DejaVuSans-35" x="159.033203"/>
      </g>
     </g>
    </g>
    <g id="xtick_5">
     <g id="line2d_5">
      <g>
       <use xlink:href="#mf8bc856652" x="231.714262" y="82.1725" style="stroke: #000000; stroke-width: 0.8"/>
      </g>
     </g>
     <g id="text_5">
      <!-- 0.20 -->
      <g transform="translate(218.354887 98.290625)scale(0.12 -0.12)">
       <defs>
        <path id="DejaVuSans-32" d="M 1228 531 
L 3431 531 
L 3431 0 
L 469 0 
L 469 531 
Q 828 903 1448 1529 
Q 2069 2156 2228 2338 
Q 2531 2678 2651 2914 
Q 2772 3150 2772 3378 
Q 2772 3750 2511 3984 
Q 2250 4219 1831 4219 
Q 1534 4219 1204 4116 
Q 875 4013 500 3803 
L 500 4441 
Q 881 4594 1212 4672 
Q 1544 4750 1819 4750 
Q 2544 4750 2975 4387 
Q 3406 4025 3406 3419 
Q 3406 3131 3298 2873 
Q 3191 2616 2906 2266 
Q 2828 2175 2409 1742 
Q 1991 1309 1228 531 
z
" transform="scale(0.015625)"/>
       </defs>
       <use xlink:href="#DejaVuSans-30"/>
       <use xlink:href="#DejaVuSans-2e" x="63.623047"/>
       <use xlink:href="#DejaVuSans-32" x="95.410156"/>
       <use xlink:href="#DejaVuSans-30" x="159.033203"/>
      </g>
     </g>
    </g>
    <g id="xtick_6">
     <g id="line2d_6">
      <g>
       <use xlink:href="#mf8bc856652" x="269.729357" y="82.1725" style="stroke: #000000; stroke-width: 0.8"/>
      </g>
     </g>
     <g id="text_6">
      <!-- 0.25 -->
      <g transform="translate(256.369982 98.290625)scale(0.12 -0.12)">
       <use xlink:href="#DejaVuSans-30"/>
       <use xlink:href="#DejaVuSans-2e" x="63.623047"/>
       <use xlink:href="#DejaVuSans-32" x="95.410156"/>
       <use xlink:href="#DejaVuSans-35" x="159.033203"/>
      </g>
     </g>
    </g>
    <g id="text_7">
     <!-- Time (s) -->
     <g transform="translate(149.916782 113.904375)scale(0.12 -0.12)">
      <defs>
       <path id="DejaVuSans-54" d="M -19 4666 
L 3928 4666 
L 3928 4134 
L 2272 4134 
L 2272 0 
L 1638 0 
L 1638 4134 
L -19 4134 
L -19 4666 
z
" transform="scale(0.015625)"/>
       <path id="DejaVuSans-69" d="M 603 3500 
L 1178 3500 
L 1178 0 
L 603 0 
L 603 3500 
z
M 603 4863 
L 1178 4863 
L 1178 4134 
L 603 4134 
L 603 4863 
z
" transform="scale(0.015625)"/>
       <path id="DejaVuSans-6d" d="M 3328 2828 
Q 3544 3216 3844 3400 
Q 4144 3584 4550 3584 
Q 5097 3584 5394 3201 
Q 5691 2819 5691 2113 
L 5691 0 
L 5113 0 
L 5113 2094 
Q 5113 2597 4934 2840 
Q 4756 3084 4391 3084 
Q 3944 3084 3684 2787 
Q 3425 2491 3425 1978 
L 3425 0 
L 2847 0 
L 2847 2094 
Q 2847 2600 2669 2842 
Q 2491 3084 2119 3084 
Q 1678 3084 1418 2786 
Q 1159 2488 1159 1978 
L 1159 0 
L 581 0 
L 581 3500 
L 1159 3500 
L 1159 2956 
Q 1356 3278 1631 3431 
Q 1906 3584 2284 3584 
Q 2666 3584 2933 3390 
Q 3200 3197 3328 2828 
z
" transform="scale(0.015625)"/>
       <path id="DejaVuSans-65" d="M 3597 1894 
L 3597 1613 
L 953 1613 
Q 991 1019 1311 708 
Q 1631 397 2203 397 
Q 2534 397 2845 478 
Q 3156 559 3463 722 
L 3463 178 
Q 3153 47 2828 -22 
Q 2503 -91 2169 -91 
Q 1331 -91 842 396 
Q 353 884 353 1716 
Q 353 2575 817 3079 
Q 1281 3584 2069 3584 
Q 2775 3584 3186 3129 
Q 3597 2675 3597 1894 
z
M 3022 2063 
Q 3016 2534 2758 2815 
Q 2500 3097 2075 3097 
Q 1594 3097 1305 2825 
Q 1016 2553 972 2059 
L 3022 2063 
z
" transform="scale(0.015625)"/>
       <path id="DejaVuSans-20" transform="scale(0.015625)"/>
       <path id="DejaVuSans-28" d="M 1984 4856 
Q 1566 4138 1362 3434 
Q 1159 2731 1159 2009 
Q 1159 1288 1364 580 
Q 1569 -128 1984 -844 
L 1484 -844 
Q 1016 -109 783 600 
Q 550 1309 550 2009 
Q 550 2706 781 3412 
Q 1013 4119 1484 4856 
L 1984 4856 
z
" transform="scale(0.015625)"/>
       <path id="DejaVuSans-73" d="M 2834 3397 
L 2834 2853 
Q 2591 2978 2328 3040 
Q 2066 3103 1784 3103 
Q 1356 3103 1142 2972 
Q 928 2841 928 2578 
Q 928 2378 1081 2264 
Q 1234 2150 1697 2047 
L 1894 2003 
Q 2506 1872 2764 1633 
Q 3022 1394 3022 966 
Q 3022 478 2636 193 
Q 2250 -91 1575 -91 
Q 1294 -91 989 -36 
Q 684 19 347 128 
L 347 722 
Q 666 556 975 473 
Q 1284 391 1588 391 
Q 1994 391 2212 530 
Q 2431 669 2431 922 
Q 2431 1156 2273 1281 
Q 2116 1406 1581 1522 
L 1381 1569 
Q 847 1681 609 1914 
Q 372 2147 372 2553 
Q 372 3047 722 3315 
Q 1072 3584 1716 3584 
Q 2034 3584 2315 3537 
Q 2597 3491 2834 3397 
z
" transform="scale(0.015625)"/>
       <path id="DejaVuSans-29" d="M 513 4856 
L 1013 4856 
Q 1481 4119 1714 3412 
Q 1947 2706 1947 2009 
Q 1947 1309 1714 600 
Q 1481 -109 1013 -844 
L 513 -844 
Q 928 -128 1133 580 
Q 1338 1288 1338 2009 
Q 1338 2731 1133 3434 
Q 928 4138 513 4856 
z
" transform="scale(0.015625)"/>
      </defs>
      <use xlink:href="#DejaVuSans-54"/>
      <use xlink:href="#DejaVuSans-69" x="57.958984"/>
      <use xlink:href="#DejaVuSans-6d" x="85.742188"/>
      <use xlink:href="#DejaVuSans-65" x="183.154297"/>
      <use xlink:href="#DejaVuSans-20" x="244.677734"/>
      <use xlink:href="#DejaVuSans-28" x="276.464844"/>
      <use xlink:href="#DejaVuSans-73" x="315.478516"/>
      <use xlink:href="#DejaVuSans-29" x="367.578125"/>
     </g>
    </g>
   </g>
   <g id="matplotlib.axis_2">
    <g id="ytick_1">
     <g id="line2d_7">
      <defs>
       <path id="mb67e5621a2" d="M 0 0 
L -3.5 0 
" style="stroke: #000000; stroke-width: 0.8"/>
      </defs>
      <g>
       <use xlink:href="#mb67e5621a2" x="70.188125" y="79.615483" style="stroke: #000000; stroke-width: 0.8"/>
      </g>
     </g>
     <g id="text_8">
      <!-- 0 -->
      <g transform="translate(55.553125 84.174545)scale(0.12 -0.12)">
       <use xlink:href="#DejaVuSans-30"/>
      </g>
     </g>
    </g>
    <g id="ytick_2">
     <g id="line2d_8">
      <g>
       <use xlink:href="#mb67e5621a2" x="70.188125" y="28.475142" style="stroke: #000000; stroke-width: 0.8"/>
      </g>
     </g>
     <g id="text_9">
      <!-- 1 -->
      <g transform="translate(55.553125 33.034205)scale(0.12 -0.12)">
       <use xlink:href="#DejaVuSans-31"/>
      </g>
     </g>
    </g>
    <g id="text_10">
     <!-- x -->
     <g transform="translate(49.0575 57.596563)rotate(-90)scale(0.12 -0.12)">
      <defs>
       <path id="DejaVuSans-78" d="M 3513 3500 
L 2247 1797 
L 3578 0 
L 2900 0 
L 1881 1375 
L 863 0 
L 184 0 
L 1544 1831 
L 300 3500 
L 978 3500 
L 1906 2253 
L 2834 3500 
L 3513 3500 
z
" transform="scale(0.015625)"/>
      </defs>
      <use xlink:href="#DejaVuSans-78"/>
     </g>
    </g>
   </g>
   <g id="line2d_9">
    <path d="M 79.653884 79.615483 
L 116.908676 79.615483 
L 117.668978 28.475142 
L 119.189582 38.191807 
L 120.710186 46.062305 
L 122.23079 52.437409 
L 123.751393 57.601243 
L 125.271997 61.783949 
L 126.792601 65.17194 
L 128.313205 67.916213 
L 129.833809 70.139075 
L 131.354412 71.939592 
L 132.875016 73.398011 
L 134.39562 74.579331 
L 135.916224 75.5362 
L 138.197129 76.641686 
L 140.478035 77.447585 
L 142.758941 78.035085 
L 145.800148 78.578584 
L 149.601658 79.003204 
L 154.923771 79.322632 
L 162.52679 79.513372 
L 176.972526 79.601689 
L 245.399697 79.615482 
L 268.969055 79.615483 
L 268.969055 79.615483 
" clip-path="url(#p5c2b3053ec)" style="fill: none; stroke: #1f77b4; stroke-width: 1.5; stroke-linecap: square"/>
   </g>
   <g id="line2d_10">
    <path d="M 79.653884 79.615483 
L 116.908676 79.615483 
L 117.668978 28.475142 
L 119.189582 38.191807 
L 120.710186 46.062305 
L 122.23079 52.437409 
L 123.751393 57.601243 
L 125.271997 61.783949 
L 126.792601 65.17194 
L 128.313205 67.916213 
L 129.833809 70.139075 
L 131.354412 71.939592 
L 132.875016 73.398011 
L 134.39562 74.579331 
L 135.916224 75.5362 
L 138.197129 76.641686 
L 140.478035 77.447585 
L 142.758941 78.035085 
L 145.800148 78.578584 
L 149.601658 79.003204 
L 154.923771 79.322632 
L 162.52679 79.513372 
L 176.972526 79.601689 
L 245.399697 79.615482 
L 268.969055 79.615483 
L 268.969055 79.615483 
" clip-path="url(#p5c2b3053ec)" style="fill: none; stroke: #ff7f0e; stroke-width: 1.5; stroke-linecap: square"/>
   </g>
   <g id="line2d_11">
    <path d="M 79.653884 79.615483 
L 192.178564 79.615483 
L 192.938866 28.475142 
L 194.45947 38.191807 
L 195.980073 46.062305 
L 197.500677 52.437409 
L 199.021281 57.601243 
L 200.541885 61.783949 
L 202.062489 65.17194 
L 203.583092 67.916213 
L 205.103696 70.139075 
L 206.6243 71.939592 
L 208.144904 73.398011 
L 209.665508 74.579331 
L 211.186111 75.5362 
L 213.467017 76.641686 
L 215.747923 77.447585 
L 218.028828 78.035085 
L 221.070036 78.578584 
L 224.871545 79.003204 
L 230.193659 79.322632 
L 237.796678 79.513372 
L 252.242414 79.601689 
L 268.969055 79.614125 
L 268.969055 79.614125 
" clip-path="url(#p5c2b3053ec)" style="fill: none; stroke: #2ca02c; stroke-width: 1.5; stroke-linecap: square"/>
   </g>
   <g id="line2d_12">
    <path d="M 79.653884 79.615483 
L 192.178564 79.615483 
L 192.938866 28.475142 
L 194.45947 38.191807 
L 195.980073 46.062305 
L 197.500677 52.437409 
L 199.021281 57.601243 
L 200.541885 61.783949 
L 202.062489 65.17194 
L 203.583092 67.916213 
L 205.103696 70.139075 
L 206.6243 71.939592 
L 208.144904 73.398011 
L 209.665508 74.579331 
L 211.186111 75.5362 
L 213.467017 76.641686 
L 215.747923 77.447585 
L 218.028828 78.035085 
L 221.070036 78.578584 
L 224.871545 79.003204 
L 230.193659 79.322632 
L 237.796678 79.513372 
L 252.242414 79.601689 
L 268.969055 79.614125 
L 268.969055 79.614125 
" clip-path="url(#p5c2b3053ec)" style="fill: none; stroke: #d62728; stroke-width: 1.5; stroke-linecap: square"/>
   </g>
   <g id="line2d_13">
    <path d="M 79.653884 79.615483 
L 268.969055 79.615483 
L 268.969055 79.615483 
" clip-path="url(#p5c2b3053ec)" style="fill: none; stroke: #9467bd; stroke-width: 1.5; stroke-linecap: square"/>
   </g>
   <g id="patch_3">
    <path d="M 70.188125 82.1725 
L 70.188125 25.918125 
" style="fill: none; stroke: #000000; stroke-width: 0.8; stroke-linejoin: miter; stroke-linecap: square"/>
   </g>
   <g id="patch_4">
    <path d="M 278.434814 82.1725 
L 278.434814 25.918125 
" style="fill: none; stroke: #000000; stroke-width: 0.8; stroke-linejoin: miter; stroke-linecap: square"/>
   </g>
   <g id="patch_5">
    <path d="M 70.188125 82.1725 
L 278.434814 82.1725 
" style="fill: none; stroke: #000000; stroke-width: 0.8; stroke-linejoin: miter; stroke-linecap: square"/>
   </g>
   <g id="patch_6">
    <path d="M 70.188125 25.918125 
L 278.434814 25.918125 
" style="fill: none; stroke: #000000; stroke-width: 0.8; stroke-linejoin: miter; stroke-linecap: square"/>
   </g>
   <g id="text_11">
    <!-- Pre-learning phase -->
    <g transform="translate(118.119594 19.918125)scale(0.12 -0.12)">
     <defs>
      <path id="DejaVuSans-50" d="M 1259 4147 
L 1259 2394 
L 2053 2394 
Q 2494 2394 2734 2622 
Q 2975 2850 2975 3272 
Q 2975 3691 2734 3919 
Q 2494 4147 2053 4147 
L 1259 4147 
z
M 628 4666 
L 2053 4666 
Q 2838 4666 3239 4311 
Q 3641 3956 3641 3272 
Q 3641 2581 3239 2228 
Q 2838 1875 2053 1875 
L 1259 1875 
L 1259 0 
L 628 0 
L 628 4666 
z
" transform="scale(0.015625)"/>
      <path id="DejaVuSans-72" d="M 2631 2963 
Q 2534 3019 2420 3045 
Q 2306 3072 2169 3072 
Q 1681 3072 1420 2755 
Q 1159 2438 1159 1844 
L 1159 0 
L 581 0 
L 581 3500 
L 1159 3500 
L 1159 2956 
Q 1341 3275 1631 3429 
Q 1922 3584 2338 3584 
Q 2397 3584 2469 3576 
Q 2541 3569 2628 3553 
L 2631 2963 
z
" transform="scale(0.015625)"/>
      <path id="DejaVuSans-2d" d="M 313 2009 
L 1997 2009 
L 1997 1497 
L 313 1497 
L 313 2009 
z
" transform="scale(0.015625)"/>
      <path id="DejaVuSans-6c" d="M 603 4863 
L 1178 4863 
L 1178 0 
L 603 0 
L 603 4863 
z
" transform="scale(0.015625)"/>
      <path id="DejaVuSans-61" d="M 2194 1759 
Q 1497 1759 1228 1600 
Q 959 1441 959 1056 
Q 959 750 1161 570 
Q 1363 391 1709 391 
Q 2188 391 2477 730 
Q 2766 1069 2766 1631 
L 2766 1759 
L 2194 1759 
z
M 3341 1997 
L 3341 0 
L 2766 0 
L 2766 531 
Q 2569 213 2275 61 
Q 1981 -91 1556 -91 
Q 1019 -91 701 211 
Q 384 513 384 1019 
Q 384 1609 779 1909 
Q 1175 2209 1959 2209 
L 2766 2209 
L 2766 2266 
Q 2766 2663 2505 2880 
Q 2244 3097 1772 3097 
Q 1472 3097 1187 3025 
Q 903 2953 641 2809 
L 641 3341 
Q 956 3463 1253 3523 
Q 1550 3584 1831 3584 
Q 2591 3584 2966 3190 
Q 3341 2797 3341 1997 
z
" transform="scale(0.015625)"/>
      <path id="DejaVuSans-6e" d="M 3513 2113 
L 3513 0 
L 2938 0 
L 2938 2094 
Q 2938 2591 2744 2837 
Q 2550 3084 2163 3084 
Q 1697 3084 1428 2787 
Q 1159 2491 1159 1978 
L 1159 0 
L 581 0 
L 581 3500 
L 1159 3500 
L 1159 2956 
Q 1366 3272 1645 3428 
Q 1925 3584 2291 3584 
Q 2894 3584 3203 3211 
Q 3513 2838 3513 2113 
z
" transform="scale(0.015625)"/>
      <path id="DejaVuSans-67" d="M 2906 1791 
Q 2906 2416 2648 2759 
Q 2391 3103 1925 3103 
Q 1463 3103 1205 2759 
Q 947 2416 947 1791 
Q 947 1169 1205 825 
Q 1463 481 1925 481 
Q 2391 481 2648 825 
Q 2906 1169 2906 1791 
z
M 3481 434 
Q 3481 -459 3084 -895 
Q 2688 -1331 1869 -1331 
Q 1566 -1331 1297 -1286 
Q 1028 -1241 775 -1147 
L 775 -588 
Q 1028 -725 1275 -790 
Q 1522 -856 1778 -856 
Q 2344 -856 2625 -561 
Q 2906 -266 2906 331 
L 2906 616 
Q 2728 306 2450 153 
Q 2172 0 1784 0 
Q 1141 0 747 490 
Q 353 981 353 1791 
Q 353 2603 747 3093 
Q 1141 3584 1784 3584 
Q 2172 3584 2450 3431 
Q 2728 3278 2906 2969 
L 2906 3500 
L 3481 3500 
L 3481 434 
z
" transform="scale(0.015625)"/>
      <path id="DejaVuSans-70" d="M 1159 525 
L 1159 -1331 
L 581 -1331 
L 581 3500 
L 1159 3500 
L 1159 2969 
Q 1341 3281 1617 3432 
Q 1894 3584 2278 3584 
Q 2916 3584 3314 3078 
Q 3713 2572 3713 1747 
Q 3713 922 3314 415 
Q 2916 -91 2278 -91 
Q 1894 -91 1617 61 
Q 1341 213 1159 525 
z
M 3116 1747 
Q 3116 2381 2855 2742 
Q 2594 3103 2138 3103 
Q 1681 3103 1420 2742 
Q 1159 2381 1159 1747 
Q 1159 1113 1420 752 
Q 1681 391 2138 391 
Q 2594 391 2855 752 
Q 3116 1113 3116 1747 
z
" transform="scale(0.015625)"/>
      <path id="DejaVuSans-68" d="M 3513 2113 
L 3513 0 
L 2938 0 
L 2938 2094 
Q 2938 2591 2744 2837 
Q 2550 3084 2163 3084 
Q 1697 3084 1428 2787 
Q 1159 2491 1159 1978 
L 1159 0 
L 581 0 
L 581 4863 
L 1159 4863 
L 1159 2956 
Q 1366 3272 1645 3428 
Q 1925 3584 2291 3584 
Q 2894 3584 3203 3211 
Q 3513 2838 3513 2113 
z
" transform="scale(0.015625)"/>
     </defs>
     <use xlink:href="#DejaVuSans-50"/>
     <use xlink:href="#DejaVuSans-72" x="58.552734"/>
     <use xlink:href="#DejaVuSans-65" x="97.416016"/>
     <use xlink:href="#DejaVuSans-2d" x="158.939453"/>
     <use xlink:href="#DejaVuSans-6c" x="195.023438"/>
     <use xlink:href="#DejaVuSans-65" x="222.806641"/>
     <use xlink:href="#DejaVuSans-61" x="284.330078"/>
     <use xlink:href="#DejaVuSans-72" x="345.609375"/>
     <use xlink:href="#DejaVuSans-6e" x="384.972656"/>
     <use xlink:href="#DejaVuSans-69" x="448.351562"/>
     <use xlink:href="#DejaVuSans-6e" x="476.134766"/>
     <use xlink:href="#DejaVuSans-67" x="539.513672"/>
     <use xlink:href="#DejaVuSans-20" x="602.990234"/>
     <use xlink:href="#DejaVuSans-70" x="634.777344"/>
     <use xlink:href="#DejaVuSans-68" x="698.253906"/>
     <use xlink:href="#DejaVuSans-61" x="761.632812"/>
     <use xlink:href="#DejaVuSans-73" x="822.912109"/>
     <use xlink:href="#DejaVuSans-65" x="875.011719"/>
    </g>
   </g>
  </g>
  <g id="axes_2">
   <g id="patch_7">
    <path d="M 357.570718 82.1725 
L 565.817407 82.1725 
L 565.817407 25.918125 
L 357.570718 25.918125 
z
" style="fill: #ffffff"/>
   </g>
   <g id="matplotlib.axis_3">
    <g id="xtick_7">
     <g id="line2d_14">
      <g>
       <use xlink:href="#mf8bc856652" x="367.036477" y="82.1725" style="stroke: #000000; stroke-width: 0.8"/>
      </g>
     </g>
     <g id="text_12">
      <!-- 0.00 -->
      <g transform="translate(353.677102 98.290625)scale(0.12 -0.12)">
       <use xlink:href="#DejaVuSans-30"/>
       <use xlink:href="#DejaVuSans-2e" x="63.623047"/>
       <use xlink:href="#DejaVuSans-30" x="95.410156"/>
       <use xlink:href="#DejaVuSans-30" x="159.033203"/>
      </g>
     </g>
    </g>
    <g id="xtick_8">
     <g id="line2d_15">
      <g>
       <use xlink:href="#mf8bc856652" x="405.051571" y="82.1725" style="stroke: #000000; stroke-width: 0.8"/>
      </g>
     </g>
     <g id="text_13">
      <!-- 0.05 -->
      <g transform="translate(391.692196 98.290625)scale(0.12 -0.12)">
       <use xlink:href="#DejaVuSans-30"/>
       <use xlink:href="#DejaVuSans-2e" x="63.623047"/>
       <use xlink:href="#DejaVuSans-30" x="95.410156"/>
       <use xlink:href="#DejaVuSans-35" x="159.033203"/>
      </g>
     </g>
    </g>
    <g id="xtick_9">
     <g id="line2d_16">
      <g>
       <use xlink:href="#mf8bc856652" x="443.066666" y="82.1725" style="stroke: #000000; stroke-width: 0.8"/>
      </g>
     </g>
     <g id="text_14">
      <!-- 0.10 -->
      <g transform="translate(429.707291 98.290625)scale(0.12 -0.12)">
       <use xlink:href="#DejaVuSans-30"/>
       <use xlink:href="#DejaVuSans-2e" x="63.623047"/>
       <use xlink:href="#DejaVuSans-31" x="95.410156"/>
       <use xlink:href="#DejaVuSans-30" x="159.033203"/>
      </g>
     </g>
    </g>
    <g id="xtick_10">
     <g id="line2d_17">
      <g>
       <use xlink:href="#mf8bc856652" x="481.081761" y="82.1725" style="stroke: #000000; stroke-width: 0.8"/>
      </g>
     </g>
     <g id="text_15">
      <!-- 0.15 -->
      <g transform="translate(467.722386 98.290625)scale(0.12 -0.12)">
       <use xlink:href="#DejaVuSans-30"/>
       <use xlink:href="#DejaVuSans-2e" x="63.623047"/>
       <use xlink:href="#DejaVuSans-31" x="95.410156"/>
       <use xlink:href="#DejaVuSans-35" x="159.033203"/>
      </g>
     </g>
    </g>
    <g id="xtick_11">
     <g id="line2d_18">
      <g>
       <use xlink:href="#mf8bc856652" x="519.096856" y="82.1725" style="stroke: #000000; stroke-width: 0.8"/>
      </g>
     </g>
     <g id="text_16">
      <!-- 0.20 -->
      <g transform="translate(505.737481 98.290625)scale(0.12 -0.12)">
       <use xlink:href="#DejaVuSans-30"/>
       <use xlink:href="#DejaVuSans-2e" x="63.623047"/>
       <use xlink:href="#DejaVuSans-32" x="95.410156"/>
       <use xlink:href="#DejaVuSans-30" x="159.033203"/>
      </g>
     </g>
    </g>
    <g id="xtick_12">
     <g id="line2d_19">
      <g>
       <use xlink:href="#mf8bc856652" x="557.11195" y="82.1725" style="stroke: #000000; stroke-width: 0.8"/>
      </g>
     </g>
     <g id="text_17">
      <!-- 0.25 -->
      <g transform="translate(543.752575 98.290625)scale(0.12 -0.12)">
       <use xlink:href="#DejaVuSans-30"/>
       <use xlink:href="#DejaVuSans-2e" x="63.623047"/>
       <use xlink:href="#DejaVuSans-32" x="95.410156"/>
       <use xlink:href="#DejaVuSans-35" x="159.033203"/>
      </g>
     </g>
    </g>
    <g id="text_18">
     <!-- Time (s) -->
     <g transform="translate(437.299375 113.904375)scale(0.12 -0.12)">
      <use xlink:href="#DejaVuSans-54"/>
      <use xlink:href="#DejaVuSans-69" x="57.958984"/>
      <use xlink:href="#DejaVuSans-6d" x="85.742188"/>
      <use xlink:href="#DejaVuSans-65" x="183.154297"/>
      <use xlink:href="#DejaVuSans-20" x="244.677734"/>
      <use xlink:href="#DejaVuSans-28" x="276.464844"/>
      <use xlink:href="#DejaVuSans-73" x="315.478516"/>
      <use xlink:href="#DejaVuSans-29" x="367.578125"/>
     </g>
    </g>
   </g>
   <g id="matplotlib.axis_4">
    <g id="ytick_3">
     <g id="line2d_20">
      <g>
       <use xlink:href="#mb67e5621a2" x="357.570718" y="77.760523" style="stroke: #000000; stroke-width: 0.8"/>
      </g>
     </g>
     <g id="text_19">
      <!-- 0 -->
      <g transform="translate(342.935718 82.319585)scale(0.12 -0.12)">
       <use xlink:href="#DejaVuSans-30"/>
      </g>
     </g>
    </g>
    <g id="ytick_4">
     <g id="line2d_21">
      <g>
       <use xlink:href="#mb67e5621a2" x="357.570718" y="28.21982" style="stroke: #000000; stroke-width: 0.8"/>
      </g>
     </g>
     <g id="text_20">
      <!-- 50 -->
      <g transform="translate(335.300718 32.778883)scale(0.12 -0.12)">
       <use xlink:href="#DejaVuSans-35"/>
       <use xlink:href="#DejaVuSans-30" x="63.623047"/>
      </g>
     </g>
    </g>
    <g id="text_21">
     <!-- x -->
     <g transform="translate(328.805093 57.596563)rotate(-90)scale(0.12 -0.12)">
      <use xlink:href="#DejaVuSans-78"/>
     </g>
    </g>
   </g>
   <g id="line2d_22">
    <path d="M 367.036477 77.760523 
L 368.55708 68.347789 
L 370.077684 60.723475 
L 371.598288 54.547781 
L 373.118892 49.545468 
L 374.639496 45.493595 
L 376.160099 42.211578 
L 377.680703 39.553144 
L 379.201307 37.399813 
L 380.721911 35.655614 
L 382.242515 34.242813 
L 383.763118 33.098445 
L 385.283722 32.171506 
L 387.564628 31.100599 
L 389.845533 30.319908 
L 392.126439 29.750784 
L 395.167647 29.224286 
L 398.969156 28.812947 
L 404.291269 28.503511 
L 405.811873 37.862343 
L 407.332477 45.442997 
L 408.853081 51.583327 
L 410.373685 56.556994 
L 411.894288 60.585665 
L 413.414892 63.848888 
L 414.935496 66.492099 
L 416.4561 68.633099 
L 417.976704 70.36731 
L 419.497307 71.77202 
L 421.017911 72.909836 
L 422.538515 73.831466 
L 424.819421 74.896241 
L 427.100326 75.672461 
L 429.381232 76.238326 
L 432.42244 76.761809 
L 436.223949 77.170793 
L 441.546062 77.478457 
L 449.149081 77.662173 
L 464.355119 77.748566 
L 541.905912 77.760523 
L 556.351648 77.760523 
L 556.351648 77.760523 
" clip-path="url(#pc5325d0614)" style="fill: none; stroke: #1f77b4; stroke-width: 1.5; stroke-linecap: square"/>
   </g>
   <g id="line2d_23">
    <path d="M 367.036477 77.760523 
L 368.55708 68.347789 
L 370.077684 60.723475 
L 371.598288 54.547781 
L 373.118892 49.545468 
L 374.639496 45.493595 
L 376.160099 42.211578 
L 377.680703 39.553144 
L 379.201307 37.399813 
L 380.721911 35.655614 
L 382.242515 34.242813 
L 383.763118 33.098445 
L 385.283722 32.171506 
L 387.564628 31.100599 
L 389.845533 30.319908 
L 392.126439 29.750784 
L 395.167647 29.224286 
L 398.969156 28.812947 
L 404.291269 28.503511 
L 405.811873 37.862343 
L 407.332477 45.442997 
L 408.853081 51.583327 
L 410.373685 56.556994 
L 411.894288 60.585665 
L 413.414892 63.848888 
L 414.935496 66.492099 
L 416.4561 68.633099 
L 417.976704 70.36731 
L 419.497307 71.77202 
L 421.017911 72.909836 
L 422.538515 73.831466 
L 424.819421 74.896241 
L 427.100326 75.672461 
L 429.381232 76.238326 
L 432.42244 76.761809 
L 436.223949 77.170793 
L 441.546062 77.478457 
L 449.149081 77.662173 
L 464.355119 77.748566 
L 541.905912 77.760523 
L 556.351648 77.760523 
L 556.351648 77.760523 
" clip-path="url(#pc5325d0614)" style="fill: none; stroke: #ff7f0e; stroke-width: 1.5; stroke-linecap: square"/>
   </g>
   <g id="line2d_24">
    <path d="M 367.036477 77.760497 
L 442.306364 77.760523 
L 443.826968 68.347789 
L 445.347572 60.723475 
L 446.868176 54.547781 
L 448.388779 49.545468 
L 449.909383 45.493595 
L 451.429987 42.211578 
L 452.950591 39.553144 
L 454.471195 37.399813 
L 455.991798 35.655614 
L 457.512402 34.242813 
L 459.033006 33.098445 
L 460.55361 32.171506 
L 462.834515 31.100599 
L 465.115421 30.319908 
L 467.396327 29.750784 
L 470.437534 29.224286 
L 474.239044 28.812947 
L 479.561157 28.503511 
L 480.321459 28.475142 
L 481.842063 37.839364 
L 483.362666 45.424385 
L 484.88327 51.568251 
L 486.403874 56.544783 
L 487.924478 60.575773 
L 489.445082 63.840876 
L 490.965685 66.485609 
L 492.486289 68.627842 
L 494.006893 70.363052 
L 495.527497 71.768571 
L 497.048101 72.907042 
L 498.568704 73.829203 
L 500.84961 74.894591 
L 503.130516 75.671259 
L 505.411421 76.237449 
L 508.452629 76.761234 
L 512.254138 77.170453 
L 517.576252 77.478294 
L 525.179271 77.662116 
L 540.385309 77.748559 
L 556.351648 77.759214 
L 556.351648 77.759214 
" clip-path="url(#pc5325d0614)" style="fill: none; stroke: #2ca02c; stroke-width: 1.5; stroke-linecap: square"/>
   </g>
   <g id="line2d_25">
    <path d="M 367.036477 77.760497 
L 442.306364 77.760523 
L 443.826968 68.347789 
L 445.347572 60.723475 
L 446.868176 54.547781 
L 448.388779 49.545468 
L 449.909383 45.493595 
L 451.429987 42.211578 
L 452.950591 39.553144 
L 454.471195 37.399813 
L 455.991798 35.655614 
L 457.512402 34.242813 
L 459.033006 33.098445 
L 460.55361 32.171506 
L 462.834515 31.100599 
L 465.115421 30.319908 
L 467.396327 29.750784 
L 470.437534 29.224286 
L 474.239044 28.812947 
L 479.561157 28.503511 
L 480.321459 28.475142 
L 481.842063 37.839364 
L 483.362666 45.424385 
L 484.88327 51.568251 
L 486.403874 56.544783 
L 487.924478 60.575773 
L 489.445082 63.840876 
L 490.965685 66.485609 
L 492.486289 68.627842 
L 494.006893 70.363052 
L 495.527497 71.768571 
L 497.048101 72.907042 
L 498.568704 73.829203 
L 500.84961 74.894591 
L 503.130516 75.671259 
L 505.411421 76.237449 
L 508.452629 76.761234 
L 512.254138 77.170453 
L 517.576252 77.478294 
L 525.179271 77.662116 
L 540.385309 77.748559 
L 556.351648 77.759214 
L 556.351648 77.759214 
" clip-path="url(#pc5325d0614)" style="fill: none; stroke: #d62728; stroke-width: 1.5; stroke-linecap: square"/>
   </g>
   <g id="line2d_26">
    <path d="M 367.036477 77.760523 
L 404.291269 77.760523 
L 405.811873 76.836078 
L 408.092779 75.775598 
L 410.373685 75.01451 
L 412.65459 74.481969 
L 415.695798 74.029711 
L 418.737005 73.80437 
L 422.538515 73.745117 
L 427.860628 73.918492 
L 454.471195 75.196956 
L 468.156629 75.296439 
L 480.321459 75.311718 
L 481.842063 76.25853 
L 484.122968 77.346777 
L 486.403874 78.126837 
L 488.68478 78.683698 
L 491.725987 79.174369 
L 495.527497 79.509838 
L 499.329006 79.615483 
L 504.65112 79.504428 
L 513.01444 79.054015 
L 525.939573 78.398512 
L 537.344101 78.06428 
L 553.310441 77.876035 
L 556.351648 77.858546 
L 556.351648 77.858546 
" clip-path="url(#pc5325d0614)" style="fill: none; stroke: #9467bd; stroke-width: 1.5; stroke-linecap: square"/>
   </g>
   <g id="patch_8">
    <path d="M 357.570718 82.1725 
L 357.570718 25.918125 
" style="fill: none; stroke: #000000; stroke-width: 0.8; stroke-linejoin: miter; stroke-linecap: square"/>
   </g>
   <g id="patch_9">
    <path d="M 565.817407 82.1725 
L 565.817407 25.918125 
" style="fill: none; stroke: #000000; stroke-width: 0.8; stroke-linejoin: miter; stroke-linecap: square"/>
   </g>
   <g id="patch_10">
    <path d="M 357.570718 82.1725 
L 565.817407 82.1725 
" style="fill: none; stroke: #000000; stroke-width: 0.8; stroke-linejoin: miter; stroke-linecap: square"/>
   </g>
   <g id="patch_11">
    <path d="M 357.570718 25.918125 
L 565.817407 25.918125 
" style="fill: none; stroke: #000000; stroke-width: 0.8; stroke-linejoin: miter; stroke-linecap: square"/>
   </g>
   <g id="text_22">
    <!-- Learning phase -->
    <g transform="translate(415.631875 19.918125)scale(0.12 -0.12)">
     <defs>
      <path id="DejaVuSans-4c" d="M 628 4666 
L 1259 4666 
L 1259 531 
L 3531 531 
L 3531 0 
L 628 0 
L 628 4666 
z
" transform="scale(0.015625)"/>
     </defs>
     <use xlink:href="#DejaVuSans-4c"/>
     <use xlink:href="#DejaVuSans-65" x="53.962891"/>
     <use xlink:href="#DejaVuSans-61" x="115.486328"/>
     <use xlink:href="#DejaVuSans-72" x="176.765625"/>
     <use xlink:href="#DejaVuSans-6e" x="216.128906"/>
     <use xlink:href="#DejaVuSans-69" x="279.507812"/>
     <use xlink:href="#DejaVuSans-6e" x="307.291016"/>
     <use xlink:href="#DejaVuSans-67" x="370.669922"/>
     <use xlink:href="#DejaVuSans-20" x="434.146484"/>
     <use xlink:href="#DejaVuSans-70" x="465.933594"/>
     <use xlink:href="#DejaVuSans-68" x="529.410156"/>
     <use xlink:href="#DejaVuSans-61" x="592.789062"/>
     <use xlink:href="#DejaVuSans-73" x="654.068359"/>
     <use xlink:href="#DejaVuSans-65" x="706.167969"/>
    </g>
   </g>
  </g>
  <g id="axes_3">
   <g id="patch_12">
    <path d="M 644.953311 82.1725 
L 853.2 82.1725 
L 853.2 25.918125 
L 644.953311 25.918125 
z
" style="fill: #ffffff"/>
   </g>
   <g id="matplotlib.axis_5">
    <g id="xtick_13">
     <g id="line2d_27">
      <g>
       <use xlink:href="#mf8bc856652" x="654.41907" y="82.1725" style="stroke: #000000; stroke-width: 0.8"/>
      </g>
     </g>
     <g id="text_23">
      <!-- 0.0 -->
      <g transform="translate(644.877195 98.290625)scale(0.12 -0.12)">
       <use xlink:href="#DejaVuSans-30"/>
       <use xlink:href="#DejaVuSans-2e" x="63.623047"/>
       <use xlink:href="#DejaVuSans-30" x="95.410156"/>
      </g>
     </g>
    </g>
    <g id="xtick_14">
     <g id="line2d_28">
      <g>
       <use xlink:href="#mf8bc856652" x="704.970517" y="82.1725" style="stroke: #000000; stroke-width: 0.8"/>
      </g>
     </g>
     <g id="text_24">
      <!-- 0.2 -->
      <g transform="translate(695.428642 98.290625)scale(0.12 -0.12)">
       <use xlink:href="#DejaVuSans-30"/>
       <use xlink:href="#DejaVuSans-2e" x="63.623047"/>
       <use xlink:href="#DejaVuSans-32" x="95.410156"/>
      </g>
     </g>
    </g>
    <g id="xtick_15">
     <g id="line2d_29">
      <g>
       <use xlink:href="#mf8bc856652" x="755.521965" y="82.1725" style="stroke: #000000; stroke-width: 0.8"/>
      </g>
     </g>
     <g id="text_25">
      <!-- 0.4 -->
      <g transform="translate(745.98009 98.290625)scale(0.12 -0.12)">
       <defs>
        <path id="DejaVuSans-34" d="M 2419 4116 
L 825 1625 
L 2419 1625 
L 2419 4116 
z
M 2253 4666 
L 3047 4666 
L 3047 1625 
L 3713 1625 
L 3713 1100 
L 3047 1100 
L 3047 0 
L 2419 0 
L 2419 1100 
L 313 1100 
L 313 1709 
L 2253 4666 
z
" transform="scale(0.015625)"/>
       </defs>
       <use xlink:href="#DejaVuSans-30"/>
       <use xlink:href="#DejaVuSans-2e" x="63.623047"/>
       <use xlink:href="#DejaVuSans-34" x="95.410156"/>
      </g>
     </g>
    </g>
    <g id="xtick_16">
     <g id="line2d_30">
      <g>
       <use xlink:href="#mf8bc856652" x="806.073413" y="82.1725" style="stroke: #000000; stroke-width: 0.8"/>
      </g>
     </g>
     <g id="text_26">
      <!-- 0.6 -->
      <g transform="translate(796.531538 98.290625)scale(0.12 -0.12)">
       <defs>
        <path id="DejaVuSans-36" d="M 2113 2584 
Q 1688 2584 1439 2293 
Q 1191 2003 1191 1497 
Q 1191 994 1439 701 
Q 1688 409 2113 409 
Q 2538 409 2786 701 
Q 3034 994 3034 1497 
Q 3034 2003 2786 2293 
Q 2538 2584 2113 2584 
z
M 3366 4563 
L 3366 3988 
Q 3128 4100 2886 4159 
Q 2644 4219 2406 4219 
Q 1781 4219 1451 3797 
Q 1122 3375 1075 2522 
Q 1259 2794 1537 2939 
Q 1816 3084 2150 3084 
Q 2853 3084 3261 2657 
Q 3669 2231 3669 1497 
Q 3669 778 3244 343 
Q 2819 -91 2113 -91 
Q 1303 -91 875 529 
Q 447 1150 447 2328 
Q 447 3434 972 4092 
Q 1497 4750 2381 4750 
Q 2619 4750 2861 4703 
Q 3103 4656 3366 4563 
z
" transform="scale(0.015625)"/>
       </defs>
       <use xlink:href="#DejaVuSans-30"/>
       <use xlink:href="#DejaVuSans-2e" x="63.623047"/>
       <use xlink:href="#DejaVuSans-36" x="95.410156"/>
      </g>
     </g>
    </g>
    <g id="text_27">
     <!-- Time (s) -->
     <g transform="translate(724.681968 113.904375)scale(0.12 -0.12)">
      <use xlink:href="#DejaVuSans-54"/>
      <use xlink:href="#DejaVuSans-69" x="57.958984"/>
      <use xlink:href="#DejaVuSans-6d" x="85.742188"/>
      <use xlink:href="#DejaVuSans-65" x="183.154297"/>
      <use xlink:href="#DejaVuSans-20" x="244.677734"/>
      <use xlink:href="#DejaVuSans-28" x="276.464844"/>
      <use xlink:href="#DejaVuSans-73" x="315.478516"/>
      <use xlink:href="#DejaVuSans-29" x="367.578125"/>
     </g>
    </g>
   </g>
   <g id="matplotlib.axis_6">
    <g id="ytick_5">
     <g id="line2d_31">
      <g>
       <use xlink:href="#mb67e5621a2" x="644.953311" y="72.796771" style="stroke: #000000; stroke-width: 0.8"/>
      </g>
     </g>
     <g id="text_28">
      <!-- −1 -->
      <g transform="translate(620.262686 77.355833)scale(0.12 -0.12)">
       <defs>
        <path id="DejaVuSans-2212" d="M 678 2272 
L 4684 2272 
L 4684 1741 
L 678 1741 
L 678 2272 
z
" transform="scale(0.015625)"/>
       </defs>
       <use xlink:href="#DejaVuSans-2212"/>
       <use xlink:href="#DejaVuSans-31" x="83.789062"/>
      </g>
     </g>
    </g>
    <g id="ytick_6">
     <g id="line2d_32">
      <g>
       <use xlink:href="#mb67e5621a2" x="644.953311" y="54.045313" style="stroke: #000000; stroke-width: 0.8"/>
      </g>
     </g>
     <g id="text_29">
      <!-- 0 -->
      <g transform="translate(630.318311 58.604375)scale(0.12 -0.12)">
       <use xlink:href="#DejaVuSans-30"/>
      </g>
     </g>
    </g>
    <g id="ytick_7">
     <g id="line2d_33">
      <g>
       <use xlink:href="#mb67e5621a2" x="644.953311" y="35.293854" style="stroke: #000000; stroke-width: 0.8"/>
      </g>
     </g>
     <g id="text_30">
      <!-- 1 -->
      <g transform="translate(630.318311 39.852917)scale(0.12 -0.12)">
       <use xlink:href="#DejaVuSans-31"/>
      </g>
     </g>
    </g>
    <g id="text_31">
     <!-- x -->
     <g transform="translate(613.767061 57.596563)rotate(-90)scale(0.12 -0.12)">
      <use xlink:href="#DejaVuSans-78"/>
     </g>
    </g>
   </g>
   <g id="line2d_34">
    <path d="M 654.41907 54.045312 
L 679.442036 54.045312 
L 679.694794 35.293854 
L 680.453065 40.375499 
L 681.211337 44.080019 
L 681.969609 46.780613 
L 682.72788 48.749347 
L 683.486152 50.184554 
L 684.244424 51.230819 
L 685.255453 52.198723 
L 686.266482 52.833765 
L 687.530268 53.329906 
L 689.046811 53.665116 
L 691.321627 53.898017 
L 695.112985 54.014986 
L 706.739818 54.045074 
L 729.740727 54.045312 
L 729.993484 44.669583 
L 730.751756 47.210406 
L 731.510027 49.062666 
L 732.268299 50.412963 
L 733.026571 51.39733 
L 734.0376 52.307971 
L 735.048629 52.905443 
L 736.312415 53.372231 
L 737.828958 53.687609 
L 740.103774 53.906731 
L 744.147889 54.019633 
L 757.544023 54.045216 
L 780.292175 54.045312 
L 780.544932 31.543562 
L 781.303203 37.641537 
L 782.061475 42.08696 
L 782.819747 45.327674 
L 783.578019 47.690154 
L 784.33629 49.412402 
L 785.094562 50.667921 
L 785.852834 51.583194 
L 786.863863 52.429916 
L 787.874892 52.985451 
L 789.138678 53.419475 
L 790.907979 53.745976 
L 793.435551 53.94094 
L 798.237938 54.031213 
L 820.480575 54.045311 
L 843.734241 54.045312 
L 843.734241 54.045312 
" clip-path="url(#pa31632d201)" style="fill: none; stroke: #1f77b4; stroke-linecap: square"/>
   </g>
   <g id="line2d_35">
    <path d="M 654.41907 54.045312 
L 679.442036 54.045312 
L 679.694794 35.293854 
L 680.453065 40.375499 
L 681.211337 44.080019 
L 681.969609 46.780613 
L 682.72788 48.749347 
L 683.486152 50.184554 
L 684.244424 51.230819 
L 685.255453 52.198723 
L 686.266482 52.833765 
L 687.530268 53.329906 
L 689.046811 53.665116 
L 691.321627 53.898017 
L 695.112985 54.014986 
L 706.739818 54.045074 
L 729.740727 54.045312 
L 729.993484 44.669583 
L 730.751756 47.210406 
L 731.510027 49.062666 
L 732.268299 50.412963 
L 733.026571 51.39733 
L 734.0376 52.307971 
L 735.048629 52.905443 
L 736.312415 53.372231 
L 737.828958 53.687609 
L 740.103774 53.906731 
L 744.147889 54.019633 
L 757.544023 54.045216 
L 780.292175 54.045312 
L 780.544932 31.543562 
L 781.303203 37.641537 
L 782.061475 42.08696 
L 782.819747 45.327674 
L 783.578019 47.690154 
L 784.33629 49.412402 
L 785.094562 50.667921 
L 785.852834 51.583194 
L 786.863863 52.429916 
L 787.874892 52.985451 
L 789.138678 53.419475 
L 790.907979 53.745976 
L 793.435551 53.94094 
L 798.237938 54.031213 
L 820.480575 54.045311 
L 843.734241 54.045312 
L 843.734241 54.045312 
" clip-path="url(#pa31632d201)" style="fill: none; stroke: #ff7f0e; stroke-linecap: square"/>
   </g>
   <g id="line2d_36">
    <path d="M 654.41907 54.020538 
L 668.067961 54.045229 
L 704.71776 54.045312 
L 704.970517 35.293854 
L 705.728789 40.375499 
L 706.487061 44.080019 
L 707.245333 46.780613 
L 708.003604 48.749347 
L 708.761876 50.184554 
L 709.520148 51.230819 
L 710.531177 52.198723 
L 711.542206 52.833765 
L 712.805992 53.329906 
L 714.322535 53.665116 
L 716.59735 53.898017 
L 720.388709 54.014986 
L 732.015542 54.045074 
L 755.269208 54.045312 
L 755.521965 31.543562 
L 756.280237 37.641537 
L 757.038509 42.08696 
L 757.79678 45.327674 
L 758.555052 47.690154 
L 759.313324 49.412402 
L 760.071595 50.667921 
L 760.829867 51.583194 
L 761.840896 52.429916 
L 762.851925 52.985451 
L 764.115711 53.419475 
L 765.885012 53.745976 
L 768.412584 53.94094 
L 773.214972 54.031213 
L 795.457609 54.045311 
L 805.567898 54.045312 
L 805.820656 44.669583 
L 806.578927 47.210406 
L 807.337199 49.062666 
L 808.095471 50.412963 
L 808.853742 51.39733 
L 809.864771 52.307971 
L 810.8758 52.905443 
L 812.139587 53.372231 
L 813.65613 53.687609 
L 815.930945 53.906731 
L 819.975061 54.019633 
L 833.371195 54.045216 
L 843.734241 54.045311 
L 843.734241 54.045311 
" clip-path="url(#pa31632d201)" style="fill: none; stroke: #2ca02c; stroke-linecap: square"/>
   </g>
   <g id="line2d_37">
    <path d="M 654.41907 54.020538 
L 668.067961 54.045229 
L 704.71776 54.045312 
L 704.970517 35.293854 
L 705.728789 40.375499 
L 706.487061 44.080019 
L 707.245333 46.780613 
L 708.003604 48.749347 
L 708.761876 50.184554 
L 709.520148 51.230819 
L 710.531177 52.198723 
L 711.542206 52.833765 
L 712.805992 53.329906 
L 714.322535 53.665116 
L 716.59735 53.898017 
L 720.388709 54.014986 
L 732.015542 54.045074 
L 755.269208 54.045312 
L 755.521965 31.543562 
L 756.280237 37.641537 
L 757.038509 42.08696 
L 757.79678 45.327674 
L 758.555052 47.690154 
L 759.313324 49.412402 
L 760.071595 50.667921 
L 760.829867 51.583194 
L 761.840896 52.429916 
L 762.851925 52.985451 
L 764.115711 53.419475 
L 765.885012 53.745976 
L 768.412584 53.94094 
L 773.214972 54.031213 
L 795.457609 54.045311 
L 805.567898 54.045312 
L 805.820656 44.669583 
L 806.578927 47.210406 
L 807.337199 49.062666 
L 808.095471 50.412963 
L 808.853742 51.39733 
L 809.864771 52.307971 
L 810.8758 52.905443 
L 812.139587 53.372231 
L 813.65613 53.687609 
L 815.930945 53.906731 
L 819.975061 54.019633 
L 833.371195 54.045216 
L 843.734241 54.045311 
L 843.734241 54.045311 
" clip-path="url(#pa31632d201)" style="fill: none; stroke: #d62728; stroke-linecap: square"/>
   </g>
   <g id="line2d_38">
    <path d="M 654.41907 55.90042 
L 656.441128 55.425499 
L 658.9687 55.079426 
L 662.254544 54.871873 
L 667.815203 54.776364 
L 679.694794 54.76148 
L 680.200308 46.467199 
L 680.705823 41.803178 
L 681.211337 39.379637 
L 681.716851 38.381424 
L 681.969609 38.216644 
L 682.222366 38.202601 
L 682.72788 38.575608 
L 683.486152 39.718331 
L 685.002696 42.735352 
L 687.024753 46.602668 
L 688.28854 48.486017 
L 689.552326 49.957984 
L 690.816112 51.086443 
L 692.079898 51.943882 
L 693.596442 52.699012 
L 695.112985 53.219905 
L 697.135043 53.644902 
L 700.16813 54.009885 
L 703.706731 54.375939 
L 704.970517 54.534258 
L 705.476032 62.595484 
L 705.981546 67.046616 
L 706.487061 69.381041 
L 706.992575 70.408632 
L 707.49809 70.583663 
L 708.003604 70.333967 
L 708.509119 69.756114 
L 709.26739 68.548844 
L 713.058749 61.632664 
L 714.322535 60.000663 
L 715.586321 58.750329 
L 717.102865 57.597383 
L 718.619408 56.747794 
L 720.388709 56.048638 
L 722.410767 55.519715 
L 724.685582 55.158409 
L 727.718669 54.915023 
L 729.993484 54.832485 
L 730.498999 47.107297 
L 731.004513 43.683919 
L 731.510027 42.242516 
L 731.762785 41.942896 
L 732.015542 41.834222 
L 732.521056 42.01785 
L 733.026571 42.532448 
L 734.0376 44.034994 
L 736.565172 48.067011 
L 737.828958 49.608492 
L 739.092745 50.807248 
L 740.356531 51.728359 
L 741.873074 52.544266 
L 743.389618 53.115499 
L 745.158918 53.539845 
L 747.939248 53.931161 
L 755.521965 54.666978 
L 756.02748 62.79887 
L 756.532994 67.552993 
L 757.038509 70.124131 
L 757.544023 71.344434 
L 757.79678 71.593063 
L 758.302295 71.56286 
L 758.807809 71.165674 
L 759.566081 70.079659 
L 760.57711 68.14582 
L 762.346411 64.544527 
L 763.862954 61.932663 
L 765.12674 60.222071 
L 766.390526 58.919807 
L 767.654313 57.898295 
L 769.170856 56.966556 
L 770.687399 56.290591 
L 772.4567 55.737003 
L 774.731515 55.284209 
L 777.511845 54.987311 
L 780.544932 54.844133 
L 781.050446 46.433764 
L 781.555961 41.431093 
L 782.061475 38.679199 
L 782.56699 37.475213 
L 782.819747 37.232475 
L 783.072504 37.177008 
L 783.325261 37.249374 
L 783.830776 37.754169 
L 784.589048 39.041672 
L 786.358348 42.772324 
L 788.127649 46.264643 
L 789.391435 48.226192 
L 790.655221 49.762634 
L 791.919008 50.938347 
L 793.182794 51.832587 
L 794.699337 52.620442 
L 796.215881 53.16746 
L 797.985181 53.571397 
L 800.765511 53.948942 
L 805.820656 54.486139 
L 806.32617 61.875895 
L 806.831685 65.088256 
L 807.337199 66.493009 
L 807.842714 67.007762 
L 808.348228 66.972688 
L 808.853742 66.580213 
L 809.612014 65.548516 
L 812.897858 60.652587 
L 814.161644 59.279533 
L 815.678188 58.007246 
L 817.194731 57.05221 
L 818.711275 56.354658 
L 820.480575 55.781436 
L 822.502633 55.351365 
L 825.030206 55.040806 
L 828.568807 54.849241 
L 835.140495 54.769253 
L 843.734241 54.761605 
L 843.734241 54.761605 
" clip-path="url(#pa31632d201)" style="fill: none; stroke: #9467bd; stroke-width: 2; stroke-linecap: square"/>
   </g>
   <g id="patch_13">
    <path d="M 644.953311 82.1725 
L 644.953311 25.918125 
" style="fill: none; stroke: #000000; stroke-width: 0.8; stroke-linejoin: miter; stroke-linecap: square"/>
   </g>
   <g id="patch_14">
    <path d="M 853.2 82.1725 
L 853.2 25.918125 
" style="fill: none; stroke: #000000; stroke-width: 0.8; stroke-linejoin: miter; stroke-linecap: square"/>
   </g>
   <g id="patch_15">
    <path d="M 644.953311 82.1725 
L 853.2 82.1725 
" style="fill: none; stroke: #000000; stroke-width: 0.8; stroke-linejoin: miter; stroke-linecap: square"/>
   </g>
   <g id="patch_16">
    <path d="M 644.953311 25.918125 
L 853.2 25.918125 
" style="fill: none; stroke: #000000; stroke-width: 0.8; stroke-linejoin: miter; stroke-linecap: square"/>
   </g>
   <g id="text_32">
    <!-- Post-learning phase -->
    <g transform="translate(689.871656 19.918125)scale(0.12 -0.12)">
     <defs>
      <path id="DejaVuSans-6f" d="M 1959 3097 
Q 1497 3097 1228 2736 
Q 959 2375 959 1747 
Q 959 1119 1226 758 
Q 1494 397 1959 397 
Q 2419 397 2687 759 
Q 2956 1122 2956 1747 
Q 2956 2369 2687 2733 
Q 2419 3097 1959 3097 
z
M 1959 3584 
Q 2709 3584 3137 3096 
Q 3566 2609 3566 1747 
Q 3566 888 3137 398 
Q 2709 -91 1959 -91 
Q 1206 -91 779 398 
Q 353 888 353 1747 
Q 353 2609 779 3096 
Q 1206 3584 1959 3584 
z
" transform="scale(0.015625)"/>
      <path id="DejaVuSans-74" d="M 1172 4494 
L 1172 3500 
L 2356 3500 
L 2356 3053 
L 1172 3053 
L 1172 1153 
Q 1172 725 1289 603 
Q 1406 481 1766 481 
L 2356 481 
L 2356 0 
L 1766 0 
Q 1100 0 847 248 
Q 594 497 594 1153 
L 594 3053 
L 172 3053 
L 172 3500 
L 594 3500 
L 594 4494 
L 1172 4494 
z
" transform="scale(0.015625)"/>
     </defs>
     <use xlink:href="#DejaVuSans-50"/>
     <use xlink:href="#DejaVuSans-6f" x="56.677734"/>
     <use xlink:href="#DejaVuSans-73" x="117.859375"/>
     <use xlink:href="#DejaVuSans-74" x="169.958984"/>
     <use xlink:href="#DejaVuSans-2d" x="209.167969"/>
     <use xlink:href="#DejaVuSans-6c" x="245.251953"/>
     <use xlink:href="#DejaVuSans-65" x="273.035156"/>
     <use xlink:href="#DejaVuSans-61" x="334.558594"/>
     <use xlink:href="#DejaVuSans-72" x="395.837891"/>
     <use xlink:href="#DejaVuSans-6e" x="435.201172"/>
     <use xlink:href="#DejaVuSans-69" x="498.580078"/>
     <use xlink:href="#DejaVuSans-6e" x="526.363281"/>
     <use xlink:href="#DejaVuSans-67" x="589.742188"/>
     <use xlink:href="#DejaVuSans-20" x="653.21875"/>
     <use xlink:href="#DejaVuSans-70" x="685.005859"/>
     <use xlink:href="#DejaVuSans-68" x="748.482422"/>
     <use xlink:href="#DejaVuSans-61" x="811.861328"/>
     <use xlink:href="#DejaVuSans-73" x="873.140625"/>
     <use xlink:href="#DejaVuSans-65" x="925.240234"/>
    </g>
   </g>
  </g>
  <g id="axes_4">
   <g id="patch_17">
    <path d="M 70.188125 198.5725 
L 278.434814 198.5725 
L 278.434814 142.318125 
L 70.188125 142.318125 
z
" style="fill: #ffffff"/>
   </g>
   <g id="matplotlib.axis_7">
    <g id="xtick_17">
     <g id="line2d_39">
      <g>
       <use xlink:href="#mf8bc856652" x="79.653884" y="198.5725" style="stroke: #000000; stroke-width: 0.8"/>
      </g>
     </g>
     <g id="text_33">
      <!-- 0.00 -->
      <g transform="translate(66.294509 214.690625)scale(0.12 -0.12)">
       <use xlink:href="#DejaVuSans-30"/>
       <use xlink:href="#DejaVuSans-2e" x="63.623047"/>
       <use xlink:href="#DejaVuSans-30" x="95.410156"/>
       <use xlink:href="#DejaVuSans-30" x="159.033203"/>
      </g>
     </g>
    </g>
    <g id="xtick_18">
     <g id="line2d_40">
      <g>
       <use xlink:href="#mf8bc856652" x="117.668978" y="198.5725" style="stroke: #000000; stroke-width: 0.8"/>
      </g>
     </g>
     <g id="text_34">
      <!-- 0.05 -->
      <g transform="translate(104.309603 214.690625)scale(0.12 -0.12)">
       <use xlink:href="#DejaVuSans-30"/>
       <use xlink:href="#DejaVuSans-2e" x="63.623047"/>
       <use xlink:href="#DejaVuSans-30" x="95.410156"/>
       <use xlink:href="#DejaVuSans-35" x="159.033203"/>
      </g>
     </g>
    </g>
    <g id="xtick_19">
     <g id="line2d_41">
      <g>
       <use xlink:href="#mf8bc856652" x="155.684073" y="198.5725" style="stroke: #000000; stroke-width: 0.8"/>
      </g>
     </g>
     <g id="text_35">
      <!-- 0.10 -->
      <g transform="translate(142.324698 214.690625)scale(0.12 -0.12)">
       <use xlink:href="#DejaVuSans-30"/>
       <use xlink:href="#DejaVuSans-2e" x="63.623047"/>
       <use xlink:href="#DejaVuSans-31" x="95.410156"/>
       <use xlink:href="#DejaVuSans-30" x="159.033203"/>
      </g>
     </g>
    </g>
    <g id="xtick_20">
     <g id="line2d_42">
      <g>
       <use xlink:href="#mf8bc856652" x="193.699168" y="198.5725" style="stroke: #000000; stroke-width: 0.8"/>
      </g>
     </g>
     <g id="text_36">
      <!-- 0.15 -->
      <g transform="translate(180.339793 214.690625)scale(0.12 -0.12)">
       <use xlink:href="#DejaVuSans-30"/>
       <use xlink:href="#DejaVuSans-2e" x="63.623047"/>
       <use xlink:href="#DejaVuSans-31" x="95.410156"/>
       <use xlink:href="#DejaVuSans-35" x="159.033203"/>
      </g>
     </g>
    </g>
    <g id="xtick_21">
     <g id="line2d_43">
      <g>
       <use xlink:href="#mf8bc856652" x="231.714262" y="198.5725" style="stroke: #000000; stroke-width: 0.8"/>
      </g>
     </g>
     <g id="text_37">
      <!-- 0.20 -->
      <g transform="translate(218.354887 214.690625)scale(0.12 -0.12)">
       <use xlink:href="#DejaVuSans-30"/>
       <use xlink:href="#DejaVuSans-2e" x="63.623047"/>
       <use xlink:href="#DejaVuSans-32" x="95.410156"/>
       <use xlink:href="#DejaVuSans-30" x="159.033203"/>
      </g>
     </g>
    </g>
    <g id="xtick_22">
     <g id="line2d_44">
      <g>
       <use xlink:href="#mf8bc856652" x="269.729357" y="198.5725" style="stroke: #000000; stroke-width: 0.8"/>
      </g>
     </g>
     <g id="text_38">
      <!-- 0.25 -->
      <g transform="translate(256.369982 214.690625)scale(0.12 -0.12)">
       <use xlink:href="#DejaVuSans-30"/>
       <use xlink:href="#DejaVuSans-2e" x="63.623047"/>
       <use xlink:href="#DejaVuSans-32" x="95.410156"/>
       <use xlink:href="#DejaVuSans-35" x="159.033203"/>
      </g>
     </g>
    </g>
    <g id="text_39">
     <!-- Time (s) -->
     <g transform="translate(149.916782 230.304375)scale(0.12 -0.12)">
      <use xlink:href="#DejaVuSans-54"/>
      <use xlink:href="#DejaVuSans-69" x="57.958984"/>
      <use xlink:href="#DejaVuSans-6d" x="85.742188"/>
      <use xlink:href="#DejaVuSans-65" x="183.154297"/>
      <use xlink:href="#DejaVuSans-20" x="244.677734"/>
      <use xlink:href="#DejaVuSans-28" x="276.464844"/>
      <use xlink:href="#DejaVuSans-73" x="315.478516"/>
      <use xlink:href="#DejaVuSans-29" x="367.578125"/>
     </g>
    </g>
   </g>
   <g id="matplotlib.axis_8">
    <g id="ytick_8">
     <g id="line2d_45">
      <g>
       <use xlink:href="#mb67e5621a2" x="70.188125" y="196.015483" style="stroke: #000000; stroke-width: 0.8"/>
      </g>
     </g>
     <g id="text_40">
      <!-- 0 -->
      <g transform="translate(55.553125 200.574545)scale(0.12 -0.12)">
       <use xlink:href="#DejaVuSans-30"/>
      </g>
     </g>
    </g>
    <g id="ytick_9">
     <g id="line2d_46">
      <g>
       <use xlink:href="#mb67e5621a2" x="70.188125" y="144.875142" style="stroke: #000000; stroke-width: 0.8"/>
      </g>
     </g>
     <g id="text_41">
      <!-- 10 -->
      <g transform="translate(47.918125 149.434205)scale(0.12 -0.12)">
       <use xlink:href="#DejaVuSans-31"/>
       <use xlink:href="#DejaVuSans-30" x="63.623047"/>
      </g>
     </g>
    </g>
    <g id="text_42">
     <!-- u -->
     <g transform="translate(41.4225 174.247813)rotate(-90)scale(0.12 -0.12)">
      <defs>
       <path id="DejaVuSans-75" d="M 544 1381 
L 544 3500 
L 1119 3500 
L 1119 1403 
Q 1119 906 1312 657 
Q 1506 409 1894 409 
Q 2359 409 2629 706 
Q 2900 1003 2900 1516 
L 2900 3500 
L 3475 3500 
L 3475 0 
L 2900 0 
L 2900 538 
Q 2691 219 2414 64 
Q 2138 -91 1772 -91 
Q 1169 -91 856 284 
Q 544 659 544 1381 
z
M 1991 3584 
L 1991 3584 
z
" transform="scale(0.015625)"/>
      </defs>
      <use xlink:href="#DejaVuSans-75"/>
     </g>
    </g>
   </g>
   <g id="line2d_47">
    <path d="M 79.653884 196.015483 
L 116.908676 196.015483 
L 117.668978 144.875142 
L 118.42928 196.015483 
L 268.969055 196.015483 
L 268.969055 196.015483 
" clip-path="url(#pc3d9844785)" style="fill: none; stroke: #1f77b4; stroke-width: 1.5; stroke-linecap: square"/>
   </g>
   <g id="line2d_48">
    <path d="M 79.653884 196.015483 
L 116.908676 196.015483 
L 117.668978 144.875142 
L 118.42928 196.015483 
L 268.969055 196.015483 
L 268.969055 196.015483 
" clip-path="url(#pc3d9844785)" style="fill: none; stroke: #ff7f0e; stroke-width: 1.5; stroke-linecap: square"/>
   </g>
   <g id="line2d_49">
    <path d="M 79.653884 196.015483 
L 192.178564 196.015483 
L 192.938866 144.875142 
L 193.699168 196.015483 
L 268.969055 196.015483 
L 268.969055 196.015483 
" clip-path="url(#pc3d9844785)" style="fill: none; stroke: #2ca02c; stroke-width: 1.5; stroke-linecap: square"/>
   </g>
   <g id="line2d_50">
    <path d="M 79.653884 196.015483 
L 192.178564 196.015483 
L 192.938866 144.875142 
L 193.699168 196.015483 
L 268.969055 196.015483 
L 268.969055 196.015483 
" clip-path="url(#pc3d9844785)" style="fill: none; stroke: #d62728; stroke-width: 1.5; stroke-linecap: square"/>
   </g>
   <g id="line2d_51">
    <path d="M 79.653884 196.015483 
L 268.969055 196.015483 
L 268.969055 196.015483 
" clip-path="url(#pc3d9844785)" style="fill: none; stroke: #9467bd; stroke-width: 1.5; stroke-linecap: square"/>
   </g>
   <g id="patch_18">
    <path d="M 70.188125 198.5725 
L 70.188125 142.318125 
" style="fill: none; stroke: #000000; stroke-width: 0.8; stroke-linejoin: miter; stroke-linecap: square"/>
   </g>
   <g id="patch_19">
    <path d="M 278.434814 198.5725 
L 278.434814 142.318125 
" style="fill: none; stroke: #000000; stroke-width: 0.8; stroke-linejoin: miter; stroke-linecap: square"/>
   </g>
   <g id="patch_20">
    <path d="M 70.188125 198.5725 
L 278.434814 198.5725 
" style="fill: none; stroke: #000000; stroke-width: 0.8; stroke-linejoin: miter; stroke-linecap: square"/>
   </g>
   <g id="patch_21">
    <path d="M 70.188125 142.318125 
L 278.434814 142.318125 
" style="fill: none; stroke: #000000; stroke-width: 0.8; stroke-linejoin: miter; stroke-linecap: square"/>
   </g>
   <g id="text_43">
    <!-- Input -->
    <g transform="translate(158.775219 136.318125)scale(0.12 -0.12)">
     <defs>
      <path id="DejaVuSans-49" d="M 628 4666 
L 1259 4666 
L 1259 0 
L 628 0 
L 628 4666 
z
" transform="scale(0.015625)"/>
     </defs>
     <use xlink:href="#DejaVuSans-49"/>
     <use xlink:href="#DejaVuSans-6e" x="29.492188"/>
     <use xlink:href="#DejaVuSans-70" x="92.871094"/>
     <use xlink:href="#DejaVuSans-75" x="156.347656"/>
     <use xlink:href="#DejaVuSans-74" x="219.726562"/>
    </g>
   </g>
  </g>
  <g id="axes_5">
   <g id="patch_22">
    <path d="M 357.570718 198.5725 
L 565.817407 198.5725 
L 565.817407 142.318125 
L 357.570718 142.318125 
z
" style="fill: #ffffff"/>
   </g>
   <g id="matplotlib.axis_9">
    <g id="xtick_23">
     <g id="line2d_52">
      <g>
       <use xlink:href="#mf8bc856652" x="367.036477" y="198.5725" style="stroke: #000000; stroke-width: 0.8"/>
      </g>
     </g>
     <g id="text_44">
      <!-- 0.00 -->
      <g transform="translate(353.677102 214.690625)scale(0.12 -0.12)">
       <use xlink:href="#DejaVuSans-30"/>
       <use xlink:href="#DejaVuSans-2e" x="63.623047"/>
       <use xlink:href="#DejaVuSans-30" x="95.410156"/>
       <use xlink:href="#DejaVuSans-30" x="159.033203"/>
      </g>
     </g>
    </g>
    <g id="xtick_24">
     <g id="line2d_53">
      <g>
       <use xlink:href="#mf8bc856652" x="405.051571" y="198.5725" style="stroke: #000000; stroke-width: 0.8"/>
      </g>
     </g>
     <g id="text_45">
      <!-- 0.05 -->
      <g transform="translate(391.692196 214.690625)scale(0.12 -0.12)">
       <use xlink:href="#DejaVuSans-30"/>
       <use xlink:href="#DejaVuSans-2e" x="63.623047"/>
       <use xlink:href="#DejaVuSans-30" x="95.410156"/>
       <use xlink:href="#DejaVuSans-35" x="159.033203"/>
      </g>
     </g>
    </g>
    <g id="xtick_25">
     <g id="line2d_54">
      <g>
       <use xlink:href="#mf8bc856652" x="443.066666" y="198.5725" style="stroke: #000000; stroke-width: 0.8"/>
      </g>
     </g>
     <g id="text_46">
      <!-- 0.10 -->
      <g transform="translate(429.707291 214.690625)scale(0.12 -0.12)">
       <use xlink:href="#DejaVuSans-30"/>
       <use xlink:href="#DejaVuSans-2e" x="63.623047"/>
       <use xlink:href="#DejaVuSans-31" x="95.410156"/>
       <use xlink:href="#DejaVuSans-30" x="159.033203"/>
      </g>
     </g>
    </g>
    <g id="xtick_26">
     <g id="line2d_55">
      <g>
       <use xlink:href="#mf8bc856652" x="481.081761" y="198.5725" style="stroke: #000000; stroke-width: 0.8"/>
      </g>
     </g>
     <g id="text_47">
      <!-- 0.15 -->
      <g transform="translate(467.722386 214.690625)scale(0.12 -0.12)">
       <use xlink:href="#DejaVuSans-30"/>
       <use xlink:href="#DejaVuSans-2e" x="63.623047"/>
       <use xlink:href="#DejaVuSans-31" x="95.410156"/>
       <use xlink:href="#DejaVuSans-35" x="159.033203"/>
      </g>
     </g>
    </g>
    <g id="xtick_27">
     <g id="line2d_56">
      <g>
       <use xlink:href="#mf8bc856652" x="519.096856" y="198.5725" style="stroke: #000000; stroke-width: 0.8"/>
      </g>
     </g>
     <g id="text_48">
      <!-- 0.20 -->
      <g transform="translate(505.737481 214.690625)scale(0.12 -0.12)">
       <use xlink:href="#DejaVuSans-30"/>
       <use xlink:href="#DejaVuSans-2e" x="63.623047"/>
       <use xlink:href="#DejaVuSans-32" x="95.410156"/>
       <use xlink:href="#DejaVuSans-30" x="159.033203"/>
      </g>
     </g>
    </g>
    <g id="xtick_28">
     <g id="line2d_57">
      <g>
       <use xlink:href="#mf8bc856652" x="557.11195" y="198.5725" style="stroke: #000000; stroke-width: 0.8"/>
      </g>
     </g>
     <g id="text_49">
      <!-- 0.25 -->
      <g transform="translate(543.752575 214.690625)scale(0.12 -0.12)">
       <use xlink:href="#DejaVuSans-30"/>
       <use xlink:href="#DejaVuSans-2e" x="63.623047"/>
       <use xlink:href="#DejaVuSans-32" x="95.410156"/>
       <use xlink:href="#DejaVuSans-35" x="159.033203"/>
      </g>
     </g>
    </g>
    <g id="text_50">
     <!-- Time (s) -->
     <g transform="translate(437.299375 230.304375)scale(0.12 -0.12)">
      <use xlink:href="#DejaVuSans-54"/>
      <use xlink:href="#DejaVuSans-69" x="57.958984"/>
      <use xlink:href="#DejaVuSans-6d" x="85.742188"/>
      <use xlink:href="#DejaVuSans-65" x="183.154297"/>
      <use xlink:href="#DejaVuSans-20" x="244.677734"/>
      <use xlink:href="#DejaVuSans-28" x="276.464844"/>
      <use xlink:href="#DejaVuSans-73" x="315.478516"/>
      <use xlink:href="#DejaVuSans-29" x="367.578125"/>
     </g>
    </g>
   </g>
   <g id="matplotlib.axis_10">
    <g id="ytick_10">
     <g id="line2d_58">
      <g>
       <use xlink:href="#mb67e5621a2" x="357.570718" y="196.015483" style="stroke: #000000; stroke-width: 0.8"/>
      </g>
     </g>
     <g id="text_51">
      <!-- 0 -->
      <g transform="translate(342.935718 200.574545)scale(0.12 -0.12)">
       <use xlink:href="#DejaVuSans-30"/>
      </g>
     </g>
    </g>
    <g id="ytick_11">
     <g id="line2d_59">
      <g>
       <use xlink:href="#mb67e5621a2" x="357.570718" y="144.875142" style="stroke: #000000; stroke-width: 0.8"/>
      </g>
     </g>
     <g id="text_52">
      <!-- 50 -->
      <g transform="translate(335.300718 149.434205)scale(0.12 -0.12)">
       <use xlink:href="#DejaVuSans-35"/>
       <use xlink:href="#DejaVuSans-30" x="63.623047"/>
      </g>
     </g>
    </g>
    <g id="text_53">
     <!-- u -->
     <g transform="translate(328.805093 174.247813)rotate(-90)scale(0.12 -0.12)">
      <use xlink:href="#DejaVuSans-75"/>
     </g>
    </g>
   </g>
   <g id="line2d_60">
    <path d="M 367.036477 144.875142 
L 404.291269 144.875142 
L 405.051571 196.015483 
L 556.351648 196.015483 
L 556.351648 196.015483 
" clip-path="url(#pca517a7662)" style="fill: none; stroke: #1f77b4; stroke-width: 1.5; stroke-linecap: square"/>
   </g>
   <g id="line2d_61">
    <path d="M 367.036477 144.875142 
L 404.291269 144.875142 
L 405.051571 196.015483 
L 556.351648 196.015483 
L 556.351648 196.015483 
" clip-path="url(#pca517a7662)" style="fill: none; stroke: #ff7f0e; stroke-width: 1.5; stroke-linecap: square"/>
   </g>
   <g id="line2d_62">
    <path d="M 367.036477 196.015483 
L 442.306364 196.015483 
L 443.066666 144.875142 
L 480.321459 144.875142 
L 481.081761 196.015483 
L 556.351648 196.015483 
L 556.351648 196.015483 
" clip-path="url(#pca517a7662)" style="fill: none; stroke: #2ca02c; stroke-width: 1.5; stroke-linecap: square"/>
   </g>
   <g id="line2d_63">
    <path d="M 367.036477 196.015483 
L 442.306364 196.015483 
L 443.066666 144.875142 
L 480.321459 144.875142 
L 481.081761 196.015483 
L 556.351648 196.015483 
L 556.351648 196.015483 
" clip-path="url(#pca517a7662)" style="fill: none; stroke: #d62728; stroke-width: 1.5; stroke-linecap: square"/>
   </g>
   <g id="line2d_64">
    <path d="M 367.036477 196.015483 
L 556.351648 196.015483 
L 556.351648 196.015483 
" clip-path="url(#pca517a7662)" style="fill: none; stroke: #9467bd; stroke-width: 1.5; stroke-linecap: square"/>
   </g>
   <g id="patch_23">
    <path d="M 357.570718 198.5725 
L 357.570718 142.318125 
" style="fill: none; stroke: #000000; stroke-width: 0.8; stroke-linejoin: miter; stroke-linecap: square"/>
   </g>
   <g id="patch_24">
    <path d="M 565.817407 198.5725 
L 565.817407 142.318125 
" style="fill: none; stroke: #000000; stroke-width: 0.8; stroke-linejoin: miter; stroke-linecap: square"/>
   </g>
   <g id="patch_25">
    <path d="M 357.570718 198.5725 
L 565.817407 198.5725 
" style="fill: none; stroke: #000000; stroke-width: 0.8; stroke-linejoin: miter; stroke-linecap: square"/>
   </g>
   <g id="patch_26">
    <path d="M 357.570718 142.318125 
L 565.817407 142.318125 
" style="fill: none; stroke: #000000; stroke-width: 0.8; stroke-linejoin: miter; stroke-linecap: square"/>
   </g>
   <g id="text_54">
    <!-- Input -->
    <g transform="translate(446.157812 136.318125)scale(0.12 -0.12)">
     <use xlink:href="#DejaVuSans-49"/>
     <use xlink:href="#DejaVuSans-6e" x="29.492188"/>
     <use xlink:href="#DejaVuSans-70" x="92.871094"/>
     <use xlink:href="#DejaVuSans-75" x="156.347656"/>
     <use xlink:href="#DejaVuSans-74" x="219.726562"/>
    </g>
   </g>
  </g>
  <g id="axes_6">
   <g id="patch_27">
    <path d="M 644.953311 198.5725 
L 853.2 198.5725 
L 853.2 142.318125 
L 644.953311 142.318125 
z
" style="fill: #ffffff"/>
   </g>
   <g id="matplotlib.axis_11">
    <g id="xtick_29">
     <g id="line2d_65">
      <g>
       <use xlink:href="#mf8bc856652" x="654.41907" y="198.5725" style="stroke: #000000; stroke-width: 0.8"/>
      </g>
     </g>
     <g id="text_55">
      <!-- 0.0 -->
      <g transform="translate(644.877195 214.690625)scale(0.12 -0.12)">
       <use xlink:href="#DejaVuSans-30"/>
       <use xlink:href="#DejaVuSans-2e" x="63.623047"/>
       <use xlink:href="#DejaVuSans-30" x="95.410156"/>
      </g>
     </g>
    </g>
    <g id="xtick_30">
     <g id="line2d_66">
      <g>
       <use xlink:href="#mf8bc856652" x="704.970517" y="198.5725" style="stroke: #000000; stroke-width: 0.8"/>
      </g>
     </g>
     <g id="text_56">
      <!-- 0.2 -->
      <g transform="translate(695.428642 214.690625)scale(0.12 -0.12)">
       <use xlink:href="#DejaVuSans-30"/>
       <use xlink:href="#DejaVuSans-2e" x="63.623047"/>
       <use xlink:href="#DejaVuSans-32" x="95.410156"/>
      </g>
     </g>
    </g>
    <g id="xtick_31">
     <g id="line2d_67">
      <g>
       <use xlink:href="#mf8bc856652" x="755.521965" y="198.5725" style="stroke: #000000; stroke-width: 0.8"/>
      </g>
     </g>
     <g id="text_57">
      <!-- 0.4 -->
      <g transform="translate(745.98009 214.690625)scale(0.12 -0.12)">
       <use xlink:href="#DejaVuSans-30"/>
       <use xlink:href="#DejaVuSans-2e" x="63.623047"/>
       <use xlink:href="#DejaVuSans-34" x="95.410156"/>
      </g>
     </g>
    </g>
    <g id="xtick_32">
     <g id="line2d_68">
      <g>
       <use xlink:href="#mf8bc856652" x="806.073413" y="198.5725" style="stroke: #000000; stroke-width: 0.8"/>
      </g>
     </g>
     <g id="text_58">
      <!-- 0.6 -->
      <g transform="translate(796.531538 214.690625)scale(0.12 -0.12)">
       <use xlink:href="#DejaVuSans-30"/>
       <use xlink:href="#DejaVuSans-2e" x="63.623047"/>
       <use xlink:href="#DejaVuSans-36" x="95.410156"/>
      </g>
     </g>
    </g>
    <g id="text_59">
     <!-- Time (s) -->
     <g transform="translate(724.681968 230.304375)scale(0.12 -0.12)">
      <use xlink:href="#DejaVuSans-54"/>
      <use xlink:href="#DejaVuSans-69" x="57.958984"/>
      <use xlink:href="#DejaVuSans-6d" x="85.742188"/>
      <use xlink:href="#DejaVuSans-65" x="183.154297"/>
      <use xlink:href="#DejaVuSans-20" x="244.677734"/>
      <use xlink:href="#DejaVuSans-28" x="276.464844"/>
      <use xlink:href="#DejaVuSans-73" x="315.478516"/>
      <use xlink:href="#DejaVuSans-29" x="367.578125"/>
     </g>
    </g>
   </g>
   <g id="matplotlib.axis_12">
    <g id="ytick_12">
     <g id="line2d_69">
      <g>
       <use xlink:href="#mb67e5621a2" x="644.953311" y="196.015483" style="stroke: #000000; stroke-width: 0.8"/>
      </g>
     </g>
     <g id="text_60">
      <!-- 0 -->
      <g transform="translate(630.318311 200.574545)scale(0.12 -0.12)">
       <use xlink:href="#DejaVuSans-30"/>
      </g>
     </g>
    </g>
    <g id="ytick_13">
     <g id="line2d_70">
      <g>
       <use xlink:href="#mb67e5621a2" x="644.953311" y="153.398532" style="stroke: #000000; stroke-width: 0.8"/>
      </g>
     </g>
     <g id="text_61">
      <!-- 10 -->
      <g transform="translate(622.683311 157.957595)scale(0.12 -0.12)">
       <use xlink:href="#DejaVuSans-31"/>
       <use xlink:href="#DejaVuSans-30" x="63.623047"/>
      </g>
     </g>
    </g>
    <g id="text_62">
     <!-- u -->
     <g transform="translate(616.187686 174.247813)rotate(-90)scale(0.12 -0.12)">
      <use xlink:href="#DejaVuSans-75"/>
     </g>
    </g>
   </g>
   <g id="line2d_71">
    <path d="M 654.41907 196.015483 
L 679.442036 196.015483 
L 679.694794 153.398532 
L 679.947551 196.015483 
L 729.740727 196.015483 
L 729.993484 174.707008 
L 730.246241 196.015483 
L 780.292175 196.015483 
L 780.544932 144.875142 
L 780.797689 196.015483 
L 843.734241 196.015483 
L 843.734241 196.015483 
" clip-path="url(#p53703466b1)" style="fill: none; stroke: #1f77b4; stroke-width: 1.5; stroke-linecap: square"/>
   </g>
   <g id="line2d_72">
    <path d="M 654.41907 196.015483 
L 679.442036 196.015483 
L 679.694794 153.398532 
L 679.947551 196.015483 
L 729.740727 196.015483 
L 729.993484 174.707008 
L 730.246241 196.015483 
L 780.292175 196.015483 
L 780.544932 144.875142 
L 780.797689 196.015483 
L 843.734241 196.015483 
L 843.734241 196.015483 
" clip-path="url(#p53703466b1)" style="fill: none; stroke: #ff7f0e; stroke-width: 1.5; stroke-linecap: square"/>
   </g>
   <g id="line2d_73">
    <path d="M 654.41907 196.015483 
L 704.71776 196.015483 
L 704.970517 153.398532 
L 705.223275 196.015483 
L 755.269208 196.015483 
L 755.521965 144.875142 
L 755.774722 196.015483 
L 805.567898 196.015483 
L 805.820656 174.707008 
L 806.073413 196.015483 
L 843.734241 196.015483 
L 843.734241 196.015483 
" clip-path="url(#p53703466b1)" style="fill: none; stroke: #2ca02c; stroke-width: 1.5; stroke-linecap: square"/>
   </g>
   <g id="line2d_74">
    <path d="M 654.41907 196.015483 
L 704.71776 196.015483 
L 704.970517 153.398532 
L 705.223275 196.015483 
L 755.269208 196.015483 
L 755.521965 144.875142 
L 755.774722 196.015483 
L 805.567898 196.015483 
L 805.820656 174.707008 
L 806.073413 196.015483 
L 843.734241 196.015483 
L 843.734241 196.015483 
" clip-path="url(#p53703466b1)" style="fill: none; stroke: #d62728; stroke-width: 1.5; stroke-linecap: square"/>
   </g>
   <g id="line2d_75">
    <path d="M 654.41907 196.015483 
L 843.734241 196.015483 
L 843.734241 196.015483 
" clip-path="url(#p53703466b1)" style="fill: none; stroke: #9467bd; stroke-width: 1.5; stroke-linecap: square"/>
   </g>
   <g id="patch_28">
    <path d="M 644.953311 198.5725 
L 644.953311 142.318125 
" style="fill: none; stroke: #000000; stroke-width: 0.8; stroke-linejoin: miter; stroke-linecap: square"/>
   </g>
   <g id="patch_29">
    <path d="M 853.2 198.5725 
L 853.2 142.318125 
" style="fill: none; stroke: #000000; stroke-width: 0.8; stroke-linejoin: miter; stroke-linecap: square"/>
   </g>
   <g id="patch_30">
    <path d="M 644.953311 198.5725 
L 853.2 198.5725 
" style="fill: none; stroke: #000000; stroke-width: 0.8; stroke-linejoin: miter; stroke-linecap: square"/>
   </g>
   <g id="patch_31">
    <path d="M 644.953311 142.318125 
L 853.2 142.318125 
" style="fill: none; stroke: #000000; stroke-width: 0.8; stroke-linejoin: miter; stroke-linecap: square"/>
   </g>
   <g id="text_63">
    <!-- Input -->
    <g transform="translate(733.540406 136.318125)scale(0.12 -0.12)">
     <use xlink:href="#DejaVuSans-49"/>
     <use xlink:href="#DejaVuSans-6e" x="29.492188"/>
     <use xlink:href="#DejaVuSans-70" x="92.871094"/>
     <use xlink:href="#DejaVuSans-75" x="156.347656"/>
     <use xlink:href="#DejaVuSans-74" x="219.726562"/>
    </g>
   </g>
  </g>
  <g id="axes_7">
   <g id="patch_32">
    <path d="M 70.188125 314.9725 
L 278.434814 314.9725 
L 278.434814 258.718125 
L 70.188125 258.718125 
z
" style="fill: #ffffff"/>
   </g>
   <g id="matplotlib.axis_13">
    <g id="xtick_33">
     <g id="line2d_76">
      <g>
       <use xlink:href="#mf8bc856652" x="79.653884" y="314.9725" style="stroke: #000000; stroke-width: 0.8"/>
      </g>
     </g>
     <g id="text_64">
      <!-- 0.00 -->
      <g transform="translate(66.294509 331.090625)scale(0.12 -0.12)">
       <use xlink:href="#DejaVuSans-30"/>
       <use xlink:href="#DejaVuSans-2e" x="63.623047"/>
       <use xlink:href="#DejaVuSans-30" x="95.410156"/>
       <use xlink:href="#DejaVuSans-30" x="159.033203"/>
      </g>
     </g>
    </g>
    <g id="xtick_34">
     <g id="line2d_77">
      <g>
       <use xlink:href="#mf8bc856652" x="117.668978" y="314.9725" style="stroke: #000000; stroke-width: 0.8"/>
      </g>
     </g>
     <g id="text_65">
      <!-- 0.05 -->
      <g transform="translate(104.309603 331.090625)scale(0.12 -0.12)">
       <use xlink:href="#DejaVuSans-30"/>
       <use xlink:href="#DejaVuSans-2e" x="63.623047"/>
       <use xlink:href="#DejaVuSans-30" x="95.410156"/>
       <use xlink:href="#DejaVuSans-35" x="159.033203"/>
      </g>
     </g>
    </g>
    <g id="xtick_35">
     <g id="line2d_78">
      <g>
       <use xlink:href="#mf8bc856652" x="155.684073" y="314.9725" style="stroke: #000000; stroke-width: 0.8"/>
      </g>
     </g>
     <g id="text_66">
      <!-- 0.10 -->
      <g transform="translate(142.324698 331.090625)scale(0.12 -0.12)">
       <use xlink:href="#DejaVuSans-30"/>
       <use xlink:href="#DejaVuSans-2e" x="63.623047"/>
       <use xlink:href="#DejaVuSans-31" x="95.410156"/>
       <use xlink:href="#DejaVuSans-30" x="159.033203"/>
      </g>
     </g>
    </g>
    <g id="xtick_36">
     <g id="line2d_79">
      <g>
       <use xlink:href="#mf8bc856652" x="193.699168" y="314.9725" style="stroke: #000000; stroke-width: 0.8"/>
      </g>
     </g>
     <g id="text_67">
      <!-- 0.15 -->
      <g transform="translate(180.339793 331.090625)scale(0.12 -0.12)">
       <use xlink:href="#DejaVuSans-30"/>
       <use xlink:href="#DejaVuSans-2e" x="63.623047"/>
       <use xlink:href="#DejaVuSans-31" x="95.410156"/>
       <use xlink:href="#DejaVuSans-35" x="159.033203"/>
      </g>
     </g>
    </g>
    <g id="xtick_37">
     <g id="line2d_80">
      <g>
       <use xlink:href="#mf8bc856652" x="231.714262" y="314.9725" style="stroke: #000000; stroke-width: 0.8"/>
      </g>
     </g>
     <g id="text_68">
      <!-- 0.20 -->
      <g transform="translate(218.354887 331.090625)scale(0.12 -0.12)">
       <use xlink:href="#DejaVuSans-30"/>
       <use xlink:href="#DejaVuSans-2e" x="63.623047"/>
       <use xlink:href="#DejaVuSans-32" x="95.410156"/>
       <use xlink:href="#DejaVuSans-30" x="159.033203"/>
      </g>
     </g>
    </g>
    <g id="xtick_38">
     <g id="line2d_81">
      <g>
       <use xlink:href="#mf8bc856652" x="269.729357" y="314.9725" style="stroke: #000000; stroke-width: 0.8"/>
      </g>
     </g>
     <g id="text_69">
      <!-- 0.25 -->
      <g transform="translate(256.369982 331.090625)scale(0.12 -0.12)">
       <use xlink:href="#DejaVuSans-30"/>
       <use xlink:href="#DejaVuSans-2e" x="63.623047"/>
       <use xlink:href="#DejaVuSans-32" x="95.410156"/>
       <use xlink:href="#DejaVuSans-35" x="159.033203"/>
      </g>
     </g>
    </g>
    <g id="text_70">
     <!-- Time (s) -->
     <g transform="translate(149.916782 346.704375)scale(0.12 -0.12)">
      <use xlink:href="#DejaVuSans-54"/>
      <use xlink:href="#DejaVuSans-69" x="57.958984"/>
      <use xlink:href="#DejaVuSans-6d" x="85.742188"/>
      <use xlink:href="#DejaVuSans-65" x="183.154297"/>
      <use xlink:href="#DejaVuSans-20" x="244.677734"/>
      <use xlink:href="#DejaVuSans-28" x="276.464844"/>
      <use xlink:href="#DejaVuSans-73" x="315.478516"/>
      <use xlink:href="#DejaVuSans-29" x="367.578125"/>
     </g>
    </g>
   </g>
   <g id="matplotlib.axis_14">
    <g id="ytick_14">
     <g id="line2d_82">
      <g>
       <use xlink:href="#mb67e5621a2" x="70.188125" y="312.415483" style="stroke: #000000; stroke-width: 0.8"/>
      </g>
     </g>
     <g id="text_71">
      <!-- −0.05 -->
      <g transform="translate(26.41375 316.974545)scale(0.12 -0.12)">
       <use xlink:href="#DejaVuSans-2212"/>
       <use xlink:href="#DejaVuSans-30" x="83.789062"/>
       <use xlink:href="#DejaVuSans-2e" x="147.412109"/>
       <use xlink:href="#DejaVuSans-30" x="179.199219"/>
       <use xlink:href="#DejaVuSans-35" x="242.822266"/>
      </g>
     </g>
    </g>
    <g id="ytick_15">
     <g id="line2d_83">
      <g>
       <use xlink:href="#mb67e5621a2" x="70.188125" y="286.845313" style="stroke: #000000; stroke-width: 0.8"/>
      </g>
     </g>
     <g id="text_72">
      <!-- 0.00 -->
      <g transform="translate(36.469375 291.404375)scale(0.12 -0.12)">
       <use xlink:href="#DejaVuSans-30"/>
       <use xlink:href="#DejaVuSans-2e" x="63.623047"/>
       <use xlink:href="#DejaVuSans-30" x="95.410156"/>
       <use xlink:href="#DejaVuSans-30" x="159.033203"/>
      </g>
     </g>
    </g>
    <g id="ytick_16">
     <g id="line2d_84">
      <g>
       <use xlink:href="#mb67e5621a2" x="70.188125" y="261.275142" style="stroke: #000000; stroke-width: 0.8"/>
      </g>
     </g>
     <g id="text_73">
      <!-- 0.05 -->
      <g transform="translate(36.469375 265.834205)scale(0.12 -0.12)">
       <use xlink:href="#DejaVuSans-30"/>
       <use xlink:href="#DejaVuSans-2e" x="63.623047"/>
       <use xlink:href="#DejaVuSans-30" x="95.410156"/>
       <use xlink:href="#DejaVuSans-35" x="159.033203"/>
      </g>
     </g>
    </g>
    <g id="text_74">
     <!-- l -->
     <g transform="translate(19.918125 288.512188)rotate(-90)scale(0.12 -0.12)">
      <use xlink:href="#DejaVuSans-6c"/>
     </g>
    </g>
   </g>
   <g id="line2d_85">
    <path d="M 79.653884 286.845313 
L 268.969055 286.845313 
L 268.969055 286.845313 
" clip-path="url(#pcfe3a933f6)" style="fill: none; stroke: #1f77b4; stroke-width: 1.5; stroke-linecap: square"/>
   </g>
   <g id="line2d_86">
    <path d="M 79.653884 286.845313 
L 268.969055 286.845313 
L 268.969055 286.845313 
" clip-path="url(#pcfe3a933f6)" style="fill: none; stroke: #ff7f0e; stroke-width: 1.5; stroke-linecap: square"/>
   </g>
   <g id="line2d_87">
    <path d="M 79.653884 286.845313 
L 268.969055 286.845313 
L 268.969055 286.845313 
" clip-path="url(#pcfe3a933f6)" style="fill: none; stroke: #2ca02c; stroke-width: 1.5; stroke-linecap: square"/>
   </g>
   <g id="line2d_88">
    <path d="M 79.653884 286.845313 
L 268.969055 286.845313 
L 268.969055 286.845313 
" clip-path="url(#pcfe3a933f6)" style="fill: none; stroke: #d62728; stroke-width: 1.5; stroke-linecap: square"/>
   </g>
   <g id="line2d_89">
    <path d="M 79.653884 286.845313 
L 268.969055 286.845313 
L 268.969055 286.845313 
" clip-path="url(#pcfe3a933f6)" style="fill: none; stroke: #9467bd; stroke-width: 1.5; stroke-linecap: square"/>
   </g>
   <g id="patch_33">
    <path d="M 70.188125 314.9725 
L 70.188125 258.718125 
" style="fill: none; stroke: #000000; stroke-width: 0.8; stroke-linejoin: miter; stroke-linecap: square"/>
   </g>
   <g id="patch_34">
    <path d="M 278.434814 314.9725 
L 278.434814 258.718125 
" style="fill: none; stroke: #000000; stroke-width: 0.8; stroke-linejoin: miter; stroke-linecap: square"/>
   </g>
   <g id="patch_35">
    <path d="M 70.188125 314.9725 
L 278.434814 314.9725 
" style="fill: none; stroke: #000000; stroke-width: 0.8; stroke-linejoin: miter; stroke-linecap: square"/>
   </g>
   <g id="patch_36">
    <path d="M 70.188125 258.718125 
L 278.434814 258.718125 
" style="fill: none; stroke: #000000; stroke-width: 0.8; stroke-linejoin: miter; stroke-linecap: square"/>
   </g>
   <g id="text_75">
    <!-- Learning signals -->
    <g transform="translate(125.481782 252.718125)scale(0.12 -0.12)">
     <use xlink:href="#DejaVuSans-4c"/>
     <use xlink:href="#DejaVuSans-65" x="53.962891"/>
     <use xlink:href="#DejaVuSans-61" x="115.486328"/>
     <use xlink:href="#DejaVuSans-72" x="176.765625"/>
     <use xlink:href="#DejaVuSans-6e" x="216.128906"/>
     <use xlink:href="#DejaVuSans-69" x="279.507812"/>
     <use xlink:href="#DejaVuSans-6e" x="307.291016"/>
     <use xlink:href="#DejaVuSans-67" x="370.669922"/>
     <use xlink:href="#DejaVuSans-20" x="434.146484"/>
     <use xlink:href="#DejaVuSans-73" x="465.933594"/>
     <use xlink:href="#DejaVuSans-69" x="518.033203"/>
     <use xlink:href="#DejaVuSans-67" x="545.816406"/>
     <use xlink:href="#DejaVuSans-6e" x="609.292969"/>
     <use xlink:href="#DejaVuSans-61" x="672.671875"/>
     <use xlink:href="#DejaVuSans-6c" x="733.951172"/>
     <use xlink:href="#DejaVuSans-73" x="761.734375"/>
    </g>
   </g>
  </g>
  <g id="axes_8">
   <g id="patch_37">
    <path d="M 357.570718 314.9725 
L 565.817407 314.9725 
L 565.817407 258.718125 
L 357.570718 258.718125 
z
" style="fill: #ffffff"/>
   </g>
   <g id="matplotlib.axis_15">
    <g id="xtick_39">
     <g id="line2d_90">
      <g>
       <use xlink:href="#mf8bc856652" x="367.036477" y="314.9725" style="stroke: #000000; stroke-width: 0.8"/>
      </g>
     </g>
     <g id="text_76">
      <!-- 0.00 -->
      <g transform="translate(353.677102 331.090625)scale(0.12 -0.12)">
       <use xlink:href="#DejaVuSans-30"/>
       <use xlink:href="#DejaVuSans-2e" x="63.623047"/>
       <use xlink:href="#DejaVuSans-30" x="95.410156"/>
       <use xlink:href="#DejaVuSans-30" x="159.033203"/>
      </g>
     </g>
    </g>
    <g id="xtick_40">
     <g id="line2d_91">
      <g>
       <use xlink:href="#mf8bc856652" x="405.051571" y="314.9725" style="stroke: #000000; stroke-width: 0.8"/>
      </g>
     </g>
     <g id="text_77">
      <!-- 0.05 -->
      <g transform="translate(391.692196 331.090625)scale(0.12 -0.12)">
       <use xlink:href="#DejaVuSans-30"/>
       <use xlink:href="#DejaVuSans-2e" x="63.623047"/>
       <use xlink:href="#DejaVuSans-30" x="95.410156"/>
       <use xlink:href="#DejaVuSans-35" x="159.033203"/>
      </g>
     </g>
    </g>
    <g id="xtick_41">
     <g id="line2d_92">
      <g>
       <use xlink:href="#mf8bc856652" x="443.066666" y="314.9725" style="stroke: #000000; stroke-width: 0.8"/>
      </g>
     </g>
     <g id="text_78">
      <!-- 0.10 -->
      <g transform="translate(429.707291 331.090625)scale(0.12 -0.12)">
       <use xlink:href="#DejaVuSans-30"/>
       <use xlink:href="#DejaVuSans-2e" x="63.623047"/>
       <use xlink:href="#DejaVuSans-31" x="95.410156"/>
       <use xlink:href="#DejaVuSans-30" x="159.033203"/>
      </g>
     </g>
    </g>
    <g id="xtick_42">
     <g id="line2d_93">
      <g>
       <use xlink:href="#mf8bc856652" x="481.081761" y="314.9725" style="stroke: #000000; stroke-width: 0.8"/>
      </g>
     </g>
     <g id="text_79">
      <!-- 0.15 -->
      <g transform="translate(467.722386 331.090625)scale(0.12 -0.12)">
       <use xlink:href="#DejaVuSans-30"/>
       <use xlink:href="#DejaVuSans-2e" x="63.623047"/>
       <use xlink:href="#DejaVuSans-31" x="95.410156"/>
       <use xlink:href="#DejaVuSans-35" x="159.033203"/>
      </g>
     </g>
    </g>
    <g id="xtick_43">
     <g id="line2d_94">
      <g>
       <use xlink:href="#mf8bc856652" x="519.096856" y="314.9725" style="stroke: #000000; stroke-width: 0.8"/>
      </g>
     </g>
     <g id="text_80">
      <!-- 0.20 -->
      <g transform="translate(505.737481 331.090625)scale(0.12 -0.12)">
       <use xlink:href="#DejaVuSans-30"/>
       <use xlink:href="#DejaVuSans-2e" x="63.623047"/>
       <use xlink:href="#DejaVuSans-32" x="95.410156"/>
       <use xlink:href="#DejaVuSans-30" x="159.033203"/>
      </g>
     </g>
    </g>
    <g id="xtick_44">
     <g id="line2d_95">
      <g>
       <use xlink:href="#mf8bc856652" x="557.11195" y="314.9725" style="stroke: #000000; stroke-width: 0.8"/>
      </g>
     </g>
     <g id="text_81">
      <!-- 0.25 -->
      <g transform="translate(543.752575 331.090625)scale(0.12 -0.12)">
       <use xlink:href="#DejaVuSans-30"/>
       <use xlink:href="#DejaVuSans-2e" x="63.623047"/>
       <use xlink:href="#DejaVuSans-32" x="95.410156"/>
       <use xlink:href="#DejaVuSans-35" x="159.033203"/>
      </g>
     </g>
    </g>
    <g id="text_82">
     <!-- Time (s) -->
     <g transform="translate(437.299375 346.704375)scale(0.12 -0.12)">
      <use xlink:href="#DejaVuSans-54"/>
      <use xlink:href="#DejaVuSans-69" x="57.958984"/>
      <use xlink:href="#DejaVuSans-6d" x="85.742188"/>
      <use xlink:href="#DejaVuSans-65" x="183.154297"/>
      <use xlink:href="#DejaVuSans-20" x="244.677734"/>
      <use xlink:href="#DejaVuSans-28" x="276.464844"/>
      <use xlink:href="#DejaVuSans-73" x="315.478516"/>
      <use xlink:href="#DejaVuSans-29" x="367.578125"/>
     </g>
    </g>
   </g>
   <g id="matplotlib.axis_16">
    <g id="ytick_17">
     <g id="line2d_96">
      <g>
       <use xlink:href="#mb67e5621a2" x="357.570718" y="312.415483" style="stroke: #000000; stroke-width: 0.8"/>
      </g>
     </g>
     <g id="text_83">
      <!-- −5000 -->
      <g transform="translate(309.975093 316.974545)scale(0.12 -0.12)">
       <use xlink:href="#DejaVuSans-2212"/>
       <use xlink:href="#DejaVuSans-35" x="83.789062"/>
       <use xlink:href="#DejaVuSans-30" x="147.412109"/>
       <use xlink:href="#DejaVuSans-30" x="211.035156"/>
       <use xlink:href="#DejaVuSans-30" x="274.658203"/>
      </g>
     </g>
    </g>
    <g id="ytick_18">
     <g id="line2d_97">
      <g>
       <use xlink:href="#mb67e5621a2" x="357.570718" y="286.845313" style="stroke: #000000; stroke-width: 0.8"/>
      </g>
     </g>
     <g id="text_84">
      <!-- 0 -->
      <g transform="translate(342.935718 291.404375)scale(0.12 -0.12)">
       <use xlink:href="#DejaVuSans-30"/>
      </g>
     </g>
    </g>
    <g id="ytick_19">
     <g id="line2d_98">
      <g>
       <use xlink:href="#mb67e5621a2" x="357.570718" y="261.275142" style="stroke: #000000; stroke-width: 0.8"/>
      </g>
     </g>
     <g id="text_85">
      <!-- 5000 -->
      <g transform="translate(320.030718 265.834205)scale(0.12 -0.12)">
       <use xlink:href="#DejaVuSans-35"/>
       <use xlink:href="#DejaVuSans-30" x="63.623047"/>
       <use xlink:href="#DejaVuSans-30" x="127.246094"/>
       <use xlink:href="#DejaVuSans-30" x="190.869141"/>
      </g>
     </g>
    </g>
    <g id="text_86">
     <!-- l -->
     <g transform="translate(303.479468 288.512188)rotate(-90)scale(0.12 -0.12)">
      <use xlink:href="#DejaVuSans-6c"/>
     </g>
    </g>
   </g>
   <g id="line2d_99">
    <path d="M 367.036477 286.845313 
L 556.351648 286.845313 
L 556.351648 286.845313 
" clip-path="url(#p3bccde7320)" style="fill: none; stroke: #1f77b4; stroke-width: 1.5; stroke-linecap: square"/>
   </g>
   <g id="line2d_100">
    <path d="M 367.036477 286.845313 
L 556.351648 286.845313 
L 556.351648 286.845313 
" clip-path="url(#p3bccde7320)" style="fill: none; stroke: #ff7f0e; stroke-width: 1.5; stroke-linecap: square"/>
   </g>
   <g id="line2d_101">
    <path d="M 367.036477 286.845313 
L 556.351648 286.845313 
L 556.351648 286.845313 
" clip-path="url(#p3bccde7320)" style="fill: none; stroke: #2ca02c; stroke-width: 1.5; stroke-linecap: square"/>
   </g>
   <g id="line2d_102">
    <path d="M 367.036477 286.845313 
L 556.351648 286.845313 
L 556.351648 286.845313 
" clip-path="url(#p3bccde7320)" style="fill: none; stroke: #d62728; stroke-width: 1.5; stroke-linecap: square"/>
   </g>
   <g id="line2d_103">
    <path d="M 367.036477 286.845313 
L 403.530968 286.845313 
L 404.291269 261.275142 
L 405.051571 286.845313 
L 479.561157 286.845313 
L 480.321459 312.415483 
L 481.081761 286.845313 
L 556.351648 286.845313 
L 556.351648 286.845313 
" clip-path="url(#p3bccde7320)" style="fill: none; stroke: #9467bd; stroke-width: 1.5; stroke-linecap: square"/>
   </g>
   <g id="patch_38">
    <path d="M 357.570718 314.9725 
L 357.570718 258.718125 
" style="fill: none; stroke: #000000; stroke-width: 0.8; stroke-linejoin: miter; stroke-linecap: square"/>
   </g>
   <g id="patch_39">
    <path d="M 565.817407 314.9725 
L 565.817407 258.718125 
" style="fill: none; stroke: #000000; stroke-width: 0.8; stroke-linejoin: miter; stroke-linecap: square"/>
   </g>
   <g id="patch_40">
    <path d="M 357.570718 314.9725 
L 565.817407 314.9725 
" style="fill: none; stroke: #000000; stroke-width: 0.8; stroke-linejoin: miter; stroke-linecap: square"/>
   </g>
   <g id="patch_41">
    <path d="M 357.570718 258.718125 
L 565.817407 258.718125 
" style="fill: none; stroke: #000000; stroke-width: 0.8; stroke-linejoin: miter; stroke-linecap: square"/>
   </g>
   <g id="text_87">
    <!-- Learning signals -->
    <g transform="translate(412.864375 252.718125)scale(0.12 -0.12)">
     <use xlink:href="#DejaVuSans-4c"/>
     <use xlink:href="#DejaVuSans-65" x="53.962891"/>
     <use xlink:href="#DejaVuSans-61" x="115.486328"/>
     <use xlink:href="#DejaVuSans-72" x="176.765625"/>
     <use xlink:href="#DejaVuSans-6e" x="216.128906"/>
     <use xlink:href="#DejaVuSans-69" x="279.507812"/>
     <use xlink:href="#DejaVuSans-6e" x="307.291016"/>
     <use xlink:href="#DejaVuSans-67" x="370.669922"/>
     <use xlink:href="#DejaVuSans-20" x="434.146484"/>
     <use xlink:href="#DejaVuSans-73" x="465.933594"/>
     <use xlink:href="#DejaVuSans-69" x="518.033203"/>
     <use xlink:href="#DejaVuSans-67" x="545.816406"/>
     <use xlink:href="#DejaVuSans-6e" x="609.292969"/>
     <use xlink:href="#DejaVuSans-61" x="672.671875"/>
     <use xlink:href="#DejaVuSans-6c" x="733.951172"/>
     <use xlink:href="#DejaVuSans-73" x="761.734375"/>
    </g>
   </g>
  </g>
  <g id="axes_9">
   <g id="patch_42">
    <path d="M 644.953311 314.9725 
L 853.2 314.9725 
L 853.2 258.718125 
L 644.953311 258.718125 
z
" style="fill: #ffffff"/>
   </g>
   <g id="matplotlib.axis_17">
    <g id="xtick_45">
     <g id="line2d_104">
      <g>
       <use xlink:href="#mf8bc856652" x="654.41907" y="314.9725" style="stroke: #000000; stroke-width: 0.8"/>
      </g>
     </g>
     <g id="text_88">
      <!-- 0.0 -->
      <g transform="translate(644.877195 331.090625)scale(0.12 -0.12)">
       <use xlink:href="#DejaVuSans-30"/>
       <use xlink:href="#DejaVuSans-2e" x="63.623047"/>
       <use xlink:href="#DejaVuSans-30" x="95.410156"/>
      </g>
     </g>
    </g>
    <g id="xtick_46">
     <g id="line2d_105">
      <g>
       <use xlink:href="#mf8bc856652" x="704.970517" y="314.9725" style="stroke: #000000; stroke-width: 0.8"/>
      </g>
     </g>
     <g id="text_89">
      <!-- 0.2 -->
      <g transform="translate(695.428642 331.090625)scale(0.12 -0.12)">
       <use xlink:href="#DejaVuSans-30"/>
       <use xlink:href="#DejaVuSans-2e" x="63.623047"/>
       <use xlink:href="#DejaVuSans-32" x="95.410156"/>
      </g>
     </g>
    </g>
    <g id="xtick_47">
     <g id="line2d_106">
      <g>
       <use xlink:href="#mf8bc856652" x="755.521965" y="314.9725" style="stroke: #000000; stroke-width: 0.8"/>
      </g>
     </g>
     <g id="text_90">
      <!-- 0.4 -->
      <g transform="translate(745.98009 331.090625)scale(0.12 -0.12)">
       <use xlink:href="#DejaVuSans-30"/>
       <use xlink:href="#DejaVuSans-2e" x="63.623047"/>
       <use xlink:href="#DejaVuSans-34" x="95.410156"/>
      </g>
     </g>
    </g>
    <g id="xtick_48">
     <g id="line2d_107">
      <g>
       <use xlink:href="#mf8bc856652" x="806.073413" y="314.9725" style="stroke: #000000; stroke-width: 0.8"/>
      </g>
     </g>
     <g id="text_91">
      <!-- 0.6 -->
      <g transform="translate(796.531538 331.090625)scale(0.12 -0.12)">
       <use xlink:href="#DejaVuSans-30"/>
       <use xlink:href="#DejaVuSans-2e" x="63.623047"/>
       <use xlink:href="#DejaVuSans-36" x="95.410156"/>
      </g>
     </g>
    </g>
    <g id="text_92">
     <!-- Time (s) -->
     <g transform="translate(724.681968 346.704375)scale(0.12 -0.12)">
      <use xlink:href="#DejaVuSans-54"/>
      <use xlink:href="#DejaVuSans-69" x="57.958984"/>
      <use xlink:href="#DejaVuSans-6d" x="85.742188"/>
      <use xlink:href="#DejaVuSans-65" x="183.154297"/>
      <use xlink:href="#DejaVuSans-20" x="244.677734"/>
      <use xlink:href="#DejaVuSans-28" x="276.464844"/>
      <use xlink:href="#DejaVuSans-73" x="315.478516"/>
      <use xlink:href="#DejaVuSans-29" x="367.578125"/>
     </g>
    </g>
   </g>
   <g id="matplotlib.axis_18">
    <g id="ytick_20">
     <g id="line2d_108">
      <g>
       <use xlink:href="#mb67e5621a2" x="644.953311" y="312.415483" style="stroke: #000000; stroke-width: 0.8"/>
      </g>
     </g>
     <g id="text_93">
      <!-- −0.05 -->
      <g transform="translate(601.178936 316.974545)scale(0.12 -0.12)">
       <use xlink:href="#DejaVuSans-2212"/>
       <use xlink:href="#DejaVuSans-30" x="83.789062"/>
       <use xlink:href="#DejaVuSans-2e" x="147.412109"/>
       <use xlink:href="#DejaVuSans-30" x="179.199219"/>
       <use xlink:href="#DejaVuSans-35" x="242.822266"/>
      </g>
     </g>
    </g>
    <g id="ytick_21">
     <g id="line2d_109">
      <g>
       <use xlink:href="#mb67e5621a2" x="644.953311" y="286.845313" style="stroke: #000000; stroke-width: 0.8"/>
      </g>
     </g>
     <g id="text_94">
      <!-- 0.00 -->
      <g transform="translate(611.234561 291.404375)scale(0.12 -0.12)">
       <use xlink:href="#DejaVuSans-30"/>
       <use xlink:href="#DejaVuSans-2e" x="63.623047"/>
       <use xlink:href="#DejaVuSans-30" x="95.410156"/>
       <use xlink:href="#DejaVuSans-30" x="159.033203"/>
      </g>
     </g>
    </g>
    <g id="ytick_22">
     <g id="line2d_110">
      <g>
       <use xlink:href="#mb67e5621a2" x="644.953311" y="261.275142" style="stroke: #000000; stroke-width: 0.8"/>
      </g>
     </g>
     <g id="text_95">
      <!-- 0.05 -->
      <g transform="translate(611.234561 265.834205)scale(0.12 -0.12)">
       <use xlink:href="#DejaVuSans-30"/>
       <use xlink:href="#DejaVuSans-2e" x="63.623047"/>
       <use xlink:href="#DejaVuSans-30" x="95.410156"/>
       <use xlink:href="#DejaVuSans-35" x="159.033203"/>
      </g>
     </g>
    </g>
    <g id="text_96">
     <!-- l -->
     <g transform="translate(594.683311 288.512188)rotate(-90)scale(0.12 -0.12)">
      <use xlink:href="#DejaVuSans-6c"/>
     </g>
    </g>
   </g>
   <g id="line2d_111">
    <path d="M 654.41907 286.845313 
L 843.734241 286.845313 
L 843.734241 286.845313 
" clip-path="url(#p0ade041cb5)" style="fill: none; stroke: #1f77b4; stroke-width: 1.5; stroke-linecap: square"/>
   </g>
   <g id="line2d_112">
    <path d="M 654.41907 286.845313 
L 843.734241 286.845313 
L 843.734241 286.845313 
" clip-path="url(#p0ade041cb5)" style="fill: none; stroke: #ff7f0e; stroke-width: 1.5; stroke-linecap: square"/>
   </g>
   <g id="line2d_113">
    <path d="M 654.41907 286.845313 
L 843.734241 286.845313 
L 843.734241 286.845313 
" clip-path="url(#p0ade041cb5)" style="fill: none; stroke: #2ca02c; stroke-width: 1.5; stroke-linecap: square"/>
   </g>
   <g id="line2d_114">
    <path d="M 654.41907 286.845313 
L 843.734241 286.845313 
L 843.734241 286.845313 
" clip-path="url(#p0ade041cb5)" style="fill: none; stroke: #d62728; stroke-width: 1.5; stroke-linecap: square"/>
   </g>
   <g id="line2d_115">
    <path d="M 654.41907 286.845313 
L 843.734241 286.845313 
L 843.734241 286.845313 
" clip-path="url(#p0ade041cb5)" style="fill: none; stroke: #9467bd; stroke-width: 1.5; stroke-linecap: square"/>
   </g>
   <g id="patch_43">
    <path d="M 644.953311 314.9725 
L 644.953311 258.718125 
" style="fill: none; stroke: #000000; stroke-width: 0.8; stroke-linejoin: miter; stroke-linecap: square"/>
   </g>
   <g id="patch_44">
    <path d="M 853.2 314.9725 
L 853.2 258.718125 
" style="fill: none; stroke: #000000; stroke-width: 0.8; stroke-linejoin: miter; stroke-linecap: square"/>
   </g>
   <g id="patch_45">
    <path d="M 644.953311 314.9725 
L 853.2 314.9725 
" style="fill: none; stroke: #000000; stroke-width: 0.8; stroke-linejoin: miter; stroke-linecap: square"/>
   </g>
   <g id="patch_46">
    <path d="M 644.953311 258.718125 
L 853.2 258.718125 
" style="fill: none; stroke: #000000; stroke-width: 0.8; stroke-linejoin: miter; stroke-linecap: square"/>
   </g>
   <g id="text_97">
    <!-- Learning signals -->
    <g transform="translate(700.246968 252.718125)scale(0.12 -0.12)">
     <use xlink:href="#DejaVuSans-4c"/>
     <use xlink:href="#DejaVuSans-65" x="53.962891"/>
     <use xlink:href="#DejaVuSans-61" x="115.486328"/>
     <use xlink:href="#DejaVuSans-72" x="176.765625"/>
     <use xlink:href="#DejaVuSans-6e" x="216.128906"/>
     <use xlink:href="#DejaVuSans-69" x="279.507812"/>
     <use xlink:href="#DejaVuSans-6e" x="307.291016"/>
     <use xlink:href="#DejaVuSans-67" x="370.669922"/>
     <use xlink:href="#DejaVuSans-20" x="434.146484"/>
     <use xlink:href="#DejaVuSans-73" x="465.933594"/>
     <use xlink:href="#DejaVuSans-69" x="518.033203"/>
     <use xlink:href="#DejaVuSans-67" x="545.816406"/>
     <use xlink:href="#DejaVuSans-6e" x="609.292969"/>
     <use xlink:href="#DejaVuSans-61" x="672.671875"/>
     <use xlink:href="#DejaVuSans-6c" x="733.951172"/>
     <use xlink:href="#DejaVuSans-73" x="761.734375"/>
    </g>
   </g>
  </g>
 </g>
 <defs>
  <clipPath id="p5c2b3053ec">
   <rect x="70.188125" y="25.918125" width="208.246689" height="56.254375"/>
  </clipPath>
  <clipPath id="pc5325d0614">
   <rect x="357.570718" y="25.918125" width="208.246689" height="56.254375"/>
  </clipPath>
  <clipPath id="pa31632d201">
   <rect x="644.953311" y="25.918125" width="208.246689" height="56.254375"/>
  </clipPath>
  <clipPath id="pc3d9844785">
   <rect x="70.188125" y="142.318125" width="208.246689" height="56.254375"/>
  </clipPath>
  <clipPath id="pca517a7662">
   <rect x="357.570718" y="142.318125" width="208.246689" height="56.254375"/>
  </clipPath>
  <clipPath id="p53703466b1">
   <rect x="644.953311" y="142.318125" width="208.246689" height="56.254375"/>
  </clipPath>
  <clipPath id="pcfe3a933f6">
   <rect x="70.188125" y="258.718125" width="208.246689" height="56.254375"/>
  </clipPath>
  <clipPath id="p3bccde7320">
   <rect x="357.570718" y="258.718125" width="208.246689" height="56.254375"/>
  </clipPath>
  <clipPath id="p0ade041cb5">
   <rect x="644.953311" y="258.718125" width="208.246689" height="56.254375"/>
  </clipPath>
 </defs>
</svg>
