<?xml version="1.0" encoding="utf-8" standalone="no"?>
<!DOCTYPE svg PUBLIC "-//W3C//DTD SVG 1.1//EN"
  "http://www.w3.org/Graphics/SVG/1.1/DTD/svg11.dtd">
<svg xmlns:xlink="http://www.w3.org/1999/xlink" width="864pt" height="360pt" viewBox="0 0 864 360" xmlns="http://www.w3.org/2000/svg" version="1.1">
 <metadata>
  <rdf:RDF xmlns:dc="http://purl.org/dc/elements/1.1/" xmlns:cc="http://creativecommons.org/ns#" xmlns:rdf="http://www.w3.org/1999/02/22-rdf-syntax-ns#">
   <cc:Work>
    <dc:type rdf:resource="http://purl.org/dc/dcmitype/StillImage"/>
    <dc:date>2025-01-29T15:22:46.070844</dc:date>
    <dc:format>image/svg+xml</dc:format>
    <dc:creator>
     <cc:Agent>
      <dc:title>Matplotlib v3.5.2, https://matplotlib.org/</dc:title>
     </cc:Agent>
    </dc:creator>
   </cc:Work>
  </rdf:RDF>
 </metadata>
 <defs>
  <style type="text/css">*{stroke-linejoin: round; stroke-linecap: butt}</style>
 </defs>
 <g id="figure_1">
  <g id="patch_1">
   <path d="M 0 360 
L 864 360 
L 864 0 
L 0 0 
z
" style="fill: #ffffff"/>
  </g>
  <g id="axes_1">
   <g id="patch_2">
    <path d="M 70.188125 92.248333 
L 280.663709 92.248333 
L 280.663709 25.918125 
L 70.188125 25.918125 
z
" style="fill: #ffffff"/>
   </g>
   <g id="matplotlib.axis_1">
    <g id="xtick_1">
     <g id="line2d_1">
      <defs>
       <path id="mf1ce217b33" d="M 0 0 
L 0 3.5 
" style="stroke: #000000; stroke-width: 0.8"/>
      </defs>
      <g>
       <use xlink:href="#mf1ce217b33" x="79.755197" y="92.248333" style="stroke: #000000; stroke-width: 0.8"/>
      </g>
     </g>
    </g>
    <g id="xtick_2">
     <g id="line2d_2">
      <g>
       <use xlink:href="#mf1ce217b33" x="111.752093" y="92.248333" style="stroke: #000000; stroke-width: 0.8"/>
      </g>
     </g>
    </g>
    <g id="xtick_3">
     <g id="line2d_3">
      <g>
       <use xlink:href="#mf1ce217b33" x="143.74899" y="92.248333" style="stroke: #000000; stroke-width: 0.8"/>
      </g>
     </g>
    </g>
    <g id="xtick_4">
     <g id="line2d_4">
      <g>
       <use xlink:href="#mf1ce217b33" x="175.745886" y="92.248333" style="stroke: #000000; stroke-width: 0.8"/>
      </g>
     </g>
    </g>
    <g id="xtick_5">
     <g id="line2d_5">
      <g>
       <use xlink:href="#mf1ce217b33" x="207.742782" y="92.248333" style="stroke: #000000; stroke-width: 0.8"/>
      </g>
     </g>
    </g>
    <g id="xtick_6">
     <g id="line2d_6">
      <g>
       <use xlink:href="#mf1ce217b33" x="239.739679" y="92.248333" style="stroke: #000000; stroke-width: 0.8"/>
      </g>
     </g>
    </g>
    <g id="xtick_7">
     <g id="line2d_7">
      <g>
       <use xlink:href="#mf1ce217b33" x="271.736575" y="92.248333" style="stroke: #000000; stroke-width: 0.8"/>
      </g>
     </g>
    </g>
    <g id="text_1">
     <!-- Time (s) -->
     <g transform="translate(151.03123 108.866458)scale(0.12 -0.12)">
      <defs>
       <path id="DejaVuSans-54" d="M -19 4666 
L 3928 4666 
L 3928 4134 
L 2272 4134 
L 2272 0 
L 1638 0 
L 1638 4134 
L -19 4134 
L -19 4666 
z
" transform="scale(0.015625)"/>
       <path id="DejaVuSans-69" d="M 603 3500 
L 1178 3500 
L 1178 0 
L 603 0 
L 603 3500 
z
M 603 4863 
L 1178 4863 
L 1178 4134 
L 603 4134 
L 603 4863 
z
" transform="scale(0.015625)"/>
       <path id="DejaVuSans-6d" d="M 3328 2828 
Q 3544 3216 3844 3400 
Q 4144 3584 4550 3584 
Q 5097 3584 5394 3201 
Q 5691 2819 5691 2113 
L 5691 0 
L 5113 0 
L 5113 2094 
Q 5113 2597 4934 2840 
Q 4756 3084 4391 3084 
Q 3944 3084 3684 2787 
Q 3425 2491 3425 1978 
L 3425 0 
L 2847 0 
L 2847 2094 
Q 2847 2600 2669 2842 
Q 2491 3084 2119 3084 
Q 1678 3084 1418 2786 
Q 1159 2488 1159 1978 
L 1159 0 
L 581 0 
L 581 3500 
L 1159 3500 
L 1159 2956 
Q 1356 3278 1631 3431 
Q 1906 3584 2284 3584 
Q 2666 3584 2933 3390 
Q 3200 3197 3328 2828 
z
" transform="scale(0.015625)"/>
       <path id="DejaVuSans-65" d="M 3597 1894 
L 3597 1613 
L 953 1613 
Q 991 1019 1311 708 
Q 1631 397 2203 397 
Q 2534 397 2845 478 
Q 3156 559 3463 722 
L 3463 178 
Q 3153 47 2828 -22 
Q 2503 -91 2169 -91 
Q 1331 -91 842 396 
Q 353 884 353 1716 
Q 353 2575 817 3079 
Q 1281 3584 2069 3584 
Q 2775 3584 3186 3129 
Q 3597 2675 3597 1894 
z
M 3022 2063 
Q 3016 2534 2758 2815 
Q 2500 3097 2075 3097 
Q 1594 3097 1305 2825 
Q 1016 2553 972 2059 
L 3022 2063 
z
" transform="scale(0.015625)"/>
       <path id="DejaVuSans-20" transform="scale(0.015625)"/>
       <path id="DejaVuSans-28" d="M 1984 4856 
Q 1566 4138 1362 3434 
Q 1159 2731 1159 2009 
Q 1159 1288 1364 580 
Q 1569 -128 1984 -844 
L 1484 -844 
Q 1016 -109 783 600 
Q 550 1309 550 2009 
Q 550 2706 781 3412 
Q 1013 4119 1484 4856 
L 1984 4856 
z
" transform="scale(0.015625)"/>
       <path id="DejaVuSans-73" d="M 2834 3397 
L 2834 2853 
Q 2591 2978 2328 3040 
Q 2066 3103 1784 3103 
Q 1356 3103 1142 2972 
Q 928 2841 928 2578 
Q 928 2378 1081 2264 
Q 1234 2150 1697 2047 
L 1894 2003 
Q 2506 1872 2764 1633 
Q 3022 1394 3022 966 
Q 3022 478 2636 193 
Q 2250 -91 1575 -91 
Q 1294 -91 989 -36 
Q 684 19 347 128 
L 347 722 
Q 666 556 975 473 
Q 1284 391 1588 391 
Q 1994 391 2212 530 
Q 2431 669 2431 922 
Q 2431 1156 2273 1281 
Q 2116 1406 1581 1522 
L 1381 1569 
Q 847 1681 609 1914 
Q 372 2147 372 2553 
Q 372 3047 722 3315 
Q 1072 3584 1716 3584 
Q 2034 3584 2315 3537 
Q 2597 3491 2834 3397 
z
" transform="scale(0.015625)"/>
       <path id="DejaVuSans-29" d="M 513 4856 
L 1013 4856 
Q 1481 4119 1714 3412 
Q 1947 2706 1947 2009 
Q 1947 1309 1714 600 
Q 1481 -109 1013 -844 
L 513 -844 
Q 928 -128 1133 580 
Q 1338 1288 1338 2009 
Q 1338 2731 1133 3434 
Q 928 4138 513 4856 
z
" transform="scale(0.015625)"/>
      </defs>
      <use xlink:href="#DejaVuSans-54"/>
      <use xlink:href="#DejaVuSans-69" x="57.958984"/>
      <use xlink:href="#DejaVuSans-6d" x="85.742188"/>
      <use xlink:href="#DejaVuSans-65" x="183.154297"/>
      <use xlink:href="#DejaVuSans-20" x="244.677734"/>
      <use xlink:href="#DejaVuSans-28" x="276.464844"/>
      <use xlink:href="#DejaVuSans-73" x="315.478516"/>
      <use xlink:href="#DejaVuSans-29" x="367.578125"/>
     </g>
    </g>
   </g>
   <g id="matplotlib.axis_2">
    <g id="ytick_1">
     <g id="line2d_8">
      <defs>
       <path id="m6a6b33521a" d="M 0 0 
L -3.5 0 
" style="stroke: #000000; stroke-width: 0.8"/>
      </defs>
      <g>
       <use xlink:href="#m6a6b33521a" x="70.188125" y="89.234214" style="stroke: #000000; stroke-width: 0.8"/>
      </g>
     </g>
     <g id="text_2">
      <!-- −2 -->
      <g transform="translate(45.4975 93.793276)scale(0.12 -0.12)">
       <defs>
        <path id="DejaVuSans-2212" d="M 678 2272 
L 4684 2272 
L 4684 1741 
L 678 1741 
L 678 2272 
z
" transform="scale(0.015625)"/>
        <path id="DejaVuSans-32" d="M 1228 531 
L 3431 531 
L 3431 0 
L 469 0 
L 469 531 
Q 828 903 1448 1529 
Q 2069 2156 2228 2338 
Q 2531 2678 2651 2914 
Q 2772 3150 2772 3378 
Q 2772 3750 2511 3984 
Q 2250 4219 1831 4219 
Q 1534 4219 1204 4116 
Q 875 4013 500 3803 
L 500 4441 
Q 881 4594 1212 4672 
Q 1544 4750 1819 4750 
Q 2544 4750 2975 4387 
Q 3406 4025 3406 3419 
Q 3406 3131 3298 2873 
Q 3191 2616 2906 2266 
Q 2828 2175 2409 1742 
Q 1991 1309 1228 531 
z
" transform="scale(0.015625)"/>
       </defs>
       <use xlink:href="#DejaVuSans-2212"/>
       <use xlink:href="#DejaVuSans-32" x="83.789062"/>
      </g>
     </g>
    </g>
    <g id="ytick_2">
     <g id="line2d_9">
      <g>
       <use xlink:href="#m6a6b33521a" x="70.188125" y="59.083674" style="stroke: #000000; stroke-width: 0.8"/>
      </g>
     </g>
     <g id="text_3">
      <!-- 0 -->
      <g transform="translate(55.553125 63.642737)scale(0.12 -0.12)">
       <defs>
        <path id="DejaVuSans-30" d="M 2034 4250 
Q 1547 4250 1301 3770 
Q 1056 3291 1056 2328 
Q 1056 1369 1301 889 
Q 1547 409 2034 409 
Q 2525 409 2770 889 
Q 3016 1369 3016 2328 
Q 3016 3291 2770 3770 
Q 2525 4250 2034 4250 
z
M 2034 4750 
Q 2819 4750 3233 4129 
Q 3647 3509 3647 2328 
Q 3647 1150 3233 529 
Q 2819 -91 2034 -91 
Q 1250 -91 836 529 
Q 422 1150 422 2328 
Q 422 3509 836 4129 
Q 1250 4750 2034 4750 
z
" transform="scale(0.015625)"/>
       </defs>
       <use xlink:href="#DejaVuSans-30"/>
      </g>
     </g>
    </g>
    <g id="ytick_3">
     <g id="line2d_10">
      <g>
       <use xlink:href="#m6a6b33521a" x="70.188125" y="28.933134" style="stroke: #000000; stroke-width: 0.8"/>
      </g>
     </g>
     <g id="text_4">
      <!-- 2 -->
      <g transform="translate(55.553125 33.492197)scale(0.12 -0.12)">
       <use xlink:href="#DejaVuSans-32"/>
      </g>
     </g>
    </g>
    <g id="text_5">
     <!-- x -->
     <g transform="translate(39.001875 62.634479)rotate(-90)scale(0.12 -0.12)">
      <defs>
       <path id="DejaVuSans-78" d="M 3513 3500 
L 2247 1797 
L 3578 0 
L 2900 0 
L 1881 1375 
L 863 0 
L 184 0 
L 1544 1831 
L 300 3500 
L 978 3500 
L 1906 2253 
L 2834 3500 
L 3513 3500 
z
" transform="scale(0.015625)"/>
      </defs>
      <use xlink:href="#DejaVuSans-78"/>
     </g>
    </g>
   </g>
   <g id="line2d_11">
    <path d="M 79.755197 59.083674 
L 271.096637 59.083674 
L 271.096637 59.083674 
" clip-path="url(#p3cdcbf6c8a)" style="fill: none; stroke: #1f77b4; stroke-width: 1.5; stroke-linecap: square"/>
   </g>
   <g id="line2d_12">
    <path d="M 79.755197 59.083674 
L 111.112155 59.083674 
L 111.752093 28.933134 
L 113.031969 34.661737 
L 114.311845 39.301905 
L 115.591721 43.060441 
L 116.871597 46.104855 
L 118.151473 48.570831 
L 119.431348 50.568271 
L 120.711224 52.186198 
L 121.9911 53.496718 
L 123.270976 54.55824 
L 125.19079 55.784633 
L 127.110604 56.678673 
L 129.030417 57.330428 
L 131.590169 57.933369 
L 134.789859 58.404431 
L 138.629486 58.722696 
L 144.388928 58.943824 
L 154.627934 59.05776 
L 174.46601 59.082685 
L 175.105948 89.233324 
L 176.385824 83.50489 
L 177.6657 78.864859 
L 178.945576 75.106434 
L 180.225452 72.06211 
L 181.505327 69.596207 
L 182.785203 67.598826 
L 184.065079 65.980947 
L 185.344955 64.670465 
L 186.624831 63.608975 
L 188.544645 62.382618 
L 190.464458 61.488604 
L 192.384272 60.836868 
L 194.944024 60.233945 
L 198.143714 59.762897 
L 201.983341 59.444641 
L 207.742782 59.22352 
L 217.981789 59.109588 
L 251.258562 59.083782 
L 271.096637 59.083678 
L 271.096637 59.083678 
" clip-path="url(#p3cdcbf6c8a)" style="fill: none; stroke: #ff7f0e; stroke-width: 1.5; stroke-linecap: square"/>
   </g>
   <g id="patch_3">
    <path d="M 70.188125 92.248333 
L 70.188125 25.918125 
" style="fill: none; stroke: #000000; stroke-width: 0.8; stroke-linejoin: miter; stroke-linecap: square"/>
   </g>
   <g id="patch_4">
    <path d="M 280.663709 92.248333 
L 280.663709 25.918125 
" style="fill: none; stroke: #000000; stroke-width: 0.8; stroke-linejoin: miter; stroke-linecap: square"/>
   </g>
   <g id="patch_5">
    <path d="M 70.188125 92.248333 
L 280.663709 92.248333 
" style="fill: none; stroke: #000000; stroke-width: 0.8; stroke-linejoin: miter; stroke-linecap: square"/>
   </g>
   <g id="patch_6">
    <path d="M 70.188125 25.918125 
L 280.663709 25.918125 
" style="fill: none; stroke: #000000; stroke-width: 0.8; stroke-linejoin: miter; stroke-linecap: square"/>
   </g>
   <g id="text_6">
    <!-- Pre-learning -->
    <g transform="translate(139.246855 19.918125)scale(0.12 -0.12)">
     <defs>
      <path id="DejaVuSans-50" d="M 1259 4147 
L 1259 2394 
L 2053 2394 
Q 2494 2394 2734 2622 
Q 2975 2850 2975 3272 
Q 2975 3691 2734 3919 
Q 2494 4147 2053 4147 
L 1259 4147 
z
M 628 4666 
L 2053 4666 
Q 2838 4666 3239 4311 
Q 3641 3956 3641 3272 
Q 3641 2581 3239 2228 
Q 2838 1875 2053 1875 
L 1259 1875 
L 1259 0 
L 628 0 
L 628 4666 
z
" transform="scale(0.015625)"/>
      <path id="DejaVuSans-72" d="M 2631 2963 
Q 2534 3019 2420 3045 
Q 2306 3072 2169 3072 
Q 1681 3072 1420 2755 
Q 1159 2438 1159 1844 
L 1159 0 
L 581 0 
L 581 3500 
L 1159 3500 
L 1159 2956 
Q 1341 3275 1631 3429 
Q 1922 3584 2338 3584 
Q 2397 3584 2469 3576 
Q 2541 3569 2628 3553 
L 2631 2963 
z
" transform="scale(0.015625)"/>
      <path id="DejaVuSans-2d" d="M 313 2009 
L 1997 2009 
L 1997 1497 
L 313 1497 
L 313 2009 
z
" transform="scale(0.015625)"/>
      <path id="DejaVuSans-6c" d="M 603 4863 
L 1178 4863 
L 1178 0 
L 603 0 
L 603 4863 
z
" transform="scale(0.015625)"/>
      <path id="DejaVuSans-61" d="M 2194 1759 
Q 1497 1759 1228 1600 
Q 959 1441 959 1056 
Q 959 750 1161 570 
Q 1363 391 1709 391 
Q 2188 391 2477 730 
Q 2766 1069 2766 1631 
L 2766 1759 
L 2194 1759 
z
M 3341 1997 
L 3341 0 
L 2766 0 
L 2766 531 
Q 2569 213 2275 61 
Q 1981 -91 1556 -91 
Q 1019 -91 701 211 
Q 384 513 384 1019 
Q 384 1609 779 1909 
Q 1175 2209 1959 2209 
L 2766 2209 
L 2766 2266 
Q 2766 2663 2505 2880 
Q 2244 3097 1772 3097 
Q 1472 3097 1187 3025 
Q 903 2953 641 2809 
L 641 3341 
Q 956 3463 1253 3523 
Q 1550 3584 1831 3584 
Q 2591 3584 2966 3190 
Q 3341 2797 3341 1997 
z
" transform="scale(0.015625)"/>
      <path id="DejaVuSans-6e" d="M 3513 2113 
L 3513 0 
L 2938 0 
L 2938 2094 
Q 2938 2591 2744 2837 
Q 2550 3084 2163 3084 
Q 1697 3084 1428 2787 
Q 1159 2491 1159 1978 
L 1159 0 
L 581 0 
L 581 3500 
L 1159 3500 
L 1159 2956 
Q 1366 3272 1645 3428 
Q 1925 3584 2291 3584 
Q 2894 3584 3203 3211 
Q 3513 2838 3513 2113 
z
" transform="scale(0.015625)"/>
      <path id="DejaVuSans-67" d="M 2906 1791 
Q 2906 2416 2648 2759 
Q 2391 3103 1925 3103 
Q 1463 3103 1205 2759 
Q 947 2416 947 1791 
Q 947 1169 1205 825 
Q 1463 481 1925 481 
Q 2391 481 2648 825 
Q 2906 1169 2906 1791 
z
M 3481 434 
Q 3481 -459 3084 -895 
Q 2688 -1331 1869 -1331 
Q 1566 -1331 1297 -1286 
Q 1028 -1241 775 -1147 
L 775 -588 
Q 1028 -725 1275 -790 
Q 1522 -856 1778 -856 
Q 2344 -856 2625 -561 
Q 2906 -266 2906 331 
L 2906 616 
Q 2728 306 2450 153 
Q 2172 0 1784 0 
Q 1141 0 747 490 
Q 353 981 353 1791 
Q 353 2603 747 3093 
Q 1141 3584 1784 3584 
Q 2172 3584 2450 3431 
Q 2728 3278 2906 2969 
L 2906 3500 
L 3481 3500 
L 3481 434 
z
" transform="scale(0.015625)"/>
     </defs>
     <use xlink:href="#DejaVuSans-50"/>
     <use xlink:href="#DejaVuSans-72" x="58.552734"/>
     <use xlink:href="#DejaVuSans-65" x="97.416016"/>
     <use xlink:href="#DejaVuSans-2d" x="158.939453"/>
     <use xlink:href="#DejaVuSans-6c" x="195.023438"/>
     <use xlink:href="#DejaVuSans-65" x="222.806641"/>
     <use xlink:href="#DejaVuSans-61" x="284.330078"/>
     <use xlink:href="#DejaVuSans-72" x="345.609375"/>
     <use xlink:href="#DejaVuSans-6e" x="384.972656"/>
     <use xlink:href="#DejaVuSans-69" x="448.351562"/>
     <use xlink:href="#DejaVuSans-6e" x="476.134766"/>
     <use xlink:href="#DejaVuSans-67" x="539.513672"/>
    </g>
   </g>
  </g>
  <g id="axes_2">
   <g id="patch_7">
    <path d="M 355.861875 92.248333 
L 566.337459 92.248333 
L 566.337459 25.918125 
L 355.861875 25.918125 
z
" style="fill: #ffffff"/>
   </g>
   <g id="matplotlib.axis_3">
    <g id="xtick_8">
     <g id="line2d_13">
      <g>
       <use xlink:href="#mf1ce217b33" x="365.428947" y="92.248333" style="stroke: #000000; stroke-width: 0.8"/>
      </g>
     </g>
    </g>
    <g id="xtick_9">
     <g id="line2d_14">
      <g>
       <use xlink:href="#mf1ce217b33" x="397.425843" y="92.248333" style="stroke: #000000; stroke-width: 0.8"/>
      </g>
     </g>
    </g>
    <g id="xtick_10">
     <g id="line2d_15">
      <g>
       <use xlink:href="#mf1ce217b33" x="429.42274" y="92.248333" style="stroke: #000000; stroke-width: 0.8"/>
      </g>
     </g>
    </g>
    <g id="xtick_11">
     <g id="line2d_16">
      <g>
       <use xlink:href="#mf1ce217b33" x="461.419636" y="92.248333" style="stroke: #000000; stroke-width: 0.8"/>
      </g>
     </g>
    </g>
    <g id="xtick_12">
     <g id="line2d_17">
      <g>
       <use xlink:href="#mf1ce217b33" x="493.416532" y="92.248333" style="stroke: #000000; stroke-width: 0.8"/>
      </g>
     </g>
    </g>
    <g id="xtick_13">
     <g id="line2d_18">
      <g>
       <use xlink:href="#mf1ce217b33" x="525.413429" y="92.248333" style="stroke: #000000; stroke-width: 0.8"/>
      </g>
     </g>
    </g>
    <g id="xtick_14">
     <g id="line2d_19">
      <g>
       <use xlink:href="#mf1ce217b33" x="557.410325" y="92.248333" style="stroke: #000000; stroke-width: 0.8"/>
      </g>
     </g>
    </g>
    <g id="text_7">
     <!-- Time (s) -->
     <g transform="translate(436.70498 108.866458)scale(0.12 -0.12)">
      <use xlink:href="#DejaVuSans-54"/>
      <use xlink:href="#DejaVuSans-69" x="57.958984"/>
      <use xlink:href="#DejaVuSans-6d" x="85.742188"/>
      <use xlink:href="#DejaVuSans-65" x="183.154297"/>
      <use xlink:href="#DejaVuSans-20" x="244.677734"/>
      <use xlink:href="#DejaVuSans-28" x="276.464844"/>
      <use xlink:href="#DejaVuSans-73" x="315.478516"/>
      <use xlink:href="#DejaVuSans-29" x="367.578125"/>
     </g>
    </g>
   </g>
   <g id="matplotlib.axis_4">
    <g id="ytick_4">
     <g id="line2d_20">
      <g>
       <use xlink:href="#m6a6b33521a" x="355.861875" y="85.860793" style="stroke: #000000; stroke-width: 0.8"/>
      </g>
     </g>
     <g id="text_8">
      <!-- −20 -->
      <g transform="translate(323.53625 90.419855)scale(0.12 -0.12)">
       <use xlink:href="#DejaVuSans-2212"/>
       <use xlink:href="#DejaVuSans-32" x="83.789062"/>
       <use xlink:href="#DejaVuSans-30" x="147.412109"/>
      </g>
     </g>
    </g>
    <g id="ytick_5">
     <g id="line2d_21">
      <g>
       <use xlink:href="#m6a6b33521a" x="355.861875" y="59.037236" style="stroke: #000000; stroke-width: 0.8"/>
      </g>
     </g>
     <g id="text_9">
      <!-- 0 -->
      <g transform="translate(341.226875 63.596298)scale(0.12 -0.12)">
       <use xlink:href="#DejaVuSans-30"/>
      </g>
     </g>
    </g>
    <g id="ytick_6">
     <g id="line2d_22">
      <g>
       <use xlink:href="#m6a6b33521a" x="355.861875" y="32.213678" style="stroke: #000000; stroke-width: 0.8"/>
      </g>
     </g>
     <g id="text_10">
      <!-- 20 -->
      <g transform="translate(333.591875 36.772741)scale(0.12 -0.12)">
       <use xlink:href="#DejaVuSans-32"/>
       <use xlink:href="#DejaVuSans-30" x="63.623047"/>
      </g>
     </g>
    </g>
    <g id="text_11">
     <!-- x -->
     <g transform="translate(317.040625 62.634479)rotate(-90)scale(0.12 -0.12)">
      <use xlink:href="#DejaVuSans-78"/>
     </g>
    </g>
   </g>
   <g id="line2d_23">
    <path d="M 365.428947 59.037236 
L 371.188388 59.037236 
L 372.468264 53.94076 
L 373.74814 49.812614 
L 375.028016 46.468817 
L 376.307892 43.76034 
L 377.587768 41.566475 
L 378.867643 39.789443 
L 380.147519 38.350048 
L 381.427395 37.184138 
L 382.707271 36.239751 
L 384.627085 35.148685 
L 386.546899 34.353298 
L 388.466712 33.773461 
L 391.026464 33.237052 
L 394.226154 32.81797 
L 398.705719 32.502709 
L 403.185285 32.351921 
L 404.465161 37.422131 
L 405.745036 41.529001 
L 407.024912 44.855565 
L 408.304788 47.550083 
L 409.584664 49.732642 
L 410.86454 51.500515 
L 412.144416 52.932492 
L 413.424292 54.092393 
L 414.704167 55.031913 
L 416.623981 56.117356 
L 418.543795 56.908643 
L 420.463609 57.485492 
L 423.02336 58.019136 
L 426.22305 58.436058 
L 430.702616 58.749694 
L 437.101995 58.936976 
L 441.58156 58.989282 
L 442.861436 60.293333 
L 444.141312 61.333645 
L 445.421188 62.150229 
L 447.341002 63.055981 
L 447.98094 63.287675 
L 449.260815 68.705375 
L 450.540691 72.943512 
L 451.820567 76.27492 
L 453.100443 78.906841 
L 454.380319 81.001827 
L 455.660195 82.673891 
L 456.940071 84.009056 
L 458.219946 85.078622 
L 459.499822 85.936668 
L 461.419636 86.90834 
L 463.33945 87.606654 
L 465.899202 88.236378 
L 468.458953 88.635992 
L 472.298581 88.981002 
L 477.418084 89.186245 
L 479.977836 89.233324 
L 481.257712 84.146507 
L 482.537588 80.004342 
L 483.817464 76.625485 
L 485.097339 73.848558 
L 486.377215 71.570496 
L 488.297029 68.773967 
L 490.216843 66.486553 
L 492.136657 64.671826 
L 494.05647 63.287261 
L 495.976284 62.252499 
L 497.896098 61.461675 
L 500.45585 60.687081 
L 503.015601 60.149743 
L 506.215291 59.70795 
L 510.054919 59.401003 
L 515.81436 59.182649 
L 518.374112 59.133222 
L 519.653987 57.87718 
L 520.933863 56.896249 
L 522.213739 56.159058 
L 523.493615 55.618626 
L 524.773491 55.256474 
L 526.053367 55.069964 
L 527.973181 55.041226 
L 529.892994 55.274297 
L 531.17287 55.62161 
L 532.452746 56.143975 
L 533.732622 56.90004 
L 535.012498 57.867253 
L 536.292374 59.03044 
L 536.932312 59.712184 
L 537.572249 60.163375 
L 538.212187 60.436876 
L 538.852125 60.53746 
L 539.492063 60.477487 
L 540.132001 60.246438 
L 541.411877 59.387223 
L 542.691753 58.237997 
L 543.331691 57.916366 
L 543.971629 57.775852 
L 544.611567 57.817268 
L 545.251505 58.050377 
L 546.53138 59.004263 
L 547.171318 59.680836 
L 547.811256 60.064454 
L 548.451194 60.237347 
L 549.091132 60.204197 
L 549.73107 59.955455 
L 551.010946 59.011634 
L 551.650884 58.366916 
L 552.290822 58.011935 
L 552.93076 57.850514 
L 553.570698 57.878031 
L 554.210636 58.107813 
L 554.850573 58.523861 
L 556.770387 60.100069 
L 556.770387 60.100069 
" clip-path="url(#p110996c6d7)" style="fill: none; stroke: #1f77b4; stroke-width: 1.5; stroke-linecap: square"/>
   </g>
   <g id="line2d_24">
    <path d="M 365.428947 59.037236 
L 403.185285 59.037236 
L 404.465161 57.786131 
L 405.745036 56.795564 
L 407.024912 56.021949 
L 408.944726 55.178615 
L 409.584664 54.969185 
L 410.86454 49.599829 
L 412.144416 45.415079 
L 413.424292 42.109725 
L 414.704167 39.478768 
L 415.984043 37.368523 
L 417.263919 35.685478 
L 418.543795 34.334718 
L 419.823671 33.246173 
L 421.103547 32.37135 
L 423.02336 31.373735 
L 424.943174 30.660437 
L 427.502926 30.006353 
L 430.062678 29.581095 
L 433.902305 29.21377 
L 439.021809 28.990532 
L 441.58156 28.933134 
L 442.861436 34.013498 
L 444.141312 38.144621 
L 445.421188 41.516901 
L 446.701064 44.270079 
L 447.98094 46.520746 
L 449.900753 49.298175 
L 451.820567 51.591787 
L 453.740381 53.403986 
L 455.660195 54.78973 
L 457.580009 55.839581 
L 459.499822 56.627147 
L 462.059574 57.385972 
L 464.619326 57.901641 
L 467.819015 58.324974 
L 472.298581 58.664189 
L 478.69796 58.890179 
L 479.977836 58.916509 
L 481.257712 60.222582 
L 482.537588 61.240848 
L 483.817464 62.012861 
L 485.097339 62.581752 
L 486.377215 62.990664 
L 487.657091 68.28264 
L 488.936967 72.27238 
L 490.216843 75.313244 
L 491.496719 77.654489 
L 492.776595 79.473966 
L 494.05647 80.90256 
L 495.336346 82.038196 
L 496.616222 82.921756 
L 498.536036 83.889395 
L 500.45585 84.559709 
L 502.375663 85.018683 
L 504.935415 85.407026 
L 508.775043 85.719266 
L 513.894546 85.901712 
L 518.374112 85.952403 
L 519.653987 80.852058 
L 520.933863 76.684158 
L 522.213739 73.250797 
L 523.493615 70.413081 
L 524.773491 68.038933 
L 526.693305 65.097004 
L 528.613118 62.74632 
L 531.812808 59.42914 
L 533.092684 58.184737 
L 534.37256 57.446663 
L 535.652436 57.20061 
L 536.292374 57.257633 
L 536.932312 57.441444 
L 538.212187 58.203796 
L 540.771939 60.244033 
L 541.411877 60.393642 
L 542.051815 60.378855 
L 542.691753 60.188876 
L 543.971629 59.359641 
L 545.251505 58.228428 
L 545.891442 57.945858 
L 546.53138 57.86139 
L 547.171318 57.975463 
L 547.811256 58.324231 
L 548.451194 58.810487 
L 549.73107 59.934701 
L 550.371008 60.199306 
L 551.010946 60.267683 
L 551.650884 60.148479 
L 552.93076 59.356682 
L 554.210636 58.234582 
L 554.850573 57.960536 
L 555.490511 57.890306 
L 556.130449 58.023291 
L 556.770387 58.387091 
L 556.770387 58.387091 
" clip-path="url(#p110996c6d7)" style="fill: none; stroke: #ff7f0e; stroke-width: 1.5; stroke-linecap: square"/>
   </g>
   <g id="patch_8">
    <path d="M 355.861875 92.248333 
L 355.861875 25.918125 
" style="fill: none; stroke: #000000; stroke-width: 0.8; stroke-linejoin: miter; stroke-linecap: square"/>
   </g>
   <g id="patch_9">
    <path d="M 566.337459 92.248333 
L 566.337459 25.918125 
" style="fill: none; stroke: #000000; stroke-width: 0.8; stroke-linejoin: miter; stroke-linecap: square"/>
   </g>
   <g id="patch_10">
    <path d="M 355.861875 92.248333 
L 566.337459 92.248333 
" style="fill: none; stroke: #000000; stroke-width: 0.8; stroke-linejoin: miter; stroke-linecap: square"/>
   </g>
   <g id="patch_11">
    <path d="M 355.861875 25.918125 
L 566.337459 25.918125 
" style="fill: none; stroke: #000000; stroke-width: 0.8; stroke-linejoin: miter; stroke-linecap: square"/>
   </g>
   <g id="text_12">
    <!-- Learning phase -->
    <g transform="translate(415.03748 19.918125)scale(0.12 -0.12)">
     <defs>
      <path id="DejaVuSans-4c" d="M 628 4666 
L 1259 4666 
L 1259 531 
L 3531 531 
L 3531 0 
L 628 0 
L 628 4666 
z
" transform="scale(0.015625)"/>
      <path id="DejaVuSans-70" d="M 1159 525 
L 1159 -1331 
L 581 -1331 
L 581 3500 
L 1159 3500 
L 1159 2969 
Q 1341 3281 1617 3432 
Q 1894 3584 2278 3584 
Q 2916 3584 3314 3078 
Q 3713 2572 3713 1747 
Q 3713 922 3314 415 
Q 2916 -91 2278 -91 
Q 1894 -91 1617 61 
Q 1341 213 1159 525 
z
M 3116 1747 
Q 3116 2381 2855 2742 
Q 2594 3103 2138 3103 
Q 1681 3103 1420 2742 
Q 1159 2381 1159 1747 
Q 1159 1113 1420 752 
Q 1681 391 2138 391 
Q 2594 391 2855 752 
Q 3116 1113 3116 1747 
z
" transform="scale(0.015625)"/>
      <path id="DejaVuSans-68" d="M 3513 2113 
L 3513 0 
L 2938 0 
L 2938 2094 
Q 2938 2591 2744 2837 
Q 2550 3084 2163 3084 
Q 1697 3084 1428 2787 
Q 1159 2491 1159 1978 
L 1159 0 
L 581 0 
L 581 4863 
L 1159 4863 
L 1159 2956 
Q 1366 3272 1645 3428 
Q 1925 3584 2291 3584 
Q 2894 3584 3203 3211 
Q 3513 2838 3513 2113 
z
" transform="scale(0.015625)"/>
     </defs>
     <use xlink:href="#DejaVuSans-4c"/>
     <use xlink:href="#DejaVuSans-65" x="53.962891"/>
     <use xlink:href="#DejaVuSans-61" x="115.486328"/>
     <use xlink:href="#DejaVuSans-72" x="176.765625"/>
     <use xlink:href="#DejaVuSans-6e" x="216.128906"/>
     <use xlink:href="#DejaVuSans-69" x="279.507812"/>
     <use xlink:href="#DejaVuSans-6e" x="307.291016"/>
     <use xlink:href="#DejaVuSans-67" x="370.669922"/>
     <use xlink:href="#DejaVuSans-20" x="434.146484"/>
     <use xlink:href="#DejaVuSans-70" x="465.933594"/>
     <use xlink:href="#DejaVuSans-68" x="529.410156"/>
     <use xlink:href="#DejaVuSans-61" x="592.789062"/>
     <use xlink:href="#DejaVuSans-73" x="654.068359"/>
     <use xlink:href="#DejaVuSans-65" x="706.167969"/>
    </g>
   </g>
  </g>
  <g id="axes_3">
   <g id="patch_12">
    <path d="M 641.535625 92.248333 
L 852.011209 92.248333 
L 852.011209 25.918125 
L 641.535625 25.918125 
z
" style="fill: #ffffff"/>
   </g>
   <g id="matplotlib.axis_5">
    <g id="xtick_15">
     <g id="line2d_25">
      <g>
       <use xlink:href="#mf1ce217b33" x="651.102697" y="92.248333" style="stroke: #000000; stroke-width: 0.8"/>
      </g>
     </g>
    </g>
    <g id="xtick_16">
     <g id="line2d_26">
      <g>
       <use xlink:href="#mf1ce217b33" x="683.099593" y="92.248333" style="stroke: #000000; stroke-width: 0.8"/>
      </g>
     </g>
    </g>
    <g id="xtick_17">
     <g id="line2d_27">
      <g>
       <use xlink:href="#mf1ce217b33" x="715.09649" y="92.248333" style="stroke: #000000; stroke-width: 0.8"/>
      </g>
     </g>
    </g>
    <g id="xtick_18">
     <g id="line2d_28">
      <g>
       <use xlink:href="#mf1ce217b33" x="747.093386" y="92.248333" style="stroke: #000000; stroke-width: 0.8"/>
      </g>
     </g>
    </g>
    <g id="xtick_19">
     <g id="line2d_29">
      <g>
       <use xlink:href="#mf1ce217b33" x="779.090282" y="92.248333" style="stroke: #000000; stroke-width: 0.8"/>
      </g>
     </g>
    </g>
    <g id="xtick_20">
     <g id="line2d_30">
      <g>
       <use xlink:href="#mf1ce217b33" x="811.087179" y="92.248333" style="stroke: #000000; stroke-width: 0.8"/>
      </g>
     </g>
    </g>
    <g id="xtick_21">
     <g id="line2d_31">
      <g>
       <use xlink:href="#mf1ce217b33" x="843.084075" y="92.248333" style="stroke: #000000; stroke-width: 0.8"/>
      </g>
     </g>
    </g>
    <g id="text_13">
     <!-- Time (s) -->
     <g transform="translate(722.37873 108.866458)scale(0.12 -0.12)">
      <use xlink:href="#DejaVuSans-54"/>
      <use xlink:href="#DejaVuSans-69" x="57.958984"/>
      <use xlink:href="#DejaVuSans-6d" x="85.742188"/>
      <use xlink:href="#DejaVuSans-65" x="183.154297"/>
      <use xlink:href="#DejaVuSans-20" x="244.677734"/>
      <use xlink:href="#DejaVuSans-28" x="276.464844"/>
      <use xlink:href="#DejaVuSans-73" x="315.478516"/>
      <use xlink:href="#DejaVuSans-29" x="367.578125"/>
     </g>
    </g>
   </g>
   <g id="matplotlib.axis_6">
    <g id="ytick_7">
     <g id="line2d_32">
      <g>
       <use xlink:href="#m6a6b33521a" x="641.535625" y="81.91017" style="stroke: #000000; stroke-width: 0.8"/>
      </g>
     </g>
     <g id="text_14">
      <!-- −2 -->
      <g transform="translate(616.845 86.469232)scale(0.12 -0.12)">
       <use xlink:href="#DejaVuSans-2212"/>
       <use xlink:href="#DejaVuSans-32" x="83.789062"/>
      </g>
     </g>
    </g>
    <g id="ytick_8">
     <g id="line2d_33">
      <g>
       <use xlink:href="#m6a6b33521a" x="641.535625" y="54.230539" style="stroke: #000000; stroke-width: 0.8"/>
      </g>
     </g>
     <g id="text_15">
      <!-- 0 -->
      <g transform="translate(626.900625 58.789601)scale(0.12 -0.12)">
       <use xlink:href="#DejaVuSans-30"/>
      </g>
     </g>
    </g>
    <g id="ytick_9">
     <g id="line2d_34">
      <g>
       <use xlink:href="#m6a6b33521a" x="641.535625" y="26.550908" style="stroke: #000000; stroke-width: 0.8"/>
      </g>
     </g>
     <g id="text_16">
      <!-- 2 -->
      <g transform="translate(626.900625 31.10997)scale(0.12 -0.12)">
       <use xlink:href="#DejaVuSans-32"/>
      </g>
     </g>
    </g>
    <g id="text_17">
     <!-- x -->
     <g transform="translate(610.349375 62.634479)rotate(-90)scale(0.12 -0.12)">
      <use xlink:href="#DejaVuSans-78"/>
     </g>
    </g>
   </g>
   <g id="line2d_35">
    <path d="M 651.102697 65.198077 
L 651.742635 66.648454 
L 652.382573 66.029469 
L 653.022511 63.090379 
L 653.662449 58.670267 
L 654.942325 46.693395 
L 655.582263 43.271437 
L 656.2222 41.833813 
L 656.862138 42.380463 
L 657.502076 45.090912 
L 658.142014 49.508928 
L 659.42189 61.911804 
L 660.061828 65.44427 
L 660.701766 66.694473 
L 661.341704 65.894233 
L 661.981642 62.801274 
L 662.62158 58.257015 
L 663.901456 46.395827 
L 664.541393 43.083633 
L 665.181331 41.76836 
L 665.821269 42.399974 
L 666.461207 45.189912 
L 667.101145 49.642805 
L 668.381021 62.018238 
L 669.020959 65.512838 
L 669.660897 66.733018 
L 670.300835 65.916553 
L 670.940773 62.806345 
L 671.580711 58.256465 
L 672.860587 46.39245 
L 673.500524 43.078737 
L 674.140462 41.758212 
L 674.7804 42.385608 
L 675.420338 45.170403 
L 676.060276 49.618656 
L 677.340152 62.000469 
L 677.98009 65.504646 
L 678.620028 66.735271 
L 679.259966 65.925157 
L 679.899904 62.826751 
L 680.539842 58.281876 
L 681.819718 46.411704 
L 682.459655 43.090212 
L 683.099593 41.759537 
L 685.659345 66.530927 
L 686.299283 69.672744 
L 686.939221 71.352377 
L 687.579159 71.518851 
L 688.219097 70.285699 
L 688.859035 67.362518 
L 689.498973 63.181595 
L 690.138911 58.105955 
L 691.418786 46.106465 
L 692.058724 42.658666 
L 692.698662 41.046531 
L 693.3386 41.246188 
L 693.978538 43.331547 
L 694.618476 47.30024 
L 695.258414 52.583484 
L 695.898352 59.171391 
L 696.53829 64.039167 
L 697.178228 66.553417 
L 697.818166 66.867776 
L 698.458104 65.096608 
L 699.098042 61.362119 
L 699.737979 56.340851 
L 701.017855 45.096644 
L 701.657793 42.318862 
L 702.297731 41.58223 
L 702.937669 42.705457 
L 703.577607 46.062015 
L 704.217545 50.88098 
L 705.497421 62.928798 
L 706.137359 66.029374 
L 706.777297 66.859481 
L 707.417235 65.662082 
L 708.057173 62.225282 
L 708.69711 57.432578 
L 709.976986 45.771715 
L 710.616924 42.674463 
L 711.256862 41.60127 
L 711.8968 42.420633 
L 712.536738 45.432822 
L 713.176676 49.992194 
L 714.456552 62.267826 
L 715.09649 65.661089 
L 715.736428 66.770498 
L 716.376366 65.872476 
L 717.016304 62.65078 
L 717.656241 58.055073 
L 718.936117 46.240825 
L 719.576055 42.975572 
L 720.215993 41.718459 
L 720.855931 42.39271 
L 721.495869 45.221698 
L 722.135807 49.694055 
L 723.415683 62.062058 
L 724.055621 65.538797 
L 724.695559 66.742135 
L 725.335497 65.917658 
L 725.975434 62.793069 
L 726.615372 58.238378 
L 727.895248 46.376423 
L 728.535186 43.068025 
L 729.175124 41.754494 
L 729.815062 42.385975 
L 730.455 45.174202 
L 731.094938 49.624776 
L 732.374814 62.005517 
L 733.014752 65.507724 
L 733.65469 66.736671 
L 734.294628 65.925599 
L 734.934565 62.82604 
L 735.574503 58.280712 
L 736.854379 46.410767 
L 737.494317 43.089527 
L 738.134255 41.759043 
L 738.774193 42.379963 
L 739.414131 45.159175 
L 740.054069 49.603249 
L 741.333945 61.988823 
L 741.973883 65.498293 
L 742.613821 66.733967 
L 743.253759 65.927171 
L 743.893696 62.833134 
L 744.533634 58.29024 
L 745.81351 46.417675 
L 746.453448 43.093955 
L 747.093386 38.695642 
L 747.733324 35.611035 
L 748.373262 33.410837 
L 749.0132 32.103286 
L 749.653138 31.802886 
L 750.293076 32.514341 
L 750.933014 34.227799 
L 751.572952 37.137581 
L 752.21289 41.172364 
L 752.852827 46.01134 
L 754.772641 63.864963 
L 755.412579 67.116527 
L 756.052517 68.434664 
L 756.692455 67.919214 
L 757.332393 65.44333 
L 757.972331 61.357837 
L 758.612269 56.18775 
L 759.252207 49.925686 
L 759.892145 44.905911 
L 760.532083 42.131797 
L 761.17202 41.365389 
L 761.811958 42.4271 
L 762.451896 45.697208 
L 763.091834 50.430424 
L 764.37171 62.612624 
L 765.011648 65.860321 
L 765.651586 66.86143 
L 766.291524 65.828756 
L 766.931462 62.513194 
L 767.5714 57.844902 
L 768.851276 46.081346 
L 769.491214 42.861794 
L 770.131151 41.64566 
L 770.771089 42.352077 
L 771.411027 45.207255 
L 772.050965 49.687711 
L 773.330841 62.062065 
L 773.970779 65.544632 
L 774.610717 66.7585 
L 775.250655 65.940184 
L 775.890593 62.833747 
L 776.530531 58.286486 
L 777.810407 46.413319 
L 778.450345 43.089168 
L 779.090282 41.753579 
L 779.73022 42.370404 
L 780.370158 45.145674 
L 781.010096 49.586673 
L 782.289972 61.977321 
L 782.92991 65.492612 
L 783.569848 66.734168 
L 784.209786 65.931836 
L 784.849724 62.843129 
L 785.489662 58.30288 
L 786.769538 46.426231 
L 787.409476 43.099261 
L 788.049413 41.762399 
L 788.689351 42.37921 
L 789.329289 45.155247 
L 789.969227 49.597255 
L 791.249103 61.984113 
L 791.889041 65.495337 
L 792.528979 66.73242 
L 793.168917 65.926478 
L 793.808855 62.833255 
L 794.448793 58.290685 
L 795.728669 46.418096 
L 796.368606 43.094357 
L 797.008544 41.761278 
L 797.648482 42.38063 
L 798.28842 45.158711 
L 798.928358 49.602101 
L 800.208234 61.987761 
L 800.848172 65.497457 
L 801.48811 66.733176 
L 802.128048 65.926331 
L 802.767986 62.832083 
L 803.407924 58.289053 
L 804.6878 46.416911 
L 805.327737 43.093561 
L 805.967675 41.760866 
L 806.607613 42.380445 
L 807.247551 45.15868 
L 807.887489 49.602157 
L 809.167365 61.987842 
L 809.807303 65.497549 
L 810.447241 66.733309 
L 811.087179 65.926507 
L 811.727117 62.832341 
L 812.367055 58.289356 
L 813.646931 46.417112 
L 814.286868 43.093671 
L 814.926806 41.760861 
L 815.566744 42.38036 
L 816.206682 45.158527 
L 816.84662 49.601953 
L 818.126496 61.987693 
L 818.766434 65.497468 
L 819.406372 66.733294 
L 820.04631 65.926538 
L 820.686248 62.832428 
L 821.326186 58.289469 
L 822.606062 46.417191 
L 823.245999 43.093721 
L 823.885937 41.760878 
L 824.525875 42.380356 
L 825.165813 45.158507 
L 825.805751 49.601923 
L 827.085627 61.987668 
L 827.725565 65.497453 
L 828.365503 66.733287 
L 829.005441 65.926534 
L 829.645379 62.832429 
L 830.285317 58.289472 
L 831.565192 46.417193 
L 832.20513 43.093723 
L 832.845068 41.760881 
L 833.485006 42.380359 
L 834.124944 45.158511 
L 834.764882 49.601927 
L 836.044758 61.987672 
L 836.684696 65.497454 
L 837.324634 66.733286 
L 837.964572 65.926532 
L 838.60451 62.832425 
L 839.244448 58.289467 
L 840.524323 46.41719 
L 841.164261 43.093721 
L 841.804199 41.760881 
L 842.444137 42.380359 
L 842.444137 42.380359 
" clip-path="url(#p1780fec08a)" style="fill: none; stroke: #1f77b4; stroke-width: 1.5; stroke-linecap: square"/>
   </g>
   <g id="line2d_36">
    <path d="M 651.102697 47.5216 
L 651.742635 52.771464 
L 652.382573 59.418771 
L 653.022511 64.053631 
L 653.662449 66.450271 
L 654.302387 66.850851 
L 654.942325 65.312746 
L 655.582263 61.730196 
L 656.2222 56.863753 
L 656.862138 50.643841 
L 657.502076 45.538116 
L 658.142014 42.921041 
L 658.781952 42.417223 
L 659.42189 44.036099 
L 660.061828 47.881045 
L 660.701766 53.270518 
L 661.341704 60.042786 
L 661.981642 64.447917 
L 662.62158 66.652075 
L 663.261518 66.878847 
L 663.901456 65.161562 
L 664.541393 61.51412 
L 665.181331 56.565715 
L 665.821269 50.29738 
L 666.461207 45.307634 
L 667.101145 42.758381 
L 667.741083 42.343714 
L 668.381021 44.038191 
L 669.020959 47.910152 
L 669.660897 53.31988 
L 670.300835 60.099334 
L 670.940773 64.483799 
L 671.580711 66.679255 
L 672.220649 66.899697 
L 672.860587 65.179999 
L 673.500524 61.53257 
L 674.140462 56.588061 
L 674.7804 50.322707 
L 675.420338 45.323856 
L 676.060276 42.766389 
L 676.700214 42.339403 
L 677.340152 44.02206 
L 677.98009 47.887832 
L 678.620028 53.290168 
L 679.259966 60.066172 
L 679.899904 64.466613 
L 680.539842 66.670833 
L 681.17978 66.902302 
L 681.819718 65.192878 
L 682.459655 61.550015 
L 683.099593 28.933134 
L 683.739531 29.574847 
L 684.379469 31.026494 
L 685.019407 33.512527 
L 685.659345 37.049259 
L 686.939221 46.694776 
L 688.859035 64.548841 
L 689.498973 67.562378 
L 690.138911 68.961758 
L 690.778848 68.754969 
L 691.418786 66.834267 
L 692.058724 63.184093 
L 692.698662 58.408049 
L 693.978538 46.434195 
L 694.618476 43.102264 
L 695.258414 41.814915 
L 695.898352 42.489758 
L 696.53829 45.428003 
L 697.178228 49.939245 
L 698.458104 62.180137 
L 699.098042 65.650347 
L 699.737979 67.113339 
L 700.377917 66.798022 
L 701.017855 64.388785 
L 701.657793 60.414123 
L 702.297731 55.073557 
L 702.937669 48.485135 
L 703.577607 44.273477 
L 704.217545 42.28091 
L 704.857483 42.356597 
L 705.497421 44.542171 
L 706.137359 48.666706 
L 706.777297 54.339193 
L 707.417235 61.283821 
L 708.057173 65.197872 
L 708.69711 67.020994 
L 709.337048 66.96191 
L 709.976986 64.967927 
L 710.616924 61.187315 
L 711.256862 56.070428 
L 711.8968 49.681124 
L 712.536738 44.977177 
L 713.176676 42.591734 
L 713.816614 42.329765 
L 714.456552 44.182377 
L 715.09649 48.116298 
L 715.736428 53.601357 
L 716.376366 60.428546 
L 717.016304 64.66422 
L 717.656241 66.780251 
L 718.296179 66.915838 
L 718.936117 65.115491 
L 719.576055 61.441215 
L 720.215993 56.452747 
L 720.855931 50.158156 
L 721.495869 45.220618 
L 722.135807 42.702707 
L 722.775745 42.325524 
L 723.415683 44.048444 
L 724.055621 47.932858 
L 724.695559 53.354563 
L 725.335497 60.137459 
L 725.975434 64.503844 
L 726.615372 66.691157 
L 727.25531 66.901181 
L 727.895248 65.174377 
L 728.535186 61.523798 
L 729.175124 56.574244 
L 729.815062 50.306568 
L 730.455 45.312795 
L 731.094938 42.759135 
L 731.734876 42.336633 
L 732.374814 44.022884 
L 733.014752 47.89004 
L 733.65469 53.293524 
L 734.294628 60.069995 
L 734.934565 64.468945 
L 735.574503 66.672408 
L 736.214441 66.903172 
L 736.854379 65.193161 
L 737.494317 61.550112 
L 738.134255 56.612729 
L 738.774193 50.351282 
L 739.414131 45.343433 
L 740.054069 42.778707 
L 740.694007 42.342216 
L 741.333945 44.016245 
L 741.973883 47.878471 
L 742.613821 53.277328 
L 743.253759 60.051495 
L 743.893696 64.457973 
L 744.533634 66.665676 
L 745.173572 66.900791 
L 745.81351 65.195152 
L 746.453448 89.233324 
L 747.733324 79.546643 
L 749.653138 63.518481 
L 751.572952 45.202076 
L 752.21289 41.440007 
L 752.852827 39.261807 
L 753.492765 38.680879 
L 754.132703 39.482553 
L 754.772641 42.049635 
L 755.412579 46.178821 
L 756.052517 51.503361 
L 757.332393 63.425944 
L 757.972331 66.45527 
L 758.612269 67.688527 
L 759.252207 67.189197 
L 759.892145 64.693692 
L 760.532083 60.703944 
L 761.17202 55.382876 
L 761.811958 48.845231 
L 762.451896 44.48331 
L 763.091834 42.347531 
L 763.731772 42.28903 
L 764.37171 44.317576 
L 765.011648 48.349065 
L 765.651586 53.899222 
L 766.291524 60.817558 
L 766.931462 64.916118 
L 767.5714 66.920618 
L 768.211338 66.982472 
L 768.851276 65.110799 
L 769.491214 61.407238 
L 770.131151 56.392566 
L 770.771089 50.079162 
L 771.411027 45.171628 
L 772.050965 42.665269 
L 772.690903 42.295372 
L 773.330841 44.019348 
L 773.970779 47.900843 
L 774.610717 53.314636 
L 775.250655 60.093949 
L 775.890593 64.485087 
L 776.530531 66.685773 
L 777.170469 66.915671 
L 777.810407 65.206962 
L 778.450345 61.565189 
L 779.090282 56.63144 
L 779.73022 50.372749 
L 780.370158 45.357862 
L 781.010096 42.787268 
L 781.650034 42.342117 
L 782.289972 44.007137 
L 782.92991 47.865603 
L 783.569848 53.260433 
L 784.209786 60.031889 
L 784.849724 64.446122 
L 785.489662 66.658655 
L 786.1296 66.898699 
L 786.769538 65.198776 
L 787.409476 61.55935 
L 788.049413 56.626447 
L 788.689351 50.367392 
L 789.329289 45.354686 
L 789.969227 42.786376 
L 790.609165 42.345531 
L 791.249103 44.015826 
L 791.889041 47.876811 
L 792.528979 53.274721 
L 793.168917 60.048461 
L 793.808855 64.455986 
L 794.448793 66.664224 
L 795.088731 66.899758 
L 795.728669 65.194411 
L 796.368606 61.553003 
L 797.008544 56.617443 
L 797.648482 50.356865 
L 798.28842 45.347395 
L 798.928358 42.781543 
L 799.568296 42.343857 
L 800.208234 44.017028 
L 800.848172 47.879056 
L 801.48811 53.277893 
L 802.128048 60.052128 
L 802.767986 64.458248 
L 803.407924 66.665682 
L 804.047862 66.900439 
L 804.6878 65.194314 
L 805.327737 61.552646 
L 805.967675 56.616817 
L 806.607613 50.356117 
L 807.247551 45.346858 
L 807.887489 42.781143 
L 808.527427 42.343583 
L 809.167365 44.016824 
L 809.807303 47.878853 
L 810.447241 53.27766 
L 811.087179 60.051863 
L 811.727117 64.458108 
L 812.367055 66.665627 
L 813.006993 66.900486 
L 813.646931 65.19449 
L 814.286868 61.552874 
L 814.926806 56.617126 
L 815.566744 50.356476 
L 816.206682 45.347105 
L 816.84662 42.7813 
L 817.486558 42.343619 
L 818.126496 44.016743 
L 818.766434 47.878727 
L 819.406372 53.277489 
L 820.04631 60.051666 
L 820.686248 64.457991 
L 821.326186 66.665556 
L 821.966124 66.900464 
L 822.606062 65.194518 
L 823.245999 61.552921 
L 823.885937 56.617197 
L 824.525875 50.356559 
L 825.165813 45.347162 
L 825.805751 42.781339 
L 826.445689 42.343635 
L 827.085627 44.016741 
L 827.725565 47.878718 
L 828.365503 53.277475 
L 829.005441 60.05165 
L 829.645379 64.45798 
L 830.285317 66.665549 
L 830.925255 66.900458 
L 831.565192 65.194515 
L 832.20513 61.552918 
L 832.845068 56.617193 
L 833.485006 50.356555 
L 834.124944 45.34716 
L 834.764882 42.781337 
L 835.40482 42.343636 
L 836.044758 44.016744 
L 836.684696 47.878723 
L 837.324634 53.277481 
L 837.964572 60.051657 
L 838.60451 64.457984 
L 839.244448 66.665551 
L 839.884386 66.900459 
L 840.524323 65.194513 
L 841.164261 61.552915 
L 841.804199 56.61719 
L 842.444137 50.356551 
L 842.444137 50.356551 
" clip-path="url(#p1780fec08a)" style="fill: none; stroke: #ff7f0e; stroke-width: 1.5; stroke-linecap: square"/>
   </g>
   <g id="patch_13">
    <path d="M 641.535625 92.248333 
L 641.535625 25.918125 
" style="fill: none; stroke: #000000; stroke-width: 0.8; stroke-linejoin: miter; stroke-linecap: square"/>
   </g>
   <g id="patch_14">
    <path d="M 852.011209 92.248333 
L 852.011209 25.918125 
" style="fill: none; stroke: #000000; stroke-width: 0.8; stroke-linejoin: miter; stroke-linecap: square"/>
   </g>
   <g id="patch_15">
    <path d="M 641.535625 92.248333 
L 852.011209 92.248333 
" style="fill: none; stroke: #000000; stroke-width: 0.8; stroke-linejoin: miter; stroke-linecap: square"/>
   </g>
   <g id="patch_16">
    <path d="M 641.535625 25.918125 
L 852.011209 25.918125 
" style="fill: none; stroke: #000000; stroke-width: 0.8; stroke-linejoin: miter; stroke-linecap: square"/>
   </g>
   <g id="text_18">
    <!-- Post-learning -->
    <g transform="translate(707.58123 19.918125)scale(0.12 -0.12)">
     <defs>
      <path id="DejaVuSans-6f" d="M 1959 3097 
Q 1497 3097 1228 2736 
Q 959 2375 959 1747 
Q 959 1119 1226 758 
Q 1494 397 1959 397 
Q 2419 397 2687 759 
Q 2956 1122 2956 1747 
Q 2956 2369 2687 2733 
Q 2419 3097 1959 3097 
z
M 1959 3584 
Q 2709 3584 3137 3096 
Q 3566 2609 3566 1747 
Q 3566 888 3137 398 
Q 2709 -91 1959 -91 
Q 1206 -91 779 398 
Q 353 888 353 1747 
Q 353 2609 779 3096 
Q 1206 3584 1959 3584 
z
" transform="scale(0.015625)"/>
      <path id="DejaVuSans-74" d="M 1172 4494 
L 1172 3500 
L 2356 3500 
L 2356 3053 
L 1172 3053 
L 1172 1153 
Q 1172 725 1289 603 
Q 1406 481 1766 481 
L 2356 481 
L 2356 0 
L 1766 0 
Q 1100 0 847 248 
Q 594 497 594 1153 
L 594 3053 
L 172 3053 
L 172 3500 
L 594 3500 
L 594 4494 
L 1172 4494 
z
" transform="scale(0.015625)"/>
     </defs>
     <use xlink:href="#DejaVuSans-50"/>
     <use xlink:href="#DejaVuSans-6f" x="56.677734"/>
     <use xlink:href="#DejaVuSans-73" x="117.859375"/>
     <use xlink:href="#DejaVuSans-74" x="169.958984"/>
     <use xlink:href="#DejaVuSans-2d" x="209.167969"/>
     <use xlink:href="#DejaVuSans-6c" x="245.251953"/>
     <use xlink:href="#DejaVuSans-65" x="273.035156"/>
     <use xlink:href="#DejaVuSans-61" x="334.558594"/>
     <use xlink:href="#DejaVuSans-72" x="395.837891"/>
     <use xlink:href="#DejaVuSans-6e" x="435.201172"/>
     <use xlink:href="#DejaVuSans-69" x="498.580078"/>
     <use xlink:href="#DejaVuSans-6e" x="526.363281"/>
     <use xlink:href="#DejaVuSans-67" x="589.742188"/>
    </g>
   </g>
  </g>
  <g id="axes_4">
   <g id="patch_17">
    <path d="M 70.188125 203.610417 
L 280.663709 203.610417 
L 280.663709 137.280208 
L 70.188125 137.280208 
z
" style="fill: #ffffff"/>
   </g>
   <g id="matplotlib.axis_7">
    <g id="xtick_22">
     <g id="line2d_37">
      <g>
       <use xlink:href="#mf1ce217b33" x="79.755197" y="203.610417" style="stroke: #000000; stroke-width: 0.8"/>
      </g>
     </g>
    </g>
    <g id="xtick_23">
     <g id="line2d_38">
      <g>
       <use xlink:href="#mf1ce217b33" x="111.752093" y="203.610417" style="stroke: #000000; stroke-width: 0.8"/>
      </g>
     </g>
    </g>
    <g id="xtick_24">
     <g id="line2d_39">
      <g>
       <use xlink:href="#mf1ce217b33" x="143.74899" y="203.610417" style="stroke: #000000; stroke-width: 0.8"/>
      </g>
     </g>
    </g>
    <g id="xtick_25">
     <g id="line2d_40">
      <g>
       <use xlink:href="#mf1ce217b33" x="175.745886" y="203.610417" style="stroke: #000000; stroke-width: 0.8"/>
      </g>
     </g>
    </g>
    <g id="xtick_26">
     <g id="line2d_41">
      <g>
       <use xlink:href="#mf1ce217b33" x="207.742782" y="203.610417" style="stroke: #000000; stroke-width: 0.8"/>
      </g>
     </g>
    </g>
    <g id="xtick_27">
     <g id="line2d_42">
      <g>
       <use xlink:href="#mf1ce217b33" x="239.739679" y="203.610417" style="stroke: #000000; stroke-width: 0.8"/>
      </g>
     </g>
    </g>
    <g id="xtick_28">
     <g id="line2d_43">
      <g>
       <use xlink:href="#mf1ce217b33" x="271.736575" y="203.610417" style="stroke: #000000; stroke-width: 0.8"/>
      </g>
     </g>
    </g>
    <g id="text_19">
     <!-- Time (s) -->
     <g transform="translate(151.03123 220.228542)scale(0.12 -0.12)">
      <use xlink:href="#DejaVuSans-54"/>
      <use xlink:href="#DejaVuSans-69" x="57.958984"/>
      <use xlink:href="#DejaVuSans-6d" x="85.742188"/>
      <use xlink:href="#DejaVuSans-65" x="183.154297"/>
      <use xlink:href="#DejaVuSans-20" x="244.677734"/>
      <use xlink:href="#DejaVuSans-28" x="276.464844"/>
      <use xlink:href="#DejaVuSans-73" x="315.478516"/>
      <use xlink:href="#DejaVuSans-29" x="367.578125"/>
     </g>
    </g>
   </g>
   <g id="matplotlib.axis_8">
    <g id="ytick_10">
     <g id="line2d_44">
      <g>
       <use xlink:href="#m6a6b33521a" x="70.188125" y="200.595407" style="stroke: #000000; stroke-width: 0.8"/>
      </g>
     </g>
     <g id="text_20">
      <!-- −20 -->
      <g transform="translate(37.8625 205.15447)scale(0.12 -0.12)">
       <use xlink:href="#DejaVuSans-2212"/>
       <use xlink:href="#DejaVuSans-32" x="83.789062"/>
       <use xlink:href="#DejaVuSans-30" x="147.412109"/>
      </g>
     </g>
    </g>
    <g id="ytick_11">
     <g id="line2d_45">
      <g>
       <use xlink:href="#m6a6b33521a" x="70.188125" y="170.445313" style="stroke: #000000; stroke-width: 0.8"/>
      </g>
     </g>
     <g id="text_21">
      <!-- 0 -->
      <g transform="translate(55.553125 175.004375)scale(0.12 -0.12)">
       <use xlink:href="#DejaVuSans-30"/>
      </g>
     </g>
    </g>
    <g id="ytick_12">
     <g id="line2d_46">
      <g>
       <use xlink:href="#m6a6b33521a" x="70.188125" y="140.295218" style="stroke: #000000; stroke-width: 0.8"/>
      </g>
     </g>
     <g id="text_22">
      <!-- 20 -->
      <g transform="translate(47.918125 144.85428)scale(0.12 -0.12)">
       <use xlink:href="#DejaVuSans-32"/>
       <use xlink:href="#DejaVuSans-30" x="63.623047"/>
      </g>
     </g>
    </g>
    <g id="text_23">
     <!-- u -->
     <g transform="translate(31.366875 174.247813)rotate(-90)scale(0.12 -0.12)">
      <defs>
       <path id="DejaVuSans-75" d="M 544 1381 
L 544 3500 
L 1119 3500 
L 1119 1403 
Q 1119 906 1312 657 
Q 1506 409 1894 409 
Q 2359 409 2629 706 
Q 2900 1003 2900 1516 
L 2900 3500 
L 3475 3500 
L 3475 0 
L 2900 0 
L 2900 538 
Q 2691 219 2414 64 
Q 2138 -91 1772 -91 
Q 1169 -91 856 284 
Q 544 659 544 1381 
z
M 1991 3584 
L 1991 3584 
z
" transform="scale(0.015625)"/>
      </defs>
      <use xlink:href="#DejaVuSans-75"/>
     </g>
    </g>
   </g>
   <g id="line2d_47">
    <path d="M 79.755197 170.445313 
L 271.096637 170.445313 
L 271.096637 170.445313 
" clip-path="url(#pbc96ef3988)" style="fill: none; stroke: #1f77b4; stroke-width: 1.5; stroke-linecap: square"/>
   </g>
   <g id="line2d_48">
    <path d="M 79.755197 170.445313 
L 111.112155 170.445313 
L 111.752093 140.295218 
L 112.392031 170.445313 
L 174.46601 170.445313 
L 175.105948 200.595407 
L 175.745886 170.445313 
L 271.096637 170.445313 
L 271.096637 170.445313 
" clip-path="url(#pbc96ef3988)" style="fill: none; stroke: #ff7f0e; stroke-width: 1.5; stroke-linecap: square"/>
   </g>
   <g id="patch_18">
    <path d="M 70.188125 203.610417 
L 70.188125 137.280208 
" style="fill: none; stroke: #000000; stroke-width: 0.8; stroke-linejoin: miter; stroke-linecap: square"/>
   </g>
   <g id="patch_19">
    <path d="M 280.663709 203.610417 
L 280.663709 137.280208 
" style="fill: none; stroke: #000000; stroke-width: 0.8; stroke-linejoin: miter; stroke-linecap: square"/>
   </g>
   <g id="patch_20">
    <path d="M 70.188125 203.610417 
L 280.663709 203.610417 
" style="fill: none; stroke: #000000; stroke-width: 0.8; stroke-linejoin: miter; stroke-linecap: square"/>
   </g>
   <g id="patch_21">
    <path d="M 70.188125 137.280208 
L 280.663709 137.280208 
" style="fill: none; stroke: #000000; stroke-width: 0.8; stroke-linejoin: miter; stroke-linecap: square"/>
   </g>
   <g id="text_24">
    <!-- Input -->
    <g transform="translate(159.889667 131.280208)scale(0.12 -0.12)">
     <defs>
      <path id="DejaVuSans-49" d="M 628 4666 
L 1259 4666 
L 1259 0 
L 628 0 
L 628 4666 
z
" transform="scale(0.015625)"/>
     </defs>
     <use xlink:href="#DejaVuSans-49"/>
     <use xlink:href="#DejaVuSans-6e" x="29.492188"/>
     <use xlink:href="#DejaVuSans-70" x="92.871094"/>
     <use xlink:href="#DejaVuSans-75" x="156.347656"/>
     <use xlink:href="#DejaVuSans-74" x="219.726562"/>
    </g>
   </g>
  </g>
  <g id="axes_5">
   <g id="patch_22">
    <path d="M 355.861875 203.610417 
L 566.337459 203.610417 
L 566.337459 137.280208 
L 355.861875 137.280208 
z
" style="fill: #ffffff"/>
   </g>
   <g id="matplotlib.axis_9">
    <g id="xtick_29">
     <g id="line2d_49">
      <g>
       <use xlink:href="#mf1ce217b33" x="365.428947" y="203.610417" style="stroke: #000000; stroke-width: 0.8"/>
      </g>
     </g>
    </g>
    <g id="xtick_30">
     <g id="line2d_50">
      <g>
       <use xlink:href="#mf1ce217b33" x="397.425843" y="203.610417" style="stroke: #000000; stroke-width: 0.8"/>
      </g>
     </g>
    </g>
    <g id="xtick_31">
     <g id="line2d_51">
      <g>
       <use xlink:href="#mf1ce217b33" x="429.42274" y="203.610417" style="stroke: #000000; stroke-width: 0.8"/>
      </g>
     </g>
    </g>
    <g id="xtick_32">
     <g id="line2d_52">
      <g>
       <use xlink:href="#mf1ce217b33" x="461.419636" y="203.610417" style="stroke: #000000; stroke-width: 0.8"/>
      </g>
     </g>
    </g>
    <g id="xtick_33">
     <g id="line2d_53">
      <g>
       <use xlink:href="#mf1ce217b33" x="493.416532" y="203.610417" style="stroke: #000000; stroke-width: 0.8"/>
      </g>
     </g>
    </g>
    <g id="xtick_34">
     <g id="line2d_54">
      <g>
       <use xlink:href="#mf1ce217b33" x="525.413429" y="203.610417" style="stroke: #000000; stroke-width: 0.8"/>
      </g>
     </g>
    </g>
    <g id="xtick_35">
     <g id="line2d_55">
      <g>
       <use xlink:href="#mf1ce217b33" x="557.410325" y="203.610417" style="stroke: #000000; stroke-width: 0.8"/>
      </g>
     </g>
    </g>
    <g id="text_25">
     <!-- Time (s) -->
     <g transform="translate(436.70498 220.228542)scale(0.12 -0.12)">
      <use xlink:href="#DejaVuSans-54"/>
      <use xlink:href="#DejaVuSans-69" x="57.958984"/>
      <use xlink:href="#DejaVuSans-6d" x="85.742188"/>
      <use xlink:href="#DejaVuSans-65" x="183.154297"/>
      <use xlink:href="#DejaVuSans-20" x="244.677734"/>
      <use xlink:href="#DejaVuSans-28" x="276.464844"/>
      <use xlink:href="#DejaVuSans-73" x="315.478516"/>
      <use xlink:href="#DejaVuSans-29" x="367.578125"/>
     </g>
    </g>
   </g>
   <g id="matplotlib.axis_10">
    <g id="ytick_13">
     <g id="line2d_56">
      <g>
       <use xlink:href="#m6a6b33521a" x="355.861875" y="200.595407" style="stroke: #000000; stroke-width: 0.8"/>
      </g>
     </g>
     <g id="text_26">
      <!-- −20 -->
      <g transform="translate(323.53625 205.15447)scale(0.12 -0.12)">
       <use xlink:href="#DejaVuSans-2212"/>
       <use xlink:href="#DejaVuSans-32" x="83.789062"/>
       <use xlink:href="#DejaVuSans-30" x="147.412109"/>
      </g>
     </g>
    </g>
    <g id="ytick_14">
     <g id="line2d_57">
      <g>
       <use xlink:href="#m6a6b33521a" x="355.861875" y="170.445313" style="stroke: #000000; stroke-width: 0.8"/>
      </g>
     </g>
     <g id="text_27">
      <!-- 0 -->
      <g transform="translate(341.226875 175.004375)scale(0.12 -0.12)">
       <use xlink:href="#DejaVuSans-30"/>
      </g>
     </g>
    </g>
    <g id="ytick_15">
     <g id="line2d_58">
      <g>
       <use xlink:href="#m6a6b33521a" x="355.861875" y="140.295218" style="stroke: #000000; stroke-width: 0.8"/>
      </g>
     </g>
     <g id="text_28">
      <!-- 20 -->
      <g transform="translate(333.591875 144.85428)scale(0.12 -0.12)">
       <use xlink:href="#DejaVuSans-32"/>
       <use xlink:href="#DejaVuSans-30" x="63.623047"/>
      </g>
     </g>
    </g>
    <g id="text_29">
     <!-- u -->
     <g transform="translate(317.040625 174.247813)rotate(-90)scale(0.12 -0.12)">
      <use xlink:href="#DejaVuSans-75"/>
     </g>
    </g>
   </g>
   <g id="line2d_59">
    <path d="M 365.428947 170.445313 
L 371.188388 170.445313 
L 371.828326 140.295218 
L 403.185285 140.295218 
L 403.825223 170.445313 
L 447.98094 170.445313 
L 448.620878 200.595407 
L 479.977836 200.595407 
L 480.617774 170.445313 
L 556.770387 170.445313 
L 556.770387 170.445313 
" clip-path="url(#p91a7e9101c)" style="fill: none; stroke: #1f77b4; stroke-width: 1.5; stroke-linecap: square"/>
   </g>
   <g id="line2d_60">
    <path d="M 365.428947 170.445313 
L 409.584664 170.445313 
L 410.224602 140.295218 
L 441.58156 140.295218 
L 442.221498 170.445313 
L 486.377215 170.445313 
L 487.017153 200.595407 
L 518.374112 200.595407 
L 519.01405 170.445313 
L 556.770387 170.445313 
L 556.770387 170.445313 
" clip-path="url(#p91a7e9101c)" style="fill: none; stroke: #ff7f0e; stroke-width: 1.5; stroke-linecap: square"/>
   </g>
   <g id="patch_23">
    <path d="M 355.861875 203.610417 
L 355.861875 137.280208 
" style="fill: none; stroke: #000000; stroke-width: 0.8; stroke-linejoin: miter; stroke-linecap: square"/>
   </g>
   <g id="patch_24">
    <path d="M 566.337459 203.610417 
L 566.337459 137.280208 
" style="fill: none; stroke: #000000; stroke-width: 0.8; stroke-linejoin: miter; stroke-linecap: square"/>
   </g>
   <g id="patch_25">
    <path d="M 355.861875 203.610417 
L 566.337459 203.610417 
" style="fill: none; stroke: #000000; stroke-width: 0.8; stroke-linejoin: miter; stroke-linecap: square"/>
   </g>
   <g id="patch_26">
    <path d="M 355.861875 137.280208 
L 566.337459 137.280208 
" style="fill: none; stroke: #000000; stroke-width: 0.8; stroke-linejoin: miter; stroke-linecap: square"/>
   </g>
   <g id="text_30">
    <!-- Input -->
    <g transform="translate(445.563417 131.280208)scale(0.12 -0.12)">
     <use xlink:href="#DejaVuSans-49"/>
     <use xlink:href="#DejaVuSans-6e" x="29.492188"/>
     <use xlink:href="#DejaVuSans-70" x="92.871094"/>
     <use xlink:href="#DejaVuSans-75" x="156.347656"/>
     <use xlink:href="#DejaVuSans-74" x="219.726562"/>
    </g>
   </g>
  </g>
  <g id="axes_6">
   <g id="patch_27">
    <path d="M 641.535625 203.610417 
L 852.011209 203.610417 
L 852.011209 137.280208 
L 641.535625 137.280208 
z
" style="fill: #ffffff"/>
   </g>
   <g id="matplotlib.axis_11">
    <g id="xtick_36">
     <g id="line2d_61">
      <g>
       <use xlink:href="#mf1ce217b33" x="651.102697" y="203.610417" style="stroke: #000000; stroke-width: 0.8"/>
      </g>
     </g>
    </g>
    <g id="xtick_37">
     <g id="line2d_62">
      <g>
       <use xlink:href="#mf1ce217b33" x="683.099593" y="203.610417" style="stroke: #000000; stroke-width: 0.8"/>
      </g>
     </g>
    </g>
    <g id="xtick_38">
     <g id="line2d_63">
      <g>
       <use xlink:href="#mf1ce217b33" x="715.09649" y="203.610417" style="stroke: #000000; stroke-width: 0.8"/>
      </g>
     </g>
    </g>
    <g id="xtick_39">
     <g id="line2d_64">
      <g>
       <use xlink:href="#mf1ce217b33" x="747.093386" y="203.610417" style="stroke: #000000; stroke-width: 0.8"/>
      </g>
     </g>
    </g>
    <g id="xtick_40">
     <g id="line2d_65">
      <g>
       <use xlink:href="#mf1ce217b33" x="779.090282" y="203.610417" style="stroke: #000000; stroke-width: 0.8"/>
      </g>
     </g>
    </g>
    <g id="xtick_41">
     <g id="line2d_66">
      <g>
       <use xlink:href="#mf1ce217b33" x="811.087179" y="203.610417" style="stroke: #000000; stroke-width: 0.8"/>
      </g>
     </g>
    </g>
    <g id="xtick_42">
     <g id="line2d_67">
      <g>
       <use xlink:href="#mf1ce217b33" x="843.084075" y="203.610417" style="stroke: #000000; stroke-width: 0.8"/>
      </g>
     </g>
    </g>
    <g id="text_31">
     <!-- Time (s) -->
     <g transform="translate(722.37873 220.228542)scale(0.12 -0.12)">
      <use xlink:href="#DejaVuSans-54"/>
      <use xlink:href="#DejaVuSans-69" x="57.958984"/>
      <use xlink:href="#DejaVuSans-6d" x="85.742188"/>
      <use xlink:href="#DejaVuSans-65" x="183.154297"/>
      <use xlink:href="#DejaVuSans-20" x="244.677734"/>
      <use xlink:href="#DejaVuSans-28" x="276.464844"/>
      <use xlink:href="#DejaVuSans-73" x="315.478516"/>
      <use xlink:href="#DejaVuSans-29" x="367.578125"/>
     </g>
    </g>
   </g>
   <g id="matplotlib.axis_12">
    <g id="ytick_16">
     <g id="line2d_68">
      <g>
       <use xlink:href="#m6a6b33521a" x="641.535625" y="200.595407" style="stroke: #000000; stroke-width: 0.8"/>
      </g>
     </g>
     <g id="text_32">
      <!-- −20 -->
      <g transform="translate(609.21 205.15447)scale(0.12 -0.12)">
       <use xlink:href="#DejaVuSans-2212"/>
       <use xlink:href="#DejaVuSans-32" x="83.789062"/>
       <use xlink:href="#DejaVuSans-30" x="147.412109"/>
      </g>
     </g>
    </g>
    <g id="ytick_17">
     <g id="line2d_69">
      <g>
       <use xlink:href="#m6a6b33521a" x="641.535625" y="170.445313" style="stroke: #000000; stroke-width: 0.8"/>
      </g>
     </g>
     <g id="text_33">
      <!-- 0 -->
      <g transform="translate(626.900625 175.004375)scale(0.12 -0.12)">
       <use xlink:href="#DejaVuSans-30"/>
      </g>
     </g>
    </g>
    <g id="ytick_18">
     <g id="line2d_70">
      <g>
       <use xlink:href="#m6a6b33521a" x="641.535625" y="140.295218" style="stroke: #000000; stroke-width: 0.8"/>
      </g>
     </g>
     <g id="text_34">
      <!-- 20 -->
      <g transform="translate(619.265625 144.85428)scale(0.12 -0.12)">
       <use xlink:href="#DejaVuSans-32"/>
       <use xlink:href="#DejaVuSans-30" x="63.623047"/>
      </g>
     </g>
    </g>
    <g id="text_35">
     <!-- u -->
     <g transform="translate(602.714375 174.247813)rotate(-90)scale(0.12 -0.12)">
      <use xlink:href="#DejaVuSans-75"/>
     </g>
    </g>
   </g>
   <g id="line2d_71">
    <path d="M 651.102697 170.445313 
L 842.444137 170.445313 
L 842.444137 170.445313 
" clip-path="url(#p5a8e7372fd)" style="fill: none; stroke: #1f77b4; stroke-width: 1.5; stroke-linecap: square"/>
   </g>
   <g id="line2d_72">
    <path d="M 651.102697 170.445313 
L 682.459655 170.445313 
L 683.099593 140.295218 
L 683.739531 170.445313 
L 745.81351 170.445313 
L 746.453448 200.595407 
L 747.093386 170.445313 
L 842.444137 170.445313 
L 842.444137 170.445313 
" clip-path="url(#p5a8e7372fd)" style="fill: none; stroke: #ff7f0e; stroke-width: 1.5; stroke-linecap: square"/>
   </g>
   <g id="patch_28">
    <path d="M 641.535625 203.610417 
L 641.535625 137.280208 
" style="fill: none; stroke: #000000; stroke-width: 0.8; stroke-linejoin: miter; stroke-linecap: square"/>
   </g>
   <g id="patch_29">
    <path d="M 852.011209 203.610417 
L 852.011209 137.280208 
" style="fill: none; stroke: #000000; stroke-width: 0.8; stroke-linejoin: miter; stroke-linecap: square"/>
   </g>
   <g id="patch_30">
    <path d="M 641.535625 203.610417 
L 852.011209 203.610417 
" style="fill: none; stroke: #000000; stroke-width: 0.8; stroke-linejoin: miter; stroke-linecap: square"/>
   </g>
   <g id="patch_31">
    <path d="M 641.535625 137.280208 
L 852.011209 137.280208 
" style="fill: none; stroke: #000000; stroke-width: 0.8; stroke-linejoin: miter; stroke-linecap: square"/>
   </g>
   <g id="text_36">
    <!-- Input -->
    <g transform="translate(731.237167 131.280208)scale(0.12 -0.12)">
     <use xlink:href="#DejaVuSans-49"/>
     <use xlink:href="#DejaVuSans-6e" x="29.492188"/>
     <use xlink:href="#DejaVuSans-70" x="92.871094"/>
     <use xlink:href="#DejaVuSans-75" x="156.347656"/>
     <use xlink:href="#DejaVuSans-74" x="219.726562"/>
    </g>
   </g>
  </g>
  <g id="axes_7">
   <g id="patch_32">
    <path d="M 70.188125 314.9725 
L 280.663709 314.9725 
L 280.663709 248.642292 
L 70.188125 248.642292 
z
" style="fill: #ffffff"/>
   </g>
   <g id="matplotlib.axis_13">
    <g id="xtick_43">
     <g id="line2d_73">
      <g>
       <use xlink:href="#mf1ce217b33" x="79.755197" y="314.9725" style="stroke: #000000; stroke-width: 0.8"/>
      </g>
     </g>
     <g id="text_37">
      <!-- 0.00 -->
      <g transform="translate(66.395822 331.090625)scale(0.12 -0.12)">
       <defs>
        <path id="DejaVuSans-2e" d="M 684 794 
L 1344 794 
L 1344 0 
L 684 0 
L 684 794 
z
" transform="scale(0.015625)"/>
       </defs>
       <use xlink:href="#DejaVuSans-30"/>
       <use xlink:href="#DejaVuSans-2e" x="63.623047"/>
       <use xlink:href="#DejaVuSans-30" x="95.410156"/>
       <use xlink:href="#DejaVuSans-30" x="159.033203"/>
      </g>
     </g>
    </g>
    <g id="xtick_44">
     <g id="line2d_74">
      <g>
       <use xlink:href="#mf1ce217b33" x="111.752093" y="314.9725" style="stroke: #000000; stroke-width: 0.8"/>
      </g>
     </g>
     <g id="text_38">
      <!-- 0.05 -->
      <g transform="translate(98.392718 331.090625)scale(0.12 -0.12)">
       <defs>
        <path id="DejaVuSans-35" d="M 691 4666 
L 3169 4666 
L 3169 4134 
L 1269 4134 
L 1269 2991 
Q 1406 3038 1543 3061 
Q 1681 3084 1819 3084 
Q 2600 3084 3056 2656 
Q 3513 2228 3513 1497 
Q 3513 744 3044 326 
Q 2575 -91 1722 -91 
Q 1428 -91 1123 -41 
Q 819 9 494 109 
L 494 744 
Q 775 591 1075 516 
Q 1375 441 1709 441 
Q 2250 441 2565 725 
Q 2881 1009 2881 1497 
Q 2881 1984 2565 2268 
Q 2250 2553 1709 2553 
Q 1456 2553 1204 2497 
Q 953 2441 691 2322 
L 691 4666 
z
" transform="scale(0.015625)"/>
       </defs>
       <use xlink:href="#DejaVuSans-30"/>
       <use xlink:href="#DejaVuSans-2e" x="63.623047"/>
       <use xlink:href="#DejaVuSans-30" x="95.410156"/>
       <use xlink:href="#DejaVuSans-35" x="159.033203"/>
      </g>
     </g>
    </g>
    <g id="xtick_45">
     <g id="line2d_75">
      <g>
       <use xlink:href="#mf1ce217b33" x="143.74899" y="314.9725" style="stroke: #000000; stroke-width: 0.8"/>
      </g>
     </g>
     <g id="text_39">
      <!-- 0.10 -->
      <g transform="translate(130.389615 331.090625)scale(0.12 -0.12)">
       <defs>
        <path id="DejaVuSans-31" d="M 794 531 
L 1825 531 
L 1825 4091 
L 703 3866 
L 703 4441 
L 1819 4666 
L 2450 4666 
L 2450 531 
L 3481 531 
L 3481 0 
L 794 0 
L 794 531 
z
" transform="scale(0.015625)"/>
       </defs>
       <use xlink:href="#DejaVuSans-30"/>
       <use xlink:href="#DejaVuSans-2e" x="63.623047"/>
       <use xlink:href="#DejaVuSans-31" x="95.410156"/>
       <use xlink:href="#DejaVuSans-30" x="159.033203"/>
      </g>
     </g>
    </g>
    <g id="xtick_46">
     <g id="line2d_76">
      <g>
       <use xlink:href="#mf1ce217b33" x="175.745886" y="314.9725" style="stroke: #000000; stroke-width: 0.8"/>
      </g>
     </g>
     <g id="text_40">
      <!-- 0.15 -->
      <g transform="translate(162.386511 331.090625)scale(0.12 -0.12)">
       <use xlink:href="#DejaVuSans-30"/>
       <use xlink:href="#DejaVuSans-2e" x="63.623047"/>
       <use xlink:href="#DejaVuSans-31" x="95.410156"/>
       <use xlink:href="#DejaVuSans-35" x="159.033203"/>
      </g>
     </g>
    </g>
    <g id="xtick_47">
     <g id="line2d_77">
      <g>
       <use xlink:href="#mf1ce217b33" x="207.742782" y="314.9725" style="stroke: #000000; stroke-width: 0.8"/>
      </g>
     </g>
     <g id="text_41">
      <!-- 0.20 -->
      <g transform="translate(194.383407 331.090625)scale(0.12 -0.12)">
       <use xlink:href="#DejaVuSans-30"/>
       <use xlink:href="#DejaVuSans-2e" x="63.623047"/>
       <use xlink:href="#DejaVuSans-32" x="95.410156"/>
       <use xlink:href="#DejaVuSans-30" x="159.033203"/>
      </g>
     </g>
    </g>
    <g id="xtick_48">
     <g id="line2d_78">
      <g>
       <use xlink:href="#mf1ce217b33" x="239.739679" y="314.9725" style="stroke: #000000; stroke-width: 0.8"/>
      </g>
     </g>
     <g id="text_42">
      <!-- 0.25 -->
      <g transform="translate(226.380304 331.090625)scale(0.12 -0.12)">
       <use xlink:href="#DejaVuSans-30"/>
       <use xlink:href="#DejaVuSans-2e" x="63.623047"/>
       <use xlink:href="#DejaVuSans-32" x="95.410156"/>
       <use xlink:href="#DejaVuSans-35" x="159.033203"/>
      </g>
     </g>
    </g>
    <g id="xtick_49">
     <g id="line2d_79">
      <g>
       <use xlink:href="#mf1ce217b33" x="271.736575" y="314.9725" style="stroke: #000000; stroke-width: 0.8"/>
      </g>
     </g>
     <g id="text_43">
      <!-- 0.30 -->
      <g transform="translate(258.3772 331.090625)scale(0.12 -0.12)">
       <defs>
        <path id="DejaVuSans-33" d="M 2597 2516 
Q 3050 2419 3304 2112 
Q 3559 1806 3559 1356 
Q 3559 666 3084 287 
Q 2609 -91 1734 -91 
Q 1441 -91 1130 -33 
Q 819 25 488 141 
L 488 750 
Q 750 597 1062 519 
Q 1375 441 1716 441 
Q 2309 441 2620 675 
Q 2931 909 2931 1356 
Q 2931 1769 2642 2001 
Q 2353 2234 1838 2234 
L 1294 2234 
L 1294 2753 
L 1863 2753 
Q 2328 2753 2575 2939 
Q 2822 3125 2822 3475 
Q 2822 3834 2567 4026 
Q 2313 4219 1838 4219 
Q 1578 4219 1281 4162 
Q 984 4106 628 3988 
L 628 4550 
Q 988 4650 1302 4700 
Q 1616 4750 1894 4750 
Q 2613 4750 3031 4423 
Q 3450 4097 3450 3541 
Q 3450 3153 3228 2886 
Q 3006 2619 2597 2516 
z
" transform="scale(0.015625)"/>
       </defs>
       <use xlink:href="#DejaVuSans-30"/>
       <use xlink:href="#DejaVuSans-2e" x="63.623047"/>
       <use xlink:href="#DejaVuSans-33" x="95.410156"/>
       <use xlink:href="#DejaVuSans-30" x="159.033203"/>
      </g>
     </g>
    </g>
    <g id="text_44">
     <!-- Time (s) -->
     <g transform="translate(151.03123 346.704375)scale(0.12 -0.12)">
      <use xlink:href="#DejaVuSans-54"/>
      <use xlink:href="#DejaVuSans-69" x="57.958984"/>
      <use xlink:href="#DejaVuSans-6d" x="85.742188"/>
      <use xlink:href="#DejaVuSans-65" x="183.154297"/>
      <use xlink:href="#DejaVuSans-20" x="244.677734"/>
      <use xlink:href="#DejaVuSans-28" x="276.464844"/>
      <use xlink:href="#DejaVuSans-73" x="315.478516"/>
      <use xlink:href="#DejaVuSans-29" x="367.578125"/>
     </g>
    </g>
   </g>
   <g id="matplotlib.axis_14">
    <g id="ytick_19">
     <g id="line2d_80">
      <g>
       <use xlink:href="#m6a6b33521a" x="70.188125" y="311.957491" style="stroke: #000000; stroke-width: 0.8"/>
      </g>
     </g>
     <g id="text_45">
      <!-- −0.05 -->
      <g transform="translate(26.41375 316.516553)scale(0.12 -0.12)">
       <use xlink:href="#DejaVuSans-2212"/>
       <use xlink:href="#DejaVuSans-30" x="83.789062"/>
       <use xlink:href="#DejaVuSans-2e" x="147.412109"/>
       <use xlink:href="#DejaVuSans-30" x="179.199219"/>
       <use xlink:href="#DejaVuSans-35" x="242.822266"/>
      </g>
     </g>
    </g>
    <g id="ytick_20">
     <g id="line2d_81">
      <g>
       <use xlink:href="#m6a6b33521a" x="70.188125" y="281.807396" style="stroke: #000000; stroke-width: 0.8"/>
      </g>
     </g>
     <g id="text_46">
      <!-- 0.00 -->
      <g transform="translate(36.469375 286.366458)scale(0.12 -0.12)">
       <use xlink:href="#DejaVuSans-30"/>
       <use xlink:href="#DejaVuSans-2e" x="63.623047"/>
       <use xlink:href="#DejaVuSans-30" x="95.410156"/>
       <use xlink:href="#DejaVuSans-30" x="159.033203"/>
      </g>
     </g>
    </g>
    <g id="ytick_21">
     <g id="line2d_82">
      <g>
       <use xlink:href="#m6a6b33521a" x="70.188125" y="251.657301" style="stroke: #000000; stroke-width: 0.8"/>
      </g>
     </g>
     <g id="text_47">
      <!-- 0.05 -->
      <g transform="translate(36.469375 256.216364)scale(0.12 -0.12)">
       <use xlink:href="#DejaVuSans-30"/>
       <use xlink:href="#DejaVuSans-2e" x="63.623047"/>
       <use xlink:href="#DejaVuSans-30" x="95.410156"/>
       <use xlink:href="#DejaVuSans-35" x="159.033203"/>
      </g>
     </g>
    </g>
    <g id="text_48">
     <!-- l -->
     <g transform="translate(19.918125 283.474271)rotate(-90)scale(0.12 -0.12)">
      <use xlink:href="#DejaVuSans-6c"/>
     </g>
    </g>
   </g>
   <g id="line2d_83">
    <path d="M 79.755197 281.807396 
L 271.096637 281.807396 
L 271.096637 281.807396 
" clip-path="url(#p7569e3e377)" style="fill: none; stroke: #1f77b4; stroke-width: 1.5; stroke-linecap: square"/>
   </g>
   <g id="line2d_84">
    <path d="M 79.755197 281.807396 
L 271.096637 281.807396 
L 271.096637 281.807396 
" clip-path="url(#p7569e3e377)" style="fill: none; stroke: #ff7f0e; stroke-width: 1.5; stroke-linecap: square"/>
   </g>
   <g id="patch_33">
    <path d="M 70.188125 314.9725 
L 70.188125 248.642292 
" style="fill: none; stroke: #000000; stroke-width: 0.8; stroke-linejoin: miter; stroke-linecap: square"/>
   </g>
   <g id="patch_34">
    <path d="M 280.663709 314.9725 
L 280.663709 248.642292 
" style="fill: none; stroke: #000000; stroke-width: 0.8; stroke-linejoin: miter; stroke-linecap: square"/>
   </g>
   <g id="patch_35">
    <path d="M 70.188125 314.9725 
L 280.663709 314.9725 
" style="fill: none; stroke: #000000; stroke-width: 0.8; stroke-linejoin: miter; stroke-linecap: square"/>
   </g>
   <g id="patch_36">
    <path d="M 70.188125 248.642292 
L 280.663709 248.642292 
" style="fill: none; stroke: #000000; stroke-width: 0.8; stroke-linejoin: miter; stroke-linecap: square"/>
   </g>
   <g id="text_49">
    <!-- Learning signals -->
    <g transform="translate(126.59623 242.642292)scale(0.12 -0.12)">
     <use xlink:href="#DejaVuSans-4c"/>
     <use xlink:href="#DejaVuSans-65" x="53.962891"/>
     <use xlink:href="#DejaVuSans-61" x="115.486328"/>
     <use xlink:href="#DejaVuSans-72" x="176.765625"/>
     <use xlink:href="#DejaVuSans-6e" x="216.128906"/>
     <use xlink:href="#DejaVuSans-69" x="279.507812"/>
     <use xlink:href="#DejaVuSans-6e" x="307.291016"/>
     <use xlink:href="#DejaVuSans-67" x="370.669922"/>
     <use xlink:href="#DejaVuSans-20" x="434.146484"/>
     <use xlink:href="#DejaVuSans-73" x="465.933594"/>
     <use xlink:href="#DejaVuSans-69" x="518.033203"/>
     <use xlink:href="#DejaVuSans-67" x="545.816406"/>
     <use xlink:href="#DejaVuSans-6e" x="609.292969"/>
     <use xlink:href="#DejaVuSans-61" x="672.671875"/>
     <use xlink:href="#DejaVuSans-6c" x="733.951172"/>
     <use xlink:href="#DejaVuSans-73" x="761.734375"/>
    </g>
   </g>
  </g>
  <g id="axes_8">
   <g id="patch_37">
    <path d="M 355.861875 314.9725 
L 566.337459 314.9725 
L 566.337459 248.642292 
L 355.861875 248.642292 
z
" style="fill: #ffffff"/>
   </g>
   <g id="matplotlib.axis_15">
    <g id="xtick_50">
     <g id="line2d_85">
      <g>
       <use xlink:href="#mf1ce217b33" x="365.428947" y="314.9725" style="stroke: #000000; stroke-width: 0.8"/>
      </g>
     </g>
     <g id="text_50">
      <!-- 0.00 -->
      <g transform="translate(352.069572 331.090625)scale(0.12 -0.12)">
       <use xlink:href="#DejaVuSans-30"/>
       <use xlink:href="#DejaVuSans-2e" x="63.623047"/>
       <use xlink:href="#DejaVuSans-30" x="95.410156"/>
       <use xlink:href="#DejaVuSans-30" x="159.033203"/>
      </g>
     </g>
    </g>
    <g id="xtick_51">
     <g id="line2d_86">
      <g>
       <use xlink:href="#mf1ce217b33" x="397.425843" y="314.9725" style="stroke: #000000; stroke-width: 0.8"/>
      </g>
     </g>
     <g id="text_51">
      <!-- 0.05 -->
      <g transform="translate(384.066468 331.090625)scale(0.12 -0.12)">
       <use xlink:href="#DejaVuSans-30"/>
       <use xlink:href="#DejaVuSans-2e" x="63.623047"/>
       <use xlink:href="#DejaVuSans-30" x="95.410156"/>
       <use xlink:href="#DejaVuSans-35" x="159.033203"/>
      </g>
     </g>
    </g>
    <g id="xtick_52">
     <g id="line2d_87">
      <g>
       <use xlink:href="#mf1ce217b33" x="429.42274" y="314.9725" style="stroke: #000000; stroke-width: 0.8"/>
      </g>
     </g>
     <g id="text_52">
      <!-- 0.10 -->
      <g transform="translate(416.063365 331.090625)scale(0.12 -0.12)">
       <use xlink:href="#DejaVuSans-30"/>
       <use xlink:href="#DejaVuSans-2e" x="63.623047"/>
       <use xlink:href="#DejaVuSans-31" x="95.410156"/>
       <use xlink:href="#DejaVuSans-30" x="159.033203"/>
      </g>
     </g>
    </g>
    <g id="xtick_53">
     <g id="line2d_88">
      <g>
       <use xlink:href="#mf1ce217b33" x="461.419636" y="314.9725" style="stroke: #000000; stroke-width: 0.8"/>
      </g>
     </g>
     <g id="text_53">
      <!-- 0.15 -->
      <g transform="translate(448.060261 331.090625)scale(0.12 -0.12)">
       <use xlink:href="#DejaVuSans-30"/>
       <use xlink:href="#DejaVuSans-2e" x="63.623047"/>
       <use xlink:href="#DejaVuSans-31" x="95.410156"/>
       <use xlink:href="#DejaVuSans-35" x="159.033203"/>
      </g>
     </g>
    </g>
    <g id="xtick_54">
     <g id="line2d_89">
      <g>
       <use xlink:href="#mf1ce217b33" x="493.416532" y="314.9725" style="stroke: #000000; stroke-width: 0.8"/>
      </g>
     </g>
     <g id="text_54">
      <!-- 0.20 -->
      <g transform="translate(480.057157 331.090625)scale(0.12 -0.12)">
       <use xlink:href="#DejaVuSans-30"/>
       <use xlink:href="#DejaVuSans-2e" x="63.623047"/>
       <use xlink:href="#DejaVuSans-32" x="95.410156"/>
       <use xlink:href="#DejaVuSans-30" x="159.033203"/>
      </g>
     </g>
    </g>
    <g id="xtick_55">
     <g id="line2d_90">
      <g>
       <use xlink:href="#mf1ce217b33" x="525.413429" y="314.9725" style="stroke: #000000; stroke-width: 0.8"/>
      </g>
     </g>
     <g id="text_55">
      <!-- 0.25 -->
      <g transform="translate(512.054054 331.090625)scale(0.12 -0.12)">
       <use xlink:href="#DejaVuSans-30"/>
       <use xlink:href="#DejaVuSans-2e" x="63.623047"/>
       <use xlink:href="#DejaVuSans-32" x="95.410156"/>
       <use xlink:href="#DejaVuSans-35" x="159.033203"/>
      </g>
     </g>
    </g>
    <g id="xtick_56">
     <g id="line2d_91">
      <g>
       <use xlink:href="#mf1ce217b33" x="557.410325" y="314.9725" style="stroke: #000000; stroke-width: 0.8"/>
      </g>
     </g>
     <g id="text_56">
      <!-- 0.30 -->
      <g transform="translate(544.05095 331.090625)scale(0.12 -0.12)">
       <use xlink:href="#DejaVuSans-30"/>
       <use xlink:href="#DejaVuSans-2e" x="63.623047"/>
       <use xlink:href="#DejaVuSans-33" x="95.410156"/>
       <use xlink:href="#DejaVuSans-30" x="159.033203"/>
      </g>
     </g>
    </g>
    <g id="text_57">
     <!-- Time (s) -->
     <g transform="translate(436.70498 346.704375)scale(0.12 -0.12)">
      <use xlink:href="#DejaVuSans-54"/>
      <use xlink:href="#DejaVuSans-69" x="57.958984"/>
      <use xlink:href="#DejaVuSans-6d" x="85.742188"/>
      <use xlink:href="#DejaVuSans-65" x="183.154297"/>
      <use xlink:href="#DejaVuSans-20" x="244.677734"/>
      <use xlink:href="#DejaVuSans-28" x="276.464844"/>
      <use xlink:href="#DejaVuSans-73" x="315.478516"/>
      <use xlink:href="#DejaVuSans-29" x="367.578125"/>
     </g>
    </g>
   </g>
   <g id="matplotlib.axis_16">
    <g id="ytick_22">
     <g id="line2d_92">
      <g>
       <use xlink:href="#m6a6b33521a" x="355.861875" y="311.957491" style="stroke: #000000; stroke-width: 0.8"/>
      </g>
     </g>
     <g id="text_58">
      <!-- −5000 -->
      <g transform="translate(308.26625 316.516553)scale(0.12 -0.12)">
       <use xlink:href="#DejaVuSans-2212"/>
       <use xlink:href="#DejaVuSans-35" x="83.789062"/>
       <use xlink:href="#DejaVuSans-30" x="147.412109"/>
       <use xlink:href="#DejaVuSans-30" x="211.035156"/>
       <use xlink:href="#DejaVuSans-30" x="274.658203"/>
      </g>
     </g>
    </g>
    <g id="ytick_23">
     <g id="line2d_93">
      <g>
       <use xlink:href="#m6a6b33521a" x="355.861875" y="281.807396" style="stroke: #000000; stroke-width: 0.8"/>
      </g>
     </g>
     <g id="text_59">
      <!-- 0 -->
      <g transform="translate(341.226875 286.366458)scale(0.12 -0.12)">
       <use xlink:href="#DejaVuSans-30"/>
      </g>
     </g>
    </g>
    <g id="ytick_24">
     <g id="line2d_94">
      <g>
       <use xlink:href="#m6a6b33521a" x="355.861875" y="251.657301" style="stroke: #000000; stroke-width: 0.8"/>
      </g>
     </g>
     <g id="text_60">
      <!-- 5000 -->
      <g transform="translate(318.321875 256.216364)scale(0.12 -0.12)">
       <use xlink:href="#DejaVuSans-35"/>
       <use xlink:href="#DejaVuSans-30" x="63.623047"/>
       <use xlink:href="#DejaVuSans-30" x="127.246094"/>
       <use xlink:href="#DejaVuSans-30" x="190.869141"/>
      </g>
     </g>
    </g>
    <g id="text_61">
     <!-- l -->
     <g transform="translate(301.770625 283.474271)rotate(-90)scale(0.12 -0.12)">
      <use xlink:href="#DejaVuSans-6c"/>
     </g>
    </g>
   </g>
   <g id="line2d_95">
    <path d="M 365.428947 281.807396 
L 440.941622 281.807396 
L 441.58156 311.957491 
L 442.221498 281.807396 
L 517.734174 281.807396 
L 518.374112 251.657301 
L 519.01405 281.807396 
L 556.770387 281.807396 
L 556.770387 281.807396 
" clip-path="url(#p82e4e0695b)" style="fill: none; stroke: #1f77b4; stroke-width: 1.5; stroke-linecap: square"/>
   </g>
   <g id="line2d_96">
    <path d="M 365.428947 281.807396 
L 402.545347 281.807396 
L 403.185285 251.657301 
L 403.825223 281.807396 
L 479.337898 281.807396 
L 479.977836 311.957491 
L 480.617774 281.807396 
L 556.770387 281.807396 
L 556.770387 281.807396 
" clip-path="url(#p82e4e0695b)" style="fill: none; stroke: #ff7f0e; stroke-width: 1.5; stroke-linecap: square"/>
   </g>
   <g id="patch_38">
    <path d="M 355.861875 314.9725 
L 355.861875 248.642292 
" style="fill: none; stroke: #000000; stroke-width: 0.8; stroke-linejoin: miter; stroke-linecap: square"/>
   </g>
   <g id="patch_39">
    <path d="M 566.337459 314.9725 
L 566.337459 248.642292 
" style="fill: none; stroke: #000000; stroke-width: 0.8; stroke-linejoin: miter; stroke-linecap: square"/>
   </g>
   <g id="patch_40">
    <path d="M 355.861875 314.9725 
L 566.337459 314.9725 
" style="fill: none; stroke: #000000; stroke-width: 0.8; stroke-linejoin: miter; stroke-linecap: square"/>
   </g>
   <g id="patch_41">
    <path d="M 355.861875 248.642292 
L 566.337459 248.642292 
" style="fill: none; stroke: #000000; stroke-width: 0.8; stroke-linejoin: miter; stroke-linecap: square"/>
   </g>
   <g id="text_62">
    <!-- Learning signals -->
    <g transform="translate(412.26998 242.642292)scale(0.12 -0.12)">
     <use xlink:href="#DejaVuSans-4c"/>
     <use xlink:href="#DejaVuSans-65" x="53.962891"/>
     <use xlink:href="#DejaVuSans-61" x="115.486328"/>
     <use xlink:href="#DejaVuSans-72" x="176.765625"/>
     <use xlink:href="#DejaVuSans-6e" x="216.128906"/>
     <use xlink:href="#DejaVuSans-69" x="279.507812"/>
     <use xlink:href="#DejaVuSans-6e" x="307.291016"/>
     <use xlink:href="#DejaVuSans-67" x="370.669922"/>
     <use xlink:href="#DejaVuSans-20" x="434.146484"/>
     <use xlink:href="#DejaVuSans-73" x="465.933594"/>
     <use xlink:href="#DejaVuSans-69" x="518.033203"/>
     <use xlink:href="#DejaVuSans-67" x="545.816406"/>
     <use xlink:href="#DejaVuSans-6e" x="609.292969"/>
     <use xlink:href="#DejaVuSans-61" x="672.671875"/>
     <use xlink:href="#DejaVuSans-6c" x="733.951172"/>
     <use xlink:href="#DejaVuSans-73" x="761.734375"/>
    </g>
   </g>
  </g>
  <g id="axes_9">
   <g id="patch_42">
    <path d="M 641.535625 314.9725 
L 852.011209 314.9725 
L 852.011209 248.642292 
L 641.535625 248.642292 
z
" style="fill: #ffffff"/>
   </g>
   <g id="matplotlib.axis_17">
    <g id="xtick_57">
     <g id="line2d_97">
      <g>
       <use xlink:href="#mf1ce217b33" x="651.102697" y="314.9725" style="stroke: #000000; stroke-width: 0.8"/>
      </g>
     </g>
     <g id="text_63">
      <!-- 0.00 -->
      <g transform="translate(637.743322 331.090625)scale(0.12 -0.12)">
       <use xlink:href="#DejaVuSans-30"/>
       <use xlink:href="#DejaVuSans-2e" x="63.623047"/>
       <use xlink:href="#DejaVuSans-30" x="95.410156"/>
       <use xlink:href="#DejaVuSans-30" x="159.033203"/>
      </g>
     </g>
    </g>
    <g id="xtick_58">
     <g id="line2d_98">
      <g>
       <use xlink:href="#mf1ce217b33" x="683.099593" y="314.9725" style="stroke: #000000; stroke-width: 0.8"/>
      </g>
     </g>
     <g id="text_64">
      <!-- 0.05 -->
      <g transform="translate(669.740218 331.090625)scale(0.12 -0.12)">
       <use xlink:href="#DejaVuSans-30"/>
       <use xlink:href="#DejaVuSans-2e" x="63.623047"/>
       <use xlink:href="#DejaVuSans-30" x="95.410156"/>
       <use xlink:href="#DejaVuSans-35" x="159.033203"/>
      </g>
     </g>
    </g>
    <g id="xtick_59">
     <g id="line2d_99">
      <g>
       <use xlink:href="#mf1ce217b33" x="715.09649" y="314.9725" style="stroke: #000000; stroke-width: 0.8"/>
      </g>
     </g>
     <g id="text_65">
      <!-- 0.10 -->
      <g transform="translate(701.737115 331.090625)scale(0.12 -0.12)">
       <use xlink:href="#DejaVuSans-30"/>
       <use xlink:href="#DejaVuSans-2e" x="63.623047"/>
       <use xlink:href="#DejaVuSans-31" x="95.410156"/>
       <use xlink:href="#DejaVuSans-30" x="159.033203"/>
      </g>
     </g>
    </g>
    <g id="xtick_60">
     <g id="line2d_100">
      <g>
       <use xlink:href="#mf1ce217b33" x="747.093386" y="314.9725" style="stroke: #000000; stroke-width: 0.8"/>
      </g>
     </g>
     <g id="text_66">
      <!-- 0.15 -->
      <g transform="translate(733.734011 331.090625)scale(0.12 -0.12)">
       <use xlink:href="#DejaVuSans-30"/>
       <use xlink:href="#DejaVuSans-2e" x="63.623047"/>
       <use xlink:href="#DejaVuSans-31" x="95.410156"/>
       <use xlink:href="#DejaVuSans-35" x="159.033203"/>
      </g>
     </g>
    </g>
    <g id="xtick_61">
     <g id="line2d_101">
      <g>
       <use xlink:href="#mf1ce217b33" x="779.090282" y="314.9725" style="stroke: #000000; stroke-width: 0.8"/>
      </g>
     </g>
     <g id="text_67">
      <!-- 0.20 -->
      <g transform="translate(765.730907 331.090625)scale(0.12 -0.12)">
       <use xlink:href="#DejaVuSans-30"/>
       <use xlink:href="#DejaVuSans-2e" x="63.623047"/>
       <use xlink:href="#DejaVuSans-32" x="95.410156"/>
       <use xlink:href="#DejaVuSans-30" x="159.033203"/>
      </g>
     </g>
    </g>
    <g id="xtick_62">
     <g id="line2d_102">
      <g>
       <use xlink:href="#mf1ce217b33" x="811.087179" y="314.9725" style="stroke: #000000; stroke-width: 0.8"/>
      </g>
     </g>
     <g id="text_68">
      <!-- 0.25 -->
      <g transform="translate(797.727804 331.090625)scale(0.12 -0.12)">
       <use xlink:href="#DejaVuSans-30"/>
       <use xlink:href="#DejaVuSans-2e" x="63.623047"/>
       <use xlink:href="#DejaVuSans-32" x="95.410156"/>
       <use xlink:href="#DejaVuSans-35" x="159.033203"/>
      </g>
     </g>
    </g>
    <g id="xtick_63">
     <g id="line2d_103">
      <g>
       <use xlink:href="#mf1ce217b33" x="843.084075" y="314.9725" style="stroke: #000000; stroke-width: 0.8"/>
      </g>
     </g>
     <g id="text_69">
      <!-- 0.30 -->
      <g transform="translate(829.7247 331.090625)scale(0.12 -0.12)">
       <use xlink:href="#DejaVuSans-30"/>
       <use xlink:href="#DejaVuSans-2e" x="63.623047"/>
       <use xlink:href="#DejaVuSans-33" x="95.410156"/>
       <use xlink:href="#DejaVuSans-30" x="159.033203"/>
      </g>
     </g>
    </g>
    <g id="text_70">
     <!-- Time (s) -->
     <g transform="translate(722.37873 346.704375)scale(0.12 -0.12)">
      <use xlink:href="#DejaVuSans-54"/>
      <use xlink:href="#DejaVuSans-69" x="57.958984"/>
      <use xlink:href="#DejaVuSans-6d" x="85.742188"/>
      <use xlink:href="#DejaVuSans-65" x="183.154297"/>
      <use xlink:href="#DejaVuSans-20" x="244.677734"/>
      <use xlink:href="#DejaVuSans-28" x="276.464844"/>
      <use xlink:href="#DejaVuSans-73" x="315.478516"/>
      <use xlink:href="#DejaVuSans-29" x="367.578125"/>
     </g>
    </g>
   </g>
   <g id="matplotlib.axis_18">
    <g id="ytick_25">
     <g id="line2d_104">
      <g>
       <use xlink:href="#m6a6b33521a" x="641.535625" y="311.957491" style="stroke: #000000; stroke-width: 0.8"/>
      </g>
     </g>
     <g id="text_71">
      <!-- −0.05 -->
      <g transform="translate(597.76125 316.516553)scale(0.12 -0.12)">
       <use xlink:href="#DejaVuSans-2212"/>
       <use xlink:href="#DejaVuSans-30" x="83.789062"/>
       <use xlink:href="#DejaVuSans-2e" x="147.412109"/>
       <use xlink:href="#DejaVuSans-30" x="179.199219"/>
       <use xlink:href="#DejaVuSans-35" x="242.822266"/>
      </g>
     </g>
    </g>
    <g id="ytick_26">
     <g id="line2d_105">
      <g>
       <use xlink:href="#m6a6b33521a" x="641.535625" y="281.807396" style="stroke: #000000; stroke-width: 0.8"/>
      </g>
     </g>
     <g id="text_72">
      <!-- 0.00 -->
      <g transform="translate(607.816875 286.366458)scale(0.12 -0.12)">
       <use xlink:href="#DejaVuSans-30"/>
       <use xlink:href="#DejaVuSans-2e" x="63.623047"/>
       <use xlink:href="#DejaVuSans-30" x="95.410156"/>
       <use xlink:href="#DejaVuSans-30" x="159.033203"/>
      </g>
     </g>
    </g>
    <g id="ytick_27">
     <g id="line2d_106">
      <g>
       <use xlink:href="#m6a6b33521a" x="641.535625" y="251.657301" style="stroke: #000000; stroke-width: 0.8"/>
      </g>
     </g>
     <g id="text_73">
      <!-- 0.05 -->
      <g transform="translate(607.816875 256.216364)scale(0.12 -0.12)">
       <use xlink:href="#DejaVuSans-30"/>
       <use xlink:href="#DejaVuSans-2e" x="63.623047"/>
       <use xlink:href="#DejaVuSans-30" x="95.410156"/>
       <use xlink:href="#DejaVuSans-35" x="159.033203"/>
      </g>
     </g>
    </g>
    <g id="text_74">
     <!-- l -->
     <g transform="translate(591.265625 283.474271)rotate(-90)scale(0.12 -0.12)">
      <use xlink:href="#DejaVuSans-6c"/>
     </g>
    </g>
   </g>
   <g id="line2d_107">
    <path d="M 651.102697 281.807396 
L 842.444137 281.807396 
L 842.444137 281.807396 
" clip-path="url(#p48016a046c)" style="fill: none; stroke: #1f77b4; stroke-width: 1.5; stroke-linecap: square"/>
   </g>
   <g id="line2d_108">
    <path d="M 651.102697 281.807396 
L 842.444137 281.807396 
L 842.444137 281.807396 
" clip-path="url(#p48016a046c)" style="fill: none; stroke: #ff7f0e; stroke-width: 1.5; stroke-linecap: square"/>
   </g>
   <g id="patch_43">
    <path d="M 641.535625 314.9725 
L 641.535625 248.642292 
" style="fill: none; stroke: #000000; stroke-width: 0.8; stroke-linejoin: miter; stroke-linecap: square"/>
   </g>
   <g id="patch_44">
    <path d="M 852.011209 314.9725 
L 852.011209 248.642292 
" style="fill: none; stroke: #000000; stroke-width: 0.8; stroke-linejoin: miter; stroke-linecap: square"/>
   </g>
   <g id="patch_45">
    <path d="M 641.535625 314.9725 
L 852.011209 314.9725 
" style="fill: none; stroke: #000000; stroke-width: 0.8; stroke-linejoin: miter; stroke-linecap: square"/>
   </g>
   <g id="patch_46">
    <path d="M 641.535625 248.642292 
L 852.011209 248.642292 
" style="fill: none; stroke: #000000; stroke-width: 0.8; stroke-linejoin: miter; stroke-linecap: square"/>
   </g>
   <g id="text_75">
    <!-- Learning signals -->
    <g transform="translate(697.94373 242.642292)scale(0.12 -0.12)">
     <use xlink:href="#DejaVuSans-4c"/>
     <use xlink:href="#DejaVuSans-65" x="53.962891"/>
     <use xlink:href="#DejaVuSans-61" x="115.486328"/>
     <use xlink:href="#DejaVuSans-72" x="176.765625"/>
     <use xlink:href="#DejaVuSans-6e" x="216.128906"/>
     <use xlink:href="#DejaVuSans-69" x="279.507812"/>
     <use xlink:href="#DejaVuSans-6e" x="307.291016"/>
     <use xlink:href="#DejaVuSans-67" x="370.669922"/>
     <use xlink:href="#DejaVuSans-20" x="434.146484"/>
     <use xlink:href="#DejaVuSans-73" x="465.933594"/>
     <use xlink:href="#DejaVuSans-69" x="518.033203"/>
     <use xlink:href="#DejaVuSans-67" x="545.816406"/>
     <use xlink:href="#DejaVuSans-6e" x="609.292969"/>
     <use xlink:href="#DejaVuSans-61" x="672.671875"/>
     <use xlink:href="#DejaVuSans-6c" x="733.951172"/>
     <use xlink:href="#DejaVuSans-73" x="761.734375"/>
    </g>
   </g>
  </g>
 </g>
 <defs>
  <clipPath id="p3cdcbf6c8a">
   <rect x="70.188125" y="25.918125" width="210.475584" height="66.330208"/>
  </clipPath>
  <clipPath id="p110996c6d7">
   <rect x="355.861875" y="25.918125" width="210.475584" height="66.330208"/>
  </clipPath>
  <clipPath id="p1780fec08a">
   <rect x="641.535625" y="25.918125" width="210.475584" height="66.330208"/>
  </clipPath>
  <clipPath id="pbc96ef3988">
   <rect x="70.188125" y="137.280208" width="210.475584" height="66.330208"/>
  </clipPath>
  <clipPath id="p91a7e9101c">
   <rect x="355.861875" y="137.280208" width="210.475584" height="66.330208"/>
  </clipPath>
  <clipPath id="p5a8e7372fd">
   <rect x="641.535625" y="137.280208" width="210.475584" height="66.330208"/>
  </clipPath>
  <clipPath id="p7569e3e377">
   <rect x="70.188125" y="248.642292" width="210.475584" height="66.330208"/>
  </clipPath>
  <clipPath id="p82e4e0695b">
   <rect x="355.861875" y="248.642292" width="210.475584" height="66.330208"/>
  </clipPath>
  <clipPath id="p48016a046c">
   <rect x="641.535625" y="248.642292" width="210.475584" height="66.330208"/>
  </clipPath>
 </defs>
</svg>
