<?xml version="1.0" encoding="utf-8" standalone="no"?>
<!DOCTYPE svg PUBLIC "-//W3C//DTD SVG 1.1//EN"
  "http://www.w3.org/Graphics/SVG/1.1/DTD/svg11.dtd">
<!-- Created with matplotlib (https://matplotlib.org/) -->
<svg height="288pt" version="1.1" viewBox="0 0 230.4 288" width="230.4pt" xmlns="http://www.w3.org/2000/svg" xmlns:xlink="http://www.w3.org/1999/xlink">
 <metadata>
  <rdf:RDF xmlns:cc="http://creativecommons.org/ns#" xmlns:dc="http://purl.org/dc/elements/1.1/" xmlns:rdf="http://www.w3.org/1999/02/22-rdf-syntax-ns#">
   <cc:Work>
    <dc:type rdf:resource="http://purl.org/dc/dcmitype/StillImage"/>
    <dc:date>2025-11-04T17:30:39.605846</dc:date>
    <dc:format>image/svg+xml</dc:format>
    <dc:creator>
     <cc:Agent>
      <dc:title>Matplotlib v3.3.4, https://matplotlib.org/</dc:title>
     </cc:Agent>
    </dc:creator>
   </cc:Work>
  </rdf:RDF>
 </metadata>
 <defs>
  <style type="text/css">*{stroke-linecap:butt;stroke-linejoin:round;}</style>
 </defs>
 <g id="figure_1">
  <g id="patch_1">
   <path d="M 0 288 
L 230.4 288 
L 230.4 0 
L 0 0 
z
" style="fill:none;"/>
  </g>
  <g id="axes_1">
   <g id="patch_2">
    <path d="M 41.04875 104.3725 
L 219.6 104.3725 
L 219.6 10.8 
L 41.04875 10.8 
z
" style="fill:#ffffff;"/>
   </g>
   <g id="line2d_1">
    <path clip-path="url(#p84c0d24511)" d="M 49.164716 80.727039 
L 49.815294 83.104432 
L 50.140584 85.342176 
L 50.465873 83.537314 
L 50.791162 88.337319 
L 51.116451 84.698403 
L 51.44174 86.285948 
L 51.76703 85.620572 
L 52.092319 86.14065 
L 52.417608 83.091331 
L 52.742897 87.387885 
L 53.393476 88.861277 
L 53.718765 86.496728 
L 54.044054 88.790622 
L 54.369343 89.150232 
L 54.694633 90.981061 
L 55.019922 90.893022 
L 55.345211 89.677524 
L 55.6705 91.972935 
L 56.321079 87.705216 
L 56.646368 86.657232 
L 56.971657 84.77844 
L 57.296946 86.204398 
L 57.622235 86.460693 
L 57.947525 88.4123 
L 58.272814 88.970997 
L 58.598103 87.864907 
L 58.923392 89.30741 
L 59.248682 90.134864 
L 60.224549 94.730663 
L 60.549838 94.757076 
L 60.875128 97.087298 
L 61.200417 96.598409 
L 61.525706 93.136786 
L 61.850995 91.589206 
L 62.176285 91.989291 
L 62.826863 95.398744 
L 63.152152 91.869022 
L 63.477441 91.763059 
L 63.802731 93.091554 
L 64.12802 92.693388 
L 64.453309 88.313172 
L 64.778598 88.062573 
L 65.103887 86.775357 
L 65.429177 86.149333 
L 65.754466 86.883972 
L 66.079755 89.266766 
L 66.405044 89.995343 
L 66.730334 90.431005 
L 67.055623 89.207565 
L 67.706201 85.515939 
L 68.03149 84.920329 
L 68.35678 83.07431 
L 68.682069 84.647655 
L 69.007358 82.034719 
L 69.332647 80.964971 
L 69.657936 81.586663 
L 69.983226 80.567827 
L 70.308515 80.725437 
L 70.959093 75.195677 
L 71.284383 70.63752 
L 71.934961 76.561794 
L 72.26025 77.613889 
L 72.585539 77.280122 
L 72.910829 75.452816 
L 73.236118 74.794539 
L 73.561407 79.011968 
L 73.886696 79.650576 
L 74.211985 77.923782 
L 74.537275 77.443905 
L 74.862564 75.854682 
L 75.513142 76.737056 
L 75.838432 76.34797 
L 76.163721 75.492781 
L 76.814299 74.831014 
L 77.139588 76.229723 
L 77.464878 75.44229 
L 77.790167 75.188224 
L 78.440745 70.332194 
L 78.766034 69.946038 
L 79.091324 70.728719 
L 79.416613 72.060832 
L 79.741902 71.177608 
L 80.067191 71.01631 
L 80.392481 71.733439 
L 80.71777 71.642515 
L 81.043059 72.935566 
L 81.368348 71.479776 
L 81.693637 72.412291 
L 82.018927 69.858502 
L 82.344216 69.016994 
L 82.669505 67.779049 
L 82.994794 70.062557 
L 83.320083 69.709299 
L 83.645373 68.164822 
L 83.970662 70.153825 
L 84.295951 70.70904 
L 84.62124 70.641021 
L 84.94653 73.504744 
L 85.271819 72.847459 
L 85.597108 71.082737 
L 85.922397 72.875313 
L 86.247686 72.144227 
L 86.572976 74.881077 
L 86.898265 74.961779 
L 87.223554 78.331575 
L 87.548843 75.992787 
L 87.874132 75.139999 
L 88.199422 75.191339 
L 88.524711 76.807988 
L 88.85 74.151489 
L 89.175289 70.048973 
L 89.500579 73.923913 
L 90.151157 67.951245 
L 90.476446 67.2463 
L 90.801735 69.74745 
L 91.127025 67.946888 
L 91.452314 68.324209 
L 91.777603 69.583724 
L 92.102892 72.149088 
L 92.428181 71.000907 
L 92.753471 69.347458 
L 93.07876 70.647871 
L 93.404049 69.562176 
L 93.729338 71.948773 
L 94.054628 70.276441 
L 94.379917 70.179322 
L 94.705206 70.568425 
L 95.030495 70.780622 
L 95.681074 67.403474 
L 96.006363 66.29924 
L 96.656941 65.849755 
L 96.98223 64.560083 
L 97.30752 64.075201 
L 97.632809 62.651697 
L 97.958098 63.298465 
L 98.283387 68.376474 
L 98.608677 66.209939 
L 98.933966 61.648854 
L 99.259255 60.72836 
L 100.560412 61.433791 
L 100.885701 63.773833 
L 101.21099 64.852266 
L 101.536279 66.931629 
L 101.861569 66.412742 
L 102.186858 67.031406 
L 102.512147 65.998612 
L 102.837436 66.362966 
L 103.162726 64.305902 
L 103.488015 63.860563 
L 103.813304 59.291719 
L 104.138593 63.246701 
L 104.463882 64.595887 
L 104.789172 62.715778 
L 105.114461 57.442794 
L 105.43975 57.961338 
L 105.765039 57.870263 
L 106.090328 58.342256 
L 106.415618 55.565418 
L 106.740907 56.164616 
L 107.066196 54.746288 
L 107.391485 55.413254 
L 107.716775 58.067256 
L 108.042064 57.413333 
L 108.367353 56.363909 
L 108.692642 53.666804 
L 109.017931 53.897148 
L 109.343221 55.184696 
L 109.66851 54.011022 
L 110.319088 52.923605 
L 110.644378 53.076086 
L 110.969667 50.656126 
L 111.294956 49.885525 
L 111.620245 45.913238 
L 111.945534 43.596059 
L 112.270824 42.221569 
L 112.596113 45.615695 
L 113.57198 41.791703 
L 113.89727 39.613453 
L 114.222559 40.44951 
L 114.547848 38.730993 
L 114.873137 39.903717 
L 115.198427 35.826695 
L 115.849005 42.276593 
L 116.174294 45.719277 
L 116.824873 49.910573 
L 117.150162 45.831046 
L 117.475451 46.511982 
L 117.80074 49.312218 
L 118.126029 46.988101 
L 118.451319 48.211334 
L 118.776608 50.790871 
L 119.427186 47.664191 
L 119.752476 48.571321 
L 120.077765 45.635807 
L 120.403054 45.366557 
L 120.728343 41.994306 
L 121.053632 40.945808 
L 121.378922 37.69482 
L 121.704211 37.466654 
L 122.0295 40.010508 
L 122.354789 34.902194 
L 122.680078 36.040441 
L 123.005368 36.45513 
L 123.330657 37.915855 
L 123.655946 38.340047 
L 124.306525 37.413015 
L 124.631814 36.034415 
L 124.957103 32.296755 
L 125.282392 32.547992 
L 125.932971 37.585543 
L 126.25826 38.974017 
L 126.583549 42.465659 
L 126.908838 40.745006 
L 127.234127 41.784062 
L 127.559417 42.432641 
L 127.884706 42.436586 
L 128.209995 45.349327 
L 128.535284 47.145657 
L 129.185863 44.448501 
L 129.511152 45.372764 
L 129.836441 41.596778 
L 130.16173 44.319955 
L 130.812309 45.520878 
L 131.137598 51.346035 
L 131.462887 47.305195 
L 131.788176 46.541186 
L 132.113466 48.719744 
L 132.438755 44.441891 
L 133.089333 42.324652 
L 133.414623 43.590586 
L 133.739912 43.369051 
L 134.065201 46.550955 
L 134.39049 44.892877 
L 134.715779 45.673792 
L 135.041069 45.394226 
L 135.366358 42.887264 
L 136.342225 41.169355 
L 136.667515 42.698639 
L 136.992804 40.955098 
L 137.318093 37.736325 
L 137.968672 34.308253 
L 138.61925 37.947705 
L 138.944539 40.952744 
L 139.269828 38.382802 
L 139.595118 38.91291 
L 139.920407 35.993446 
L 140.245696 37.624173 
L 140.570985 38.536626 
L 140.896274 38.337611 
L 141.221564 36.415868 
L 141.546853 36.28917 
L 141.872142 35.848855 
L 142.197431 35.814386 
L 142.522721 35.44485 
L 142.84801 37.773319 
L 143.173299 37.604541 
L 143.498588 37.993663 
L 143.823877 38.112174 
L 144.149167 37.085375 
L 144.474456 38.504972 
L 144.799745 38.681219 
L 145.125034 39.301386 
L 145.450323 38.431076 
L 145.775613 36.794387 
L 146.100902 38.786987 
L 146.426191 37.565034 
L 146.75148 33.256711 
L 147.07677 36.324903 
L 147.727348 39.89278 
L 148.052637 40.474856 
L 148.377926 37.090301 
L 148.703216 37.062453 
L 149.028505 38.511281 
L 149.353794 37.21447 
L 149.679083 38.4654 
L 150.004372 36.122453 
L 150.329662 35.485799 
L 150.654951 32.589411 
L 150.98024 33.968687 
L 151.305529 27.647641 
L 151.956108 24.562749 
L 152.281397 24.669506 
L 152.931975 27.992572 
L 153.257265 28.276161 
L 153.582554 29.938918 
L 153.907843 29.34938 
L 154.233132 31.072258 
L 154.558422 29.776951 
L 154.883711 27.782898 
L 155.209 29.254974 
L 155.534289 26.767551 
L 155.859578 27.263794 
L 156.184868 24.854368 
L 156.510157 23.940544 
L 156.835446 21.599857 
L 157.160735 23.679205 
L 157.486024 23.90193 
L 157.811314 20.874882 
L 158.136603 22.163838 
L 159.43776 40.100509 
L 159.763049 40.959008 
L 160.088338 38.292557 
L 160.413627 39.214854 
L 160.738917 38.540117 
L 161.064206 38.769511 
L 161.389495 38.751682 
L 162.040073 39.465735 
L 162.365363 38.503948 
L 162.690652 40.956535 
L 163.34123 36.931095 
L 163.66652 37.337899 
L 163.991809 35.6582 
L 164.642387 38.241311 
L 164.967676 37.915413 
L 165.292966 38.312131 
L 165.618255 39.248003 
L 166.268833 41.813126 
L 166.594122 39.85443 
L 166.919412 43.907355 
L 167.244701 43.172205 
L 167.56999 43.66531 
L 168.220569 41.07319 
L 168.545858 46.876342 
L 168.871147 45.657025 
L 169.196436 44.98073 
L 169.521725 44.935134 
L 169.847015 45.912583 
L 170.172304 44.13301 
L 170.497593 44.994409 
L 170.822882 41.167989 
L 171.148171 39.990933 
L 171.473461 35.532356 
L 171.79875 37.170637 
L 172.124039 40.832732 
L 172.774618 37.563624 
L 173.099907 37.489879 
L 173.425196 40.69913 
L 173.750485 41.633244 
L 174.075774 40.344396 
L 175.051642 41.336332 
L 175.376931 43.284071 
L 175.70222 44.395719 
L 176.02751 47.370891 
L 176.352799 43.683698 
L 176.678088 44.675118 
L 177.003377 43.679032 
L 177.328667 45.81024 
L 177.653956 44.153201 
L 177.979245 48.059797 
L 178.304534 46.139796 
L 178.629823 46.213558 
L 178.955113 41.811756 
L 179.280402 44.536616 
L 179.605691 44.37732 
L 179.93098 43.611435 
L 180.256269 41.040145 
L 180.581559 41.92204 
L 180.906848 41.741713 
L 181.232137 46.209964 
L 181.557426 47.941334 
L 181.882716 46.99946 
L 182.208005 44.696634 
L 182.533294 45.284213 
L 183.183872 37.324441 
L 183.509162 37.450936 
L 184.15974 46.191678 
L 184.485029 47.813952 
L 184.810318 45.486794 
L 185.135608 44.839701 
L 185.460897 49.207388 
L 185.786186 49.684494 
L 186.111475 46.319726 
L 186.436765 47.101405 
L 186.762054 48.665515 
L 187.087343 44.380465 
L 187.412632 44.269076 
L 187.737921 45.268389 
L 188.063211 44.538093 
L 188.3885 44.502295 
L 188.713789 45.397299 
L 189.364367 40.550119 
L 189.689657 38.796449 
L 190.014946 39.011026 
L 190.340235 36.619093 
L 190.665524 36.722751 
L 190.990814 35.749536 
L 191.641392 31.90682 
L 191.966681 28.174173 
L 192.29197 27.232992 
L 192.942549 33.164814 
L 193.267838 30.349081 
L 193.593127 31.039993 
L 193.918416 30.233841 
L 194.243706 32.009606 
L 194.568995 29.922204 
L 194.894284 30.724796 
L 195.219573 27.683819 
L 195.544863 28.793826 
L 195.870152 26.461888 
L 196.195441 25.055392 
L 196.52073 26.561986 
L 196.846019 24.26996 
L 197.496598 27.865683 
L 197.821887 26.360509 
L 198.472465 28.903197 
L 198.797755 29.620423 
L 199.123044 31.70634 
L 199.448333 29.526938 
L 199.773622 28.257841 
L 200.424201 28.628489 
L 200.74949 27.689661 
L 201.074779 24.007943 
L 201.400068 22.19148 
L 201.725358 23.2519 
L 202.050647 21.630542 
L 202.375936 21.878247 
L 202.701225 22.293271 
L 203.026515 18.400626 
L 203.677093 20.273718 
L 204.327671 27.269604 
L 204.652961 26.328759 
L 204.97825 27.778061 
L 205.303539 26.703132 
L 205.954117 30.62854 
L 206.279407 29.22168 
L 206.604696 26.174896 
L 206.929985 24.939256 
L 207.255274 22.441104 
L 207.580564 18.886064 
L 207.905853 16.716892 
L 208.231142 18.632357 
L 208.556431 18.852061 
L 208.88172 17.537747 
L 209.20701 18.402937 
L 209.532299 17.460375 
L 209.857588 20.753806 
L 210.182877 22.481962 
L 210.508166 21.37895 
L 210.833456 26.044536 
L 211.158745 28.354741 
L 211.484034 28.391694 
L 211.484034 28.391694 
" style="fill:none;stroke:#00bfbf;stroke-linecap:square;stroke-width:1.5;"/>
   </g>
   <g id="matplotlib.axis_1">
    <g id="xtick_1">
     <g id="line2d_2">
      <defs>
       <path d="M 0 0 
L 0 3.5 
" id="m7efd574514" style="stroke:#000000;stroke-width:0.8;"/>
      </defs>
      <g>
       <use style="stroke:#000000;stroke-width:0.8;" x="49.164716" xlink:href="#m7efd574514" y="104.3725"/>
      </g>
     </g>
     <g id="text_1">
      <!-- 0.0 -->
      <g transform="translate(39.622841 120.490625)scale(0.12 -0.12)">
       <defs>
        <path d="M 31.78125 66.40625 
Q 24.171875 66.40625 20.328125 58.90625 
Q 16.5 51.421875 16.5 36.375 
Q 16.5 21.390625 20.328125 13.890625 
Q 24.171875 6.390625 31.78125 6.390625 
Q 39.453125 6.390625 43.28125 13.890625 
Q 47.125 21.390625 47.125 36.375 
Q 47.125 51.421875 43.28125 58.90625 
Q 39.453125 66.40625 31.78125 66.40625 
z
M 31.78125 74.21875 
Q 44.046875 74.21875 50.515625 64.515625 
Q 56.984375 54.828125 56.984375 36.375 
Q 56.984375 17.96875 50.515625 8.265625 
Q 44.046875 -1.421875 31.78125 -1.421875 
Q 19.53125 -1.421875 13.0625 8.265625 
Q 6.59375 17.96875 6.59375 36.375 
Q 6.59375 54.828125 13.0625 64.515625 
Q 19.53125 74.21875 31.78125 74.21875 
z
" id="DejaVuSans-48"/>
        <path d="M 10.6875 12.40625 
L 21 12.40625 
L 21 0 
L 10.6875 0 
z
" id="DejaVuSans-46"/>
       </defs>
       <use xlink:href="#DejaVuSans-48"/>
       <use x="63.623047" xlink:href="#DejaVuSans-46"/>
       <use x="95.410156" xlink:href="#DejaVuSans-48"/>
      </g>
     </g>
    </g>
    <g id="xtick_2">
     <g id="line2d_3">
      <g>
       <use style="stroke:#000000;stroke-width:0.8;" x="114.222559" xlink:href="#m7efd574514" y="104.3725"/>
      </g>
     </g>
     <g id="text_2">
      <!-- 0.2 -->
      <g transform="translate(104.680684 120.490625)scale(0.12 -0.12)">
       <defs>
        <path d="M 19.1875 8.296875 
L 53.609375 8.296875 
L 53.609375 0 
L 7.328125 0 
L 7.328125 8.296875 
Q 12.9375 14.109375 22.625 23.890625 
Q 32.328125 33.6875 34.8125 36.53125 
Q 39.546875 41.84375 41.421875 45.53125 
Q 43.3125 49.21875 43.3125 52.78125 
Q 43.3125 58.59375 39.234375 62.25 
Q 35.15625 65.921875 28.609375 65.921875 
Q 23.96875 65.921875 18.8125 64.3125 
Q 13.671875 62.703125 7.8125 59.421875 
L 7.8125 69.390625 
Q 13.765625 71.78125 18.9375 73 
Q 24.125 74.21875 28.421875 74.21875 
Q 39.75 74.21875 46.484375 68.546875 
Q 53.21875 62.890625 53.21875 53.421875 
Q 53.21875 48.921875 51.53125 44.890625 
Q 49.859375 40.875 45.40625 35.40625 
Q 44.1875 33.984375 37.640625 27.21875 
Q 31.109375 20.453125 19.1875 8.296875 
z
" id="DejaVuSans-50"/>
       </defs>
       <use xlink:href="#DejaVuSans-48"/>
       <use x="63.623047" xlink:href="#DejaVuSans-46"/>
       <use x="95.410156" xlink:href="#DejaVuSans-50"/>
      </g>
     </g>
    </g>
    <g id="xtick_3">
     <g id="line2d_4">
      <g>
       <use style="stroke:#000000;stroke-width:0.8;" x="179.280402" xlink:href="#m7efd574514" y="104.3725"/>
      </g>
     </g>
     <g id="text_3">
      <!-- 0.4 -->
      <g transform="translate(169.738527 120.490625)scale(0.12 -0.12)">
       <defs>
        <path d="M 37.796875 64.3125 
L 12.890625 25.390625 
L 37.796875 25.390625 
z
M 35.203125 72.90625 
L 47.609375 72.90625 
L 47.609375 25.390625 
L 58.015625 25.390625 
L 58.015625 17.1875 
L 47.609375 17.1875 
L 47.609375 0 
L 37.796875 0 
L 37.796875 17.1875 
L 4.890625 17.1875 
L 4.890625 26.703125 
z
" id="DejaVuSans-52"/>
       </defs>
       <use xlink:href="#DejaVuSans-48"/>
       <use x="63.623047" xlink:href="#DejaVuSans-46"/>
       <use x="95.410156" xlink:href="#DejaVuSans-52"/>
      </g>
     </g>
    </g>
    <g id="text_4">
     <!-- Time (s) -->
     <g transform="translate(105.929687 136.104375)scale(0.12 -0.12)">
      <defs>
       <path d="M -0.296875 72.90625 
L 61.375 72.90625 
L 61.375 64.59375 
L 35.5 64.59375 
L 35.5 0 
L 25.59375 0 
L 25.59375 64.59375 
L -0.296875 64.59375 
z
" id="DejaVuSans-84"/>
       <path d="M 9.421875 54.6875 
L 18.40625 54.6875 
L 18.40625 0 
L 9.421875 0 
z
M 9.421875 75.984375 
L 18.40625 75.984375 
L 18.40625 64.59375 
L 9.421875 64.59375 
z
" id="DejaVuSans-105"/>
       <path d="M 52 44.1875 
Q 55.375 50.25 60.0625 53.125 
Q 64.75 56 71.09375 56 
Q 79.640625 56 84.28125 50.015625 
Q 88.921875 44.046875 88.921875 33.015625 
L 88.921875 0 
L 79.890625 0 
L 79.890625 32.71875 
Q 79.890625 40.578125 77.09375 44.375 
Q 74.3125 48.1875 68.609375 48.1875 
Q 61.625 48.1875 57.5625 43.546875 
Q 53.515625 38.921875 53.515625 30.90625 
L 53.515625 0 
L 44.484375 0 
L 44.484375 32.71875 
Q 44.484375 40.625 41.703125 44.40625 
Q 38.921875 48.1875 33.109375 48.1875 
Q 26.21875 48.1875 22.15625 43.53125 
Q 18.109375 38.875 18.109375 30.90625 
L 18.109375 0 
L 9.078125 0 
L 9.078125 54.6875 
L 18.109375 54.6875 
L 18.109375 46.1875 
Q 21.1875 51.21875 25.484375 53.609375 
Q 29.78125 56 35.6875 56 
Q 41.65625 56 45.828125 52.96875 
Q 50 49.953125 52 44.1875 
z
" id="DejaVuSans-109"/>
       <path d="M 56.203125 29.59375 
L 56.203125 25.203125 
L 14.890625 25.203125 
Q 15.484375 15.921875 20.484375 11.0625 
Q 25.484375 6.203125 34.421875 6.203125 
Q 39.59375 6.203125 44.453125 7.46875 
Q 49.3125 8.734375 54.109375 11.28125 
L 54.109375 2.78125 
Q 49.265625 0.734375 44.1875 -0.34375 
Q 39.109375 -1.421875 33.890625 -1.421875 
Q 20.796875 -1.421875 13.15625 6.1875 
Q 5.515625 13.8125 5.515625 26.8125 
Q 5.515625 40.234375 12.765625 48.109375 
Q 20.015625 56 32.328125 56 
Q 43.359375 56 49.78125 48.890625 
Q 56.203125 41.796875 56.203125 29.59375 
z
M 47.21875 32.234375 
Q 47.125 39.59375 43.09375 43.984375 
Q 39.0625 48.390625 32.421875 48.390625 
Q 24.90625 48.390625 20.390625 44.140625 
Q 15.875 39.890625 15.1875 32.171875 
z
" id="DejaVuSans-101"/>
       <path id="DejaVuSans-32"/>
       <path d="M 31 75.875 
Q 24.46875 64.65625 21.28125 53.65625 
Q 18.109375 42.671875 18.109375 31.390625 
Q 18.109375 20.125 21.3125 9.0625 
Q 24.515625 -2 31 -13.1875 
L 23.1875 -13.1875 
Q 15.875 -1.703125 12.234375 9.375 
Q 8.59375 20.453125 8.59375 31.390625 
Q 8.59375 42.28125 12.203125 53.3125 
Q 15.828125 64.359375 23.1875 75.875 
z
" id="DejaVuSans-40"/>
       <path d="M 44.28125 53.078125 
L 44.28125 44.578125 
Q 40.484375 46.53125 36.375 47.5 
Q 32.28125 48.484375 27.875 48.484375 
Q 21.1875 48.484375 17.84375 46.4375 
Q 14.5 44.390625 14.5 40.28125 
Q 14.5 37.15625 16.890625 35.375 
Q 19.28125 33.59375 26.515625 31.984375 
L 29.59375 31.296875 
Q 39.15625 29.25 43.1875 25.515625 
Q 47.21875 21.78125 47.21875 15.09375 
Q 47.21875 7.46875 41.1875 3.015625 
Q 35.15625 -1.421875 24.609375 -1.421875 
Q 20.21875 -1.421875 15.453125 -0.5625 
Q 10.6875 0.296875 5.421875 2 
L 5.421875 11.28125 
Q 10.40625 8.6875 15.234375 7.390625 
Q 20.0625 6.109375 24.8125 6.109375 
Q 31.15625 6.109375 34.5625 8.28125 
Q 37.984375 10.453125 37.984375 14.40625 
Q 37.984375 18.0625 35.515625 20.015625 
Q 33.0625 21.96875 24.703125 23.78125 
L 21.578125 24.515625 
Q 13.234375 26.265625 9.515625 29.90625 
Q 5.8125 33.546875 5.8125 39.890625 
Q 5.8125 47.609375 11.28125 51.796875 
Q 16.75 56 26.8125 56 
Q 31.78125 56 36.171875 55.265625 
Q 40.578125 54.546875 44.28125 53.078125 
z
" id="DejaVuSans-115"/>
       <path d="M 8.015625 75.875 
L 15.828125 75.875 
Q 23.140625 64.359375 26.78125 53.3125 
Q 30.421875 42.28125 30.421875 31.390625 
Q 30.421875 20.453125 26.78125 9.375 
Q 23.140625 -1.703125 15.828125 -13.1875 
L 8.015625 -13.1875 
Q 14.5 -2 17.703125 9.0625 
Q 20.90625 20.125 20.90625 31.390625 
Q 20.90625 42.671875 17.703125 53.65625 
Q 14.5 64.65625 8.015625 75.875 
z
" id="DejaVuSans-41"/>
      </defs>
      <use xlink:href="#DejaVuSans-84"/>
      <use x="57.958984" xlink:href="#DejaVuSans-105"/>
      <use x="85.742188" xlink:href="#DejaVuSans-109"/>
      <use x="183.154297" xlink:href="#DejaVuSans-101"/>
      <use x="244.677734" xlink:href="#DejaVuSans-32"/>
      <use x="276.464844" xlink:href="#DejaVuSans-40"/>
      <use x="315.478516" xlink:href="#DejaVuSans-115"/>
      <use x="367.578125" xlink:href="#DejaVuSans-41"/>
     </g>
    </g>
   </g>
   <g id="matplotlib.axis_2">
    <g id="ytick_1">
     <g id="line2d_5">
      <defs>
       <path d="M 0 0 
L -3.5 0 
" id="m207c2426a6" style="stroke:#000000;stroke-width:0.8;"/>
      </defs>
      <g>
       <use style="stroke:#000000;stroke-width:0.8;" x="41.04875" xlink:href="#m207c2426a6" y="84.114715"/>
      </g>
     </g>
     <g id="text_5">
      <!-- 0 -->
      <g transform="translate(26.41375 88.673777)scale(0.12 -0.12)">
       <use xlink:href="#DejaVuSans-48"/>
      </g>
     </g>
    </g>
    <g id="ytick_2">
     <g id="line2d_6">
      <g>
       <use style="stroke:#000000;stroke-width:0.8;" x="41.04875" xlink:href="#m207c2426a6" y="42.403442"/>
      </g>
     </g>
     <g id="text_6">
      <!-- 1 -->
      <g transform="translate(26.41375 46.962505)scale(0.12 -0.12)">
       <defs>
        <path d="M 12.40625 8.296875 
L 28.515625 8.296875 
L 28.515625 63.921875 
L 10.984375 60.40625 
L 10.984375 69.390625 
L 28.421875 72.90625 
L 38.28125 72.90625 
L 38.28125 8.296875 
L 54.390625 8.296875 
L 54.390625 0 
L 12.40625 0 
z
" id="DejaVuSans-49"/>
       </defs>
       <use xlink:href="#DejaVuSans-49"/>
      </g>
     </g>
    </g>
    <g id="text_7">
     <!-- x -->
     <g transform="translate(19.918125 61.1375)rotate(-90)scale(0.12 -0.12)">
      <defs>
       <path d="M 54.890625 54.6875 
L 35.109375 28.078125 
L 55.90625 0 
L 45.3125 0 
L 29.390625 21.484375 
L 13.484375 0 
L 2.875 0 
L 24.125 28.609375 
L 4.6875 54.6875 
L 15.28125 54.6875 
L 29.78125 35.203125 
L 44.28125 54.6875 
z
" id="DejaVuSans-120"/>
      </defs>
      <use xlink:href="#DejaVuSans-120"/>
     </g>
    </g>
   </g>
   <g id="line2d_7">
    <path clip-path="url(#p84c0d24511)" d="M 49.164716 84.114715 
L 50.140584 88.377286 
L 50.465873 86.146166 
L 50.791162 90.743026 
L 51.116451 86.441279 
L 51.44174 87.796168 
L 51.76703 86.762646 
L 52.092319 87.017931 
L 52.417608 83.67829 
L 52.742897 88.018487 
L 53.393476 88.68292 
L 53.718765 85.861551 
L 54.044054 87.980761 
L 54.369343 87.953766 
L 54.694633 89.40069 
L 55.019922 88.784053 
L 55.345211 87.101621 
L 55.6705 89.098342 
L 56.321079 84.122473 
L 56.646368 83.073714 
L 56.971657 81.299021 
L 57.296946 83.006549 
L 57.622235 83.373661 
L 57.947525 85.399373 
L 58.272814 85.829605 
L 58.598103 84.552026 
L 58.923392 85.950797 
L 59.248682 86.594643 
L 60.224549 90.069812 
L 60.549838 89.500715 
L 60.875128 91.292337 
L 61.200417 90.085686 
L 61.525706 86.026966 
L 61.850995 84.28816 
L 62.176285 84.670901 
L 62.826863 87.789558 
L 63.152152 83.892352 
L 63.477441 83.808625 
L 63.802731 85.167729 
L 64.12802 84.664261 
L 64.453309 80.229091 
L 64.778598 80.367054 
L 65.103887 79.454604 
L 65.429177 79.294591 
L 65.754466 80.511243 
L 66.079755 83.254384 
L 66.405044 84.068994 
L 66.730334 84.509228 
L 67.380912 81.583421 
L 67.706201 79.894678 
L 68.03149 79.721071 
L 68.35678 78.314417 
L 68.682069 80.467792 
L 69.007358 78.219548 
L 69.332647 77.739317 
L 69.657936 78.998548 
L 69.983226 78.491329 
L 70.308515 79.211277 
L 70.959093 74.849179 
L 71.284383 71.217576 
L 71.934961 79.301058 
L 72.26025 80.834519 
L 72.585539 80.828771 
L 72.910829 79.330059 
L 73.236118 79.150248 
L 73.561407 83.864124 
L 73.886696 84.527791 
L 74.211985 82.75969 
L 74.537275 82.415315 
L 74.862564 80.996032 
L 75.513142 82.424587 
L 75.838432 82.204514 
L 76.163721 81.540346 
L 76.48901 81.384216 
L 76.814299 81.409066 
L 77.139588 83.078339 
L 77.464878 82.394544 
L 77.790167 82.312495 
L 78.440745 78.034448 
L 78.766034 78.256319 
L 79.416613 81.40594 
L 79.741902 80.793593 
L 80.067191 80.964407 
L 80.392481 81.996567 
L 80.71777 82.117458 
L 81.043059 83.610234 
L 81.368348 82.204892 
L 81.693637 83.32839 
L 82.018927 80.853233 
L 82.344216 80.337874 
L 82.669505 79.477612 
L 82.994794 82.224831 
L 83.320083 82.060561 
L 83.645373 80.721499 
L 83.970662 83.049824 
L 84.295951 83.711529 
L 84.62124 83.683828 
L 84.94653 86.59064 
L 85.271819 85.685762 
L 85.597108 83.763936 
L 85.922397 85.591589 
L 86.247686 84.712816 
L 86.572976 87.389856 
L 86.898265 87.143044 
L 87.223554 90.210007 
L 87.548843 87.26169 
L 87.874132 86.094204 
L 88.199422 85.947596 
L 88.524711 87.380956 
L 88.85 84.397833 
L 89.175289 80.267005 
L 89.500579 84.526716 
L 90.151157 78.733578 
L 90.476446 78.566746 
L 90.801735 81.622693 
L 91.127025 80.071334 
L 91.452314 80.852993 
L 91.777603 82.43868 
L 92.102892 85.171648 
L 92.753471 82.284018 
L 93.07876 83.767501 
L 93.404049 82.716527 
L 93.729338 85.242943 
L 94.054628 83.457788 
L 94.379917 83.426362 
L 94.705206 83.8843 
L 95.030495 84.119539 
L 95.681074 80.922686 
L 96.006363 80.137655 
L 96.656941 80.472529 
L 96.98223 79.547076 
L 97.30752 79.518958 
L 97.632809 78.555029 
L 97.958098 79.757766 
L 98.283387 85.27147 
L 98.608677 82.98926 
L 98.933966 78.54072 
L 99.259255 78.177626 
L 100.235123 80.460173 
L 100.560412 80.789319 
L 100.885701 83.4619 
L 101.21099 84.605615 
L 101.536279 86.635887 
L 101.861569 85.864884 
L 102.186858 86.308531 
L 102.512147 85.056355 
L 102.837436 85.326545 
L 103.162726 83.148297 
L 103.488015 82.799601 
L 103.813304 78.362268 
L 104.138593 82.892494 
L 104.463882 84.363902 
L 104.789172 82.458875 
L 105.114461 77.351475 
L 105.43975 78.546343 
L 105.765039 79.012105 
L 106.090328 79.994359 
L 106.415618 77.629556 
L 106.740907 78.877271 
L 107.066196 77.982686 
L 107.391485 79.262856 
L 107.716775 82.402044 
L 108.042064 81.919387 
L 108.367353 81.089496 
L 108.692642 78.694913 
L 109.017931 79.467238 
L 109.343221 81.219533 
L 109.66851 80.335377 
L 110.319088 80.016241 
L 110.644378 80.57857 
L 110.969667 78.512224 
L 111.294956 78.301873 
L 111.620245 74.91087 
L 111.945534 73.514075 
L 112.270824 73.199649 
L 112.596113 77.685282 
L 112.921402 77.07205 
L 113.246691 76.899791 
L 113.57198 75.929992 
L 113.89727 74.570214 
L 114.222559 76.360721 
L 114.547848 75.417604 
L 114.873137 77.460039 
L 115.198427 74.048484 
L 116.174294 85.774017 
L 116.824873 89.464315 
L 117.150162 84.849828 
L 117.475451 85.457252 
L 117.80074 88.123234 
L 118.126029 85.398266 
L 118.451319 86.493144 
L 118.776608 88.834837 
L 119.427186 84.993996 
L 119.752476 85.813198 
L 120.077765 82.707836 
L 120.403054 82.579274 
L 120.728343 79.360567 
L 121.053632 78.787483 
L 121.378922 76.069218 
L 121.704211 76.645602 
L 122.0295 79.936368 
L 122.354789 75.245888 
L 122.680078 77.271018 
L 123.005368 78.370076 
L 123.330657 80.405266 
L 123.655946 81.200403 
L 124.306525 80.8777 
L 124.631814 79.822802 
L 124.957103 76.514333 
L 125.282392 77.525608 
L 125.932971 83.557914 
L 126.25826 85.002068 
L 126.583549 88.404974 
L 126.908838 86.255296 
L 127.234127 87.080294 
L 127.559417 87.432315 
L 127.884706 87.1045 
L 128.209995 89.718262 
L 128.535284 90.954238 
L 129.185863 87.098287 
L 129.511152 87.724193 
L 129.836441 83.58726 
L 130.16173 86.363182 
L 130.48702 86.857828 
L 130.812309 87.064947 
L 131.137598 92.595081 
L 131.462887 87.706204 
L 131.788176 86.583047 
L 132.113466 88.514771 
L 132.438755 83.796913 
L 132.764044 82.607258 
L 133.089333 81.862199 
L 133.414623 83.353385 
L 133.739912 83.207983 
L 134.065201 86.48056 
L 134.39049 84.585898 
L 134.715779 85.319695 
L 135.041069 84.919631 
L 135.366358 82.332177 
L 136.342225 81.264908 
L 136.667515 83.079173 
L 136.992804 81.439186 
L 137.318093 78.487965 
L 137.968672 76.28723 
L 138.944539 84.524358 
L 139.269828 81.913451 
L 139.595118 82.663686 
L 139.920407 79.889325 
L 140.245696 81.942591 
L 140.570985 83.072256 
L 140.896274 82.977487 
L 141.221564 81.169467 
L 141.546853 81.337293 
L 141.872142 81.174721 
L 142.197431 81.434251 
L 142.522721 81.332761 
L 142.84801 83.939426 
L 143.173299 83.788176 
L 143.498588 84.209953 
L 143.823877 84.31894 
L 144.149167 83.271718 
L 144.474456 84.775615 
L 144.799745 84.885772 
L 145.125034 85.428834 
L 145.450323 84.427112 
L 145.775613 82.759183 
L 146.100902 84.887336 
L 146.426191 83.588121 
L 146.75148 79.332458 
L 147.07677 82.878875 
L 147.727348 86.508424 
L 148.052637 86.851129 
L 148.377926 83.192932 
L 148.703216 83.257263 
L 149.028505 84.791836 
L 149.353794 83.427313 
L 149.679083 84.746984 
L 150.004372 82.340809 
L 150.329662 81.881546 
L 150.654951 79.208475 
L 150.98024 81.078374 
L 151.305529 75.060963 
L 151.630819 74.246615 
L 151.956108 73.868256 
L 152.281397 74.999659 
L 152.931975 79.903257 
L 153.257265 80.607992 
L 153.582554 82.621421 
L 153.907843 82.181213 
L 154.233132 84.097442 
L 154.558422 82.803861 
L 154.883711 80.940894 
L 155.209 82.730352 
L 155.534289 80.381365 
L 155.859578 81.250943 
L 156.184868 79.127894 
L 156.510157 78.712752 
L 156.835446 76.912261 
L 157.160735 79.711855 
L 157.486024 80.374867 
L 157.811314 77.721803 
L 158.136603 79.65005 
L 159.112471 93.175027 
L 159.43776 96.678219 
L 159.763049 96.280368 
L 160.088338 92.397351 
L 160.413627 92.491385 
L 160.738917 90.978981 
L 161.064206 90.521949 
L 161.389495 89.863396 
L 162.040073 89.450121 
L 162.365363 87.954793 
L 162.690652 90.023372 
L 163.34123 85.085955 
L 163.66652 85.395636 
L 163.991809 83.587844 
L 164.642387 86.124791 
L 164.967676 85.597885 
L 165.292966 85.846286 
L 165.618255 86.609001 
L 166.268833 88.559967 
L 166.594122 86.156746 
L 166.919412 90.005467 
L 167.244701 88.681243 
L 167.56999 88.717694 
L 168.220569 85.402798 
L 168.545858 91.077142 
L 168.871147 89.161582 
L 169.196436 87.980601 
L 169.521725 87.548416 
L 169.847015 88.182495 
L 170.172304 85.996144 
L 170.497593 86.6694 
L 170.822882 82.587512 
L 171.148171 81.563175 
L 171.473461 77.359753 
L 171.79875 79.67353 
L 172.124039 83.779743 
L 172.774618 80.723354 
L 173.099907 80.988744 
L 173.425196 84.510593 
L 173.750485 85.405119 
L 174.075774 83.98723 
L 174.401064 84.38409 
L 175.051642 84.916545 
L 175.376931 86.7841 
L 175.70222 87.628809 
L 176.02751 90.252572 
L 176.352799 85.951593 
L 176.678088 86.759326 
L 177.003377 85.498778 
L 177.328667 87.49158 
L 177.653956 85.496854 
L 177.979245 89.265237 
L 178.304534 86.830183 
L 178.629823 86.632399 
L 178.955113 81.978829 
L 179.280402 84.917278 
L 179.605691 84.677725 
L 179.93098 83.855539 
L 180.256269 81.310167 
L 180.581559 82.472516 
L 180.906848 82.456409 
L 181.232137 87.090491 
L 181.557426 88.524283 
L 181.882716 87.141452 
L 182.208005 84.535953 
L 182.533294 85.081408 
L 183.183872 77.36683 
L 183.509162 78.168113 
L 184.15974 87.535358 
L 184.485029 88.815568 
L 184.810318 86.018325 
L 185.135608 85.180871 
L 185.460897 89.441943 
L 185.786186 89.386326 
L 186.111475 85.494397 
L 186.436765 86.138108 
L 186.762054 87.499878 
L 187.087343 82.876312 
L 187.412632 82.888763 
L 187.737921 84.010671 
L 188.063211 83.29078 
L 188.3885 83.337375 
L 188.713789 84.310113 
L 189.364367 79.677839 
L 189.689657 78.367856 
L 190.014946 79.15712 
L 190.340235 77.260945 
L 190.665524 78.04998 
L 190.990814 77.68324 
L 191.316103 76.170567 
L 191.641392 75.278086 
L 191.966681 72.429101 
L 192.29197 72.656481 
L 192.942549 80.414147 
L 193.267838 77.96847 
L 193.593127 79.274007 
L 193.918416 78.951926 
L 194.243706 81.243969 
L 194.568995 79.443642 
L 194.894284 80.713341 
L 195.219573 78.012501 
L 195.544863 79.732731 
L 195.870152 77.838991 
L 196.195441 77.060067 
L 196.52073 79.272126 
L 196.846019 77.464358 
L 197.496598 82.135608 
L 197.821887 80.828344 
L 198.472465 83.865023 
L 198.797755 84.607219 
L 199.123044 86.643885 
L 199.448333 84.211566 
L 199.773622 82.932785 
L 200.424201 83.513541 
L 200.74949 82.63483 
L 201.074779 79.1011 
L 201.400068 77.785998 
L 201.725358 79.47929 
L 202.050647 78.321475 
L 202.701225 80.060148 
L 203.026515 76.57296 
L 203.677093 79.791614 
L 204.002382 84.295164 
L 204.327671 87.201765 
L 204.652961 85.952215 
L 204.97825 87.217766 
L 205.303539 85.832533 
L 205.628828 87.985886 
L 205.954117 89.199042 
L 206.279407 87.283749 
L 206.604696 83.920062 
L 206.929985 82.703887 
L 207.255274 80.346818 
L 207.580564 77.168568 
L 207.905853 75.69401 
L 208.231142 78.451546 
L 208.556431 79.237566 
L 208.88172 78.410968 
L 209.20701 79.846532 
L 209.532299 79.330788 
L 209.857588 83.102612 
L 210.182877 84.931978 
L 210.508166 83.74724 
L 210.833456 88.449573 
L 211.158745 90.326292 
L 211.484034 89.742087 
L 211.484034 89.742087 
" style="fill:none;stroke:#808080;stroke-linecap:square;stroke-width:0.75;"/>
   </g>
   <g id="line2d_8">
    <path clip-path="url(#p84c0d24511)" d="M 49.164716 84.114715 
L 49.815294 86.526367 
L 50.140584 88.777066 
L 50.465873 86.981516 
L 50.791162 91.786679 
L 51.116451 88.109628 
L 51.44174 89.708283 
L 51.76703 89.022411 
L 52.092319 89.54156 
L 52.417608 86.474244 
L 52.742897 90.783933 
L 53.393476 92.177972 
L 53.718765 89.784971 
L 54.044054 92.0577 
L 54.369343 92.384038 
L 54.694633 94.195012 
L 55.019922 94.12524 
L 55.345211 92.925498 
L 55.6705 95.2046 
L 56.321079 90.920616 
L 56.646368 89.830731 
L 56.971657 87.930411 
L 57.296946 89.366195 
L 57.622235 89.609285 
L 57.947525 91.541643 
L 58.272814 92.0619 
L 58.598103 90.922684 
L 58.923392 92.323294 
L 59.248682 93.128555 
L 60.224549 97.698954 
L 60.549838 97.757278 
L 60.875128 100.119205 
L 61.200417 99.648804 
L 61.525706 96.223036 
L 61.850995 94.65585 
L 62.176285 95.067277 
L 62.826863 98.475383 
L 63.152152 94.965956 
L 63.477441 94.861577 
L 63.802731 96.194387 
L 64.12802 95.777523 
L 64.453309 91.389069 
L 64.778598 91.100694 
L 65.103887 89.773913 
L 65.429177 89.126813 
L 65.754466 89.856608 
L 66.079755 92.217664 
L 66.405044 92.919539 
L 66.730334 93.338973 
L 67.055623 92.100123 
L 67.706201 88.347165 
L 68.03149 87.765153 
L 68.35678 85.928963 
L 68.682069 87.520956 
L 69.007358 84.91822 
L 69.332647 83.869242 
L 69.657936 84.498422 
L 69.983226 83.498673 
L 70.308515 83.660726 
L 70.959093 78.138706 
L 71.284383 73.572432 
L 71.934961 79.526197 
L 72.26025 80.571565 
L 72.585539 80.242751 
L 72.910829 78.41866 
L 73.236118 77.74618 
L 73.561407 81.967422 
L 73.886696 82.58084 
L 74.211985 80.839366 
L 74.537275 80.372162 
L 74.862564 78.786099 
L 75.513142 79.631535 
L 75.838432 79.23854 
L 76.163721 78.367687 
L 76.814299 77.690586 
L 77.139588 79.094604 
L 77.464878 78.288429 
L 77.790167 78.022971 
L 78.440745 73.145437 
L 78.766034 72.791291 
L 79.091324 73.608867 
L 79.416613 74.969586 
L 79.741902 74.075764 
L 80.067191 73.925555 
L 80.392481 74.660773 
L 80.71777 74.56148 
L 81.043059 75.848012 
L 81.368348 74.381098 
L 81.693637 75.312909 
L 82.018927 72.743178 
L 82.344216 71.937036 
L 82.669505 70.713794 
L 82.994794 73.007708 
L 83.320083 72.68719 
L 83.645373 71.178504 
L 83.970662 73.178569 
L 84.295951 73.765709 
L 84.62124 73.722088 
L 84.94653 76.611568 
L 85.271819 75.954693 
L 85.597108 74.184179 
L 85.922397 75.983111 
L 86.247686 75.247647 
L 86.572976 77.969746 
L 86.898265 78.047238 
L 87.223554 81.411419 
L 87.548843 79.071414 
L 87.874132 78.199544 
L 88.199422 78.241344 
L 88.524711 79.847563 
L 88.85 77.191688 
L 89.175289 73.098019 
L 89.500579 77.005149 
L 90.151157 71.036192 
L 90.476446 70.34188 
L 90.801735 72.852761 
L 91.127025 71.086432 
L 91.452314 71.474379 
L 91.777603 72.749647 
L 92.102892 75.350318 
L 92.428181 74.185502 
L 92.753471 72.538356 
L 93.07876 73.874519 
L 93.404049 72.809134 
L 93.729338 75.230438 
L 94.054628 73.54365 
L 94.379917 73.4764 
L 94.705206 73.89637 
L 95.030495 74.127946 
L 95.681074 70.790502 
L 96.006363 69.696953 
L 96.656941 69.243905 
L 96.98223 67.946297 
L 97.30752 67.444253 
L 97.632809 65.985847 
L 97.958098 66.62295 
L 98.283387 71.662354 
L 98.608677 69.511197 
L 98.933966 64.946797 
L 99.259255 64.036158 
L 99.909833 64.537932 
L 100.235123 64.799378 
L 100.560412 64.773201 
L 100.885701 67.123706 
L 101.21099 68.16145 
L 101.536279 70.23013 
L 101.861569 69.721357 
L 102.186858 70.342757 
L 102.512147 69.319692 
L 102.837436 69.677056 
L 103.162726 67.621328 
L 103.488015 67.145816 
L 103.813304 62.536752 
L 104.138593 66.477796 
L 104.463882 67.793859 
L 104.789172 65.890373 
L 105.114461 60.611812 
L 105.43975 61.175042 
L 105.765039 61.111756 
L 106.090328 61.61373 
L 106.415618 58.849817 
L 106.740907 59.498337 
L 107.066196 58.139611 
L 107.391485 58.79998 
L 107.716775 61.49995 
L 108.042064 60.861918 
L 108.367353 59.849807 
L 108.692642 57.213398 
L 109.017931 57.444135 
L 109.343221 58.729801 
L 109.66851 57.595962 
L 110.319088 56.503161 
L 110.644378 56.677878 
L 110.969667 54.27547 
L 111.294956 53.508955 
L 111.620245 49.514923 
L 111.945534 47.142625 
L 112.270824 45.824416 
L 112.596113 49.285431 
L 113.57198 45.489259 
L 113.89727 43.365646 
L 114.222559 44.233116 
L 114.547848 42.542563 
L 114.873137 43.730628 
L 115.198427 39.689399 
L 115.849005 46.160048 
L 116.174294 49.684881 
L 116.824873 53.749091 
L 117.150162 49.663851 
L 117.475451 50.29189 
L 117.80074 53.054855 
L 118.126029 50.667197 
L 118.451319 51.84493 
L 118.776608 54.338007 
L 119.427186 51.125423 
L 119.752476 51.970824 
L 120.077765 48.945831 
L 120.403054 48.636145 
L 120.728343 45.242189 
L 121.053632 44.241311 
L 121.378922 41.018122 
L 121.704211 40.757741 
L 122.0295 43.267224 
L 122.354789 38.185416 
L 122.680078 39.331054 
L 123.005368 39.758237 
L 123.330657 41.224038 
L 123.655946 41.61337 
L 124.306525 40.627588 
L 124.631814 39.217392 
L 124.957103 35.494635 
L 125.282392 35.743605 
L 125.932971 40.793889 
L 126.25826 42.147975 
L 126.583549 45.643741 
L 126.908838 43.982006 
L 127.234127 45.053796 
L 127.559417 45.740843 
L 127.884706 45.807598 
L 128.209995 48.78637 
L 128.535284 50.551048 
L 129.185863 47.76466 
L 129.511152 48.722141 
L 129.836441 44.918587 
L 130.16173 47.673577 
L 130.812309 48.904164 
L 131.137598 54.690984 
L 131.462887 50.643482 
L 131.788176 49.834715 
L 132.113466 51.966709 
L 132.438755 47.599464 
L 133.089333 45.603476 
L 133.414623 46.92702 
L 133.739912 46.771737 
L 134.065201 50.025746 
L 134.39049 48.328677 
L 134.715779 49.110289 
L 135.041069 48.783302 
L 135.366358 46.244876 
L 136.342225 44.721284 
L 136.667515 46.275421 
L 136.992804 44.615978 
L 137.318093 41.420585 
L 137.968672 37.961851 
L 138.61925 41.604293 
L 138.944539 44.582675 
L 139.269828 42.036004 
L 139.595118 42.564413 
L 139.920407 39.660564 
L 140.245696 41.298186 
L 140.570985 42.174999 
L 140.896274 41.981423 
L 141.221564 40.05513 
L 141.546853 39.924365 
L 141.872142 39.484774 
L 142.197431 39.459996 
L 142.522721 39.100563 
L 142.84801 41.44647 
L 143.173299 41.243608 
L 143.498588 41.597601 
L 143.823877 41.689048 
L 144.149167 40.64103 
L 144.474456 42.028568 
L 144.799745 42.202725 
L 145.125034 42.829607 
L 145.450323 41.976984 
L 145.775613 40.335514 
L 146.100902 42.31064 
L 146.426191 41.099441 
L 146.75148 36.758236 
L 147.07677 39.805172 
L 147.727348 43.346807 
L 148.052637 43.959435 
L 148.377926 40.607973 
L 148.703216 40.549258 
L 149.028505 41.969725 
L 149.353794 40.667758 
L 149.679083 41.885815 
L 150.004372 39.533351 
L 150.329662 38.90561 
L 150.654951 36.030059 
L 150.98024 37.405082 
L 151.305529 31.07346 
L 151.956108 27.975195 
L 152.281397 28.111635 
L 152.931975 31.440462 
L 153.257265 31.734827 
L 153.582554 33.414649 
L 153.907843 32.8138 
L 154.233132 34.549288 
L 154.558422 33.226107 
L 154.883711 31.228016 
L 155.209 32.702214 
L 155.534289 30.230209 
L 155.859578 30.680849 
L 156.184868 28.243116 
L 156.510157 27.35935 
L 156.835446 25.047434 
L 157.160735 27.145465 
L 157.486024 27.393124 
L 157.811314 24.395249 
L 158.136603 25.67567 
L 159.43776 43.586161 
L 159.763049 44.480873 
L 160.088338 41.838219 
L 160.413627 42.748421 
L 160.738917 42.090947 
L 161.064206 42.321536 
L 161.389495 42.314783 
L 162.040073 43.056464 
L 162.365363 42.114031 
L 162.690652 44.569015 
L 163.34123 40.581384 
L 163.66652 40.958404 
L 163.991809 39.246281 
L 164.642387 41.809623 
L 164.967676 41.470008 
L 165.292966 41.833391 
L 165.618255 42.756898 
L 166.268833 45.368434 
L 166.594122 43.461507 
L 166.919412 47.549086 
L 167.244701 46.853732 
L 167.56999 47.416004 
L 168.220569 44.940926 
L 168.545858 50.776921 
L 168.871147 49.508413 
L 169.196436 48.776979 
L 169.521725 48.70031 
L 169.847015 49.651641 
L 170.172304 47.818861 
L 170.497593 48.711294 
L 170.822882 44.858023 
L 171.148171 43.710186 
L 171.473461 39.28755 
L 171.79875 40.939223 
L 172.124039 44.568701 
L 172.774618 41.34305 
L 173.099907 41.233611 
L 173.425196 44.407866 
L 173.750485 45.366736 
L 174.075774 44.129611 
L 175.051642 45.202298 
L 175.376931 47.195952 
L 175.70222 48.361284 
L 176.02751 51.334805 
L 176.352799 47.578465 
L 176.678088 48.608866 
L 177.003377 47.593008 
L 177.328667 49.762797 
L 177.653956 48.056159 
L 177.979245 51.98144 
L 178.304534 49.971742 
L 178.629823 50.004748 
L 178.955113 45.563324 
L 179.280402 48.344648 
L 179.605691 48.184902 
L 179.93098 47.429617 
L 180.256269 44.901873 
L 180.581559 45.814835 
L 180.906848 45.700906 
L 181.232137 50.230239 
L 181.557426 51.92481 
L 181.882716 50.894472 
L 182.208005 48.538233 
L 182.533294 49.111158 
L 183.183872 41.130207 
L 183.509162 41.223365 
L 184.15974 50.012784 
L 184.485029 51.595686 
L 184.810318 49.189941 
L 185.135608 48.492757 
L 185.460897 52.849137 
L 185.786186 53.249157 
L 186.111475 49.839308 
L 186.436765 50.574626 
L 186.762054 52.095981 
L 187.087343 47.719311 
L 187.412632 47.642757 
L 187.737921 48.679265 
L 188.063211 47.924275 
L 188.3885 47.914517 
L 188.713789 48.836061 
L 189.364367 44.038399 
L 189.689657 42.316498 
L 190.014946 42.542005 
L 190.340235 40.165405 
L 190.665524 40.260121 
L 190.990814 39.273321 
L 191.641392 35.424098 
L 191.966681 31.688622 
L 192.29197 30.763851 
L 192.942549 36.639307 
L 193.267838 33.804879 
L 193.593127 34.472009 
L 193.918416 33.634951 
L 194.243706 35.39197 
L 194.568995 33.301573 
L 194.894284 34.097094 
L 195.219573 31.025353 
L 195.544863 32.126829 
L 195.870152 29.814851 
L 196.195441 28.375184 
L 196.52073 29.910408 
L 196.846019 27.580721 
L 197.496598 31.189989 
L 197.821887 29.685051 
L 198.472465 32.189381 
L 198.797755 32.926548 
L 199.123044 35.021129 
L 199.448333 32.836859 
L 199.773622 31.579649 
L 200.424201 31.981863 
L 200.74949 31.062467 
L 201.074779 27.374246 
L 201.400068 25.586749 
L 201.725358 26.672471 
L 202.050647 25.070481 
L 202.375936 25.337562 
L 202.701225 25.777111 
L 203.026515 21.908201 
L 203.677093 23.74125 
L 204.327671 30.751469 
L 204.652961 29.786516 
L 204.97825 31.204076 
L 205.303539 30.130092 
L 205.954117 34.029603 
L 206.279407 32.593375 
L 206.604696 29.563737 
L 206.929985 28.308466 
L 207.255274 25.839763 
L 207.580564 22.307621 
L 207.905853 20.114444 
L 208.231142 22.124667 
L 208.556431 22.322108 
L 208.88172 20.983729 
L 209.20701 21.876278 
L 209.532299 20.917387 
L 209.857588 24.242521 
L 210.182877 25.958816 
L 210.508166 24.876815 
L 210.833456 29.554572 
L 211.158745 31.845662 
L 211.484034 31.900949 
L 211.484034 31.900949 
" style="fill:none;stroke:#1f77b4;stroke-linecap:square;stroke-width:1.5;"/>
   </g>
   <g id="line2d_9">
    <path clip-path="url(#p84c0d24511)" d="M 41.04875 84.114715 
L 219.6 84.114715 
" style="fill:none;stroke:#808080;stroke-dasharray:2.775,1.2;stroke-dashoffset:0;stroke-width:0.75;"/>
   </g>
   <g id="patch_3">
    <path d="M 41.04875 104.3725 
L 41.04875 10.8 
" style="fill:none;stroke:#000000;stroke-linecap:square;stroke-linejoin:miter;stroke-width:0.8;"/>
   </g>
   <g id="patch_4">
    <path d="M 219.6 104.3725 
L 219.6 10.8 
" style="fill:none;stroke:#000000;stroke-linecap:square;stroke-linejoin:miter;stroke-width:0.8;"/>
   </g>
   <g id="patch_5">
    <path d="M 41.04875 104.3725 
L 219.6 104.3725 
" style="fill:none;stroke:#000000;stroke-linecap:square;stroke-linejoin:miter;stroke-width:0.8;"/>
   </g>
   <g id="patch_6">
    <path d="M 41.04875 10.8 
L 219.6 10.8 
" style="fill:none;stroke:#000000;stroke-linecap:square;stroke-linejoin:miter;stroke-width:0.8;"/>
   </g>
  </g>
  <g id="axes_2">
   <g id="patch_7">
    <path d="M 41.04875 242.9725 
L 219.6 242.9725 
L 219.6 149.4 
L 41.04875 149.4 
z
" style="fill:#ffffff;"/>
   </g>
   <g id="line2d_10">
    <path clip-path="url(#p0c56af33d2)" d="M 49.164716 219.327039 
L 49.815294 221.704432 
L 50.140584 223.942176 
L 50.465873 222.137314 
L 50.791162 226.937319 
L 51.116451 223.298403 
L 51.44174 224.885948 
L 51.76703 224.220572 
L 52.092319 224.74065 
L 52.417608 221.691331 
L 52.742897 225.987885 
L 53.393476 227.461277 
L 53.718765 225.096728 
L 54.044054 227.390622 
L 54.369343 227.750232 
L 54.694633 229.581061 
L 55.019922 229.493022 
L 55.345211 228.277524 
L 55.6705 230.572935 
L 56.321079 226.305216 
L 56.646368 225.257232 
L 56.971657 223.37844 
L 57.296946 224.804398 
L 57.622235 225.060693 
L 57.947525 227.0123 
L 58.272814 227.570997 
L 58.598103 226.464907 
L 58.923392 227.90741 
L 59.248682 228.734864 
L 60.224549 233.330663 
L 60.549838 233.357076 
L 60.875128 235.687298 
L 61.200417 235.198409 
L 61.525706 231.736786 
L 61.850995 230.189206 
L 62.176285 230.589291 
L 62.826863 233.998744 
L 63.152152 230.469022 
L 63.477441 230.363059 
L 63.802731 231.691554 
L 64.12802 231.293388 
L 64.453309 226.913172 
L 64.778598 226.662573 
L 65.103887 225.375357 
L 65.429177 224.749333 
L 65.754466 225.483972 
L 66.079755 227.866766 
L 66.405044 228.595343 
L 66.730334 229.031005 
L 67.055623 227.807565 
L 67.706201 224.115939 
L 68.03149 223.520329 
L 68.35678 221.67431 
L 68.682069 223.247655 
L 69.007358 220.634719 
L 69.332647 219.564971 
L 69.657936 220.186663 
L 69.983226 219.167827 
L 70.308515 219.325437 
L 70.959093 213.795677 
L 71.284383 209.23752 
L 71.934961 215.161794 
L 72.26025 216.213889 
L 72.585539 215.880122 
L 72.910829 214.052816 
L 73.236118 213.394539 
L 73.561407 217.611968 
L 73.886696 218.250576 
L 74.211985 216.523782 
L 74.537275 216.043905 
L 74.862564 214.454682 
L 75.513142 215.337056 
L 75.838432 214.94797 
L 76.163721 214.092781 
L 76.814299 213.431014 
L 77.139588 214.829723 
L 77.464878 214.04229 
L 77.790167 213.788224 
L 78.440745 208.932194 
L 78.766034 208.546038 
L 79.091324 209.328719 
L 79.416613 210.660832 
L 79.741902 209.777608 
L 80.067191 209.61631 
L 80.392481 210.333439 
L 80.71777 210.242515 
L 81.043059 211.535566 
L 81.368348 210.079776 
L 81.693637 211.012291 
L 82.018927 208.458502 
L 82.344216 207.616994 
L 82.669505 206.379049 
L 82.994794 208.662557 
L 83.320083 208.309299 
L 83.645373 206.764822 
L 83.970662 208.753825 
L 84.295951 209.30904 
L 84.62124 209.241021 
L 84.94653 212.104744 
L 85.271819 211.447459 
L 85.597108 209.682737 
L 85.922397 211.475313 
L 86.247686 210.744227 
L 86.572976 213.481077 
L 86.898265 213.561779 
L 87.223554 216.931575 
L 87.548843 214.592787 
L 87.874132 213.739999 
L 88.199422 213.791339 
L 88.524711 215.407988 
L 88.85 212.751489 
L 89.175289 208.648973 
L 89.500579 212.523913 
L 90.151157 206.551245 
L 90.476446 205.8463 
L 90.801735 208.34745 
L 91.127025 206.546888 
L 91.452314 206.924209 
L 91.777603 208.183724 
L 92.102892 210.749088 
L 92.428181 209.600907 
L 92.753471 207.947458 
L 93.07876 209.247871 
L 93.404049 208.162176 
L 93.729338 210.548773 
L 94.054628 208.876441 
L 94.379917 208.779322 
L 94.705206 209.168425 
L 95.030495 209.380622 
L 95.681074 206.003474 
L 96.006363 204.89924 
L 96.656941 204.449755 
L 96.98223 203.160083 
L 97.30752 202.675201 
L 97.632809 201.251697 
L 97.958098 201.898465 
L 98.283387 206.976474 
L 98.608677 204.809939 
L 98.933966 200.248854 
L 99.259255 199.32836 
L 100.560412 200.033791 
L 100.885701 202.373833 
L 101.21099 203.452266 
L 101.536279 205.531629 
L 101.861569 205.012742 
L 102.186858 205.631406 
L 102.512147 204.598612 
L 102.837436 204.962966 
L 103.162726 202.905902 
L 103.488015 202.460563 
L 103.813304 197.891719 
L 104.138593 201.846701 
L 104.463882 203.195887 
L 104.789172 201.315778 
L 105.114461 196.042794 
L 105.43975 196.561338 
L 105.765039 196.470263 
L 106.090328 196.942256 
L 106.415618 194.165418 
L 106.740907 194.764616 
L 107.066196 193.346288 
L 107.391485 194.013254 
L 107.716775 196.667256 
L 108.042064 196.013333 
L 108.367353 194.963909 
L 108.692642 192.266804 
L 109.017931 192.497148 
L 109.343221 193.784696 
L 109.66851 192.611022 
L 110.319088 191.523605 
L 110.644378 191.676086 
L 110.969667 189.256126 
L 111.294956 188.485525 
L 111.620245 184.513238 
L 111.945534 182.196059 
L 112.270824 180.821569 
L 112.596113 184.215695 
L 113.57198 180.391703 
L 113.89727 178.213453 
L 114.222559 179.04951 
L 114.547848 177.330993 
L 114.873137 178.503717 
L 115.198427 174.426695 
L 115.849005 180.876593 
L 116.174294 184.319277 
L 116.824873 188.510573 
L 117.150162 184.431046 
L 117.475451 185.111982 
L 117.80074 187.912218 
L 118.126029 185.588101 
L 118.451319 186.811334 
L 118.776608 189.390871 
L 119.427186 186.264191 
L 119.752476 187.171321 
L 120.077765 184.235807 
L 120.403054 183.966557 
L 120.728343 180.594306 
L 121.053632 179.545808 
L 121.378922 176.29482 
L 121.704211 176.066654 
L 122.0295 178.610508 
L 122.354789 173.502194 
L 122.680078 174.640441 
L 123.005368 175.05513 
L 123.330657 176.515855 
L 123.655946 176.940047 
L 124.306525 176.013015 
L 124.631814 174.634415 
L 124.957103 170.896755 
L 125.282392 171.147992 
L 125.932971 176.185543 
L 126.25826 177.574017 
L 126.583549 181.065659 
L 126.908838 179.345006 
L 127.234127 180.384062 
L 127.559417 181.032641 
L 127.884706 181.036586 
L 128.209995 183.949327 
L 128.535284 185.745657 
L 129.185863 183.048501 
L 129.511152 183.972764 
L 129.836441 180.196778 
L 130.16173 182.919955 
L 130.812309 184.120878 
L 131.137598 189.946035 
L 131.462887 185.905195 
L 131.788176 185.141186 
L 132.113466 187.319744 
L 132.438755 183.041891 
L 133.089333 180.924652 
L 133.414623 182.190586 
L 133.739912 181.969051 
L 134.065201 185.150955 
L 134.39049 183.492877 
L 134.715779 184.273792 
L 135.041069 183.994226 
L 135.366358 181.487264 
L 136.342225 179.769355 
L 136.667515 181.298639 
L 136.992804 179.555098 
L 137.318093 176.336325 
L 137.968672 172.908253 
L 138.61925 176.547705 
L 138.944539 179.552744 
L 139.269828 176.982802 
L 139.595118 177.51291 
L 139.920407 174.593446 
L 140.245696 176.224173 
L 140.570985 177.136626 
L 140.896274 176.937611 
L 141.221564 175.015868 
L 141.546853 174.88917 
L 141.872142 174.448855 
L 142.197431 174.414386 
L 142.522721 174.04485 
L 142.84801 176.373319 
L 143.173299 176.204541 
L 143.498588 176.593663 
L 143.823877 176.712174 
L 144.149167 175.685375 
L 144.474456 177.104972 
L 144.799745 177.281219 
L 145.125034 177.901386 
L 145.450323 177.031076 
L 145.775613 175.394387 
L 146.100902 177.386987 
L 146.426191 176.165034 
L 146.75148 171.856711 
L 147.07677 174.924903 
L 147.727348 178.49278 
L 148.052637 179.074856 
L 148.377926 175.690301 
L 148.703216 175.662453 
L 149.028505 177.111281 
L 149.353794 175.81447 
L 149.679083 177.0654 
L 150.004372 174.722453 
L 150.329662 174.085799 
L 150.654951 171.189411 
L 150.98024 172.568687 
L 151.305529 166.247641 
L 151.956108 163.162749 
L 152.281397 163.269506 
L 152.931975 166.592572 
L 153.257265 166.876161 
L 153.582554 168.538918 
L 153.907843 167.94938 
L 154.233132 169.672258 
L 154.558422 168.376951 
L 154.883711 166.382898 
L 155.209 167.854974 
L 155.534289 165.367551 
L 155.859578 165.863794 
L 156.184868 163.454368 
L 156.510157 162.540544 
L 156.835446 160.199857 
L 157.160735 162.279205 
L 157.486024 162.50193 
L 157.811314 159.474882 
L 158.136603 160.763838 
L 159.43776 178.700509 
L 159.763049 179.559008 
L 160.088338 176.892557 
L 160.413627 177.814854 
L 160.738917 177.140117 
L 161.064206 177.369511 
L 161.389495 177.351682 
L 162.040073 178.065735 
L 162.365363 177.103948 
L 162.690652 179.556535 
L 163.34123 175.531095 
L 163.66652 175.937899 
L 163.991809 174.2582 
L 164.642387 176.841311 
L 164.967676 176.515413 
L 165.292966 176.912131 
L 165.618255 177.848003 
L 166.268833 180.413126 
L 166.594122 178.45443 
L 166.919412 182.507355 
L 167.244701 181.772205 
L 167.56999 182.26531 
L 168.220569 179.67319 
L 168.545858 185.476342 
L 168.871147 184.257025 
L 169.196436 183.58073 
L 169.521725 183.535134 
L 169.847015 184.512583 
L 170.172304 182.73301 
L 170.497593 183.594409 
L 170.822882 179.767989 
L 171.148171 178.590933 
L 171.473461 174.132356 
L 171.79875 175.770637 
L 172.124039 179.432732 
L 172.774618 176.163624 
L 173.099907 176.089879 
L 173.425196 179.29913 
L 173.750485 180.233244 
L 174.075774 178.944396 
L 175.051642 179.936332 
L 175.376931 181.884071 
L 175.70222 182.995719 
L 176.02751 185.970891 
L 176.352799 182.283698 
L 176.678088 183.275118 
L 177.003377 182.279032 
L 177.328667 184.41024 
L 177.653956 182.753201 
L 177.979245 186.659797 
L 178.304534 184.739796 
L 178.629823 184.813558 
L 178.955113 180.411756 
L 179.280402 183.136616 
L 179.605691 182.97732 
L 179.93098 182.211435 
L 180.256269 179.640145 
L 180.581559 180.52204 
L 180.906848 180.341713 
L 181.232137 184.809964 
L 181.557426 186.541334 
L 181.882716 185.59946 
L 182.208005 183.296634 
L 182.533294 183.884213 
L 183.183872 175.924441 
L 183.509162 176.050936 
L 184.15974 184.791678 
L 184.485029 186.413952 
L 184.810318 184.086794 
L 185.135608 183.439701 
L 185.460897 187.807388 
L 185.786186 188.284494 
L 186.111475 184.919726 
L 186.436765 185.701405 
L 186.762054 187.265515 
L 187.087343 182.980465 
L 187.412632 182.869076 
L 187.737921 183.868389 
L 188.063211 183.138093 
L 188.3885 183.102295 
L 188.713789 183.997299 
L 189.364367 179.150119 
L 189.689657 177.396449 
L 190.014946 177.611026 
L 190.340235 175.219093 
L 190.665524 175.322751 
L 190.990814 174.349536 
L 191.641392 170.50682 
L 191.966681 166.774173 
L 192.29197 165.832992 
L 192.942549 171.764814 
L 193.267838 168.949081 
L 193.593127 169.639993 
L 193.918416 168.833841 
L 194.243706 170.609606 
L 194.568995 168.522204 
L 194.894284 169.324796 
L 195.219573 166.283819 
L 195.544863 167.393826 
L 195.870152 165.061888 
L 196.195441 163.655392 
L 196.52073 165.161986 
L 196.846019 162.86996 
L 197.496598 166.465683 
L 197.821887 164.960509 
L 198.472465 167.503197 
L 198.797755 168.220423 
L 199.123044 170.30634 
L 199.448333 168.126938 
L 199.773622 166.857841 
L 200.424201 167.228489 
L 200.74949 166.289661 
L 201.074779 162.607943 
L 201.400068 160.79148 
L 201.725358 161.8519 
L 202.050647 160.230542 
L 202.375936 160.478247 
L 202.701225 160.893271 
L 203.026515 157.000626 
L 203.677093 158.873718 
L 204.327671 165.869604 
L 204.652961 164.928759 
L 204.97825 166.378061 
L 205.303539 165.303132 
L 205.954117 169.22854 
L 206.279407 167.82168 
L 206.604696 164.774896 
L 206.929985 163.539256 
L 207.255274 161.041104 
L 207.580564 157.486064 
L 207.905853 155.316892 
L 208.231142 157.232357 
L 208.556431 157.452061 
L 208.88172 156.137747 
L 209.20701 157.002937 
L 209.532299 156.060375 
L 209.857588 159.353806 
L 210.182877 161.081962 
L 210.508166 159.97895 
L 210.833456 164.644536 
L 211.158745 166.954741 
L 211.484034 166.991694 
L 211.484034 166.991694 
" style="fill:none;stroke:#00bfbf;stroke-linecap:square;stroke-width:1.5;"/>
   </g>
   <g id="matplotlib.axis_3">
    <g id="xtick_4">
     <g id="line2d_11">
      <g>
       <use style="stroke:#000000;stroke-width:0.8;" x="49.164716" xlink:href="#m7efd574514" y="242.9725"/>
      </g>
     </g>
     <g id="text_8">
      <!-- 0.0 -->
      <g transform="translate(39.622841 259.090625)scale(0.12 -0.12)">
       <use xlink:href="#DejaVuSans-48"/>
       <use x="63.623047" xlink:href="#DejaVuSans-46"/>
       <use x="95.410156" xlink:href="#DejaVuSans-48"/>
      </g>
     </g>
    </g>
    <g id="xtick_5">
     <g id="line2d_12">
      <g>
       <use style="stroke:#000000;stroke-width:0.8;" x="114.222559" xlink:href="#m7efd574514" y="242.9725"/>
      </g>
     </g>
     <g id="text_9">
      <!-- 0.2 -->
      <g transform="translate(104.680684 259.090625)scale(0.12 -0.12)">
       <use xlink:href="#DejaVuSans-48"/>
       <use x="63.623047" xlink:href="#DejaVuSans-46"/>
       <use x="95.410156" xlink:href="#DejaVuSans-50"/>
      </g>
     </g>
    </g>
    <g id="xtick_6">
     <g id="line2d_13">
      <g>
       <use style="stroke:#000000;stroke-width:0.8;" x="179.280402" xlink:href="#m7efd574514" y="242.9725"/>
      </g>
     </g>
     <g id="text_10">
      <!-- 0.4 -->
      <g transform="translate(169.738527 259.090625)scale(0.12 -0.12)">
       <use xlink:href="#DejaVuSans-48"/>
       <use x="63.623047" xlink:href="#DejaVuSans-46"/>
       <use x="95.410156" xlink:href="#DejaVuSans-52"/>
      </g>
     </g>
    </g>
    <g id="text_11">
     <!-- Time (s) -->
     <g transform="translate(105.929687 274.704375)scale(0.12 -0.12)">
      <use xlink:href="#DejaVuSans-84"/>
      <use x="57.958984" xlink:href="#DejaVuSans-105"/>
      <use x="85.742188" xlink:href="#DejaVuSans-109"/>
      <use x="183.154297" xlink:href="#DejaVuSans-101"/>
      <use x="244.677734" xlink:href="#DejaVuSans-32"/>
      <use x="276.464844" xlink:href="#DejaVuSans-40"/>
      <use x="315.478516" xlink:href="#DejaVuSans-115"/>
      <use x="367.578125" xlink:href="#DejaVuSans-41"/>
     </g>
    </g>
   </g>
   <g id="matplotlib.axis_4">
    <g id="ytick_3">
     <g id="line2d_14">
      <g>
       <use style="stroke:#000000;stroke-width:0.8;" x="41.04875" xlink:href="#m207c2426a6" y="222.714715"/>
      </g>
     </g>
     <g id="text_12">
      <!-- 0 -->
      <g transform="translate(26.41375 227.273777)scale(0.12 -0.12)">
       <use xlink:href="#DejaVuSans-48"/>
      </g>
     </g>
    </g>
    <g id="ytick_4">
     <g id="line2d_15">
      <g>
       <use style="stroke:#000000;stroke-width:0.8;" x="41.04875" xlink:href="#m207c2426a6" y="181.003442"/>
      </g>
     </g>
     <g id="text_13">
      <!-- 1 -->
      <g transform="translate(26.41375 185.562505)scale(0.12 -0.12)">
       <use xlink:href="#DejaVuSans-49"/>
      </g>
     </g>
    </g>
    <g id="text_14">
     <!-- x -->
     <g transform="translate(19.918125 199.7375)rotate(-90)scale(0.12 -0.12)">
      <use xlink:href="#DejaVuSans-120"/>
     </g>
    </g>
   </g>
   <g id="line2d_16">
    <path clip-path="url(#p0c56af33d2)" d="M 49.164716 222.714715 
L 50.140584 226.977286 
L 50.465873 224.746166 
L 50.791162 229.343026 
L 51.116451 225.041279 
L 51.44174 226.396168 
L 51.76703 225.362646 
L 52.092319 225.617931 
L 52.417608 222.27829 
L 52.742897 226.618487 
L 53.393476 227.28292 
L 53.718765 224.461551 
L 54.044054 226.580761 
L 54.369343 226.553766 
L 54.694633 228.00069 
L 55.019922 227.384053 
L 55.345211 225.701621 
L 55.6705 227.698342 
L 56.321079 222.722473 
L 56.646368 221.673714 
L 56.971657 219.899021 
L 57.296946 221.606549 
L 57.622235 221.973661 
L 57.947525 223.999373 
L 58.272814 224.429605 
L 58.598103 223.152026 
L 58.923392 224.550797 
L 59.248682 225.194643 
L 60.224549 228.669812 
L 60.549838 228.100715 
L 60.875128 229.892337 
L 61.200417 228.685686 
L 61.525706 224.626966 
L 61.850995 222.88816 
L 62.176285 223.270901 
L 62.826863 226.389558 
L 63.152152 222.492352 
L 63.477441 222.408625 
L 63.802731 223.767729 
L 64.12802 223.264261 
L 64.453309 218.829091 
L 64.778598 218.967054 
L 65.103887 218.054604 
L 65.429177 217.894591 
L 65.754466 219.111243 
L 66.079755 221.854384 
L 66.405044 222.668994 
L 66.730334 223.109228 
L 67.380912 220.183421 
L 67.706201 218.494678 
L 68.03149 218.321071 
L 68.35678 216.914417 
L 68.682069 219.067792 
L 69.007358 216.819548 
L 69.332647 216.339317 
L 69.657936 217.598548 
L 69.983226 217.091329 
L 70.308515 217.811277 
L 70.959093 213.449179 
L 71.284383 209.817576 
L 71.934961 217.901058 
L 72.26025 219.434519 
L 72.585539 219.428771 
L 72.910829 217.930059 
L 73.236118 217.750248 
L 73.561407 222.464124 
L 73.886696 223.127791 
L 74.211985 221.35969 
L 74.537275 221.015315 
L 74.862564 219.596032 
L 75.513142 221.024587 
L 75.838432 220.804514 
L 76.163721 220.140346 
L 76.48901 219.984216 
L 76.814299 220.009066 
L 77.139588 221.678339 
L 77.464878 220.994544 
L 77.790167 220.912495 
L 78.440745 216.634448 
L 78.766034 216.856319 
L 79.416613 220.00594 
L 79.741902 219.393593 
L 80.067191 219.564407 
L 80.392481 220.596567 
L 80.71777 220.717458 
L 81.043059 222.210234 
L 81.368348 220.804892 
L 81.693637 221.92839 
L 82.018927 219.453233 
L 82.344216 218.937874 
L 82.669505 218.077612 
L 82.994794 220.824831 
L 83.320083 220.660561 
L 83.645373 219.321499 
L 83.970662 221.649824 
L 84.295951 222.311529 
L 84.62124 222.283828 
L 84.94653 225.19064 
L 85.271819 224.285762 
L 85.597108 222.363936 
L 85.922397 224.191589 
L 86.247686 223.312816 
L 86.572976 225.989856 
L 86.898265 225.743044 
L 87.223554 228.810007 
L 87.548843 225.86169 
L 87.874132 224.694204 
L 88.199422 224.547596 
L 88.524711 225.980956 
L 88.85 222.997833 
L 89.175289 218.867005 
L 89.500579 223.126716 
L 90.151157 217.333578 
L 90.476446 217.166746 
L 90.801735 220.222693 
L 91.127025 218.671334 
L 91.452314 219.452993 
L 91.777603 221.03868 
L 92.102892 223.771648 
L 92.753471 220.884018 
L 93.07876 222.367501 
L 93.404049 221.316527 
L 93.729338 223.842943 
L 94.054628 222.057788 
L 94.379917 222.026362 
L 94.705206 222.4843 
L 95.030495 222.719539 
L 95.681074 219.522686 
L 96.006363 218.737655 
L 96.656941 219.072529 
L 96.98223 218.147076 
L 97.30752 218.118958 
L 97.632809 217.155029 
L 97.958098 218.357766 
L 98.283387 223.87147 
L 98.608677 221.58926 
L 98.933966 217.14072 
L 99.259255 216.777626 
L 100.235123 219.060173 
L 100.560412 219.389319 
L 100.885701 222.0619 
L 101.21099 223.205615 
L 101.536279 225.235887 
L 101.861569 224.464884 
L 102.186858 224.908531 
L 102.512147 223.656355 
L 102.837436 223.926545 
L 103.162726 221.748297 
L 103.488015 221.399601 
L 103.813304 216.962268 
L 104.138593 221.492494 
L 104.463882 222.963902 
L 104.789172 221.058875 
L 105.114461 215.951475 
L 105.43975 217.146343 
L 105.765039 217.612105 
L 106.090328 218.594359 
L 106.415618 216.229556 
L 106.740907 217.477271 
L 107.066196 216.582686 
L 107.391485 217.862856 
L 107.716775 221.002044 
L 108.042064 220.519387 
L 108.367353 219.689496 
L 108.692642 217.294913 
L 109.017931 218.067238 
L 109.343221 219.819533 
L 109.66851 218.935377 
L 110.319088 218.616241 
L 110.644378 219.17857 
L 110.969667 217.112224 
L 111.294956 216.901873 
L 111.620245 213.51087 
L 111.945534 212.114075 
L 112.270824 211.799649 
L 112.596113 216.285282 
L 112.921402 215.67205 
L 113.246691 215.499791 
L 113.57198 214.529992 
L 113.89727 213.170214 
L 114.222559 214.960721 
L 114.547848 214.017604 
L 114.873137 216.060039 
L 115.198427 212.648484 
L 116.174294 224.374017 
L 116.824873 228.064315 
L 117.150162 223.449828 
L 117.475451 224.057252 
L 117.80074 226.723234 
L 118.126029 223.998266 
L 118.451319 225.093144 
L 118.776608 227.434837 
L 119.427186 223.593996 
L 119.752476 224.413198 
L 120.077765 221.307836 
L 120.403054 221.179274 
L 120.728343 217.960567 
L 121.053632 217.387483 
L 121.378922 214.669218 
L 121.704211 215.245602 
L 122.0295 218.536368 
L 122.354789 213.845888 
L 122.680078 215.871018 
L 123.005368 216.970076 
L 123.330657 219.005266 
L 123.655946 219.800403 
L 124.306525 219.4777 
L 124.631814 218.422802 
L 124.957103 215.114333 
L 125.282392 216.125608 
L 125.932971 222.157914 
L 126.25826 223.602068 
L 126.583549 227.004974 
L 126.908838 224.855296 
L 127.234127 225.680294 
L 127.559417 226.032315 
L 127.884706 225.7045 
L 128.209995 228.318262 
L 128.535284 229.554238 
L 129.185863 225.698287 
L 129.511152 226.324193 
L 129.836441 222.18726 
L 130.16173 224.963182 
L 130.48702 225.457828 
L 130.812309 225.664947 
L 131.137598 231.195081 
L 131.462887 226.306204 
L 131.788176 225.183047 
L 132.113466 227.114771 
L 132.438755 222.396913 
L 132.764044 221.207258 
L 133.089333 220.462199 
L 133.414623 221.953385 
L 133.739912 221.807983 
L 134.065201 225.08056 
L 134.39049 223.185898 
L 134.715779 223.919695 
L 135.041069 223.519631 
L 135.366358 220.932177 
L 136.342225 219.864908 
L 136.667515 221.679173 
L 136.992804 220.039186 
L 137.318093 217.087965 
L 137.968672 214.88723 
L 138.944539 223.124358 
L 139.269828 220.513451 
L 139.595118 221.263686 
L 139.920407 218.489325 
L 140.245696 220.542591 
L 140.570985 221.672256 
L 140.896274 221.577487 
L 141.221564 219.769467 
L 141.546853 219.937293 
L 141.872142 219.774721 
L 142.197431 220.034251 
L 142.522721 219.932761 
L 142.84801 222.539426 
L 143.173299 222.388176 
L 143.498588 222.809953 
L 143.823877 222.91894 
L 144.149167 221.871718 
L 144.474456 223.375615 
L 144.799745 223.485772 
L 145.125034 224.028834 
L 145.450323 223.027112 
L 145.775613 221.359183 
L 146.100902 223.487336 
L 146.426191 222.188121 
L 146.75148 217.932458 
L 147.07677 221.478875 
L 147.727348 225.108424 
L 148.052637 225.451129 
L 148.377926 221.792932 
L 148.703216 221.857263 
L 149.028505 223.391836 
L 149.353794 222.027313 
L 149.679083 223.346984 
L 150.004372 220.940809 
L 150.329662 220.481546 
L 150.654951 217.808475 
L 150.98024 219.678374 
L 151.305529 213.660963 
L 151.630819 212.846615 
L 151.956108 212.468256 
L 152.281397 213.599659 
L 152.931975 218.503257 
L 153.257265 219.207992 
L 153.582554 221.221421 
L 153.907843 220.781213 
L 154.233132 222.697442 
L 154.558422 221.403861 
L 154.883711 219.540894 
L 155.209 221.330352 
L 155.534289 218.981365 
L 155.859578 219.850943 
L 156.184868 217.727894 
L 156.510157 217.312752 
L 156.835446 215.512261 
L 157.160735 218.311855 
L 157.486024 218.974867 
L 157.811314 216.321803 
L 158.136603 218.25005 
L 159.112471 231.775027 
L 159.43776 235.278219 
L 159.763049 234.880368 
L 160.088338 230.997351 
L 160.413627 231.091385 
L 160.738917 229.578981 
L 161.064206 229.121949 
L 161.389495 228.463396 
L 162.040073 228.050121 
L 162.365363 226.554793 
L 162.690652 228.623372 
L 163.34123 223.685955 
L 163.66652 223.995636 
L 163.991809 222.187844 
L 164.642387 224.724791 
L 164.967676 224.197885 
L 165.292966 224.446286 
L 165.618255 225.209001 
L 166.268833 227.159967 
L 166.594122 224.756746 
L 166.919412 228.605467 
L 167.244701 227.281243 
L 167.56999 227.317694 
L 168.220569 224.002798 
L 168.545858 229.677142 
L 168.871147 227.761582 
L 169.196436 226.580601 
L 169.521725 226.148416 
L 169.847015 226.782495 
L 170.172304 224.596144 
L 170.497593 225.2694 
L 170.822882 221.187512 
L 171.148171 220.163175 
L 171.473461 215.959753 
L 171.79875 218.27353 
L 172.124039 222.379743 
L 172.774618 219.323354 
L 173.099907 219.588744 
L 173.425196 223.110593 
L 173.750485 224.005119 
L 174.075774 222.58723 
L 174.401064 222.98409 
L 175.051642 223.516545 
L 175.376931 225.3841 
L 175.70222 226.228809 
L 176.02751 228.852572 
L 176.352799 224.551593 
L 176.678088 225.359326 
L 177.003377 224.098778 
L 177.328667 226.09158 
L 177.653956 224.096854 
L 177.979245 227.865237 
L 178.304534 225.430183 
L 178.629823 225.232399 
L 178.955113 220.578829 
L 179.280402 223.517278 
L 179.605691 223.277725 
L 179.93098 222.455539 
L 180.256269 219.910167 
L 180.581559 221.072516 
L 180.906848 221.056409 
L 181.232137 225.690491 
L 181.557426 227.124283 
L 181.882716 225.741452 
L 182.208005 223.135953 
L 182.533294 223.681408 
L 183.183872 215.96683 
L 183.509162 216.768113 
L 184.15974 226.135358 
L 184.485029 227.415568 
L 184.810318 224.618325 
L 185.135608 223.780871 
L 185.460897 228.041943 
L 185.786186 227.986326 
L 186.111475 224.094397 
L 186.436765 224.738108 
L 186.762054 226.099878 
L 187.087343 221.476312 
L 187.412632 221.488763 
L 187.737921 222.610671 
L 188.063211 221.89078 
L 188.3885 221.937375 
L 188.713789 222.910113 
L 189.364367 218.277839 
L 189.689657 216.967856 
L 190.014946 217.75712 
L 190.340235 215.860945 
L 190.665524 216.64998 
L 190.990814 216.28324 
L 191.316103 214.770567 
L 191.641392 213.878086 
L 191.966681 211.029101 
L 192.29197 211.256481 
L 192.942549 219.014147 
L 193.267838 216.56847 
L 193.593127 217.874007 
L 193.918416 217.551926 
L 194.243706 219.843969 
L 194.568995 218.043642 
L 194.894284 219.313341 
L 195.219573 216.612501 
L 195.544863 218.332731 
L 195.870152 216.438991 
L 196.195441 215.660067 
L 196.52073 217.872126 
L 196.846019 216.064358 
L 197.496598 220.735608 
L 197.821887 219.428344 
L 198.472465 222.465023 
L 198.797755 223.207219 
L 199.123044 225.243885 
L 199.448333 222.811566 
L 199.773622 221.532785 
L 200.424201 222.113541 
L 200.74949 221.23483 
L 201.074779 217.7011 
L 201.400068 216.385998 
L 201.725358 218.07929 
L 202.050647 216.921475 
L 202.701225 218.660148 
L 203.026515 215.17296 
L 203.677093 218.391614 
L 204.002382 222.895164 
L 204.327671 225.801765 
L 204.652961 224.552215 
L 204.97825 225.817766 
L 205.303539 224.432533 
L 205.628828 226.585886 
L 205.954117 227.799042 
L 206.279407 225.883749 
L 206.604696 222.520062 
L 206.929985 221.303887 
L 207.255274 218.946818 
L 207.580564 215.768568 
L 207.905853 214.29401 
L 208.231142 217.051546 
L 208.556431 217.837566 
L 208.88172 217.010968 
L 209.20701 218.446532 
L 209.532299 217.930788 
L 209.857588 221.702612 
L 210.182877 223.531978 
L 210.508166 222.34724 
L 210.833456 227.049573 
L 211.158745 228.926292 
L 211.484034 228.342087 
L 211.484034 228.342087 
" style="fill:none;stroke:#808080;stroke-linecap:square;stroke-width:0.75;"/>
   </g>
   <g id="line2d_17">
    <path clip-path="url(#p0c56af33d2)" d="M 49.164716 222.714715 
L 49.815294 225.07674 
L 50.140584 227.302717 
L 50.465873 225.484984 
L 50.791162 230.267244 
L 51.116451 226.56499 
L 51.44174 228.13764 
L 51.76703 227.429418 
L 52.092319 227.931725 
L 52.417608 224.845408 
L 52.742897 229.132162 
L 53.393476 230.481056 
L 53.718765 228.054034 
L 54.044054 230.307144 
L 54.369343 230.603462 
L 54.694633 232.374284 
L 55.019922 232.262922 
L 55.345211 231.01824 
L 55.6705 233.269936 
L 56.321079 228.938072 
L 56.646368 227.834988 
L 56.971657 225.922548 
L 57.296946 227.331153 
L 57.622235 227.573598 
L 57.947525 229.501306 
L 58.272814 229.993071 
L 58.598103 228.824178 
L 58.923392 230.214451 
L 59.248682 230.978494 
L 60.224549 235.476149 
L 60.549838 235.473057 
L 60.875128 237.773436 
L 61.200417 237.275311 
L 61.525706 233.807866 
L 61.850995 232.233255 
L 62.176285 232.602643 
L 62.826863 235.962522 
L 63.152152 232.437502 
L 63.477441 232.31112 
L 63.802731 233.613001 
L 64.12802 233.189911 
L 64.453309 228.797897 
L 64.778598 228.495658 
L 65.103887 227.161419 
L 65.429177 226.525586 
L 65.754466 227.245129 
L 66.079755 229.616709 
L 66.405044 230.279306 
L 66.730334 230.651645 
L 67.055623 229.369689 
L 67.706201 225.588773 
L 68.03149 224.973307 
L 68.35678 223.11596 
L 68.682069 224.683579 
L 69.007358 222.063726 
L 69.332647 220.973697 
L 69.657936 221.550794 
L 69.983226 220.502502 
L 70.308515 220.611538 
L 70.959093 215.00147 
L 71.284383 210.419179 
L 71.934961 216.299286 
L 72.26025 217.33159 
L 72.585539 216.9521 
L 72.910829 215.087199 
L 73.236118 214.404268 
L 73.561407 218.583896 
L 73.886696 219.200201 
L 74.211985 217.454074 
L 74.537275 216.928523 
L 74.862564 215.302203 
L 75.513142 216.14434 
L 75.838432 215.738753 
L 76.163721 214.866844 
L 76.814299 214.14517 
L 77.139588 215.500924 
L 77.464878 214.693168 
L 77.790167 214.414194 
L 78.440745 209.527415 
L 78.766034 209.129093 
L 79.091324 209.898581 
L 79.416613 211.220253 
L 79.741902 210.348492 
L 80.067191 210.177381 
L 80.392481 210.88706 
L 80.71777 210.801305 
L 81.043059 212.095975 
L 81.368348 210.646045 
L 81.693637 211.573046 
L 82.018927 209.027609 
L 82.344216 208.17266 
L 82.669505 206.909502 
L 82.994794 209.160404 
L 83.320083 208.79403 
L 83.645373 207.236552 
L 83.970662 209.191636 
L 84.295951 209.733811 
L 84.62124 209.653554 
L 84.94653 212.504897 
L 85.271819 211.841833 
L 85.597108 210.084238 
L 85.922397 211.869246 
L 86.247686 211.145269 
L 86.572976 213.893383 
L 86.898265 213.933661 
L 87.223554 217.262282 
L 87.548843 214.878652 
L 87.874132 214.002669 
L 88.199422 214.011653 
L 88.524711 215.585817 
L 88.85 212.910358 
L 89.175289 208.784742 
L 89.500579 212.646718 
L 90.151157 206.653845 
L 90.476446 205.911716 
L 90.801735 208.351882 
L 91.127025 206.531593 
L 91.452314 206.86739 
L 91.777603 208.093987 
L 92.102892 210.632077 
L 92.428181 209.47778 
L 92.753471 207.812176 
L 93.07876 209.080665 
L 93.404049 207.981652 
L 93.729338 210.338624 
L 94.054628 208.656629 
L 94.379917 208.546629 
L 94.705206 208.92158 
L 95.030495 209.120315 
L 95.681074 205.69562 
L 96.006363 204.526278 
L 96.656941 204.025466 
L 96.98223 202.720084 
L 97.30752 202.215161 
L 97.632809 200.736637 
L 97.958098 201.358989 
L 98.283387 206.393703 
L 98.608677 204.179983 
L 98.933966 199.599232 
L 99.259255 198.68884 
L 100.235123 199.518473 
L 100.560412 199.494622 
L 100.885701 201.847819 
L 101.21099 202.868999 
L 101.536279 204.932719 
L 101.861569 204.363521 
L 102.186858 204.957332 
L 102.512147 203.873044 
L 102.837436 204.224571 
L 103.162726 202.14665 
L 103.488015 201.643367 
L 103.813304 197.022765 
L 104.138593 200.968352 
L 104.463882 202.2844 
L 104.789172 200.353995 
L 105.114461 195.067414 
L 105.43975 195.588647 
L 105.765039 195.481899 
L 106.090328 195.942757 
L 106.415618 193.146368 
L 106.740907 193.722816 
L 107.066196 192.272616 
L 107.391485 192.909233 
L 107.716775 195.546476 
L 108.042064 194.878573 
L 108.367353 193.833234 
L 108.692642 191.104969 
L 109.017931 191.225215 
L 109.343221 192.406059 
L 109.66851 191.208431 
L 110.319088 189.90315 
L 110.644378 189.967069 
L 110.969667 187.456247 
L 111.294956 186.629585 
L 111.620245 182.657468 
L 111.945534 180.353706 
L 112.270824 178.94403 
L 112.596113 182.302243 
L 113.57198 178.446262 
L 113.89727 176.253095 
L 114.222559 177.065355 
L 114.547848 175.347287 
L 114.873137 176.482146 
L 115.198427 172.384279 
L 115.849005 178.771003 
L 116.174294 182.186511 
L 116.824873 186.432322 
L 117.150162 182.363263 
L 117.475451 183.061673 
L 117.80074 185.867989 
L 118.126029 183.574616 
L 118.451319 184.814493 
L 118.776608 187.460077 
L 119.427186 184.322196 
L 119.752476 185.273776 
L 120.077765 182.395479 
L 120.403054 182.143395 
L 120.728343 178.789024 
L 121.053632 177.712486 
L 121.378922 174.460917 
L 121.704211 174.215699 
L 122.0295 176.742864 
L 122.354789 171.622594 
L 122.680078 172.7598 
L 123.005368 173.133357 
L 123.330657 174.553956 
L 123.655946 174.959405 
L 124.306525 173.986789 
L 124.631814 172.589893 
L 124.957103 168.815603 
L 125.282392 169.015553 
L 125.932971 174.007856 
L 126.25826 175.378081 
L 126.583549 178.831222 
L 126.908838 177.080457 
L 127.234127 178.12036 
L 127.559417 178.7602 
L 127.884706 178.737478 
L 128.209995 181.624608 
L 128.535284 183.42176 
L 129.185863 180.750151 
L 129.511152 181.660527 
L 129.836441 177.885857 
L 130.16173 180.604653 
L 130.812309 181.782958 
L 131.137598 187.612657 
L 131.462887 183.507959 
L 131.788176 182.757457 
L 132.113466 184.947509 
L 132.438755 180.736182 
L 133.089333 178.553163 
L 133.414623 179.800931 
L 133.739912 179.526812 
L 134.065201 182.65789 
L 134.39049 181.013222 
L 134.715779 181.789294 
L 135.041069 181.514518 
L 135.366358 179.007524 
L 136.342225 177.234374 
L 136.667515 178.767298 
L 136.992804 176.996756 
L 137.318093 173.776349 
L 137.968672 170.307217 
L 138.61925 173.935734 
L 138.944539 176.922458 
L 139.269828 174.348187 
L 139.595118 174.862164 
L 139.920407 171.916131 
L 140.245696 173.533384 
L 140.570985 174.424937 
L 140.896274 174.209314 
L 141.221564 172.270826 
L 141.546853 172.117782 
L 141.872142 171.656483 
L 142.197431 171.619502 
L 142.522721 171.249058 
L 142.84801 173.588219 
L 143.173299 173.399886 
L 143.498588 173.762758 
L 143.823877 173.86325 
L 144.149167 172.818272 
L 144.474456 174.195571 
L 144.799745 174.354948 
L 145.125034 174.958968 
L 145.450323 174.059686 
L 145.775613 172.404976 
L 146.100902 174.366728 
L 146.426191 173.128589 
L 146.75148 168.77996 
L 147.07677 171.797048 
L 147.727348 175.335004 
L 148.052637 175.879479 
L 148.377926 172.463436 
L 148.703216 172.402851 
L 149.028505 173.8209 
L 149.353794 172.506011 
L 149.679083 173.722861 
L 150.004372 171.361825 
L 150.329662 170.733538 
L 150.654951 167.85152 
L 150.98024 169.222577 
L 151.305529 162.864183 
L 151.956108 159.705142 
L 152.281397 159.813452 
L 152.931975 163.084772 
L 153.257265 163.348551 
L 153.582554 165.004106 
L 153.907843 164.421315 
L 154.233132 166.15709 
L 154.558422 164.883625 
L 154.883711 162.896469 
L 155.209 164.342878 
L 155.534289 161.869143 
L 155.859578 162.330627 
L 156.184868 159.890406 
L 156.510157 158.964791 
L 156.835446 156.687439 
L 157.160735 159.046671 
L 157.486024 159.325448 
L 157.811314 156.330341 
L 158.136603 157.93406 
L 159.43776 176.019763 
L 159.763049 176.850861 
L 160.088338 174.177147 
L 160.413627 175.082402 
L 160.738917 174.375795 
L 161.064206 174.588962 
L 161.389495 174.5516 
L 162.040073 175.219846 
L 162.365363 174.223043 
L 162.690652 176.659003 
L 163.34123 172.599749 
L 163.66652 172.969634 
L 163.991809 171.24643 
L 164.642387 173.800083 
L 164.967676 173.456143 
L 165.292966 173.829209 
L 165.618255 174.746984 
L 166.268833 177.263219 
L 166.594122 175.308423 
L 166.919412 179.324328 
L 167.244701 178.537082 
L 167.56999 179.012562 
L 168.220569 176.384601 
L 168.545858 182.165279 
L 168.871147 180.964008 
L 169.196436 180.281794 
L 169.521725 180.196399 
L 169.847015 181.128608 
L 170.172304 179.346075 
L 170.497593 180.155138 
L 170.822882 176.281111 
L 171.148171 175.080514 
L 171.473461 170.590111 
L 171.79875 172.242293 
L 172.124039 175.879025 
L 172.774618 172.562261 
L 173.099907 172.45271 
L 173.425196 175.629567 
L 173.750485 176.523603 
L 174.075774 175.214888 
L 174.726353 175.765325 
L 175.051642 176.095328 
L 175.376931 178.01723 
L 175.70222 179.121891 
L 176.02751 182.051975 
L 176.352799 178.381128 
L 176.678088 179.359223 
L 177.003377 178.310716 
L 177.328667 180.430041 
L 177.653956 178.742338 
L 177.979245 182.623099 
L 178.304534 180.717128 
L 178.629823 180.775329 
L 178.955113 176.360864 
L 179.280402 179.062966 
L 179.605691 178.861529 
L 179.93098 178.064004 
L 180.256269 175.484904 
L 180.581559 176.326551 
L 180.906848 176.123106 
L 181.232137 180.565991 
L 181.557426 182.273897 
L 181.882716 181.350111 
L 182.208005 179.046444 
L 182.533294 179.592735 
L 183.183872 171.546883 
L 183.509162 171.67551 
L 184.15974 180.399368 
L 184.485029 181.989218 
L 184.810318 179.676374 
L 185.135608 178.978612 
L 185.460897 183.308566 
L 185.786186 183.792374 
L 186.111475 180.455324 
L 186.436765 181.207737 
L 186.762054 182.769833 
L 187.087343 178.496032 
L 187.412632 178.368316 
L 187.737921 179.354586 
L 188.063211 178.571894 
L 188.3885 178.517276 
L 188.713789 179.395296 
L 189.364367 174.48721 
L 189.689657 172.716083 
L 190.014946 172.890562 
L 190.340235 170.455356 
L 190.665524 170.571874 
L 190.990814 169.612449 
L 191.641392 165.76575 
L 191.966681 162.050504 
L 192.29197 161.076911 
L 192.942549 166.971931 
L 193.267838 164.178294 
L 193.593127 164.88369 
L 193.918416 164.084434 
L 194.243706 165.874518 
L 194.568995 163.806702 
L 194.894284 164.620079 
L 195.219573 161.589242 
L 195.544863 162.658897 
L 195.870152 160.297593 
L 196.195441 158.855315 
L 196.52073 160.4351 
L 196.846019 158.101554 
L 197.496598 161.81397 
L 197.821887 160.273085 
L 198.472465 162.739817 
L 198.797755 163.428549 
L 199.123044 165.511431 
L 199.448333 163.346784 
L 199.773622 162.070393 
L 200.424201 162.377407 
L 200.74949 161.407919 
L 201.074779 157.682248 
L 201.400068 156.049306 
L 201.725358 157.45195 
L 202.050647 156.03631 
L 202.701225 157.328264 
L 203.026515 153.653295 
L 203.677093 156.540243 
L 204.327671 163.781337 
L 204.652961 162.850704 
L 204.97825 164.273337 
L 205.303539 163.21259 
L 205.954117 167.138673 
L 206.279407 165.751208 
L 206.604696 162.721586 
L 206.929985 161.457224 
L 207.255274 158.916016 
L 207.580564 155.428688 
L 207.905853 153.662712 
L 208.231142 156.156087 
L 208.556431 156.707572 
L 208.88172 155.67118 
L 209.20701 156.915707 
L 209.532299 156.230827 
L 209.857588 159.848739 
L 210.182877 161.568 
L 210.508166 160.424179 
L 210.833456 165.048646 
L 211.158745 167.365881 
L 211.484034 167.416309 
L 211.484034 167.416309 
" style="fill:none;stroke:#ff7f0e;stroke-linecap:square;stroke-width:1.5;"/>
   </g>
   <g id="line2d_18">
    <path clip-path="url(#p0c56af33d2)" d="M 41.04875 222.714715 
L 219.6 222.714715 
" style="fill:none;stroke:#808080;stroke-dasharray:2.775,1.2;stroke-dashoffset:0;stroke-width:0.75;"/>
   </g>
   <g id="patch_8">
    <path d="M 41.04875 242.9725 
L 41.04875 149.4 
" style="fill:none;stroke:#000000;stroke-linecap:square;stroke-linejoin:miter;stroke-width:0.8;"/>
   </g>
   <g id="patch_9">
    <path d="M 219.6 242.9725 
L 219.6 149.4 
" style="fill:none;stroke:#000000;stroke-linecap:square;stroke-linejoin:miter;stroke-width:0.8;"/>
   </g>
   <g id="patch_10">
    <path d="M 41.04875 242.9725 
L 219.6 242.9725 
" style="fill:none;stroke:#000000;stroke-linecap:square;stroke-linejoin:miter;stroke-width:0.8;"/>
   </g>
   <g id="patch_11">
    <path d="M 41.04875 149.4 
L 219.6 149.4 
" style="fill:none;stroke:#000000;stroke-linecap:square;stroke-linejoin:miter;stroke-width:0.8;"/>
   </g>
  </g>
 </g>
 <defs>
  <clipPath id="p84c0d24511">
   <rect height="93.5725" width="178.55125" x="41.04875" y="10.8"/>
  </clipPath>
  <clipPath id="p0c56af33d2">
   <rect height="93.5725" width="178.55125" x="41.04875" y="149.4"/>
  </clipPath>
 </defs>
</svg>
