<?xml version="1.0" encoding="utf-8" standalone="no"?>
<!DOCTYPE svg PUBLIC "-//W3C//DTD SVG 1.1//EN"
  "http://www.w3.org/Graphics/SVG/1.1/DTD/svg11.dtd">
<svg xmlns:xlink="http://www.w3.org/1999/xlink" width="208.8pt" height="201.6pt" viewBox="0 0 208.8 201.6" xmlns="http://www.w3.org/2000/svg" version="1.1">
 <metadata>
  <rdf:RDF xmlns:dc="http://purl.org/dc/elements/1.1/" xmlns:cc="http://creativecommons.org/ns#" xmlns:rdf="http://www.w3.org/1999/02/22-rdf-syntax-ns#">
   <cc:Work>
    <dc:type rdf:resource="http://purl.org/dc/dcmitype/StillImage"/>
    <dc:date>2025-05-11T23:42:47.112344</dc:date>
    <dc:format>image/svg+xml</dc:format>
    <dc:creator>
     <cc:Agent>
      <dc:title>Matplotlib v3.5.2, https://matplotlib.org/</dc:title>
     </cc:Agent>
    </dc:creator>
   </cc:Work>
  </rdf:RDF>
 </metadata>
 <defs>
  <style type="text/css">*{stroke-linejoin: round; stroke-linecap: butt}</style>
 </defs>
 <g id="figure_1">
  <g id="patch_1">
   <path d="M 0 201.6 
L 208.8 201.6 
L 208.8 0 
L 0 0 
z
" style="fill: #ffffff"/>
  </g>
  <g id="axes_1">
   <g id="patch_2">
    <path d="M 48.68375 156.5725 
L 195.739988 156.5725 
L 195.739988 12.096931 
L 48.68375 12.096931 
z
" style="fill: #ffffff"/>
   </g>
   <g id="matplotlib.axis_1">
    <g id="xtick_1">
     <g id="line2d_1">
      <defs>
       <path id="m9b084bc9d9" d="M 0 0 
L 0 3.5 
" style="stroke: #000000; stroke-width: 0.8"/>
      </defs>
      <g>
       <use xlink:href="#m9b084bc9d9" x="55.368124" y="156.5725" style="stroke: #000000; stroke-width: 0.8"/>
      </g>
     </g>
     <g id="text_1">
      <!-- 0 -->
      <g transform="translate(51.550624 172.690625)scale(0.12 -0.12)">
       <defs>
        <path id="DejaVuSans-30" d="M 2034 4250 
Q 1547 4250 1301 3770 
Q 1056 3291 1056 2328 
Q 1056 1369 1301 889 
Q 1547 409 2034 409 
Q 2525 409 2770 889 
Q 3016 1369 3016 2328 
Q 3016 3291 2770 3770 
Q 2525 4250 2034 4250 
z
M 2034 4750 
Q 2819 4750 3233 4129 
Q 3647 3509 3647 2328 
Q 3647 1150 3233 529 
Q 2819 -91 2034 -91 
Q 1250 -91 836 529 
Q 422 1150 422 2328 
Q 422 3509 836 4129 
Q 1250 4750 2034 4750 
z
" transform="scale(0.015625)"/>
       </defs>
       <use xlink:href="#DejaVuSans-30"/>
      </g>
     </g>
    </g>
    <g id="xtick_2">
     <g id="line2d_2">
      <g>
       <use xlink:href="#m9b084bc9d9" x="122.245308" y="156.5725" style="stroke: #000000; stroke-width: 0.8"/>
      </g>
     </g>
     <g id="text_2">
      <!-- 1 -->
      <g transform="translate(118.427808 172.690625)scale(0.12 -0.12)">
       <defs>
        <path id="DejaVuSans-31" d="M 794 531 
L 1825 531 
L 1825 4091 
L 703 3866 
L 703 4441 
L 1819 4666 
L 2450 4666 
L 2450 531 
L 3481 531 
L 3481 0 
L 794 0 
L 794 531 
z
" transform="scale(0.015625)"/>
       </defs>
       <use xlink:href="#DejaVuSans-31"/>
      </g>
     </g>
    </g>
    <g id="xtick_3">
     <g id="line2d_3">
      <g>
       <use xlink:href="#m9b084bc9d9" x="189.122491" y="156.5725" style="stroke: #000000; stroke-width: 0.8"/>
      </g>
     </g>
     <g id="text_3">
      <!-- 2 -->
      <g transform="translate(185.304991 172.690625)scale(0.12 -0.12)">
       <defs>
        <path id="DejaVuSans-32" d="M 1228 531 
L 3431 531 
L 3431 0 
L 469 0 
L 469 531 
Q 828 903 1448 1529 
Q 2069 2156 2228 2338 
Q 2531 2678 2651 2914 
Q 2772 3150 2772 3378 
Q 2772 3750 2511 3984 
Q 2250 4219 1831 4219 
Q 1534 4219 1204 4116 
Q 875 4013 500 3803 
L 500 4441 
Q 881 4594 1212 4672 
Q 1544 4750 1819 4750 
Q 2544 4750 2975 4387 
Q 3406 4025 3406 3419 
Q 3406 3131 3298 2873 
Q 3191 2616 2906 2266 
Q 2828 2175 2409 1742 
Q 1991 1309 1228 531 
z
" transform="scale(0.015625)"/>
       </defs>
       <use xlink:href="#DejaVuSans-32"/>
      </g>
     </g>
    </g>
    <g id="text_4">
     <!-- Time (s) -->
     <g transform="translate(97.817182 188.304375)scale(0.12 -0.12)">
      <defs>
       <path id="DejaVuSans-54" d="M -19 4666 
L 3928 4666 
L 3928 4134 
L 2272 4134 
L 2272 0 
L 1638 0 
L 1638 4134 
L -19 4134 
L -19 4666 
z
" transform="scale(0.015625)"/>
       <path id="DejaVuSans-69" d="M 603 3500 
L 1178 3500 
L 1178 0 
L 603 0 
L 603 3500 
z
M 603 4863 
L 1178 4863 
L 1178 4134 
L 603 4134 
L 603 4863 
z
" transform="scale(0.015625)"/>
       <path id="DejaVuSans-6d" d="M 3328 2828 
Q 3544 3216 3844 3400 
Q 4144 3584 4550 3584 
Q 5097 3584 5394 3201 
Q 5691 2819 5691 2113 
L 5691 0 
L 5113 0 
L 5113 2094 
Q 5113 2597 4934 2840 
Q 4756 3084 4391 3084 
Q 3944 3084 3684 2787 
Q 3425 2491 3425 1978 
L 3425 0 
L 2847 0 
L 2847 2094 
Q 2847 2600 2669 2842 
Q 2491 3084 2119 3084 
Q 1678 3084 1418 2786 
Q 1159 2488 1159 1978 
L 1159 0 
L 581 0 
L 581 3500 
L 1159 3500 
L 1159 2956 
Q 1356 3278 1631 3431 
Q 1906 3584 2284 3584 
Q 2666 3584 2933 3390 
Q 3200 3197 3328 2828 
z
" transform="scale(0.015625)"/>
       <path id="DejaVuSans-65" d="M 3597 1894 
L 3597 1613 
L 953 1613 
Q 991 1019 1311 708 
Q 1631 397 2203 397 
Q 2534 397 2845 478 
Q 3156 559 3463 722 
L 3463 178 
Q 3153 47 2828 -22 
Q 2503 -91 2169 -91 
Q 1331 -91 842 396 
Q 353 884 353 1716 
Q 353 2575 817 3079 
Q 1281 3584 2069 3584 
Q 2775 3584 3186 3129 
Q 3597 2675 3597 1894 
z
M 3022 2063 
Q 3016 2534 2758 2815 
Q 2500 3097 2075 3097 
Q 1594 3097 1305 2825 
Q 1016 2553 972 2059 
L 3022 2063 
z
" transform="scale(0.015625)"/>
       <path id="DejaVuSans-20" transform="scale(0.015625)"/>
       <path id="DejaVuSans-28" d="M 1984 4856 
Q 1566 4138 1362 3434 
Q 1159 2731 1159 2009 
Q 1159 1288 1364 580 
Q 1569 -128 1984 -844 
L 1484 -844 
Q 1016 -109 783 600 
Q 550 1309 550 2009 
Q 550 2706 781 3412 
Q 1013 4119 1484 4856 
L 1984 4856 
z
" transform="scale(0.015625)"/>
       <path id="DejaVuSans-73" d="M 2834 3397 
L 2834 2853 
Q 2591 2978 2328 3040 
Q 2066 3103 1784 3103 
Q 1356 3103 1142 2972 
Q 928 2841 928 2578 
Q 928 2378 1081 2264 
Q 1234 2150 1697 2047 
L 1894 2003 
Q 2506 1872 2764 1633 
Q 3022 1394 3022 966 
Q 3022 478 2636 193 
Q 2250 -91 1575 -91 
Q 1294 -91 989 -36 
Q 684 19 347 128 
L 347 722 
Q 666 556 975 473 
Q 1284 391 1588 391 
Q 1994 391 2212 530 
Q 2431 669 2431 922 
Q 2431 1156 2273 1281 
Q 2116 1406 1581 1522 
L 1381 1569 
Q 847 1681 609 1914 
Q 372 2147 372 2553 
Q 372 3047 722 3315 
Q 1072 3584 1716 3584 
Q 2034 3584 2315 3537 
Q 2597 3491 2834 3397 
z
" transform="scale(0.015625)"/>
       <path id="DejaVuSans-29" d="M 513 4856 
L 1013 4856 
Q 1481 4119 1714 3412 
Q 1947 2706 1947 2009 
Q 1947 1309 1714 600 
Q 1481 -109 1013 -844 
L 513 -844 
Q 928 -128 1133 580 
Q 1338 1288 1338 2009 
Q 1338 2731 1133 3434 
Q 928 4138 513 4856 
z
" transform="scale(0.015625)"/>
      </defs>
      <use xlink:href="#DejaVuSans-54"/>
      <use xlink:href="#DejaVuSans-69" x="57.958984"/>
      <use xlink:href="#DejaVuSans-6d" x="85.742188"/>
      <use xlink:href="#DejaVuSans-65" x="183.154297"/>
      <use xlink:href="#DejaVuSans-20" x="244.677734"/>
      <use xlink:href="#DejaVuSans-28" x="276.464844"/>
      <use xlink:href="#DejaVuSans-73" x="315.478516"/>
      <use xlink:href="#DejaVuSans-29" x="367.578125"/>
     </g>
    </g>
   </g>
   <g id="matplotlib.axis_2">
    <g id="ytick_1">
     <g id="line2d_4">
      <defs>
       <path id="ma9e58686c3" d="M 0 0 
L -3.5 0 
" style="stroke: #000000; stroke-width: 0.8"/>
      </defs>
      <g>
       <use xlink:href="#ma9e58686c3" x="48.68375" y="136.006962" style="stroke: #000000; stroke-width: 0.8"/>
      </g>
     </g>
     <g id="text_5">
      <!-- 0 -->
      <g transform="translate(34.04875 140.566025)scale(0.12 -0.12)">
       <use xlink:href="#DejaVuSans-30"/>
      </g>
     </g>
    </g>
    <g id="ytick_2">
     <g id="line2d_5">
      <g>
       <use xlink:href="#ma9e58686c3" x="48.68375" y="111.832174" style="stroke: #000000; stroke-width: 0.8"/>
      </g>
     </g>
     <g id="text_6">
      <!-- 2 -->
      <g transform="translate(34.04875 116.391236)scale(0.12 -0.12)">
       <use xlink:href="#DejaVuSans-32"/>
      </g>
     </g>
    </g>
    <g id="ytick_3">
     <g id="line2d_6">
      <g>
       <use xlink:href="#ma9e58686c3" x="48.68375" y="87.657386" style="stroke: #000000; stroke-width: 0.8"/>
      </g>
     </g>
     <g id="text_7">
      <!-- 4 -->
      <g transform="translate(34.04875 92.216448)scale(0.12 -0.12)">
       <defs>
        <path id="DejaVuSans-34" d="M 2419 4116 
L 825 1625 
L 2419 1625 
L 2419 4116 
z
M 2253 4666 
L 3047 4666 
L 3047 1625 
L 3713 1625 
L 3713 1100 
L 3047 1100 
L 3047 0 
L 2419 0 
L 2419 1100 
L 313 1100 
L 313 1709 
L 2253 4666 
z
" transform="scale(0.015625)"/>
       </defs>
       <use xlink:href="#DejaVuSans-34"/>
      </g>
     </g>
    </g>
    <g id="ytick_4">
     <g id="line2d_7">
      <g>
       <use xlink:href="#ma9e58686c3" x="48.68375" y="63.482597" style="stroke: #000000; stroke-width: 0.8"/>
      </g>
     </g>
     <g id="text_8">
      <!-- 6 -->
      <g transform="translate(34.04875 68.04166)scale(0.12 -0.12)">
       <defs>
        <path id="DejaVuSans-36" d="M 2113 2584 
Q 1688 2584 1439 2293 
Q 1191 2003 1191 1497 
Q 1191 994 1439 701 
Q 1688 409 2113 409 
Q 2538 409 2786 701 
Q 3034 994 3034 1497 
Q 3034 2003 2786 2293 
Q 2538 2584 2113 2584 
z
M 3366 4563 
L 3366 3988 
Q 3128 4100 2886 4159 
Q 2644 4219 2406 4219 
Q 1781 4219 1451 3797 
Q 1122 3375 1075 2522 
Q 1259 2794 1537 2939 
Q 1816 3084 2150 3084 
Q 2853 3084 3261 2657 
Q 3669 2231 3669 1497 
Q 3669 778 3244 343 
Q 2819 -91 2113 -91 
Q 1303 -91 875 529 
Q 447 1150 447 2328 
Q 447 3434 972 4092 
Q 1497 4750 2381 4750 
Q 2619 4750 2861 4703 
Q 3103 4656 3366 4563 
z
" transform="scale(0.015625)"/>
       </defs>
       <use xlink:href="#DejaVuSans-36"/>
      </g>
     </g>
    </g>
    <g id="ytick_5">
     <g id="line2d_8">
      <g>
       <use xlink:href="#ma9e58686c3" x="48.68375" y="39.307809" style="stroke: #000000; stroke-width: 0.8"/>
      </g>
     </g>
     <g id="text_9">
      <!-- 8 -->
      <g transform="translate(34.04875 43.866872)scale(0.12 -0.12)">
       <defs>
        <path id="DejaVuSans-38" d="M 2034 2216 
Q 1584 2216 1326 1975 
Q 1069 1734 1069 1313 
Q 1069 891 1326 650 
Q 1584 409 2034 409 
Q 2484 409 2743 651 
Q 3003 894 3003 1313 
Q 3003 1734 2745 1975 
Q 2488 2216 2034 2216 
z
M 1403 2484 
Q 997 2584 770 2862 
Q 544 3141 544 3541 
Q 544 4100 942 4425 
Q 1341 4750 2034 4750 
Q 2731 4750 3128 4425 
Q 3525 4100 3525 3541 
Q 3525 3141 3298 2862 
Q 3072 2584 2669 2484 
Q 3125 2378 3379 2068 
Q 3634 1759 3634 1313 
Q 3634 634 3220 271 
Q 2806 -91 2034 -91 
Q 1263 -91 848 271 
Q 434 634 434 1313 
Q 434 1759 690 2068 
Q 947 2378 1403 2484 
z
M 1172 3481 
Q 1172 3119 1398 2916 
Q 1625 2713 2034 2713 
Q 2441 2713 2670 2916 
Q 2900 3119 2900 3481 
Q 2900 3844 2670 4047 
Q 2441 4250 2034 4250 
Q 1625 4250 1398 4047 
Q 1172 3844 1172 3481 
z
" transform="scale(0.015625)"/>
       </defs>
       <use xlink:href="#DejaVuSans-38"/>
      </g>
     </g>
    </g>
    <g id="ytick_6">
     <g id="line2d_9">
      <g>
       <use xlink:href="#ma9e58686c3" x="48.68375" y="15.133021" style="stroke: #000000; stroke-width: 0.8"/>
      </g>
     </g>
     <g id="text_10">
      <!-- 10 -->
      <g transform="translate(26.41375 19.692083)scale(0.12 -0.12)">
       <use xlink:href="#DejaVuSans-31"/>
       <use xlink:href="#DejaVuSans-30" x="63.623047"/>
      </g>
     </g>
    </g>
    <g id="text_11">
     <!-- Squared error -->
     <g transform="translate(19.918125 125.694403)rotate(-90)scale(0.12 -0.12)">
      <defs>
       <path id="DejaVuSans-53" d="M 3425 4513 
L 3425 3897 
Q 3066 4069 2747 4153 
Q 2428 4238 2131 4238 
Q 1616 4238 1336 4038 
Q 1056 3838 1056 3469 
Q 1056 3159 1242 3001 
Q 1428 2844 1947 2747 
L 2328 2669 
Q 3034 2534 3370 2195 
Q 3706 1856 3706 1288 
Q 3706 609 3251 259 
Q 2797 -91 1919 -91 
Q 1588 -91 1214 -16 
Q 841 59 441 206 
L 441 856 
Q 825 641 1194 531 
Q 1563 422 1919 422 
Q 2459 422 2753 634 
Q 3047 847 3047 1241 
Q 3047 1584 2836 1778 
Q 2625 1972 2144 2069 
L 1759 2144 
Q 1053 2284 737 2584 
Q 422 2884 422 3419 
Q 422 4038 858 4394 
Q 1294 4750 2059 4750 
Q 2388 4750 2728 4690 
Q 3069 4631 3425 4513 
z
" transform="scale(0.015625)"/>
       <path id="DejaVuSans-71" d="M 947 1747 
Q 947 1113 1208 752 
Q 1469 391 1925 391 
Q 2381 391 2643 752 
Q 2906 1113 2906 1747 
Q 2906 2381 2643 2742 
Q 2381 3103 1925 3103 
Q 1469 3103 1208 2742 
Q 947 2381 947 1747 
z
M 2906 525 
Q 2725 213 2448 61 
Q 2172 -91 1784 -91 
Q 1150 -91 751 415 
Q 353 922 353 1747 
Q 353 2572 751 3078 
Q 1150 3584 1784 3584 
Q 2172 3584 2448 3432 
Q 2725 3281 2906 2969 
L 2906 3500 
L 3481 3500 
L 3481 -1331 
L 2906 -1331 
L 2906 525 
z
" transform="scale(0.015625)"/>
       <path id="DejaVuSans-75" d="M 544 1381 
L 544 3500 
L 1119 3500 
L 1119 1403 
Q 1119 906 1312 657 
Q 1506 409 1894 409 
Q 2359 409 2629 706 
Q 2900 1003 2900 1516 
L 2900 3500 
L 3475 3500 
L 3475 0 
L 2900 0 
L 2900 538 
Q 2691 219 2414 64 
Q 2138 -91 1772 -91 
Q 1169 -91 856 284 
Q 544 659 544 1381 
z
M 1991 3584 
L 1991 3584 
z
" transform="scale(0.015625)"/>
       <path id="DejaVuSans-61" d="M 2194 1759 
Q 1497 1759 1228 1600 
Q 959 1441 959 1056 
Q 959 750 1161 570 
Q 1363 391 1709 391 
Q 2188 391 2477 730 
Q 2766 1069 2766 1631 
L 2766 1759 
L 2194 1759 
z
M 3341 1997 
L 3341 0 
L 2766 0 
L 2766 531 
Q 2569 213 2275 61 
Q 1981 -91 1556 -91 
Q 1019 -91 701 211 
Q 384 513 384 1019 
Q 384 1609 779 1909 
Q 1175 2209 1959 2209 
L 2766 2209 
L 2766 2266 
Q 2766 2663 2505 2880 
Q 2244 3097 1772 3097 
Q 1472 3097 1187 3025 
Q 903 2953 641 2809 
L 641 3341 
Q 956 3463 1253 3523 
Q 1550 3584 1831 3584 
Q 2591 3584 2966 3190 
Q 3341 2797 3341 1997 
z
" transform="scale(0.015625)"/>
       <path id="DejaVuSans-72" d="M 2631 2963 
Q 2534 3019 2420 3045 
Q 2306 3072 2169 3072 
Q 1681 3072 1420 2755 
Q 1159 2438 1159 1844 
L 1159 0 
L 581 0 
L 581 3500 
L 1159 3500 
L 1159 2956 
Q 1341 3275 1631 3429 
Q 1922 3584 2338 3584 
Q 2397 3584 2469 3576 
Q 2541 3569 2628 3553 
L 2631 2963 
z
" transform="scale(0.015625)"/>
       <path id="DejaVuSans-64" d="M 2906 2969 
L 2906 4863 
L 3481 4863 
L 3481 0 
L 2906 0 
L 2906 525 
Q 2725 213 2448 61 
Q 2172 -91 1784 -91 
Q 1150 -91 751 415 
Q 353 922 353 1747 
Q 353 2572 751 3078 
Q 1150 3584 1784 3584 
Q 2172 3584 2448 3432 
Q 2725 3281 2906 2969 
z
M 947 1747 
Q 947 1113 1208 752 
Q 1469 391 1925 391 
Q 2381 391 2643 752 
Q 2906 1113 2906 1747 
Q 2906 2381 2643 2742 
Q 2381 3103 1925 3103 
Q 1469 3103 1208 2742 
Q 947 2381 947 1747 
z
" transform="scale(0.015625)"/>
       <path id="DejaVuSans-6f" d="M 1959 3097 
Q 1497 3097 1228 2736 
Q 959 2375 959 1747 
Q 959 1119 1226 758 
Q 1494 397 1959 397 
Q 2419 397 2687 759 
Q 2956 1122 2956 1747 
Q 2956 2369 2687 2733 
Q 2419 3097 1959 3097 
z
M 1959 3584 
Q 2709 3584 3137 3096 
Q 3566 2609 3566 1747 
Q 3566 888 3137 398 
Q 2709 -91 1959 -91 
Q 1206 -91 779 398 
Q 353 888 353 1747 
Q 353 2609 779 3096 
Q 1206 3584 1959 3584 
z
" transform="scale(0.015625)"/>
      </defs>
      <use xlink:href="#DejaVuSans-53"/>
      <use xlink:href="#DejaVuSans-71" x="63.476562"/>
      <use xlink:href="#DejaVuSans-75" x="126.953125"/>
      <use xlink:href="#DejaVuSans-61" x="190.332031"/>
      <use xlink:href="#DejaVuSans-72" x="251.611328"/>
      <use xlink:href="#DejaVuSans-65" x="290.474609"/>
      <use xlink:href="#DejaVuSans-64" x="351.998047"/>
      <use xlink:href="#DejaVuSans-20" x="415.474609"/>
      <use xlink:href="#DejaVuSans-65" x="447.261719"/>
      <use xlink:href="#DejaVuSans-72" x="508.785156"/>
      <use xlink:href="#DejaVuSans-72" x="548.148438"/>
      <use xlink:href="#DejaVuSans-6f" x="587.011719"/>
      <use xlink:href="#DejaVuSans-72" x="648.193359"/>
     </g>
    </g>
   </g>
   <g id="line2d_10">
    <path d="M 55.368124 135.974779 
L 56.505037 135.866527 
L 57.307563 135.590403 
L 58.243843 134.971046 
L 59.313878 134.006614 
L 60.985808 131.948593 
L 64.864684 126.498565 
L 67.472895 123.343106 
L 68.409175 122.065078 
L 69.211701 121.510246 
L 69.546087 121.459063 
L 70.281736 121.405302 
L 71.351771 121.338216 
L 71.886789 121.559083 
L 73.625595 121.369941 
L 76.100051 120.494971 
L 77.504472 119.353573 
L 78.306998 119.241784 
L 78.97577 118.860032 
L 80.915208 117.574009 
L 81.58398 117.557001 
L 82.988401 118.237837 
L 84.392822 119.136482 
L 84.794085 119.339589 
L 85.128471 119.455162 
L 85.529734 119.596111 
L 86.666646 120.250829 
L 88.204821 120.733306 
L 88.539207 120.616442 
L 89.475488 120.121152 
L 89.742997 119.889595 
L 91.214295 118.13873 
L 92.484961 117.43216 
L 93.554996 117.573123 
L 94.023136 117.509486 
L 94.290645 117.472259 
L 95.761943 117.577935 
L 96.096329 117.499984 
L 96.430715 117.650692 
L 96.831978 117.820571 
L 97.902013 117.978968 
L 98.43703 118.066282 
L 98.905171 118.138629 
L 99.172679 118.130715 
L 99.707697 117.94282 
L 100.10896 117.941117 
L 100.777732 118.043575 
L 101.245872 118.219302 
L 101.78089 118.509981 
L 102.115276 118.760276 
L 102.449661 118.983322 
L 104.3891 119.463961 
L 104.990994 119.811714 
L 105.258503 119.789368 
L 105.659766 119.562283 
L 107.331696 118.292676 
L 109.739274 117.958578 
L 110.006783 117.715997 
L 110.675555 117.120286 
L 112.481239 115.944865 
L 112.815625 115.758222 
L 113.484397 115.726351 
L 114.019414 115.555903 
L 116.895133 113.770261 
L 118.232677 112.739525 
L 119.703975 111.692972 
L 120.172115 111.423031 
L 120.707132 111.189004 
L 121.041518 111.188311 
L 121.910922 111.152606 
L 122.91408 110.143179 
L 124.117869 109.226162 
L 124.853518 108.383282 
L 125.455412 107.428438 
L 125.923553 106.880046 
L 126.592325 106.285733 
L 127.528605 105.15989 
L 128.398009 104.200052 
L 129.468043 103.9175 
L 131.073096 102.383258 
L 131.407482 102.309742 
L 132.076254 102.196505 
L 132.343762 102.102454 
L 132.745025 102.236836 
L 133.480674 102.149775 
L 133.948815 101.711864 
L 135.085727 100.287475 
L 136.356393 98.013094 
L 137.693937 96.847638 
L 138.295832 96.819556 
L 138.496463 96.780799 
L 140.302147 95.060734 
L 140.837165 93.873829 
L 142.308463 90.509285 
L 143.31162 89.142386 
L 143.512252 89.014369 
L 143.913515 88.825853 
L 144.51541 88.594151 
L 144.916673 88.309577 
L 145.184182 88.249325 
L 145.919831 88.063315 
L 147.524883 86.668813 
L 147.792392 86.325803 
L 148.528041 85.510177 
L 149.865584 84.851377 
L 151.069374 83.674076 
L 151.470637 83.248751 
L 151.805023 83.210002 
L 152.34004 83.412569 
L 152.607549 83.533284 
L 153.410075 83.479425 
L 154.078847 83.415593 
L 154.546987 83.15806 
L 155.148882 82.716351 
L 155.617022 82.490535 
L 157.08832 81.662839 
L 158.358987 81.096213 
L 159.362144 80.699311 
L 159.629653 80.6671 
L 160.097793 80.515004 
L 160.432179 80.545462 
L 160.766565 80.555526 
L 161.100951 80.422985 
L 161.435337 80.119174 
L 162.037232 79.099304 
L 162.505372 78.42036 
L 163.241021 77.685703 
L 163.50853 77.674479 
L 164.645442 78.231312 
L 164.846073 78.214583 
L 165.247337 78.437188 
L 165.782354 78.976602 
L 166.11674 79.773306 
L 166.518003 80.742872 
L 166.919266 81.167165 
L 167.387406 81.29379 
L 167.788669 81.236373 
L 168.123055 81.137234 
L 168.72495 81.012299 
L 169.19309 80.548622 
L 169.861862 79.535653 
L 170.196248 78.80352 
L 171.199406 75.952036 
L 171.600669 75.444495 
L 171.935055 75.335188 
L 172.336318 75.624401 
L 173.00509 76.016372 
L 173.94137 75.575682 
L 174.543265 75.56459 
L 175.6133 74.531721 
L 175.880809 74.612304 
L 176.482703 74.40542 
L 176.683335 74.419181 
L 177.352107 73.985085 
L 177.887124 73.923352 
L 178.087756 73.895707 
L 178.489019 74.16131 
L 179.291545 74.369243 
L 179.692808 74.292955 
L 179.960317 74.097421 
L 180.562211 73.503222 
L 180.82972 73.21694 
L 182.167264 70.676802 
L 182.836036 69.036688 
L 183.906071 66.278224 
L 185.444246 63.397434 
L 186.04614 62.555959 
L 186.380526 62.064583 
L 187.116175 60.812705 
L 187.316807 60.705224 
L 187.584316 60.859255 
L 187.985579 61.353917 
L 188.520596 61.509358 
L 189.055614 61.887654 
L 189.055614 61.887654 
" clip-path="url(#pb259f69a8a)" style="fill: none; stroke: #1f77b4; stroke-width: 1.5; stroke-linecap: square"/>
   </g>
   <g id="LineCollection_1">
    <path d="M 55.368124 136.012395 
L 55.368124 135.937162 
" clip-path="url(#pb259f69a8a)" style="fill: none; stroke: #1f77b4; stroke-width: 1.5"/>
    <path d="M 68.743561 134.581905 
L 68.743561 110.529833 
" clip-path="url(#pb259f69a8a)" style="fill: none; stroke: #1f77b4; stroke-width: 1.5"/>
    <path d="M 82.118998 140.299412 
L 82.118998 98.462178 
" clip-path="url(#pb259f69a8a)" style="fill: none; stroke: #1f77b4; stroke-width: 1.5"/>
    <path d="M 95.494434 143.519234 
L 95.494434 95.627267 
" clip-path="url(#pb259f69a8a)" style="fill: none; stroke: #1f77b4; stroke-width: 1.5"/>
    <path d="M 108.869871 139.425317 
L 108.869871 100.75449 
" clip-path="url(#pb259f69a8a)" style="fill: none; stroke: #1f77b4; stroke-width: 1.5"/>
    <path d="M 122.245308 141.857452 
L 122.245308 86.114844 
" clip-path="url(#pb259f69a8a)" style="fill: none; stroke: #1f77b4; stroke-width: 1.5"/>
    <path d="M 135.620744 141.988494 
L 135.620744 61.735139 
" clip-path="url(#pb259f69a8a)" style="fill: none; stroke: #1f77b4; stroke-width: 1.5"/>
    <path d="M 148.996181 135.016945 
L 148.996181 41.559889 
" clip-path="url(#pb259f69a8a)" style="fill: none; stroke: #1f77b4; stroke-width: 1.5"/>
    <path d="M 162.371618 141.598401 
L 162.371618 21.387392 
" clip-path="url(#pb259f69a8a)" style="fill: none; stroke: #1f77b4; stroke-width: 1.5"/>
    <path d="M 175.747054 135.571321 
L 175.747054 18.664002 
" clip-path="url(#pb259f69a8a)" style="fill: none; stroke: #1f77b4; stroke-width: 1.5"/>
   </g>
   <g id="line2d_11">
    <path d="M 55.368124 135.982267 
L 65.800965 135.874455 
L 67.673526 135.829543 
L 75.030016 135.759215 
L 76.501314 135.605225 
L 80.714577 134.740222 
L 81.717735 134.42664 
L 83.189033 134.187058 
L 84.727208 133.665928 
L 85.061594 133.459501 
L 85.462857 133.245519 
L 86.666646 132.580394 
L 87.53605 132.47249 
L 88.806716 132.37201 
L 89.341734 132.242559 
L 90.077383 132.001695 
L 99.239557 131.007027 
L 100.242714 130.915991 
L 101.647135 130.393422 
L 103.18531 129.468715 
L 104.924117 129.120081 
L 107.599205 129.043854 
L 108.401731 128.851936 
L 111.210572 126.843282 
L 112.414362 126.467291 
L 113.216888 126.287231 
L 113.685028 126.01717 
L 114.487554 125.803192 
L 114.955695 125.528721 
L 118.500185 125.057204 
L 119.035203 124.929385 
L 119.837729 124.787677 
L 120.707132 124.709154 
L 121.175273 124.63853 
L 123.716606 124.146146 
L 124.3185 124.052419 
L 124.719763 123.943318 
L 125.589167 123.860578 
L 126.257939 123.730196 
L 126.792956 123.565206 
L 128.197377 123.610551 
L 128.59864 123.594374 
L 129.534921 123.614107 
L 130.203692 123.372433 
L 132.210008 122.772941 
L 132.811903 122.666769 
L 133.748183 122.211227 
L 134.149446 121.992025 
L 134.550709 121.929103 
L 135.286358 121.803046 
L 136.155762 121.700956 
L 136.690779 121.619074 
L 139.76713 120.93068 
L 140.502779 120.558428 
L 140.904042 120.278698 
L 141.572814 120.143026 
L 142.509094 120.022261 
L 143.512252 119.965638 
L 145.719199 119.559011 
L 146.454848 119.516241 
L 147.859269 119.13888 
L 148.327409 119.09869 
L 149.196813 118.674206 
L 149.598076 118.536509 
L 150.400602 118.404106 
L 152.406917 117.497789 
L 153.075689 116.903144 
L 153.744461 116.737894 
L 153.945093 116.65038 
L 154.546987 116.236756 
L 156.687057 115.301748 
L 157.55646 114.643641 
L 159.027758 114.528165 
L 160.164671 114.207317 
L 161.234706 114.154417 
L 162.170986 113.729251 
L 163.776038 113.41703 
L 164.110424 113.36371 
L 164.377933 113.245634 
L 165.6486 111.971736 
L 166.183617 111.867254 
L 167.119898 111.76445 
L 167.922424 111.575233 
L 168.323687 111.431928 
L 169.126213 111.004833 
L 170.330002 110.061091 
L 170.798143 109.833491 
L 171.600669 109.691863 
L 172.001932 109.680688 
L 174.275756 108.881659 
L 175.278914 108.862583 
L 175.880809 108.694862 
L 176.348949 108.508564 
L 176.683335 108.395349 
L 177.887124 107.907578 
L 178.489019 107.708641 
L 181.29786 106.856763 
L 181.832878 106.805288 
L 182.167264 106.425593 
L 182.635404 105.744516 
L 183.371053 105.147044 
L 185.778632 101.839851 
L 186.246772 101.154891 
L 186.447404 101.041177 
L 187.918702 99.574086 
L 188.386842 99.344235 
L 189.055614 99.063022 
L 189.055614 99.063022 
" clip-path="url(#pb259f69a8a)" style="fill: none; stroke: #ff7f0e; stroke-width: 1.5; stroke-linecap: square"/>
   </g>
   <g id="LineCollection_2">
    <path d="M 55.368124 136.010521 
L 55.368124 135.954013 
" clip-path="url(#pb259f69a8a)" style="fill: none; stroke: #ff7f0e; stroke-width: 1.5"/>
    <path d="M 68.743561 136.611964 
L 68.743561 134.817829 
" clip-path="url(#pb259f69a8a)" style="fill: none; stroke: #ff7f0e; stroke-width: 1.5"/>
    <path d="M 82.118998 137.497555 
L 82.118998 130.480162 
" clip-path="url(#pb259f69a8a)" style="fill: none; stroke: #ff7f0e; stroke-width: 1.5"/>
    <path d="M 95.494434 140.420859 
L 95.494434 120.491587 
" clip-path="url(#pb259f69a8a)" style="fill: none; stroke: #ff7f0e; stroke-width: 1.5"/>
    <path d="M 108.869871 139.000397 
L 108.869871 114.976783 
" clip-path="url(#pb259f69a8a)" style="fill: none; stroke: #ff7f0e; stroke-width: 1.5"/>
    <path d="M 122.245308 139.466719 
L 122.245308 104.433667 
" clip-path="url(#pb259f69a8a)" style="fill: none; stroke: #ff7f0e; stroke-width: 1.5"/>
    <path d="M 135.620744 141.315309 
L 135.620744 95.925536 
" clip-path="url(#pb259f69a8a)" style="fill: none; stroke: #ff7f0e; stroke-width: 1.5"/>
    <path d="M 148.996181 141.633608 
L 148.996181 88.532659 
" clip-path="url(#pb259f69a8a)" style="fill: none; stroke: #ff7f0e; stroke-width: 1.5"/>
    <path d="M 162.371618 144.631976 
L 162.371618 73.848775 
" clip-path="url(#pb259f69a8a)" style="fill: none; stroke: #ff7f0e; stroke-width: 1.5"/>
    <path d="M 175.747054 146.501807 
L 175.747054 61.3436 
" clip-path="url(#pb259f69a8a)" style="fill: none; stroke: #ff7f0e; stroke-width: 1.5"/>
   </g>
   <g id="line2d_12">
    <path d="M 55.368124 135.976528 
L 74.494999 135.86315 
L 83.924682 135.154992 
L 85.39598 134.898458 
L 91.481803 134.270644 
L 92.75247 134.122392 
L 96.163206 133.971169 
L 98.169522 133.729713 
L 99.64082 133.18552 
L 100.309592 132.865049 
L 101.312749 132.774549 
L 103.118433 132.604954 
L 104.656609 132.494736 
L 106.061029 132.284367 
L 107.131064 132.231533 
L 109.003625 132.10961 
L 109.739274 132.080326 
L 111.411204 131.95245 
L 112.414362 131.73103 
L 114.019414 131.588942 
L 117.095765 131.55197 
L 121.977799 131.190299 
L 123.783483 131.058627 
L 127.261096 130.995661 
L 128.063623 130.960342 
L 130.136815 130.830365 
L 130.671833 130.6231 
L 131.139973 130.512886 
L 131.942499 130.371155 
L 134.082569 130.108061 
L 134.550709 129.95234 
L 136.022007 129.248343 
L 136.757656 129.158085 
L 137.894569 128.740989 
L 138.429586 128.548038 
L 139.633375 128.172783 
L 140.435902 127.840722 
L 141.706568 127.512717 
L 143.044112 127.149282 
L 143.445375 127.016128 
L 144.314778 126.842563 
L 145.986708 126.142984 
L 146.922988 125.907745 
L 147.458006 125.793719 
L 147.792392 125.643818 
L 148.795549 125.175987 
L 149.26369 125.105803 
L 150.400602 124.701288 
L 151.671268 124.07331 
L 153.142566 123.736297 
L 154.212601 123.683073 
L 155.483268 123.548183 
L 156.085162 123.233287 
L 156.954566 122.514801 
L 157.355829 122.335272 
L 159.094636 121.853286 
L 159.429022 121.79587 
L 159.830285 121.715579 
L 162.237863 120.496498 
L 162.706004 120.018356 
L 164.244179 118.36922 
L 164.645442 118.02138 
L 166.451126 116.87771 
L 167.588038 116.529529 
L 169.259968 115.384409 
L 169.527476 115.294806 
L 169.995617 115.134617 
L 170.330002 114.927244 
L 172.737581 114.261474 
L 173.540107 113.943837 
L 174.075125 113.654429 
L 174.743897 113.002903 
L 175.680177 112.555023 
L 176.750212 112.505742 
L 177.285229 112.437453 
L 177.75337 112.332538 
L 180.027194 111.598298 
L 181.030352 111.527691 
L 181.29786 111.263292 
L 181.699124 110.75424 
L 182.167264 110.450215 
L 182.635404 110.140218 
L 183.371053 110.051033 
L 183.772316 109.888022 
L 185.042983 109.593741 
L 186.113018 109.523617 
L 188.18621 108.908339 
L 188.520596 108.612067 
L 189.055614 108.107856 
L 189.055614 108.107856 
" clip-path="url(#pb259f69a8a)" style="fill: none; stroke: #2ca02c; stroke-width: 1.5; stroke-linecap: square"/>
   </g>
   <g id="LineCollection_3">
    <path d="M 55.368124 136.011388 
L 55.368124 135.941669 
" clip-path="url(#pb259f69a8a)" style="fill: none; stroke: #2ca02c; stroke-width: 1.5"/>
    <path d="M 68.743561 136.025315 
L 68.743561 135.909342 
" clip-path="url(#pb259f69a8a)" style="fill: none; stroke: #2ca02c; stroke-width: 1.5"/>
    <path d="M 82.118998 137.187962 
L 82.118998 133.20833 
" clip-path="url(#pb259f69a8a)" style="fill: none; stroke: #2ca02c; stroke-width: 1.5"/>
    <path d="M 95.494434 138.498917 
L 95.494434 128.992882 
" clip-path="url(#pb259f69a8a)" style="fill: none; stroke: #2ca02c; stroke-width: 1.5"/>
    <path d="M 108.869871 139.744604 
L 108.869871 123.608068 
" clip-path="url(#pb259f69a8a)" style="fill: none; stroke: #2ca02c; stroke-width: 1.5"/>
    <path d="M 122.245308 139.427808 
L 122.245308 121.470528 
" clip-path="url(#pb259f69a8a)" style="fill: none; stroke: #2ca02c; stroke-width: 1.5"/>
    <path d="M 135.620744 140.304254 
L 135.620744 116.78399 
" clip-path="url(#pb259f69a8a)" style="fill: none; stroke: #2ca02c; stroke-width: 1.5"/>
    <path d="M 148.996181 142.439111 
L 148.996181 105.968056 
" clip-path="url(#pb259f69a8a)" style="fill: none; stroke: #2ca02c; stroke-width: 1.5"/>
    <path d="M 162.371618 144.309715 
L 162.371618 93.810476 
" clip-path="url(#pb259f69a8a)" style="fill: none; stroke: #2ca02c; stroke-width: 1.5"/>
    <path d="M 175.747054 150.005429 
L 175.747054 72.079254 
" clip-path="url(#pb259f69a8a)" style="fill: none; stroke: #2ca02c; stroke-width: 1.5"/>
   </g>
   <g id="line2d_13">
    <path d="M 56.036896 156.5725 
L 56.036896 12.096931 
" clip-path="url(#pb259f69a8a)" style="fill: none; stroke-dasharray: 5.55,2.4; stroke-dashoffset: 0; stroke: #808080; stroke-width: 1.5"/>
   </g>
   <g id="line2d_14">
    <defs>
     <path id="mba494fe1b4" d="M 0 3 
C 0.795609 3 1.55874 2.683901 2.12132 2.12132 
C 2.683901 1.55874 3 0.795609 3 0 
C 3 -0.795609 2.683901 -1.55874 2.12132 -2.12132 
C 1.55874 -2.683901 0.795609 -3 0 -3 
C -0.795609 -3 -1.55874 -2.683901 -2.12132 -2.12132 
C -2.683901 -1.55874 -3 -0.795609 -3 0 
C -3 0.795609 -2.683901 1.55874 -2.12132 2.12132 
C -1.55874 2.683901 -0.795609 3 0 3 
z
" style="stroke: #1f77b4"/>
    </defs>
    <g clip-path="url(#pb259f69a8a)">
     <use xlink:href="#mba494fe1b4" x="55.368124" y="135.974779" style="fill-opacity: 0; stroke: #1f77b4"/>
     <use xlink:href="#mba494fe1b4" x="68.743561" y="122.555869" style="fill-opacity: 0; stroke: #1f77b4"/>
     <use xlink:href="#mba494fe1b4" x="82.118998" y="119.380795" style="fill-opacity: 0; stroke: #1f77b4"/>
     <use xlink:href="#mba494fe1b4" x="95.494434" y="119.57325" style="fill-opacity: 0; stroke: #1f77b4"/>
     <use xlink:href="#mba494fe1b4" x="108.869871" y="120.089903" style="fill-opacity: 0; stroke: #1f77b4"/>
     <use xlink:href="#mba494fe1b4" x="122.245308" y="113.986148" style="fill-opacity: 0; stroke: #1f77b4"/>
     <use xlink:href="#mba494fe1b4" x="135.620744" y="101.861817" style="fill-opacity: 0; stroke: #1f77b4"/>
     <use xlink:href="#mba494fe1b4" x="148.996181" y="88.288417" style="fill-opacity: 0; stroke: #1f77b4"/>
     <use xlink:href="#mba494fe1b4" x="162.371618" y="81.492897" style="fill-opacity: 0; stroke: #1f77b4"/>
     <use xlink:href="#mba494fe1b4" x="175.747054" y="77.117662" style="fill-opacity: 0; stroke: #1f77b4"/>
    </g>
   </g>
   <g id="line2d_15">
    <defs>
     <path id="m61a656c0a2" d="M 0 3 
C 0.795609 3 1.55874 2.683901 2.12132 2.12132 
C 2.683901 1.55874 3 0.795609 3 0 
C 3 -0.795609 2.683901 -1.55874 2.12132 -2.12132 
C 1.55874 -2.683901 0.795609 -3 0 -3 
C -0.795609 -3 -1.55874 -2.683901 -2.12132 -2.12132 
C -2.683901 -1.55874 -3 -0.795609 -3 0 
C -3 0.795609 -2.683901 1.55874 -2.12132 2.12132 
C -1.55874 2.683901 -0.795609 3 0 3 
z
" style="stroke: #ff7f0e"/>
    </defs>
    <g clip-path="url(#pb259f69a8a)">
     <use xlink:href="#m61a656c0a2" x="55.368124" y="135.982267" style="fill-opacity: 0; stroke: #ff7f0e"/>
     <use xlink:href="#m61a656c0a2" x="68.743561" y="135.714897" style="fill-opacity: 0; stroke: #ff7f0e"/>
     <use xlink:href="#m61a656c0a2" x="82.118998" y="133.988858" style="fill-opacity: 0; stroke: #ff7f0e"/>
     <use xlink:href="#m61a656c0a2" x="95.494434" y="130.456223" style="fill-opacity: 0; stroke: #ff7f0e"/>
     <use xlink:href="#m61a656c0a2" x="108.869871" y="126.98859" style="fill-opacity: 0; stroke: #ff7f0e"/>
     <use xlink:href="#m61a656c0a2" x="122.245308" y="121.950193" style="fill-opacity: 0; stroke: #ff7f0e"/>
     <use xlink:href="#m61a656c0a2" x="135.620744" y="118.620423" style="fill-opacity: 0; stroke: #ff7f0e"/>
     <use xlink:href="#m61a656c0a2" x="148.996181" y="115.083133" style="fill-opacity: 0; stroke: #ff7f0e"/>
     <use xlink:href="#m61a656c0a2" x="162.371618" y="109.240376" style="fill-opacity: 0; stroke: #ff7f0e"/>
     <use xlink:href="#m61a656c0a2" x="175.747054" y="103.922703" style="fill-opacity: 0; stroke: #ff7f0e"/>
    </g>
   </g>
   <g id="line2d_16">
    <defs>
     <path id="mda13805e54" d="M 0 3 
C 0.795609 3 1.55874 2.683901 2.12132 2.12132 
C 2.683901 1.55874 3 0.795609 3 0 
C 3 -0.795609 2.683901 -1.55874 2.12132 -2.12132 
C 1.55874 -2.683901 0.795609 -3 0 -3 
C -0.795609 -3 -1.55874 -2.683901 -2.12132 -2.12132 
C -2.683901 -1.55874 -3 -0.795609 -3 0 
C -3 0.795609 -2.683901 1.55874 -2.12132 2.12132 
C -1.55874 2.683901 -0.795609 3 0 3 
z
" style="stroke: #2ca02c"/>
    </defs>
    <g clip-path="url(#pb259f69a8a)">
     <use xlink:href="#mda13805e54" x="55.368124" y="135.976528" style="fill-opacity: 0; stroke: #2ca02c"/>
     <use xlink:href="#mda13805e54" x="68.743561" y="135.967328" style="fill-opacity: 0; stroke: #2ca02c"/>
     <use xlink:href="#mda13805e54" x="82.118998" y="135.198146" style="fill-opacity: 0; stroke: #2ca02c"/>
     <use xlink:href="#mda13805e54" x="95.494434" y="133.7459" style="fill-opacity: 0; stroke: #2ca02c"/>
     <use xlink:href="#mda13805e54" x="108.869871" y="131.676336" style="fill-opacity: 0; stroke: #2ca02c"/>
     <use xlink:href="#mda13805e54" x="122.245308" y="130.449168" style="fill-opacity: 0; stroke: #2ca02c"/>
     <use xlink:href="#mda13805e54" x="135.620744" y="128.544122" style="fill-opacity: 0; stroke: #2ca02c"/>
     <use xlink:href="#mda13805e54" x="148.996181" y="124.203583" style="fill-opacity: 0; stroke: #2ca02c"/>
     <use xlink:href="#mda13805e54" x="162.371618" y="119.060095" style="fill-opacity: 0; stroke: #2ca02c"/>
     <use xlink:href="#mda13805e54" x="175.747054" y="111.042342" style="fill-opacity: 0; stroke: #2ca02c"/>
    </g>
   </g>
   <g id="patch_3">
    <path d="M 48.68375 156.5725 
L 48.68375 12.096931 
" style="fill: none; stroke: #000000; stroke-width: 0.8; stroke-linejoin: miter; stroke-linecap: square"/>
   </g>
   <g id="patch_4">
    <path d="M 195.739988 156.5725 
L 195.739988 12.096931 
" style="fill: none; stroke: #000000; stroke-width: 0.8; stroke-linejoin: miter; stroke-linecap: square"/>
   </g>
   <g id="patch_5">
    <path d="M 48.68375 156.5725 
L 195.739988 156.5725 
" style="fill: none; stroke: #000000; stroke-width: 0.8; stroke-linejoin: miter; stroke-linecap: square"/>
   </g>
   <g id="patch_6">
    <path d="M 48.68375 12.096931 
L 195.739988 12.096931 
" style="fill: none; stroke: #000000; stroke-width: 0.8; stroke-linejoin: miter; stroke-linecap: square"/>
   </g>
  </g>
 </g>
 <defs>
  <clipPath id="pb259f69a8a">
   <rect x="48.68375" y="12.096931" width="147.056238" height="144.475569"/>
  </clipPath>
 </defs>
</svg>
