<?xml version="1.0" encoding="utf-8" standalone="no"?>
<!DOCTYPE svg PUBLIC "-//W3C//DTD SVG 1.1//EN"
  "http://www.w3.org/Graphics/SVG/1.1/DTD/svg11.dtd">
<svg xmlns:xlink="http://www.w3.org/1999/xlink" width="648pt" height="216pt" viewBox="0 0 648 216" xmlns="http://www.w3.org/2000/svg" version="1.1">
 <metadata>
  <rdf:RDF xmlns:dc="http://purl.org/dc/elements/1.1/" xmlns:cc="http://creativecommons.org/ns#" xmlns:rdf="http://www.w3.org/1999/02/22-rdf-syntax-ns#">
   <cc:Work>
    <dc:type rdf:resource="http://purl.org/dc/dcmitype/StillImage"/>
    <dc:date>2025-06-20T15:21:34.897281</dc:date>
    <dc:format>image/svg+xml</dc:format>
    <dc:creator>
     <cc:Agent>
      <dc:title>Matplotlib v3.5.2, https://matplotlib.org/</dc:title>
     </cc:Agent>
    </dc:creator>
   </cc:Work>
  </rdf:RDF>
 </metadata>
 <defs>
  <style type="text/css">*{stroke-linejoin: round; stroke-linecap: butt}</style>
 </defs>
 <g id="figure_1">
  <g id="patch_1">
   <path d="M 0 216 
L 648 216 
L 648 0 
L 0 0 
z
" style="fill: #ffffff"/>
  </g>
  <g id="axes_1">
   <g id="patch_2">
    <path d="M 64.949375 170.9725 
L 210.00375 170.9725 
L 210.00375 25.918125 
L 64.949375 25.918125 
z
" style="fill: #ffffff"/>
   </g>
   <g id="PathCollection_1">
    <defs>
     <path id="mf33a1df947" d="M 0 3 
C 0.795609 3 1.55874 2.683901 2.12132 2.12132 
C 2.683901 1.55874 3 0.795609 3 0 
C 3 -0.795609 2.683901 -1.55874 2.12132 -2.12132 
C 1.55874 -2.683901 0.795609 -3 0 -3 
C -0.795609 -3 -1.55874 -2.683901 -2.12132 -2.12132 
C -2.683901 -1.55874 -3 -0.795609 -3 0 
C -3 0.795609 -2.683901 1.55874 -2.12132 2.12132 
C -1.55874 2.683901 -0.795609 3 0 3 
z
" style="stroke: #ff0000"/>
    </defs>
    <g clip-path="url(#p884dcbaff6)">
     <use xlink:href="#mf33a1df947" x="122.53514" y="144.430282" style="fill: #ff0000; stroke: #ff0000"/>
    </g>
   </g>
   <g id="PathCollection_2">
    <g clip-path="url(#p884dcbaff6)">
     <use xlink:href="#mf33a1df947" x="176.593714" y="126.865587" style="fill: #ff0000; stroke: #ff0000"/>
    </g>
   </g>
   <g id="PathCollection_3">
    <g clip-path="url(#p884dcbaff6)">
     <use xlink:href="#mf33a1df947" x="122.53514" y="52.460343" style="fill: #ff0000; stroke: #ff0000"/>
    </g>
   </g>
   <g id="PathCollection_4">
    <g clip-path="url(#p884dcbaff6)">
     <use xlink:href="#mf33a1df947" x="89.125104" y="98.445312" style="fill: #ff0000; stroke: #ff0000"/>
    </g>
   </g>
   <g id="PathCollection_5">
    <g clip-path="url(#p884dcbaff6)">
     <use xlink:href="#mf33a1df947" x="176.593714" y="70.025038" style="fill: #ff0000; stroke: #ff0000"/>
    </g>
   </g>
   <g id="matplotlib.axis_1">
    <g id="xtick_1">
     <g id="line2d_1">
      <defs>
       <path id="m6b6d602124" d="M 0 0 
L 0 3.5 
" style="stroke: #000000; stroke-width: 0.8"/>
      </defs>
      <g>
       <use xlink:href="#m6b6d602124" x="89.125104" y="170.9725" style="stroke: #000000; stroke-width: 0.8"/>
      </g>
     </g>
     <g id="text_1">
      <!-- −1 -->
      <g transform="translate(80.279792 187.090625)scale(0.12 -0.12)">
       <defs>
        <path id="DejaVuSans-2212" d="M 678 2272 
L 4684 2272 
L 4684 1741 
L 678 1741 
L 678 2272 
z
" transform="scale(0.015625)"/>
        <path id="DejaVuSans-31" d="M 794 531 
L 1825 531 
L 1825 4091 
L 703 3866 
L 703 4441 
L 1819 4666 
L 2450 4666 
L 2450 531 
L 3481 531 
L 3481 0 
L 794 0 
L 794 531 
z
" transform="scale(0.015625)"/>
       </defs>
       <use xlink:href="#DejaVuSans-2212"/>
       <use xlink:href="#DejaVuSans-31" x="83.789062"/>
      </g>
     </g>
    </g>
    <g id="xtick_2">
     <g id="line2d_2">
      <g>
       <use xlink:href="#m6b6d602124" x="137.476562" y="170.9725" style="stroke: #000000; stroke-width: 0.8"/>
      </g>
     </g>
     <g id="text_2">
      <!-- 0 -->
      <g transform="translate(133.659063 187.090625)scale(0.12 -0.12)">
       <defs>
        <path id="DejaVuSans-30" d="M 2034 4250 
Q 1547 4250 1301 3770 
Q 1056 3291 1056 2328 
Q 1056 1369 1301 889 
Q 1547 409 2034 409 
Q 2525 409 2770 889 
Q 3016 1369 3016 2328 
Q 3016 3291 2770 3770 
Q 2525 4250 2034 4250 
z
M 2034 4750 
Q 2819 4750 3233 4129 
Q 3647 3509 3647 2328 
Q 3647 1150 3233 529 
Q 2819 -91 2034 -91 
Q 1250 -91 836 529 
Q 422 1150 422 2328 
Q 422 3509 836 4129 
Q 1250 4750 2034 4750 
z
" transform="scale(0.015625)"/>
       </defs>
       <use xlink:href="#DejaVuSans-30"/>
      </g>
     </g>
    </g>
    <g id="xtick_3">
     <g id="line2d_3">
      <g>
       <use xlink:href="#m6b6d602124" x="185.828021" y="170.9725" style="stroke: #000000; stroke-width: 0.8"/>
      </g>
     </g>
     <g id="text_3">
      <!-- 1 -->
      <g transform="translate(182.010521 187.090625)scale(0.12 -0.12)">
       <use xlink:href="#DejaVuSans-31"/>
      </g>
     </g>
    </g>
    <g id="text_4">
     <!-- $x_1$ -->
     <g transform="translate(131.056563 202.704375)scale(0.12 -0.12)">
      <defs>
       <path id="DejaVuSans-Oblique-78" d="M 3841 3500 
L 2234 1784 
L 3219 0 
L 2559 0 
L 1819 1388 
L 531 0 
L -166 0 
L 1556 1844 
L 641 3500 
L 1300 3500 
L 1972 2234 
L 3144 3500 
L 3841 3500 
z
" transform="scale(0.015625)"/>
      </defs>
      <use xlink:href="#DejaVuSans-Oblique-78" transform="translate(0 0.3125)"/>
      <use xlink:href="#DejaVuSans-31" transform="translate(59.179688 -16.09375)scale(0.7)"/>
     </g>
    </g>
   </g>
   <g id="matplotlib.axis_2">
    <g id="ytick_1">
     <g id="line2d_4">
      <defs>
       <path id="m110d7b262b" d="M 0 0 
L -3.5 0 
" style="stroke: #000000; stroke-width: 0.8"/>
      </defs>
      <g>
       <use xlink:href="#m110d7b262b" x="64.949375" y="170.9725" style="stroke: #000000; stroke-width: 0.8"/>
      </g>
     </g>
     <g id="text_5">
      <!-- −1.5 -->
      <g transform="translate(28.81 175.531563)scale(0.12 -0.12)">
       <defs>
        <path id="DejaVuSans-2e" d="M 684 794 
L 1344 794 
L 1344 0 
L 684 0 
L 684 794 
z
" transform="scale(0.015625)"/>
        <path id="DejaVuSans-35" d="M 691 4666 
L 3169 4666 
L 3169 4134 
L 1269 4134 
L 1269 2991 
Q 1406 3038 1543 3061 
Q 1681 3084 1819 3084 
Q 2600 3084 3056 2656 
Q 3513 2228 3513 1497 
Q 3513 744 3044 326 
Q 2575 -91 1722 -91 
Q 1428 -91 1123 -41 
Q 819 9 494 109 
L 494 744 
Q 775 591 1075 516 
Q 1375 441 1709 441 
Q 2250 441 2565 725 
Q 2881 1009 2881 1497 
Q 2881 1984 2565 2268 
Q 2250 2553 1709 2553 
Q 1456 2553 1204 2497 
Q 953 2441 691 2322 
L 691 4666 
z
" transform="scale(0.015625)"/>
       </defs>
       <use xlink:href="#DejaVuSans-2212"/>
       <use xlink:href="#DejaVuSans-31" x="83.789062"/>
       <use xlink:href="#DejaVuSans-2e" x="147.412109"/>
       <use xlink:href="#DejaVuSans-35" x="179.199219"/>
      </g>
     </g>
    </g>
    <g id="ytick_2">
     <g id="line2d_5">
      <g>
       <use xlink:href="#m110d7b262b" x="64.949375" y="146.796771" style="stroke: #000000; stroke-width: 0.8"/>
      </g>
     </g>
     <g id="text_6">
      <!-- −1.0 -->
      <g transform="translate(28.81 151.355833)scale(0.12 -0.12)">
       <use xlink:href="#DejaVuSans-2212"/>
       <use xlink:href="#DejaVuSans-31" x="83.789062"/>
       <use xlink:href="#DejaVuSans-2e" x="147.412109"/>
       <use xlink:href="#DejaVuSans-30" x="179.199219"/>
      </g>
     </g>
    </g>
    <g id="ytick_3">
     <g id="line2d_6">
      <g>
       <use xlink:href="#m110d7b262b" x="64.949375" y="122.621042" style="stroke: #000000; stroke-width: 0.8"/>
      </g>
     </g>
     <g id="text_7">
      <!-- −0.5 -->
      <g transform="translate(28.81 127.180104)scale(0.12 -0.12)">
       <use xlink:href="#DejaVuSans-2212"/>
       <use xlink:href="#DejaVuSans-30" x="83.789062"/>
       <use xlink:href="#DejaVuSans-2e" x="147.412109"/>
       <use xlink:href="#DejaVuSans-35" x="179.199219"/>
      </g>
     </g>
    </g>
    <g id="ytick_4">
     <g id="line2d_7">
      <g>
       <use xlink:href="#m110d7b262b" x="64.949375" y="98.445312" style="stroke: #000000; stroke-width: 0.8"/>
      </g>
     </g>
     <g id="text_8">
      <!-- 0.0 -->
      <g transform="translate(38.865625 103.004375)scale(0.12 -0.12)">
       <use xlink:href="#DejaVuSans-30"/>
       <use xlink:href="#DejaVuSans-2e" x="63.623047"/>
       <use xlink:href="#DejaVuSans-30" x="95.410156"/>
      </g>
     </g>
    </g>
    <g id="ytick_5">
     <g id="line2d_8">
      <g>
       <use xlink:href="#m110d7b262b" x="64.949375" y="74.269583" style="stroke: #000000; stroke-width: 0.8"/>
      </g>
     </g>
     <g id="text_9">
      <!-- 0.5 -->
      <g transform="translate(38.865625 78.828646)scale(0.12 -0.12)">
       <use xlink:href="#DejaVuSans-30"/>
       <use xlink:href="#DejaVuSans-2e" x="63.623047"/>
       <use xlink:href="#DejaVuSans-35" x="95.410156"/>
      </g>
     </g>
    </g>
    <g id="ytick_6">
     <g id="line2d_9">
      <g>
       <use xlink:href="#m110d7b262b" x="64.949375" y="50.093854" style="stroke: #000000; stroke-width: 0.8"/>
      </g>
     </g>
     <g id="text_10">
      <!-- 1.0 -->
      <g transform="translate(38.865625 54.652917)scale(0.12 -0.12)">
       <use xlink:href="#DejaVuSans-31"/>
       <use xlink:href="#DejaVuSans-2e" x="63.623047"/>
       <use xlink:href="#DejaVuSans-30" x="95.410156"/>
      </g>
     </g>
    </g>
    <g id="ytick_7">
     <g id="line2d_10">
      <g>
       <use xlink:href="#m110d7b262b" x="64.949375" y="25.918125" style="stroke: #000000; stroke-width: 0.8"/>
      </g>
     </g>
     <g id="text_11">
      <!-- 1.5 -->
      <g transform="translate(38.865625 30.477188)scale(0.12 -0.12)">
       <use xlink:href="#DejaVuSans-31"/>
       <use xlink:href="#DejaVuSans-2e" x="63.623047"/>
       <use xlink:href="#DejaVuSans-35" x="95.410156"/>
      </g>
     </g>
    </g>
    <g id="text_12">
     <!-- $x_2$ -->
     <g transform="translate(22.314375 104.865313)rotate(-90)scale(0.12 -0.12)">
      <defs>
       <path id="DejaVuSans-32" d="M 1228 531 
L 3431 531 
L 3431 0 
L 469 0 
L 469 531 
Q 828 903 1448 1529 
Q 2069 2156 2228 2338 
Q 2531 2678 2651 2914 
Q 2772 3150 2772 3378 
Q 2772 3750 2511 3984 
Q 2250 4219 1831 4219 
Q 1534 4219 1204 4116 
Q 875 4013 500 3803 
L 500 4441 
Q 881 4594 1212 4672 
Q 1544 4750 1819 4750 
Q 2544 4750 2975 4387 
Q 3406 4025 3406 3419 
Q 3406 3131 3298 2873 
Q 3191 2616 2906 2266 
Q 2828 2175 2409 1742 
Q 1991 1309 1228 531 
z
" transform="scale(0.015625)"/>
      </defs>
      <use xlink:href="#DejaVuSans-Oblique-78" transform="translate(0 0.3125)"/>
      <use xlink:href="#DejaVuSans-32" transform="translate(59.179688 -16.09375)scale(0.7)"/>
     </g>
    </g>
   </g>
   <g id="line2d_11">
    <path d="M 200.333458 98.445312 
L 200.198877 94.334275 
L 199.795709 90.240841 
L 199.125681 86.18254 
L 198.191662 82.176751 
L 196.997651 78.240626 
L 195.548762 74.39102 
L 193.851199 70.644418 
L 191.912231 67.016865 
L 189.740161 63.523892 
L 187.344291 60.180459 
L 184.734879 57.000881 
L 181.9231 53.998775 
L 178.920994 51.186996 
L 175.741416 48.577584 
L 172.397983 46.181714 
L 168.90501 44.009644 
L 165.277457 42.070676 
L 161.530855 40.373113 
L 157.681249 38.924224 
L 153.745124 37.730213 
L 149.739335 36.796194 
L 145.681034 36.126166 
L 141.5876 35.722998 
L 137.476562 35.588417 
L 133.365525 35.722998 
L 129.272091 36.126166 
L 125.21379 36.796194 
L 121.208001 37.730213 
L 117.271876 38.924224 
L 113.42227 40.373113 
L 109.675668 42.070676 
L 106.048115 44.009644 
L 102.555142 46.181714 
L 99.211709 48.577584 
L 96.032131 51.186996 
L 93.030025 53.998775 
L 90.218246 57.000881 
L 87.608834 60.180459 
L 85.212964 63.523892 
L 83.040894 67.016865 
L 81.101926 70.644418 
L 79.404363 74.39102 
L 77.955474 78.240626 
L 76.761463 82.176751 
L 75.827444 86.18254 
L 75.157416 90.240841 
L 74.754248 94.334275 
L 74.619667 98.445312 
L 74.754248 102.55635 
L 75.157416 106.649784 
L 75.827444 110.708085 
L 76.761463 114.713874 
L 77.955474 118.649999 
L 79.404363 122.499605 
L 81.101926 126.246207 
L 83.040894 129.87376 
L 85.212964 133.366733 
L 87.608834 136.710166 
L 90.218246 139.889744 
L 93.030025 142.89185 
L 96.032131 145.703629 
L 99.211709 148.313041 
L 102.555142 150.708911 
L 106.048115 152.880981 
L 109.675668 154.819949 
L 113.42227 156.517512 
L 117.271876 157.966401 
L 121.208001 159.160412 
L 125.21379 160.094431 
L 129.272091 160.764459 
L 133.365525 161.167627 
L 137.476562 161.302208 
L 141.5876 161.167627 
L 145.681034 160.764459 
L 149.739335 160.094431 
L 153.745124 159.160412 
L 157.681249 157.966401 
L 161.530855 156.517512 
L 165.277457 154.819949 
L 168.90501 152.880981 
L 172.397983 150.708911 
L 175.741416 148.313041 
L 178.920994 145.703629 
L 181.9231 142.89185 
L 184.734879 139.889744 
L 187.344291 136.710166 
L 189.740161 133.366733 
L 191.912231 129.87376 
L 193.851199 126.246207 
L 195.548762 122.499605 
L 196.997651 118.649999 
L 198.191662 114.713874 
L 199.125681 110.708085 
L 199.795709 106.649784 
L 200.198877 102.55635 
" clip-path="url(#p884dcbaff6)" style="fill: none; stroke: #808080; stroke-width: 0.75; stroke-linecap: square"/>
   </g>
   <g id="patch_3">
    <path d="M 64.949375 170.9725 
L 64.949375 25.918125 
" style="fill: none; stroke: #000000; stroke-width: 0.8; stroke-linejoin: miter; stroke-linecap: square"/>
   </g>
   <g id="patch_4">
    <path d="M 210.00375 170.9725 
L 210.00375 25.918125 
" style="fill: none; stroke: #000000; stroke-width: 0.8; stroke-linejoin: miter; stroke-linecap: square"/>
   </g>
   <g id="patch_5">
    <path d="M 64.949375 170.9725 
L 210.00375 170.9725 
" style="fill: none; stroke: #000000; stroke-width: 0.8; stroke-linejoin: miter; stroke-linecap: square"/>
   </g>
   <g id="patch_6">
    <path d="M 64.949375 25.918125 
L 210.00375 25.918125 
" style="fill: none; stroke: #000000; stroke-width: 0.8; stroke-linejoin: miter; stroke-linecap: square"/>
   </g>
   <g id="patch_7">
    <path d="M 200.333458 96.447392 
Q 200.333458 86.358817 200.333458 77.388277 
" style="fill: none; stroke: #808080; stroke-linecap: round"/>
    <path d="M 198.333458 81.388277 
L 200.333458 77.388277 
L 202.333458 81.388277 
" style="fill: none; stroke: #808080; stroke-linecap: round"/>
   </g>
   <g id="patch_8">
    <path d="M 180.510356 52.586032 
Q 173.376657 45.452332 167.033527 39.109202 
" style="fill: none; stroke: #808080; stroke-linecap: round"/>
    <path d="M 168.44774 43.351843 
L 167.033527 39.109202 
L 171.276168 40.523416 
" style="fill: none; stroke: #808080; stroke-linecap: round"/>
   </g>
   <g id="patch_9">
    <path d="M 135.478642 35.588417 
Q 125.390067 35.588417 116.419527 35.588417 
" style="fill: none; stroke: #808080; stroke-linecap: round"/>
    <path d="M 120.419527 37.588417 
L 116.419527 35.588417 
L 120.419527 33.588417 
" style="fill: none; stroke: #808080; stroke-linecap: round"/>
   </g>
   <g id="patch_10">
    <path d="M 91.617282 55.411519 
Q 84.483582 62.545218 78.140452 68.888348 
" style="fill: none; stroke: #808080; stroke-linecap: round"/>
    <path d="M 82.383093 67.474135 
L 78.140452 68.888348 
L 79.554666 64.645707 
" style="fill: none; stroke: #808080; stroke-linecap: round"/>
   </g>
   <g id="patch_11">
    <path d="M 74.619667 100.443233 
Q 74.619667 110.531808 74.619667 119.502348 
" style="fill: none; stroke: #808080; stroke-linecap: round"/>
    <path d="M 76.619667 115.502348 
L 74.619667 119.502348 
L 72.619667 115.502348 
" style="fill: none; stroke: #808080; stroke-linecap: round"/>
   </g>
   <g id="patch_12">
    <path d="M 94.442769 144.304593 
Q 101.576468 151.438293 107.919598 157.781423 
" style="fill: none; stroke: #808080; stroke-linecap: round"/>
    <path d="M 106.505385 153.538782 
L 107.919598 157.781423 
L 103.676957 156.367209 
" style="fill: none; stroke: #808080; stroke-linecap: round"/>
   </g>
   <g id="patch_13">
    <path d="M 139.474483 161.302208 
Q 149.563058 161.302208 158.533598 161.302208 
" style="fill: none; stroke: #808080; stroke-linecap: round"/>
    <path d="M 154.533598 159.302208 
L 158.533598 161.302208 
L 154.533598 163.302208 
" style="fill: none; stroke: #808080; stroke-linecap: round"/>
   </g>
   <g id="patch_14">
    <path d="M 183.335843 141.479106 
Q 190.469543 134.345407 196.812673 128.002277 
" style="fill: none; stroke: #808080; stroke-linecap: round"/>
    <path d="M 192.570032 129.41649 
L 196.812673 128.002277 
L 195.398459 132.244918 
" style="fill: none; stroke: #808080; stroke-linecap: round"/>
   </g>
   <g id="text_13">
    <!-- Training data -->
    <g transform="translate(98.38375 19.918125)scale(0.12 -0.12)">
     <defs>
      <path id="DejaVuSans-54" d="M -19 4666 
L 3928 4666 
L 3928 4134 
L 2272 4134 
L 2272 0 
L 1638 0 
L 1638 4134 
L -19 4134 
L -19 4666 
z
" transform="scale(0.015625)"/>
      <path id="DejaVuSans-72" d="M 2631 2963 
Q 2534 3019 2420 3045 
Q 2306 3072 2169 3072 
Q 1681 3072 1420 2755 
Q 1159 2438 1159 1844 
L 1159 0 
L 581 0 
L 581 3500 
L 1159 3500 
L 1159 2956 
Q 1341 3275 1631 3429 
Q 1922 3584 2338 3584 
Q 2397 3584 2469 3576 
Q 2541 3569 2628 3553 
L 2631 2963 
z
" transform="scale(0.015625)"/>
      <path id="DejaVuSans-61" d="M 2194 1759 
Q 1497 1759 1228 1600 
Q 959 1441 959 1056 
Q 959 750 1161 570 
Q 1363 391 1709 391 
Q 2188 391 2477 730 
Q 2766 1069 2766 1631 
L 2766 1759 
L 2194 1759 
z
M 3341 1997 
L 3341 0 
L 2766 0 
L 2766 531 
Q 2569 213 2275 61 
Q 1981 -91 1556 -91 
Q 1019 -91 701 211 
Q 384 513 384 1019 
Q 384 1609 779 1909 
Q 1175 2209 1959 2209 
L 2766 2209 
L 2766 2266 
Q 2766 2663 2505 2880 
Q 2244 3097 1772 3097 
Q 1472 3097 1187 3025 
Q 903 2953 641 2809 
L 641 3341 
Q 956 3463 1253 3523 
Q 1550 3584 1831 3584 
Q 2591 3584 2966 3190 
Q 3341 2797 3341 1997 
z
" transform="scale(0.015625)"/>
      <path id="DejaVuSans-69" d="M 603 3500 
L 1178 3500 
L 1178 0 
L 603 0 
L 603 3500 
z
M 603 4863 
L 1178 4863 
L 1178 4134 
L 603 4134 
L 603 4863 
z
" transform="scale(0.015625)"/>
      <path id="DejaVuSans-6e" d="M 3513 2113 
L 3513 0 
L 2938 0 
L 2938 2094 
Q 2938 2591 2744 2837 
Q 2550 3084 2163 3084 
Q 1697 3084 1428 2787 
Q 1159 2491 1159 1978 
L 1159 0 
L 581 0 
L 581 3500 
L 1159 3500 
L 1159 2956 
Q 1366 3272 1645 3428 
Q 1925 3584 2291 3584 
Q 2894 3584 3203 3211 
Q 3513 2838 3513 2113 
z
" transform="scale(0.015625)"/>
      <path id="DejaVuSans-67" d="M 2906 1791 
Q 2906 2416 2648 2759 
Q 2391 3103 1925 3103 
Q 1463 3103 1205 2759 
Q 947 2416 947 1791 
Q 947 1169 1205 825 
Q 1463 481 1925 481 
Q 2391 481 2648 825 
Q 2906 1169 2906 1791 
z
M 3481 434 
Q 3481 -459 3084 -895 
Q 2688 -1331 1869 -1331 
Q 1566 -1331 1297 -1286 
Q 1028 -1241 775 -1147 
L 775 -588 
Q 1028 -725 1275 -790 
Q 1522 -856 1778 -856 
Q 2344 -856 2625 -561 
Q 2906 -266 2906 331 
L 2906 616 
Q 2728 306 2450 153 
Q 2172 0 1784 0 
Q 1141 0 747 490 
Q 353 981 353 1791 
Q 353 2603 747 3093 
Q 1141 3584 1784 3584 
Q 2172 3584 2450 3431 
Q 2728 3278 2906 2969 
L 2906 3500 
L 3481 3500 
L 3481 434 
z
" transform="scale(0.015625)"/>
      <path id="DejaVuSans-20" transform="scale(0.015625)"/>
      <path id="DejaVuSans-64" d="M 2906 2969 
L 2906 4863 
L 3481 4863 
L 3481 0 
L 2906 0 
L 2906 525 
Q 2725 213 2448 61 
Q 2172 -91 1784 -91 
Q 1150 -91 751 415 
Q 353 922 353 1747 
Q 353 2572 751 3078 
Q 1150 3584 1784 3584 
Q 2172 3584 2448 3432 
Q 2725 3281 2906 2969 
z
M 947 1747 
Q 947 1113 1208 752 
Q 1469 391 1925 391 
Q 2381 391 2643 752 
Q 2906 1113 2906 1747 
Q 2906 2381 2643 2742 
Q 2381 3103 1925 3103 
Q 1469 3103 1208 2742 
Q 947 2381 947 1747 
z
" transform="scale(0.015625)"/>
      <path id="DejaVuSans-74" d="M 1172 4494 
L 1172 3500 
L 2356 3500 
L 2356 3053 
L 1172 3053 
L 1172 1153 
Q 1172 725 1289 603 
Q 1406 481 1766 481 
L 2356 481 
L 2356 0 
L 1766 0 
Q 1100 0 847 248 
Q 594 497 594 1153 
L 594 3053 
L 172 3053 
L 172 3500 
L 594 3500 
L 594 4494 
L 1172 4494 
z
" transform="scale(0.015625)"/>
     </defs>
     <use xlink:href="#DejaVuSans-54"/>
     <use xlink:href="#DejaVuSans-72" x="46.333984"/>
     <use xlink:href="#DejaVuSans-61" x="87.447266"/>
     <use xlink:href="#DejaVuSans-69" x="148.726562"/>
     <use xlink:href="#DejaVuSans-6e" x="176.509766"/>
     <use xlink:href="#DejaVuSans-69" x="239.888672"/>
     <use xlink:href="#DejaVuSans-6e" x="267.671875"/>
     <use xlink:href="#DejaVuSans-67" x="331.050781"/>
     <use xlink:href="#DejaVuSans-20" x="394.527344"/>
     <use xlink:href="#DejaVuSans-64" x="426.314453"/>
     <use xlink:href="#DejaVuSans-61" x="489.791016"/>
     <use xlink:href="#DejaVuSans-74" x="551.070312"/>
     <use xlink:href="#DejaVuSans-61" x="590.279297"/>
    </g>
   </g>
  </g>
  <g id="axes_2">
   <g id="patch_15">
    <path d="M 274.953125 170.9725 
L 424.8 170.9725 
L 424.8 25.918125 
L 274.953125 25.918125 
z
" style="fill: #ffffff"/>
   </g>
   <g id="matplotlib.axis_3">
    <g id="xtick_4">
     <g id="line2d_12">
      <g>
       <use xlink:href="#m6b6d602124" x="281.764347" y="170.9725" style="stroke: #000000; stroke-width: 0.8"/>
      </g>
     </g>
     <g id="text_14">
      <!-- 0.0 -->
      <g transform="translate(272.222472 187.090625)scale(0.12 -0.12)">
       <use xlink:href="#DejaVuSans-30"/>
       <use xlink:href="#DejaVuSans-2e" x="63.623047"/>
       <use xlink:href="#DejaVuSans-30" x="95.410156"/>
      </g>
     </g>
    </g>
    <g id="xtick_5">
     <g id="line2d_13">
      <g>
       <use xlink:href="#m6b6d602124" x="336.827696" y="170.9725" style="stroke: #000000; stroke-width: 0.8"/>
      </g>
     </g>
     <g id="text_15">
      <!-- 0.1 -->
      <g transform="translate(327.285821 187.090625)scale(0.12 -0.12)">
       <use xlink:href="#DejaVuSans-30"/>
       <use xlink:href="#DejaVuSans-2e" x="63.623047"/>
       <use xlink:href="#DejaVuSans-31" x="95.410156"/>
      </g>
     </g>
    </g>
    <g id="xtick_6">
     <g id="line2d_14">
      <g>
       <use xlink:href="#m6b6d602124" x="391.891045" y="170.9725" style="stroke: #000000; stroke-width: 0.8"/>
      </g>
     </g>
     <g id="text_16">
      <!-- 0.2 -->
      <g transform="translate(382.34917 187.090625)scale(0.12 -0.12)">
       <use xlink:href="#DejaVuSans-30"/>
       <use xlink:href="#DejaVuSans-2e" x="63.623047"/>
       <use xlink:href="#DejaVuSans-32" x="95.410156"/>
      </g>
     </g>
    </g>
    <g id="text_17">
     <!-- Time (s) -->
     <g transform="translate(325.481875 202.704375)scale(0.12 -0.12)">
      <defs>
       <path id="DejaVuSans-6d" d="M 3328 2828 
Q 3544 3216 3844 3400 
Q 4144 3584 4550 3584 
Q 5097 3584 5394 3201 
Q 5691 2819 5691 2113 
L 5691 0 
L 5113 0 
L 5113 2094 
Q 5113 2597 4934 2840 
Q 4756 3084 4391 3084 
Q 3944 3084 3684 2787 
Q 3425 2491 3425 1978 
L 3425 0 
L 2847 0 
L 2847 2094 
Q 2847 2600 2669 2842 
Q 2491 3084 2119 3084 
Q 1678 3084 1418 2786 
Q 1159 2488 1159 1978 
L 1159 0 
L 581 0 
L 581 3500 
L 1159 3500 
L 1159 2956 
Q 1356 3278 1631 3431 
Q 1906 3584 2284 3584 
Q 2666 3584 2933 3390 
Q 3200 3197 3328 2828 
z
" transform="scale(0.015625)"/>
       <path id="DejaVuSans-65" d="M 3597 1894 
L 3597 1613 
L 953 1613 
Q 991 1019 1311 708 
Q 1631 397 2203 397 
Q 2534 397 2845 478 
Q 3156 559 3463 722 
L 3463 178 
Q 3153 47 2828 -22 
Q 2503 -91 2169 -91 
Q 1331 -91 842 396 
Q 353 884 353 1716 
Q 353 2575 817 3079 
Q 1281 3584 2069 3584 
Q 2775 3584 3186 3129 
Q 3597 2675 3597 1894 
z
M 3022 2063 
Q 3016 2534 2758 2815 
Q 2500 3097 2075 3097 
Q 1594 3097 1305 2825 
Q 1016 2553 972 2059 
L 3022 2063 
z
" transform="scale(0.015625)"/>
       <path id="DejaVuSans-28" d="M 1984 4856 
Q 1566 4138 1362 3434 
Q 1159 2731 1159 2009 
Q 1159 1288 1364 580 
Q 1569 -128 1984 -844 
L 1484 -844 
Q 1016 -109 783 600 
Q 550 1309 550 2009 
Q 550 2706 781 3412 
Q 1013 4119 1484 4856 
L 1984 4856 
z
" transform="scale(0.015625)"/>
       <path id="DejaVuSans-73" d="M 2834 3397 
L 2834 2853 
Q 2591 2978 2328 3040 
Q 2066 3103 1784 3103 
Q 1356 3103 1142 2972 
Q 928 2841 928 2578 
Q 928 2378 1081 2264 
Q 1234 2150 1697 2047 
L 1894 2003 
Q 2506 1872 2764 1633 
Q 3022 1394 3022 966 
Q 3022 478 2636 193 
Q 2250 -91 1575 -91 
Q 1294 -91 989 -36 
Q 684 19 347 128 
L 347 722 
Q 666 556 975 473 
Q 1284 391 1588 391 
Q 1994 391 2212 530 
Q 2431 669 2431 922 
Q 2431 1156 2273 1281 
Q 2116 1406 1581 1522 
L 1381 1569 
Q 847 1681 609 1914 
Q 372 2147 372 2553 
Q 372 3047 722 3315 
Q 1072 3584 1716 3584 
Q 2034 3584 2315 3537 
Q 2597 3491 2834 3397 
z
" transform="scale(0.015625)"/>
       <path id="DejaVuSans-29" d="M 513 4856 
L 1013 4856 
Q 1481 4119 1714 3412 
Q 1947 2706 1947 2009 
Q 1947 1309 1714 600 
Q 1481 -109 1013 -844 
L 513 -844 
Q 928 -128 1133 580 
Q 1338 1288 1338 2009 
Q 1338 2731 1133 3434 
Q 928 4138 513 4856 
z
" transform="scale(0.015625)"/>
      </defs>
      <use xlink:href="#DejaVuSans-54"/>
      <use xlink:href="#DejaVuSans-69" x="57.958984"/>
      <use xlink:href="#DejaVuSans-6d" x="85.742188"/>
      <use xlink:href="#DejaVuSans-65" x="183.154297"/>
      <use xlink:href="#DejaVuSans-20" x="244.677734"/>
      <use xlink:href="#DejaVuSans-28" x="276.464844"/>
      <use xlink:href="#DejaVuSans-73" x="315.478516"/>
      <use xlink:href="#DejaVuSans-29" x="367.578125"/>
     </g>
    </g>
   </g>
   <g id="matplotlib.axis_4">
    <g id="ytick_8">
     <g id="line2d_15">
      <g>
       <use xlink:href="#m110d7b262b" x="274.953125" y="149.163625" style="stroke: #000000; stroke-width: 0.8"/>
      </g>
     </g>
     <g id="text_18">
      <!-- −1.0 -->
      <g transform="translate(238.81375 153.722688)scale(0.12 -0.12)">
       <use xlink:href="#DejaVuSans-2212"/>
       <use xlink:href="#DejaVuSans-31" x="83.789062"/>
       <use xlink:href="#DejaVuSans-2e" x="147.412109"/>
       <use xlink:href="#DejaVuSans-30" x="179.199219"/>
      </g>
     </g>
    </g>
    <g id="ytick_9">
     <g id="line2d_16">
      <g>
       <use xlink:href="#m110d7b262b" x="274.953125" y="123.804469" style="stroke: #000000; stroke-width: 0.8"/>
      </g>
     </g>
     <g id="text_19">
      <!-- −0.5 -->
      <g transform="translate(238.81375 128.363531)scale(0.12 -0.12)">
       <use xlink:href="#DejaVuSans-2212"/>
       <use xlink:href="#DejaVuSans-30" x="83.789062"/>
       <use xlink:href="#DejaVuSans-2e" x="147.412109"/>
       <use xlink:href="#DejaVuSans-35" x="179.199219"/>
      </g>
     </g>
    </g>
    <g id="ytick_10">
     <g id="line2d_17">
      <g>
       <use xlink:href="#m110d7b262b" x="274.953125" y="98.445312" style="stroke: #000000; stroke-width: 0.8"/>
      </g>
     </g>
     <g id="text_20">
      <!-- 0.0 -->
      <g transform="translate(248.869375 103.004375)scale(0.12 -0.12)">
       <use xlink:href="#DejaVuSans-30"/>
       <use xlink:href="#DejaVuSans-2e" x="63.623047"/>
       <use xlink:href="#DejaVuSans-30" x="95.410156"/>
      </g>
     </g>
    </g>
    <g id="ytick_11">
     <g id="line2d_18">
      <g>
       <use xlink:href="#m110d7b262b" x="274.953125" y="73.086156" style="stroke: #000000; stroke-width: 0.8"/>
      </g>
     </g>
     <g id="text_21">
      <!-- 0.5 -->
      <g transform="translate(248.869375 77.645219)scale(0.12 -0.12)">
       <use xlink:href="#DejaVuSans-30"/>
       <use xlink:href="#DejaVuSans-2e" x="63.623047"/>
       <use xlink:href="#DejaVuSans-35" x="95.410156"/>
      </g>
     </g>
    </g>
    <g id="ytick_12">
     <g id="line2d_19">
      <g>
       <use xlink:href="#m110d7b262b" x="274.953125" y="47.727" style="stroke: #000000; stroke-width: 0.8"/>
      </g>
     </g>
     <g id="text_22">
      <!-- 1.0 -->
      <g transform="translate(248.869375 52.286062)scale(0.12 -0.12)">
       <use xlink:href="#DejaVuSans-31"/>
       <use xlink:href="#DejaVuSans-2e" x="63.623047"/>
       <use xlink:href="#DejaVuSans-30" x="95.410156"/>
      </g>
     </g>
    </g>
    <g id="text_23">
     <!-- x, y -->
     <g transform="translate(232.318125 109.361563)rotate(-90)scale(0.12 -0.12)">
      <defs>
       <path id="DejaVuSans-78" d="M 3513 3500 
L 2247 1797 
L 3578 0 
L 2900 0 
L 1881 1375 
L 863 0 
L 184 0 
L 1544 1831 
L 300 3500 
L 978 3500 
L 1906 2253 
L 2834 3500 
L 3513 3500 
z
" transform="scale(0.015625)"/>
       <path id="DejaVuSans-2c" d="M 750 794 
L 1409 794 
L 1409 256 
L 897 -744 
L 494 -744 
L 750 256 
L 750 794 
z
" transform="scale(0.015625)"/>
       <path id="DejaVuSans-79" d="M 2059 -325 
Q 1816 -950 1584 -1140 
Q 1353 -1331 966 -1331 
L 506 -1331 
L 506 -850 
L 844 -850 
Q 1081 -850 1212 -737 
Q 1344 -625 1503 -206 
L 1606 56 
L 191 3500 
L 800 3500 
L 1894 763 
L 2988 3500 
L 3597 3500 
L 2059 -325 
z
" transform="scale(0.015625)"/>
      </defs>
      <use xlink:href="#DejaVuSans-78"/>
      <use xlink:href="#DejaVuSans-2c" x="59.179688"/>
      <use xlink:href="#DejaVuSans-20" x="90.966797"/>
      <use xlink:href="#DejaVuSans-79" x="122.753906"/>
     </g>
    </g>
   </g>
   <g id="line2d_20">
    <path d="M 281.764347 32.511506 
L 283.198288 32.652675 
L 284.632229 33.075579 
L 286.066171 33.778405 
L 287.500112 34.758146 
L 288.934054 36.010604 
L 290.367995 37.530418 
L 291.801936 39.311078 
L 293.235878 41.344961 
L 294.669819 43.623356 
L 296.10376 46.136507 
L 297.537702 48.873652 
L 298.971643 51.823071 
L 300.405585 54.972133 
L 301.839526 58.307354 
L 303.273467 61.814452 
L 304.707409 65.478409 
L 306.14135 69.283535 
L 307.575292 73.213537 
L 309.009233 77.251585 
L 310.443174 81.380388 
L 311.877116 85.582265 
L 313.311057 89.839224 
L 314.744999 94.133035 
L 316.17894 98.445312 
L 317.612881 102.75759 
L 319.046823 107.051401 
L 320.480764 111.30836 
L 321.914705 115.510237 
L 323.348647 119.63904 
L 324.782588 123.677088 
L 326.21653 127.60709 
L 327.650471 131.412216 
L 329.084412 135.076173 
L 330.518354 138.583271 
L 331.952295 141.918492 
L 333.386237 145.067554 
L 334.820178 148.016973 
L 336.254119 150.754118 
L 337.688061 153.267269 
L 339.122002 155.545664 
L 340.555943 157.579547 
L 341.989885 159.360207 
L 343.423826 160.880021 
L 344.857768 162.132479 
L 346.291709 163.11222 
L 347.72565 163.815046 
L 349.159592 164.23795 
L 350.593533 164.379119 
L 352.027475 164.23795 
L 353.461416 163.815046 
L 354.895357 163.11222 
L 356.329299 162.132479 
L 357.76324 160.880021 
L 359.197182 159.360207 
L 360.631123 157.579547 
L 362.065064 155.545664 
L 363.499006 153.267269 
L 364.932947 150.754118 
L 366.366888 148.016973 
L 367.80083 145.067554 
L 369.234771 141.918492 
L 370.668713 138.583271 
L 372.102654 135.076173 
L 373.536595 131.412216 
L 374.970537 127.60709 
L 376.404478 123.677088 
L 377.83842 119.63904 
L 379.272361 115.510237 
L 380.706302 111.30836 
L 382.140244 107.051401 
L 383.574185 102.75759 
L 385.008126 98.445313 
L 386.442068 94.133035 
L 387.876009 89.839224 
L 389.309951 85.582265 
L 390.743892 81.380388 
L 392.177833 77.251585 
L 393.611775 73.213537 
L 395.045716 69.283535 
L 396.479658 65.478409 
L 397.913599 61.814452 
L 399.34754 58.307354 
L 400.781482 54.972133 
L 402.215423 51.823071 
L 403.649365 48.873652 
L 405.083306 46.136507 
L 406.517247 43.623356 
L 407.951189 41.344961 
L 409.38513 39.311078 
L 410.819071 37.530418 
L 412.253013 36.010604 
L 413.686954 34.758146 
L 415.120896 33.778405 
L 416.554837 33.075579 
L 417.988778 32.652675 
" clip-path="url(#p36b3a8424f)" style="fill: none; stroke: #1f77b4; stroke-width: 1.5; stroke-linecap: square"/>
   </g>
   <g id="line2d_21">
    <path d="M 281.764347 98.445312 
L 283.198288 94.133035 
L 284.632229 89.839224 
L 286.066171 85.582265 
L 287.500112 81.380388 
L 288.934054 77.251585 
L 290.367995 73.213537 
L 291.801936 69.283535 
L 293.235878 65.478409 
L 294.669819 61.814452 
L 296.10376 58.307354 
L 297.537702 54.972133 
L 298.971643 51.823071 
L 300.405585 48.873652 
L 301.839526 46.136507 
L 303.273467 43.623356 
L 304.707409 41.344961 
L 306.14135 39.311078 
L 307.575292 37.530418 
L 309.009233 36.010604 
L 310.443174 34.758146 
L 311.877116 33.778405 
L 313.311057 33.075579 
L 314.744999 32.652675 
L 316.17894 32.511506 
L 317.612881 32.652675 
L 319.046823 33.075579 
L 320.480764 33.778405 
L 321.914705 34.758146 
L 323.348647 36.010604 
L 324.782588 37.530418 
L 326.21653 39.311078 
L 327.650471 41.344961 
L 329.084412 43.623356 
L 330.518354 46.136507 
L 331.952295 48.873652 
L 333.386237 51.823071 
L 334.820178 54.972133 
L 336.254119 58.307354 
L 337.688061 61.814452 
L 339.122002 65.478409 
L 340.555943 69.283535 
L 341.989885 73.213537 
L 343.423826 77.251585 
L 344.857768 81.380388 
L 346.291709 85.582265 
L 347.72565 89.839224 
L 349.159592 94.133035 
L 350.593533 98.445312 
L 352.027475 102.75759 
L 353.461416 107.051401 
L 354.895357 111.30836 
L 356.329299 115.510237 
L 357.76324 119.63904 
L 359.197182 123.677088 
L 360.631123 127.60709 
L 362.065064 131.412216 
L 363.499006 135.076173 
L 364.932947 138.583271 
L 366.366888 141.918492 
L 367.80083 145.067554 
L 369.234771 148.016973 
L 370.668713 150.754118 
L 372.102654 153.267269 
L 373.536595 155.545664 
L 374.970537 157.579547 
L 376.404478 159.360207 
L 377.83842 160.880021 
L 379.272361 162.132479 
L 380.706302 163.11222 
L 382.140244 163.815046 
L 383.574185 164.23795 
L 385.008126 164.379119 
L 386.442068 164.23795 
L 387.876009 163.815046 
L 389.309951 163.11222 
L 390.743892 162.132479 
L 392.177833 160.880021 
L 393.611775 159.360207 
L 395.045716 157.579547 
L 396.479658 155.545664 
L 397.913599 153.267269 
L 399.34754 150.754118 
L 400.781482 148.016973 
L 402.215423 145.067554 
L 403.649365 141.918492 
L 405.083306 138.583271 
L 406.517247 135.076173 
L 407.951189 131.412216 
L 409.38513 127.60709 
L 410.819071 123.677088 
L 412.253013 119.63904 
L 413.686954 115.510237 
L 415.120896 111.30836 
L 416.554837 107.051401 
L 417.988778 102.75759 
" clip-path="url(#p36b3a8424f)" style="fill: none; stroke: #ff7f0e; stroke-width: 1.5; stroke-linecap: square"/>
   </g>
   <g id="patch_16">
    <path d="M 274.953125 170.9725 
L 274.953125 25.918125 
" style="fill: none; stroke: #000000; stroke-width: 0.8; stroke-linejoin: miter; stroke-linecap: square"/>
   </g>
   <g id="patch_17">
    <path d="M 424.8 170.9725 
L 424.8 25.918125 
" style="fill: none; stroke: #000000; stroke-width: 0.8; stroke-linejoin: miter; stroke-linecap: square"/>
   </g>
   <g id="patch_18">
    <path d="M 274.953125 170.9725 
L 424.8 170.9725 
" style="fill: none; stroke: #000000; stroke-width: 0.8; stroke-linejoin: miter; stroke-linecap: square"/>
   </g>
   <g id="patch_19">
    <path d="M 274.953125 25.918125 
L 424.8 25.918125 
" style="fill: none; stroke: #000000; stroke-width: 0.8; stroke-linejoin: miter; stroke-linecap: square"/>
   </g>
   <g id="text_24">
    <!-- Position (f = 4 Hz) -->
    <g transform="translate(295.591563 19.918125)scale(0.12 -0.12)">
     <defs>
      <path id="DejaVuSans-50" d="M 1259 4147 
L 1259 2394 
L 2053 2394 
Q 2494 2394 2734 2622 
Q 2975 2850 2975 3272 
Q 2975 3691 2734 3919 
Q 2494 4147 2053 4147 
L 1259 4147 
z
M 628 4666 
L 2053 4666 
Q 2838 4666 3239 4311 
Q 3641 3956 3641 3272 
Q 3641 2581 3239 2228 
Q 2838 1875 2053 1875 
L 1259 1875 
L 1259 0 
L 628 0 
L 628 4666 
z
" transform="scale(0.015625)"/>
      <path id="DejaVuSans-6f" d="M 1959 3097 
Q 1497 3097 1228 2736 
Q 959 2375 959 1747 
Q 959 1119 1226 758 
Q 1494 397 1959 397 
Q 2419 397 2687 759 
Q 2956 1122 2956 1747 
Q 2956 2369 2687 2733 
Q 2419 3097 1959 3097 
z
M 1959 3584 
Q 2709 3584 3137 3096 
Q 3566 2609 3566 1747 
Q 3566 888 3137 398 
Q 2709 -91 1959 -91 
Q 1206 -91 779 398 
Q 353 888 353 1747 
Q 353 2609 779 3096 
Q 1206 3584 1959 3584 
z
" transform="scale(0.015625)"/>
      <path id="DejaVuSans-66" d="M 2375 4863 
L 2375 4384 
L 1825 4384 
Q 1516 4384 1395 4259 
Q 1275 4134 1275 3809 
L 1275 3500 
L 2222 3500 
L 2222 3053 
L 1275 3053 
L 1275 0 
L 697 0 
L 697 3053 
L 147 3053 
L 147 3500 
L 697 3500 
L 697 3744 
Q 697 4328 969 4595 
Q 1241 4863 1831 4863 
L 2375 4863 
z
" transform="scale(0.015625)"/>
      <path id="DejaVuSans-3d" d="M 678 2906 
L 4684 2906 
L 4684 2381 
L 678 2381 
L 678 2906 
z
M 678 1631 
L 4684 1631 
L 4684 1100 
L 678 1100 
L 678 1631 
z
" transform="scale(0.015625)"/>
      <path id="DejaVuSans-34" d="M 2419 4116 
L 825 1625 
L 2419 1625 
L 2419 4116 
z
M 2253 4666 
L 3047 4666 
L 3047 1625 
L 3713 1625 
L 3713 1100 
L 3047 1100 
L 3047 0 
L 2419 0 
L 2419 1100 
L 313 1100 
L 313 1709 
L 2253 4666 
z
" transform="scale(0.015625)"/>
      <path id="DejaVuSans-48" d="M 628 4666 
L 1259 4666 
L 1259 2753 
L 3553 2753 
L 3553 4666 
L 4184 4666 
L 4184 0 
L 3553 0 
L 3553 2222 
L 1259 2222 
L 1259 0 
L 628 0 
L 628 4666 
z
" transform="scale(0.015625)"/>
      <path id="DejaVuSans-7a" d="M 353 3500 
L 3084 3500 
L 3084 2975 
L 922 459 
L 3084 459 
L 3084 0 
L 275 0 
L 275 525 
L 2438 3041 
L 353 3041 
L 353 3500 
z
" transform="scale(0.015625)"/>
     </defs>
     <use xlink:href="#DejaVuSans-50"/>
     <use xlink:href="#DejaVuSans-6f" x="56.677734"/>
     <use xlink:href="#DejaVuSans-73" x="117.859375"/>
     <use xlink:href="#DejaVuSans-69" x="169.958984"/>
     <use xlink:href="#DejaVuSans-74" x="197.742188"/>
     <use xlink:href="#DejaVuSans-69" x="236.951172"/>
     <use xlink:href="#DejaVuSans-6f" x="264.734375"/>
     <use xlink:href="#DejaVuSans-6e" x="325.916016"/>
     <use xlink:href="#DejaVuSans-20" x="389.294922"/>
     <use xlink:href="#DejaVuSans-28" x="421.082031"/>
     <use xlink:href="#DejaVuSans-66" x="460.095703"/>
     <use xlink:href="#DejaVuSans-20" x="495.300781"/>
     <use xlink:href="#DejaVuSans-3d" x="527.087891"/>
     <use xlink:href="#DejaVuSans-20" x="610.876953"/>
     <use xlink:href="#DejaVuSans-34" x="642.664062"/>
     <use xlink:href="#DejaVuSans-20" x="706.287109"/>
     <use xlink:href="#DejaVuSans-48" x="738.074219"/>
     <use xlink:href="#DejaVuSans-7a" x="813.269531"/>
     <use xlink:href="#DejaVuSans-29" x="865.759766"/>
    </g>
   </g>
  </g>
  <g id="axes_3">
   <g id="patch_20">
    <path d="M 487.353125 170.9725 
L 637.2 170.9725 
L 637.2 25.918125 
L 487.353125 25.918125 
z
" style="fill: #ffffff"/>
   </g>
   <g id="matplotlib.axis_5">
    <g id="xtick_7">
     <g id="line2d_22">
      <g>
       <use xlink:href="#m6b6d602124" x="494.164347" y="170.9725" style="stroke: #000000; stroke-width: 0.8"/>
      </g>
     </g>
     <g id="text_25">
      <!-- 0.0 -->
      <g transform="translate(484.622472 187.090625)scale(0.12 -0.12)">
       <use xlink:href="#DejaVuSans-30"/>
       <use xlink:href="#DejaVuSans-2e" x="63.623047"/>
       <use xlink:href="#DejaVuSans-30" x="95.410156"/>
      </g>
     </g>
    </g>
    <g id="xtick_8">
     <g id="line2d_23">
      <g>
       <use xlink:href="#m6b6d602124" x="549.227696" y="170.9725" style="stroke: #000000; stroke-width: 0.8"/>
      </g>
     </g>
     <g id="text_26">
      <!-- 0.1 -->
      <g transform="translate(539.685821 187.090625)scale(0.12 -0.12)">
       <use xlink:href="#DejaVuSans-30"/>
       <use xlink:href="#DejaVuSans-2e" x="63.623047"/>
       <use xlink:href="#DejaVuSans-31" x="95.410156"/>
      </g>
     </g>
    </g>
    <g id="xtick_9">
     <g id="line2d_24">
      <g>
       <use xlink:href="#m6b6d602124" x="604.291045" y="170.9725" style="stroke: #000000; stroke-width: 0.8"/>
      </g>
     </g>
     <g id="text_27">
      <!-- 0.2 -->
      <g transform="translate(594.74917 187.090625)scale(0.12 -0.12)">
       <use xlink:href="#DejaVuSans-30"/>
       <use xlink:href="#DejaVuSans-2e" x="63.623047"/>
       <use xlink:href="#DejaVuSans-32" x="95.410156"/>
      </g>
     </g>
    </g>
    <g id="text_28">
     <!-- Time (s) -->
     <g transform="translate(537.881875 202.704375)scale(0.12 -0.12)">
      <use xlink:href="#DejaVuSans-54"/>
      <use xlink:href="#DejaVuSans-69" x="57.958984"/>
      <use xlink:href="#DejaVuSans-6d" x="85.742188"/>
      <use xlink:href="#DejaVuSans-65" x="183.154297"/>
      <use xlink:href="#DejaVuSans-20" x="244.677734"/>
      <use xlink:href="#DejaVuSans-28" x="276.464844"/>
      <use xlink:href="#DejaVuSans-73" x="315.478516"/>
      <use xlink:href="#DejaVuSans-29" x="367.578125"/>
     </g>
    </g>
   </g>
   <g id="matplotlib.axis_6">
    <g id="ytick_13">
     <g id="line2d_25">
      <g>
       <use xlink:href="#m110d7b262b" x="487.353125" y="138.805664" style="stroke: #000000; stroke-width: 0.8"/>
      </g>
     </g>
     <g id="text_29">
      <!-- −20 -->
      <g transform="translate(455.0275 143.364726)scale(0.12 -0.12)">
       <use xlink:href="#DejaVuSans-2212"/>
       <use xlink:href="#DejaVuSans-32" x="83.789062"/>
       <use xlink:href="#DejaVuSans-30" x="147.412109"/>
      </g>
     </g>
    </g>
    <g id="ytick_14">
     <g id="line2d_26">
      <g>
       <use xlink:href="#m110d7b262b" x="487.353125" y="98.445312" style="stroke: #000000; stroke-width: 0.8"/>
      </g>
     </g>
     <g id="text_30">
      <!-- 0 -->
      <g transform="translate(472.718125 103.004375)scale(0.12 -0.12)">
       <use xlink:href="#DejaVuSans-30"/>
      </g>
     </g>
    </g>
    <g id="ytick_15">
     <g id="line2d_27">
      <g>
       <use xlink:href="#m110d7b262b" x="487.353125" y="58.084961" style="stroke: #000000; stroke-width: 0.8"/>
      </g>
     </g>
     <g id="text_31">
      <!-- 20 -->
      <g transform="translate(465.083125 62.644024)scale(0.12 -0.12)">
       <use xlink:href="#DejaVuSans-32"/>
       <use xlink:href="#DejaVuSans-30" x="63.623047"/>
      </g>
     </g>
    </g>
    <g id="text_32">
     <!-- vx, vy -->
     <g transform="translate(448.531875 116.464062)rotate(-90)scale(0.12 -0.12)">
      <defs>
       <path id="DejaVuSans-76" d="M 191 3500 
L 800 3500 
L 1894 563 
L 2988 3500 
L 3597 3500 
L 2284 0 
L 1503 0 
L 191 3500 
z
" transform="scale(0.015625)"/>
      </defs>
      <use xlink:href="#DejaVuSans-76"/>
      <use xlink:href="#DejaVuSans-78" x="59.179688"/>
      <use xlink:href="#DejaVuSans-2c" x="118.359375"/>
      <use xlink:href="#DejaVuSans-20" x="150.146484"/>
      <use xlink:href="#DejaVuSans-76" x="181.933594"/>
      <use xlink:href="#DejaVuSans-79" x="241.113281"/>
     </g>
    </g>
   </g>
   <g id="line2d_28">
    <path d="M 494.164347 98.445312 
L 495.598288 102.75759 
L 497.032229 107.051401 
L 498.466171 111.30836 
L 499.900112 115.510237 
L 501.334054 119.63904 
L 502.767995 123.677088 
L 504.201936 127.60709 
L 505.635878 131.412216 
L 507.069819 135.076173 
L 508.50376 138.583271 
L 509.937702 141.918492 
L 511.371643 145.067554 
L 512.805585 148.016973 
L 514.239526 150.754118 
L 515.673467 153.267269 
L 517.107409 155.545664 
L 518.54135 157.579547 
L 519.975292 159.360207 
L 521.409233 160.880021 
L 522.843174 162.132479 
L 524.277116 163.11222 
L 525.711057 163.815046 
L 527.144999 164.23795 
L 528.57894 164.379119 
L 530.012881 164.23795 
L 531.446823 163.815046 
L 532.880764 163.11222 
L 534.314705 162.132479 
L 535.748647 160.880021 
L 537.182588 159.360207 
L 538.61653 157.579547 
L 540.050471 155.545664 
L 541.484412 153.267269 
L 542.918354 150.754118 
L 544.352295 148.016973 
L 545.786237 145.067554 
L 547.220178 141.918492 
L 548.654119 138.583271 
L 550.088061 135.076173 
L 551.522002 131.412216 
L 552.955943 127.60709 
L 554.389885 123.677088 
L 555.823826 119.63904 
L 557.257768 115.510237 
L 558.691709 111.30836 
L 560.12565 107.051401 
L 561.559592 102.75759 
L 562.993533 98.445313 
L 564.427475 94.133035 
L 565.861416 89.839224 
L 567.295357 85.582265 
L 568.729299 81.380388 
L 570.16324 77.251585 
L 571.597182 73.213537 
L 573.031123 69.283535 
L 574.465064 65.478409 
L 575.899006 61.814452 
L 577.332947 58.307354 
L 578.766888 54.972133 
L 580.20083 51.823071 
L 581.634771 48.873652 
L 583.068713 46.136507 
L 584.502654 43.623356 
L 585.936595 41.344961 
L 587.370537 39.311078 
L 588.804478 37.530418 
L 590.23842 36.010604 
L 591.672361 34.758146 
L 593.106302 33.778405 
L 594.540244 33.075579 
L 595.974185 32.652675 
L 597.408126 32.511506 
L 598.842068 32.652675 
L 600.276009 33.075579 
L 601.709951 33.778405 
L 603.143892 34.758146 
L 604.577833 36.010604 
L 606.011775 37.530418 
L 607.445716 39.311078 
L 608.879658 41.344961 
L 610.313599 43.623356 
L 611.74754 46.136507 
L 613.181482 48.873652 
L 614.615423 51.823071 
L 616.049365 54.972133 
L 617.483306 58.307354 
L 618.917247 61.814452 
L 620.351189 65.478409 
L 621.78513 69.283535 
L 623.219071 73.213537 
L 624.653013 77.251585 
L 626.086954 81.380388 
L 627.520896 85.582265 
L 628.954837 89.839224 
L 630.388778 94.133035 
" clip-path="url(#p927a019c65)" style="fill: none; stroke: #1f77b4; stroke-width: 1.5; stroke-linecap: square"/>
   </g>
   <g id="line2d_29">
    <path d="M 494.164347 32.511506 
L 495.598288 32.652675 
L 497.032229 33.075579 
L 498.466171 33.778405 
L 499.900112 34.758146 
L 501.334054 36.010604 
L 502.767995 37.530418 
L 504.201936 39.311078 
L 505.635878 41.344961 
L 507.069819 43.623356 
L 508.50376 46.136507 
L 509.937702 48.873652 
L 511.371643 51.823071 
L 512.805585 54.972133 
L 514.239526 58.307354 
L 515.673467 61.814452 
L 517.107409 65.478409 
L 518.54135 69.283535 
L 519.975292 73.213537 
L 521.409233 77.251585 
L 522.843174 81.380388 
L 524.277116 85.582265 
L 525.711057 89.839224 
L 527.144999 94.133035 
L 528.57894 98.445312 
L 530.012881 102.75759 
L 531.446823 107.051401 
L 532.880764 111.30836 
L 534.314705 115.510237 
L 535.748647 119.63904 
L 537.182588 123.677088 
L 538.61653 127.60709 
L 540.050471 131.412216 
L 541.484412 135.076173 
L 542.918354 138.583271 
L 544.352295 141.918492 
L 545.786237 145.067554 
L 547.220178 148.016973 
L 548.654119 150.754118 
L 550.088061 153.267269 
L 551.522002 155.545664 
L 552.955943 157.579547 
L 554.389885 159.360207 
L 555.823826 160.880021 
L 557.257768 162.132479 
L 558.691709 163.11222 
L 560.12565 163.815046 
L 561.559592 164.23795 
L 562.993533 164.379119 
L 564.427475 164.23795 
L 565.861416 163.815046 
L 567.295357 163.11222 
L 568.729299 162.132479 
L 570.16324 160.880021 
L 571.597182 159.360207 
L 573.031123 157.579547 
L 574.465064 155.545664 
L 575.899006 153.267269 
L 577.332947 150.754118 
L 578.766888 148.016973 
L 580.20083 145.067554 
L 581.634771 141.918492 
L 583.068713 138.583271 
L 584.502654 135.076173 
L 585.936595 131.412216 
L 587.370537 127.60709 
L 588.804478 123.677088 
L 590.23842 119.63904 
L 591.672361 115.510237 
L 593.106302 111.30836 
L 594.540244 107.051401 
L 595.974185 102.75759 
L 597.408126 98.445313 
L 598.842068 94.133035 
L 600.276009 89.839224 
L 601.709951 85.582265 
L 603.143892 81.380388 
L 604.577833 77.251585 
L 606.011775 73.213537 
L 607.445716 69.283535 
L 608.879658 65.478409 
L 610.313599 61.814452 
L 611.74754 58.307354 
L 613.181482 54.972133 
L 614.615423 51.823071 
L 616.049365 48.873652 
L 617.483306 46.136507 
L 618.917247 43.623356 
L 620.351189 41.344961 
L 621.78513 39.311078 
L 623.219071 37.530418 
L 624.653013 36.010604 
L 626.086954 34.758146 
L 627.520896 33.778405 
L 628.954837 33.075579 
L 630.388778 32.652675 
" clip-path="url(#p927a019c65)" style="fill: none; stroke: #ff7f0e; stroke-width: 1.5; stroke-linecap: square"/>
   </g>
   <g id="patch_21">
    <path d="M 487.353125 170.9725 
L 487.353125 25.918125 
" style="fill: none; stroke: #000000; stroke-width: 0.8; stroke-linejoin: miter; stroke-linecap: square"/>
   </g>
   <g id="patch_22">
    <path d="M 637.2 170.9725 
L 637.2 25.918125 
" style="fill: none; stroke: #000000; stroke-width: 0.8; stroke-linejoin: miter; stroke-linecap: square"/>
   </g>
   <g id="patch_23">
    <path d="M 487.353125 170.9725 
L 637.2 170.9725 
" style="fill: none; stroke: #000000; stroke-width: 0.8; stroke-linejoin: miter; stroke-linecap: square"/>
   </g>
   <g id="patch_24">
    <path d="M 487.353125 25.918125 
L 637.2 25.918125 
" style="fill: none; stroke: #000000; stroke-width: 0.8; stroke-linejoin: miter; stroke-linecap: square"/>
   </g>
   <g id="text_33">
    <!-- Position (f = 4 Hz) -->
    <g transform="translate(507.991562 19.918125)scale(0.12 -0.12)">
     <use xlink:href="#DejaVuSans-50"/>
     <use xlink:href="#DejaVuSans-6f" x="56.677734"/>
     <use xlink:href="#DejaVuSans-73" x="117.859375"/>
     <use xlink:href="#DejaVuSans-69" x="169.958984"/>
     <use xlink:href="#DejaVuSans-74" x="197.742188"/>
     <use xlink:href="#DejaVuSans-69" x="236.951172"/>
     <use xlink:href="#DejaVuSans-6f" x="264.734375"/>
     <use xlink:href="#DejaVuSans-6e" x="325.916016"/>
     <use xlink:href="#DejaVuSans-20" x="389.294922"/>
     <use xlink:href="#DejaVuSans-28" x="421.082031"/>
     <use xlink:href="#DejaVuSans-66" x="460.095703"/>
     <use xlink:href="#DejaVuSans-20" x="495.300781"/>
     <use xlink:href="#DejaVuSans-3d" x="527.087891"/>
     <use xlink:href="#DejaVuSans-20" x="610.876953"/>
     <use xlink:href="#DejaVuSans-34" x="642.664062"/>
     <use xlink:href="#DejaVuSans-20" x="706.287109"/>
     <use xlink:href="#DejaVuSans-48" x="738.074219"/>
     <use xlink:href="#DejaVuSans-7a" x="813.269531"/>
     <use xlink:href="#DejaVuSans-29" x="865.759766"/>
    </g>
   </g>
  </g>
 </g>
 <defs>
  <clipPath id="p884dcbaff6">
   <rect x="64.949375" y="25.918125" width="145.054375" height="145.054375"/>
  </clipPath>
  <clipPath id="p36b3a8424f">
   <rect x="274.953125" y="25.918125" width="149.846875" height="145.054375"/>
  </clipPath>
  <clipPath id="p927a019c65">
   <rect x="487.353125" y="25.918125" width="149.846875" height="145.054375"/>
  </clipPath>
 </defs>
</svg>
