<?xml version="1.0" encoding="utf-8" standalone="no"?>
<!DOCTYPE svg PUBLIC "-//W3C//DTD SVG 1.1//EN"
  "http://www.w3.org/Graphics/SVG/1.1/DTD/svg11.dtd">
<svg xmlns:xlink="http://www.w3.org/1999/xlink" width="230.4pt" height="288pt" viewBox="0 0 230.4 288" xmlns="http://www.w3.org/2000/svg" version="1.1">
 <metadata>
  <rdf:RDF xmlns:dc="http://purl.org/dc/elements/1.1/" xmlns:cc="http://creativecommons.org/ns#" xmlns:rdf="http://www.w3.org/1999/02/22-rdf-syntax-ns#">
   <cc:Work>
    <dc:type rdf:resource="http://purl.org/dc/dcmitype/StillImage"/>
    <dc:date>2025-06-20T15:26:24.563984</dc:date>
    <dc:format>image/svg+xml</dc:format>
    <dc:creator>
     <cc:Agent>
      <dc:title>Matplotlib v3.5.2, https://matplotlib.org/</dc:title>
     </cc:Agent>
    </dc:creator>
   </cc:Work>
  </rdf:RDF>
 </metadata>
 <defs>
  <style type="text/css">*{stroke-linejoin: round; stroke-linecap: butt}</style>
 </defs>
 <g id="figure_1">
  <g id="patch_1">
   <path d="M 0 288 
L 230.4 288 
L 230.4 0 
L 0 0 
z
" style="fill: #ffffff"/>
  </g>
  <g id="axes_1">
   <g id="patch_2">
    <path d="M 62.553125 104.3725 
L 219.6 104.3725 
L 219.6 10.8 
L 62.553125 10.8 
z
" style="fill: #ffffff"/>
   </g>
   <g id="line2d_1">
    <path d="M 69.691619 26.369411 
L 69.977731 26.397867 
L 70.263843 22.939296 
L 70.549955 21.565384 
L 70.836067 21.290189 
L 71.122179 22.853218 
L 71.408291 22.094667 
L 71.694403 20.795678 
L 71.980515 22.304601 
L 72.266627 23.12364 
L 72.552739 23.325038 
L 72.838851 25.077826 
L 73.124963 22.116139 
L 73.411075 26.674766 
L 73.697187 28.159792 
L 73.983299 25.485237 
L 74.269411 21.146604 
L 74.555523 22.330026 
L 74.841635 19.31536 
L 75.127747 17.918197 
L 75.413859 20.145018 
L 75.986083 25.951467 
L 76.272195 25.944178 
L 76.558307 22.769227 
L 76.844419 22.985102 
L 77.130531 22.805663 
L 77.416643 26.181193 
L 77.702755 28.109081 
L 78.274979 27.368345 
L 78.561091 29.755542 
L 78.847203 30.767718 
L 79.133315 29.795685 
L 79.705539 26.901911 
L 79.991651 27.074711 
L 80.277763 27.601152 
L 80.563875 28.51883 
L 80.849987 28.228393 
L 81.136099 28.507327 
L 81.422211 30.502295 
L 81.708323 30.698759 
L 81.994435 30.305333 
L 82.280547 31.500476 
L 82.566659 29.269255 
L 82.852771 28.762705 
L 83.138883 30.167601 
L 83.424995 30.453409 
L 83.711107 32.11424 
L 83.997219 31.299526 
L 84.283331 28.432299 
L 84.569443 28.390155 
L 84.855555 28.721231 
L 85.427779 27.13858 
L 85.713891 26.466868 
L 86.000003 21.270641 
L 86.286115 21.604186 
L 86.572227 21.146377 
L 86.858339 19.414283 
L 87.144451 21.207888 
L 87.430563 18.171144 
L 87.716675 18.028819 
L 88.002787 20.312345 
L 88.575011 20.559236 
L 88.861123 20.260213 
L 89.147235 22.220518 
L 89.433347 25.89501 
L 90.005571 26.28055 
L 90.291683 23.992013 
L 90.577795 25.648069 
L 90.863907 24.11797 
L 91.150019 21.290052 
L 91.436131 21.893769 
L 91.722243 17.632909 
L 92.008355 15.710036 
L 92.294467 19.139281 
L 92.580579 20.923355 
L 93.438915 28.502165 
L 93.725027 28.815232 
L 94.011139 29.458747 
L 94.297251 30.626272 
L 94.583363 30.222549 
L 94.869475 30.094923 
L 96.013923 35.098703 
L 96.300035 32.682997 
L 96.586147 32.455189 
L 96.872259 34.659065 
L 97.158371 34.658387 
L 97.444483 36.57762 
L 97.730595 35.072136 
L 98.302819 33.334206 
L 98.588931 31.871043 
L 98.875043 29.392799 
L 99.161155 29.962334 
L 99.447267 28.116902 
L 99.733379 28.083377 
L 100.019491 27.224865 
L 100.305603 27.768504 
L 100.591715 28.884101 
L 100.877827 31.005456 
L 101.163939 31.189102 
L 101.736163 34.711246 
L 102.022275 31.241262 
L 102.594499 36.840271 
L 102.880611 37.098587 
L 103.166723 38.888103 
L 103.452835 37.408161 
L 104.025059 37.971868 
L 104.311171 40.555585 
L 104.597283 40.968017 
L 104.883395 42.663736 
L 105.169507 43.665168 
L 105.455619 42.440234 
L 105.741731 42.1183 
L 106.027843 45.072316 
L 106.313955 46.542839 
L 106.600067 45.731657 
L 106.886179 47.79129 
L 107.172291 48.660222 
L 107.458403 51.185398 
L 107.744515 50.266852 
L 108.030627 49.826353 
L 108.316739 50.393313 
L 108.602851 55.606704 
L 108.888963 55.239531 
L 109.461187 53.991099 
L 109.747299 53.524574 
L 110.033411 54.56974 
L 110.319523 55.185977 
L 110.605635 53.517132 
L 110.891747 54.514802 
L 111.177859 53.729845 
L 111.463971 52.001247 
L 111.750083 52.10767 
L 112.036195 50.822913 
L 112.322307 48.777604 
L 112.608419 49.071191 
L 112.894531 45.354785 
L 113.180643 48.11186 
L 113.466755 47.056462 
L 113.752867 47.504809 
L 114.038979 51.134617 
L 114.325091 49.199695 
L 114.611203 46.175153 
L 114.897315 45.972236 
L 115.183427 48.437733 
L 115.469539 48.864189 
L 115.755651 49.711705 
L 116.041763 51.585351 
L 116.327875 52.566128 
L 116.900099 48.53244 
L 117.186211 49.066786 
L 117.472323 52.589317 
L 117.758435 53.043538 
L 118.044547 55.31811 
L 118.330659 55.823668 
L 118.616771 55.112371 
L 118.902883 56.404045 
L 119.188995 56.59459 
L 119.475107 55.795227 
L 119.761219 55.690704 
L 120.047331 53.93451 
L 120.333443 50.74168 
L 120.619555 51.234381 
L 120.905667 49.100707 
L 121.191779 48.848284 
L 121.477891 49.110103 
L 121.764003 48.358891 
L 122.050115 50.112016 
L 122.336227 50.586972 
L 122.622339 51.347349 
L 122.908451 49.747064 
L 123.194563 47.133342 
L 123.480675 46.215455 
L 123.766787 46.023532 
L 124.052899 47.259382 
L 124.339011 46.31441 
L 124.625123 45.992889 
L 124.911235 46.080746 
L 125.197347 45.310344 
L 125.483459 49.193299 
L 125.769571 48.812073 
L 126.055683 46.305241 
L 126.341795 45.066301 
L 126.627907 42.654872 
L 127.200131 43.887717 
L 127.486243 42.786652 
L 128.058467 39.782552 
L 128.344579 41.333695 
L 128.916803 42.735963 
L 129.202915 44.166415 
L 129.489027 44.308312 
L 130.061251 47.916951 
L 130.347363 45.264468 
L 130.633475 48.002774 
L 130.919587 48.737822 
L 131.205699 50.494632 
L 131.777923 47.409962 
L 132.064035 47.853987 
L 132.350147 49.565459 
L 132.636259 50.233351 
L 132.922371 51.869919 
L 133.208483 49.76571 
L 133.494595 48.608055 
L 133.780707 45.074103 
L 134.066819 48.179137 
L 134.352931 48.108508 
L 134.925155 44.467295 
L 135.211267 45.214637 
L 135.497379 46.55926 
L 136.069603 47.123844 
L 136.355715 49.71636 
L 136.641827 48.701868 
L 136.927939 48.576606 
L 137.214051 45.964454 
L 137.500163 47.60306 
L 137.786275 47.245769 
L 138.072387 47.910915 
L 138.358499 45.681351 
L 138.644611 42.085886 
L 138.930723 43.674814 
L 139.789059 50.6958 
L 140.075171 50.488133 
L 140.647395 54.998361 
L 140.933507 54.662477 
L 141.50573 50.617334 
L 141.791842 52.988528 
L 142.364066 55.202223 
L 142.93629 53.016161 
L 143.222402 53.125316 
L 143.508514 52.852692 
L 143.794626 54.877575 
L 144.080738 54.792524 
L 144.36685 57.075464 
L 144.652962 60.589658 
L 144.939074 59.630402 
L 145.225186 59.089366 
L 145.511298 62.734839 
L 145.79741 59.979574 
L 146.083522 60.082243 
L 146.369634 59.79321 
L 146.655746 59.760583 
L 146.941858 63.334339 
L 147.22797 64.884626 
L 147.514082 63.751679 
L 147.800194 64.382778 
L 148.086306 62.602695 
L 148.372418 64.295187 
L 148.944642 62.600836 
L 149.230754 62.808074 
L 149.516866 62.467224 
L 149.802978 59.934459 
L 150.08909 63.318877 
L 150.661314 63.211226 
L 150.947426 62.231604 
L 151.233538 59.916571 
L 151.51965 61.589678 
L 151.805762 61.456964 
L 152.091874 62.923991 
L 152.377986 63.408892 
L 152.664098 65.2402 
L 152.95021 64.223742 
L 153.236322 66.025055 
L 153.808546 67.498006 
L 154.094658 67.021828 
L 154.38077 71.511284 
L 154.666882 68.646675 
L 154.952994 67.657634 
L 155.239106 67.314773 
L 155.525218 68.797201 
L 156.383554 59.179545 
L 156.669666 60.277411 
L 157.24189 60.486515 
L 157.528002 57.293551 
L 157.814114 57.414109 
L 158.386338 51.849633 
L 158.958562 48.104854 
L 159.244674 48.025859 
L 160.10301 50.969133 
L 160.675234 54.560533 
L 160.961346 55.150023 
L 161.247458 52.689989 
L 161.53357 54.642374 
L 161.819682 55.358754 
L 162.105794 56.50253 
L 162.391906 56.408708 
L 162.678018 54.703624 
L 162.96413 58.659107 
L 163.250242 61.010211 
L 163.536354 61.233165 
L 163.822466 63.159861 
L 164.108578 60.744204 
L 164.39469 64.100232 
L 164.680802 65.758915 
L 164.966914 61.321827 
L 165.253026 61.62423 
L 165.539138 62.136239 
L 166.111362 60.76495 
L 166.397474 58.662276 
L 166.683586 57.611724 
L 166.969698 55.839399 
L 167.25581 57.120853 
L 167.541922 60.970005 
L 167.828034 60.411159 
L 168.114146 62.197219 
L 168.400258 64.696595 
L 168.68637 63.338211 
L 168.972482 62.95323 
L 169.258594 64.460589 
L 169.544706 64.602507 
L 169.830818 65.048795 
L 170.11693 64.560159 
L 170.403042 68.108564 
L 170.689154 65.179306 
L 171.261378 70.201618 
L 171.54749 69.305125 
L 171.833602 65.164578 
L 172.119714 68.22092 
L 172.405826 69.330231 
L 172.691938 69.568212 
L 172.97805 68.826845 
L 173.550274 74.196032 
L 173.836386 73.850545 
L 174.122498 74.635757 
L 174.40861 74.682458 
L 174.694722 75.941292 
L 174.980834 72.821499 
L 175.266946 71.315402 
L 175.83917 72.43024 
L 176.125282 70.033525 
L 176.411394 70.579454 
L 176.697506 73.138002 
L 176.983618 73.973942 
L 177.26973 75.383856 
L 177.555842 73.836337 
L 177.841954 75.692812 
L 178.128066 75.734735 
L 178.70029 73.95779 
L 178.986402 74.660235 
L 179.272514 74.13758 
L 179.558626 75.902283 
L 179.844738 75.834217 
L 180.13085 80.399385 
L 180.416962 79.334007 
L 180.989186 85.582955 
L 181.275298 84.491482 
L 181.56141 86.353397 
L 181.847522 87.022352 
L 182.133634 86.031376 
L 182.419746 86.502259 
L 182.705858 84.064977 
L 182.99197 84.700576 
L 183.278082 83.815743 
L 183.564194 85.833833 
L 183.850306 83.565641 
L 184.136418 83.763921 
L 184.42253 77.820465 
L 184.708642 74.445007 
L 184.994754 76.037654 
L 185.280866 73.698926 
L 185.85309 73.949675 
L 186.139202 72.42043 
L 186.425314 76.308745 
L 186.711426 72.444959 
L 187.28365 76.772888 
L 188.141986 83.916374 
L 188.71421 81.279629 
L 189.000322 82.109747 
L 189.286434 83.686392 
L 189.572546 83.947364 
L 189.858658 85.840819 
L 190.14477 86.696852 
L 190.430882 88.723576 
L 190.716994 88.023624 
L 191.003106 86.156927 
L 191.289218 88.024858 
L 191.57533 88.651078 
L 191.861442 90.757717 
L 192.147554 88.941806 
L 192.433666 88.899794 
L 192.719778 86.015703 
L 193.292002 88.284945 
L 193.578114 85.402116 
L 193.864226 85.545757 
L 194.722562 79.575095 
L 195.008674 79.545404 
L 195.294786 79.171478 
L 195.580898 76.638145 
L 196.153122 74.228823 
L 196.439234 74.310406 
L 196.725346 74.10939 
L 197.29757 75.399506 
L 197.583682 72.482371 
L 197.869794 73.062094 
L 198.155906 75.710289 
L 198.442018 75.175594 
L 199.014242 78.316271 
L 199.300354 75.410635 
L 199.586466 77.340255 
L 199.872578 80.564973 
L 200.15869 81.822086 
L 200.444802 84.522969 
L 200.730914 85.188992 
L 201.017026 87.653706 
L 201.58925 90.100551 
L 201.875362 92.431486 
L 202.161474 93.330727 
L 202.733698 89.459088 
L 203.01981 89.333396 
L 203.305922 87.961533 
L 203.592034 90.334461 
L 203.878146 87.119429 
L 204.164258 89.26726 
L 204.45037 90.059954 
L 205.022594 87.400868 
L 205.308706 88.525098 
L 205.594818 88.240997 
L 205.88093 87.078269 
L 206.167042 87.276939 
L 206.453154 87.875145 
L 206.739266 91.118306 
L 207.025378 89.398185 
L 207.31149 88.746595 
L 207.597602 92.868821 
L 207.883714 90.702381 
L 208.169826 89.940579 
L 208.455938 94.877498 
L 208.74205 92.151781 
L 209.028162 92.573546 
L 209.314274 95.175808 
L 209.600386 95.558661 
L 209.886498 96.176247 
L 210.17261 97.29499 
L 210.458722 99.682633 
L 210.744834 99.211998 
L 211.030946 98.08063 
L 211.317058 97.476491 
L 211.60317 99.164087 
L 211.889282 100.119205 
L 212.175394 96.246347 
L 212.461506 96.934176 
L 212.461506 96.934176 
" clip-path="url(#pb715760411)" style="fill: none; stroke: #00bfbf; stroke-width: 1.5; stroke-linecap: square"/>
   </g>
   <g id="matplotlib.axis_1">
    <g id="xtick_1">
     <g id="line2d_2">
      <defs>
       <path id="m62e9f71256" d="M 0 0 
L 0 3.5 
" style="stroke: #000000; stroke-width: 0.8"/>
      </defs>
      <g>
       <use xlink:href="#m62e9f71256" x="69.691619" y="104.3725" style="stroke: #000000; stroke-width: 0.8"/>
      </g>
     </g>
     <g id="text_1">
      <!-- 0.0 -->
      <g transform="translate(60.149744 120.490625)scale(0.12 -0.12)">
       <defs>
        <path id="DejaVuSans-30" d="M 2034 4250 
Q 1547 4250 1301 3770 
Q 1056 3291 1056 2328 
Q 1056 1369 1301 889 
Q 1547 409 2034 409 
Q 2525 409 2770 889 
Q 3016 1369 3016 2328 
Q 3016 3291 2770 3770 
Q 2525 4250 2034 4250 
z
M 2034 4750 
Q 2819 4750 3233 4129 
Q 3647 3509 3647 2328 
Q 3647 1150 3233 529 
Q 2819 -91 2034 -91 
Q 1250 -91 836 529 
Q 422 1150 422 2328 
Q 422 3509 836 4129 
Q 1250 4750 2034 4750 
z
" transform="scale(0.015625)"/>
        <path id="DejaVuSans-2e" d="M 684 794 
L 1344 794 
L 1344 0 
L 684 0 
L 684 794 
z
" transform="scale(0.015625)"/>
       </defs>
       <use xlink:href="#DejaVuSans-30"/>
       <use xlink:href="#DejaVuSans-2e" x="63.623047"/>
       <use xlink:href="#DejaVuSans-30" x="95.410156"/>
      </g>
     </g>
    </g>
    <g id="xtick_2">
     <g id="line2d_3">
      <g>
       <use xlink:href="#m62e9f71256" x="126.914019" y="104.3725" style="stroke: #000000; stroke-width: 0.8"/>
      </g>
     </g>
     <g id="text_2">
      <!-- 0.2 -->
      <g transform="translate(117.372144 120.490625)scale(0.12 -0.12)">
       <defs>
        <path id="DejaVuSans-32" d="M 1228 531 
L 3431 531 
L 3431 0 
L 469 0 
L 469 531 
Q 828 903 1448 1529 
Q 2069 2156 2228 2338 
Q 2531 2678 2651 2914 
Q 2772 3150 2772 3378 
Q 2772 3750 2511 3984 
Q 2250 4219 1831 4219 
Q 1534 4219 1204 4116 
Q 875 4013 500 3803 
L 500 4441 
Q 881 4594 1212 4672 
Q 1544 4750 1819 4750 
Q 2544 4750 2975 4387 
Q 3406 4025 3406 3419 
Q 3406 3131 3298 2873 
Q 3191 2616 2906 2266 
Q 2828 2175 2409 1742 
Q 1991 1309 1228 531 
z
" transform="scale(0.015625)"/>
       </defs>
       <use xlink:href="#DejaVuSans-30"/>
       <use xlink:href="#DejaVuSans-2e" x="63.623047"/>
       <use xlink:href="#DejaVuSans-32" x="95.410156"/>
      </g>
     </g>
    </g>
    <g id="xtick_3">
     <g id="line2d_4">
      <g>
       <use xlink:href="#m62e9f71256" x="184.136418" y="104.3725" style="stroke: #000000; stroke-width: 0.8"/>
      </g>
     </g>
     <g id="text_3">
      <!-- 0.4 -->
      <g transform="translate(174.594543 120.490625)scale(0.12 -0.12)">
       <defs>
        <path id="DejaVuSans-34" d="M 2419 4116 
L 825 1625 
L 2419 1625 
L 2419 4116 
z
M 2253 4666 
L 3047 4666 
L 3047 1625 
L 3713 1625 
L 3713 1100 
L 3047 1100 
L 3047 0 
L 2419 0 
L 2419 1100 
L 313 1100 
L 313 1709 
L 2253 4666 
z
" transform="scale(0.015625)"/>
       </defs>
       <use xlink:href="#DejaVuSans-30"/>
       <use xlink:href="#DejaVuSans-2e" x="63.623047"/>
       <use xlink:href="#DejaVuSans-34" x="95.410156"/>
      </g>
     </g>
    </g>
    <g id="text_4">
     <!-- Time (s) -->
     <g transform="translate(116.681875 136.104375)scale(0.12 -0.12)">
      <defs>
       <path id="DejaVuSans-54" d="M -19 4666 
L 3928 4666 
L 3928 4134 
L 2272 4134 
L 2272 0 
L 1638 0 
L 1638 4134 
L -19 4134 
L -19 4666 
z
" transform="scale(0.015625)"/>
       <path id="DejaVuSans-69" d="M 603 3500 
L 1178 3500 
L 1178 0 
L 603 0 
L 603 3500 
z
M 603 4863 
L 1178 4863 
L 1178 4134 
L 603 4134 
L 603 4863 
z
" transform="scale(0.015625)"/>
       <path id="DejaVuSans-6d" d="M 3328 2828 
Q 3544 3216 3844 3400 
Q 4144 3584 4550 3584 
Q 5097 3584 5394 3201 
Q 5691 2819 5691 2113 
L 5691 0 
L 5113 0 
L 5113 2094 
Q 5113 2597 4934 2840 
Q 4756 3084 4391 3084 
Q 3944 3084 3684 2787 
Q 3425 2491 3425 1978 
L 3425 0 
L 2847 0 
L 2847 2094 
Q 2847 2600 2669 2842 
Q 2491 3084 2119 3084 
Q 1678 3084 1418 2786 
Q 1159 2488 1159 1978 
L 1159 0 
L 581 0 
L 581 3500 
L 1159 3500 
L 1159 2956 
Q 1356 3278 1631 3431 
Q 1906 3584 2284 3584 
Q 2666 3584 2933 3390 
Q 3200 3197 3328 2828 
z
" transform="scale(0.015625)"/>
       <path id="DejaVuSans-65" d="M 3597 1894 
L 3597 1613 
L 953 1613 
Q 991 1019 1311 708 
Q 1631 397 2203 397 
Q 2534 397 2845 478 
Q 3156 559 3463 722 
L 3463 178 
Q 3153 47 2828 -22 
Q 2503 -91 2169 -91 
Q 1331 -91 842 396 
Q 353 884 353 1716 
Q 353 2575 817 3079 
Q 1281 3584 2069 3584 
Q 2775 3584 3186 3129 
Q 3597 2675 3597 1894 
z
M 3022 2063 
Q 3016 2534 2758 2815 
Q 2500 3097 2075 3097 
Q 1594 3097 1305 2825 
Q 1016 2553 972 2059 
L 3022 2063 
z
" transform="scale(0.015625)"/>
       <path id="DejaVuSans-20" transform="scale(0.015625)"/>
       <path id="DejaVuSans-28" d="M 1984 4856 
Q 1566 4138 1362 3434 
Q 1159 2731 1159 2009 
Q 1159 1288 1364 580 
Q 1569 -128 1984 -844 
L 1484 -844 
Q 1016 -109 783 600 
Q 550 1309 550 2009 
Q 550 2706 781 3412 
Q 1013 4119 1484 4856 
L 1984 4856 
z
" transform="scale(0.015625)"/>
       <path id="DejaVuSans-73" d="M 2834 3397 
L 2834 2853 
Q 2591 2978 2328 3040 
Q 2066 3103 1784 3103 
Q 1356 3103 1142 2972 
Q 928 2841 928 2578 
Q 928 2378 1081 2264 
Q 1234 2150 1697 2047 
L 1894 2003 
Q 2506 1872 2764 1633 
Q 3022 1394 3022 966 
Q 3022 478 2636 193 
Q 2250 -91 1575 -91 
Q 1294 -91 989 -36 
Q 684 19 347 128 
L 347 722 
Q 666 556 975 473 
Q 1284 391 1588 391 
Q 1994 391 2212 530 
Q 2431 669 2431 922 
Q 2431 1156 2273 1281 
Q 2116 1406 1581 1522 
L 1381 1569 
Q 847 1681 609 1914 
Q 372 2147 372 2553 
Q 372 3047 722 3315 
Q 1072 3584 1716 3584 
Q 2034 3584 2315 3537 
Q 2597 3491 2834 3397 
z
" transform="scale(0.015625)"/>
       <path id="DejaVuSans-29" d="M 513 4856 
L 1013 4856 
Q 1481 4119 1714 3412 
Q 1947 2706 1947 2009 
Q 1947 1309 1714 600 
Q 1481 -109 1013 -844 
L 513 -844 
Q 928 -128 1133 580 
Q 1338 1288 1338 2009 
Q 1338 2731 1133 3434 
Q 928 4138 513 4856 
z
" transform="scale(0.015625)"/>
      </defs>
      <use xlink:href="#DejaVuSans-54"/>
      <use xlink:href="#DejaVuSans-69" x="57.958984"/>
      <use xlink:href="#DejaVuSans-6d" x="85.742188"/>
      <use xlink:href="#DejaVuSans-65" x="183.154297"/>
      <use xlink:href="#DejaVuSans-20" x="244.677734"/>
      <use xlink:href="#DejaVuSans-28" x="276.464844"/>
      <use xlink:href="#DejaVuSans-73" x="315.478516"/>
      <use xlink:href="#DejaVuSans-29" x="367.578125"/>
     </g>
    </g>
   </g>
   <g id="matplotlib.axis_2">
    <g id="ytick_1">
     <g id="line2d_5">
      <defs>
       <path id="m73938ff34a" d="M 0 0 
L -3.5 0 
" style="stroke: #000000; stroke-width: 0.8"/>
      </defs>
      <g>
       <use xlink:href="#m73938ff34a" x="62.553125" y="101.907305" style="stroke: #000000; stroke-width: 0.8"/>
      </g>
     </g>
     <g id="text_5">
      <!-- −2 -->
      <g transform="translate(37.8625 106.466368)scale(0.12 -0.12)">
       <defs>
        <path id="DejaVuSans-2212" d="M 678 2272 
L 4684 2272 
L 4684 1741 
L 678 1741 
L 678 2272 
z
" transform="scale(0.015625)"/>
       </defs>
       <use xlink:href="#DejaVuSans-2212"/>
       <use xlink:href="#DejaVuSans-32" x="83.789062"/>
      </g>
     </g>
    </g>
    <g id="ytick_2">
     <g id="line2d_6">
      <g>
       <use xlink:href="#m73938ff34a" x="62.553125" y="64.235184" style="stroke: #000000; stroke-width: 0.8"/>
      </g>
     </g>
     <g id="text_6">
      <!-- −1 -->
      <g transform="translate(37.8625 68.794247)scale(0.12 -0.12)">
       <defs>
        <path id="DejaVuSans-31" d="M 794 531 
L 1825 531 
L 1825 4091 
L 703 3866 
L 703 4441 
L 1819 4666 
L 2450 4666 
L 2450 531 
L 3481 531 
L 3481 0 
L 794 0 
L 794 531 
z
" transform="scale(0.015625)"/>
       </defs>
       <use xlink:href="#DejaVuSans-2212"/>
       <use xlink:href="#DejaVuSans-31" x="83.789062"/>
      </g>
     </g>
    </g>
    <g id="ytick_3">
     <g id="line2d_7">
      <g>
       <use xlink:href="#m73938ff34a" x="62.553125" y="26.563063" style="stroke: #000000; stroke-width: 0.8"/>
      </g>
     </g>
     <g id="text_7">
      <!-- 0 -->
      <g transform="translate(47.918125 31.122125)scale(0.12 -0.12)">
       <use xlink:href="#DejaVuSans-30"/>
      </g>
     </g>
    </g>
    <g id="text_8">
     <!-- x -->
     <g transform="translate(31.366875 61.1375)rotate(-90)scale(0.12 -0.12)">
      <defs>
       <path id="DejaVuSans-78" d="M 3513 3500 
L 2247 1797 
L 3578 0 
L 2900 0 
L 1881 1375 
L 863 0 
L 184 0 
L 1544 1831 
L 300 3500 
L 978 3500 
L 1906 2253 
L 2834 3500 
L 3513 3500 
z
" transform="scale(0.015625)"/>
      </defs>
      <use xlink:href="#DejaVuSans-78"/>
     </g>
    </g>
   </g>
   <g id="line2d_8">
    <path d="M 69.691619 26.563063 
L 69.977731 26.591518 
L 70.263843 23.130102 
L 70.549955 22.099486 
L 70.836067 22.270649 
L 71.122179 24.26292 
L 71.408291 23.734382 
L 71.694403 22.718261 
L 71.980515 24.611664 
L 72.266627 25.625843 
L 72.552739 25.920963 
L 72.838851 27.737962 
L 73.124963 24.658785 
L 73.411075 29.407839 
L 73.697187 30.608387 
L 73.983299 27.5293 
L 74.269411 23.094043 
L 74.555523 24.624368 
L 74.841635 21.803571 
L 75.127747 20.882357 
L 75.986083 29.674231 
L 76.272195 29.355825 
L 76.558307 25.901598 
L 76.844419 26.18362 
L 77.130531 26.042125 
L 77.416643 29.469748 
L 77.702755 31.106969 
L 78.274979 29.539201 
L 78.561091 31.628784 
L 78.847203 32.134388 
L 79.705539 27.080171 
L 79.991651 27.201261 
L 80.277763 27.663882 
L 80.563875 28.471478 
L 80.849987 27.990199 
L 81.136099 28.12642 
L 81.422211 29.965052 
L 81.708323 29.821317 
L 81.994435 29.102066 
L 82.280547 30.043308 
L 82.566659 27.464063 
L 82.852771 26.867413 
L 83.138883 28.241874 
L 83.424995 28.359801 
L 83.711107 29.840958 
L 83.997219 28.698454 
L 84.283331 25.617689 
L 84.569443 25.670082 
L 84.855555 26.090456 
L 85.141667 25.196389 
L 85.713891 24.207154 
L 86.000003 19.246518 
L 86.286115 20.311717 
L 86.572227 20.479043 
L 86.858339 19.355351 
L 87.144451 21.869727 
L 87.430563 19.302316 
L 87.716675 19.886066 
L 88.002787 22.837292 
L 88.575011 23.784667 
L 88.861123 23.763483 
L 89.147235 26.003746 
L 89.433347 29.73417 
L 90.005571 29.493831 
L 90.291683 26.912216 
L 90.577795 28.533358 
L 90.863907 26.806229 
L 91.150019 23.953994 
L 91.436131 24.818618 
L 91.722243 20.732203 
L 92.008355 19.392416 
L 92.294467 23.538726 
L 92.580579 25.625233 
L 93.152803 30.675615 
L 93.438915 32.681364 
L 93.725027 32.382602 
L 94.011139 32.444162 
L 94.297251 33.023577 
L 94.869475 31.305103 
L 95.155587 32.094815 
L 95.441699 33.269046 
L 95.727811 33.243594 
L 96.013923 33.942852 
L 96.300035 30.789168 
L 96.586147 30.138749 
L 96.872259 31.985057 
L 97.158371 31.442179 
L 97.444483 32.8735 
L 98.016707 29.423992 
L 98.302819 28.295559 
L 98.588931 26.659146 
L 98.875043 24.171293 
L 99.161155 24.980006 
L 99.447267 23.292879 
L 99.733379 23.586372 
L 100.019491 23.02553 
L 100.305603 23.922922 
L 100.591715 25.302533 
L 100.877827 27.549941 
L 101.163939 27.6349 
L 101.736163 30.763008 
L 102.022275 26.87303 
L 102.594499 32.115248 
L 102.880611 31.818345 
L 103.166723 33.082333 
L 103.452835 30.950464 
L 104.025059 30.646371 
L 104.311171 32.821757 
L 104.597283 32.60832 
L 104.883395 33.699514 
L 105.169507 33.9873 
L 105.455619 32.019943 
L 105.741731 31.152321 
L 106.027843 33.647411 
L 106.313955 34.409498 
L 106.600067 32.813674 
L 106.886179 34.248245 
L 107.172291 34.348659 
L 107.458403 36.095276 
L 108.030627 33.016964 
L 108.316739 32.938534 
L 108.602851 37.514378 
L 109.747299 31.959957 
L 110.033411 32.465434 
L 110.319523 32.491434 
L 110.605635 30.229751 
L 110.891747 30.860752 
L 111.177859 29.646027 
L 111.463971 27.609132 
L 111.750083 27.610948 
L 112.036195 26.221403 
L 112.322307 24.21026 
L 112.608419 24.739127 
L 112.894531 21.205114 
L 113.180643 24.497984 
L 113.466755 23.649095 
L 113.752867 24.388839 
L 114.038979 28.236069 
L 114.325091 26.133846 
L 114.611203 23.152226 
L 114.897315 23.290392 
L 115.183427 26.083156 
L 115.469539 26.557604 
L 115.755651 27.405665 
L 116.041763 29.195051 
L 116.327875 29.912629 
L 116.900099 25.461491 
L 117.186211 26.105994 
L 117.472323 29.674232 
L 117.758435 29.817336 
L 118.044547 31.76648 
L 118.330659 31.751697 
L 118.616771 30.521537 
L 118.902883 31.417363 
L 119.188995 31.122478 
L 119.475107 29.867174 
L 119.761219 29.43224 
L 120.047331 27.389128 
L 120.333443 24.113691 
L 120.619555 24.851329 
L 120.905667 22.888829 
L 121.191779 23.003829 
L 121.477891 23.621572 
L 121.764003 23.164509 
L 122.050115 25.257489 
L 122.622339 26.693385 
L 122.908451 25.080068 
L 123.194563 22.614645 
L 123.480675 22.091601 
L 123.766787 22.346823 
L 124.052899 24.004298 
L 124.339011 23.315202 
L 124.625123 23.318467 
L 124.911235 23.730783 
L 125.197347 23.24361 
L 125.483459 27.45851 
L 125.769571 26.987739 
L 126.055683 24.438439 
L 126.341795 23.411962 
L 126.627907 21.315643 
L 127.200131 23.494008 
L 127.486243 22.699848 
L 127.772355 21.362069 
L 128.058467 20.602169 
L 128.344579 22.749402 
L 128.916803 24.811009 
L 129.202915 26.416666 
L 129.489027 26.573203 
L 130.061251 29.988119 
L 130.347363 26.99313 
L 130.633475 29.68843 
L 130.919587 30.110941 
L 131.205699 31.512963 
L 131.777923 27.651577 
L 132.064035 27.98675 
L 132.350147 29.555854 
L 132.636259 29.924467 
L 132.922371 31.224895 
L 133.208483 28.654502 
L 133.494595 27.287704 
L 133.780707 23.681287 
L 134.066819 27.074499 
L 134.352931 26.952726 
L 134.925155 23.410482 
L 135.211267 24.473082 
L 135.497379 26.026704 
L 136.069603 26.666988 
L 136.355715 29.249112 
L 136.641827 27.966015 
L 136.927939 27.700457 
L 137.214051 24.974566 
L 137.500163 26.772022 
L 137.786275 26.393835 
L 138.072387 27.075904 
L 138.358499 24.795056 
L 138.644611 21.376391 
L 139.216835 26.053453 
L 139.502947 29.131607 
L 139.789059 30.606987 
L 140.075171 29.994927 
L 140.647395 33.651465 
L 140.933507 32.606741 
L 141.50573 27.598904 
L 141.791842 29.866514 
L 142.364066 31.357258 
L 142.93629 28.387452 
L 143.222402 28.314168 
L 143.508514 27.866433 
L 143.794626 29.760979 
L 144.080738 29.356137 
L 144.36685 31.359769 
L 144.652962 34.394293 
L 145.225186 31.501993 
L 145.511298 34.653573 
L 145.79741 31.089257 
L 146.083522 30.739306 
L 146.369634 30.032649 
L 146.655746 29.653064 
L 146.941858 32.917819 
L 147.22797 33.83263 
L 147.514082 31.972727 
L 147.800194 32.06286 
L 148.086306 29.732797 
L 148.372418 31.108316 
L 148.944642 28.638415 
L 149.230754 28.638117 
L 149.516866 28.089762 
L 149.802978 25.404327 
L 150.08909 28.904619 
L 150.661314 28.353681 
L 150.947426 27.194997 
L 151.233538 24.81677 
L 151.51965 26.664507 
L 151.805762 26.521649 
L 152.091874 27.992817 
L 152.377986 28.334742 
L 152.664098 29.988883 
L 152.95021 28.629842 
L 153.236322 30.224478 
L 153.808546 30.923976 
L 154.094658 30.011706 
L 154.38077 34.156298 
L 154.666882 30.532366 
L 154.952994 29.146395 
L 155.239106 28.545201 
L 155.525218 29.829414 
L 156.097442 23.67416 
L 156.383554 20.219374 
L 156.669666 21.95161 
L 157.24189 23.030474 
L 157.528002 20.19077 
L 157.814114 20.948556 
L 158.386338 16.756514 
L 158.958562 15.053295 
L 159.244674 16.125277 
L 160.675234 25.974664 
L 160.961346 26.622994 
L 161.247458 24.156967 
L 161.53357 26.349962 
L 161.819682 27.087652 
L 162.105794 28.178969 
L 162.391906 27.923556 
L 162.678018 26.082423 
L 162.96413 30.085969 
L 163.250242 32.084783 
L 163.536354 31.755565 
L 163.822466 33.163011 
L 164.108578 30.087359 
L 164.39469 33.090957 
L 164.680802 34.096851 
L 164.966914 28.906384 
L 165.253026 28.974455 
L 165.539138 29.245324 
L 166.111362 27.429644 
L 166.397474 25.240312 
L 166.683586 24.322036 
L 166.969698 22.773813 
L 167.25581 24.434192 
L 167.541922 28.496231 
L 167.828034 27.744069 
L 168.400258 31.626508 
L 168.68637 29.761779 
L 168.972482 29.056927 
L 169.258594 30.314899 
L 169.544706 30.081633 
L 169.830818 30.176064 
L 170.11693 29.326128 
L 170.403042 32.598227 
L 170.689154 29.065453 
L 171.261378 33.379903 
L 171.54749 31.801727 
L 171.833602 27.137313 
L 172.119714 30.136229 
L 172.405826 30.888224 
L 172.691938 30.693689 
L 172.97805 29.53926 
L 173.550274 34.086236 
L 173.836386 32.988433 
L 174.122498 33.131108 
L 174.40861 32.521004 
L 174.694722 33.184044 
L 174.980834 29.402153 
L 175.266946 27.612147 
L 175.83917 28.467249 
L 176.125282 25.880116 
L 176.411394 26.494339 
L 176.697506 29.059759 
L 176.983618 29.64603 
L 177.26973 30.747647 
L 177.555842 28.78167 
L 177.841954 30.416284 
L 178.128066 30.072885 
L 178.70029 27.703638 
L 178.986402 28.292025 
L 179.272514 27.596474 
L 179.558626 29.257836 
L 179.844738 28.920292 
L 180.13085 33.249737 
L 180.416962 31.515692 
L 180.989186 36.525507 
L 181.275298 34.437789 
L 181.56141 35.512232 
L 181.847522 35.286271 
L 182.133634 33.422974 
L 182.419746 33.207865 
L 182.705858 30.106103 
L 182.99197 30.387398 
L 183.278082 29.120132 
L 183.564194 30.882515 
L 183.850306 28.182378 
L 184.136418 28.218726 
L 184.42253 22.109704 
L 184.708642 19.179581 
L 184.994754 21.510576 
L 185.280866 19.677097 
L 185.85309 21.223948 
L 186.139202 20.228615 
L 186.425314 24.750374 
L 186.711426 21.067857 
L 187.855874 30.933432 
L 188.141986 32.750993 
L 188.71421 29.070631 
L 189.000322 29.649993 
L 189.286434 30.917944 
L 189.572546 30.743428 
L 189.858658 32.218847 
L 190.14477 32.509302 
L 190.430882 33.941401 
L 190.716994 32.503615 
L 191.003106 30.042864 
L 191.289218 31.562814 
L 191.57533 31.689059 
L 191.861442 33.283099 
L 192.147554 30.795184 
L 192.433666 30.32996 
L 192.719778 27.069179 
L 193.292002 29.11779 
L 193.578114 25.979489 
L 193.864226 26.181487 
L 194.43645 21.735153 
L 194.722562 20.991047 
L 195.008674 21.518557 
L 195.294786 21.649082 
L 195.580898 19.607146 
L 196.153122 18.645479 
L 196.439234 19.518821 
L 196.725346 20.022229 
L 197.29757 22.495507 
L 197.583682 19.985127 
L 197.869794 21.222644 
L 198.155906 24.404881 
L 198.442018 24.086004 
L 199.014242 27.559912 
L 199.300354 24.554591 
L 199.586466 26.685058 
L 199.872578 29.897577 
L 200.15869 30.821239 
L 200.444802 33.096304 
L 200.730914 33.109002 
L 201.017026 34.919123 
L 201.58925 35.65474 
L 201.875362 37.076507 
L 202.161474 36.924403 
L 202.733698 31.297951 
L 203.01981 30.69877 
L 203.305922 28.913336 
L 203.592034 31.051237 
L 203.878146 27.387388 
L 204.164258 29.452786 
L 204.45037 29.956508 
L 205.022594 26.766183 
L 205.308706 27.870101 
L 205.594818 27.455296 
L 205.88093 26.203345 
L 206.167042 26.437987 
L 206.453154 27.0487 
L 206.739266 30.243297 
L 207.025378 28.155153 
L 207.31149 27.344354 
L 207.597602 31.388451 
L 207.883714 28.739472 
L 208.169826 27.760029 
L 208.455938 32.577252 
L 208.74205 29.250116 
L 209.028162 29.403176 
L 209.314274 31.721427 
L 209.600386 31.588443 
L 209.886498 31.70349 
L 210.17261 32.308191 
L 210.458722 34.121322 
L 210.744834 32.89486 
L 211.030946 31.130312 
L 211.317058 30.069449 
L 211.60317 31.406406 
L 211.889282 31.877189 
L 212.175394 27.472919 
L 212.461506 28.069763 
L 212.461506 28.069763 
" clip-path="url(#pb715760411)" style="fill: none; stroke: #808080; stroke-width: 0.75; stroke-linecap: square"/>
   </g>
   <g id="line2d_9">
    <path d="M 69.691619 26.563063 
L 69.977731 26.554319 
L 70.263843 23.058725 
L 70.549955 21.660338 
L 70.836067 21.375969 
L 71.122179 22.93272 
L 71.408291 22.150949 
L 71.694403 20.840677 
L 71.980515 22.353129 
L 72.266627 23.159865 
L 72.552739 23.334513 
L 72.838851 25.053161 
L 73.124963 22.057838 
L 73.411075 26.60475 
L 73.697187 28.051781 
L 73.983299 25.385277 
L 74.269411 21.022545 
L 74.555523 22.203068 
L 74.841635 19.177306 
L 75.127747 17.807226 
L 75.413859 20.049923 
L 75.699971 23.627402 
L 75.986083 25.80853 
L 76.272195 25.782113 
L 76.558307 22.588606 
L 76.844419 22.786876 
L 77.130531 22.586047 
L 77.416643 25.944029 
L 77.702755 27.848805 
L 78.274979 27.086921 
L 78.561091 29.440102 
L 78.847203 30.486633 
L 79.133315 29.552329 
L 79.705539 26.703533 
L 79.991651 26.836785 
L 80.277763 27.32328 
L 80.563875 28.215186 
L 80.849987 27.937397 
L 81.136099 28.219617 
L 81.422211 30.227329 
L 81.708323 30.460461 
L 81.994435 30.105563 
L 82.280547 31.330607 
L 82.566659 29.131118 
L 82.852771 28.657364 
L 83.138883 30.083148 
L 83.424995 30.397914 
L 83.711107 32.098616 
L 83.997219 31.32122 
L 84.283331 28.485429 
L 84.569443 28.461504 
L 84.855555 28.81027 
L 85.427779 27.250303 
L 85.713891 26.550515 
L 86.000003 21.317342 
L 86.286115 21.644476 
L 86.572227 21.177733 
L 86.858339 19.439238 
L 87.144451 21.246487 
L 87.430563 18.203129 
L 87.716675 18.074593 
L 88.002787 20.372252 
L 88.575011 20.632179 
L 88.861123 20.33971 
L 89.147235 22.305958 
L 89.433347 25.968836 
L 90.005571 26.300108 
L 90.291683 23.979117 
L 90.577795 25.576939 
L 90.863907 24.02891 
L 91.150019 21.142351 
L 91.436131 21.74008 
L 91.722243 17.468951 
L 92.008355 15.565073 
L 92.294467 19.029162 
L 92.580579 20.845346 
L 93.152803 25.958299 
L 93.438915 28.351715 
L 93.725027 28.680137 
L 94.011139 29.344697 
L 94.297251 30.547323 
L 94.583363 30.179168 
L 94.869475 30.085465 
L 96.013923 35.274788 
L 96.300035 32.877971 
L 96.586147 32.712638 
L 96.872259 34.971148 
L 97.158371 34.989571 
L 97.444483 36.927724 
L 97.730595 35.422957 
L 98.302819 33.733972 
L 98.588931 32.328916 
L 98.875043 29.889754 
L 99.161155 30.486814 
L 99.447267 28.679106 
L 99.733379 28.666619 
L 100.019491 27.829063 
L 100.305603 28.370463 
L 100.591715 29.501787 
L 100.877827 31.656444 
L 101.163939 31.880646 
L 101.736163 35.498338 
L 102.022275 32.046956 
L 102.594499 37.702415 
L 102.880611 37.985726 
L 103.166723 39.790038 
L 103.452835 38.279835 
L 104.025059 38.854514 
L 104.311171 41.442065 
L 104.597283 41.817719 
L 104.883395 43.485057 
L 105.169507 44.41464 
L 105.455619 43.150136 
L 105.741731 42.766378 
L 106.027843 45.661826 
L 106.313955 47.111103 
L 106.600067 46.29876 
L 106.886179 48.332273 
L 107.172291 49.218482 
L 107.458403 51.78641 
L 107.744515 50.885651 
L 108.030627 50.482026 
L 108.316739 51.095829 
L 108.602851 56.341941 
L 108.888963 55.987722 
L 109.461187 54.753388 
L 109.747299 54.28123 
L 110.033411 55.323057 
L 110.319523 55.943211 
L 110.605635 54.287521 
L 110.891747 55.281706 
L 111.177859 54.499349 
L 111.463971 52.763675 
L 111.750083 52.853632 
L 112.036195 51.550819 
L 112.322307 49.528449 
L 112.608419 49.87316 
L 112.894531 46.210631 
L 113.180643 48.938729 
L 113.466755 47.922633 
L 113.752867 48.384365 
L 114.038979 52.032133 
L 114.325091 50.107171 
L 114.611203 47.131388 
L 114.897315 46.927314 
L 115.183427 49.389293 
L 115.469539 49.862263 
L 115.755651 50.763818 
L 116.041763 52.677685 
L 116.327875 53.643858 
L 116.900099 49.624833 
L 117.186211 50.212903 
L 117.472323 53.782456 
L 117.758435 54.23312 
L 118.044547 56.505421 
L 118.330659 57.024716 
L 118.616771 56.337868 
L 118.902883 57.642481 
L 119.188995 57.856262 
L 119.475107 57.079947 
L 119.761219 57.000692 
L 120.047331 55.268496 
L 120.333443 52.077824 
L 120.619555 52.578638 
L 120.905667 50.433051 
L 121.191779 50.227809 
L 121.477891 50.536546 
L 121.764003 49.831461 
L 122.050115 51.639018 
L 122.336227 52.135025 
L 122.622339 52.901094 
L 122.908451 51.281995 
L 123.194563 48.697279 
L 123.480675 47.809179 
L 123.766787 47.630525 
L 124.052899 48.878954 
L 124.339011 47.971816 
L 124.625123 47.664091 
L 124.911235 47.7652 
L 125.197347 47.00828 
L 125.483459 50.889271 
L 125.769571 50.544831 
L 126.055683 48.083986 
L 126.341795 46.859985 
L 126.627907 44.443267 
L 126.914019 44.920175 
L 127.200131 45.619434 
L 127.486243 44.498141 
L 128.058467 41.400885 
L 128.344579 42.914195 
L 128.916803 44.184286 
L 129.202915 45.559566 
L 129.489027 45.682519 
L 130.061251 49.280067 
L 130.347363 46.671368 
L 130.633475 49.397748 
L 130.919587 50.179568 
L 131.205699 51.983773 
L 131.777923 48.95807 
L 132.064035 49.44176 
L 132.350147 51.201432 
L 132.636259 51.900043 
L 132.922371 53.551266 
L 133.208483 51.430845 
L 133.494595 50.298812 
L 133.780707 46.811763 
L 134.066819 49.910016 
L 134.352931 49.892641 
L 134.925155 46.321159 
L 135.211267 47.043195 
L 135.497379 48.386283 
L 136.069603 48.996952 
L 136.355715 51.62974 
L 136.641827 50.636495 
L 136.927939 50.555178 
L 137.214051 47.988827 
L 137.500163 49.641396 
L 137.786275 49.338142 
L 138.072387 50.048374 
L 138.358499 47.868969 
L 138.644611 44.28667 
L 138.930723 45.82791 
L 139.789059 52.870112 
L 140.075171 52.644121 
L 140.647395 57.134212 
L 140.933507 56.824092 
L 141.50573 52.794044 
L 141.791842 55.148203 
L 142.364066 57.373347 
L 142.93629 55.225213 
L 143.222402 55.335074 
L 143.508514 55.066724 
L 143.794626 57.088235 
L 144.080738 57.028548 
L 144.36685 59.336003 
L 144.652962 62.82851 
L 144.939074 61.876517 
L 145.225186 61.352057 
L 145.511298 64.986212 
L 145.79741 62.244538 
L 146.083522 62.361255 
L 146.369634 62.084643 
L 146.655746 62.068241 
L 146.941858 65.658401 
L 147.22797 67.224379 
L 147.514082 66.11087 
L 147.800194 66.768022 
L 148.086306 65.011095 
L 148.372418 66.7172 
L 148.944642 65.067102 
L 149.230754 65.288147 
L 149.516866 64.961904 
L 149.802978 62.442758 
L 150.08909 65.838608 
L 150.661314 65.770723 
L 150.947426 64.809182 
L 151.233538 62.509307 
L 151.51965 64.193152 
L 151.805762 64.080344 
L 152.091874 65.565864 
L 152.377986 66.06536 
L 152.664098 67.921897 
L 152.95021 66.890603 
L 153.236322 68.713813 
L 153.808546 70.07436 
L 154.094658 69.561092 
L 154.38077 73.996927 
L 154.666882 71.134935 
L 154.952994 70.108437 
L 155.239106 69.730168 
L 155.525218 71.164742 
L 156.383554 61.520954 
L 156.669666 62.617155 
L 157.24189 62.845011 
L 157.528002 59.659085 
L 157.814114 59.752919 
L 158.386338 54.175782 
L 158.958562 50.424589 
L 159.244674 50.392803 
L 160.10301 53.423292 
L 160.675234 57.000851 
L 160.961346 57.614342 
L 161.247458 55.177568 
L 161.53357 57.129152 
L 161.819682 57.871263 
L 162.105794 59.037976 
L 162.391906 58.932805 
L 162.678018 57.22041 
L 162.96413 61.201838 
L 163.250242 63.535203 
L 163.536354 63.769365 
L 163.822466 65.710507 
L 164.108578 63.311533 
L 164.39469 66.67505 
L 164.680802 68.358202 
L 164.966914 63.882836 
L 165.253026 64.200782 
L 165.539138 64.732781 
L 166.111362 63.396934 
L 166.397474 61.303064 
L 166.683586 60.239003 
L 166.969698 58.425468 
L 167.25581 59.716413 
L 167.541922 63.537964 
L 167.828034 62.990376 
L 168.114146 64.781915 
L 168.400258 67.296959 
L 168.68637 65.956712 
L 168.972482 65.594585 
L 169.258594 67.116785 
L 169.544706 67.279165 
L 169.830818 67.743972 
L 170.11693 67.251552 
L 170.403042 70.818985 
L 170.689154 67.85809 
L 171.261378 72.837259 
L 171.54749 71.922784 
L 171.833602 67.75344 
L 172.119714 70.805407 
L 172.405826 71.883466 
L 172.691938 72.092735 
L 172.97805 71.321321 
L 173.550274 76.65826 
L 173.836386 76.425945 
L 174.122498 77.316737 
L 174.40861 77.48248 
L 174.694722 78.859898 
L 174.980834 75.810436 
L 175.266946 74.355705 
L 175.83917 75.489862 
L 176.125282 73.126079 
L 176.411394 73.663513 
L 176.697506 76.226483 
L 176.983618 77.154121 
L 177.26973 78.681934 
L 177.555842 77.212863 
L 177.841954 79.187721 
L 178.128066 79.278799 
L 178.70029 77.627119 
L 178.986402 78.445569 
L 179.272514 78.010762 
L 179.558626 79.878771 
L 179.844738 79.821475 
L 180.13085 84.400777 
L 180.416962 83.126226 
L 180.989186 88.904738 
L 181.275298 87.158028 
L 181.56141 88.539364 
L 181.847522 88.589635 
L 182.133634 86.974948 
L 182.419746 86.983543 
L 182.705858 84.083116 
L 182.99197 84.538846 
L 183.278082 83.431793 
L 183.564194 85.32446 
L 183.850306 82.757842 
L 184.136418 82.869252 
L 184.42253 76.8343 
L 184.708642 73.574308 
L 184.994754 75.16997 
L 185.280866 72.854853 
L 185.85309 73.07512 
L 186.139202 71.536054 
L 186.425314 75.391261 
L 186.711426 71.556609 
L 187.28365 75.853666 
L 188.141986 83.088699 
L 188.71421 80.281954 
L 189.000322 81.098463 
L 189.286434 82.61657 
L 189.572546 82.795425 
L 189.858658 84.600536 
L 190.14477 85.228472 
L 190.430882 86.966197 
L 190.716994 85.804832 
L 191.003106 83.592265 
L 191.289218 85.322425 
L 191.57533 85.650419 
L 191.861442 87.426475 
L 192.147554 85.103159 
L 192.433666 84.784419 
L 192.719778 81.654575 
L 193.292002 83.766884 
L 193.578114 80.731914 
L 193.864226 80.83397 
L 194.43645 76.127269 
L 194.722562 74.9825 
L 195.008674 74.971856 
L 195.294786 74.61671 
L 195.580898 72.093111 
L 196.153122 69.622562 
L 196.439234 69.653006 
L 196.725346 69.401918 
L 197.29757 70.58847 
L 197.583682 67.64589 
L 197.869794 68.227875 
L 198.155906 70.843995 
L 198.442018 70.276965 
L 199.014242 73.358816 
L 199.300354 70.450773 
L 199.586466 72.356374 
L 199.872578 75.550988 
L 200.15869 76.843872 
L 200.444802 79.660305 
L 200.730914 80.348591 
L 201.017026 82.795575 
L 201.58925 84.986707 
L 201.875362 87.052275 
L 202.161474 87.481504 
L 202.733698 82.846784 
L 203.01981 82.63059 
L 203.305922 81.176194 
L 203.592034 83.488521 
L 203.878146 80.143809 
L 204.164258 82.286411 
L 204.45037 83.00354 
L 205.022594 80.177238 
L 205.308706 81.294224 
L 205.594818 80.947392 
L 205.88093 79.731802 
L 206.167042 79.949446 
L 206.453154 80.554159 
L 206.739266 83.766632 
L 207.025378 81.894391 
L 207.31149 81.171471 
L 207.597602 85.233204 
L 207.883714 82.777301 
L 208.169826 81.927876 
L 208.455938 86.792957 
L 208.74205 83.623123 
L 209.028162 83.90464 
L 209.314274 86.342907 
L 209.600386 86.326476 
L 209.886498 86.546412 
L 210.17261 87.245618 
L 210.458722 89.14393 
L 210.744834 87.99411 
L 211.030946 86.298573 
L 211.317058 85.29956 
L 211.60317 86.691177 
L 211.889282 87.21233 
L 212.175394 82.853467 
L 212.461506 83.450503 
L 212.461506 83.450503 
" clip-path="url(#pb715760411)" style="fill: none; stroke: #1f77b4; stroke-width: 1.5; stroke-linecap: square"/>
   </g>
   <g id="line2d_10">
    <path d="M 62.553125 26.563063 
L 219.6 26.563063 
" clip-path="url(#pb715760411)" style="fill: none; stroke-dasharray: 2.775,1.2; stroke-dashoffset: 0; stroke: #808080; stroke-width: 0.75"/>
   </g>
   <g id="patch_3">
    <path d="M 62.553125 104.3725 
L 62.553125 10.8 
" style="fill: none; stroke: #000000; stroke-width: 0.8; stroke-linejoin: miter; stroke-linecap: square"/>
   </g>
   <g id="patch_4">
    <path d="M 219.6 104.3725 
L 219.6 10.8 
" style="fill: none; stroke: #000000; stroke-width: 0.8; stroke-linejoin: miter; stroke-linecap: square"/>
   </g>
   <g id="patch_5">
    <path d="M 62.553125 104.3725 
L 219.6 104.3725 
" style="fill: none; stroke: #000000; stroke-width: 0.8; stroke-linejoin: miter; stroke-linecap: square"/>
   </g>
   <g id="patch_6">
    <path d="M 62.553125 10.8 
L 219.6 10.8 
" style="fill: none; stroke: #000000; stroke-width: 0.8; stroke-linejoin: miter; stroke-linecap: square"/>
   </g>
  </g>
  <g id="axes_2">
   <g id="patch_7">
    <path d="M 62.553125 242.9725 
L 219.6 242.9725 
L 219.6 149.4 
L 62.553125 149.4 
z
" style="fill: #ffffff"/>
   </g>
   <g id="line2d_11">
    <path d="M 69.691619 164.969411 
L 69.977731 164.997867 
L 70.263843 161.539296 
L 70.549955 160.165384 
L 70.836067 159.890189 
L 71.122179 161.453218 
L 71.408291 160.694667 
L 71.694403 159.395678 
L 71.980515 160.904601 
L 72.266627 161.72364 
L 72.552739 161.925038 
L 72.838851 163.677826 
L 73.124963 160.716139 
L 73.411075 165.274766 
L 73.697187 166.759792 
L 73.983299 164.085237 
L 74.269411 159.746604 
L 74.555523 160.930026 
L 74.841635 157.91536 
L 75.127747 156.518197 
L 75.413859 158.745018 
L 75.986083 164.551467 
L 76.272195 164.544178 
L 76.558307 161.369227 
L 76.844419 161.585102 
L 77.130531 161.405663 
L 77.416643 164.781193 
L 77.702755 166.709081 
L 78.274979 165.968345 
L 78.561091 168.355542 
L 78.847203 169.367718 
L 79.133315 168.395685 
L 79.705539 165.501911 
L 79.991651 165.674711 
L 80.277763 166.201152 
L 80.563875 167.11883 
L 80.849987 166.828393 
L 81.136099 167.107327 
L 81.422211 169.102295 
L 81.708323 169.298759 
L 81.994435 168.905333 
L 82.280547 170.100476 
L 82.566659 167.869255 
L 82.852771 167.362705 
L 83.138883 168.767601 
L 83.424995 169.053409 
L 83.711107 170.71424 
L 83.997219 169.899526 
L 84.283331 167.032299 
L 84.569443 166.990155 
L 84.855555 167.321231 
L 85.427779 165.73858 
L 85.713891 165.066868 
L 86.000003 159.870641 
L 86.286115 160.204186 
L 86.572227 159.746377 
L 86.858339 158.014283 
L 87.144451 159.807888 
L 87.430563 156.771144 
L 87.716675 156.628819 
L 88.002787 158.912345 
L 88.575011 159.159236 
L 88.861123 158.860213 
L 89.147235 160.820518 
L 89.433347 164.49501 
L 90.005571 164.88055 
L 90.291683 162.592013 
L 90.577795 164.248069 
L 90.863907 162.71797 
L 91.150019 159.890052 
L 91.436131 160.493769 
L 91.722243 156.232909 
L 92.008355 154.310036 
L 92.294467 157.739281 
L 92.580579 159.523355 
L 93.438915 167.102165 
L 93.725027 167.415232 
L 94.011139 168.058747 
L 94.297251 169.226272 
L 94.583363 168.822549 
L 94.869475 168.694923 
L 96.013923 173.698703 
L 96.300035 171.282997 
L 96.586147 171.055189 
L 96.872259 173.259065 
L 97.158371 173.258387 
L 97.444483 175.17762 
L 97.730595 173.672136 
L 98.302819 171.934206 
L 98.588931 170.471043 
L 98.875043 167.992799 
L 99.161155 168.562334 
L 99.447267 166.716902 
L 99.733379 166.683377 
L 100.019491 165.824865 
L 100.305603 166.368504 
L 100.591715 167.484101 
L 100.877827 169.605456 
L 101.163939 169.789102 
L 101.736163 173.311246 
L 102.022275 169.841262 
L 102.594499 175.440271 
L 102.880611 175.698587 
L 103.166723 177.488103 
L 103.452835 176.008161 
L 104.025059 176.571868 
L 104.311171 179.155585 
L 104.597283 179.568017 
L 104.883395 181.263736 
L 105.169507 182.265168 
L 105.455619 181.040234 
L 105.741731 180.7183 
L 106.027843 183.672316 
L 106.313955 185.142839 
L 106.600067 184.331657 
L 106.886179 186.39129 
L 107.172291 187.260222 
L 107.458403 189.785398 
L 107.744515 188.866852 
L 108.030627 188.426353 
L 108.316739 188.993313 
L 108.602851 194.206704 
L 108.888963 193.839531 
L 109.461187 192.591099 
L 109.747299 192.124574 
L 110.033411 193.16974 
L 110.319523 193.785977 
L 110.605635 192.117132 
L 110.891747 193.114802 
L 111.177859 192.329845 
L 111.463971 190.601247 
L 111.750083 190.70767 
L 112.036195 189.422913 
L 112.322307 187.377604 
L 112.608419 187.671191 
L 112.894531 183.954785 
L 113.180643 186.71186 
L 113.466755 185.656462 
L 113.752867 186.104809 
L 114.038979 189.734617 
L 114.325091 187.799695 
L 114.611203 184.775153 
L 114.897315 184.572236 
L 115.183427 187.037733 
L 115.469539 187.464189 
L 115.755651 188.311705 
L 116.041763 190.185351 
L 116.327875 191.166128 
L 116.900099 187.13244 
L 117.186211 187.666786 
L 117.472323 191.189317 
L 117.758435 191.643538 
L 118.044547 193.91811 
L 118.330659 194.423668 
L 118.616771 193.712371 
L 118.902883 195.004045 
L 119.188995 195.19459 
L 119.475107 194.395227 
L 119.761219 194.290704 
L 120.047331 192.53451 
L 120.333443 189.34168 
L 120.619555 189.834381 
L 120.905667 187.700707 
L 121.191779 187.448284 
L 121.477891 187.710103 
L 121.764003 186.958891 
L 122.050115 188.712016 
L 122.336227 189.186972 
L 122.622339 189.947349 
L 122.908451 188.347064 
L 123.194563 185.733342 
L 123.480675 184.815455 
L 123.766787 184.623532 
L 124.052899 185.859382 
L 124.339011 184.91441 
L 124.625123 184.592889 
L 124.911235 184.680746 
L 125.197347 183.910344 
L 125.483459 187.793299 
L 125.769571 187.412073 
L 126.055683 184.905241 
L 126.341795 183.666301 
L 126.627907 181.254872 
L 127.200131 182.487717 
L 127.486243 181.386652 
L 128.058467 178.382552 
L 128.344579 179.933695 
L 128.916803 181.335963 
L 129.202915 182.766415 
L 129.489027 182.908312 
L 130.061251 186.516951 
L 130.347363 183.864468 
L 130.633475 186.602774 
L 130.919587 187.337822 
L 131.205699 189.094632 
L 131.777923 186.009962 
L 132.064035 186.453987 
L 132.350147 188.165459 
L 132.636259 188.833351 
L 132.922371 190.469919 
L 133.208483 188.36571 
L 133.494595 187.208055 
L 133.780707 183.674103 
L 134.066819 186.779137 
L 134.352931 186.708508 
L 134.925155 183.067295 
L 135.211267 183.814637 
L 135.497379 185.15926 
L 136.069603 185.723844 
L 136.355715 188.31636 
L 136.641827 187.301868 
L 136.927939 187.176606 
L 137.214051 184.564454 
L 137.500163 186.20306 
L 137.786275 185.845769 
L 138.072387 186.510915 
L 138.358499 184.281351 
L 138.644611 180.685886 
L 138.930723 182.274814 
L 139.789059 189.2958 
L 140.075171 189.088133 
L 140.647395 193.598361 
L 140.933507 193.262477 
L 141.50573 189.217334 
L 141.791842 191.588528 
L 142.364066 193.802223 
L 142.93629 191.616161 
L 143.222402 191.725316 
L 143.508514 191.452692 
L 143.794626 193.477575 
L 144.080738 193.392524 
L 144.36685 195.675464 
L 144.652962 199.189658 
L 144.939074 198.230402 
L 145.225186 197.689366 
L 145.511298 201.334839 
L 145.79741 198.579574 
L 146.083522 198.682243 
L 146.369634 198.39321 
L 146.655746 198.360583 
L 146.941858 201.934339 
L 147.22797 203.484626 
L 147.514082 202.351679 
L 147.800194 202.982778 
L 148.086306 201.202695 
L 148.372418 202.895187 
L 148.944642 201.200836 
L 149.230754 201.408074 
L 149.516866 201.067224 
L 149.802978 198.534459 
L 150.08909 201.918877 
L 150.661314 201.811226 
L 150.947426 200.831604 
L 151.233538 198.516571 
L 151.51965 200.189678 
L 151.805762 200.056964 
L 152.091874 201.523991 
L 152.377986 202.008892 
L 152.664098 203.8402 
L 152.95021 202.823742 
L 153.236322 204.625055 
L 153.808546 206.098006 
L 154.094658 205.621828 
L 154.38077 210.111284 
L 154.666882 207.246675 
L 154.952994 206.257634 
L 155.239106 205.914773 
L 155.525218 207.397201 
L 156.383554 197.779545 
L 156.669666 198.877411 
L 157.24189 199.086515 
L 157.528002 195.893551 
L 157.814114 196.014109 
L 158.386338 190.449633 
L 158.958562 186.704854 
L 159.244674 186.625859 
L 160.10301 189.569133 
L 160.675234 193.160533 
L 160.961346 193.750023 
L 161.247458 191.289989 
L 161.53357 193.242374 
L 161.819682 193.958754 
L 162.105794 195.10253 
L 162.391906 195.008708 
L 162.678018 193.303624 
L 162.96413 197.259107 
L 163.250242 199.610211 
L 163.536354 199.833165 
L 163.822466 201.759861 
L 164.108578 199.344204 
L 164.39469 202.700232 
L 164.680802 204.358915 
L 164.966914 199.921827 
L 165.253026 200.22423 
L 165.539138 200.736239 
L 166.111362 199.36495 
L 166.397474 197.262276 
L 166.683586 196.211724 
L 166.969698 194.439399 
L 167.25581 195.720853 
L 167.541922 199.570005 
L 167.828034 199.011159 
L 168.114146 200.797219 
L 168.400258 203.296595 
L 168.68637 201.938211 
L 168.972482 201.55323 
L 169.258594 203.060589 
L 169.544706 203.202507 
L 169.830818 203.648795 
L 170.11693 203.160159 
L 170.403042 206.708564 
L 170.689154 203.779306 
L 171.261378 208.801618 
L 171.54749 207.905125 
L 171.833602 203.764578 
L 172.119714 206.82092 
L 172.405826 207.930231 
L 172.691938 208.168212 
L 172.97805 207.426845 
L 173.550274 212.796032 
L 173.836386 212.450545 
L 174.122498 213.235757 
L 174.40861 213.282458 
L 174.694722 214.541292 
L 174.980834 211.421499 
L 175.266946 209.915402 
L 175.83917 211.03024 
L 176.125282 208.633525 
L 176.411394 209.179454 
L 176.697506 211.738002 
L 176.983618 212.573942 
L 177.26973 213.983856 
L 177.555842 212.436337 
L 177.841954 214.292812 
L 178.128066 214.334735 
L 178.70029 212.55779 
L 178.986402 213.260235 
L 179.272514 212.73758 
L 179.558626 214.502283 
L 179.844738 214.434217 
L 180.13085 218.999385 
L 180.416962 217.934007 
L 180.989186 224.182955 
L 181.275298 223.091482 
L 181.56141 224.953397 
L 181.847522 225.622352 
L 182.133634 224.631376 
L 182.419746 225.102259 
L 182.705858 222.664977 
L 182.99197 223.300576 
L 183.278082 222.415743 
L 183.564194 224.433833 
L 183.850306 222.165641 
L 184.136418 222.363921 
L 184.42253 216.420465 
L 184.708642 213.045007 
L 184.994754 214.637654 
L 185.280866 212.298926 
L 185.85309 212.549675 
L 186.139202 211.02043 
L 186.425314 214.908745 
L 186.711426 211.044959 
L 187.28365 215.372888 
L 188.141986 222.516374 
L 188.71421 219.879629 
L 189.000322 220.709747 
L 189.286434 222.286392 
L 189.572546 222.547364 
L 189.858658 224.440819 
L 190.14477 225.296852 
L 190.430882 227.323576 
L 190.716994 226.623624 
L 191.003106 224.756927 
L 191.289218 226.624858 
L 191.57533 227.251078 
L 191.861442 229.357717 
L 192.147554 227.541806 
L 192.433666 227.499794 
L 192.719778 224.615703 
L 193.292002 226.884945 
L 193.578114 224.002116 
L 193.864226 224.145757 
L 194.722562 218.175095 
L 195.008674 218.145404 
L 195.294786 217.771478 
L 195.580898 215.238145 
L 196.153122 212.828823 
L 196.439234 212.910406 
L 196.725346 212.70939 
L 197.29757 213.999506 
L 197.583682 211.082371 
L 197.869794 211.662094 
L 198.155906 214.310289 
L 198.442018 213.775594 
L 199.014242 216.916271 
L 199.300354 214.010635 
L 199.586466 215.940255 
L 199.872578 219.164973 
L 200.15869 220.422086 
L 200.444802 223.122969 
L 200.730914 223.788992 
L 201.017026 226.253706 
L 201.58925 228.700551 
L 201.875362 231.031486 
L 202.161474 231.930727 
L 202.733698 228.059088 
L 203.01981 227.933396 
L 203.305922 226.561533 
L 203.592034 228.934461 
L 203.878146 225.719429 
L 204.164258 227.86726 
L 204.45037 228.659954 
L 205.022594 226.000868 
L 205.308706 227.125098 
L 205.594818 226.840997 
L 205.88093 225.678269 
L 206.167042 225.876939 
L 206.453154 226.475145 
L 206.739266 229.718306 
L 207.025378 227.998185 
L 207.31149 227.346595 
L 207.597602 231.468821 
L 207.883714 229.302381 
L 208.169826 228.540579 
L 208.455938 233.477498 
L 208.74205 230.751781 
L 209.028162 231.173546 
L 209.314274 233.775808 
L 209.600386 234.158661 
L 209.886498 234.776247 
L 210.17261 235.89499 
L 210.458722 238.282633 
L 210.744834 237.811998 
L 211.030946 236.68063 
L 211.317058 236.076491 
L 211.60317 237.764087 
L 211.889282 238.719205 
L 212.175394 234.846347 
L 212.461506 235.534176 
L 212.461506 235.534176 
" clip-path="url(#p00977e37a9)" style="fill: none; stroke: #00bfbf; stroke-width: 1.5; stroke-linecap: square"/>
   </g>
   <g id="matplotlib.axis_3">
    <g id="xtick_4">
     <g id="line2d_12">
      <g>
       <use xlink:href="#m62e9f71256" x="69.691619" y="242.9725" style="stroke: #000000; stroke-width: 0.8"/>
      </g>
     </g>
     <g id="text_9">
      <!-- 0.0 -->
      <g transform="translate(60.149744 259.090625)scale(0.12 -0.12)">
       <use xlink:href="#DejaVuSans-30"/>
       <use xlink:href="#DejaVuSans-2e" x="63.623047"/>
       <use xlink:href="#DejaVuSans-30" x="95.410156"/>
      </g>
     </g>
    </g>
    <g id="xtick_5">
     <g id="line2d_13">
      <g>
       <use xlink:href="#m62e9f71256" x="126.914019" y="242.9725" style="stroke: #000000; stroke-width: 0.8"/>
      </g>
     </g>
     <g id="text_10">
      <!-- 0.2 -->
      <g transform="translate(117.372144 259.090625)scale(0.12 -0.12)">
       <use xlink:href="#DejaVuSans-30"/>
       <use xlink:href="#DejaVuSans-2e" x="63.623047"/>
       <use xlink:href="#DejaVuSans-32" x="95.410156"/>
      </g>
     </g>
    </g>
    <g id="xtick_6">
     <g id="line2d_14">
      <g>
       <use xlink:href="#m62e9f71256" x="184.136418" y="242.9725" style="stroke: #000000; stroke-width: 0.8"/>
      </g>
     </g>
     <g id="text_11">
      <!-- 0.4 -->
      <g transform="translate(174.594543 259.090625)scale(0.12 -0.12)">
       <use xlink:href="#DejaVuSans-30"/>
       <use xlink:href="#DejaVuSans-2e" x="63.623047"/>
       <use xlink:href="#DejaVuSans-34" x="95.410156"/>
      </g>
     </g>
    </g>
    <g id="text_12">
     <!-- Time (s) -->
     <g transform="translate(116.681875 274.704375)scale(0.12 -0.12)">
      <use xlink:href="#DejaVuSans-54"/>
      <use xlink:href="#DejaVuSans-69" x="57.958984"/>
      <use xlink:href="#DejaVuSans-6d" x="85.742188"/>
      <use xlink:href="#DejaVuSans-65" x="183.154297"/>
      <use xlink:href="#DejaVuSans-20" x="244.677734"/>
      <use xlink:href="#DejaVuSans-28" x="276.464844"/>
      <use xlink:href="#DejaVuSans-73" x="315.478516"/>
      <use xlink:href="#DejaVuSans-29" x="367.578125"/>
     </g>
    </g>
   </g>
   <g id="matplotlib.axis_4">
    <g id="ytick_4">
     <g id="line2d_15">
      <g>
       <use xlink:href="#m73938ff34a" x="62.553125" y="240.507305" style="stroke: #000000; stroke-width: 0.8"/>
      </g>
     </g>
     <g id="text_13">
      <!-- −2 -->
      <g transform="translate(37.8625 245.066368)scale(0.12 -0.12)">
       <use xlink:href="#DejaVuSans-2212"/>
       <use xlink:href="#DejaVuSans-32" x="83.789062"/>
      </g>
     </g>
    </g>
    <g id="ytick_5">
     <g id="line2d_16">
      <g>
       <use xlink:href="#m73938ff34a" x="62.553125" y="202.835184" style="stroke: #000000; stroke-width: 0.8"/>
      </g>
     </g>
     <g id="text_14">
      <!-- −1 -->
      <g transform="translate(37.8625 207.394247)scale(0.12 -0.12)">
       <use xlink:href="#DejaVuSans-2212"/>
       <use xlink:href="#DejaVuSans-31" x="83.789062"/>
      </g>
     </g>
    </g>
    <g id="ytick_6">
     <g id="line2d_17">
      <g>
       <use xlink:href="#m73938ff34a" x="62.553125" y="165.163063" style="stroke: #000000; stroke-width: 0.8"/>
      </g>
     </g>
     <g id="text_15">
      <!-- 0 -->
      <g transform="translate(47.918125 169.722125)scale(0.12 -0.12)">
       <use xlink:href="#DejaVuSans-30"/>
      </g>
     </g>
    </g>
    <g id="text_16">
     <!-- x -->
     <g transform="translate(31.366875 199.7375)rotate(-90)scale(0.12 -0.12)">
      <use xlink:href="#DejaVuSans-78"/>
     </g>
    </g>
   </g>
   <g id="line2d_18">
    <path d="M 69.691619 165.163063 
L 69.977731 165.191518 
L 70.263843 161.730102 
L 70.549955 160.699486 
L 70.836067 160.870649 
L 71.122179 162.86292 
L 71.408291 162.334382 
L 71.694403 161.318261 
L 71.980515 163.211664 
L 72.266627 164.225843 
L 72.552739 164.520963 
L 72.838851 166.337962 
L 73.124963 163.258785 
L 73.411075 168.007839 
L 73.697187 169.208387 
L 73.983299 166.1293 
L 74.269411 161.694043 
L 74.555523 163.224368 
L 74.841635 160.403571 
L 75.127747 159.482357 
L 75.986083 168.274231 
L 76.272195 167.955825 
L 76.558307 164.501598 
L 76.844419 164.78362 
L 77.130531 164.642125 
L 77.416643 168.069748 
L 77.702755 169.706969 
L 78.274979 168.139201 
L 78.561091 170.228784 
L 78.847203 170.734388 
L 79.705539 165.680171 
L 79.991651 165.801261 
L 80.277763 166.263882 
L 80.563875 167.071478 
L 80.849987 166.590199 
L 81.136099 166.72642 
L 81.422211 168.565052 
L 81.708323 168.421317 
L 81.994435 167.702066 
L 82.280547 168.643308 
L 82.566659 166.064063 
L 82.852771 165.467413 
L 83.138883 166.841874 
L 83.424995 166.959801 
L 83.711107 168.440958 
L 83.997219 167.298454 
L 84.283331 164.217689 
L 84.569443 164.270082 
L 84.855555 164.690456 
L 85.141667 163.796389 
L 85.713891 162.807154 
L 86.000003 157.846518 
L 86.286115 158.911717 
L 86.572227 159.079043 
L 86.858339 157.955351 
L 87.144451 160.469727 
L 87.430563 157.902316 
L 87.716675 158.486066 
L 88.002787 161.437292 
L 88.575011 162.384667 
L 88.861123 162.363483 
L 89.147235 164.603746 
L 89.433347 168.33417 
L 90.005571 168.093831 
L 90.291683 165.512216 
L 90.577795 167.133358 
L 90.863907 165.406229 
L 91.150019 162.553994 
L 91.436131 163.418618 
L 91.722243 159.332203 
L 92.008355 157.992416 
L 92.294467 162.138726 
L 92.580579 164.225233 
L 93.152803 169.275615 
L 93.438915 171.281364 
L 93.725027 170.982602 
L 94.011139 171.044162 
L 94.297251 171.623577 
L 94.869475 169.905103 
L 95.155587 170.694815 
L 95.441699 171.869046 
L 95.727811 171.843594 
L 96.013923 172.542852 
L 96.300035 169.389168 
L 96.586147 168.738749 
L 96.872259 170.585057 
L 97.158371 170.042179 
L 97.444483 171.4735 
L 98.016707 168.023992 
L 98.302819 166.895559 
L 98.588931 165.259146 
L 98.875043 162.771293 
L 99.161155 163.580006 
L 99.447267 161.892879 
L 99.733379 162.186372 
L 100.019491 161.62553 
L 100.305603 162.522922 
L 100.591715 163.902533 
L 100.877827 166.149941 
L 101.163939 166.2349 
L 101.736163 169.363008 
L 102.022275 165.47303 
L 102.594499 170.715248 
L 102.880611 170.418345 
L 103.166723 171.682333 
L 103.452835 169.550464 
L 104.025059 169.246371 
L 104.311171 171.421757 
L 104.597283 171.20832 
L 104.883395 172.299514 
L 105.169507 172.5873 
L 105.455619 170.619943 
L 105.741731 169.752321 
L 106.027843 172.247411 
L 106.313955 173.009498 
L 106.600067 171.413674 
L 106.886179 172.848245 
L 107.172291 172.948659 
L 107.458403 174.695276 
L 108.030627 171.616964 
L 108.316739 171.538534 
L 108.602851 176.114378 
L 109.747299 170.559957 
L 110.033411 171.065434 
L 110.319523 171.091434 
L 110.605635 168.829751 
L 110.891747 169.460752 
L 111.177859 168.246027 
L 111.463971 166.209132 
L 111.750083 166.210948 
L 112.036195 164.821403 
L 112.322307 162.81026 
L 112.608419 163.339127 
L 112.894531 159.805114 
L 113.180643 163.097984 
L 113.466755 162.249095 
L 113.752867 162.988839 
L 114.038979 166.836069 
L 114.325091 164.733846 
L 114.611203 161.752226 
L 114.897315 161.890392 
L 115.183427 164.683156 
L 115.469539 165.157604 
L 115.755651 166.005665 
L 116.041763 167.795051 
L 116.327875 168.512629 
L 116.900099 164.061491 
L 117.186211 164.705994 
L 117.472323 168.274232 
L 117.758435 168.417336 
L 118.044547 170.36648 
L 118.330659 170.351697 
L 118.616771 169.121537 
L 118.902883 170.017363 
L 119.188995 169.722478 
L 119.475107 168.467174 
L 119.761219 168.03224 
L 120.047331 165.989128 
L 120.333443 162.713691 
L 120.619555 163.451329 
L 120.905667 161.488829 
L 121.191779 161.603829 
L 121.477891 162.221572 
L 121.764003 161.764509 
L 122.050115 163.857489 
L 122.622339 165.293385 
L 122.908451 163.680068 
L 123.194563 161.214645 
L 123.480675 160.691601 
L 123.766787 160.946823 
L 124.052899 162.604298 
L 124.339011 161.915202 
L 124.625123 161.918467 
L 124.911235 162.330783 
L 125.197347 161.84361 
L 125.483459 166.05851 
L 125.769571 165.587739 
L 126.055683 163.038439 
L 126.341795 162.011962 
L 126.627907 159.915643 
L 127.200131 162.094008 
L 127.486243 161.299848 
L 127.772355 159.962069 
L 128.058467 159.202169 
L 128.344579 161.349402 
L 128.916803 163.411009 
L 129.202915 165.016666 
L 129.489027 165.173203 
L 130.061251 168.588119 
L 130.347363 165.59313 
L 130.633475 168.28843 
L 130.919587 168.710941 
L 131.205699 170.112963 
L 131.777923 166.251577 
L 132.064035 166.58675 
L 132.350147 168.155854 
L 132.636259 168.524467 
L 132.922371 169.824895 
L 133.208483 167.254502 
L 133.494595 165.887704 
L 133.780707 162.281287 
L 134.066819 165.674499 
L 134.352931 165.552726 
L 134.925155 162.010482 
L 135.211267 163.073082 
L 135.497379 164.626704 
L 136.069603 165.266988 
L 136.355715 167.849112 
L 136.641827 166.566015 
L 136.927939 166.300457 
L 137.214051 163.574566 
L 137.500163 165.372022 
L 137.786275 164.993835 
L 138.072387 165.675904 
L 138.358499 163.395056 
L 138.644611 159.976391 
L 139.216835 164.653453 
L 139.502947 167.731607 
L 139.789059 169.206987 
L 140.075171 168.594927 
L 140.647395 172.251465 
L 140.933507 171.206741 
L 141.50573 166.198904 
L 141.791842 168.466514 
L 142.364066 169.957258 
L 142.93629 166.987452 
L 143.222402 166.914168 
L 143.508514 166.466433 
L 143.794626 168.360979 
L 144.080738 167.956137 
L 144.36685 169.959769 
L 144.652962 172.994293 
L 145.225186 170.101993 
L 145.511298 173.253573 
L 145.79741 169.689257 
L 146.083522 169.339306 
L 146.369634 168.632649 
L 146.655746 168.253064 
L 146.941858 171.517819 
L 147.22797 172.43263 
L 147.514082 170.572727 
L 147.800194 170.66286 
L 148.086306 168.332797 
L 148.372418 169.708316 
L 148.944642 167.238415 
L 149.230754 167.238117 
L 149.516866 166.689762 
L 149.802978 164.004327 
L 150.08909 167.504619 
L 150.661314 166.953681 
L 150.947426 165.794997 
L 151.233538 163.41677 
L 151.51965 165.264507 
L 151.805762 165.121649 
L 152.091874 166.592817 
L 152.377986 166.934742 
L 152.664098 168.588883 
L 152.95021 167.229842 
L 153.236322 168.824478 
L 153.808546 169.523976 
L 154.094658 168.611706 
L 154.38077 172.756298 
L 154.666882 169.132366 
L 154.952994 167.746395 
L 155.239106 167.145201 
L 155.525218 168.429414 
L 156.097442 162.27416 
L 156.383554 158.819374 
L 156.669666 160.55161 
L 157.24189 161.630474 
L 157.528002 158.79077 
L 157.814114 159.548556 
L 158.386338 155.356514 
L 158.958562 153.653295 
L 159.244674 154.725277 
L 160.675234 164.574664 
L 160.961346 165.222994 
L 161.247458 162.756967 
L 161.53357 164.949962 
L 161.819682 165.687652 
L 162.105794 166.778969 
L 162.391906 166.523556 
L 162.678018 164.682423 
L 162.96413 168.685969 
L 163.250242 170.684783 
L 163.536354 170.355565 
L 163.822466 171.763011 
L 164.108578 168.687359 
L 164.39469 171.690957 
L 164.680802 172.696851 
L 164.966914 167.506384 
L 165.253026 167.574455 
L 165.539138 167.845324 
L 166.111362 166.029644 
L 166.397474 163.840312 
L 166.683586 162.922036 
L 166.969698 161.373813 
L 167.25581 163.034192 
L 167.541922 167.096231 
L 167.828034 166.344069 
L 168.400258 170.226508 
L 168.68637 168.361779 
L 168.972482 167.656927 
L 169.258594 168.914899 
L 169.544706 168.681633 
L 169.830818 168.776064 
L 170.11693 167.926128 
L 170.403042 171.198227 
L 170.689154 167.665453 
L 171.261378 171.979903 
L 171.54749 170.401727 
L 171.833602 165.737313 
L 172.119714 168.736229 
L 172.405826 169.488224 
L 172.691938 169.293689 
L 172.97805 168.13926 
L 173.550274 172.686236 
L 173.836386 171.588433 
L 174.122498 171.731108 
L 174.40861 171.121004 
L 174.694722 171.784044 
L 174.980834 168.002153 
L 175.266946 166.212147 
L 175.83917 167.067249 
L 176.125282 164.480116 
L 176.411394 165.094339 
L 176.697506 167.659759 
L 176.983618 168.24603 
L 177.26973 169.347647 
L 177.555842 167.38167 
L 177.841954 169.016284 
L 178.128066 168.672885 
L 178.70029 166.303638 
L 178.986402 166.892025 
L 179.272514 166.196474 
L 179.558626 167.857836 
L 179.844738 167.520292 
L 180.13085 171.849737 
L 180.416962 170.115692 
L 180.989186 175.125507 
L 181.275298 173.037789 
L 181.56141 174.112232 
L 181.847522 173.886271 
L 182.133634 172.022974 
L 182.419746 171.807865 
L 182.705858 168.706103 
L 182.99197 168.987398 
L 183.278082 167.720132 
L 183.564194 169.482515 
L 183.850306 166.782378 
L 184.136418 166.818726 
L 184.42253 160.709704 
L 184.708642 157.779581 
L 184.994754 160.110576 
L 185.280866 158.277097 
L 185.85309 159.823948 
L 186.139202 158.828615 
L 186.425314 163.350374 
L 186.711426 159.667857 
L 187.855874 169.533432 
L 188.141986 171.350993 
L 188.71421 167.670631 
L 189.000322 168.249993 
L 189.286434 169.517944 
L 189.572546 169.343428 
L 189.858658 170.818847 
L 190.14477 171.109302 
L 190.430882 172.541401 
L 190.716994 171.103615 
L 191.003106 168.642864 
L 191.289218 170.162814 
L 191.57533 170.289059 
L 191.861442 171.883099 
L 192.147554 169.395184 
L 192.433666 168.92996 
L 192.719778 165.669179 
L 193.292002 167.71779 
L 193.578114 164.579489 
L 193.864226 164.781487 
L 194.43645 160.335153 
L 194.722562 159.591047 
L 195.008674 160.118557 
L 195.294786 160.249082 
L 195.580898 158.207146 
L 196.153122 157.245479 
L 196.439234 158.118821 
L 196.725346 158.622229 
L 197.29757 161.095507 
L 197.583682 158.585127 
L 197.869794 159.822644 
L 198.155906 163.004881 
L 198.442018 162.686004 
L 199.014242 166.159912 
L 199.300354 163.154591 
L 199.586466 165.285058 
L 199.872578 168.497577 
L 200.15869 169.421239 
L 200.444802 171.696304 
L 200.730914 171.709002 
L 201.017026 173.519123 
L 201.58925 174.25474 
L 201.875362 175.676507 
L 202.161474 175.524403 
L 202.733698 169.897951 
L 203.01981 169.29877 
L 203.305922 167.513336 
L 203.592034 169.651237 
L 203.878146 165.987388 
L 204.164258 168.052786 
L 204.45037 168.556508 
L 205.022594 165.366183 
L 205.308706 166.470101 
L 205.594818 166.055296 
L 205.88093 164.803345 
L 206.167042 165.037987 
L 206.453154 165.6487 
L 206.739266 168.843297 
L 207.025378 166.755153 
L 207.31149 165.944354 
L 207.597602 169.988451 
L 207.883714 167.339472 
L 208.169826 166.360029 
L 208.455938 171.177252 
L 208.74205 167.850116 
L 209.028162 168.003176 
L 209.314274 170.321427 
L 209.600386 170.188443 
L 209.886498 170.30349 
L 210.17261 170.908191 
L 210.458722 172.721322 
L 210.744834 171.49486 
L 211.030946 169.730312 
L 211.317058 168.669449 
L 211.60317 170.006406 
L 211.889282 170.477189 
L 212.175394 166.072919 
L 212.461506 166.669763 
L 212.461506 166.669763 
" clip-path="url(#p00977e37a9)" style="fill: none; stroke: #808080; stroke-width: 0.75; stroke-linecap: square"/>
   </g>
   <g id="line2d_19">
    <path d="M 69.691619 165.163063 
L 69.977731 165.163825 
L 70.263843 161.677547 
L 70.549955 160.289231 
L 70.836067 160.014929 
L 71.122179 161.582146 
L 71.408291 160.810319 
L 71.694403 159.510688 
L 71.980515 161.031364 
L 72.266627 161.846963 
L 72.552739 162.028652 
L 72.838851 163.753064 
L 73.124963 160.769463 
L 73.411075 165.327342 
L 73.697187 166.782318 
L 73.983299 164.130891 
L 74.269411 159.783559 
L 74.555523 160.971063 
L 74.841635 157.954206 
L 75.127747 156.585969 
L 75.413859 158.838232 
L 75.699971 162.430487 
L 75.986083 164.614386 
L 76.272195 164.591513 
L 76.558307 161.401763 
L 76.844419 161.606416 
L 77.130531 161.413482 
L 77.416643 164.777613 
L 77.702755 166.684955 
L 78.274979 165.968911 
L 78.561091 168.342474 
L 78.847203 169.396338 
L 79.133315 168.462848 
L 79.705539 165.639067 
L 79.991651 165.786538 
L 80.277763 166.293152 
L 80.563875 167.21264 
L 80.849987 166.953984 
L 81.136099 167.259598 
L 81.422211 169.2868 
L 81.708323 169.524964 
L 81.994435 169.168582 
L 82.280547 170.409859 
L 82.566659 168.230616 
L 82.852771 167.766477 
L 83.138883 169.216548 
L 83.424995 169.546635 
L 83.711107 171.244518 
L 83.997219 170.492339 
L 84.283331 167.676275 
L 84.569443 167.675714 
L 84.855555 168.048341 
L 85.427779 166.542192 
L 85.713891 165.88515 
L 86.000003 160.672614 
L 86.286115 161.004951 
L 86.572227 160.544277 
L 86.858339 158.810909 
L 87.144451 160.61837 
L 87.430563 157.580292 
L 87.716675 157.48155 
L 88.002787 159.808351 
L 88.575011 160.063193 
L 88.861123 159.768103 
L 89.147235 161.732625 
L 89.433347 165.391515 
L 90.005571 165.720091 
L 90.291683 163.409146 
L 90.577795 165.038675 
L 90.863907 163.48341 
L 91.150019 160.629975 
L 91.436131 161.232373 
L 91.722243 156.963341 
L 92.008355 155.066534 
L 92.294467 158.529517 
L 92.580579 160.323241 
L 93.152803 165.454372 
L 93.438915 167.841612 
L 93.725027 168.200878 
L 94.011139 168.887185 
L 94.297251 170.105228 
L 94.583363 169.750398 
L 94.869475 169.661719 
L 96.013923 174.844677 
L 96.300035 172.452063 
L 96.586147 172.290289 
L 96.872259 174.564667 
L 97.158371 174.592146 
L 97.444483 176.539049 
L 97.730595 175.059215 
L 98.302819 173.370474 
L 98.588931 171.94221 
L 98.875043 169.543431 
L 99.161155 170.150013 
L 99.447267 168.354676 
L 99.733379 168.362697 
L 100.019491 167.545624 
L 100.305603 168.124072 
L 100.591715 169.283906 
L 100.877827 171.447061 
L 101.163939 171.703251 
L 101.736163 175.334393 
L 102.022275 171.877845 
L 102.594499 177.578504 
L 102.880611 177.848613 
L 103.166723 179.640804 
L 103.452835 178.123732 
L 104.025059 178.654415 
L 104.311171 181.210143 
L 104.597283 181.577552 
L 104.883395 183.223004 
L 105.169507 184.205513 
L 105.455619 182.970219 
L 105.741731 182.615678 
L 106.027843 185.513456 
L 106.313955 186.989673 
L 106.600067 186.206031 
L 106.886179 188.287013 
L 107.172291 189.219904 
L 107.458403 191.798734 
L 107.744515 190.866075 
L 108.030627 190.434784 
L 108.316739 191.027538 
L 108.602851 196.243457 
L 108.888963 195.908244 
L 109.461187 194.717289 
L 109.747299 194.272748 
L 110.319523 195.978804 
L 110.605635 194.343631 
L 110.891747 195.361009 
L 111.177859 194.602647 
L 111.463971 192.89632 
L 111.750083 193.008183 
L 112.036195 191.726476 
L 112.322307 189.667993 
L 112.608419 190.004066 
L 112.894531 186.323151 
L 113.180643 189.103364 
L 113.466755 188.103854 
L 113.752867 188.611827 
L 114.038979 192.301978 
L 114.325091 190.368879 
L 114.611203 187.37179 
L 114.897315 187.211977 
L 115.183427 189.712178 
L 115.469539 190.180327 
L 115.755651 191.059396 
L 116.041763 192.934368 
L 116.327875 193.919711 
L 116.900099 189.885478 
L 117.186211 190.458014 
L 117.472323 194.005697 
L 117.758435 194.475016 
L 118.044547 196.7712 
L 118.330659 197.30232 
L 118.616771 196.600319 
L 118.902883 197.921749 
L 119.188995 198.098902 
L 119.475107 197.282432 
L 119.761219 197.187865 
L 120.047331 195.444661 
L 120.333443 192.280733 
L 120.619555 192.774085 
L 120.905667 190.648442 
L 121.191779 190.414568 
L 121.477891 190.702714 
L 121.764003 189.967808 
L 122.050115 191.757258 
L 122.336227 192.218605 
L 122.622339 192.97595 
L 122.908451 191.37933 
L 123.194563 188.758051 
L 123.480675 187.897187 
L 123.766787 187.758735 
L 124.052899 189.04596 
L 124.339011 188.157392 
L 124.625123 187.897202 
L 124.911235 188.03853 
L 125.197347 187.32554 
L 125.483459 191.249258 
L 125.769571 190.863351 
L 126.055683 188.365845 
L 126.341795 187.191111 
L 126.627907 184.813371 
L 127.200131 186.025944 
L 127.486243 184.936513 
L 128.058467 181.896962 
L 128.344579 183.391916 
L 128.916803 184.774874 
L 129.202915 186.185034 
L 129.489027 186.347442 
L 130.061251 190.043138 
L 130.347363 187.425254 
L 130.633475 190.208992 
L 130.919587 190.974979 
L 131.205699 192.736397 
L 131.777923 189.65999 
L 132.064035 190.146643 
L 132.350147 191.890399 
L 132.636259 192.543661 
L 132.922371 194.18967 
L 133.208483 192.103142 
L 133.494595 190.935893 
L 133.780707 187.408162 
L 134.066819 190.557936 
L 134.352931 190.509281 
L 134.925155 186.948075 
L 135.211267 187.722381 
L 135.497379 189.118009 
L 136.069603 189.785713 
L 136.355715 192.418528 
L 136.641827 191.41093 
L 136.927939 191.277538 
L 137.214051 188.659998 
L 137.500163 190.357771 
L 137.786275 190.028193 
L 138.072387 190.728278 
L 138.358499 188.513931 
L 138.644611 184.980942 
L 138.930723 186.556335 
L 139.789059 193.642135 
L 140.075171 193.439799 
L 140.647395 197.983248 
L 140.933507 197.632398 
L 141.50573 193.619063 
L 141.791842 195.995302 
L 142.364066 198.261835 
L 142.93629 196.076086 
L 143.222402 196.21798 
L 143.508514 195.97734 
L 143.794626 198.03591 
L 144.080738 197.934798 
L 144.36685 200.203984 
L 144.652962 203.724072 
L 144.939074 202.780477 
L 145.225186 202.260789 
L 145.511298 205.921168 
L 145.79741 203.184954 
L 146.083522 203.309252 
L 146.369634 203.039034 
L 146.655746 203.029734 
L 146.941858 206.62683 
L 147.22797 208.157489 
L 147.514082 206.972033 
L 147.800194 207.565691 
L 148.086306 205.723705 
L 148.372418 207.438125 
L 148.944642 205.674716 
L 149.230754 205.904192 
L 149.516866 205.582817 
L 149.802978 203.072824 
L 150.08909 206.480419 
L 150.661314 206.352824 
L 150.947426 205.370355 
L 151.233538 203.07997 
L 151.51965 204.776203 
L 151.805762 204.672046 
L 152.091874 206.165963 
L 152.377986 206.659308 
L 152.664098 208.469111 
L 152.95021 207.409179 
L 153.236322 209.154698 
L 153.808546 210.564171 
L 154.094658 210.051357 
L 154.38077 214.502514 
L 154.666882 211.691069 
L 154.952994 210.685049 
L 155.239106 210.304109 
L 155.525218 211.750729 
L 156.383554 202.092429 
L 156.669666 203.202357 
L 157.24189 203.452054 
L 157.528002 200.275136 
L 157.814114 200.406279 
L 158.386338 194.865739 
L 158.958562 191.144701 
L 159.244674 191.064071 
L 160.10301 194.003744 
L 160.675234 197.642386 
L 160.961346 198.228539 
L 161.247458 195.749649 
L 161.53357 197.736706 
L 161.819682 198.446053 
L 162.105794 199.566358 
L 162.391906 199.446544 
L 162.678018 197.710882 
L 162.96413 201.660333 
L 163.250242 204.018383 
L 163.536354 204.257245 
L 163.822466 206.201155 
L 164.108578 203.791918 
L 164.39469 207.163934 
L 164.680802 208.777103 
L 164.966914 204.309068 
L 165.253026 204.629663 
L 165.539138 205.167712 
L 166.111362 203.848148 
L 166.397474 201.761609 
L 166.683586 200.718432 
L 166.969698 198.963704 
L 167.25581 200.208416 
L 167.541922 204.063765 
L 167.828034 203.520764 
L 168.114146 205.322177 
L 168.400258 207.846845 
L 168.68637 206.423743 
L 168.972482 206.03148 
L 169.258594 207.554056 
L 169.544706 207.63447 
L 169.830818 208.016822 
L 170.11693 207.469284 
L 170.403042 210.959405 
L 170.689154 207.991637 
L 171.261378 212.917811 
L 171.54749 212.015079 
L 171.833602 207.866504 
L 172.119714 210.858563 
L 172.405826 211.92873 
L 172.691938 212.156226 
L 172.97805 211.410504 
L 173.550274 216.774399 
L 173.836386 216.52059 
L 174.122498 217.406637 
L 174.40861 217.520711 
L 174.694722 218.84112 
L 174.980834 215.705482 
L 175.266946 214.311027 
L 175.83917 215.559911 
L 176.125282 213.273744 
L 176.411394 213.824925 
L 176.697506 216.402199 
L 176.983618 217.343135 
L 177.26973 218.823283 
L 177.555842 217.260987 
L 177.841954 219.191198 
L 178.128066 219.195709 
L 178.70029 217.390669 
L 178.986402 218.161225 
L 179.272514 217.65957 
L 179.558626 219.477207 
L 179.844738 219.355547 
L 180.13085 223.873547 
L 180.416962 222.512481 
L 180.989186 228.1576 
L 181.275298 226.341329 
L 181.56141 227.660433 
L 181.847522 227.654443 
L 182.133634 225.989123 
L 182.419746 225.952493 
L 182.705858 223.01137 
L 182.99197 223.436729 
L 183.278082 222.299682 
L 183.564194 224.174994 
L 183.850306 221.580992 
L 184.136418 221.688494 
L 184.42253 215.648531 
L 184.708642 212.384264 
L 184.994754 213.975094 
L 185.280866 211.658916 
L 185.85309 211.876757 
L 186.139202 210.335566 
L 186.425314 214.188223 
L 186.711426 210.356047 
L 187.28365 214.646396 
L 188.141986 221.868701 
L 188.71421 219.052049 
L 189.000322 219.853401 
L 189.286434 221.364495 
L 189.572546 221.543507 
L 189.858658 223.347973 
L 190.14477 223.960588 
L 190.430882 225.682934 
L 190.716994 224.506165 
L 191.003106 222.280516 
L 191.289218 224.00737 
L 191.57533 224.324539 
L 191.861442 226.090404 
L 192.147554 223.75683 
L 192.433666 223.43077 
L 192.719778 220.295056 
L 193.292002 222.408592 
L 193.578114 219.373145 
L 193.864226 219.468635 
L 194.43645 214.7493 
L 194.722562 213.600816 
L 195.008674 213.58448 
L 195.294786 213.223492 
L 195.580898 210.693837 
L 196.153122 208.215539 
L 196.439234 208.246972 
L 196.725346 207.996923 
L 197.29757 209.185578 
L 197.583682 206.243638 
L 197.869794 206.827254 
L 198.155906 209.444868 
L 198.442018 208.877847 
L 199.014242 211.95558 
L 199.300354 209.040222 
L 199.586466 210.946568 
L 199.872578 214.132645 
L 200.15869 215.418609 
L 200.444802 218.228933 
L 200.730914 218.913332 
L 201.017026 221.357836 
L 201.58925 223.560753 
L 201.875362 225.627157 
L 202.161474 226.055174 
L 202.733698 221.42057 
L 203.01981 221.210984 
L 203.305922 219.761256 
L 203.592034 222.07032 
L 203.878146 218.732058 
L 204.164258 220.870544 
L 204.45037 221.58918 
L 205.022594 218.76804 
L 205.308706 219.880787 
L 205.594818 219.530768 
L 205.88093 218.311946 
L 206.167042 218.525433 
L 206.453154 219.12662 
L 206.739266 222.336368 
L 207.025378 220.470187 
L 207.31149 219.746321 
L 207.597602 223.805029 
L 207.883714 221.349735 
L 208.169826 220.506442 
L 208.455938 225.370699 
L 208.74205 222.199471 
L 209.028162 222.487229 
L 209.314274 224.929607 
L 209.600386 224.911129 
L 209.886498 225.129233 
L 210.17261 225.826659 
L 210.458722 227.723075 
L 210.744834 226.571216 
L 211.030946 224.873995 
L 211.317058 223.874092 
L 211.60317 225.265946 
L 211.889282 225.786051 
L 212.175394 221.426037 
L 212.461506 222.029771 
L 212.461506 222.029771 
" clip-path="url(#p00977e37a9)" style="fill: none; stroke: #ff7f0e; stroke-width: 1.5; stroke-linecap: square"/>
   </g>
   <g id="line2d_20">
    <path d="M 62.553125 165.163063 
L 219.6 165.163063 
" clip-path="url(#p00977e37a9)" style="fill: none; stroke-dasharray: 2.775,1.2; stroke-dashoffset: 0; stroke: #808080; stroke-width: 0.75"/>
   </g>
   <g id="patch_8">
    <path d="M 62.553125 242.9725 
L 62.553125 149.4 
" style="fill: none; stroke: #000000; stroke-width: 0.8; stroke-linejoin: miter; stroke-linecap: square"/>
   </g>
   <g id="patch_9">
    <path d="M 219.6 242.9725 
L 219.6 149.4 
" style="fill: none; stroke: #000000; stroke-width: 0.8; stroke-linejoin: miter; stroke-linecap: square"/>
   </g>
   <g id="patch_10">
    <path d="M 62.553125 242.9725 
L 219.6 242.9725 
" style="fill: none; stroke: #000000; stroke-width: 0.8; stroke-linejoin: miter; stroke-linecap: square"/>
   </g>
   <g id="patch_11">
    <path d="M 62.553125 149.4 
L 219.6 149.4 
" style="fill: none; stroke: #000000; stroke-width: 0.8; stroke-linejoin: miter; stroke-linecap: square"/>
   </g>
  </g>
 </g>
 <defs>
  <clipPath id="pb715760411">
   <rect x="62.553125" y="10.8" width="157.046875" height="93.5725"/>
  </clipPath>
  <clipPath id="p00977e37a9">
   <rect x="62.553125" y="149.4" width="157.046875" height="93.5725"/>
  </clipPath>
 </defs>
</svg>
