<?xml version="1.0" encoding="utf-8" standalone="no"?>
<!DOCTYPE svg PUBLIC "-//W3C//DTD SVG 1.1//EN"
  "http://www.w3.org/Graphics/SVG/1.1/DTD/svg11.dtd">
<svg xmlns:xlink="http://www.w3.org/1999/xlink" width="223.2pt" height="288pt" viewBox="0 0 223.2 288" xmlns="http://www.w3.org/2000/svg" version="1.1">
 <metadata>
  <rdf:RDF xmlns:dc="http://purl.org/dc/elements/1.1/" xmlns:cc="http://creativecommons.org/ns#" xmlns:rdf="http://www.w3.org/1999/02/22-rdf-syntax-ns#">
   <cc:Work>
    <dc:type rdf:resource="http://purl.org/dc/dcmitype/StillImage"/>
    <dc:date>2025-06-20T15:26:23.559270</dc:date>
    <dc:format>image/svg+xml</dc:format>
    <dc:creator>
     <cc:Agent>
      <dc:title>Matplotlib v3.5.2, https://matplotlib.org/</dc:title>
     </cc:Agent>
    </dc:creator>
   </cc:Work>
  </rdf:RDF>
 </metadata>
 <defs>
  <style type="text/css">*{stroke-linejoin: round; stroke-linecap: butt}</style>
 </defs>
 <g id="figure_1">
  <g id="patch_1">
   <path d="M 0 288 
L 223.2 288 
L 223.2 0 
L 0 0 
z
" style="fill: #ffffff"/>
  </g>
  <g id="axes_1">
   <g id="patch_2">
    <path d="M 58.739375 104.3725 
L 212.4 104.3725 
L 212.4 10.8 
L 58.739375 10.8 
z
" style="fill: #ffffff"/>
   </g>
   <g id="matplotlib.axis_1">
    <g id="xtick_1">
     <g id="line2d_1">
      <defs>
       <path id="md18f70ab29" d="M 0 0 
L 0 3.5 
" style="stroke: #000000; stroke-width: 0.8"/>
      </defs>
      <g>
       <use xlink:href="#md18f70ab29" x="65.723949" y="104.3725" style="stroke: #000000; stroke-width: 0.8"/>
      </g>
     </g>
     <g id="text_1">
      <!-- −2 -->
      <g transform="translate(56.878636 120.490625)scale(0.12 -0.12)">
       <defs>
        <path id="DejaVuSans-2212" d="M 678 2272 
L 4684 2272 
L 4684 1741 
L 678 1741 
L 678 2272 
z
" transform="scale(0.015625)"/>
        <path id="DejaVuSans-32" d="M 1228 531 
L 3431 531 
L 3431 0 
L 469 0 
L 469 531 
Q 828 903 1448 1529 
Q 2069 2156 2228 2338 
Q 2531 2678 2651 2914 
Q 2772 3150 2772 3378 
Q 2772 3750 2511 3984 
Q 2250 4219 1831 4219 
Q 1534 4219 1204 4116 
Q 875 4013 500 3803 
L 500 4441 
Q 881 4594 1212 4672 
Q 1544 4750 1819 4750 
Q 2544 4750 2975 4387 
Q 3406 4025 3406 3419 
Q 3406 3131 3298 2873 
Q 3191 2616 2906 2266 
Q 2828 2175 2409 1742 
Q 1991 1309 1228 531 
z
" transform="scale(0.015625)"/>
       </defs>
       <use xlink:href="#DejaVuSans-2212"/>
       <use xlink:href="#DejaVuSans-32" x="83.789062"/>
      </g>
     </g>
    </g>
    <g id="xtick_2">
     <g id="line2d_2">
      <g>
       <use xlink:href="#md18f70ab29" x="100.646818" y="104.3725" style="stroke: #000000; stroke-width: 0.8"/>
      </g>
     </g>
     <g id="text_2">
      <!-- −1 -->
      <g transform="translate(91.801506 120.490625)scale(0.12 -0.12)">
       <defs>
        <path id="DejaVuSans-31" d="M 794 531 
L 1825 531 
L 1825 4091 
L 703 3866 
L 703 4441 
L 1819 4666 
L 2450 4666 
L 2450 531 
L 3481 531 
L 3481 0 
L 794 0 
L 794 531 
z
" transform="scale(0.015625)"/>
       </defs>
       <use xlink:href="#DejaVuSans-2212"/>
       <use xlink:href="#DejaVuSans-31" x="83.789062"/>
      </g>
     </g>
    </g>
    <g id="xtick_3">
     <g id="line2d_3">
      <g>
       <use xlink:href="#md18f70ab29" x="135.569687" y="104.3725" style="stroke: #000000; stroke-width: 0.8"/>
      </g>
     </g>
     <g id="text_3">
      <!-- 0 -->
      <g transform="translate(131.752187 120.490625)scale(0.12 -0.12)">
       <defs>
        <path id="DejaVuSans-30" d="M 2034 4250 
Q 1547 4250 1301 3770 
Q 1056 3291 1056 2328 
Q 1056 1369 1301 889 
Q 1547 409 2034 409 
Q 2525 409 2770 889 
Q 3016 1369 3016 2328 
Q 3016 3291 2770 3770 
Q 2525 4250 2034 4250 
z
M 2034 4750 
Q 2819 4750 3233 4129 
Q 3647 3509 3647 2328 
Q 3647 1150 3233 529 
Q 2819 -91 2034 -91 
Q 1250 -91 836 529 
Q 422 1150 422 2328 
Q 422 3509 836 4129 
Q 1250 4750 2034 4750 
z
" transform="scale(0.015625)"/>
       </defs>
       <use xlink:href="#DejaVuSans-30"/>
      </g>
     </g>
    </g>
    <g id="xtick_4">
     <g id="line2d_4">
      <g>
       <use xlink:href="#md18f70ab29" x="170.492557" y="104.3725" style="stroke: #000000; stroke-width: 0.8"/>
      </g>
     </g>
     <g id="text_4">
      <!-- 1 -->
      <g transform="translate(166.675057 120.490625)scale(0.12 -0.12)">
       <use xlink:href="#DejaVuSans-31"/>
      </g>
     </g>
    </g>
    <g id="xtick_5">
     <g id="line2d_5">
      <g>
       <use xlink:href="#md18f70ab29" x="205.415426" y="104.3725" style="stroke: #000000; stroke-width: 0.8"/>
      </g>
     </g>
     <g id="text_5">
      <!-- 2 -->
      <g transform="translate(201.597926 120.490625)scale(0.12 -0.12)">
       <use xlink:href="#DejaVuSans-32"/>
      </g>
     </g>
    </g>
    <g id="text_6">
     <!-- $x_1$ -->
     <g transform="translate(129.149687 136.104375)scale(0.12 -0.12)">
      <defs>
       <path id="DejaVuSans-Oblique-78" d="M 3841 3500 
L 2234 1784 
L 3219 0 
L 2559 0 
L 1819 1388 
L 531 0 
L -166 0 
L 1556 1844 
L 641 3500 
L 1300 3500 
L 1972 2234 
L 3144 3500 
L 3841 3500 
z
" transform="scale(0.015625)"/>
      </defs>
      <use xlink:href="#DejaVuSans-Oblique-78" transform="translate(0 0.3125)"/>
      <use xlink:href="#DejaVuSans-31" transform="translate(59.179688 -16.09375)scale(0.7)"/>
     </g>
    </g>
   </g>
   <g id="matplotlib.axis_2">
    <g id="ytick_1">
     <g id="line2d_6">
      <defs>
       <path id="m52f11dade0" d="M 0 0 
L -3.5 0 
" style="stroke: #000000; stroke-width: 0.8"/>
      </defs>
      <g>
       <use xlink:href="#m52f11dade0" x="58.739375" y="104.3725" style="stroke: #000000; stroke-width: 0.8"/>
      </g>
     </g>
     <g id="text_7">
      <!-- −50 -->
      <g transform="translate(26.41375 108.931563)scale(0.12 -0.12)">
       <defs>
        <path id="DejaVuSans-35" d="M 691 4666 
L 3169 4666 
L 3169 4134 
L 1269 4134 
L 1269 2991 
Q 1406 3038 1543 3061 
Q 1681 3084 1819 3084 
Q 2600 3084 3056 2656 
Q 3513 2228 3513 1497 
Q 3513 744 3044 326 
Q 2575 -91 1722 -91 
Q 1428 -91 1123 -41 
Q 819 9 494 109 
L 494 744 
Q 775 591 1075 516 
Q 1375 441 1709 441 
Q 2250 441 2565 725 
Q 2881 1009 2881 1497 
Q 2881 1984 2565 2268 
Q 2250 2553 1709 2553 
Q 1456 2553 1204 2497 
Q 953 2441 691 2322 
L 691 4666 
z
" transform="scale(0.015625)"/>
       </defs>
       <use xlink:href="#DejaVuSans-2212"/>
       <use xlink:href="#DejaVuSans-35" x="83.789062"/>
       <use xlink:href="#DejaVuSans-30" x="147.412109"/>
      </g>
     </g>
    </g>
    <g id="ytick_2">
     <g id="line2d_7">
      <g>
       <use xlink:href="#m52f11dade0" x="58.739375" y="80.979375" style="stroke: #000000; stroke-width: 0.8"/>
      </g>
     </g>
     <g id="text_8">
      <!-- −25 -->
      <g transform="translate(26.41375 85.538438)scale(0.12 -0.12)">
       <use xlink:href="#DejaVuSans-2212"/>
       <use xlink:href="#DejaVuSans-32" x="83.789062"/>
       <use xlink:href="#DejaVuSans-35" x="147.412109"/>
      </g>
     </g>
    </g>
    <g id="ytick_3">
     <g id="line2d_8">
      <g>
       <use xlink:href="#m52f11dade0" x="58.739375" y="57.58625" style="stroke: #000000; stroke-width: 0.8"/>
      </g>
     </g>
     <g id="text_9">
      <!-- 0 -->
      <g transform="translate(44.104375 62.145313)scale(0.12 -0.12)">
       <use xlink:href="#DejaVuSans-30"/>
      </g>
     </g>
    </g>
    <g id="ytick_4">
     <g id="line2d_9">
      <g>
       <use xlink:href="#m52f11dade0" x="58.739375" y="34.193125" style="stroke: #000000; stroke-width: 0.8"/>
      </g>
     </g>
     <g id="text_10">
      <!-- 25 -->
      <g transform="translate(36.469375 38.752188)scale(0.12 -0.12)">
       <use xlink:href="#DejaVuSans-32"/>
       <use xlink:href="#DejaVuSans-35" x="63.623047"/>
      </g>
     </g>
    </g>
    <g id="ytick_5">
     <g id="line2d_10">
      <g>
       <use xlink:href="#m52f11dade0" x="58.739375" y="10.8" style="stroke: #000000; stroke-width: 0.8"/>
      </g>
     </g>
     <g id="text_11">
      <!-- 50 -->
      <g transform="translate(36.469375 15.359062)scale(0.12 -0.12)">
       <use xlink:href="#DejaVuSans-35"/>
       <use xlink:href="#DejaVuSans-30" x="63.623047"/>
      </g>
     </g>
    </g>
    <g id="text_12">
     <!-- $dx_1/dt$ -->
     <g transform="translate(19.918125 76.00625)rotate(-90)scale(0.12 -0.12)">
      <defs>
       <path id="DejaVuSans-Oblique-64" d="M 2675 525 
Q 2444 222 2128 65 
Q 1813 -91 1428 -91 
Q 903 -91 598 267 
Q 294 625 294 1247 
Q 294 1766 478 2236 
Q 663 2706 1013 3078 
Q 1244 3325 1534 3454 
Q 1825 3584 2144 3584 
Q 2481 3584 2739 3421 
Q 2997 3259 3138 2956 
L 3513 4863 
L 4091 4863 
L 3144 0 
L 2566 0 
L 2675 525 
z
M 891 1350 
Q 891 897 1095 644 
Q 1300 391 1663 391 
Q 1931 391 2161 520 
Q 2391 650 2566 903 
Q 2750 1166 2856 1509 
Q 2963 1853 2963 2188 
Q 2963 2622 2758 2865 
Q 2553 3109 2194 3109 
Q 1922 3109 1687 2981 
Q 1453 2853 1288 2613 
Q 1106 2353 998 2009 
Q 891 1666 891 1350 
z
" transform="scale(0.015625)"/>
       <path id="DejaVuSans-2f" d="M 1625 4666 
L 2156 4666 
L 531 -594 
L 0 -594 
L 1625 4666 
z
" transform="scale(0.015625)"/>
       <path id="DejaVuSans-Oblique-74" d="M 2706 3500 
L 2619 3053 
L 1472 3053 
L 1100 1153 
Q 1081 1047 1072 975 
Q 1063 903 1063 863 
Q 1063 663 1183 572 
Q 1303 481 1569 481 
L 2150 481 
L 2053 0 
L 1503 0 
Q 991 0 739 200 
Q 488 400 488 806 
Q 488 878 497 964 
Q 506 1050 525 1153 
L 897 3053 
L 409 3053 
L 500 3500 
L 978 3500 
L 1172 4494 
L 1747 4494 
L 1556 3500 
L 2706 3500 
z
" transform="scale(0.015625)"/>
      </defs>
      <use xlink:href="#DejaVuSans-Oblique-64" transform="translate(0 0.015625)"/>
      <use xlink:href="#DejaVuSans-Oblique-78" transform="translate(63.476562 0.015625)"/>
      <use xlink:href="#DejaVuSans-31" transform="translate(122.65625 -16.390625)scale(0.7)"/>
      <use xlink:href="#DejaVuSans-2f" transform="translate(169.926758 0.015625)"/>
      <use xlink:href="#DejaVuSans-Oblique-64" transform="translate(203.618164 0.015625)"/>
      <use xlink:href="#DejaVuSans-Oblique-74" transform="translate(267.094727 0.015625)"/>
     </g>
    </g>
   </g>
   <g id="line2d_11">
    <path d="M 65.723949 8.954501 
L 67.134974 12.740624 
L 68.545999 16.529988 
L 69.957024 20.322448 
L 71.368049 24.111867 
L 72.779074 27.898146 
L 74.190099 31.685672 
L 75.601124 35.472018 
L 77.012149 39.256297 
L 78.423174 43.040993 
L 79.834199 46.819365 
L 81.245224 50.564524 
L 82.656249 54.064633 
L 84.067274 55.749038 
L 85.478299 56.755908 
L 86.889324 59.008924 
L 88.300349 60.506453 
L 89.711374 59.376479 
L 91.122399 57.729023 
L 92.533424 57.279573 
L 93.944449 56.728266 
L 95.355474 56.530426 
L 96.766499 56.567278 
L 98.177524 58.128487 
L 99.588549 57.945432 
L 100.999574 57.964482 
L 102.410599 57.904287 
L 103.821624 56.745302 
L 105.23265 57.080536 
L 106.643675 58.165564 
L 108.0547 57.903088 
L 109.465725 57.441681 
L 110.87675 57.007172 
L 112.287775 58.088665 
L 113.6988 58.772868 
L 115.109825 58.240569 
L 116.52085 57.557401 
L 117.931875 57.10029 
L 119.3429 56.022408 
L 120.753925 56.288466 
L 122.16495 56.407401 
L 123.575975 57.132324 
L 124.987 57.958851 
L 126.398025 57.797883 
L 127.80905 58.073179 
L 129.220075 59.245248 
L 130.6311 58.575741 
L 132.042125 58.582928 
L 133.45315 58.131707 
L 134.864175 56.946734 
L 136.2752 57.114857 
L 137.686225 56.205771 
L 139.09725 57.066464 
L 140.508275 57.421835 
L 141.9193 57.613667 
L 143.330325 57.928625 
L 144.74135 58.13755 
L 146.152375 58.397656 
L 147.5634 57.501368 
L 148.974425 57.141478 
L 150.38545 56.587491 
L 151.796475 56.641634 
L 153.2075 56.973872 
L 154.618525 57.427779 
L 156.02955 57.81109 
L 157.440575 57.682075 
L 158.8516 58.534658 
L 160.262625 58.378172 
L 161.67365 58.225579 
L 163.084675 57.632751 
L 164.4957 58.148431 
L 165.906725 57.804028 
L 167.317751 58.410862 
L 168.728776 57.402059 
L 170.139801 56.37338 
L 171.550826 56.305064 
L 172.961851 56.912678 
L 174.372876 57.39981 
L 175.783901 58.085397 
L 177.194926 58.553227 
L 178.605951 58.431159 
L 180.016976 58.249054 
L 181.428001 57.964923 
L 182.839026 56.097942 
L 184.250051 57.145016 
L 185.661076 57.296051 
L 187.072101 57.804234 
L 188.483126 59.641339 
L 189.894151 63.116127 
L 191.305176 66.814419 
L 192.716201 70.560619 
L 194.127226 74.321941 
L 195.538251 78.093065 
L 196.949276 81.859268 
L 198.360301 85.629469 
L 199.771326 89.40294 
L 201.182351 93.175246 
L 202.593376 96.944069 
L 204.004401 100.716189 
L 205.415426 104.489786 
" clip-path="url(#p29ffb58113)" style="fill: none; stroke: #1f77b4; stroke-width: 1.5; stroke-linecap: square"/>
   </g>
   <g id="line2d_12">
    <path d="M 65.723949 8.845763 
L 67.134974 12.632163 
L 68.545999 16.42185 
L 69.957024 20.214671 
L 71.368049 24.004467 
L 72.779074 27.791135 
L 74.190099 31.57915 
L 75.601124 35.366375 
L 77.012149 39.152527 
L 78.423174 42.941279 
L 79.834199 46.730596 
L 81.245224 50.512782 
L 82.656249 54.166113 
L 84.067274 55.753937 
L 85.478299 56.646871 
L 86.889324 58.873465 
L 88.300349 60.36221 
L 89.711374 59.228327 
L 91.122399 57.571813 
L 92.533424 57.087552 
L 93.944449 56.638438 
L 95.355474 56.55844 
L 96.766499 56.603267 
L 98.177524 58.166185 
L 99.588549 57.983832 
L 100.999574 58.004305 
L 102.410599 57.947899 
L 103.821624 56.796439 
L 105.23265 57.278149 
L 106.643675 58.38157 
L 108.0547 58.125483 
L 109.465725 57.667653 
L 110.87675 57.235391 
L 112.287775 58.318402 
L 113.6988 59.003612 
L 115.109825 58.475743 
L 116.52085 57.794397 
L 117.931875 57.33762 
L 119.3429 56.259774 
L 120.753925 56.525563 
L 122.16495 56.643951 
L 123.575975 57.368252 
L 124.987 58.189258 
L 126.398025 58.066315 
L 127.80905 58.349652 
L 129.220075 59.525423 
L 130.6311 58.857625 
L 132.042125 58.865631 
L 133.45315 58.413607 
L 134.864175 57.212154 
L 136.2752 57.363027 
L 137.686225 56.459912 
L 139.09725 57.324718 
L 140.508275 57.683231 
L 141.9193 57.87816 
L 143.330325 58.196822 
L 144.74135 58.411166 
L 146.152375 58.757346 
L 147.5634 57.842656 
L 148.974425 57.480167 
L 150.38545 56.926866 
L 151.796475 56.982138 
L 153.2075 57.316831 
L 154.618525 57.777466 
L 156.02955 58.178344 
L 157.440575 57.843729 
L 158.8516 58.669647 
L 160.262625 58.50637 
L 161.67365 58.351548 
L 163.084675 57.757829 
L 164.4957 58.273488 
L 165.906725 57.931011 
L 167.317751 58.539139 
L 168.728776 57.526761 
L 170.139801 56.497559 
L 171.550826 56.429298 
L 172.961851 57.037328 
L 174.372876 57.525814 
L 175.783901 58.217876 
L 177.194926 58.71729 
L 178.605951 58.366846 
L 180.016976 58.141409 
L 181.428001 57.845404 
L 182.839026 55.975601 
L 184.250051 57.017038 
L 185.661076 57.142418 
L 187.072101 57.550337 
L 188.483126 59.570553 
L 189.894151 63.163999 
L 191.305176 66.90712 
L 192.716201 70.673059 
L 194.127226 74.446309 
L 195.538251 78.226067 
L 196.949276 81.998501 
L 198.360301 85.772993 
L 199.771326 89.549316 
L 201.182351 93.323477 
L 202.593376 97.093491 
L 204.004401 100.866364 
L 205.415426 104.640436 
" clip-path="url(#p29ffb58113)" style="fill: none; stroke: #ff7f0e; stroke-width: 1.5; stroke-linecap: square"/>
   </g>
   <g id="line2d_13">
    <path d="M 113.70429 -1 
L 115.109825 2.765997 
L 116.52085 6.546705 
L 117.931875 10.327412 
L 119.3429 14.108119 
L 120.753925 17.888826 
L 122.16495 21.669533 
L 123.575975 25.45024 
L 124.987 29.230947 
L 126.398025 33.011654 
L 127.80905 36.792361 
L 129.220075 40.573068 
L 130.6311 44.353775 
L 132.042125 48.134482 
L 133.45315 51.915189 
L 134.864175 55.695896 
L 136.2752 59.476604 
L 137.686225 63.257311 
L 139.09725 67.038018 
L 140.508275 70.818725 
L 141.9193 74.599432 
L 143.330325 78.380139 
L 144.74135 82.160846 
L 146.152375 85.941553 
L 147.5634 89.72226 
L 148.974425 93.502967 
L 150.38545 97.283674 
L 151.796475 101.064381 
L 153.2075 104.845088 
L 154.618525 108.625795 
L 156.02955 112.406503 
L 157.440575 116.18721 
L 158.8516 119.967917 
L 160.262625 123.748624 
L 161.67365 127.529331 
L 163.084675 131.310038 
L 164.4957 135.090745 
L 165.906725 138.871452 
L 167.317751 142.652159 
L 168.728776 146.432866 
L 170.139801 150.213573 
L 171.550826 153.99428 
L 172.961851 157.774987 
L 174.372876 161.555694 
L 175.783901 165.336402 
L 177.194926 169.117109 
L 178.605951 172.897816 
L 180.016976 176.678523 
L 181.428001 180.45923 
L 182.839026 184.239937 
L 184.250051 188.020644 
L 185.661076 191.801351 
L 187.072101 195.582058 
L 188.483126 199.362765 
L 189.894151 203.143472 
L 191.305176 206.924179 
L 192.716201 210.704886 
L 194.127226 214.485593 
L 195.538251 218.266301 
L 196.949276 222.047008 
L 198.360301 225.827715 
L 199.771326 229.608422 
L 201.182351 233.389129 
L 202.593376 237.169836 
L 204.004401 240.950543 
L 205.415426 244.73125 
" clip-path="url(#p29ffb58113)" style="fill: none; stroke: #808080; stroke-width: 1.5; stroke-linecap: square"/>
   </g>
   <g id="line2d_14">
    <path d="M 58.739375 57.58625 
L 212.4 57.58625 
" clip-path="url(#p29ffb58113)" style="fill: none; stroke-dasharray: 1.85,0.8; stroke-dashoffset: 0; stroke: #808080; stroke-width: 0.5"/>
   </g>
   <g id="patch_3">
    <path d="M 58.739375 104.3725 
L 58.739375 10.8 
" style="fill: none; stroke: #000000; stroke-width: 0.8; stroke-linejoin: miter; stroke-linecap: square"/>
   </g>
   <g id="patch_4">
    <path d="M 212.4 104.3725 
L 212.4 10.8 
" style="fill: none; stroke: #000000; stroke-width: 0.8; stroke-linejoin: miter; stroke-linecap: square"/>
   </g>
   <g id="patch_5">
    <path d="M 58.739375 104.3725 
L 212.4 104.3725 
" style="fill: none; stroke: #000000; stroke-width: 0.8; stroke-linejoin: miter; stroke-linecap: square"/>
   </g>
   <g id="patch_6">
    <path d="M 58.739375 10.8 
L 212.4 10.8 
" style="fill: none; stroke: #000000; stroke-width: 0.8; stroke-linejoin: miter; stroke-linecap: square"/>
   </g>
  </g>
  <g id="axes_2">
   <g id="patch_7">
    <path d="M 58.739375 242.9725 
L 212.4 242.9725 
L 212.4 149.4 
L 58.739375 149.4 
z
" style="fill: #ffffff"/>
   </g>
   <g id="matplotlib.axis_3">
    <g id="xtick_6">
     <g id="line2d_15">
      <g>
       <use xlink:href="#md18f70ab29" x="65.723949" y="242.9725" style="stroke: #000000; stroke-width: 0.8"/>
      </g>
     </g>
     <g id="text_13">
      <!-- −2 -->
      <g transform="translate(56.878636 259.090625)scale(0.12 -0.12)">
       <use xlink:href="#DejaVuSans-2212"/>
       <use xlink:href="#DejaVuSans-32" x="83.789062"/>
      </g>
     </g>
    </g>
    <g id="xtick_7">
     <g id="line2d_16">
      <g>
       <use xlink:href="#md18f70ab29" x="100.646818" y="242.9725" style="stroke: #000000; stroke-width: 0.8"/>
      </g>
     </g>
     <g id="text_14">
      <!-- −1 -->
      <g transform="translate(91.801506 259.090625)scale(0.12 -0.12)">
       <use xlink:href="#DejaVuSans-2212"/>
       <use xlink:href="#DejaVuSans-31" x="83.789062"/>
      </g>
     </g>
    </g>
    <g id="xtick_8">
     <g id="line2d_17">
      <g>
       <use xlink:href="#md18f70ab29" x="135.569687" y="242.9725" style="stroke: #000000; stroke-width: 0.8"/>
      </g>
     </g>
     <g id="text_15">
      <!-- 0 -->
      <g transform="translate(131.752187 259.090625)scale(0.12 -0.12)">
       <use xlink:href="#DejaVuSans-30"/>
      </g>
     </g>
    </g>
    <g id="xtick_9">
     <g id="line2d_18">
      <g>
       <use xlink:href="#md18f70ab29" x="170.492557" y="242.9725" style="stroke: #000000; stroke-width: 0.8"/>
      </g>
     </g>
     <g id="text_16">
      <!-- 1 -->
      <g transform="translate(166.675057 259.090625)scale(0.12 -0.12)">
       <use xlink:href="#DejaVuSans-31"/>
      </g>
     </g>
    </g>
    <g id="xtick_10">
     <g id="line2d_19">
      <g>
       <use xlink:href="#md18f70ab29" x="205.415426" y="242.9725" style="stroke: #000000; stroke-width: 0.8"/>
      </g>
     </g>
     <g id="text_17">
      <!-- 2 -->
      <g transform="translate(201.597926 259.090625)scale(0.12 -0.12)">
       <use xlink:href="#DejaVuSans-32"/>
      </g>
     </g>
    </g>
    <g id="text_18">
     <!-- $x_1$ -->
     <g transform="translate(129.149687 274.704375)scale(0.12 -0.12)">
      <use xlink:href="#DejaVuSans-Oblique-78" transform="translate(0 0.3125)"/>
      <use xlink:href="#DejaVuSans-31" transform="translate(59.179688 -16.09375)scale(0.7)"/>
     </g>
    </g>
   </g>
   <g id="matplotlib.axis_4">
    <g id="ytick_6">
     <g id="line2d_20">
      <g>
       <use xlink:href="#m52f11dade0" x="58.739375" y="242.9725" style="stroke: #000000; stroke-width: 0.8"/>
      </g>
     </g>
     <g id="text_19">
      <!-- −5.0 -->
      <g transform="translate(22.6 247.531563)scale(0.12 -0.12)">
       <defs>
        <path id="DejaVuSans-2e" d="M 684 794 
L 1344 794 
L 1344 0 
L 684 0 
L 684 794 
z
" transform="scale(0.015625)"/>
       </defs>
       <use xlink:href="#DejaVuSans-2212"/>
       <use xlink:href="#DejaVuSans-35" x="83.789062"/>
       <use xlink:href="#DejaVuSans-2e" x="147.412109"/>
       <use xlink:href="#DejaVuSans-30" x="179.199219"/>
      </g>
     </g>
    </g>
    <g id="ytick_7">
     <g id="line2d_21">
      <g>
       <use xlink:href="#m52f11dade0" x="58.739375" y="219.579375" style="stroke: #000000; stroke-width: 0.8"/>
      </g>
     </g>
     <g id="text_20">
      <!-- −2.5 -->
      <g transform="translate(22.6 224.138438)scale(0.12 -0.12)">
       <use xlink:href="#DejaVuSans-2212"/>
       <use xlink:href="#DejaVuSans-32" x="83.789062"/>
       <use xlink:href="#DejaVuSans-2e" x="147.412109"/>
       <use xlink:href="#DejaVuSans-35" x="179.199219"/>
      </g>
     </g>
    </g>
    <g id="ytick_8">
     <g id="line2d_22">
      <g>
       <use xlink:href="#m52f11dade0" x="58.739375" y="196.18625" style="stroke: #000000; stroke-width: 0.8"/>
      </g>
     </g>
     <g id="text_21">
      <!-- 0.0 -->
      <g transform="translate(32.655625 200.745313)scale(0.12 -0.12)">
       <use xlink:href="#DejaVuSans-30"/>
       <use xlink:href="#DejaVuSans-2e" x="63.623047"/>
       <use xlink:href="#DejaVuSans-30" x="95.410156"/>
      </g>
     </g>
    </g>
    <g id="ytick_9">
     <g id="line2d_23">
      <g>
       <use xlink:href="#m52f11dade0" x="58.739375" y="172.793125" style="stroke: #000000; stroke-width: 0.8"/>
      </g>
     </g>
     <g id="text_22">
      <!-- 2.5 -->
      <g transform="translate(32.655625 177.352188)scale(0.12 -0.12)">
       <use xlink:href="#DejaVuSans-32"/>
       <use xlink:href="#DejaVuSans-2e" x="63.623047"/>
       <use xlink:href="#DejaVuSans-35" x="95.410156"/>
      </g>
     </g>
    </g>
    <g id="ytick_10">
     <g id="line2d_24">
      <g>
       <use xlink:href="#m52f11dade0" x="58.739375" y="149.4" style="stroke: #000000; stroke-width: 0.8"/>
      </g>
     </g>
     <g id="text_23">
      <!-- 5.0 -->
      <g transform="translate(32.655625 153.959063)scale(0.12 -0.12)">
       <use xlink:href="#DejaVuSans-35"/>
       <use xlink:href="#DejaVuSans-2e" x="63.623047"/>
       <use xlink:href="#DejaVuSans-30" x="95.410156"/>
      </g>
     </g>
    </g>
    <g id="text_24">
     <!-- $dx_1/dt$ -->
     <g transform="translate(16.104375 214.60625)rotate(-90)scale(0.12 -0.12)">
      <use xlink:href="#DejaVuSans-Oblique-64" transform="translate(0 0.015625)"/>
      <use xlink:href="#DejaVuSans-Oblique-78" transform="translate(63.476562 0.015625)"/>
      <use xlink:href="#DejaVuSans-31" transform="translate(122.65625 -16.390625)scale(0.7)"/>
      <use xlink:href="#DejaVuSans-2f" transform="translate(169.926758 0.015625)"/>
      <use xlink:href="#DejaVuSans-Oblique-64" transform="translate(203.618164 0.015625)"/>
      <use xlink:href="#DejaVuSans-Oblique-74" transform="translate(267.094727 0.015625)"/>
     </g>
    </g>
   </g>
   <g id="line2d_25">
    <path d="M 76.494362 -1 
L 77.012149 12.88672 
L 78.423174 50.733676 
L 79.834199 88.517396 
L 81.245224 125.968988 
L 82.656249 160.970078 
L 84.067274 177.814129 
L 85.478299 187.882834 
L 86.889324 210.412993 
L 88.300349 225.388285 
L 89.711374 214.088544 
L 91.122399 197.613983 
L 92.533424 193.119484 
L 93.944449 187.606414 
L 95.355474 185.628006 
L 96.766499 185.996526 
L 98.177524 201.608624 
L 99.588549 199.778068 
L 100.999574 199.968572 
L 102.410599 199.366616 
L 103.821624 187.77677 
L 105.23265 191.12911 
L 106.643675 201.979391 
L 108.0547 199.35463 
L 109.465725 194.740562 
L 110.87675 190.395474 
L 112.287775 201.210403 
L 113.6988 208.052431 
L 115.109825 202.729445 
L 116.52085 195.89776 
L 117.931875 191.326654 
L 119.3429 180.54783 
L 120.753925 183.208407 
L 122.16495 184.397762 
L 123.575975 191.646993 
L 124.987 199.912264 
L 126.398025 198.302579 
L 127.80905 201.055544 
L 129.220075 212.77623 
L 130.6311 206.081162 
L 132.042125 206.153032 
L 133.45315 201.64082 
L 134.864175 189.791088 
L 136.2752 191.472316 
L 137.686225 182.381461 
L 139.09725 190.988386 
L 140.508275 194.542105 
L 141.9193 196.460422 
L 143.330325 199.609995 
L 144.74135 201.699252 
L 146.152375 204.300311 
L 147.5634 195.337432 
L 148.974425 191.738528 
L 150.38545 186.198661 
L 151.796475 186.740093 
L 153.2075 190.062469 
L 154.618525 194.601537 
L 156.02955 198.434646 
L 157.440575 197.144496 
L 158.8516 205.67033 
L 160.262625 204.105473 
L 161.67365 202.579544 
L 163.084675 196.651256 
L 164.4957 201.808064 
L 165.906725 198.36403 
L 167.317751 204.43237 
L 168.728776 194.344337 
L 170.139801 184.057553 
L 171.550826 183.374394 
L 172.961851 189.450527 
L 174.372876 194.321854 
L 175.783901 201.177718 
L 177.194926 205.856022 
L 178.605951 204.635344 
L 180.016976 202.814289 
L 181.428001 199.972985 
L 182.839026 181.303166 
L 184.250051 191.773905 
L 185.661076 193.284265 
L 187.072101 198.36609 
L 188.483126 216.737139 
L 189.894151 251.485021 
L 191.305176 288.467942 
L 191.325216 289 
" clip-path="url(#p547b97f454)" style="fill: none; stroke: #1f77b4; stroke-width: 1.5; stroke-linecap: square"/>
   </g>
   <g id="line2d_26">
    <path d="M 76.533291 -1 
L 77.012149 11.849019 
L 78.423174 49.736537 
L 79.834199 87.629706 
L 81.245224 125.451573 
L 82.656249 161.98488 
L 84.067274 177.863124 
L 85.478299 186.792462 
L 86.889324 209.058405 
L 88.300349 223.945849 
L 89.711374 212.607015 
L 91.122399 196.041878 
L 92.533424 191.199271 
L 93.944449 186.70813 
L 95.355474 185.908145 
L 96.766499 186.356423 
L 98.177524 201.9856 
L 99.588549 200.162074 
L 100.999574 200.3668 
L 102.410599 199.802738 
L 103.821624 188.288144 
L 105.23265 193.105239 
L 106.643675 204.139453 
L 108.0547 201.578583 
L 109.465725 197.00028 
L 110.87675 192.677656 
L 112.287775 203.507768 
L 113.6988 210.359869 
L 115.109825 205.081181 
L 116.52085 198.26772 
L 117.931875 193.699954 
L 119.3429 182.92149 
L 120.753925 185.579383 
L 122.16495 186.763257 
L 123.575975 194.006268 
L 124.987 202.216326 
L 126.398025 200.986903 
L 127.80905 203.820269 
L 129.220075 215.577977 
L 130.6311 208.899996 
L 132.042125 208.980061 
L 133.45315 204.459824 
L 134.864175 192.445295 
L 136.2752 193.954022 
L 137.686225 184.922871 
L 139.09725 193.570928 
L 140.508275 197.156057 
L 141.9193 199.105349 
L 143.330325 202.291966 
L 144.74135 204.435407 
L 146.152375 207.897214 
L 147.5634 198.750311 
L 148.974425 195.125421 
L 150.38545 189.59241 
L 151.796475 190.145125 
L 153.2075 193.492059 
L 154.618525 198.09841 
L 156.02955 202.107194 
L 157.440575 198.761036 
L 158.8516 207.020217 
L 160.262625 205.38745 
L 161.67365 203.839225 
L 163.084675 197.902039 
L 164.4957 203.058632 
L 165.906725 199.633858 
L 167.317751 205.715144 
L 168.728776 195.59136 
L 170.139801 185.299336 
L 171.550826 184.616731 
L 172.961851 190.697028 
L 174.372876 195.581888 
L 175.783901 202.502506 
L 177.194926 207.496649 
L 178.605951 203.992211 
L 180.016976 201.737837 
L 181.428001 198.777791 
L 182.839026 180.079763 
L 184.250051 190.494129 
L 185.661076 191.747933 
L 187.072101 195.827124 
L 188.483126 216.029284 
L 189.894151 251.963737 
L 191.290288 289 
" clip-path="url(#p547b97f454)" style="fill: none; stroke: #ff7f0e; stroke-width: 1.5; stroke-linecap: square"/>
   </g>
   <g id="line2d_27">
    <path d="M 128.210357 -1 
L 129.220075 26.054432 
L 130.6311 63.861503 
L 132.042125 101.668573 
L 133.45315 139.475644 
L 134.864175 177.282715 
L 136.2752 215.089785 
L 137.686225 252.896856 
L 139.033657 289 
" clip-path="url(#p547b97f454)" style="fill: none; stroke: #808080; stroke-width: 1.5; stroke-linecap: square"/>
   </g>
   <g id="line2d_28">
    <path d="M 58.739375 196.18625 
L 212.4 196.18625 
" clip-path="url(#p547b97f454)" style="fill: none; stroke-dasharray: 1.85,0.8; stroke-dashoffset: 0; stroke: #808080; stroke-width: 0.5"/>
   </g>
   <g id="patch_8">
    <path d="M 58.739375 242.9725 
L 58.739375 149.4 
" style="fill: none; stroke: #000000; stroke-width: 0.8; stroke-linejoin: miter; stroke-linecap: square"/>
   </g>
   <g id="patch_9">
    <path d="M 212.4 242.9725 
L 212.4 149.4 
" style="fill: none; stroke: #000000; stroke-width: 0.8; stroke-linejoin: miter; stroke-linecap: square"/>
   </g>
   <g id="patch_10">
    <path d="M 58.739375 242.9725 
L 212.4 242.9725 
" style="fill: none; stroke: #000000; stroke-width: 0.8; stroke-linejoin: miter; stroke-linecap: square"/>
   </g>
   <g id="patch_11">
    <path d="M 58.739375 149.4 
L 212.4 149.4 
" style="fill: none; stroke: #000000; stroke-width: 0.8; stroke-linejoin: miter; stroke-linecap: square"/>
   </g>
  </g>
 </g>
 <defs>
  <clipPath id="p29ffb58113">
   <rect x="58.739375" y="10.8" width="153.660625" height="93.5725"/>
  </clipPath>
  <clipPath id="p547b97f454">
   <rect x="58.739375" y="149.4" width="153.660625" height="93.5725"/>
  </clipPath>
 </defs>
</svg>
