<?xml version="1.0" encoding="utf-8" standalone="no"?>
<!DOCTYPE svg PUBLIC "-//W3C//DTD SVG 1.1//EN"
  "http://www.w3.org/Graphics/SVG/1.1/DTD/svg11.dtd">
<svg xmlns:xlink="http://www.w3.org/1999/xlink" width="576pt" height="126pt" viewBox="0 0 576 126" xmlns="http://www.w3.org/2000/svg" version="1.1">
 <metadata>
  <rdf:RDF xmlns:dc="http://purl.org/dc/elements/1.1/" xmlns:cc="http://creativecommons.org/ns#" xmlns:rdf="http://www.w3.org/1999/02/22-rdf-syntax-ns#">
   <cc:Work>
    <dc:type rdf:resource="http://purl.org/dc/dcmitype/StillImage"/>
    <dc:date>2025-06-20T14:48:19.377514</dc:date>
    <dc:format>image/svg+xml</dc:format>
    <dc:creator>
     <cc:Agent>
      <dc:title>Matplotlib v3.5.2, https://matplotlib.org/</dc:title>
     </cc:Agent>
    </dc:creator>
   </cc:Work>
  </rdf:RDF>
 </metadata>
 <defs>
  <style type="text/css">*{stroke-linejoin: round; stroke-linecap: butt}</style>
 </defs>
 <g id="figure_1">
  <g id="patch_1">
   <path d="M 0 126 
L 576 126 
L 576 0 
L 0 0 
z
" style="fill: #ffffff"/>
  </g>
  <g id="axes_1">
   <g id="patch_2">
    <path d="M 51.104375 80.9725 
L 282.188988 80.9725 
L 282.188988 15.359062 
L 51.104375 15.359062 
z
" style="fill: #ffffff"/>
   </g>
   <g id="matplotlib.axis_1">
    <g id="xtick_1">
     <g id="line2d_1">
      <defs>
       <path id="mfc08662245" d="M 0 0 
L 0 3.5 
" style="stroke: #000000; stroke-width: 0.8"/>
      </defs>
      <g>
       <use xlink:href="#mfc08662245" x="61.608221" y="80.9725" style="stroke: #000000; stroke-width: 0.8"/>
      </g>
     </g>
     <g id="text_1">
      <!-- 0.0 -->
      <g transform="translate(52.066346 97.090625)scale(0.12 -0.12)">
       <defs>
        <path id="DejaVuSans-30" d="M 2034 4250 
Q 1547 4250 1301 3770 
Q 1056 3291 1056 2328 
Q 1056 1369 1301 889 
Q 1547 409 2034 409 
Q 2525 409 2770 889 
Q 3016 1369 3016 2328 
Q 3016 3291 2770 3770 
Q 2525 4250 2034 4250 
z
M 2034 4750 
Q 2819 4750 3233 4129 
Q 3647 3509 3647 2328 
Q 3647 1150 3233 529 
Q 2819 -91 2034 -91 
Q 1250 -91 836 529 
Q 422 1150 422 2328 
Q 422 3509 836 4129 
Q 1250 4750 2034 4750 
z
" transform="scale(0.015625)"/>
        <path id="DejaVuSans-2e" d="M 684 794 
L 1344 794 
L 1344 0 
L 684 0 
L 684 794 
z
" transform="scale(0.015625)"/>
       </defs>
       <use xlink:href="#DejaVuSans-30"/>
       <use xlink:href="#DejaVuSans-2e" x="63.623047"/>
       <use xlink:href="#DejaVuSans-30" x="95.410156"/>
      </g>
     </g>
    </g>
    <g id="xtick_2">
     <g id="line2d_2">
      <g>
       <use xlink:href="#mfc08662245" x="114.153724" y="80.9725" style="stroke: #000000; stroke-width: 0.8"/>
      </g>
     </g>
     <g id="text_2">
      <!-- 0.5 -->
      <g transform="translate(104.611849 97.090625)scale(0.12 -0.12)">
       <defs>
        <path id="DejaVuSans-35" d="M 691 4666 
L 3169 4666 
L 3169 4134 
L 1269 4134 
L 1269 2991 
Q 1406 3038 1543 3061 
Q 1681 3084 1819 3084 
Q 2600 3084 3056 2656 
Q 3513 2228 3513 1497 
Q 3513 744 3044 326 
Q 2575 -91 1722 -91 
Q 1428 -91 1123 -41 
Q 819 9 494 109 
L 494 744 
Q 775 591 1075 516 
Q 1375 441 1709 441 
Q 2250 441 2565 725 
Q 2881 1009 2881 1497 
Q 2881 1984 2565 2268 
Q 2250 2553 1709 2553 
Q 1456 2553 1204 2497 
Q 953 2441 691 2322 
L 691 4666 
z
" transform="scale(0.015625)"/>
       </defs>
       <use xlink:href="#DejaVuSans-30"/>
       <use xlink:href="#DejaVuSans-2e" x="63.623047"/>
       <use xlink:href="#DejaVuSans-35" x="95.410156"/>
      </g>
     </g>
    </g>
    <g id="xtick_3">
     <g id="line2d_3">
      <g>
       <use xlink:href="#mfc08662245" x="166.699227" y="80.9725" style="stroke: #000000; stroke-width: 0.8"/>
      </g>
     </g>
     <g id="text_3">
      <!-- 1.0 -->
      <g transform="translate(157.157352 97.090625)scale(0.12 -0.12)">
       <defs>
        <path id="DejaVuSans-31" d="M 794 531 
L 1825 531 
L 1825 4091 
L 703 3866 
L 703 4441 
L 1819 4666 
L 2450 4666 
L 2450 531 
L 3481 531 
L 3481 0 
L 794 0 
L 794 531 
z
" transform="scale(0.015625)"/>
       </defs>
       <use xlink:href="#DejaVuSans-31"/>
       <use xlink:href="#DejaVuSans-2e" x="63.623047"/>
       <use xlink:href="#DejaVuSans-30" x="95.410156"/>
      </g>
     </g>
    </g>
    <g id="xtick_4">
     <g id="line2d_4">
      <g>
       <use xlink:href="#mfc08662245" x="219.24473" y="80.9725" style="stroke: #000000; stroke-width: 0.8"/>
      </g>
     </g>
     <g id="text_4">
      <!-- 1.5 -->
      <g transform="translate(209.702855 97.090625)scale(0.12 -0.12)">
       <use xlink:href="#DejaVuSans-31"/>
       <use xlink:href="#DejaVuSans-2e" x="63.623047"/>
       <use xlink:href="#DejaVuSans-35" x="95.410156"/>
      </g>
     </g>
    </g>
    <g id="xtick_5">
     <g id="line2d_5">
      <g>
       <use xlink:href="#mfc08662245" x="271.790233" y="80.9725" style="stroke: #000000; stroke-width: 0.8"/>
      </g>
     </g>
     <g id="text_5">
      <!-- 2.0 -->
      <g transform="translate(262.248358 97.090625)scale(0.12 -0.12)">
       <defs>
        <path id="DejaVuSans-32" d="M 1228 531 
L 3431 531 
L 3431 0 
L 469 0 
L 469 531 
Q 828 903 1448 1529 
Q 2069 2156 2228 2338 
Q 2531 2678 2651 2914 
Q 2772 3150 2772 3378 
Q 2772 3750 2511 3984 
Q 2250 4219 1831 4219 
Q 1534 4219 1204 4116 
Q 875 4013 500 3803 
L 500 4441 
Q 881 4594 1212 4672 
Q 1544 4750 1819 4750 
Q 2544 4750 2975 4387 
Q 3406 4025 3406 3419 
Q 3406 3131 3298 2873 
Q 3191 2616 2906 2266 
Q 2828 2175 2409 1742 
Q 1991 1309 1228 531 
z
" transform="scale(0.015625)"/>
       </defs>
       <use xlink:href="#DejaVuSans-32"/>
       <use xlink:href="#DejaVuSans-2e" x="63.623047"/>
       <use xlink:href="#DejaVuSans-30" x="95.410156"/>
      </g>
     </g>
    </g>
    <g id="text_6">
     <!-- Time (s) -->
     <g transform="translate(142.251994 112.704375)scale(0.12 -0.12)">
      <defs>
       <path id="DejaVuSans-54" d="M -19 4666 
L 3928 4666 
L 3928 4134 
L 2272 4134 
L 2272 0 
L 1638 0 
L 1638 4134 
L -19 4134 
L -19 4666 
z
" transform="scale(0.015625)"/>
       <path id="DejaVuSans-69" d="M 603 3500 
L 1178 3500 
L 1178 0 
L 603 0 
L 603 3500 
z
M 603 4863 
L 1178 4863 
L 1178 4134 
L 603 4134 
L 603 4863 
z
" transform="scale(0.015625)"/>
       <path id="DejaVuSans-6d" d="M 3328 2828 
Q 3544 3216 3844 3400 
Q 4144 3584 4550 3584 
Q 5097 3584 5394 3201 
Q 5691 2819 5691 2113 
L 5691 0 
L 5113 0 
L 5113 2094 
Q 5113 2597 4934 2840 
Q 4756 3084 4391 3084 
Q 3944 3084 3684 2787 
Q 3425 2491 3425 1978 
L 3425 0 
L 2847 0 
L 2847 2094 
Q 2847 2600 2669 2842 
Q 2491 3084 2119 3084 
Q 1678 3084 1418 2786 
Q 1159 2488 1159 1978 
L 1159 0 
L 581 0 
L 581 3500 
L 1159 3500 
L 1159 2956 
Q 1356 3278 1631 3431 
Q 1906 3584 2284 3584 
Q 2666 3584 2933 3390 
Q 3200 3197 3328 2828 
z
" transform="scale(0.015625)"/>
       <path id="DejaVuSans-65" d="M 3597 1894 
L 3597 1613 
L 953 1613 
Q 991 1019 1311 708 
Q 1631 397 2203 397 
Q 2534 397 2845 478 
Q 3156 559 3463 722 
L 3463 178 
Q 3153 47 2828 -22 
Q 2503 -91 2169 -91 
Q 1331 -91 842 396 
Q 353 884 353 1716 
Q 353 2575 817 3079 
Q 1281 3584 2069 3584 
Q 2775 3584 3186 3129 
Q 3597 2675 3597 1894 
z
M 3022 2063 
Q 3016 2534 2758 2815 
Q 2500 3097 2075 3097 
Q 1594 3097 1305 2825 
Q 1016 2553 972 2059 
L 3022 2063 
z
" transform="scale(0.015625)"/>
       <path id="DejaVuSans-20" transform="scale(0.015625)"/>
       <path id="DejaVuSans-28" d="M 1984 4856 
Q 1566 4138 1362 3434 
Q 1159 2731 1159 2009 
Q 1159 1288 1364 580 
Q 1569 -128 1984 -844 
L 1484 -844 
Q 1016 -109 783 600 
Q 550 1309 550 2009 
Q 550 2706 781 3412 
Q 1013 4119 1484 4856 
L 1984 4856 
z
" transform="scale(0.015625)"/>
       <path id="DejaVuSans-73" d="M 2834 3397 
L 2834 2853 
Q 2591 2978 2328 3040 
Q 2066 3103 1784 3103 
Q 1356 3103 1142 2972 
Q 928 2841 928 2578 
Q 928 2378 1081 2264 
Q 1234 2150 1697 2047 
L 1894 2003 
Q 2506 1872 2764 1633 
Q 3022 1394 3022 966 
Q 3022 478 2636 193 
Q 2250 -91 1575 -91 
Q 1294 -91 989 -36 
Q 684 19 347 128 
L 347 722 
Q 666 556 975 473 
Q 1284 391 1588 391 
Q 1994 391 2212 530 
Q 2431 669 2431 922 
Q 2431 1156 2273 1281 
Q 2116 1406 1581 1522 
L 1381 1569 
Q 847 1681 609 1914 
Q 372 2147 372 2553 
Q 372 3047 722 3315 
Q 1072 3584 1716 3584 
Q 2034 3584 2315 3537 
Q 2597 3491 2834 3397 
z
" transform="scale(0.015625)"/>
       <path id="DejaVuSans-29" d="M 513 4856 
L 1013 4856 
Q 1481 4119 1714 3412 
Q 1947 2706 1947 2009 
Q 1947 1309 1714 600 
Q 1481 -109 1013 -844 
L 513 -844 
Q 928 -128 1133 580 
Q 1338 1288 1338 2009 
Q 1338 2731 1133 3434 
Q 928 4138 513 4856 
z
" transform="scale(0.015625)"/>
      </defs>
      <use xlink:href="#DejaVuSans-54"/>
      <use xlink:href="#DejaVuSans-69" x="57.958984"/>
      <use xlink:href="#DejaVuSans-6d" x="85.742188"/>
      <use xlink:href="#DejaVuSans-65" x="183.154297"/>
      <use xlink:href="#DejaVuSans-20" x="244.677734"/>
      <use xlink:href="#DejaVuSans-28" x="276.464844"/>
      <use xlink:href="#DejaVuSans-73" x="315.478516"/>
      <use xlink:href="#DejaVuSans-29" x="367.578125"/>
     </g>
    </g>
   </g>
   <g id="matplotlib.axis_2">
    <g id="ytick_1">
     <g id="line2d_6">
      <defs>
       <path id="mf45d60171a" d="M 0 0 
L -3.5 0 
" style="stroke: #000000; stroke-width: 0.8"/>
      </defs>
      <g>
       <use xlink:href="#mf45d60171a" x="51.104375" y="80.9725" style="stroke: #000000; stroke-width: 0.8"/>
      </g>
     </g>
     <g id="text_7">
      <!-- −2 -->
      <g transform="translate(26.41375 85.531562)scale(0.12 -0.12)">
       <defs>
        <path id="DejaVuSans-2212" d="M 678 2272 
L 4684 2272 
L 4684 1741 
L 678 1741 
L 678 2272 
z
" transform="scale(0.015625)"/>
       </defs>
       <use xlink:href="#DejaVuSans-2212"/>
       <use xlink:href="#DejaVuSans-32" x="83.789062"/>
      </g>
     </g>
    </g>
    <g id="ytick_2">
     <g id="line2d_7">
      <g>
       <use xlink:href="#mf45d60171a" x="51.104375" y="48.165781" style="stroke: #000000; stroke-width: 0.8"/>
      </g>
     </g>
     <g id="text_8">
      <!-- 0 -->
      <g transform="translate(36.469375 52.724844)scale(0.12 -0.12)">
       <use xlink:href="#DejaVuSans-30"/>
      </g>
     </g>
    </g>
    <g id="ytick_3">
     <g id="line2d_8">
      <g>
       <use xlink:href="#mf45d60171a" x="51.104375" y="15.359062" style="stroke: #000000; stroke-width: 0.8"/>
      </g>
     </g>
     <g id="text_9">
      <!-- 2 -->
      <g transform="translate(36.469375 19.918125)scale(0.12 -0.12)">
       <use xlink:href="#DejaVuSans-32"/>
      </g>
     </g>
    </g>
    <g id="text_10">
     <!-- x -->
     <g transform="translate(19.918125 51.717031)rotate(-90)scale(0.12 -0.12)">
      <defs>
       <path id="DejaVuSans-78" d="M 3513 3500 
L 2247 1797 
L 3578 0 
L 2900 0 
L 1881 1375 
L 863 0 
L 184 0 
L 1544 1831 
L 300 3500 
L 978 3500 
L 1906 2253 
L 2834 3500 
L 3513 3500 
z
" transform="scale(0.015625)"/>
      </defs>
      <use xlink:href="#DejaVuSans-78"/>
     </g>
    </g>
   </g>
   <g id="line2d_9">
    <path d="M 61.608221 26.841414 
L 61.923494 26.816319 
L 62.238767 26.997338 
L 62.764222 27.679215 
L 63.499859 29.084568 
L 64.866042 32.529787 
L 65.496588 34.988437 
L 66.862771 41.480461 
L 68.754409 50.722988 
L 70.646048 59.653923 
L 71.802049 64.106676 
L 72.852959 67.478596 
L 73.378414 68.378066 
L 74.00896 69.022056 
L 74.849688 69.507791 
L 75.164961 69.560368 
L 75.480234 69.412214 
L 76.005689 68.763871 
L 76.741326 67.391427 
L 78.107509 63.99743 
L 78.738055 61.610112 
L 80.209329 54.670673 
L 82.836604 41.956873 
L 84.097696 36.202286 
L 85.253697 31.862748 
L 86.199516 28.883774 
L 86.724971 27.988617 
L 87.355517 27.347471 
L 88.196246 26.864381 
L 88.511519 26.806702 
L 88.826792 26.947314 
L 89.247156 27.435748 
L 89.877702 28.508346 
L 90.823521 30.668967 
L 91.559158 32.684027 
L 92.189704 35.190565 
L 93.976251 43.688343 
L 96.288253 55.042348 
L 97.339163 59.855045 
L 98.495164 64.27293 
L 99.440983 67.347441 
L 99.966438 68.297389 
L 100.596984 68.975816 
L 101.332621 69.433092 
L 101.752985 69.567121 
L 102.068258 69.457778 
L 102.488622 68.997284 
L 103.119168 67.952227 
L 104.064987 65.815386 
L 104.905715 63.489437 
L 105.641353 60.465527 
L 107.953355 49.352825 
L 110.790812 35.996324 
L 111.946813 31.689501 
L 112.787541 29.007903 
L 113.312996 28.064827 
L 113.943542 27.391288 
L 114.679179 26.93721 
L 115.204634 26.813321 
L 115.519907 26.988913 
L 116.045362 27.665198 
L 116.780999 29.066011 
L 118.147182 32.504942 
L 118.777728 34.956455 
L 120.03882 40.95133 
L 122.981369 55.305608 
L 124.032279 60.068016 
L 125.18828 64.456792 
L 126.134099 67.463871 
L 126.659554 68.368915 
L 127.2901 69.016843 
L 128.130828 69.504793 
L 128.446101 69.560601 
L 128.761374 69.416396 
L 129.286829 68.772757 
L 130.022466 67.404908 
L 131.388649 64.0177 
L 132.019195 61.639088 
L 133.490469 54.701502 
L 136.117744 41.991673 
L 137.378836 36.231571 
L 138.534837 31.885626 
L 139.480656 28.898052 
L 140.006111 27.997458 
L 140.636658 27.352512 
L 141.477386 26.867308 
L 141.792659 26.806406 
L 142.107932 26.942097 
L 142.528296 27.427161 
L 143.158842 28.495444 
L 144.104661 30.653 
L 144.840298 32.661993 
L 145.470844 35.161408 
L 147.1523 43.157237 
L 151.461031 63.137612 
L 152.722123 67.330519 
L 153.247578 68.287066 
L 153.878124 68.969867 
L 154.613761 69.429664 
L 155.139216 69.553275 
L 155.454489 69.375582 
L 155.979944 68.697241 
L 156.715581 67.295641 
L 158.081764 63.864612 
L 158.712311 61.423059 
L 159.973403 55.457999 
L 164.807589 33.183168 
L 166.173772 28.795714 
L 166.699227 27.933987 
L 167.329773 27.316116 
L 168.170501 26.846187 
L 168.485774 26.811285 
L 168.801047 26.981616 
L 169.326502 27.652819 
L 170.062139 29.04934 
L 171.428322 32.483218 
L 172.058868 34.9284 
L 173.31996 40.919315 
L 178.259238 63.697157 
L 179.415239 67.451187 
L 179.940694 68.361057 
L 180.57124 69.012372 
L 181.411968 69.502221 
L 181.727241 69.560749 
L 182.042514 69.420117 
L 182.462878 68.931829 
L 183.093424 67.85953 
L 184.039243 65.701928 
L 184.77488 63.695137 
L 185.405426 61.20298 
L 187.191973 52.749392 
L 191.605795 32.636247 
L 192.866887 28.691783 
L 193.392342 27.869744 
L 194.022889 27.278952 
L 194.863617 26.825508 
L 195.17889 26.82489 
L 195.494163 27.031793 
L 196.019618 27.737148 
L 196.755255 29.166209 
L 198.121438 32.643698 
L 198.751984 35.13745 
L 200.43344 43.130111 
L 204.742171 63.115982 
L 206.003263 67.31652 
L 206.528718 68.278522 
L 207.159264 68.964959 
L 207.894901 69.426784 
L 208.420356 69.554667 
L 208.735629 69.381146 
L 209.261084 68.706983 
L 209.996721 67.308768 
L 211.362905 63.881907 
L 211.993451 61.44561 
L 213.254543 55.482906 
L 218.088729 33.202131 
L 219.454912 28.806955 
L 219.980367 27.94092 
L 220.610913 27.320112 
L 221.451641 26.848486 
L 221.766914 26.809833 
L 222.082187 26.975711 
L 222.607642 27.64264 
L 223.343279 29.03532 
L 224.709462 32.46451 
L 225.340008 34.903906 
L 226.6011 40.891945 
L 231.435287 63.3098 
L 232.696379 67.440239 
L 233.221834 68.354293 
L 233.85238 69.008517 
L 234.693108 69.499997 
L 235.008381 69.560907 
L 235.323654 69.423755 
L 235.744018 68.937922 
L 236.374564 67.868815 
L 237.320383 65.713514 
L 238.05602 63.711188 
L 238.686566 61.223967 
L 240.368022 53.269586 
L 244.571662 33.783203 
L 245.832754 29.426849 
L 246.358209 28.321768 
L 246.988756 27.537852 
L 247.724393 27.023888 
L 248.354939 26.805436 
L 248.670212 26.933417 
L 249.090576 27.412899 
L 249.721122 28.474875 
L 250.666941 30.627994 
L 251.402578 32.628562 
L 252.033124 35.11765 
L 253.609489 42.607519 
L 258.023311 63.09857 
L 259.284403 67.305121 
L 259.809858 68.271545 
L 260.440404 68.960953 
L 261.176041 69.424381 
L 261.701496 69.556219 
L 262.016769 69.386533 
L 262.542224 68.716064 
L 263.277861 67.321006 
L 264.644045 63.89798 
L 265.274591 61.466903 
L 266.535683 55.506037 
L 271.264778 33.599199 
L 271.685142 32.121732 
L 271.685142 32.121732 
" clip-path="url(#p9ad1532326)" style="fill: none; stroke: #1f77b4; stroke-width: 1.5; stroke-linecap: square"/>
   </g>
   <g id="line2d_10">
    <path d="M 61.608221 48.165781 
L 62.659131 42.711884 
L 64.445678 34.808355 
L 65.286406 31.977717 
L 66.547498 28.539078 
L 67.178044 27.173375 
L 67.598408 26.783284 
L 68.018772 26.738488 
L 68.439136 26.897993 
L 69.069682 27.367796 
L 69.700229 28.011733 
L 70.120593 28.769065 
L 70.751139 30.526904 
L 72.327504 35.995125 
L 73.483505 41.095615 
L 74.954779 48.516763 
L 75.900598 53.423573 
L 77.792236 61.772789 
L 78.632964 64.538237 
L 79.894056 67.93526 
L 80.524602 69.245517 
L 80.944966 69.593105 
L 81.36533 69.614055 
L 81.890785 69.376819 
L 82.626422 68.766303 
L 83.151877 68.152981 
L 83.572241 67.279676 
L 84.202787 65.438513 
L 85.779152 59.920106 
L 87.460609 52.373946 
L 88.301337 47.897912 
L 89.247156 42.978824 
L 91.243885 34.223741 
L 92.294795 30.917687 
L 93.555887 27.669503 
L 93.976251 26.982327 
L 94.291524 26.763778 
L 94.711888 26.744912 
L 95.237343 26.987284 
L 95.97298 27.6052 
L 96.498435 28.241153 
L 97.02389 29.423245 
L 97.759527 31.728887 
L 99.020619 36.18029 
L 100.702075 43.738417 
L 101.542803 48.180869 
L 102.593713 53.643607 
L 104.38026 61.543528 
L 105.220989 64.36688 
L 106.482081 67.791944 
L 107.112627 69.163258 
L 107.532991 69.568094 
L 107.953355 69.622346 
L 108.47881 69.408127 
L 109.109356 68.918158 
L 109.739902 68.23502 
L 110.160266 67.418464 
L 110.895903 65.275151 
L 112.472268 59.706572 
L 113.943542 53.107635 
L 114.78427 48.811809 
L 115.940271 42.749807 
L 117.726818 34.838751 
L 118.567546 32.000866 
L 119.828638 28.557705 
L 120.459184 27.184798 
L 120.879548 26.787058 
L 121.299912 26.737502 
L 121.720276 26.894352 
L 122.350822 27.36143 
L 122.981369 28.002463 
L 123.401733 28.75262 
L 124.032279 30.50388 
L 125.608644 35.968378 
L 126.764645 41.060563 
L 128.34101 49.087722 
L 129.286829 53.882651 
L 131.073376 61.747232 
L 131.914104 64.518826 
L 133.175196 67.91896 
L 133.805742 69.236817 
L 134.226106 69.591064 
L 134.64647 69.615488 
L 135.171925 69.381445 
L 135.907562 68.773458 
L 136.538108 67.98617 
L 137.063563 66.750024 
L 138.009382 63.694967 
L 139.270474 59.063528 
L 140.951931 51.400516 
L 144.419934 34.646318 
L 145.260662 31.857016 
L 146.521754 28.437466 
L 147.1523 27.116424 
L 147.572664 26.765732 
L 147.993028 26.743501 
L 148.518483 26.98265 
L 149.25412 27.598343 
L 149.779575 28.229035 
L 150.199939 29.133976 
L 150.830485 31.003493 
L 152.40685 36.592549 
L 153.878124 43.225933 
L 154.718852 47.540943 
L 155.874853 53.612372 
L 157.6614 61.51852 
L 158.502129 64.34783 
L 159.763221 67.77677 
L 160.393767 69.154146 
L 160.814131 69.565974 
L 161.234495 69.623843 
L 161.75995 69.412155 
L 162.390496 68.923606 
L 163.021042 68.243643 
L 163.441406 67.433104 
L 164.177043 65.29571 
L 165.753408 59.737624 
L 167.224682 53.13864 
L 168.06541 48.851118 
L 169.221411 42.783309 
L 171.113049 34.453576 
L 172.058868 31.393382 
L 173.425051 27.808194 
L 173.845415 27.054895 
L 174.265779 26.753693 
L 174.686143 26.75691 
L 175.211598 27.01809 
L 175.947236 27.651369 
L 176.472691 28.315917 
L 176.998146 29.538511 
L 177.838874 32.230438 
L 179.310148 37.711805 
L 180.886513 44.961833 
L 184.249425 61.304851 
L 184.985062 63.862321 
L 186.141063 67.103264 
L 186.981791 69.071935 
L 187.402155 69.540364 
L 187.822519 69.632743 
L 188.347974 69.447005 
L 188.97852 68.971081 
L 189.609066 68.326206 
L 190.02943 67.569388 
L 190.659976 65.820774 
L 192.236341 60.389335 
L 193.392342 55.338027 
L 194.968708 47.360175 
L 195.914527 42.548664 
L 197.701074 34.667948 
L 198.541802 31.873216 
L 199.802894 28.451373 
L 200.43344 27.123792 
L 200.853804 26.767431 
L 201.274168 26.742319 
L 201.799623 26.978685 
L 202.53526 27.592473 
L 203.060715 28.218342 
L 203.481079 29.117489 
L 204.111625 30.982311 
L 205.68799 36.565729 
L 207.264355 43.678736 
L 208.105083 48.110656 
L 209.155993 53.585151 
L 210.94254 61.497354 
L 211.678178 64.008157 
L 212.834179 67.229096 
L 213.674907 69.146542 
L 214.095271 69.564175 
L 214.515635 69.625058 
L 215.04109 69.415619 
L 215.671636 68.927947 
L 216.302182 68.250953 
L 216.722546 67.445458 
L 217.458183 65.312905 
L 219.034548 59.761493 
L 220.610913 52.685334 
L 221.451641 48.282327 
L 222.502551 42.810469 
L 224.394189 34.474914 
L 225.340008 31.409766 
L 226.706191 27.820994 
L 227.126555 27.061801 
L 227.546919 26.755045 
L 227.967283 26.755341 
L 228.492738 27.014279 
L 229.228376 27.645683 
L 229.753831 28.30559 
L 230.279286 29.523332 
L 231.120014 32.211044 
L 232.591288 37.690406 
L 234.167653 44.93648 
L 237.530565 61.284901 
L 238.266202 63.847459 
L 239.422203 67.090942 
L 240.262931 69.064108 
L 240.683295 69.537079 
L 241.103659 69.632574 
L 241.629114 69.449505 
L 242.25966 68.975247 
L 242.890206 68.332385 
L 243.31057 67.580042 
L 243.941116 65.8356 
L 245.517481 60.405714 
L 246.673482 55.359331 
L 248.249848 47.386723 
L 249.195667 42.570267 
L 250.982214 34.686078 
L 251.822942 31.886693 
L 253.084034 28.463084 
L 253.71458 27.13003 
L 254.134944 26.769005 
L 254.555308 26.741455 
L 255.080763 26.975515 
L 255.8164 27.587668 
L 256.341855 28.209889 
L 256.762219 29.103893 
L 257.392765 30.965145 
L 258.96913 36.543668 
L 260.545495 43.656379 
L 261.386223 48.081988 
L 262.437133 53.560673 
L 264.22368 61.477781 
L 264.959318 63.992894 
L 266.115319 67.216523 
L 266.956047 69.139504 
L 267.376411 69.56243 
L 267.796775 69.62612 
L 268.32223 69.418798 
L 268.952776 68.931816 
L 269.583322 68.257864 
L 270.003686 67.456914 
L 270.739323 65.328711 
L 271.685142 62.157491 
L 271.685142 62.157491 
" clip-path="url(#p9ad1532326)" style="fill: none; stroke: #ff7f0e; stroke-width: 1.5; stroke-linecap: square"/>
   </g>
   <g id="line2d_11">
    <path d="M 61.608221 26.841414 
L 61.881896 26.887071 
L 62.15557 27.023847 
L 62.429245 27.251156 
L 62.702919 27.568024 
L 62.976594 27.973095 
L 63.250268 28.464635 
L 63.523943 29.040538 
L 63.797617 29.698338 
L 64.071291 30.435218 
L 64.344966 31.248023 
L 64.61864 32.133273 
L 64.892315 33.087177 
L 65.165989 34.105649 
L 65.439664 35.184329 
L 65.713338 36.318598 
L 65.987013 37.503598 
L 66.260687 38.734255 
L 66.534362 40.005299 
L 66.808036 41.311288 
L 67.081711 42.646629 
L 67.355385 44.005604 
L 67.62906 45.382393 
L 67.902734 46.771101 
L 68.176409 48.165781 
L 68.450083 49.560462 
L 68.723758 50.94917 
L 68.997432 52.325959 
L 69.271107 53.684934 
L 69.544781 55.020274 
L 69.818456 56.326263 
L 70.09213 57.597308 
L 70.365805 58.827965 
L 70.639479 60.012965 
L 70.913154 61.147233 
L 71.186828 62.225914 
L 71.460503 63.244386 
L 71.734177 64.198289 
L 72.007852 65.083539 
L 72.281526 65.896345 
L 72.555201 66.633225 
L 72.828875 67.291025 
L 73.10255 67.866928 
L 73.376224 68.358467 
L 73.649899 68.763538 
L 73.923573 69.080407 
L 74.197248 69.307716 
L 74.470922 69.444491 
L 74.744597 69.490148 
L 75.018271 69.444491 
L 75.291946 69.307716 
L 75.56562 69.080407 
L 75.839295 68.763538 
L 76.112969 68.358467 
L 76.386644 67.866928 
L 76.660318 67.291025 
L 76.933993 66.633225 
L 77.207667 65.896345 
L 77.481342 65.083539 
L 77.755016 64.198289 
L 78.028691 63.244386 
L 78.302365 62.225914 
L 78.57604 61.147233 
L 78.849714 60.012965 
L 79.123389 58.827965 
L 79.397063 57.597308 
L 79.670738 56.326263 
L 79.944412 55.020274 
L 80.218087 53.684934 
L 80.491761 52.325959 
L 80.765436 50.94917 
L 81.03911 49.560462 
L 81.312785 48.165781 
L 81.586459 46.771101 
L 81.860134 45.382393 
L 82.133808 44.005604 
L 82.407483 42.646629 
L 82.681157 41.311288 
L 82.954832 40.005299 
L 83.228506 38.734255 
L 83.502181 37.503598 
L 83.775855 36.318598 
L 84.04953 35.184329 
L 84.323204 34.105649 
L 84.596879 33.087177 
L 84.870553 32.133273 
L 85.144228 31.248023 
L 85.417902 30.435218 
L 85.691577 29.698338 
L 85.965251 29.040538 
L 86.238926 28.464635 
L 86.5126 27.973095 
L 86.786275 27.568024 
L 87.059949 27.251156 
L 87.333624 27.023847 
L 87.607298 26.887071 
" clip-path="url(#p9ad1532326)" style="fill: none; stroke-dasharray: 5.55,2.4; stroke-dashoffset: 0; stroke: #000000; stroke-width: 1.5"/>
   </g>
   <g id="line2d_12">
    <path d="M 61.608221 48.165781 
L 61.881896 46.771101 
L 62.15557 45.382393 
L 62.429245 44.005604 
L 62.702919 42.646629 
L 62.976594 41.311288 
L 63.250268 40.005299 
L 63.523943 38.734255 
L 63.797617 37.503598 
L 64.071291 36.318598 
L 64.344966 35.184329 
L 64.61864 34.105649 
L 64.892315 33.087177 
L 65.165989 32.133273 
L 65.439664 31.248023 
L 65.713338 30.435218 
L 65.987013 29.698338 
L 66.260687 29.040538 
L 66.534362 28.464635 
L 66.808036 27.973095 
L 67.081711 27.568024 
L 67.355385 27.251156 
L 67.62906 27.023847 
L 67.902734 26.887071 
L 68.176409 26.841414 
L 68.450083 26.887071 
L 68.723758 27.023847 
L 68.997432 27.251156 
L 69.271107 27.568024 
L 69.544781 27.973095 
L 69.818456 28.464635 
L 70.09213 29.040538 
L 70.365805 29.698338 
L 70.639479 30.435218 
L 70.913154 31.248023 
L 71.186828 32.133273 
L 71.460503 33.087177 
L 71.734177 34.105649 
L 72.007852 35.184329 
L 72.281526 36.318598 
L 72.555201 37.503598 
L 72.828875 38.734255 
L 73.10255 40.005299 
L 73.376224 41.311288 
L 73.649899 42.646629 
L 73.923573 44.005604 
L 74.197248 45.382393 
L 74.470922 46.771101 
L 74.744597 48.165781 
L 75.018271 49.560462 
L 75.291946 50.94917 
L 75.56562 52.325959 
L 75.839295 53.684934 
L 76.112969 55.020274 
L 76.386644 56.326263 
L 76.660318 57.597308 
L 76.933993 58.827965 
L 77.207667 60.012965 
L 77.481342 61.147233 
L 77.755016 62.225914 
L 78.028691 63.244386 
L 78.302365 64.198289 
L 78.57604 65.083539 
L 78.849714 65.896345 
L 79.123389 66.633225 
L 79.397063 67.291025 
L 79.670738 67.866928 
L 79.944412 68.358467 
L 80.218087 68.763538 
L 80.491761 69.080407 
L 80.765436 69.307716 
L 81.03911 69.444491 
L 81.312785 69.490148 
L 81.586459 69.444491 
L 81.860134 69.307716 
L 82.133808 69.080407 
L 82.407483 68.763538 
L 82.681157 68.358467 
L 82.954832 67.866928 
L 83.228506 67.291025 
L 83.502181 66.633225 
L 83.775855 65.896345 
L 84.04953 65.083539 
L 84.323204 64.198289 
L 84.596879 63.244386 
L 84.870553 62.225914 
L 85.144228 61.147233 
L 85.417902 60.012965 
L 85.691577 58.827965 
L 85.965251 57.597308 
L 86.238926 56.326263 
L 86.5126 55.020274 
L 86.786275 53.684934 
L 87.059949 52.325959 
L 87.333624 50.94917 
L 87.607298 49.560462 
" clip-path="url(#p9ad1532326)" style="fill: none; stroke-dasharray: 5.55,2.4; stroke-dashoffset: 0; stroke: #000000; stroke-width: 1.5"/>
   </g>
   <g id="patch_3">
    <path d="M 51.104375 80.9725 
L 51.104375 15.359062 
" style="fill: none; stroke: #000000; stroke-width: 0.8; stroke-linejoin: miter; stroke-linecap: square"/>
   </g>
   <g id="patch_4">
    <path d="M 282.188988 80.9725 
L 282.188988 15.359062 
" style="fill: none; stroke: #000000; stroke-width: 0.8; stroke-linejoin: miter; stroke-linecap: square"/>
   </g>
   <g id="patch_5">
    <path d="M 51.104375 80.9725 
L 282.188988 80.9725 
" style="fill: none; stroke: #000000; stroke-width: 0.8; stroke-linejoin: miter; stroke-linecap: square"/>
   </g>
   <g id="patch_6">
    <path d="M 51.104375 15.359062 
L 282.188988 15.359062 
" style="fill: none; stroke: #000000; stroke-width: 0.8; stroke-linejoin: miter; stroke-linecap: square"/>
   </g>
  </g>
  <g id="axes_2">
   <g id="patch_7">
    <path d="M 333.704375 80.9725 
L 564.788988 80.9725 
L 564.788988 15.359062 
L 333.704375 15.359062 
z
" style="fill: #ffffff"/>
   </g>
   <g id="PathCollection_1">
    <defs>
     <path id="m281d368375" d="M -0 3 
L 3 -3 
L -3 -3 
z
" style="stroke: #000000"/>
    </defs>
    <g clip-path="url(#paf3a2b5edc)">
     <use xlink:href="#m281d368375" x="396.727451" y="21.920406" style="stroke: #000000"/>
    </g>
   </g>
   <g id="matplotlib.axis_3">
    <g id="xtick_6">
     <g id="line2d_13">
      <g>
       <use xlink:href="#mfc08662245" x="344.208221" y="80.9725" style="stroke: #000000; stroke-width: 0.8"/>
      </g>
     </g>
     <g id="text_11">
      <!-- 0.0 -->
      <g transform="translate(334.666346 97.090625)scale(0.12 -0.12)">
       <use xlink:href="#DejaVuSans-30"/>
       <use xlink:href="#DejaVuSans-2e" x="63.623047"/>
       <use xlink:href="#DejaVuSans-30" x="95.410156"/>
      </g>
     </g>
    </g>
    <g id="xtick_7">
     <g id="line2d_14">
      <g>
       <use xlink:href="#mfc08662245" x="396.753724" y="80.9725" style="stroke: #000000; stroke-width: 0.8"/>
      </g>
     </g>
     <g id="text_12">
      <!-- 0.5 -->
      <g transform="translate(387.211849 97.090625)scale(0.12 -0.12)">
       <use xlink:href="#DejaVuSans-30"/>
       <use xlink:href="#DejaVuSans-2e" x="63.623047"/>
       <use xlink:href="#DejaVuSans-35" x="95.410156"/>
      </g>
     </g>
    </g>
    <g id="xtick_8">
     <g id="line2d_15">
      <g>
       <use xlink:href="#mfc08662245" x="449.299227" y="80.9725" style="stroke: #000000; stroke-width: 0.8"/>
      </g>
     </g>
     <g id="text_13">
      <!-- 1.0 -->
      <g transform="translate(439.757352 97.090625)scale(0.12 -0.12)">
       <use xlink:href="#DejaVuSans-31"/>
       <use xlink:href="#DejaVuSans-2e" x="63.623047"/>
       <use xlink:href="#DejaVuSans-30" x="95.410156"/>
      </g>
     </g>
    </g>
    <g id="xtick_9">
     <g id="line2d_16">
      <g>
       <use xlink:href="#mfc08662245" x="501.84473" y="80.9725" style="stroke: #000000; stroke-width: 0.8"/>
      </g>
     </g>
     <g id="text_14">
      <!-- 1.5 -->
      <g transform="translate(492.302855 97.090625)scale(0.12 -0.12)">
       <use xlink:href="#DejaVuSans-31"/>
       <use xlink:href="#DejaVuSans-2e" x="63.623047"/>
       <use xlink:href="#DejaVuSans-35" x="95.410156"/>
      </g>
     </g>
    </g>
    <g id="xtick_10">
     <g id="line2d_17">
      <g>
       <use xlink:href="#mfc08662245" x="554.390233" y="80.9725" style="stroke: #000000; stroke-width: 0.8"/>
      </g>
     </g>
     <g id="text_15">
      <!-- 2.0 -->
      <g transform="translate(544.848358 97.090625)scale(0.12 -0.12)">
       <use xlink:href="#DejaVuSans-32"/>
       <use xlink:href="#DejaVuSans-2e" x="63.623047"/>
       <use xlink:href="#DejaVuSans-30" x="95.410156"/>
      </g>
     </g>
    </g>
    <g id="text_16">
     <!-- Time (s) -->
     <g transform="translate(424.851994 112.704375)scale(0.12 -0.12)">
      <use xlink:href="#DejaVuSans-54"/>
      <use xlink:href="#DejaVuSans-69" x="57.958984"/>
      <use xlink:href="#DejaVuSans-6d" x="85.742188"/>
      <use xlink:href="#DejaVuSans-65" x="183.154297"/>
      <use xlink:href="#DejaVuSans-20" x="244.677734"/>
      <use xlink:href="#DejaVuSans-28" x="276.464844"/>
      <use xlink:href="#DejaVuSans-73" x="315.478516"/>
      <use xlink:href="#DejaVuSans-29" x="367.578125"/>
     </g>
    </g>
   </g>
   <g id="matplotlib.axis_4">
    <g id="ytick_4">
     <g id="line2d_18">
      <g>
       <use xlink:href="#mf45d60171a" x="333.704375" y="80.9725" style="stroke: #000000; stroke-width: 0.8"/>
      </g>
     </g>
     <g id="text_17">
      <!-- −2 -->
      <g transform="translate(309.01375 85.531562)scale(0.12 -0.12)">
       <use xlink:href="#DejaVuSans-2212"/>
       <use xlink:href="#DejaVuSans-32" x="83.789062"/>
      </g>
     </g>
    </g>
    <g id="ytick_5">
     <g id="line2d_19">
      <g>
       <use xlink:href="#mf45d60171a" x="333.704375" y="48.165781" style="stroke: #000000; stroke-width: 0.8"/>
      </g>
     </g>
     <g id="text_18">
      <!-- 0 -->
      <g transform="translate(319.069375 52.724844)scale(0.12 -0.12)">
       <use xlink:href="#DejaVuSans-30"/>
      </g>
     </g>
    </g>
    <g id="ytick_6">
     <g id="line2d_20">
      <g>
       <use xlink:href="#mf45d60171a" x="333.704375" y="15.359062" style="stroke: #000000; stroke-width: 0.8"/>
      </g>
     </g>
     <g id="text_19">
      <!-- 2 -->
      <g transform="translate(319.069375 19.918125)scale(0.12 -0.12)">
       <use xlink:href="#DejaVuSans-32"/>
      </g>
     </g>
    </g>
    <g id="text_20">
     <!-- x -->
     <g transform="translate(302.518125 51.717031)rotate(-90)scale(0.12 -0.12)">
      <use xlink:href="#DejaVuSans-78"/>
     </g>
    </g>
   </g>
   <g id="line2d_21">
    <path d="M 344.208221 26.841414 
L 344.523494 26.816319 
L 344.838767 26.997338 
L 345.364222 27.679215 
L 346.099859 29.084568 
L 347.466042 32.529787 
L 348.096588 34.988437 
L 349.462771 41.480461 
L 351.354409 50.722988 
L 353.246048 59.653923 
L 354.402049 64.106676 
L 355.452959 67.478596 
L 355.978414 68.378066 
L 356.60896 69.022056 
L 357.449688 69.507791 
L 357.764961 69.560368 
L 358.080234 69.412214 
L 358.605689 68.763871 
L 359.341326 67.391427 
L 360.707509 63.99743 
L 361.338055 61.610112 
L 362.809329 54.670673 
L 365.436604 41.956873 
L 366.697696 36.202286 
L 367.853697 31.862748 
L 368.799516 28.883774 
L 369.324971 27.988617 
L 369.955517 27.347471 
L 370.796246 26.864381 
L 371.111519 26.806702 
L 371.426792 26.947314 
L 371.847156 27.435748 
L 372.477702 28.508346 
L 373.423521 30.668967 
L 374.159158 32.684027 
L 374.789704 35.190565 
L 376.576251 43.688343 
L 378.888253 55.042348 
L 379.939163 59.855045 
L 381.095164 64.27293 
L 382.040983 67.347441 
L 382.566438 68.297389 
L 383.196984 68.975816 
L 383.932621 69.433092 
L 384.352985 69.567121 
L 384.668258 69.457778 
L 385.088622 68.997284 
L 385.719168 67.952227 
L 386.664987 65.815386 
L 387.505715 63.489437 
L 388.241353 60.465527 
L 390.553355 49.352825 
L 393.390812 35.996324 
L 394.546813 31.689501 
L 395.387541 29.007903 
L 395.912996 28.064827 
L 396.543542 27.391288 
L 396.648633 27.310859 
L 396.753724 35.438445 
L 397.594452 30.930017 
L 398.119907 29.211567 
L 398.645362 28.165895 
L 399.275908 27.423098 
L 400.011545 26.936275 
L 400.326818 26.97193 
L 400.747182 27.358822 
L 401.377728 28.34119 
L 402.113365 29.947396 
L 403.059184 32.356597 
L 403.68973 34.74492 
L 405.055913 41.225436 
L 407.157734 51.499149 
L 409.259554 61.169532 
L 410.625737 66.178616 
L 411.151192 67.58375 
L 411.676647 68.443108 
L 412.307193 69.059556 
L 413.147921 69.529114 
L 413.463194 69.551264 
L 413.778467 69.366561 
L 414.303922 68.680636 
L 415.039559 67.272948 
L 416.405742 63.833205 
L 417.036288 61.382544 
L 418.29738 55.412234 
L 423.236658 32.777057 
L 424.49775 28.772542 
L 425.023205 27.919722 
L 425.653751 27.307881 
L 426.494479 26.841588 
L 426.809752 26.814193 
L 427.125025 26.992494 
L 427.65048 27.671498 
L 428.386117 29.074513 
L 429.7523 32.516228 
L 430.382846 34.970982 
L 431.643938 40.967861 
L 434.481395 54.787356 
L 435.532305 59.637582 
L 436.688306 64.093609 
L 437.739216 67.47052 
L 438.264671 68.373045 
L 438.895217 69.019194 
L 439.735945 69.506145 
L 440.051218 69.560508 
L 440.366491 69.414523 
L 440.891947 68.7688 
L 441.627584 67.39896 
L 442.993767 64.008718 
L 443.624313 61.626316 
L 445.095587 54.687827 
L 447.722862 41.976363 
L 448.983954 36.218627 
L 450.139955 31.875471 
L 451.085774 28.891727 
L 451.611229 27.993545 
L 452.241775 27.35028 
L 453.082503 26.866011 
L 453.397776 26.806557 
L 453.713049 26.944516 
L 454.133413 27.431107 
L 454.763959 28.501318 
L 455.709778 30.660221 
L 456.445415 32.671898 
L 457.075961 35.174465 
L 458.862509 43.670487 
L 461.174511 55.023221 
L 462.225421 59.83875 
L 463.381422 64.258085 
L 464.327241 67.338112 
L 464.852696 68.291697 
L 465.483242 68.972532 
L 466.218879 69.431204 
L 466.639243 69.567458 
L 466.954516 69.460432 
L 467.37488 69.002526 
L 468.005426 67.959527 
L 468.951245 65.82395 
L 469.791973 63.501748 
L 470.52761 60.480643 
L 472.839612 49.370809 
L 475.677069 36.010957 
L 476.833071 31.704547 
L 477.77889 28.789377 
L 478.304345 27.930086 
L 478.934891 27.313867 
L 479.775619 26.844912 
L 480.090892 26.81221 
L 480.406165 26.984883 
L 480.93162 27.658332 
L 481.667257 29.056784 
L 483.03344 32.492919 
L 483.663986 34.940959 
L 484.925078 40.933621 
L 487.972717 55.81417 
L 489.233809 61.345234 
L 490.599992 66.329289 
L 491.125447 67.675068 
L 491.650902 68.499718 
L 492.281448 69.092209 
L 493.122176 69.547486 
L 493.437449 69.540389 
L 493.752722 69.32064 
L 494.278178 68.607562 
L 494.908724 67.411066 
L 496.274907 64.02701 
L 496.905453 61.652208 
L 498.376727 54.715625 
L 501.004002 42.00709 
L 502.265094 36.244664 
L 503.421095 31.895921 
L 504.366914 28.904435 
L 504.892369 28.001402 
L 505.522915 27.354766 
L 506.363643 26.868615 
L 506.678916 26.806199 
L 506.994189 26.9395 
L 507.414553 27.422941 
L 508.045099 28.489255 
L 508.990918 30.645456 
L 509.726555 32.651746 
L 510.357101 35.147973 
L 512.038558 43.141992 
L 516.347289 63.125473 
L 517.608381 67.322666 
L 518.133836 68.282275 
L 518.764382 68.967114 
L 519.500019 69.428057 
L 520.025474 69.553983 
L 520.340747 69.37857 
L 520.866202 68.702543 
L 521.601839 67.3028 
L 522.968022 63.874086 
L 523.598568 61.435377 
L 524.85966 55.471667 
L 529.693847 33.193756 
L 531.06003 28.802001 
L 531.585485 27.937862 
L 532.216031 27.318349 
L 533.056759 26.847468 
L 533.372032 26.810419 
L 533.687305 26.978298 
L 534.21276 27.647148 
L 534.948397 29.041585 
L 536.31458 32.472962 
L 536.945126 34.915028 
L 538.206218 40.904262 
L 543.040404 63.318517 
L 544.301496 67.445197 
L 544.826951 68.357355 
L 545.457497 69.010263 
L 546.298225 69.501005 
L 546.613498 69.560827 
L 546.928771 69.422045 
L 547.349136 68.935085 
L 547.979682 67.864521 
L 548.925501 65.708185 
L 549.661138 63.70384 
L 550.291684 61.214379 
L 551.97314 53.259112 
L 554.285142 42.031578 
L 554.285142 42.031578 
" clip-path="url(#paf3a2b5edc)" style="fill: none; stroke: #1f77b4; stroke-width: 1.5; stroke-linecap: square"/>
   </g>
   <g id="line2d_22">
    <path d="M 344.208221 48.165781 
L 345.259131 42.711884 
L 347.045678 34.808355 
L 347.886406 31.977717 
L 349.147498 28.539078 
L 349.778044 27.173375 
L 350.198408 26.783284 
L 350.618772 26.738488 
L 351.039136 26.897993 
L 351.669682 27.367796 
L 352.300229 28.011733 
L 352.720593 28.769065 
L 353.351139 30.526904 
L 354.927504 35.995125 
L 356.083505 41.095615 
L 357.554779 48.516763 
L 358.500598 53.423573 
L 360.392236 61.772789 
L 361.232964 64.538237 
L 362.494056 67.93526 
L 363.124602 69.245517 
L 363.544966 69.593105 
L 363.96533 69.614055 
L 364.490785 69.376819 
L 365.226422 68.766303 
L 365.751877 68.152981 
L 366.172241 67.279676 
L 366.802787 65.438513 
L 368.379152 59.920106 
L 370.060609 52.373946 
L 370.901337 47.897912 
L 371.847156 42.978824 
L 373.843885 34.223741 
L 374.894795 30.917687 
L 376.155887 27.669503 
L 376.576251 26.982327 
L 376.891524 26.763778 
L 377.311888 26.744912 
L 377.837343 26.987284 
L 378.57298 27.6052 
L 379.098435 28.241153 
L 379.62389 29.423245 
L 380.359527 31.728887 
L 381.620619 36.18029 
L 383.302075 43.738417 
L 384.142803 48.180869 
L 385.193713 53.643607 
L 386.98026 61.543528 
L 387.820989 64.36688 
L 389.082081 67.791944 
L 389.712627 69.163258 
L 390.132991 69.568094 
L 390.553355 69.622346 
L 391.07881 69.408127 
L 391.709356 68.918158 
L 392.339902 68.23502 
L 392.760266 67.418464 
L 393.495903 65.275151 
L 395.072268 59.706572 
L 396.543542 53.107635 
L 396.648633 52.630194 
L 396.753724 60.3426 
L 396.858815 60.24261 
L 397.174088 59.705108 
L 397.594452 58.50846 
L 398.330089 55.644496 
L 399.591181 49.7128 
L 401.167546 41.534465 
L 403.059184 33.491733 
L 404.215185 30.043052 
L 405.371186 27.257187 
L 405.791551 26.806385 
L 406.211915 26.727895 
L 406.73737 26.926248 
L 407.367916 27.411227 
L 407.998462 28.086732 
L 408.418826 28.893672 
L 409.154463 31.038375 
L 410.730828 36.640258 
L 412.202102 43.275755 
L 413.04283 47.596864 
L 414.198831 53.659544 
L 415.985378 61.556938 
L 416.826106 64.377107 
L 418.087198 67.800122 
L 418.717744 69.168217 
L 419.138108 69.569318 
L 419.558472 69.621607 
L 420.083927 69.406107 
L 420.714473 68.91516 
L 421.345019 68.230452 
L 421.765383 67.410763 
L 422.50102 65.264345 
L 424.077386 59.689186 
L 425.54866 53.089784 
L 426.389388 48.790726 
L 427.545389 42.732158 
L 429.331936 34.824888 
L 430.172664 31.990323 
L 431.433756 28.54924 
L 432.064302 27.179601 
L 432.484666 26.785381 
L 432.90503 26.737952 
L 433.325394 26.896004 
L 433.95594 27.364318 
L 434.586486 28.006641 
L 435.00685 28.760072 
L 435.637396 30.514309 
L 437.213761 35.980394 
L 438.369762 41.076334 
L 439.841036 48.494779 
L 440.786855 53.407625 
L 442.678494 61.758636 
L 443.519222 64.527441 
L 444.780314 67.926216 
L 445.41086 69.240709 
L 445.831224 69.592016 
L 446.251588 69.614888 
L 446.777043 69.379442 
L 447.51268 68.770306 
L 448.143226 67.980417 
L 448.668681 66.741073 
L 449.6145 63.683513 
L 450.875592 59.051349 
L 452.557048 51.385561 
L 456.025051 34.634593 
L 456.865779 31.848207 
L 458.126871 28.430003 
L 458.757418 27.112508 
L 459.177782 26.764852 
L 459.598146 26.74415 
L 460.123601 26.984775 
L 460.859238 27.601474 
L 461.384693 28.234665 
L 461.805057 29.142471 
L 462.435603 31.014581 
L 464.011968 36.606911 
L 465.483242 43.240559 
L 466.32397 47.557729 
L 467.479971 53.626394 
L 469.266518 61.529564 
L 470.107246 64.356241 
L 471.368338 67.783461 
L 471.998884 69.158149 
L 472.419248 69.566898 
L 472.839612 69.623179 
L 473.365067 69.410351 
L 473.995613 68.921237 
L 474.626159 68.23983 
L 475.046523 67.426622 
L 475.78216 65.286623 
L 477.358526 59.724281 
L 478.8298 53.125398 
L 479.670528 48.833908 
L 480.826529 42.768555 
L 482.613076 34.85346 
L 483.453804 32.012061 
L 484.714896 28.566724 
L 485.345442 27.190321 
L 485.765806 26.78874 
L 486.18617 26.736985 
L 486.606534 26.892549 
L 487.23708 27.358321 
L 487.867626 27.998033 
L 488.28799 28.744608 
L 488.918536 30.492736 
L 490.494901 35.955793 
L 491.650902 41.044101 
L 493.227267 49.069196 
L 494.173087 53.868814 
L 495.959634 61.735335 
L 496.800362 64.509889 
L 498.061454 67.911384 
L 498.692 69.23274 
L 499.112364 69.589984 
L 499.532728 69.61602 
L 500.058183 69.383393 
L 500.79382 68.776623 
L 501.424366 67.991967 
L 501.949821 66.758963 
L 502.89564 63.70664 
L 504.156732 59.075781 
L 505.838188 51.415635 
L 509.306191 34.658421 
L 510.146919 31.866092 
L 511.408011 28.445228 
L 512.038558 27.12053 
L 512.458922 26.766664 
L 512.879286 26.742828 
L 513.404741 26.980423 
L 514.140378 27.595058 
L 514.665833 28.223037 
L 515.086197 29.124807 
L 515.716743 30.99166 
L 517.293108 36.577554 
L 518.869473 43.690595 
L 519.710201 48.125287 
L 520.761111 53.597432 
L 522.547658 61.506916 
L 523.388386 64.338988 
L 524.649478 67.769752 
L 525.280024 69.149969 
L 525.700388 69.564997 
L 526.120752 69.624521 
L 526.646207 69.414059 
L 527.276753 68.926016 
L 527.907299 68.247647 
L 528.327663 67.439891 
L 529.0633 65.305177 
L 530.639666 59.750946 
L 532.216031 52.6747 
L 533.056759 48.268175 
L 534.107669 42.798403 
L 535.999307 34.465288 
L 536.945126 31.402346 
L 538.311309 27.815242 
L 538.731673 27.058704 
L 539.152037 26.754477 
L 539.572401 26.756086 
L 540.097856 27.016026 
L 540.833493 27.648281 
L 541.358948 28.310241 
L 541.884403 29.530167 
L 542.725131 32.21979 
L 544.196405 37.700087 
L 545.77277 44.947984 
L 549.135683 61.29403 
L 549.87132 63.854274 
L 551.027321 67.096586 
L 551.868049 69.067707 
L 552.288413 69.538602 
L 552.708777 69.632685 
L 553.234232 69.448391 
L 553.864778 68.973367 
L 554.285142 68.569482 
L 554.285142 68.569482 
" clip-path="url(#paf3a2b5edc)" style="fill: none; stroke: #ff7f0e; stroke-width: 1.5; stroke-linecap: square"/>
   </g>
   <g id="patch_8">
    <path d="M 333.704375 80.9725 
L 333.704375 15.359062 
" style="fill: none; stroke: #000000; stroke-width: 0.8; stroke-linejoin: miter; stroke-linecap: square"/>
   </g>
   <g id="patch_9">
    <path d="M 564.788988 80.9725 
L 564.788988 15.359062 
" style="fill: none; stroke: #000000; stroke-width: 0.8; stroke-linejoin: miter; stroke-linecap: square"/>
   </g>
   <g id="patch_10">
    <path d="M 333.704375 80.9725 
L 564.788988 80.9725 
" style="fill: none; stroke: #000000; stroke-width: 0.8; stroke-linejoin: miter; stroke-linecap: square"/>
   </g>
   <g id="patch_11">
    <path d="M 333.704375 15.359062 
L 564.788988 15.359062 
" style="fill: none; stroke: #000000; stroke-width: 0.8; stroke-linejoin: miter; stroke-linecap: square"/>
   </g>
  </g>
 </g>
 <defs>
  <clipPath id="p9ad1532326">
   <rect x="51.104375" y="15.359062" width="231.084613" height="65.613438"/>
  </clipPath>
  <clipPath id="paf3a2b5edc">
   <rect x="333.704375" y="15.359062" width="231.084613" height="65.613438"/>
  </clipPath>
 </defs>
</svg>
