<?xml version="1.0" encoding="utf-8" standalone="no"?>
<!DOCTYPE svg PUBLIC "-//W3C//DTD SVG 1.1//EN"
  "http://www.w3.org/Graphics/SVG/1.1/DTD/svg11.dtd">
<!-- Created with matplotlib (https://matplotlib.org/) -->
<svg height="126pt" version="1.1" viewBox="0 0 576 126" width="576pt" xmlns="http://www.w3.org/2000/svg" xmlns:xlink="http://www.w3.org/1999/xlink">
 <metadata>
  <rdf:RDF xmlns:cc="http://creativecommons.org/ns#" xmlns:dc="http://purl.org/dc/elements/1.1/" xmlns:rdf="http://www.w3.org/1999/02/22-rdf-syntax-ns#">
   <cc:Work>
    <dc:type rdf:resource="http://purl.org/dc/dcmitype/StillImage"/>
    <dc:date>2025-05-09T18:25:19.133893</dc:date>
    <dc:format>image/svg+xml</dc:format>
    <dc:creator>
     <cc:Agent>
      <dc:title>Matplotlib v3.3.4, https://matplotlib.org/</dc:title>
     </cc:Agent>
    </dc:creator>
   </cc:Work>
  </rdf:RDF>
 </metadata>
 <defs>
  <style type="text/css">*{stroke-linecap:butt;stroke-linejoin:round;}</style>
 </defs>
 <g id="figure_1">
  <g id="patch_1">
   <path d="M 0 126 
L 576 126 
L 576 0 
L 0 0 
z
" style="fill:none;"/>
  </g>
  <g id="axes_1">
   <g id="patch_2">
    <path d="M 51.104375 80.9725 
L 282.188988 80.9725 
L 282.188988 15.359062 
L 51.104375 15.359062 
z
" style="fill:#ffffff;"/>
   </g>
   <g id="matplotlib.axis_1">
    <g id="xtick_1">
     <g id="line2d_1">
      <defs>
       <path d="M 0 0 
L 0 3.5 
" id="mb53ea2a4f3" style="stroke:#000000;stroke-width:0.8;"/>
      </defs>
      <g>
       <use style="stroke:#000000;stroke-width:0.8;" x="61.608221" xlink:href="#mb53ea2a4f3" y="80.9725"/>
      </g>
     </g>
     <g id="text_1">
      <!-- 0.0 -->
      <g transform="translate(52.066346 97.090625)scale(0.12 -0.12)">
       <defs>
        <path d="M 31.78125 66.40625 
Q 24.171875 66.40625 20.328125 58.90625 
Q 16.5 51.421875 16.5 36.375 
Q 16.5 21.390625 20.328125 13.890625 
Q 24.171875 6.390625 31.78125 6.390625 
Q 39.453125 6.390625 43.28125 13.890625 
Q 47.125 21.390625 47.125 36.375 
Q 47.125 51.421875 43.28125 58.90625 
Q 39.453125 66.40625 31.78125 66.40625 
z
M 31.78125 74.21875 
Q 44.046875 74.21875 50.515625 64.515625 
Q 56.984375 54.828125 56.984375 36.375 
Q 56.984375 17.96875 50.515625 8.265625 
Q 44.046875 -1.421875 31.78125 -1.421875 
Q 19.53125 -1.421875 13.0625 8.265625 
Q 6.59375 17.96875 6.59375 36.375 
Q 6.59375 54.828125 13.0625 64.515625 
Q 19.53125 74.21875 31.78125 74.21875 
z
" id="DejaVuSans-48"/>
        <path d="M 10.6875 12.40625 
L 21 12.40625 
L 21 0 
L 10.6875 0 
z
" id="DejaVuSans-46"/>
       </defs>
       <use xlink:href="#DejaVuSans-48"/>
       <use x="63.623047" xlink:href="#DejaVuSans-46"/>
       <use x="95.410156" xlink:href="#DejaVuSans-48"/>
      </g>
     </g>
    </g>
    <g id="xtick_2">
     <g id="line2d_2">
      <g>
       <use style="stroke:#000000;stroke-width:0.8;" x="114.153724" xlink:href="#mb53ea2a4f3" y="80.9725"/>
      </g>
     </g>
     <g id="text_2">
      <!-- 0.5 -->
      <g transform="translate(104.611849 97.090625)scale(0.12 -0.12)">
       <defs>
        <path d="M 10.796875 72.90625 
L 49.515625 72.90625 
L 49.515625 64.59375 
L 19.828125 64.59375 
L 19.828125 46.734375 
Q 21.96875 47.46875 24.109375 47.828125 
Q 26.265625 48.1875 28.421875 48.1875 
Q 40.625 48.1875 47.75 41.5 
Q 54.890625 34.8125 54.890625 23.390625 
Q 54.890625 11.625 47.5625 5.09375 
Q 40.234375 -1.421875 26.90625 -1.421875 
Q 22.3125 -1.421875 17.546875 -0.640625 
Q 12.796875 0.140625 7.71875 1.703125 
L 7.71875 11.625 
Q 12.109375 9.234375 16.796875 8.0625 
Q 21.484375 6.890625 26.703125 6.890625 
Q 35.15625 6.890625 40.078125 11.328125 
Q 45.015625 15.765625 45.015625 23.390625 
Q 45.015625 31 40.078125 35.4375 
Q 35.15625 39.890625 26.703125 39.890625 
Q 22.75 39.890625 18.8125 39.015625 
Q 14.890625 38.140625 10.796875 36.28125 
z
" id="DejaVuSans-53"/>
       </defs>
       <use xlink:href="#DejaVuSans-48"/>
       <use x="63.623047" xlink:href="#DejaVuSans-46"/>
       <use x="95.410156" xlink:href="#DejaVuSans-53"/>
      </g>
     </g>
    </g>
    <g id="xtick_3">
     <g id="line2d_3">
      <g>
       <use style="stroke:#000000;stroke-width:0.8;" x="166.699227" xlink:href="#mb53ea2a4f3" y="80.9725"/>
      </g>
     </g>
     <g id="text_3">
      <!-- 1.0 -->
      <g transform="translate(157.157352 97.090625)scale(0.12 -0.12)">
       <defs>
        <path d="M 12.40625 8.296875 
L 28.515625 8.296875 
L 28.515625 63.921875 
L 10.984375 60.40625 
L 10.984375 69.390625 
L 28.421875 72.90625 
L 38.28125 72.90625 
L 38.28125 8.296875 
L 54.390625 8.296875 
L 54.390625 0 
L 12.40625 0 
z
" id="DejaVuSans-49"/>
       </defs>
       <use xlink:href="#DejaVuSans-49"/>
       <use x="63.623047" xlink:href="#DejaVuSans-46"/>
       <use x="95.410156" xlink:href="#DejaVuSans-48"/>
      </g>
     </g>
    </g>
    <g id="xtick_4">
     <g id="line2d_4">
      <g>
       <use style="stroke:#000000;stroke-width:0.8;" x="219.24473" xlink:href="#mb53ea2a4f3" y="80.9725"/>
      </g>
     </g>
     <g id="text_4">
      <!-- 1.5 -->
      <g transform="translate(209.702855 97.090625)scale(0.12 -0.12)">
       <use xlink:href="#DejaVuSans-49"/>
       <use x="63.623047" xlink:href="#DejaVuSans-46"/>
       <use x="95.410156" xlink:href="#DejaVuSans-53"/>
      </g>
     </g>
    </g>
    <g id="xtick_5">
     <g id="line2d_5">
      <g>
       <use style="stroke:#000000;stroke-width:0.8;" x="271.790233" xlink:href="#mb53ea2a4f3" y="80.9725"/>
      </g>
     </g>
     <g id="text_5">
      <!-- 2.0 -->
      <g transform="translate(262.248358 97.090625)scale(0.12 -0.12)">
       <defs>
        <path d="M 19.1875 8.296875 
L 53.609375 8.296875 
L 53.609375 0 
L 7.328125 0 
L 7.328125 8.296875 
Q 12.9375 14.109375 22.625 23.890625 
Q 32.328125 33.6875 34.8125 36.53125 
Q 39.546875 41.84375 41.421875 45.53125 
Q 43.3125 49.21875 43.3125 52.78125 
Q 43.3125 58.59375 39.234375 62.25 
Q 35.15625 65.921875 28.609375 65.921875 
Q 23.96875 65.921875 18.8125 64.3125 
Q 13.671875 62.703125 7.8125 59.421875 
L 7.8125 69.390625 
Q 13.765625 71.78125 18.9375 73 
Q 24.125 74.21875 28.421875 74.21875 
Q 39.75 74.21875 46.484375 68.546875 
Q 53.21875 62.890625 53.21875 53.421875 
Q 53.21875 48.921875 51.53125 44.890625 
Q 49.859375 40.875 45.40625 35.40625 
Q 44.1875 33.984375 37.640625 27.21875 
Q 31.109375 20.453125 19.1875 8.296875 
z
" id="DejaVuSans-50"/>
       </defs>
       <use xlink:href="#DejaVuSans-50"/>
       <use x="63.623047" xlink:href="#DejaVuSans-46"/>
       <use x="95.410156" xlink:href="#DejaVuSans-48"/>
      </g>
     </g>
    </g>
    <g id="text_6">
     <!-- Time (s) -->
     <g transform="translate(142.251994 112.704375)scale(0.12 -0.12)">
      <defs>
       <path d="M -0.296875 72.90625 
L 61.375 72.90625 
L 61.375 64.59375 
L 35.5 64.59375 
L 35.5 0 
L 25.59375 0 
L 25.59375 64.59375 
L -0.296875 64.59375 
z
" id="DejaVuSans-84"/>
       <path d="M 9.421875 54.6875 
L 18.40625 54.6875 
L 18.40625 0 
L 9.421875 0 
z
M 9.421875 75.984375 
L 18.40625 75.984375 
L 18.40625 64.59375 
L 9.421875 64.59375 
z
" id="DejaVuSans-105"/>
       <path d="M 52 44.1875 
Q 55.375 50.25 60.0625 53.125 
Q 64.75 56 71.09375 56 
Q 79.640625 56 84.28125 50.015625 
Q 88.921875 44.046875 88.921875 33.015625 
L 88.921875 0 
L 79.890625 0 
L 79.890625 32.71875 
Q 79.890625 40.578125 77.09375 44.375 
Q 74.3125 48.1875 68.609375 48.1875 
Q 61.625 48.1875 57.5625 43.546875 
Q 53.515625 38.921875 53.515625 30.90625 
L 53.515625 0 
L 44.484375 0 
L 44.484375 32.71875 
Q 44.484375 40.625 41.703125 44.40625 
Q 38.921875 48.1875 33.109375 48.1875 
Q 26.21875 48.1875 22.15625 43.53125 
Q 18.109375 38.875 18.109375 30.90625 
L 18.109375 0 
L 9.078125 0 
L 9.078125 54.6875 
L 18.109375 54.6875 
L 18.109375 46.1875 
Q 21.1875 51.21875 25.484375 53.609375 
Q 29.78125 56 35.6875 56 
Q 41.65625 56 45.828125 52.96875 
Q 50 49.953125 52 44.1875 
z
" id="DejaVuSans-109"/>
       <path d="M 56.203125 29.59375 
L 56.203125 25.203125 
L 14.890625 25.203125 
Q 15.484375 15.921875 20.484375 11.0625 
Q 25.484375 6.203125 34.421875 6.203125 
Q 39.59375 6.203125 44.453125 7.46875 
Q 49.3125 8.734375 54.109375 11.28125 
L 54.109375 2.78125 
Q 49.265625 0.734375 44.1875 -0.34375 
Q 39.109375 -1.421875 33.890625 -1.421875 
Q 20.796875 -1.421875 13.15625 6.1875 
Q 5.515625 13.8125 5.515625 26.8125 
Q 5.515625 40.234375 12.765625 48.109375 
Q 20.015625 56 32.328125 56 
Q 43.359375 56 49.78125 48.890625 
Q 56.203125 41.796875 56.203125 29.59375 
z
M 47.21875 32.234375 
Q 47.125 39.59375 43.09375 43.984375 
Q 39.0625 48.390625 32.421875 48.390625 
Q 24.90625 48.390625 20.390625 44.140625 
Q 15.875 39.890625 15.1875 32.171875 
z
" id="DejaVuSans-101"/>
       <path id="DejaVuSans-32"/>
       <path d="M 31 75.875 
Q 24.46875 64.65625 21.28125 53.65625 
Q 18.109375 42.671875 18.109375 31.390625 
Q 18.109375 20.125 21.3125 9.0625 
Q 24.515625 -2 31 -13.1875 
L 23.1875 -13.1875 
Q 15.875 -1.703125 12.234375 9.375 
Q 8.59375 20.453125 8.59375 31.390625 
Q 8.59375 42.28125 12.203125 53.3125 
Q 15.828125 64.359375 23.1875 75.875 
z
" id="DejaVuSans-40"/>
       <path d="M 44.28125 53.078125 
L 44.28125 44.578125 
Q 40.484375 46.53125 36.375 47.5 
Q 32.28125 48.484375 27.875 48.484375 
Q 21.1875 48.484375 17.84375 46.4375 
Q 14.5 44.390625 14.5 40.28125 
Q 14.5 37.15625 16.890625 35.375 
Q 19.28125 33.59375 26.515625 31.984375 
L 29.59375 31.296875 
Q 39.15625 29.25 43.1875 25.515625 
Q 47.21875 21.78125 47.21875 15.09375 
Q 47.21875 7.46875 41.1875 3.015625 
Q 35.15625 -1.421875 24.609375 -1.421875 
Q 20.21875 -1.421875 15.453125 -0.5625 
Q 10.6875 0.296875 5.421875 2 
L 5.421875 11.28125 
Q 10.40625 8.6875 15.234375 7.390625 
Q 20.0625 6.109375 24.8125 6.109375 
Q 31.15625 6.109375 34.5625 8.28125 
Q 37.984375 10.453125 37.984375 14.40625 
Q 37.984375 18.0625 35.515625 20.015625 
Q 33.0625 21.96875 24.703125 23.78125 
L 21.578125 24.515625 
Q 13.234375 26.265625 9.515625 29.90625 
Q 5.8125 33.546875 5.8125 39.890625 
Q 5.8125 47.609375 11.28125 51.796875 
Q 16.75 56 26.8125 56 
Q 31.78125 56 36.171875 55.265625 
Q 40.578125 54.546875 44.28125 53.078125 
z
" id="DejaVuSans-115"/>
       <path d="M 8.015625 75.875 
L 15.828125 75.875 
Q 23.140625 64.359375 26.78125 53.3125 
Q 30.421875 42.28125 30.421875 31.390625 
Q 30.421875 20.453125 26.78125 9.375 
Q 23.140625 -1.703125 15.828125 -13.1875 
L 8.015625 -13.1875 
Q 14.5 -2 17.703125 9.0625 
Q 20.90625 20.125 20.90625 31.390625 
Q 20.90625 42.671875 17.703125 53.65625 
Q 14.5 64.65625 8.015625 75.875 
z
" id="DejaVuSans-41"/>
      </defs>
      <use xlink:href="#DejaVuSans-84"/>
      <use x="57.958984" xlink:href="#DejaVuSans-105"/>
      <use x="85.742188" xlink:href="#DejaVuSans-109"/>
      <use x="183.154297" xlink:href="#DejaVuSans-101"/>
      <use x="244.677734" xlink:href="#DejaVuSans-32"/>
      <use x="276.464844" xlink:href="#DejaVuSans-40"/>
      <use x="315.478516" xlink:href="#DejaVuSans-115"/>
      <use x="367.578125" xlink:href="#DejaVuSans-41"/>
     </g>
    </g>
   </g>
   <g id="matplotlib.axis_2">
    <g id="ytick_1">
     <g id="line2d_6">
      <defs>
       <path d="M 0 0 
L -3.5 0 
" id="m5c920e7bd4" style="stroke:#000000;stroke-width:0.8;"/>
      </defs>
      <g>
       <use style="stroke:#000000;stroke-width:0.8;" x="51.104375" xlink:href="#m5c920e7bd4" y="80.9725"/>
      </g>
     </g>
     <g id="text_7">
      <!-- −2 -->
      <g transform="translate(26.41375 85.531562)scale(0.12 -0.12)">
       <defs>
        <path d="M 10.59375 35.5 
L 73.1875 35.5 
L 73.1875 27.203125 
L 10.59375 27.203125 
z
" id="DejaVuSans-8722"/>
       </defs>
       <use xlink:href="#DejaVuSans-8722"/>
       <use x="83.789062" xlink:href="#DejaVuSans-50"/>
      </g>
     </g>
    </g>
    <g id="ytick_2">
     <g id="line2d_7">
      <g>
       <use style="stroke:#000000;stroke-width:0.8;" x="51.104375" xlink:href="#m5c920e7bd4" y="48.165781"/>
      </g>
     </g>
     <g id="text_8">
      <!-- 0 -->
      <g transform="translate(36.469375 52.724844)scale(0.12 -0.12)">
       <use xlink:href="#DejaVuSans-48"/>
      </g>
     </g>
    </g>
    <g id="ytick_3">
     <g id="line2d_8">
      <g>
       <use style="stroke:#000000;stroke-width:0.8;" x="51.104375" xlink:href="#m5c920e7bd4" y="15.359062"/>
      </g>
     </g>
     <g id="text_9">
      <!-- 2 -->
      <g transform="translate(36.469375 19.918125)scale(0.12 -0.12)">
       <use xlink:href="#DejaVuSans-50"/>
      </g>
     </g>
    </g>
    <g id="text_10">
     <!-- x -->
     <g transform="translate(19.918125 51.717031)rotate(-90)scale(0.12 -0.12)">
      <defs>
       <path d="M 54.890625 54.6875 
L 35.109375 28.078125 
L 55.90625 0 
L 45.3125 0 
L 29.390625 21.484375 
L 13.484375 0 
L 2.875 0 
L 24.125 28.609375 
L 4.6875 54.6875 
L 15.28125 54.6875 
L 29.78125 35.203125 
L 44.28125 54.6875 
z
" id="DejaVuSans-120"/>
      </defs>
      <use xlink:href="#DejaVuSans-120"/>
     </g>
    </g>
   </g>
   <g id="line2d_9">
    <path clip-path="url(#p2ef1eb5616)" d="M 61.608221 26.841414 
L 62.238767 26.55469 
L 62.974404 26.532372 
L 63.815132 26.726865 
L 65.601679 27.414351 
L 67.703499 28.382881 
L 70.961321 29.912264 
L 73.063141 31.030297 
L 74.849688 32.646022 
L 79.578783 37.283621 
L 81.785694 39.959133 
L 83.572241 41.89306 
L 86.199516 44.978389 
L 88.301337 47.465547 
L 95.762798 56.502551 
L 104.905715 65.940017 
L 105.851535 66.520214 
L 107.112627 67.024201 
L 113.418087 69.138396 
L 115.940271 69.902713 
L 116.675908 69.855547 
L 117.621727 69.592935 
L 119.828638 68.682094 
L 126.134099 65.638035 
L 126.974827 64.991788 
L 128.551192 63.5022 
L 132.54465 59.543703 
L 143.684297 45.681231 
L 144.945389 44.105601 
L 146.521754 42.076872 
L 147.887937 40.44 
L 149.674484 38.508945 
L 151.145758 36.939432 
L 153.247578 34.714308 
L 154.613761 33.086512 
L 157.451218 30.340704 
L 158.397038 29.753579 
L 159.65813 29.245009 
L 168.695956 26.368936 
L 169.641775 26.529931 
L 171.21814 27.119842 
L 174.686143 28.665427 
L 177.41851 29.978117 
L 179.310148 30.975179 
L 180.676331 32.164728 
L 182.357787 33.671029 
L 183.303606 34.558693 
L 186.561427 38.164039 
L 187.92761 39.76807 
L 191.395613 43.710754 
L 192.971978 45.494858 
L 195.283981 48.301412 
L 201.379259 55.819945 
L 203.165806 57.661448 
L 204.847262 59.409875 
L 206.949082 61.57515 
L 208.315265 63.176079 
L 211.047631 65.793615 
L 211.88836 66.37419 
L 213.149452 66.931819 
L 222.187278 69.894944 
L 222.922915 69.867276 
L 223.868734 69.618699 
L 226.075645 68.715315 
L 232.276015 65.731838 
L 233.011652 65.240487 
L 236.269473 62.262814 
L 238.581475 59.861017 
L 239.632385 58.522081 
L 240.998568 56.800759 
L 244.571662 52.582126 
L 246.358209 50.471234 
L 248.880394 47.244246 
L 253.504398 41.200632 
L 254.555308 40.094502 
L 256.131673 38.346135 
L 257.708038 36.694667 
L 263.803316 30.31443 
L 264.749136 29.736643 
L 266.010228 29.234046 
L 271.685142 27.325304 
L 271.685142 27.325304 
" style="fill:none;stroke:#1f77b4;stroke-linecap:square;stroke-width:1.5;"/>
   </g>
   <g id="line2d_10">
    <path clip-path="url(#p2ef1eb5616)" d="M 61.608221 48.165781 
L 62.974404 46.488875 
L 66.127134 42.835454 
L 72.747868 34.935838 
L 73.903869 33.943681 
L 75.690416 32.750265 
L 77.582054 31.590174 
L 80.104238 29.816707 
L 81.575512 28.701659 
L 83.887514 27.208234 
L 84.728242 26.989744 
L 85.989334 26.931836 
L 88.511519 27.078296 
L 94.92207 27.709551 
L 95.762798 28.090655 
L 97.02389 29.039228 
L 99.12571 30.719764 
L 100.702075 32.056781 
L 102.173349 33.421486 
L 106.37699 36.955428 
L 109.424629 40.382353 
L 111.736631 43.322639 
L 114.574088 47.080647 
L 115.940271 48.825747 
L 118.777728 52.204318 
L 122.876278 57.073959 
L 124.452643 59.096176 
L 126.449372 61.4657 
L 127.605373 62.468152 
L 129.286829 63.618277 
L 131.178467 64.838699 
L 133.280287 66.35335 
L 134.856652 67.605848 
L 137.063563 69.097284 
L 137.7992 69.318833 
L 138.955201 69.403365 
L 141.162113 69.293142 
L 147.467573 68.699057 
L 148.308301 68.379161 
L 149.25412 67.726322 
L 153.352669 64.255969 
L 154.929034 62.790514 
L 158.817402 59.46765 
L 161.75995 56.134987 
L 164.597407 52.474976 
L 166.699227 49.642158 
L 168.170501 47.824604 
L 171.007958 44.461843 
L 179.940694 34.156107 
L 181.832332 32.847313 
L 183.829061 31.638216 
L 186.456336 29.789343 
L 187.92761 28.6791 
L 190.239612 27.194988 
L 191.08034 26.985425 
L 192.341432 26.932275 
L 194.968708 27.089713 
L 201.274168 27.719669 
L 202.114896 28.111354 
L 203.375988 29.067575 
L 205.477808 30.745373 
L 206.949082 31.981868 
L 208.420356 33.363342 
L 212.623997 36.878904 
L 215.566545 40.16595 
L 218.404002 43.800447 
L 220.610913 46.766911 
L 221.872005 48.332584 
L 223.553461 50.364693 
L 230.909832 59.271287 
L 232.906561 61.603197 
L 234.167653 62.653389 
L 235.533836 63.576695 
L 237.530565 64.860797 
L 239.632385 66.382304 
L 241.20875 67.630464 
L 243.415661 69.112454 
L 244.151298 69.324638 
L 245.307299 69.403426 
L 247.514211 69.290503 
L 253.819671 68.691445 
L 254.660399 68.360791 
L 255.711309 67.612728 
L 258.443675 65.368502 
L 259.494585 64.441875 
L 261.07095 62.936255 
L 265.274591 59.317609 
L 268.637503 55.462073 
L 271.159687 52.126464 
L 271.685142 51.393515 
L 271.685142 51.393515 
" style="fill:none;stroke:#ff7f0e;stroke-linecap:square;stroke-width:1.5;"/>
   </g>
   <g id="line2d_11">
    <path clip-path="url(#p2ef1eb5616)" d="M 61.608221 26.841414 
L 62.702919 26.887071 
L 63.797617 27.023847 
L 64.892315 27.251156 
L 65.987013 27.568024 
L 67.081711 27.973095 
L 68.176409 28.464635 
L 69.271107 29.040538 
L 70.365805 29.698338 
L 71.460503 30.435218 
L 72.555201 31.248023 
L 73.649899 32.133273 
L 74.744597 33.087177 
L 75.839295 34.105649 
L 76.933993 35.184329 
L 78.028691 36.318598 
L 79.123389 37.503598 
L 80.218087 38.734255 
L 81.312785 40.005299 
L 82.407483 41.311288 
L 83.502181 42.646629 
L 84.596879 44.005604 
L 85.691577 45.382393 
L 86.786275 46.771101 
L 87.880973 48.165781 
L 88.975671 49.560462 
L 90.070368 50.94917 
L 91.165066 52.325959 
L 92.259764 53.684934 
L 93.354462 55.020274 
L 94.44916 56.326263 
L 95.543858 57.597308 
L 96.638556 58.827965 
L 97.733254 60.012965 
L 98.827952 61.147233 
L 99.92265 62.225914 
L 101.017348 63.244386 
L 102.112046 64.198289 
L 103.206744 65.083539 
L 104.301442 65.896345 
L 105.39614 66.633225 
L 106.490838 67.291025 
L 107.585536 67.866928 
L 108.680234 68.358467 
L 109.774932 68.763538 
L 110.86963 69.080407 
L 111.964328 69.307716 
L 113.059026 69.444491 
L 114.153724 69.490148 
L 115.248422 69.444491 
L 116.34312 69.307716 
L 117.437818 69.080407 
L 118.532516 68.763538 
L 119.627214 68.358467 
L 120.721912 67.866928 
L 121.81661 67.291025 
L 122.911308 66.633225 
L 124.006006 65.896345 
L 125.100704 65.083539 
L 126.195402 64.198289 
L 127.2901 63.244386 
L 128.384798 62.225914 
L 129.479496 61.147233 
L 130.574194 60.012965 
L 131.668892 58.827965 
L 132.76359 57.597308 
L 133.858288 56.326263 
L 134.952986 55.020274 
L 136.047684 53.684934 
L 137.142382 52.325959 
L 138.23708 50.94917 
L 139.331778 49.560462 
L 140.426475 48.165781 
L 141.521173 46.771101 
L 142.615871 45.382393 
L 143.710569 44.005604 
L 144.805267 42.646629 
L 145.899965 41.311288 
L 146.994663 40.005299 
L 148.089361 38.734255 
L 149.184059 37.503598 
L 150.278757 36.318598 
L 151.373455 35.184329 
L 152.468153 34.105649 
L 153.562851 33.087177 
L 154.657549 32.133273 
L 155.752247 31.248023 
L 156.846945 30.435218 
L 157.941643 29.698338 
L 159.036341 29.040538 
L 160.131039 28.464635 
L 161.225737 27.973095 
L 162.320435 27.568024 
L 163.415133 27.251156 
L 164.509831 27.023847 
L 165.604529 26.887071 
" style="fill:none;stroke:#000000;stroke-dasharray:5.55,2.4;stroke-dashoffset:0;stroke-width:1.5;"/>
   </g>
   <g id="line2d_12">
    <path clip-path="url(#p2ef1eb5616)" d="M 61.608221 48.165781 
L 62.702919 46.771101 
L 63.797617 45.382393 
L 64.892315 44.005604 
L 65.987013 42.646629 
L 67.081711 41.311288 
L 68.176409 40.005299 
L 69.271107 38.734255 
L 70.365805 37.503598 
L 71.460503 36.318598 
L 72.555201 35.184329 
L 73.649899 34.105649 
L 74.744597 33.087177 
L 75.839295 32.133273 
L 76.933993 31.248023 
L 78.028691 30.435218 
L 79.123389 29.698338 
L 80.218087 29.040538 
L 81.312785 28.464635 
L 82.407483 27.973095 
L 83.502181 27.568024 
L 84.596879 27.251156 
L 85.691577 27.023847 
L 86.786275 26.887071 
L 87.880973 26.841414 
L 88.975671 26.887071 
L 90.070368 27.023847 
L 91.165066 27.251156 
L 92.259764 27.568024 
L 93.354462 27.973095 
L 94.44916 28.464635 
L 95.543858 29.040538 
L 96.638556 29.698338 
L 97.733254 30.435218 
L 98.827952 31.248023 
L 99.92265 32.133273 
L 101.017348 33.087177 
L 102.112046 34.105649 
L 103.206744 35.184329 
L 104.301442 36.318598 
L 105.39614 37.503598 
L 106.490838 38.734255 
L 107.585536 40.005299 
L 108.680234 41.311288 
L 109.774932 42.646629 
L 110.86963 44.005604 
L 111.964328 45.382393 
L 113.059026 46.771101 
L 114.153724 48.165781 
L 115.248422 49.560462 
L 116.34312 50.94917 
L 117.437818 52.325959 
L 118.532516 53.684934 
L 119.627214 55.020274 
L 120.721912 56.326263 
L 121.81661 57.597308 
L 122.911308 58.827965 
L 124.006006 60.012965 
L 125.100704 61.147233 
L 126.195402 62.225914 
L 127.2901 63.244386 
L 128.384798 64.198289 
L 129.479496 65.083539 
L 130.574194 65.896345 
L 131.668892 66.633225 
L 132.76359 67.291025 
L 133.858288 67.866928 
L 134.952986 68.358467 
L 136.047684 68.763538 
L 137.142382 69.080407 
L 138.23708 69.307716 
L 139.331778 69.444491 
L 140.426475 69.490148 
L 141.521173 69.444491 
L 142.615871 69.307716 
L 143.710569 69.080407 
L 144.805267 68.763538 
L 145.899965 68.358467 
L 146.994663 67.866928 
L 148.089361 67.291025 
L 149.184059 66.633225 
L 150.278757 65.896345 
L 151.373455 65.083539 
L 152.468153 64.198289 
L 153.562851 63.244386 
L 154.657549 62.225914 
L 155.752247 61.147233 
L 156.846945 60.012965 
L 157.941643 58.827965 
L 159.036341 57.597308 
L 160.131039 56.326263 
L 161.225737 55.020274 
L 162.320435 53.684934 
L 163.415133 52.325959 
L 164.509831 50.94917 
L 165.604529 49.560462 
" style="fill:none;stroke:#000000;stroke-dasharray:5.55,2.4;stroke-dashoffset:0;stroke-width:1.5;"/>
   </g>
   <g id="patch_3">
    <path d="M 51.104375 80.9725 
L 51.104375 15.359062 
" style="fill:none;stroke:#000000;stroke-linecap:square;stroke-linejoin:miter;stroke-width:0.8;"/>
   </g>
   <g id="patch_4">
    <path d="M 282.188988 80.9725 
L 282.188988 15.359062 
" style="fill:none;stroke:#000000;stroke-linecap:square;stroke-linejoin:miter;stroke-width:0.8;"/>
   </g>
   <g id="patch_5">
    <path d="M 51.104375 80.9725 
L 282.188988 80.9725 
" style="fill:none;stroke:#000000;stroke-linecap:square;stroke-linejoin:miter;stroke-width:0.8;"/>
   </g>
   <g id="patch_6">
    <path d="M 51.104375 15.359062 
L 282.188988 15.359062 
" style="fill:none;stroke:#000000;stroke-linecap:square;stroke-linejoin:miter;stroke-width:0.8;"/>
   </g>
  </g>
  <g id="axes_2">
   <g id="patch_7">
    <path d="M 333.704375 80.9725 
L 564.788988 80.9725 
L 564.788988 15.359062 
L 333.704375 15.359062 
z
" style="fill:#ffffff;"/>
   </g>
   <g id="PathCollection_1">
    <defs>
     <path d="M -0 3 
L 3 -3 
L -3 -3 
z
" id="m1b51a1607b" style="stroke:#000000;"/>
    </defs>
    <g clip-path="url(#p9c6e62249d)">
     <use style="stroke:#000000;" x="396.727451" xlink:href="#m1b51a1607b" y="21.920406"/>
    </g>
   </g>
   <g id="matplotlib.axis_3">
    <g id="xtick_6">
     <g id="line2d_13">
      <g>
       <use style="stroke:#000000;stroke-width:0.8;" x="344.208221" xlink:href="#mb53ea2a4f3" y="80.9725"/>
      </g>
     </g>
     <g id="text_11">
      <!-- 0.0 -->
      <g transform="translate(334.666346 97.090625)scale(0.12 -0.12)">
       <use xlink:href="#DejaVuSans-48"/>
       <use x="63.623047" xlink:href="#DejaVuSans-46"/>
       <use x="95.410156" xlink:href="#DejaVuSans-48"/>
      </g>
     </g>
    </g>
    <g id="xtick_7">
     <g id="line2d_14">
      <g>
       <use style="stroke:#000000;stroke-width:0.8;" x="396.753724" xlink:href="#mb53ea2a4f3" y="80.9725"/>
      </g>
     </g>
     <g id="text_12">
      <!-- 0.5 -->
      <g transform="translate(387.211849 97.090625)scale(0.12 -0.12)">
       <use xlink:href="#DejaVuSans-48"/>
       <use x="63.623047" xlink:href="#DejaVuSans-46"/>
       <use x="95.410156" xlink:href="#DejaVuSans-53"/>
      </g>
     </g>
    </g>
    <g id="xtick_8">
     <g id="line2d_15">
      <g>
       <use style="stroke:#000000;stroke-width:0.8;" x="449.299227" xlink:href="#mb53ea2a4f3" y="80.9725"/>
      </g>
     </g>
     <g id="text_13">
      <!-- 1.0 -->
      <g transform="translate(439.757352 97.090625)scale(0.12 -0.12)">
       <use xlink:href="#DejaVuSans-49"/>
       <use x="63.623047" xlink:href="#DejaVuSans-46"/>
       <use x="95.410156" xlink:href="#DejaVuSans-48"/>
      </g>
     </g>
    </g>
    <g id="xtick_9">
     <g id="line2d_16">
      <g>
       <use style="stroke:#000000;stroke-width:0.8;" x="501.84473" xlink:href="#mb53ea2a4f3" y="80.9725"/>
      </g>
     </g>
     <g id="text_14">
      <!-- 1.5 -->
      <g transform="translate(492.302855 97.090625)scale(0.12 -0.12)">
       <use xlink:href="#DejaVuSans-49"/>
       <use x="63.623047" xlink:href="#DejaVuSans-46"/>
       <use x="95.410156" xlink:href="#DejaVuSans-53"/>
      </g>
     </g>
    </g>
    <g id="xtick_10">
     <g id="line2d_17">
      <g>
       <use style="stroke:#000000;stroke-width:0.8;" x="554.390233" xlink:href="#mb53ea2a4f3" y="80.9725"/>
      </g>
     </g>
     <g id="text_15">
      <!-- 2.0 -->
      <g transform="translate(544.848358 97.090625)scale(0.12 -0.12)">
       <use xlink:href="#DejaVuSans-50"/>
       <use x="63.623047" xlink:href="#DejaVuSans-46"/>
       <use x="95.410156" xlink:href="#DejaVuSans-48"/>
      </g>
     </g>
    </g>
    <g id="text_16">
     <!-- Time (s) -->
     <g transform="translate(424.851994 112.704375)scale(0.12 -0.12)">
      <use xlink:href="#DejaVuSans-84"/>
      <use x="57.958984" xlink:href="#DejaVuSans-105"/>
      <use x="85.742188" xlink:href="#DejaVuSans-109"/>
      <use x="183.154297" xlink:href="#DejaVuSans-101"/>
      <use x="244.677734" xlink:href="#DejaVuSans-32"/>
      <use x="276.464844" xlink:href="#DejaVuSans-40"/>
      <use x="315.478516" xlink:href="#DejaVuSans-115"/>
      <use x="367.578125" xlink:href="#DejaVuSans-41"/>
     </g>
    </g>
   </g>
   <g id="matplotlib.axis_4">
    <g id="ytick_4">
     <g id="line2d_18">
      <g>
       <use style="stroke:#000000;stroke-width:0.8;" x="333.704375" xlink:href="#m5c920e7bd4" y="80.9725"/>
      </g>
     </g>
     <g id="text_17">
      <!-- −2 -->
      <g transform="translate(309.01375 85.531562)scale(0.12 -0.12)">
       <use xlink:href="#DejaVuSans-8722"/>
       <use x="83.789062" xlink:href="#DejaVuSans-50"/>
      </g>
     </g>
    </g>
    <g id="ytick_5">
     <g id="line2d_19">
      <g>
       <use style="stroke:#000000;stroke-width:0.8;" x="333.704375" xlink:href="#m5c920e7bd4" y="48.165781"/>
      </g>
     </g>
     <g id="text_18">
      <!-- 0 -->
      <g transform="translate(319.069375 52.724844)scale(0.12 -0.12)">
       <use xlink:href="#DejaVuSans-48"/>
      </g>
     </g>
    </g>
    <g id="ytick_6">
     <g id="line2d_20">
      <g>
       <use style="stroke:#000000;stroke-width:0.8;" x="333.704375" xlink:href="#m5c920e7bd4" y="15.359062"/>
      </g>
     </g>
     <g id="text_19">
      <!-- 2 -->
      <g transform="translate(319.069375 19.918125)scale(0.12 -0.12)">
       <use xlink:href="#DejaVuSans-50"/>
      </g>
     </g>
    </g>
    <g id="text_20">
     <!-- x -->
     <g transform="translate(302.518125 51.717031)rotate(-90)scale(0.12 -0.12)">
      <use xlink:href="#DejaVuSans-120"/>
     </g>
    </g>
   </g>
   <g id="line2d_21">
    <path clip-path="url(#p9c6e62249d)" d="M 344.208221 26.841414 
L 344.838767 26.55469 
L 345.574404 26.532372 
L 346.415132 26.726865 
L 348.201679 27.414351 
L 350.303499 28.382881 
L 353.561321 29.912264 
L 355.663141 31.030297 
L 357.449688 32.646022 
L 362.178783 37.283621 
L 364.385694 39.959133 
L 366.172241 41.89306 
L 368.799516 44.978389 
L 370.901337 47.465547 
L 378.362798 56.502551 
L 387.505715 65.940017 
L 388.451535 66.520214 
L 389.712627 67.024201 
L 396.018087 69.138396 
L 396.648633 69.351653 
L 396.753724 77.586717 
L 397.279179 73.811093 
L 397.804634 71.481596 
L 398.330089 70.0078 
L 398.960635 68.896429 
L 399.696272 68.101712 
L 400.747182 67.341467 
L 403.374457 65.894538 
L 404.320276 65.333182 
L 405.581369 64.212987 
L 407.367916 62.557792 
L 408.313735 61.607417 
L 410.94101 58.678674 
L 412.517375 56.691178 
L 417.877016 50.354455 
L 421.345019 45.795222 
L 422.50102 44.321824 
L 423.972295 42.46542 
L 425.54866 40.52034 
L 427.440298 38.48005 
L 428.911572 36.915291 
L 431.013392 34.682151 
L 432.379575 33.060721 
L 435.217032 30.321141 
L 436.162851 29.740988 
L 437.423943 29.236871 
L 446.46177 26.370044 
L 447.407589 26.53724 
L 448.983954 27.130218 
L 452.451957 28.676229 
L 455.604687 30.185895 
L 457.181052 31.076655 
L 460.964329 34.4732 
L 464.432332 38.333464 
L 465.798515 39.908734 
L 467.795244 42.093106 
L 471.053065 45.881727 
L 473.68034 49.113336 
L 478.514527 55.194711 
L 479.88071 56.562604 
L 488.813445 65.815036 
L 489.654173 66.387585 
L 490.915265 66.940298 
L 500.058183 69.906602 
L 500.898911 69.826364 
L 501.949821 69.492953 
L 504.99746 68.137919 
L 510.672374 65.302843 
L 512.038558 64.071378 
L 513.720014 62.528153 
L 514.770924 61.458802 
L 517.293108 58.630283 
L 518.764382 56.770548 
L 523.073113 51.682161 
L 525.490206 48.714231 
L 532.11094 40.276324 
L 533.582214 38.687018 
L 535.158579 36.984695 
L 537.260399 34.773129 
L 538.731673 33.025075 
L 541.56913 30.2943 
L 542.514949 29.723487 
L 543.776041 29.225405 
L 552.708777 26.367408 
L 553.654596 26.516583 
L 554.285142 26.722687 
L 554.285142 26.722687 
" style="fill:none;stroke:#1f77b4;stroke-linecap:square;stroke-width:1.5;"/>
   </g>
   <g id="line2d_22">
    <path clip-path="url(#p9c6e62249d)" d="M 344.208221 48.165781 
L 345.574404 46.488875 
L 348.727134 42.835454 
L 355.347868 34.935838 
L 356.503869 33.943681 
L 358.290416 32.750265 
L 360.182054 31.590174 
L 362.704238 29.816707 
L 364.175512 28.701659 
L 366.487514 27.208234 
L 367.328242 26.989744 
L 368.589334 26.931836 
L 371.111519 27.078296 
L 377.52207 27.709551 
L 378.362798 28.090655 
L 379.62389 29.039228 
L 381.72571 30.719764 
L 383.302075 32.056781 
L 384.773349 33.421486 
L 388.97699 36.955428 
L 392.024629 40.382353 
L 394.336631 43.322639 
L 396.648633 46.478998 
L 396.753724 54.809221 
L 396.858815 54.728201 
L 397.279179 54.574641 
L 397.699543 54.643105 
L 398.43518 55.084405 
L 399.906454 56.378989 
L 401.377728 58.073027 
L 403.584639 60.80493 
L 404.74064 61.989664 
L 406.422097 63.255609 
L 411.151192 66.467361 
L 412.622466 67.624084 
L 414.829377 69.108602 
L 415.565014 69.323171 
L 416.721015 69.403415 
L 418.927926 69.291175 
L 425.233387 68.693409 
L 426.074115 68.36554 
L 427.125025 67.619794 
L 429.962482 65.294999 
L 431.013392 64.341252 
L 432.484666 62.943273 
L 436.688306 59.327048 
L 440.051218 55.472673 
L 442.468312 52.287348 
L 444.570132 49.496674 
L 445.726133 48.066612 
L 447.302498 46.171561 
L 457.181052 34.581495 
L 458.231962 33.746711 
L 459.808328 32.718641 
L 461.699966 31.552244 
L 464.117059 29.858247 
L 465.588333 28.736283 
L 467.900335 27.229439 
L 468.635972 27.013517 
L 469.791973 26.930716 
L 471.998884 27.034039 
L 478.724709 27.641134 
L 479.565437 27.942823 
L 480.511256 28.563398 
L 484.399623 31.695345 
L 487.131989 34.151142 
L 489.864355 36.350144 
L 492.701812 39.435847 
L 495.644361 43.113883 
L 499.007273 47.535559 
L 502.265094 51.529903 
L 507.729826 58.074794 
L 509.831646 60.716239 
L 510.987647 61.92573 
L 512.458922 63.06371 
L 513.825105 63.891642 
L 516.137107 65.412664 
L 517.188017 66.222322 
L 519.079655 67.72526 
L 521.496748 69.236441 
L 522.442567 69.384899 
L 524.124023 69.369988 
L 528.327663 69.018357 
L 531.795667 68.623036 
L 532.531304 68.281504 
L 533.687305 67.406072 
L 535.999307 65.507814 
L 537.260399 64.414736 
L 538.836764 62.914625 
L 542.935313 59.40287 
L 545.982952 55.932514 
L 548.189864 53.116209 
L 551.132412 49.226216 
L 554.285142 45.38766 
L 554.285142 45.38766 
" style="fill:none;stroke:#ff7f0e;stroke-linecap:square;stroke-width:1.5;"/>
   </g>
   <g id="patch_8">
    <path d="M 333.704375 80.9725 
L 333.704375 15.359062 
" style="fill:none;stroke:#000000;stroke-linecap:square;stroke-linejoin:miter;stroke-width:0.8;"/>
   </g>
   <g id="patch_9">
    <path d="M 564.788988 80.9725 
L 564.788988 15.359062 
" style="fill:none;stroke:#000000;stroke-linecap:square;stroke-linejoin:miter;stroke-width:0.8;"/>
   </g>
   <g id="patch_10">
    <path d="M 333.704375 80.9725 
L 564.788988 80.9725 
" style="fill:none;stroke:#000000;stroke-linecap:square;stroke-linejoin:miter;stroke-width:0.8;"/>
   </g>
   <g id="patch_11">
    <path d="M 333.704375 15.359062 
L 564.788988 15.359062 
" style="fill:none;stroke:#000000;stroke-linecap:square;stroke-linejoin:miter;stroke-width:0.8;"/>
   </g>
  </g>
 </g>
 <defs>
  <clipPath id="p2ef1eb5616">
   <rect height="65.613438" width="231.084613" x="51.104375" y="15.359062"/>
  </clipPath>
  <clipPath id="p9c6e62249d">
   <rect height="65.613438" width="231.084613" x="333.704375" y="15.359062"/>
  </clipPath>
 </defs>
</svg>
