<?xml version="1.0" encoding="utf-8" standalone="no"?>
<!DOCTYPE svg PUBLIC "-//W3C//DTD SVG 1.1//EN"
  "http://www.w3.org/Graphics/SVG/1.1/DTD/svg11.dtd">
<!-- Created with matplotlib (https://matplotlib.org/) -->
<svg height="126pt" version="1.1" viewBox="0 0 576 126" width="576pt" xmlns="http://www.w3.org/2000/svg" xmlns:xlink="http://www.w3.org/1999/xlink">
 <metadata>
  <rdf:RDF xmlns:cc="http://creativecommons.org/ns#" xmlns:dc="http://purl.org/dc/elements/1.1/" xmlns:rdf="http://www.w3.org/1999/02/22-rdf-syntax-ns#">
   <cc:Work>
    <dc:type rdf:resource="http://purl.org/dc/dcmitype/StillImage"/>
    <dc:date>2025-05-09T18:33:55.061900</dc:date>
    <dc:format>image/svg+xml</dc:format>
    <dc:creator>
     <cc:Agent>
      <dc:title>Matplotlib v3.3.4, https://matplotlib.org/</dc:title>
     </cc:Agent>
    </dc:creator>
   </cc:Work>
  </rdf:RDF>
 </metadata>
 <defs>
  <style type="text/css">*{stroke-linecap:butt;stroke-linejoin:round;}</style>
 </defs>
 <g id="figure_1">
  <g id="patch_1">
   <path d="M 0 126 
L 576 126 
L 576 0 
L 0 0 
z
" style="fill:none;"/>
  </g>
  <g id="axes_1">
   <g id="patch_2">
    <path d="M 51.104375 80.9725 
L 282.188988 80.9725 
L 282.188988 15.359062 
L 51.104375 15.359062 
z
" style="fill:#ffffff;"/>
   </g>
   <g id="matplotlib.axis_1">
    <g id="xtick_1">
     <g id="line2d_1">
      <defs>
       <path d="M 0 0 
L 0 3.5 
" id="m88ad2bf611" style="stroke:#000000;stroke-width:0.8;"/>
      </defs>
      <g>
       <use style="stroke:#000000;stroke-width:0.8;" x="61.608221" xlink:href="#m88ad2bf611" y="80.9725"/>
      </g>
     </g>
     <g id="text_1">
      <!-- 0.0 -->
      <g transform="translate(52.066346 97.090625)scale(0.12 -0.12)">
       <defs>
        <path d="M 31.78125 66.40625 
Q 24.171875 66.40625 20.328125 58.90625 
Q 16.5 51.421875 16.5 36.375 
Q 16.5 21.390625 20.328125 13.890625 
Q 24.171875 6.390625 31.78125 6.390625 
Q 39.453125 6.390625 43.28125 13.890625 
Q 47.125 21.390625 47.125 36.375 
Q 47.125 51.421875 43.28125 58.90625 
Q 39.453125 66.40625 31.78125 66.40625 
z
M 31.78125 74.21875 
Q 44.046875 74.21875 50.515625 64.515625 
Q 56.984375 54.828125 56.984375 36.375 
Q 56.984375 17.96875 50.515625 8.265625 
Q 44.046875 -1.421875 31.78125 -1.421875 
Q 19.53125 -1.421875 13.0625 8.265625 
Q 6.59375 17.96875 6.59375 36.375 
Q 6.59375 54.828125 13.0625 64.515625 
Q 19.53125 74.21875 31.78125 74.21875 
z
" id="DejaVuSans-48"/>
        <path d="M 10.6875 12.40625 
L 21 12.40625 
L 21 0 
L 10.6875 0 
z
" id="DejaVuSans-46"/>
       </defs>
       <use xlink:href="#DejaVuSans-48"/>
       <use x="63.623047" xlink:href="#DejaVuSans-46"/>
       <use x="95.410156" xlink:href="#DejaVuSans-48"/>
      </g>
     </g>
    </g>
    <g id="xtick_2">
     <g id="line2d_2">
      <g>
       <use style="stroke:#000000;stroke-width:0.8;" x="114.153724" xlink:href="#m88ad2bf611" y="80.9725"/>
      </g>
     </g>
     <g id="text_2">
      <!-- 0.5 -->
      <g transform="translate(104.611849 97.090625)scale(0.12 -0.12)">
       <defs>
        <path d="M 10.796875 72.90625 
L 49.515625 72.90625 
L 49.515625 64.59375 
L 19.828125 64.59375 
L 19.828125 46.734375 
Q 21.96875 47.46875 24.109375 47.828125 
Q 26.265625 48.1875 28.421875 48.1875 
Q 40.625 48.1875 47.75 41.5 
Q 54.890625 34.8125 54.890625 23.390625 
Q 54.890625 11.625 47.5625 5.09375 
Q 40.234375 -1.421875 26.90625 -1.421875 
Q 22.3125 -1.421875 17.546875 -0.640625 
Q 12.796875 0.140625 7.71875 1.703125 
L 7.71875 11.625 
Q 12.109375 9.234375 16.796875 8.0625 
Q 21.484375 6.890625 26.703125 6.890625 
Q 35.15625 6.890625 40.078125 11.328125 
Q 45.015625 15.765625 45.015625 23.390625 
Q 45.015625 31 40.078125 35.4375 
Q 35.15625 39.890625 26.703125 39.890625 
Q 22.75 39.890625 18.8125 39.015625 
Q 14.890625 38.140625 10.796875 36.28125 
z
" id="DejaVuSans-53"/>
       </defs>
       <use xlink:href="#DejaVuSans-48"/>
       <use x="63.623047" xlink:href="#DejaVuSans-46"/>
       <use x="95.410156" xlink:href="#DejaVuSans-53"/>
      </g>
     </g>
    </g>
    <g id="xtick_3">
     <g id="line2d_3">
      <g>
       <use style="stroke:#000000;stroke-width:0.8;" x="166.699227" xlink:href="#m88ad2bf611" y="80.9725"/>
      </g>
     </g>
     <g id="text_3">
      <!-- 1.0 -->
      <g transform="translate(157.157352 97.090625)scale(0.12 -0.12)">
       <defs>
        <path d="M 12.40625 8.296875 
L 28.515625 8.296875 
L 28.515625 63.921875 
L 10.984375 60.40625 
L 10.984375 69.390625 
L 28.421875 72.90625 
L 38.28125 72.90625 
L 38.28125 8.296875 
L 54.390625 8.296875 
L 54.390625 0 
L 12.40625 0 
z
" id="DejaVuSans-49"/>
       </defs>
       <use xlink:href="#DejaVuSans-49"/>
       <use x="63.623047" xlink:href="#DejaVuSans-46"/>
       <use x="95.410156" xlink:href="#DejaVuSans-48"/>
      </g>
     </g>
    </g>
    <g id="xtick_4">
     <g id="line2d_4">
      <g>
       <use style="stroke:#000000;stroke-width:0.8;" x="219.24473" xlink:href="#m88ad2bf611" y="80.9725"/>
      </g>
     </g>
     <g id="text_4">
      <!-- 1.5 -->
      <g transform="translate(209.702855 97.090625)scale(0.12 -0.12)">
       <use xlink:href="#DejaVuSans-49"/>
       <use x="63.623047" xlink:href="#DejaVuSans-46"/>
       <use x="95.410156" xlink:href="#DejaVuSans-53"/>
      </g>
     </g>
    </g>
    <g id="xtick_5">
     <g id="line2d_5">
      <g>
       <use style="stroke:#000000;stroke-width:0.8;" x="271.790233" xlink:href="#m88ad2bf611" y="80.9725"/>
      </g>
     </g>
     <g id="text_5">
      <!-- 2.0 -->
      <g transform="translate(262.248358 97.090625)scale(0.12 -0.12)">
       <defs>
        <path d="M 19.1875 8.296875 
L 53.609375 8.296875 
L 53.609375 0 
L 7.328125 0 
L 7.328125 8.296875 
Q 12.9375 14.109375 22.625 23.890625 
Q 32.328125 33.6875 34.8125 36.53125 
Q 39.546875 41.84375 41.421875 45.53125 
Q 43.3125 49.21875 43.3125 52.78125 
Q 43.3125 58.59375 39.234375 62.25 
Q 35.15625 65.921875 28.609375 65.921875 
Q 23.96875 65.921875 18.8125 64.3125 
Q 13.671875 62.703125 7.8125 59.421875 
L 7.8125 69.390625 
Q 13.765625 71.78125 18.9375 73 
Q 24.125 74.21875 28.421875 74.21875 
Q 39.75 74.21875 46.484375 68.546875 
Q 53.21875 62.890625 53.21875 53.421875 
Q 53.21875 48.921875 51.53125 44.890625 
Q 49.859375 40.875 45.40625 35.40625 
Q 44.1875 33.984375 37.640625 27.21875 
Q 31.109375 20.453125 19.1875 8.296875 
z
" id="DejaVuSans-50"/>
       </defs>
       <use xlink:href="#DejaVuSans-50"/>
       <use x="63.623047" xlink:href="#DejaVuSans-46"/>
       <use x="95.410156" xlink:href="#DejaVuSans-48"/>
      </g>
     </g>
    </g>
    <g id="text_6">
     <!-- Time (s) -->
     <g transform="translate(142.251994 112.704375)scale(0.12 -0.12)">
      <defs>
       <path d="M -0.296875 72.90625 
L 61.375 72.90625 
L 61.375 64.59375 
L 35.5 64.59375 
L 35.5 0 
L 25.59375 0 
L 25.59375 64.59375 
L -0.296875 64.59375 
z
" id="DejaVuSans-84"/>
       <path d="M 9.421875 54.6875 
L 18.40625 54.6875 
L 18.40625 0 
L 9.421875 0 
z
M 9.421875 75.984375 
L 18.40625 75.984375 
L 18.40625 64.59375 
L 9.421875 64.59375 
z
" id="DejaVuSans-105"/>
       <path d="M 52 44.1875 
Q 55.375 50.25 60.0625 53.125 
Q 64.75 56 71.09375 56 
Q 79.640625 56 84.28125 50.015625 
Q 88.921875 44.046875 88.921875 33.015625 
L 88.921875 0 
L 79.890625 0 
L 79.890625 32.71875 
Q 79.890625 40.578125 77.09375 44.375 
Q 74.3125 48.1875 68.609375 48.1875 
Q 61.625 48.1875 57.5625 43.546875 
Q 53.515625 38.921875 53.515625 30.90625 
L 53.515625 0 
L 44.484375 0 
L 44.484375 32.71875 
Q 44.484375 40.625 41.703125 44.40625 
Q 38.921875 48.1875 33.109375 48.1875 
Q 26.21875 48.1875 22.15625 43.53125 
Q 18.109375 38.875 18.109375 30.90625 
L 18.109375 0 
L 9.078125 0 
L 9.078125 54.6875 
L 18.109375 54.6875 
L 18.109375 46.1875 
Q 21.1875 51.21875 25.484375 53.609375 
Q 29.78125 56 35.6875 56 
Q 41.65625 56 45.828125 52.96875 
Q 50 49.953125 52 44.1875 
z
" id="DejaVuSans-109"/>
       <path d="M 56.203125 29.59375 
L 56.203125 25.203125 
L 14.890625 25.203125 
Q 15.484375 15.921875 20.484375 11.0625 
Q 25.484375 6.203125 34.421875 6.203125 
Q 39.59375 6.203125 44.453125 7.46875 
Q 49.3125 8.734375 54.109375 11.28125 
L 54.109375 2.78125 
Q 49.265625 0.734375 44.1875 -0.34375 
Q 39.109375 -1.421875 33.890625 -1.421875 
Q 20.796875 -1.421875 13.15625 6.1875 
Q 5.515625 13.8125 5.515625 26.8125 
Q 5.515625 40.234375 12.765625 48.109375 
Q 20.015625 56 32.328125 56 
Q 43.359375 56 49.78125 48.890625 
Q 56.203125 41.796875 56.203125 29.59375 
z
M 47.21875 32.234375 
Q 47.125 39.59375 43.09375 43.984375 
Q 39.0625 48.390625 32.421875 48.390625 
Q 24.90625 48.390625 20.390625 44.140625 
Q 15.875 39.890625 15.1875 32.171875 
z
" id="DejaVuSans-101"/>
       <path id="DejaVuSans-32"/>
       <path d="M 31 75.875 
Q 24.46875 64.65625 21.28125 53.65625 
Q 18.109375 42.671875 18.109375 31.390625 
Q 18.109375 20.125 21.3125 9.0625 
Q 24.515625 -2 31 -13.1875 
L 23.1875 -13.1875 
Q 15.875 -1.703125 12.234375 9.375 
Q 8.59375 20.453125 8.59375 31.390625 
Q 8.59375 42.28125 12.203125 53.3125 
Q 15.828125 64.359375 23.1875 75.875 
z
" id="DejaVuSans-40"/>
       <path d="M 44.28125 53.078125 
L 44.28125 44.578125 
Q 40.484375 46.53125 36.375 47.5 
Q 32.28125 48.484375 27.875 48.484375 
Q 21.1875 48.484375 17.84375 46.4375 
Q 14.5 44.390625 14.5 40.28125 
Q 14.5 37.15625 16.890625 35.375 
Q 19.28125 33.59375 26.515625 31.984375 
L 29.59375 31.296875 
Q 39.15625 29.25 43.1875 25.515625 
Q 47.21875 21.78125 47.21875 15.09375 
Q 47.21875 7.46875 41.1875 3.015625 
Q 35.15625 -1.421875 24.609375 -1.421875 
Q 20.21875 -1.421875 15.453125 -0.5625 
Q 10.6875 0.296875 5.421875 2 
L 5.421875 11.28125 
Q 10.40625 8.6875 15.234375 7.390625 
Q 20.0625 6.109375 24.8125 6.109375 
Q 31.15625 6.109375 34.5625 8.28125 
Q 37.984375 10.453125 37.984375 14.40625 
Q 37.984375 18.0625 35.515625 20.015625 
Q 33.0625 21.96875 24.703125 23.78125 
L 21.578125 24.515625 
Q 13.234375 26.265625 9.515625 29.90625 
Q 5.8125 33.546875 5.8125 39.890625 
Q 5.8125 47.609375 11.28125 51.796875 
Q 16.75 56 26.8125 56 
Q 31.78125 56 36.171875 55.265625 
Q 40.578125 54.546875 44.28125 53.078125 
z
" id="DejaVuSans-115"/>
       <path d="M 8.015625 75.875 
L 15.828125 75.875 
Q 23.140625 64.359375 26.78125 53.3125 
Q 30.421875 42.28125 30.421875 31.390625 
Q 30.421875 20.453125 26.78125 9.375 
Q 23.140625 -1.703125 15.828125 -13.1875 
L 8.015625 -13.1875 
Q 14.5 -2 17.703125 9.0625 
Q 20.90625 20.125 20.90625 31.390625 
Q 20.90625 42.671875 17.703125 53.65625 
Q 14.5 64.65625 8.015625 75.875 
z
" id="DejaVuSans-41"/>
      </defs>
      <use xlink:href="#DejaVuSans-84"/>
      <use x="57.958984" xlink:href="#DejaVuSans-105"/>
      <use x="85.742188" xlink:href="#DejaVuSans-109"/>
      <use x="183.154297" xlink:href="#DejaVuSans-101"/>
      <use x="244.677734" xlink:href="#DejaVuSans-32"/>
      <use x="276.464844" xlink:href="#DejaVuSans-40"/>
      <use x="315.478516" xlink:href="#DejaVuSans-115"/>
      <use x="367.578125" xlink:href="#DejaVuSans-41"/>
     </g>
    </g>
   </g>
   <g id="matplotlib.axis_2">
    <g id="ytick_1">
     <g id="line2d_6">
      <defs>
       <path d="M 0 0 
L -3.5 0 
" id="mac149fd0c9" style="stroke:#000000;stroke-width:0.8;"/>
      </defs>
      <g>
       <use style="stroke:#000000;stroke-width:0.8;" x="51.104375" xlink:href="#mac149fd0c9" y="80.9725"/>
      </g>
     </g>
     <g id="text_7">
      <!-- −2 -->
      <g transform="translate(26.41375 85.531562)scale(0.12 -0.12)">
       <defs>
        <path d="M 10.59375 35.5 
L 73.1875 35.5 
L 73.1875 27.203125 
L 10.59375 27.203125 
z
" id="DejaVuSans-8722"/>
       </defs>
       <use xlink:href="#DejaVuSans-8722"/>
       <use x="83.789062" xlink:href="#DejaVuSans-50"/>
      </g>
     </g>
    </g>
    <g id="ytick_2">
     <g id="line2d_7">
      <g>
       <use style="stroke:#000000;stroke-width:0.8;" x="51.104375" xlink:href="#mac149fd0c9" y="48.165781"/>
      </g>
     </g>
     <g id="text_8">
      <!-- 0 -->
      <g transform="translate(36.469375 52.724844)scale(0.12 -0.12)">
       <use xlink:href="#DejaVuSans-48"/>
      </g>
     </g>
    </g>
    <g id="ytick_3">
     <g id="line2d_8">
      <g>
       <use style="stroke:#000000;stroke-width:0.8;" x="51.104375" xlink:href="#mac149fd0c9" y="15.359062"/>
      </g>
     </g>
     <g id="text_9">
      <!-- 2 -->
      <g transform="translate(36.469375 19.918125)scale(0.12 -0.12)">
       <use xlink:href="#DejaVuSans-50"/>
      </g>
     </g>
    </g>
    <g id="text_10">
     <!-- x -->
     <g transform="translate(19.918125 51.717031)rotate(-90)scale(0.12 -0.12)">
      <defs>
       <path d="M 54.890625 54.6875 
L 35.109375 28.078125 
L 55.90625 0 
L 45.3125 0 
L 29.390625 21.484375 
L 13.484375 0 
L 2.875 0 
L 24.125 28.609375 
L 4.6875 54.6875 
L 15.28125 54.6875 
L 29.78125 35.203125 
L 44.28125 54.6875 
z
" id="DejaVuSans-120"/>
      </defs>
      <use xlink:href="#DejaVuSans-120"/>
     </g>
    </g>
   </g>
   <g id="line2d_9">
    <path clip-path="url(#p7ca13419af)" d="M 61.608221 26.841414 
L 62.133676 26.584345 
L 62.659131 26.592765 
L 63.289677 26.815749 
L 64.340587 27.444225 
L 66.442407 29.075464 
L 68.439136 30.629526 
L 69.069682 31.191079 
L 69.80532 32.240137 
L 71.591867 34.89504 
L 73.798778 37.807619 
L 75.480234 40.459411 
L 76.951508 42.545231 
L 78.317691 45.014199 
L 82.41624 53.733955 
L 84.412969 56.820707 
L 87.355517 60.928301 
L 91.033703 66.497256 
L 91.874431 67.196333 
L 93.135523 67.898817 
L 94.501706 68.420441 
L 97.234072 69.463307 
L 98.390073 69.895078 
L 99.020619 69.788847 
L 99.756256 69.431124 
L 100.912257 68.639597 
L 105.220989 65.13531 
L 105.956626 64.069479 
L 107.743173 61.374541 
L 109.844993 58.52707 
L 111.526449 55.829423 
L 112.892632 53.85615 
L 114.258815 51.354934 
L 118.357364 42.539972 
L 120.459184 39.288132 
L 122.876278 35.933178 
L 124.662825 33.042786 
L 125.923917 31.13042 
L 126.974827 29.744955 
L 127.815555 29.06822 
L 129.076647 28.380409 
L 130.44283 27.870096 
L 133.175196 26.843729 
L 134.331197 26.402772 
L 134.961743 26.493099 
L 135.69738 26.83353 
L 136.958472 27.682201 
L 141.372295 31.220521 
L 142.107932 32.281725 
L 143.894479 34.927742 
L 146.10139 37.851234 
L 147.782846 40.493428 
L 149.149029 42.413346 
L 150.515212 44.844893 
L 152.301759 48.910503 
L 153.562851 51.665657 
L 155.139216 54.432453 
L 157.241036 57.542391 
L 159.553039 60.803296 
L 163.231224 66.412868 
L 164.071952 67.14183 
L 165.227953 67.804594 
L 166.383954 68.287273 
L 169.536684 69.475635 
L 170.692685 69.895688 
L 171.323231 69.779991 
L 172.058868 69.416046 
L 173.214869 68.619171 
L 177.523601 65.102943 
L 178.259238 64.023979 
L 180.045785 61.339476 
L 182.147605 58.480728 
L 183.829061 55.792838 
L 185.195244 53.809537 
L 186.561427 51.293566 
L 190.554885 42.670324 
L 192.446523 39.676606 
L 195.704345 35.072539 
L 198.857075 30.188199 
L 199.592712 29.434951 
L 200.538531 28.799425 
L 202.114896 28.075642 
L 206.949082 26.423932 
L 207.684719 26.677853 
L 208.945811 27.465618 
L 211.467996 29.480219 
L 213.149452 30.738727 
L 213.674907 31.254634 
L 214.410544 32.327882 
L 216.197091 34.963253 
L 218.298911 37.723735 
L 220.085458 40.532164 
L 221.451641 42.462015 
L 222.817824 44.905822 
L 224.814553 49.475988 
L 225.970554 51.918591 
L 227.336737 54.316056 
L 230.174195 58.453547 
L 231.855651 60.850395 
L 235.533836 66.445257 
L 236.374564 67.162919 
L 237.530565 67.820594 
L 238.686566 68.297898 
L 241.734205 69.441234 
L 242.890206 69.89246 
L 243.415661 69.833698 
L 244.151298 69.519689 
L 245.41239 68.67712 
L 249.721122 65.18992 
L 250.351668 64.31634 
L 252.243306 61.43497 
L 254.345126 58.609075 
L 256.131673 55.752569 
L 257.392765 53.934675 
L 258.758948 51.454951 
L 260.650586 47.077162 
L 261.806587 44.560736 
L 263.382952 41.782734 
L 265.064409 39.211402 
L 267.27132 36.159904 
L 268.847685 33.650269 
L 270.318959 31.358555 
L 271.47496 29.793768 
L 271.685142 29.589869 
L 271.685142 29.589869 
" style="fill:none;stroke:#1f77b4;stroke-linecap:square;stroke-width:1.5;"/>
   </g>
   <g id="line2d_10">
    <path clip-path="url(#p7ca13419af)" d="M 61.608221 48.165781 
L 63.815132 44.073188 
L 68.754409 35.070043 
L 70.435866 32.826655 
L 71.486776 31.782621 
L 74.534415 29.066206 
L 75.795507 27.924418 
L 76.951508 27.117251 
L 77.687145 26.944911 
L 78.738055 26.957031 
L 81.155148 27.312574 
L 83.677332 27.772761 
L 84.623151 28.421221 
L 85.56897 29.342738 
L 86.935153 30.913881 
L 88.406428 32.94224 
L 89.982793 35.093336 
L 90.928612 36.526996 
L 93.555887 41.09306 
L 96.708617 45.837057 
L 101.22753 54.47499 
L 103.749714 59.345634 
L 105.115898 61.548267 
L 106.587172 63.533147 
L 107.638082 64.595199 
L 110.475539 67.178759 
L 111.841722 68.450254 
L 112.892632 69.211425 
L 113.628269 69.403255 
L 114.574088 69.410767 
L 116.465726 69.148019 
L 119.618456 68.568057 
L 120.669366 67.814509 
L 121.720276 66.74613 
L 122.981369 65.237159 
L 126.449372 60.47002 
L 128.025737 57.685737 
L 130.127557 54.313915 
L 132.019195 51.605203 
L 133.070105 49.733584 
L 135.382107 45.368338 
L 140.636658 35.664324 
L 142.002841 33.718848 
L 143.158842 32.348217 
L 144.525025 31.163885 
L 146.10139 29.807391 
L 147.887937 28.070955 
L 149.25412 27.10758 
L 149.989757 26.94214 
L 151.040667 26.959457 
L 153.562851 27.332032 
L 155.979944 27.78646 
L 156.925763 28.44235 
L 157.871582 29.369739 
L 159.237766 30.946828 
L 160.70904 32.980601 
L 162.180314 34.990462 
L 163.126133 36.383987 
L 165.96359 41.283826 
L 169.11632 46.082787 
L 176.787964 60.627898 
L 178.154147 62.624365 
L 179.310148 64.020616 
L 180.676331 65.229822 
L 182.147605 66.534255 
L 183.829061 68.214745 
L 185.195244 69.223015 
L 185.930881 69.406786 
L 186.8767 69.408524 
L 188.873429 69.126694 
L 191.921068 68.552234 
L 192.971978 67.790521 
L 194.022889 66.716694 
L 195.283981 65.200068 
L 198.857075 60.248757 
L 201.799623 55.168065 
L 204.952353 50.480905 
L 209.576357 41.778376 
L 211.993451 37.188355 
L 213.149452 35.295237 
L 214.935999 32.885655 
L 215.986909 31.827502 
L 221.556732 27.096839 
L 222.39746 26.931504 
L 223.553461 26.985896 
L 227.967283 27.658601 
L 228.70292 28.068402 
L 229.543649 28.743404 
L 230.804741 30.093282 
L 232.486197 32.260683 
L 235.533836 36.628087 
L 237.950929 40.863346 
L 241.734205 46.766514 
L 244.36148 51.782831 
L 247.304029 57.397307 
L 248.670212 59.988355 
L 249.826213 61.785042 
L 251.402578 63.831669 
L 252.558579 64.913234 
L 254.660399 66.793456 
L 256.341855 68.411621 
L 257.497856 69.235434 
L 258.233493 69.410402 
L 259.284403 69.396669 
L 261.806587 69.023213 
L 264.118589 68.593286 
L 265.064409 67.941936 
L 266.010228 67.01433 
L 267.376411 65.433689 
L 268.952776 63.242252 
L 270.634232 60.9731 
L 271.369869 59.818996 
L 271.685142 59.244944 
L 271.685142 59.244944 
" style="fill:none;stroke:#ff7f0e;stroke-linecap:square;stroke-width:1.5;"/>
   </g>
   <g id="line2d_11">
    <path clip-path="url(#p7ca13419af)" d="M 61.608221 26.841414 
L 62.33802 26.887071 
L 63.067818 27.023847 
L 63.797617 27.251156 
L 64.527416 27.568024 
L 65.257214 27.973095 
L 65.987013 28.464635 
L 66.716812 29.040538 
L 67.44661 29.698338 
L 68.176409 30.435218 
L 68.906208 31.248023 
L 69.636006 32.133273 
L 70.365805 33.087177 
L 71.095604 34.105649 
L 71.825402 35.184329 
L 72.555201 36.318598 
L 73.284999 37.503598 
L 74.014798 38.734255 
L 74.744597 40.005299 
L 75.474395 41.311288 
L 76.204194 42.646629 
L 76.933993 44.005604 
L 77.663791 45.382393 
L 78.39359 46.771101 
L 79.123389 48.165781 
L 79.853187 49.560462 
L 80.582986 50.94917 
L 81.312785 52.325959 
L 82.042583 53.684934 
L 82.772382 55.020274 
L 83.502181 56.326263 
L 84.231979 57.597308 
L 84.961778 58.827965 
L 85.691577 60.012965 
L 86.421375 61.147233 
L 87.151174 62.225914 
L 87.880973 63.244386 
L 88.610771 64.198289 
L 89.34057 65.083539 
L 90.070368 65.896345 
L 90.800167 66.633225 
L 91.529966 67.291025 
L 92.259764 67.866928 
L 92.989563 68.358467 
L 93.719362 68.763538 
L 94.44916 69.080407 
L 95.178959 69.307716 
L 95.908758 69.444491 
L 96.638556 69.490148 
L 97.368355 69.444491 
L 98.098154 69.307716 
L 98.827952 69.080407 
L 99.557751 68.763538 
L 100.28755 68.358467 
L 101.017348 67.866928 
L 101.747147 67.291025 
L 102.476946 66.633225 
L 103.206744 65.896345 
L 103.936543 65.083539 
L 104.666342 64.198289 
L 105.39614 63.244386 
L 106.125939 62.225914 
L 106.855737 61.147233 
L 107.585536 60.012965 
L 108.315335 58.827965 
L 109.045133 57.597308 
L 109.774932 56.326263 
L 110.504731 55.020274 
L 111.234529 53.684934 
L 111.964328 52.325959 
L 112.694127 50.94917 
L 113.423925 49.560462 
L 114.153724 48.165781 
L 114.883523 46.771101 
L 115.613321 45.382393 
L 116.34312 44.005604 
L 117.072919 42.646629 
L 117.802717 41.311288 
L 118.532516 40.005299 
L 119.262315 38.734255 
L 119.992113 37.503598 
L 120.721912 36.318598 
L 121.451711 35.184329 
L 122.181509 34.105649 
L 122.911308 33.087177 
L 123.641106 32.133273 
L 124.370905 31.248023 
L 125.100704 30.435218 
L 125.830502 29.698338 
L 126.560301 29.040538 
L 127.2901 28.464635 
L 128.019898 27.973095 
L 128.749697 27.568024 
L 129.479496 27.251156 
L 130.209294 27.023847 
L 130.939093 26.887071 
" style="fill:none;stroke:#000000;stroke-dasharray:5.55,2.4;stroke-dashoffset:0;stroke-width:1.5;"/>
   </g>
   <g id="line2d_12">
    <path clip-path="url(#p7ca13419af)" d="M 61.608221 48.165781 
L 62.33802 46.771101 
L 63.067818 45.382393 
L 63.797617 44.005604 
L 64.527416 42.646629 
L 65.257214 41.311288 
L 65.987013 40.005299 
L 66.716812 38.734255 
L 67.44661 37.503598 
L 68.176409 36.318598 
L 68.906208 35.184329 
L 69.636006 34.105649 
L 70.365805 33.087177 
L 71.095604 32.133273 
L 71.825402 31.248023 
L 72.555201 30.435218 
L 73.284999 29.698338 
L 74.014798 29.040538 
L 74.744597 28.464635 
L 75.474395 27.973095 
L 76.204194 27.568024 
L 76.933993 27.251156 
L 77.663791 27.023847 
L 78.39359 26.887071 
L 79.123389 26.841414 
L 79.853187 26.887071 
L 80.582986 27.023847 
L 81.312785 27.251156 
L 82.042583 27.568024 
L 82.772382 27.973095 
L 83.502181 28.464635 
L 84.231979 29.040538 
L 84.961778 29.698338 
L 85.691577 30.435218 
L 86.421375 31.248023 
L 87.151174 32.133273 
L 87.880973 33.087177 
L 88.610771 34.105649 
L 89.34057 35.184329 
L 90.070368 36.318598 
L 90.800167 37.503598 
L 91.529966 38.734255 
L 92.259764 40.005299 
L 92.989563 41.311288 
L 93.719362 42.646629 
L 94.44916 44.005604 
L 95.178959 45.382393 
L 95.908758 46.771101 
L 96.638556 48.165781 
L 97.368355 49.560462 
L 98.098154 50.94917 
L 98.827952 52.325959 
L 99.557751 53.684934 
L 100.28755 55.020274 
L 101.017348 56.326263 
L 101.747147 57.597308 
L 102.476946 58.827965 
L 103.206744 60.012965 
L 103.936543 61.147233 
L 104.666342 62.225914 
L 105.39614 63.244386 
L 106.125939 64.198289 
L 106.855737 65.083539 
L 107.585536 65.896345 
L 108.315335 66.633225 
L 109.045133 67.291025 
L 109.774932 67.866928 
L 110.504731 68.358467 
L 111.234529 68.763538 
L 111.964328 69.080407 
L 112.694127 69.307716 
L 113.423925 69.444491 
L 114.153724 69.490148 
L 114.883523 69.444491 
L 115.613321 69.307716 
L 116.34312 69.080407 
L 117.072919 68.763538 
L 117.802717 68.358467 
L 118.532516 67.866928 
L 119.262315 67.291025 
L 119.992113 66.633225 
L 120.721912 65.896345 
L 121.451711 65.083539 
L 122.181509 64.198289 
L 122.911308 63.244386 
L 123.641106 62.225914 
L 124.370905 61.147233 
L 125.100704 60.012965 
L 125.830502 58.827965 
L 126.560301 57.597308 
L 127.2901 56.326263 
L 128.019898 55.020274 
L 128.749697 53.684934 
L 129.479496 52.325959 
L 130.209294 50.94917 
L 130.939093 49.560462 
" style="fill:none;stroke:#000000;stroke-dasharray:5.55,2.4;stroke-dashoffset:0;stroke-width:1.5;"/>
   </g>
   <g id="patch_3">
    <path d="M 51.104375 80.9725 
L 51.104375 15.359062 
" style="fill:none;stroke:#000000;stroke-linecap:square;stroke-linejoin:miter;stroke-width:0.8;"/>
   </g>
   <g id="patch_4">
    <path d="M 282.188988 80.9725 
L 282.188988 15.359062 
" style="fill:none;stroke:#000000;stroke-linecap:square;stroke-linejoin:miter;stroke-width:0.8;"/>
   </g>
   <g id="patch_5">
    <path d="M 51.104375 80.9725 
L 282.188988 80.9725 
" style="fill:none;stroke:#000000;stroke-linecap:square;stroke-linejoin:miter;stroke-width:0.8;"/>
   </g>
   <g id="patch_6">
    <path d="M 51.104375 15.359062 
L 282.188988 15.359062 
" style="fill:none;stroke:#000000;stroke-linecap:square;stroke-linejoin:miter;stroke-width:0.8;"/>
   </g>
  </g>
  <g id="axes_2">
   <g id="patch_7">
    <path d="M 333.704375 80.9725 
L 564.788988 80.9725 
L 564.788988 15.359062 
L 333.704375 15.359062 
z
" style="fill:#ffffff;"/>
   </g>
   <g id="PathCollection_1">
    <defs>
     <path d="M -0 3 
L 3 -3 
L -3 -3 
z
" id="m6fc3a85123" style="stroke:#000000;"/>
    </defs>
    <g clip-path="url(#pad7a70eb24)">
     <use style="stroke:#000000;" x="396.727451" xlink:href="#m6fc3a85123" y="21.920406"/>
    </g>
   </g>
   <g id="matplotlib.axis_3">
    <g id="xtick_6">
     <g id="line2d_13">
      <g>
       <use style="stroke:#000000;stroke-width:0.8;" x="344.208221" xlink:href="#m88ad2bf611" y="80.9725"/>
      </g>
     </g>
     <g id="text_11">
      <!-- 0.0 -->
      <g transform="translate(334.666346 97.090625)scale(0.12 -0.12)">
       <use xlink:href="#DejaVuSans-48"/>
       <use x="63.623047" xlink:href="#DejaVuSans-46"/>
       <use x="95.410156" xlink:href="#DejaVuSans-48"/>
      </g>
     </g>
    </g>
    <g id="xtick_7">
     <g id="line2d_14">
      <g>
       <use style="stroke:#000000;stroke-width:0.8;" x="396.753724" xlink:href="#m88ad2bf611" y="80.9725"/>
      </g>
     </g>
     <g id="text_12">
      <!-- 0.5 -->
      <g transform="translate(387.211849 97.090625)scale(0.12 -0.12)">
       <use xlink:href="#DejaVuSans-48"/>
       <use x="63.623047" xlink:href="#DejaVuSans-46"/>
       <use x="95.410156" xlink:href="#DejaVuSans-53"/>
      </g>
     </g>
    </g>
    <g id="xtick_8">
     <g id="line2d_15">
      <g>
       <use style="stroke:#000000;stroke-width:0.8;" x="449.299227" xlink:href="#m88ad2bf611" y="80.9725"/>
      </g>
     </g>
     <g id="text_13">
      <!-- 1.0 -->
      <g transform="translate(439.757352 97.090625)scale(0.12 -0.12)">
       <use xlink:href="#DejaVuSans-49"/>
       <use x="63.623047" xlink:href="#DejaVuSans-46"/>
       <use x="95.410156" xlink:href="#DejaVuSans-48"/>
      </g>
     </g>
    </g>
    <g id="xtick_9">
     <g id="line2d_16">
      <g>
       <use style="stroke:#000000;stroke-width:0.8;" x="501.84473" xlink:href="#m88ad2bf611" y="80.9725"/>
      </g>
     </g>
     <g id="text_14">
      <!-- 1.5 -->
      <g transform="translate(492.302855 97.090625)scale(0.12 -0.12)">
       <use xlink:href="#DejaVuSans-49"/>
       <use x="63.623047" xlink:href="#DejaVuSans-46"/>
       <use x="95.410156" xlink:href="#DejaVuSans-53"/>
      </g>
     </g>
    </g>
    <g id="xtick_10">
     <g id="line2d_17">
      <g>
       <use style="stroke:#000000;stroke-width:0.8;" x="554.390233" xlink:href="#m88ad2bf611" y="80.9725"/>
      </g>
     </g>
     <g id="text_15">
      <!-- 2.0 -->
      <g transform="translate(544.848358 97.090625)scale(0.12 -0.12)">
       <use xlink:href="#DejaVuSans-50"/>
       <use x="63.623047" xlink:href="#DejaVuSans-46"/>
       <use x="95.410156" xlink:href="#DejaVuSans-48"/>
      </g>
     </g>
    </g>
    <g id="text_16">
     <!-- Time (s) -->
     <g transform="translate(424.851994 112.704375)scale(0.12 -0.12)">
      <use xlink:href="#DejaVuSans-84"/>
      <use x="57.958984" xlink:href="#DejaVuSans-105"/>
      <use x="85.742188" xlink:href="#DejaVuSans-109"/>
      <use x="183.154297" xlink:href="#DejaVuSans-101"/>
      <use x="244.677734" xlink:href="#DejaVuSans-32"/>
      <use x="276.464844" xlink:href="#DejaVuSans-40"/>
      <use x="315.478516" xlink:href="#DejaVuSans-115"/>
      <use x="367.578125" xlink:href="#DejaVuSans-41"/>
     </g>
    </g>
   </g>
   <g id="matplotlib.axis_4">
    <g id="ytick_4">
     <g id="line2d_18">
      <g>
       <use style="stroke:#000000;stroke-width:0.8;" x="333.704375" xlink:href="#mac149fd0c9" y="80.9725"/>
      </g>
     </g>
     <g id="text_17">
      <!-- −2 -->
      <g transform="translate(309.01375 85.531562)scale(0.12 -0.12)">
       <use xlink:href="#DejaVuSans-8722"/>
       <use x="83.789062" xlink:href="#DejaVuSans-50"/>
      </g>
     </g>
    </g>
    <g id="ytick_5">
     <g id="line2d_19">
      <g>
       <use style="stroke:#000000;stroke-width:0.8;" x="333.704375" xlink:href="#mac149fd0c9" y="48.165781"/>
      </g>
     </g>
     <g id="text_18">
      <!-- 0 -->
      <g transform="translate(319.069375 52.724844)scale(0.12 -0.12)">
       <use xlink:href="#DejaVuSans-48"/>
      </g>
     </g>
    </g>
    <g id="ytick_6">
     <g id="line2d_20">
      <g>
       <use style="stroke:#000000;stroke-width:0.8;" x="333.704375" xlink:href="#mac149fd0c9" y="15.359062"/>
      </g>
     </g>
     <g id="text_19">
      <!-- 2 -->
      <g transform="translate(319.069375 19.918125)scale(0.12 -0.12)">
       <use xlink:href="#DejaVuSans-50"/>
      </g>
     </g>
    </g>
    <g id="text_20">
     <!-- x -->
     <g transform="translate(302.518125 51.717031)rotate(-90)scale(0.12 -0.12)">
      <use xlink:href="#DejaVuSans-120"/>
     </g>
    </g>
   </g>
   <g id="line2d_21">
    <path clip-path="url(#pad7a70eb24)" d="M 344.208221 26.841414 
L 344.733676 26.584345 
L 345.259131 26.592765 
L 345.889677 26.815749 
L 346.940587 27.444225 
L 349.042407 29.075464 
L 351.039136 30.629526 
L 351.669682 31.191079 
L 352.40532 32.240137 
L 354.191867 34.89504 
L 356.398778 37.807619 
L 358.080234 40.459411 
L 359.551508 42.545231 
L 360.917691 45.014199 
L 365.01624 53.733955 
L 367.012969 56.820707 
L 369.955517 60.928301 
L 373.633703 66.497256 
L 374.474431 67.196333 
L 375.735523 67.898817 
L 377.101706 68.420441 
L 379.834072 69.463307 
L 380.990073 69.895078 
L 381.620619 69.788847 
L 382.356256 69.431124 
L 383.512257 68.639597 
L 387.820989 65.13531 
L 388.556626 64.069479 
L 390.343173 61.374541 
L 392.444993 58.52707 
L 394.126449 55.829423 
L 395.492632 53.85615 
L 396.648633 51.788101 
L 396.753724 59.778571 
L 397.279179 57.571777 
L 398.014816 55.516212 
L 399.170817 53.058409 
L 400.116636 51.096039 
L 403.479548 43.645198 
L 404.530458 41.846214 
L 406.422097 38.989133 
L 408.629008 35.906412 
L 410.415555 33.012673 
L 411.676647 31.103081 
L 412.622466 29.834627 
L 413.463194 29.126561 
L 414.619195 28.476419 
L 415.775196 28.003955 
L 418.927926 26.835319 
L 420.083927 26.401559 
L 420.714473 26.498756 
L 421.45011 26.844519 
L 422.711202 27.696783 
L 427.125025 31.242482 
L 427.860662 32.311785 
L 429.647209 34.95089 
L 431.749029 37.706677 
L 433.535576 40.518718 
L 434.901759 42.444815 
L 436.267942 44.884231 
L 438.15958 49.203849 
L 439.315581 51.701397 
L 440.997038 54.627575 
L 442.468312 56.880886 
L 445.200678 60.667956 
L 448.878863 66.317324 
L 449.6145 67.001998 
L 450.560319 67.595286 
L 452.136684 68.294317 
L 455.184323 69.436458 
L 456.445415 69.896267 
L 457.075961 69.773306 
L 457.811598 69.404393 
L 458.9676 68.60351 
L 463.381422 64.946727 
L 464.117059 63.821157 
L 465.693424 61.447989 
L 467.795244 58.62652 
L 469.581791 55.766042 
L 470.842883 53.951629 
L 472.209066 51.476461 
L 473.995613 47.353858 
L 475.256705 44.580063 
L 476.833071 41.798874 
L 478.619618 39.08697 
L 480.721438 36.174179 
L 482.297803 33.666646 
L 483.769077 31.373056 
L 485.030169 29.697871 
L 485.870897 29.037407 
L 487.23708 28.312007 
L 489.128718 27.636125 
L 491.44072 26.725954 
L 492.386539 26.400791 
L 493.017085 26.508275 
L 493.752722 26.861506 
L 495.013815 27.719189 
L 499.532728 31.409121 
L 500.373456 32.693128 
L 501.634548 34.575889 
L 503.105822 36.399492 
L 504.051641 37.755435 
L 505.838188 40.556756 
L 507.09928 42.321718 
L 508.465463 44.730453 
L 509.621464 47.348263 
L 511.828376 52.15578 
L 513.509832 55.030897 
L 514.665833 56.779158 
L 517.713472 61.045518 
L 521.496748 66.674953 
L 522.442567 67.377474 
L 523.80875 68.069208 
L 528.748027 69.896296 
L 529.378574 69.763336 
L 530.219302 69.324365 
L 531.375303 68.49651 
L 535.789125 64.769048 
L 536.840035 63.07838 
L 537.996036 61.412123 
L 540.097856 58.578166 
L 541.779312 55.869216 
L 543.250586 53.727327 
L 544.616769 51.187303 
L 548.400046 42.95535 
L 550.081502 40.202744 
L 551.868049 37.756571 
L 553.339323 35.659573 
L 554.285142 34.15481 
L 554.285142 34.15481 
" style="fill:none;stroke:#1f77b4;stroke-linecap:square;stroke-width:1.5;"/>
   </g>
   <g id="line2d_22">
    <path clip-path="url(#pad7a70eb24)" d="M 344.208221 48.165781 
L 346.415132 44.073188 
L 351.354409 35.070043 
L 353.035866 32.826655 
L 354.086776 31.782621 
L 357.134415 29.066206 
L 358.395507 27.924418 
L 359.551508 27.117251 
L 360.287145 26.944911 
L 361.338055 26.957031 
L 363.755148 27.312574 
L 366.277332 27.772761 
L 367.223151 28.421221 
L 368.16897 29.342738 
L 369.535153 30.913881 
L 371.006428 32.94224 
L 372.582793 35.093336 
L 373.528612 36.526996 
L 376.155887 41.09306 
L 379.308617 45.837057 
L 383.82753 54.47499 
L 386.349714 59.345634 
L 387.715898 61.548267 
L 389.187172 63.533147 
L 390.238082 64.595199 
L 393.075539 67.178759 
L 394.441722 68.450254 
L 395.492632 69.211425 
L 396.228269 69.403255 
L 396.648633 69.429969 
L 396.753724 77.632333 
L 397.279179 74.134639 
L 397.804634 72.215606 
L 398.330089 71.178042 
L 398.960635 70.447868 
L 399.696272 69.961902 
L 400.852273 69.51777 
L 402.63882 69.105148 
L 405.476278 68.495783 
L 406.527188 67.70637 
L 407.683189 66.493985 
L 409.259554 64.501455 
L 412.937739 59.128539 
L 415.775196 54.430713 
L 417.771925 51.576235 
L 418.927926 49.487675 
L 421.239928 45.134842 
L 426.809752 35.006385 
L 428.386117 32.897396 
L 429.437027 31.836555 
L 434.901759 27.141761 
L 435.637396 26.952451 
L 436.583215 26.943025 
L 438.474853 27.203126 
L 441.732675 27.796862 
L 442.783585 28.545913 
L 443.729404 29.49892 
L 444.885405 30.839033 
L 446.356679 32.855277 
L 448.248317 35.433415 
L 448.878863 36.419083 
L 451.611229 41.161144 
L 454.658868 45.729716 
L 459.493055 54.992832 
L 461.594875 59.043992 
L 462.750876 60.994369 
L 464.432332 63.336184 
L 465.378151 64.345803 
L 466.639243 65.41279 
L 467.795244 66.443028 
L 469.686882 68.317521 
L 470.947974 69.231378 
L 471.683611 69.409245 
L 472.734521 69.39762 
L 475.151614 69.040198 
L 477.568708 68.598236 
L 478.409436 68.035337 
L 479.355255 67.136503 
L 480.93162 65.311979 
L 482.718167 62.795625 
L 484.08435 60.985769 
L 484.819987 59.83636 
L 487.447262 55.292931 
L 490.810174 50.253934 
L 498.481818 35.913889 
L 500.058183 33.654596 
L 501.214184 32.301546 
L 502.580367 31.126445 
L 504.156732 29.756377 
L 505.838188 28.11653 
L 507.204371 27.129569 
L 507.940008 26.948597 
L 508.885827 26.945306 
L 510.777465 27.207766 
L 514.035287 27.81325 
L 515.086197 28.570705 
L 516.137107 29.637664 
L 517.398199 31.144521 
L 520.866202 35.918715 
L 523.178204 39.977545 
L 524.018932 41.3552 
L 527.171662 46.176177 
L 534.21276 59.663105 
L 535.684034 61.95827 
L 537.260399 63.963012 
L 538.521491 65.099928 
L 540.097856 66.473283 
L 541.884403 68.254597 
L 543.250586 69.242267 
L 543.986223 69.412279 
L 545.037133 69.395002 
L 547.559318 69.020788 
L 549.87132 68.584391 
L 550.817139 67.927959 
L 551.762958 66.996439 
L 553.129141 65.411699 
L 554.285142 63.838574 
L 554.285142 63.838574 
" style="fill:none;stroke:#ff7f0e;stroke-linecap:square;stroke-width:1.5;"/>
   </g>
   <g id="patch_8">
    <path d="M 333.704375 80.9725 
L 333.704375 15.359062 
" style="fill:none;stroke:#000000;stroke-linecap:square;stroke-linejoin:miter;stroke-width:0.8;"/>
   </g>
   <g id="patch_9">
    <path d="M 564.788988 80.9725 
L 564.788988 15.359062 
" style="fill:none;stroke:#000000;stroke-linecap:square;stroke-linejoin:miter;stroke-width:0.8;"/>
   </g>
   <g id="patch_10">
    <path d="M 333.704375 80.9725 
L 564.788988 80.9725 
" style="fill:none;stroke:#000000;stroke-linecap:square;stroke-linejoin:miter;stroke-width:0.8;"/>
   </g>
   <g id="patch_11">
    <path d="M 333.704375 15.359062 
L 564.788988 15.359062 
" style="fill:none;stroke:#000000;stroke-linecap:square;stroke-linejoin:miter;stroke-width:0.8;"/>
   </g>
  </g>
 </g>
 <defs>
  <clipPath id="p7ca13419af">
   <rect height="65.613438" width="231.084613" x="51.104375" y="15.359062"/>
  </clipPath>
  <clipPath id="pad7a70eb24">
   <rect height="65.613438" width="231.084613" x="333.704375" y="15.359062"/>
  </clipPath>
 </defs>
</svg>
