<?xml version="1.0" encoding="utf-8" standalone="no"?>
<!DOCTYPE svg PUBLIC "-//W3C//DTD SVG 1.1//EN"
  "http://www.w3.org/Graphics/SVG/1.1/DTD/svg11.dtd">
<!-- Created with matplotlib (https://matplotlib.org/) -->
<svg height="288pt" version="1.1" viewBox="0 0 223.2 288" width="223.2pt" xmlns="http://www.w3.org/2000/svg" xmlns:xlink="http://www.w3.org/1999/xlink">
 <metadata>
  <rdf:RDF xmlns:cc="http://creativecommons.org/ns#" xmlns:dc="http://purl.org/dc/elements/1.1/" xmlns:rdf="http://www.w3.org/1999/02/22-rdf-syntax-ns#">
   <cc:Work>
    <dc:type rdf:resource="http://purl.org/dc/dcmitype/StillImage"/>
    <dc:date>2025-11-04T17:30:36.152165</dc:date>
    <dc:format>image/svg+xml</dc:format>
    <dc:creator>
     <cc:Agent>
      <dc:title>Matplotlib v3.3.4, https://matplotlib.org/</dc:title>
     </cc:Agent>
    </dc:creator>
   </cc:Work>
  </rdf:RDF>
 </metadata>
 <defs>
  <style type="text/css">*{stroke-linecap:butt;stroke-linejoin:round;}</style>
 </defs>
 <g id="figure_1">
  <g id="patch_1">
   <path d="M 0 288 
L 223.2 288 
L 223.2 0 
L 0 0 
z
" style="fill:none;"/>
  </g>
  <g id="axes_1">
   <g id="patch_2">
    <path d="M 62.553125 104.3725 
L 212.4 104.3725 
L 212.4 15.359062 
L 62.553125 15.359062 
z
" style="fill:#ffffff;"/>
   </g>
   <g id="matplotlib.axis_1">
    <g id="xtick_1">
     <g id="line2d_1">
      <defs>
       <path d="M 0 0 
L 0 3.5 
" id="m488bc50308" style="stroke:#000000;stroke-width:0.8;"/>
      </defs>
      <g>
       <use style="stroke:#000000;stroke-width:0.8;" x="69.364347" xlink:href="#m488bc50308" y="104.3725"/>
      </g>
     </g>
     <g id="text_1">
      <!-- −2 -->
      <g transform="translate(60.519034 120.490625)scale(0.12 -0.12)">
       <defs>
        <path d="M 10.59375 35.5 
L 73.1875 35.5 
L 73.1875 27.203125 
L 10.59375 27.203125 
z
" id="DejaVuSans-8722"/>
        <path d="M 19.1875 8.296875 
L 53.609375 8.296875 
L 53.609375 0 
L 7.328125 0 
L 7.328125 8.296875 
Q 12.9375 14.109375 22.625 23.890625 
Q 32.328125 33.6875 34.8125 36.53125 
Q 39.546875 41.84375 41.421875 45.53125 
Q 43.3125 49.21875 43.3125 52.78125 
Q 43.3125 58.59375 39.234375 62.25 
Q 35.15625 65.921875 28.609375 65.921875 
Q 23.96875 65.921875 18.8125 64.3125 
Q 13.671875 62.703125 7.8125 59.421875 
L 7.8125 69.390625 
Q 13.765625 71.78125 18.9375 73 
Q 24.125 74.21875 28.421875 74.21875 
Q 39.75 74.21875 46.484375 68.546875 
Q 53.21875 62.890625 53.21875 53.421875 
Q 53.21875 48.921875 51.53125 44.890625 
Q 49.859375 40.875 45.40625 35.40625 
Q 44.1875 33.984375 37.640625 27.21875 
Q 31.109375 20.453125 19.1875 8.296875 
z
" id="DejaVuSans-50"/>
       </defs>
       <use xlink:href="#DejaVuSans-8722"/>
       <use x="83.789062" xlink:href="#DejaVuSans-50"/>
      </g>
     </g>
    </g>
    <g id="xtick_2">
     <g id="line2d_2">
      <g>
       <use style="stroke:#000000;stroke-width:0.8;" x="137.476562" xlink:href="#m488bc50308" y="104.3725"/>
      </g>
     </g>
     <g id="text_2">
      <!-- 0 -->
      <g transform="translate(133.659063 120.490625)scale(0.12 -0.12)">
       <defs>
        <path d="M 31.78125 66.40625 
Q 24.171875 66.40625 20.328125 58.90625 
Q 16.5 51.421875 16.5 36.375 
Q 16.5 21.390625 20.328125 13.890625 
Q 24.171875 6.390625 31.78125 6.390625 
Q 39.453125 6.390625 43.28125 13.890625 
Q 47.125 21.390625 47.125 36.375 
Q 47.125 51.421875 43.28125 58.90625 
Q 39.453125 66.40625 31.78125 66.40625 
z
M 31.78125 74.21875 
Q 44.046875 74.21875 50.515625 64.515625 
Q 56.984375 54.828125 56.984375 36.375 
Q 56.984375 17.96875 50.515625 8.265625 
Q 44.046875 -1.421875 31.78125 -1.421875 
Q 19.53125 -1.421875 13.0625 8.265625 
Q 6.59375 17.96875 6.59375 36.375 
Q 6.59375 54.828125 13.0625 64.515625 
Q 19.53125 74.21875 31.78125 74.21875 
z
" id="DejaVuSans-48"/>
       </defs>
       <use xlink:href="#DejaVuSans-48"/>
      </g>
     </g>
    </g>
    <g id="xtick_3">
     <g id="line2d_3">
      <g>
       <use style="stroke:#000000;stroke-width:0.8;" x="205.588778" xlink:href="#m488bc50308" y="104.3725"/>
      </g>
     </g>
     <g id="text_3">
      <!-- 2 -->
      <g transform="translate(201.771278 120.490625)scale(0.12 -0.12)">
       <use xlink:href="#DejaVuSans-50"/>
      </g>
     </g>
    </g>
    <g id="text_4">
     <!-- $x_1$ -->
     <g transform="translate(131.056563 136.104375)scale(0.12 -0.12)">
      <defs>
       <path d="M 60.015625 54.6875 
L 34.90625 27.875 
L 50.296875 0 
L 39.984375 0 
L 28.421875 21.6875 
L 8.296875 0 
L -2.59375 0 
L 24.3125 28.8125 
L 10.015625 54.6875 
L 20.3125 54.6875 
L 30.8125 34.90625 
L 49.125 54.6875 
z
" id="DejaVuSans-Oblique-120"/>
       <path d="M 12.40625 8.296875 
L 28.515625 8.296875 
L 28.515625 63.921875 
L 10.984375 60.40625 
L 10.984375 69.390625 
L 28.421875 72.90625 
L 38.28125 72.90625 
L 38.28125 8.296875 
L 54.390625 8.296875 
L 54.390625 0 
L 12.40625 0 
z
" id="DejaVuSans-49"/>
      </defs>
      <use transform="translate(0 0.3125)" xlink:href="#DejaVuSans-Oblique-120"/>
      <use transform="translate(59.179688 -16.09375)scale(0.7)" xlink:href="#DejaVuSans-49"/>
     </g>
    </g>
   </g>
   <g id="matplotlib.axis_2">
    <g id="ytick_1">
     <g id="line2d_4">
      <defs>
       <path d="M 0 0 
L -3.5 0 
" id="m74b9fdd9f7" style="stroke:#000000;stroke-width:0.8;"/>
      </defs>
      <g>
       <use style="stroke:#000000;stroke-width:0.8;" x="62.553125" xlink:href="#m74b9fdd9f7" y="104.3725"/>
      </g>
     </g>
     <g id="text_5">
      <!-- −50 -->
      <g transform="translate(30.2275 108.931563)scale(0.12 -0.12)">
       <defs>
        <path d="M 10.796875 72.90625 
L 49.515625 72.90625 
L 49.515625 64.59375 
L 19.828125 64.59375 
L 19.828125 46.734375 
Q 21.96875 47.46875 24.109375 47.828125 
Q 26.265625 48.1875 28.421875 48.1875 
Q 40.625 48.1875 47.75 41.5 
Q 54.890625 34.8125 54.890625 23.390625 
Q 54.890625 11.625 47.5625 5.09375 
Q 40.234375 -1.421875 26.90625 -1.421875 
Q 22.3125 -1.421875 17.546875 -0.640625 
Q 12.796875 0.140625 7.71875 1.703125 
L 7.71875 11.625 
Q 12.109375 9.234375 16.796875 8.0625 
Q 21.484375 6.890625 26.703125 6.890625 
Q 35.15625 6.890625 40.078125 11.328125 
Q 45.015625 15.765625 45.015625 23.390625 
Q 45.015625 31 40.078125 35.4375 
Q 35.15625 39.890625 26.703125 39.890625 
Q 22.75 39.890625 18.8125 39.015625 
Q 14.890625 38.140625 10.796875 36.28125 
z
" id="DejaVuSans-53"/>
       </defs>
       <use xlink:href="#DejaVuSans-8722"/>
       <use x="83.789062" xlink:href="#DejaVuSans-53"/>
       <use x="147.412109" xlink:href="#DejaVuSans-48"/>
      </g>
     </g>
    </g>
    <g id="ytick_2">
     <g id="line2d_5">
      <g>
       <use style="stroke:#000000;stroke-width:0.8;" x="62.553125" xlink:href="#m74b9fdd9f7" y="82.119141"/>
      </g>
     </g>
     <g id="text_6">
      <!-- −25 -->
      <g transform="translate(30.2275 86.678203)scale(0.12 -0.12)">
       <use xlink:href="#DejaVuSans-8722"/>
       <use x="83.789062" xlink:href="#DejaVuSans-50"/>
       <use x="147.412109" xlink:href="#DejaVuSans-53"/>
      </g>
     </g>
    </g>
    <g id="ytick_3">
     <g id="line2d_6">
      <g>
       <use style="stroke:#000000;stroke-width:0.8;" x="62.553125" xlink:href="#m74b9fdd9f7" y="59.865781"/>
      </g>
     </g>
     <g id="text_7">
      <!-- 0 -->
      <g transform="translate(47.918125 64.424844)scale(0.12 -0.12)">
       <use xlink:href="#DejaVuSans-48"/>
      </g>
     </g>
    </g>
    <g id="ytick_4">
     <g id="line2d_7">
      <g>
       <use style="stroke:#000000;stroke-width:0.8;" x="62.553125" xlink:href="#m74b9fdd9f7" y="37.612422"/>
      </g>
     </g>
     <g id="text_8">
      <!-- 25 -->
      <g transform="translate(40.283125 42.171484)scale(0.12 -0.12)">
       <use xlink:href="#DejaVuSans-50"/>
       <use x="63.623047" xlink:href="#DejaVuSans-53"/>
      </g>
     </g>
    </g>
    <g id="ytick_5">
     <g id="line2d_8">
      <g>
       <use style="stroke:#000000;stroke-width:0.8;" x="62.553125" xlink:href="#m74b9fdd9f7" y="15.359063"/>
      </g>
     </g>
     <g id="text_9">
      <!-- 50 -->
      <g transform="translate(40.283125 19.918125)scale(0.12 -0.12)">
       <use xlink:href="#DejaVuSans-53"/>
       <use x="63.623047" xlink:href="#DejaVuSans-48"/>
      </g>
     </g>
    </g>
    <g id="text_10">
     <!-- $dx_1/dt$ -->
     <g transform="translate(23.731875 78.285781)rotate(-90)scale(0.12 -0.12)">
      <defs>
       <path d="M 41.796875 8.203125 
Q 38.1875 3.46875 33.25 1.015625 
Q 28.328125 -1.421875 22.3125 -1.421875 
Q 14.109375 -1.421875 9.34375 4.171875 
Q 4.59375 9.765625 4.59375 19.484375 
Q 4.59375 27.59375 7.46875 34.9375 
Q 10.359375 42.28125 15.828125 48.09375 
Q 19.4375 51.953125 23.96875 53.96875 
Q 28.515625 56 33.5 56 
Q 38.765625 56 42.796875 53.453125 
Q 46.828125 50.921875 49.03125 46.1875 
L 54.890625 75.984375 
L 63.921875 75.984375 
L 49.125 0 
L 40.09375 0 
z
M 13.921875 21.09375 
Q 13.921875 14.015625 17.109375 10.0625 
Q 20.3125 6.109375 25.984375 6.109375 
Q 30.171875 6.109375 33.765625 8.125 
Q 37.359375 10.15625 40.09375 14.109375 
Q 42.96875 18.21875 44.625 23.578125 
Q 46.296875 28.953125 46.296875 34.1875 
Q 46.296875 40.96875 43.09375 44.765625 
Q 39.890625 48.578125 34.28125 48.578125 
Q 30.03125 48.578125 26.359375 46.578125 
Q 22.703125 44.578125 20.125 40.828125 
Q 17.28125 36.765625 15.59375 31.390625 
Q 13.921875 26.03125 13.921875 21.09375 
z
" id="DejaVuSans-Oblique-100"/>
       <path d="M 25.390625 72.90625 
L 33.6875 72.90625 
L 8.296875 -9.28125 
L 0 -9.28125 
z
" id="DejaVuSans-47"/>
       <path d="M 42.28125 54.6875 
L 40.921875 47.703125 
L 23 47.703125 
L 17.1875 18.015625 
Q 16.890625 16.359375 16.75 15.234375 
Q 16.609375 14.109375 16.609375 13.484375 
Q 16.609375 10.359375 18.484375 8.9375 
Q 20.359375 7.515625 24.515625 7.515625 
L 33.59375 7.515625 
L 32.078125 0 
L 23.484375 0 
Q 15.484375 0 11.546875 3.125 
Q 7.625 6.25 7.625 12.59375 
Q 7.625 13.71875 7.765625 15.0625 
Q 7.90625 16.40625 8.203125 18.015625 
L 14.015625 47.703125 
L 6.390625 47.703125 
L 7.8125 54.6875 
L 15.28125 54.6875 
L 18.3125 70.21875 
L 27.296875 70.21875 
L 24.3125 54.6875 
z
" id="DejaVuSans-Oblique-116"/>
      </defs>
      <use transform="translate(0 0.015625)" xlink:href="#DejaVuSans-Oblique-100"/>
      <use transform="translate(63.476562 0.015625)" xlink:href="#DejaVuSans-Oblique-120"/>
      <use transform="translate(122.65625 -16.390625)scale(0.7)" xlink:href="#DejaVuSans-49"/>
      <use transform="translate(169.926758 0.015625)" xlink:href="#DejaVuSans-47"/>
      <use transform="translate(203.618164 0.015625)" xlink:href="#DejaVuSans-Oblique-100"/>
      <use transform="translate(267.094727 0.015625)" xlink:href="#DejaVuSans-Oblique-116"/>
     </g>
    </g>
   </g>
   <g id="line2d_9">
    <path clip-path="url(#p3bc19e55e4)" d="M 69.364347 15.89915 
L 70.740351 19.503865 
L 72.116355 23.106467 
L 73.49236 26.717865 
L 74.868364 30.33086 
L 76.244368 33.936578 
L 77.620373 37.536727 
L 78.996377 41.136674 
L 80.372381 44.746355 
L 81.748386 48.347709 
L 83.12439 51.932845 
L 84.500395 55.459877 
L 85.876399 58.636412 
L 87.252403 60.531982 
L 88.628408 59.596781 
L 90.004412 59.993291 
L 91.380416 60.652812 
L 92.756421 59.155524 
L 94.132425 59.22542 
L 95.508429 57.872738 
L 96.884434 58.659538 
L 98.260438 60.273934 
L 99.636443 60.874672 
L 101.012447 61.337298 
L 102.388451 60.544215 
L 103.764456 61.009049 
L 105.14046 60.345445 
L 106.516464 58.665284 
L 107.892469 58.977852 
L 109.268473 59.708218 
L 110.644477 60.360245 
L 112.020482 58.993383 
L 113.396486 59.192965 
L 114.772491 59.964865 
L 116.148495 59.760104 
L 117.524499 60.466188 
L 118.900504 59.594027 
L 120.276508 59.843818 
L 121.652512 59.901181 
L 123.028517 60.235701 
L 124.404521 60.253823 
L 125.780525 60.314775 
L 127.15653 59.494168 
L 128.532534 59.860741 
L 129.908539 59.558883 
L 131.284543 59.048766 
L 132.660547 59.366202 
L 134.036552 60.149535 
L 135.412556 60.122394 
L 136.78856 60.315435 
L 138.164565 59.964514 
L 139.540569 59.654256 
L 140.916573 59.899029 
L 142.292578 59.654506 
L 143.668582 59.868684 
L 145.044586 59.669319 
L 146.420591 60.547968 
L 147.796595 60.202113 
L 149.1726 59.971637 
L 150.548604 59.610137 
L 151.924608 59.214309 
L 153.300613 60.101457 
L 154.676617 59.265921 
L 156.052621 60.304774 
L 157.428626 61.144813 
L 158.80463 59.631769 
L 160.180634 60.381863 
L 161.556639 59.766976 
L 162.932643 58.322969 
L 164.308648 58.45368 
L 165.684652 58.697553 
L 167.060656 60.467935 
L 168.436661 61.637582 
L 169.812665 60.367956 
L 171.188669 60.242745 
L 172.564674 59.151186 
L 173.940678 60.083518 
L 175.316682 59.752002 
L 176.692687 59.746974 
L 178.068691 59.170215 
L 179.444696 60.190098 
L 180.8207 59.686376 
L 182.196704 59.712915 
L 183.572709 60.472737 
L 184.948713 60.309496 
L 186.324717 59.629124 
L 187.700722 59.356821 
L 189.076726 60.544581 
L 190.45273 63.618854 
L 191.828735 67.094002 
L 193.204739 70.633392 
L 194.580744 74.198654 
L 195.956748 77.764914 
L 197.332752 81.336888 
L 198.708757 84.906887 
L 200.084761 88.480142 
L 201.460765 92.061118 
L 202.83677 95.634722 
L 204.212774 99.214345 
L 205.588778 102.792683 
" style="fill:none;stroke:#1f77b4;stroke-linecap:square;stroke-width:1.5;"/>
   </g>
   <g id="line2d_10">
    <path clip-path="url(#p3bc19e55e4)" d="M 69.364347 15.153128 
L 70.740351 18.758417 
L 72.116355 22.361558 
L 73.49236 25.973438 
L 74.868364 29.586854 
L 76.244368 33.19294 
L 77.620373 36.793457 
L 78.996377 40.393907 
L 80.372381 44.004479 
L 81.748386 47.607016 
L 83.12439 51.191917 
L 84.500395 54.726673 
L 85.876399 58.10759 
L 87.252403 60.498852 
L 88.628408 59.443961 
L 90.004412 59.748036 
L 91.380416 60.364202 
L 92.756421 58.846198 
L 94.132425 58.90126 
L 95.508429 57.527496 
L 96.884434 58.305828 
L 98.260438 59.948896 
L 99.636443 60.561376 
L 101.012447 61.02633 
L 102.388451 60.23182 
L 103.764456 60.692658 
L 105.14046 60.01966 
L 106.516464 58.276084 
L 107.892469 58.571575 
L 109.268473 59.306646 
L 110.644477 59.959917 
L 112.020482 58.591723 
L 113.396486 58.788215 
L 114.772491 59.554531 
L 116.148495 59.334483 
L 117.524499 60.01363 
L 118.900504 59.152219 
L 120.276508 59.402648 
L 121.652512 59.460012 
L 123.028517 59.79376 
L 124.404521 59.810035 
L 125.780525 59.864817 
L 127.15653 58.959949 
L 128.532534 59.314581 
L 129.908539 59.021987 
L 131.284543 58.514904 
L 132.660547 58.833855 
L 134.036552 59.617997 
L 135.412556 59.591144 
L 136.78856 59.78284 
L 138.164565 59.431474 
L 139.540569 59.122501 
L 140.916573 59.367749 
L 142.292578 59.123526 
L 143.668582 59.338015 
L 145.044586 59.139385 
L 146.420591 60.020744 
L 147.796595 59.702516 
L 149.1726 59.471395 
L 150.548604 59.10271 
L 151.924608 58.705434 
L 153.300613 59.592626 
L 154.676617 58.757979 
L 156.052621 59.803022 
L 157.428626 60.70622 
L 158.80463 59.218233 
L 160.180634 59.951361 
L 161.556639 59.329238 
L 162.932643 57.883623 
L 164.308648 58.015201 
L 165.684652 58.261884 
L 167.060656 60.040968 
L 168.436661 61.267255 
L 169.812665 59.985471 
L 171.188669 59.856225 
L 172.564674 58.765456 
L 173.940678 59.70272 
L 175.316682 59.382058 
L 176.692687 59.39847 
L 178.068691 58.94131 
L 179.444696 60.06875 
L 180.8207 59.567536 
L 182.196704 59.585098 
L 183.572709 60.31829 
L 184.948713 60.097723 
L 186.324717 59.313075 
L 187.700722 58.864993 
L 189.076726 60.213085 
L 190.45273 63.478449 
L 191.828735 66.968809 
L 193.204739 70.511595 
L 194.580744 74.080082 
L 195.956748 77.650523 
L 197.332752 81.227775 
L 198.708757 84.803989 
L 200.084761 88.384188 
L 201.460765 91.972608 
L 202.83677 95.553887 
L 204.212774 99.141156 
L 205.588778 102.726881 
" style="fill:none;stroke:#ff7f0e;stroke-linecap:square;stroke-width:1.5;"/>
   </g>
   <g id="line2d_11">
    <path clip-path="url(#p3bc19e55e4)" d="M 114.189611 -1 
L 114.772491 0.52349 
L 116.148495 4.119992 
L 117.524499 7.716495 
L 118.900504 11.312997 
L 120.276508 14.9095 
L 121.652512 18.506002 
L 123.028517 22.102505 
L 124.404521 25.699007 
L 125.780525 29.29551 
L 127.15653 32.892012 
L 128.532534 36.488515 
L 129.908539 40.085017 
L 131.284543 43.68152 
L 132.660547 47.278022 
L 134.036552 50.874525 
L 135.412556 54.471027 
L 136.78856 58.06753 
L 138.164565 61.664033 
L 139.540569 65.260535 
L 140.916573 68.857038 
L 142.292578 72.45354 
L 143.668582 76.050043 
L 145.044586 79.646545 
L 146.420591 83.243048 
L 147.796595 86.83955 
L 149.1726 90.436053 
L 150.548604 94.032555 
L 151.924608 97.629058 
L 153.300613 101.22556 
L 154.676617 104.822063 
L 156.052621 108.418565 
L 157.428626 112.015068 
L 158.80463 115.61157 
L 160.180634 119.208073 
L 161.556639 122.804575 
L 162.932643 126.401078 
L 164.308648 129.99758 
L 165.684652 133.594083 
L 167.060656 137.190586 
L 168.436661 140.787088 
L 169.812665 144.383591 
L 171.188669 147.980093 
L 172.564674 151.576596 
L 173.940678 155.173098 
L 175.316682 158.769601 
L 176.692687 162.366103 
L 178.068691 165.962606 
L 179.444696 169.559108 
L 180.8207 173.155611 
L 182.196704 176.752113 
L 183.572709 180.348616 
L 184.948713 183.945118 
L 186.324717 187.541621 
L 187.700722 191.138123 
L 189.076726 194.734626 
L 190.45273 198.331128 
L 191.828735 201.927631 
L 193.204739 205.524134 
L 194.580744 209.120636 
L 195.956748 212.717139 
L 197.332752 216.313641 
L 198.708757 219.910144 
L 200.084761 223.506646 
L 201.460765 227.103149 
L 202.83677 230.699651 
L 204.212774 234.296154 
L 205.588778 237.892656 
" style="fill:none;stroke:#808080;stroke-linecap:square;stroke-width:1.5;"/>
   </g>
   <g id="line2d_12">
    <path clip-path="url(#p3bc19e55e4)" d="M 62.553125 59.865781 
L 212.4 59.865781 
" style="fill:none;stroke:#808080;stroke-dasharray:1.85,0.8;stroke-dashoffset:0;stroke-width:0.5;"/>
   </g>
   <g id="patch_3">
    <path d="M 62.553125 104.3725 
L 62.553125 15.359063 
" style="fill:none;stroke:#000000;stroke-linecap:square;stroke-linejoin:miter;stroke-width:0.8;"/>
   </g>
   <g id="patch_4">
    <path d="M 212.4 104.3725 
L 212.4 15.359063 
" style="fill:none;stroke:#000000;stroke-linecap:square;stroke-linejoin:miter;stroke-width:0.8;"/>
   </g>
   <g id="patch_5">
    <path d="M 62.553125 104.3725 
L 212.4 104.3725 
" style="fill:none;stroke:#000000;stroke-linecap:square;stroke-linejoin:miter;stroke-width:0.8;"/>
   </g>
   <g id="patch_6">
    <path d="M 62.553125 15.359062 
L 212.4 15.359062 
" style="fill:none;stroke:#000000;stroke-linecap:square;stroke-linejoin:miter;stroke-width:0.8;"/>
   </g>
  </g>
  <g id="axes_2">
   <g id="patch_7">
    <path d="M 62.553125 242.9725 
L 212.4 242.9725 
L 212.4 153.959062 
L 62.553125 153.959062 
z
" style="fill:#ffffff;"/>
   </g>
   <g id="matplotlib.axis_3">
    <g id="xtick_4">
     <g id="line2d_13">
      <g>
       <use style="stroke:#000000;stroke-width:0.8;" x="69.364347" xlink:href="#m488bc50308" y="242.9725"/>
      </g>
     </g>
     <g id="text_11">
      <!-- −2 -->
      <g transform="translate(60.519034 259.090625)scale(0.12 -0.12)">
       <use xlink:href="#DejaVuSans-8722"/>
       <use x="83.789062" xlink:href="#DejaVuSans-50"/>
      </g>
     </g>
    </g>
    <g id="xtick_5">
     <g id="line2d_14">
      <g>
       <use style="stroke:#000000;stroke-width:0.8;" x="137.476562" xlink:href="#m488bc50308" y="242.9725"/>
      </g>
     </g>
     <g id="text_12">
      <!-- 0 -->
      <g transform="translate(133.659063 259.090625)scale(0.12 -0.12)">
       <use xlink:href="#DejaVuSans-48"/>
      </g>
     </g>
    </g>
    <g id="xtick_6">
     <g id="line2d_15">
      <g>
       <use style="stroke:#000000;stroke-width:0.8;" x="205.588778" xlink:href="#m488bc50308" y="242.9725"/>
      </g>
     </g>
     <g id="text_13">
      <!-- 2 -->
      <g transform="translate(201.771278 259.090625)scale(0.12 -0.12)">
       <use xlink:href="#DejaVuSans-50"/>
      </g>
     </g>
    </g>
    <g id="text_14">
     <!-- $x_1$ -->
     <g transform="translate(131.056563 274.704375)scale(0.12 -0.12)">
      <use transform="translate(0 0.3125)" xlink:href="#DejaVuSans-Oblique-120"/>
      <use transform="translate(59.179688 -16.09375)scale(0.7)" xlink:href="#DejaVuSans-49"/>
     </g>
    </g>
   </g>
   <g id="matplotlib.axis_4">
    <g id="ytick_6">
     <g id="line2d_16">
      <g>
       <use style="stroke:#000000;stroke-width:0.8;" x="62.553125" xlink:href="#m74b9fdd9f7" y="242.9725"/>
      </g>
     </g>
     <g id="text_15">
      <!-- −5.0 -->
      <g transform="translate(26.41375 247.531563)scale(0.12 -0.12)">
       <defs>
        <path d="M 10.6875 12.40625 
L 21 12.40625 
L 21 0 
L 10.6875 0 
z
" id="DejaVuSans-46"/>
       </defs>
       <use xlink:href="#DejaVuSans-8722"/>
       <use x="83.789062" xlink:href="#DejaVuSans-53"/>
       <use x="147.412109" xlink:href="#DejaVuSans-46"/>
       <use x="179.199219" xlink:href="#DejaVuSans-48"/>
      </g>
     </g>
    </g>
    <g id="ytick_7">
     <g id="line2d_17">
      <g>
       <use style="stroke:#000000;stroke-width:0.8;" x="62.553125" xlink:href="#m74b9fdd9f7" y="220.719141"/>
      </g>
     </g>
     <g id="text_16">
      <!-- −2.5 -->
      <g transform="translate(26.41375 225.278203)scale(0.12 -0.12)">
       <use xlink:href="#DejaVuSans-8722"/>
       <use x="83.789062" xlink:href="#DejaVuSans-50"/>
       <use x="147.412109" xlink:href="#DejaVuSans-46"/>
       <use x="179.199219" xlink:href="#DejaVuSans-53"/>
      </g>
     </g>
    </g>
    <g id="ytick_8">
     <g id="line2d_18">
      <g>
       <use style="stroke:#000000;stroke-width:0.8;" x="62.553125" xlink:href="#m74b9fdd9f7" y="198.465781"/>
      </g>
     </g>
     <g id="text_17">
      <!-- 0.0 -->
      <g transform="translate(36.469375 203.024844)scale(0.12 -0.12)">
       <use xlink:href="#DejaVuSans-48"/>
       <use x="63.623047" xlink:href="#DejaVuSans-46"/>
       <use x="95.410156" xlink:href="#DejaVuSans-48"/>
      </g>
     </g>
    </g>
    <g id="ytick_9">
     <g id="line2d_19">
      <g>
       <use style="stroke:#000000;stroke-width:0.8;" x="62.553125" xlink:href="#m74b9fdd9f7" y="176.212422"/>
      </g>
     </g>
     <g id="text_18">
      <!-- 2.5 -->
      <g transform="translate(36.469375 180.771484)scale(0.12 -0.12)">
       <use xlink:href="#DejaVuSans-50"/>
       <use x="63.623047" xlink:href="#DejaVuSans-46"/>
       <use x="95.410156" xlink:href="#DejaVuSans-53"/>
      </g>
     </g>
    </g>
    <g id="ytick_10">
     <g id="line2d_20">
      <g>
       <use style="stroke:#000000;stroke-width:0.8;" x="62.553125" xlink:href="#m74b9fdd9f7" y="153.959062"/>
      </g>
     </g>
     <g id="text_19">
      <!-- 5.0 -->
      <g transform="translate(36.469375 158.518125)scale(0.12 -0.12)">
       <use xlink:href="#DejaVuSans-53"/>
       <use x="63.623047" xlink:href="#DejaVuSans-46"/>
       <use x="95.410156" xlink:href="#DejaVuSans-48"/>
      </g>
     </g>
    </g>
    <g id="text_20">
     <!-- $dx_1/dt$ -->
     <g transform="translate(19.918125 216.885781)rotate(-90)scale(0.12 -0.12)">
      <use transform="translate(0 0.015625)" xlink:href="#DejaVuSans-Oblique-100"/>
      <use transform="translate(63.476562 0.015625)" xlink:href="#DejaVuSans-Oblique-120"/>
      <use transform="translate(122.65625 -16.390625)scale(0.7)" xlink:href="#DejaVuSans-49"/>
      <use transform="translate(169.926758 0.015625)" xlink:href="#DejaVuSans-47"/>
      <use transform="translate(203.618164 0.015625)" xlink:href="#DejaVuSans-Oblique-100"/>
      <use transform="translate(267.094727 0.015625)" xlink:href="#DejaVuSans-Oblique-116"/>
     </g>
    </g>
   </g>
   <g id="line2d_21">
    <path clip-path="url(#p1a189ad681)" d="M 78.531024 -1 
L 78.996377 11.174712 
L 80.372381 47.271518 
L 81.748386 83.285061 
L 83.12439 119.13642 
L 84.500395 154.406738 
L 85.876399 186.172093 
L 87.252403 205.127784 
L 88.628408 195.775784 
L 90.004412 199.740878 
L 91.380416 206.336091 
L 92.756421 191.363213 
L 94.132425 192.062172 
L 95.508429 178.535352 
L 96.884434 186.403349 
L 98.260438 202.547307 
L 99.636443 208.554684 
L 101.012447 213.180945 
L 102.388451 205.250124 
L 103.764456 209.898456 
L 105.14046 203.262415 
L 106.516464 186.460812 
L 107.892469 189.586484 
L 109.268473 196.890147 
L 110.644477 203.410421 
L 112.020482 189.741796 
L 113.396486 191.737616 
L 114.772491 199.456616 
L 116.148495 197.409013 
L 117.524499 204.469851 
L 118.900504 195.748244 
L 120.276508 198.246153 
L 121.652512 198.819779 
L 123.028517 202.164983 
L 124.404521 202.346201 
L 125.780525 202.955721 
L 127.15653 194.74965 
L 128.532534 198.415377 
L 129.908539 195.396799 
L 131.284543 190.295625 
L 132.660547 193.469985 
L 134.036552 201.303321 
L 135.412556 201.031907 
L 136.78856 202.962317 
L 138.164565 199.453111 
L 139.540569 196.350527 
L 140.916573 198.798259 
L 142.292578 196.353027 
L 143.668582 198.494813 
L 145.044586 196.501163 
L 146.420591 205.287652 
L 147.796595 201.829099 
L 149.1726 199.524342 
L 150.548604 195.909341 
L 151.924608 191.951063 
L 153.300613 200.822541 
L 154.676617 192.467183 
L 156.052621 202.855709 
L 157.428626 211.2561 
L 158.80463 196.125657 
L 160.180634 203.626596 
L 161.556639 197.477726 
L 162.932643 183.037655 
L 164.308648 184.344773 
L 165.684652 186.7835 
L 167.060656 204.487315 
L 168.436661 216.183789 
L 169.812665 203.487534 
L 171.188669 202.235419 
L 172.564674 191.319832 
L 173.940678 200.643147 
L 175.316682 197.327991 
L 176.692687 197.277707 
L 178.068691 191.51012 
L 179.444696 201.708951 
L 180.8207 196.671726 
L 182.196704 196.937123 
L 183.572709 204.535341 
L 184.948713 202.902927 
L 186.324717 196.099211 
L 187.700722 193.376178 
L 189.076726 205.253775 
L 190.45273 235.996513 
L 191.828735 270.747986 
L 192.538316 289 
" style="fill:none;stroke:#1f77b4;stroke-linecap:square;stroke-width:1.5;"/>
   </g>
   <g id="line2d_22">
    <path clip-path="url(#p1a189ad681)" d="M 78.814957 -1 
L 78.996377 3.74704 
L 80.372381 39.852762 
L 81.748386 75.878125 
L 83.12439 111.727136 
L 84.500395 147.074694 
L 85.876399 180.883869 
L 87.252403 204.796487 
L 88.628408 194.247582 
L 90.004412 197.288325 
L 91.380416 203.449992 
L 92.756421 188.269944 
L 94.132425 188.82057 
L 95.508429 175.082926 
L 96.884434 182.866248 
L 98.260438 199.296926 
L 99.636443 205.421725 
L 101.012447 210.07127 
L 102.388451 202.126165 
L 103.764456 206.734548 
L 105.14046 200.004569 
L 106.516464 182.568813 
L 107.892469 185.523716 
L 109.268473 192.874425 
L 110.644477 199.407143 
L 112.020482 185.725196 
L 113.396486 187.690123 
L 114.772491 195.35328 
L 116.148495 193.152796 
L 117.524499 199.944271 
L 118.900504 191.330156 
L 120.276508 193.834444 
L 121.652512 194.408093 
L 123.028517 197.745569 
L 124.404521 197.908322 
L 125.780525 198.456139 
L 127.15653 189.407456 
L 128.532534 192.953781 
L 129.908539 190.027838 
L 131.284543 184.957014 
L 132.660547 188.146518 
L 134.036552 195.987944 
L 135.412556 195.719413 
L 136.78856 197.636367 
L 138.164565 194.122704 
L 139.540569 191.032975 
L 140.916573 193.485456 
L 142.292578 191.043224 
L 143.668582 193.188121 
L 145.044586 191.201823 
L 146.420591 200.015409 
L 147.796595 196.833129 
L 149.1726 194.521917 
L 150.548604 190.835068 
L 151.924608 186.862304 
L 153.300613 195.734227 
L 154.676617 187.387763 
L 156.052621 197.838194 
L 157.428626 206.870169 
L 158.80463 191.990295 
L 160.180634 199.321579 
L 161.556639 193.100352 
L 162.932643 178.644196 
L 164.308648 179.959974 
L 165.684652 182.426804 
L 167.060656 200.217646 
L 168.436661 212.480521 
L 169.812665 199.662679 
L 171.188669 198.370217 
L 172.564674 187.462528 
L 173.940678 196.835167 
L 175.316682 193.628544 
L 176.692687 193.792672 
L 178.068691 189.221071 
L 179.444696 200.495471 
L 180.8207 195.483325 
L 182.196704 195.658946 
L 183.572709 202.990869 
L 184.948713 200.785199 
L 186.324717 192.938721 
L 187.700722 188.4579 
L 189.076726 201.938823 
L 190.45273 234.592462 
L 191.828735 269.496061 
L 192.58626 289 
" style="fill:none;stroke:#ff7f0e;stroke-linecap:square;stroke-width:1.5;"/>
   </g>
   <g id="line2d_23">
    <path clip-path="url(#p1a189ad681)" d="M 129.845099 -1 
L 129.908539 0.658142 
L 131.284543 36.623168 
L 132.660547 72.588193 
L 134.036552 108.553218 
L 135.412556 144.518243 
L 136.78856 180.483269 
L 138.164565 216.448294 
L 139.540569 252.413319 
L 140.916573 288.378344 
L 140.940358 289 
" style="fill:none;stroke:#808080;stroke-linecap:square;stroke-width:1.5;"/>
   </g>
   <g id="line2d_24">
    <path clip-path="url(#p1a189ad681)" d="M 62.553125 198.465781 
L 212.4 198.465781 
" style="fill:none;stroke:#808080;stroke-dasharray:1.85,0.8;stroke-dashoffset:0;stroke-width:0.5;"/>
   </g>
   <g id="patch_8">
    <path d="M 62.553125 242.9725 
L 62.553125 153.959062 
" style="fill:none;stroke:#000000;stroke-linecap:square;stroke-linejoin:miter;stroke-width:0.8;"/>
   </g>
   <g id="patch_9">
    <path d="M 212.4 242.9725 
L 212.4 153.959062 
" style="fill:none;stroke:#000000;stroke-linecap:square;stroke-linejoin:miter;stroke-width:0.8;"/>
   </g>
   <g id="patch_10">
    <path d="M 62.553125 242.9725 
L 212.4 242.9725 
" style="fill:none;stroke:#000000;stroke-linecap:square;stroke-linejoin:miter;stroke-width:0.8;"/>
   </g>
   <g id="patch_11">
    <path d="M 62.553125 153.959062 
L 212.4 153.959062 
" style="fill:none;stroke:#000000;stroke-linecap:square;stroke-linejoin:miter;stroke-width:0.8;"/>
   </g>
  </g>
 </g>
 <defs>
  <clipPath id="p3bc19e55e4">
   <rect height="89.013437" width="149.846875" x="62.553125" y="15.359062"/>
  </clipPath>
  <clipPath id="p1a189ad681">
   <rect height="89.013438" width="149.846875" x="62.553125" y="153.959062"/>
  </clipPath>
 </defs>
</svg>
