<?xml version="1.0" encoding="utf-8" standalone="no"?>
<!DOCTYPE svg PUBLIC "-//W3C//DTD SVG 1.1//EN"
  "http://www.w3.org/Graphics/SVG/1.1/DTD/svg11.dtd">
<svg xmlns:xlink="http://www.w3.org/1999/xlink" width="230.4pt" height="288pt" viewBox="0 0 230.4 288" xmlns="http://www.w3.org/2000/svg" version="1.1">
 <metadata>
  <rdf:RDF xmlns:dc="http://purl.org/dc/elements/1.1/" xmlns:cc="http://creativecommons.org/ns#" xmlns:rdf="http://www.w3.org/1999/02/22-rdf-syntax-ns#">
   <cc:Work>
    <dc:type rdf:resource="http://purl.org/dc/dcmitype/StillImage"/>
    <dc:date>2025-06-20T15:01:05.137167</dc:date>
    <dc:format>image/svg+xml</dc:format>
    <dc:creator>
     <cc:Agent>
      <dc:title>Matplotlib v3.5.2, https://matplotlib.org/</dc:title>
     </cc:Agent>
    </dc:creator>
   </cc:Work>
  </rdf:RDF>
 </metadata>
 <defs>
  <style type="text/css">*{stroke-linejoin: round; stroke-linecap: butt}</style>
 </defs>
 <g id="figure_1">
  <g id="patch_1">
   <path d="M 0 288 
L 230.4 288 
L 230.4 0 
L 0 0 
z
" style="fill: #ffffff"/>
  </g>
  <g id="axes_1">
   <g id="patch_2">
    <path d="M 41.04875 104.3725 
L 219.6 104.3725 
L 219.6 10.8 
L 41.04875 10.8 
z
" style="fill: #ffffff"/>
   </g>
   <g id="line2d_1">
    <path d="M 49.164716 86.12602 
L 49.490005 85.833124 
L 50.140584 79.123743 
L 50.465873 81.831042 
L 50.791162 82.4486 
L 51.116451 86.896554 
L 51.44174 88.645089 
L 52.092319 81.579027 
L 52.417608 83.096667 
L 53.068186 88.471438 
L 53.393476 91.051558 
L 53.718765 92.291393 
L 54.694633 74.416009 
L 55.345211 77.649406 
L 55.6705 78.355218 
L 55.995789 75.374369 
L 56.321079 75.428068 
L 56.646368 77.985558 
L 56.971657 71.548599 
L 57.296946 72.370701 
L 57.622235 71.525275 
L 57.947525 66.837525 
L 58.272814 66.676486 
L 58.598103 65.780697 
L 58.923392 63.671446 
L 59.248682 63.98502 
L 59.89926 68.470653 
L 60.224549 66.836034 
L 60.549838 66.829179 
L 60.875128 66.33572 
L 61.200417 65.529549 
L 61.525706 67.019303 
L 61.850995 66.529252 
L 62.176285 64.157915 
L 62.501574 64.5421 
L 62.826863 60.602719 
L 63.152152 61.144063 
L 63.477441 58.896762 
L 63.802731 60.567706 
L 65.103887 73.360537 
L 65.429177 73.202668 
L 65.754466 70.773705 
L 66.079755 70.427258 
L 66.405044 70.758444 
L 66.730334 76.991203 
L 67.055623 74.907947 
L 67.380912 78.276143 
L 67.706201 79.179483 
L 68.03149 75.467944 
L 68.35678 75.529495 
L 68.682069 76.715705 
L 69.007358 78.897953 
L 69.332647 74.484087 
L 69.657936 74.895431 
L 69.983226 71.332163 
L 70.633804 67.983005 
L 70.959093 71.302162 
L 71.284383 69.199471 
L 71.934961 56.350438 
L 72.26025 52.34524 
L 72.585539 50.842374 
L 72.910829 42.33732 
L 73.236118 42.760886 
L 73.561407 43.457471 
L 73.886696 41.831456 
L 74.211985 38.689919 
L 74.537275 41.741218 
L 74.862564 40.747659 
L 75.187853 42.62071 
L 75.513142 41.811066 
L 76.163721 43.047714 
L 76.48901 46.808045 
L 76.814299 45.556653 
L 77.139588 42.723637 
L 77.790167 43.361443 
L 78.115456 43.131871 
L 78.440745 43.860893 
L 78.766034 39.349312 
L 79.091324 40.850988 
L 79.416613 37.289849 
L 79.741902 36.744201 
L 80.067191 38.101457 
L 80.392481 40.378342 
L 80.71777 39.379899 
L 81.693637 33.353456 
L 82.018927 30.896746 
L 82.344216 26.163792 
L 82.669505 25.035963 
L 82.994794 25.043517 
L 83.320083 27.324679 
L 83.645373 27.508231 
L 83.970662 29.547778 
L 84.295951 33.996362 
L 84.62124 35.299262 
L 84.94653 35.783235 
L 85.271819 36.730681 
L 85.597108 40.36183 
L 85.922397 38.392282 
L 86.898265 45.188125 
L 87.223554 39.239993 
L 87.548843 40.527767 
L 87.874132 42.654504 
L 88.199422 40.244533 
L 88.524711 39.182973 
L 88.85 39.878041 
L 89.175289 42.312384 
L 89.825868 40.787804 
L 90.151157 41.237783 
L 90.476446 40.860947 
L 90.801735 41.956111 
L 91.452314 38.997579 
L 91.777603 39.348241 
L 92.102892 35.879441 
L 92.428181 40.807494 
L 92.753471 38.997012 
L 93.07876 33.728074 
L 93.404049 32.97885 
L 93.729338 35.952774 
L 94.054628 29.75828 
L 94.379917 26.37288 
L 94.705206 26.804244 
L 95.030495 26.644601 
L 95.355784 24.705372 
L 95.681074 24.870426 
L 96.006363 32.503648 
L 96.656941 28.575819 
L 96.98223 34.168808 
L 97.30752 32.471258 
L 97.632809 34.230451 
L 97.958098 39.523499 
L 98.283387 39.405914 
L 98.608677 38.624175 
L 98.933966 38.512155 
L 99.584544 29.582026 
L 99.909833 34.218518 
L 100.235123 31.253135 
L 100.560412 31.578609 
L 101.21099 30.488821 
L 101.536279 32.994676 
L 101.861569 33.022086 
L 102.186858 33.636172 
L 102.512147 35.267444 
L 102.837436 37.502676 
L 103.162726 35.794181 
L 103.813304 30.10701 
L 104.138593 28.900967 
L 104.463882 28.437853 
L 104.789172 30.112272 
L 105.43975 22.203042 
L 105.765039 25.993309 
L 106.090328 20.848186 
L 106.415618 19.500694 
L 106.740907 19.207956 
L 107.066196 21.61219 
L 107.391485 19.373124 
L 107.716775 22.84728 
L 108.042064 20.264946 
L 108.692642 18.669198 
L 109.017931 23.809051 
L 109.343221 27.069993 
L 109.66851 27.686374 
L 110.319088 25.008385 
L 110.644378 24.757579 
L 111.294956 27.189253 
L 111.620245 26.039911 
L 111.945534 28.291062 
L 112.270824 29.576552 
L 112.596113 30.305471 
L 112.921402 27.48282 
L 113.246691 26.619841 
L 113.57198 32.520785 
L 114.222559 29.377057 
L 114.547848 31.30903 
L 114.873137 37.287627 
L 115.198427 35.643372 
L 116.174294 32.182296 
L 116.499583 32.126854 
L 116.824873 31.841937 
L 117.150162 32.112004 
L 117.475451 34.333156 
L 117.80074 32.38095 
L 118.126029 35.936264 
L 118.451319 37.13231 
L 118.776608 35.075015 
L 119.101897 35.223938 
L 119.752476 28.091914 
L 120.077765 28.797707 
L 120.403054 28.629764 
L 121.053632 25.126159 
L 121.378922 21.529579 
L 121.704211 22.06029 
L 122.0295 22.064587 
L 122.354789 24.708504 
L 122.680078 24.981791 
L 123.330657 30.838387 
L 123.655946 37.213494 
L 123.981235 37.716742 
L 124.631814 44.403852 
L 125.282392 37.511986 
L 125.607681 35.514011 
L 125.932971 26.146003 
L 126.25826 31.341472 
L 126.583549 30.998147 
L 126.908838 31.306838 
L 127.234127 33.359503 
L 127.559417 33.644707 
L 127.884706 33.731231 
L 128.209995 36.852231 
L 128.535284 35.451835 
L 129.185863 41.981414 
L 129.511152 46.302641 
L 129.836441 44.611795 
L 130.16173 42.031645 
L 130.48702 44.223771 
L 130.812309 45.017867 
L 131.137598 41.49043 
L 131.462887 42.3352 
L 131.788176 45.250704 
L 132.113466 46.18844 
L 132.438755 44.826254 
L 132.764044 47.853953 
L 133.089333 46.316113 
L 133.414623 47.424591 
L 133.739912 48.087513 
L 134.39049 39.766292 
L 134.715779 41.757944 
L 135.041069 47.970345 
L 135.366358 44.01352 
L 135.691647 45.065388 
L 136.016936 46.775212 
L 136.342225 47.642554 
L 136.667515 47.184212 
L 136.992804 48.282118 
L 137.318093 45.524736 
L 137.643382 44.597439 
L 137.968672 47.338091 
L 138.293961 40.225328 
L 138.61925 39.435659 
L 139.269828 43.462612 
L 139.595118 46.88245 
L 139.920407 46.700898 
L 140.245696 46.787646 
L 140.896274 46.14975 
L 141.221564 50.182261 
L 141.546853 48.376633 
L 141.872142 43.658754 
L 142.197431 46.244707 
L 142.522721 41.630916 
L 142.84801 38.640565 
L 143.173299 40.939254 
L 143.498588 38.141481 
L 143.823877 40.474348 
L 144.474456 35.990173 
L 144.799745 39.321496 
L 145.125034 35.974683 
L 145.450323 34.363521 
L 145.775613 33.488236 
L 146.100902 35.751105 
L 146.75148 32.466336 
L 147.07677 33.71979 
L 147.402059 34.528652 
L 147.727348 33.649299 
L 148.052637 35.202152 
L 148.377926 39.175455 
L 148.703216 39.58092 
L 149.028505 31.401703 
L 149.353794 29.94983 
L 149.679083 36.942693 
L 150.004372 38.685839 
L 150.329662 38.606005 
L 150.654951 37.448504 
L 150.98024 39.201485 
L 151.630819 32.193728 
L 151.956108 34.878918 
L 152.281397 36.11064 
L 152.606686 36.227249 
L 152.931975 34.26208 
L 153.257265 33.313327 
L 153.582554 38.272375 
L 153.907843 40.950126 
L 154.233132 38.753205 
L 154.558422 41.0795 
L 154.883711 39.170867 
L 155.534289 42.558877 
L 155.859578 42.609814 
L 156.184868 42.465328 
L 156.510157 40.126131 
L 156.835446 45.998983 
L 157.160735 46.969325 
L 157.486024 43.878675 
L 157.811314 44.548874 
L 158.136603 40.373299 
L 158.787181 35.243294 
L 159.112471 30.8822 
L 159.43776 34.575754 
L 160.413627 28.90456 
L 161.064206 40.750939 
L 161.389495 42.500882 
L 161.714784 41.65391 
L 162.040073 43.641057 
L 162.365363 44.241943 
L 162.690652 45.182041 
L 163.015941 48.395151 
L 163.34123 43.869958 
L 163.66652 43.115666 
L 163.991809 41.784727 
L 164.317098 42.297134 
L 164.642387 37.354157 
L 164.967676 37.362885 
L 165.292966 39.223198 
L 165.618255 43.4239 
L 165.943544 42.712327 
L 166.268833 41.665913 
L 166.594122 34.515162 
L 166.919412 39.11671 
L 167.244701 37.210674 
L 167.56999 40.070155 
L 168.545858 37.640918 
L 168.871147 43.093902 
L 169.196436 44.622903 
L 169.521725 43.790846 
L 169.847015 46.053987 
L 170.172304 45.214755 
L 170.497593 46.949973 
L 170.822882 45.028129 
L 171.148171 52.816522 
L 171.473461 48.486844 
L 171.79875 47.009755 
L 172.124039 48.561634 
L 172.449328 45.195803 
L 172.774618 47.49163 
L 173.099907 47.887576 
L 173.425196 47.599894 
L 173.750485 46.178801 
L 174.075774 48.448187 
L 174.401064 47.196495 
L 174.726353 49.845753 
L 175.051642 47.430829 
L 175.376931 48.814343 
L 175.70222 48.735373 
L 176.02751 43.246278 
L 176.678088 37.159 
L 177.328667 39.429344 
L 177.653956 38.174317 
L 177.979245 36.252645 
L 178.304534 45.310807 
L 178.629823 41.498399 
L 179.280402 31.491149 
L 179.605691 36.643102 
L 179.93098 36.964795 
L 180.256269 37.674471 
L 180.581559 33.845817 
L 180.906848 33.627421 
L 181.232137 35.926919 
L 181.557426 37.425334 
L 181.882716 36.450131 
L 182.208005 35.840193 
L 182.533294 33.329971 
L 183.183872 39.985865 
L 183.509162 42.085921 
L 183.834451 41.948343 
L 184.15974 41.289928 
L 184.485029 39.807799 
L 185.135608 45.148576 
L 185.460897 44.28012 
L 186.111475 53.776384 
L 187.087343 46.244317 
L 187.412632 50.234573 
L 187.737921 46.871118 
L 188.063211 50.392629 
L 188.3885 51.854543 
L 188.713789 48.432994 
L 189.039078 47.661337 
L 189.364367 48.229194 
L 189.689657 49.213194 
L 190.340235 47.385658 
L 190.665524 43.25363 
L 190.990814 43.492782 
L 191.316103 43.454887 
L 191.966681 38.815913 
L 192.29197 40.699371 
L 193.267838 34.236312 
L 193.593127 33.770309 
L 194.243706 31.837133 
L 194.568995 33.567573 
L 194.894284 27.493463 
L 195.219573 24.496036 
L 195.544863 23.076401 
L 195.870152 23.23576 
L 196.195441 21.921385 
L 196.52073 23.759893 
L 197.171309 17.495921 
L 197.496598 18.438541 
L 197.821887 17.787035 
L 198.147176 16.096907 
L 198.472465 16.208064 
L 198.797755 21.184748 
L 199.123044 22.636438 
L 199.448333 19.114064 
L 199.773622 17.813864 
L 200.098912 15.747111 
L 200.424201 15.251083 
L 200.74949 19.810955 
L 201.074779 20.556659 
L 201.400068 15.544649 
L 201.725358 15.877016 
L 202.050647 15.053295 
L 202.375936 18.71209 
L 202.701225 27.370143 
L 203.026515 27.186222 
L 203.351804 31.078771 
L 203.677093 31.474407 
L 204.002382 27.882164 
L 204.327671 26.025159 
L 204.652961 26.416678 
L 204.97825 28.863663 
L 205.303539 28.949144 
L 205.628828 30.503826 
L 205.954117 27.017973 
L 206.279407 30.731749 
L 206.929985 24.080504 
L 207.255274 18.506502 
L 207.580564 19.714954 
L 207.905853 26.459935 
L 208.231142 28.771779 
L 208.556431 27.281808 
L 208.88172 27.186839 
L 209.532299 27.43295 
L 209.857588 32.957602 
L 210.182877 32.427685 
L 210.833456 28.130314 
L 211.158745 31.611884 
L 211.484034 33.412251 
L 211.484034 33.412251 
" clip-path="url(#pfc40b6bf40)" style="fill: none; stroke: #00bfbf; stroke-width: 1.5; stroke-linecap: square"/>
   </g>
   <g id="matplotlib.axis_1">
    <g id="xtick_1">
     <g id="line2d_2">
      <defs>
       <path id="m004fe5d8b9" d="M 0 0 
L 0 3.5 
" style="stroke: #000000; stroke-width: 0.8"/>
      </defs>
      <g>
       <use xlink:href="#m004fe5d8b9" x="49.164716" y="104.3725" style="stroke: #000000; stroke-width: 0.8"/>
      </g>
     </g>
     <g id="text_1">
      <!-- 0.0 -->
      <g transform="translate(39.622841 120.490625)scale(0.12 -0.12)">
       <defs>
        <path id="DejaVuSans-30" d="M 2034 4250 
Q 1547 4250 1301 3770 
Q 1056 3291 1056 2328 
Q 1056 1369 1301 889 
Q 1547 409 2034 409 
Q 2525 409 2770 889 
Q 3016 1369 3016 2328 
Q 3016 3291 2770 3770 
Q 2525 4250 2034 4250 
z
M 2034 4750 
Q 2819 4750 3233 4129 
Q 3647 3509 3647 2328 
Q 3647 1150 3233 529 
Q 2819 -91 2034 -91 
Q 1250 -91 836 529 
Q 422 1150 422 2328 
Q 422 3509 836 4129 
Q 1250 4750 2034 4750 
z
" transform="scale(0.015625)"/>
        <path id="DejaVuSans-2e" d="M 684 794 
L 1344 794 
L 1344 0 
L 684 0 
L 684 794 
z
" transform="scale(0.015625)"/>
       </defs>
       <use xlink:href="#DejaVuSans-30"/>
       <use xlink:href="#DejaVuSans-2e" x="63.623047"/>
       <use xlink:href="#DejaVuSans-30" x="95.410156"/>
      </g>
     </g>
    </g>
    <g id="xtick_2">
     <g id="line2d_3">
      <g>
       <use xlink:href="#m004fe5d8b9" x="114.222559" y="104.3725" style="stroke: #000000; stroke-width: 0.8"/>
      </g>
     </g>
     <g id="text_2">
      <!-- 0.2 -->
      <g transform="translate(104.680684 120.490625)scale(0.12 -0.12)">
       <defs>
        <path id="DejaVuSans-32" d="M 1228 531 
L 3431 531 
L 3431 0 
L 469 0 
L 469 531 
Q 828 903 1448 1529 
Q 2069 2156 2228 2338 
Q 2531 2678 2651 2914 
Q 2772 3150 2772 3378 
Q 2772 3750 2511 3984 
Q 2250 4219 1831 4219 
Q 1534 4219 1204 4116 
Q 875 4013 500 3803 
L 500 4441 
Q 881 4594 1212 4672 
Q 1544 4750 1819 4750 
Q 2544 4750 2975 4387 
Q 3406 4025 3406 3419 
Q 3406 3131 3298 2873 
Q 3191 2616 2906 2266 
Q 2828 2175 2409 1742 
Q 1991 1309 1228 531 
z
" transform="scale(0.015625)"/>
       </defs>
       <use xlink:href="#DejaVuSans-30"/>
       <use xlink:href="#DejaVuSans-2e" x="63.623047"/>
       <use xlink:href="#DejaVuSans-32" x="95.410156"/>
      </g>
     </g>
    </g>
    <g id="xtick_3">
     <g id="line2d_4">
      <g>
       <use xlink:href="#m004fe5d8b9" x="179.280402" y="104.3725" style="stroke: #000000; stroke-width: 0.8"/>
      </g>
     </g>
     <g id="text_3">
      <!-- 0.4 -->
      <g transform="translate(169.738527 120.490625)scale(0.12 -0.12)">
       <defs>
        <path id="DejaVuSans-34" d="M 2419 4116 
L 825 1625 
L 2419 1625 
L 2419 4116 
z
M 2253 4666 
L 3047 4666 
L 3047 1625 
L 3713 1625 
L 3713 1100 
L 3047 1100 
L 3047 0 
L 2419 0 
L 2419 1100 
L 313 1100 
L 313 1709 
L 2253 4666 
z
" transform="scale(0.015625)"/>
       </defs>
       <use xlink:href="#DejaVuSans-30"/>
       <use xlink:href="#DejaVuSans-2e" x="63.623047"/>
       <use xlink:href="#DejaVuSans-34" x="95.410156"/>
      </g>
     </g>
    </g>
    <g id="text_4">
     <!-- Time (s) -->
     <g transform="translate(105.929687 136.104375)scale(0.12 -0.12)">
      <defs>
       <path id="DejaVuSans-54" d="M -19 4666 
L 3928 4666 
L 3928 4134 
L 2272 4134 
L 2272 0 
L 1638 0 
L 1638 4134 
L -19 4134 
L -19 4666 
z
" transform="scale(0.015625)"/>
       <path id="DejaVuSans-69" d="M 603 3500 
L 1178 3500 
L 1178 0 
L 603 0 
L 603 3500 
z
M 603 4863 
L 1178 4863 
L 1178 4134 
L 603 4134 
L 603 4863 
z
" transform="scale(0.015625)"/>
       <path id="DejaVuSans-6d" d="M 3328 2828 
Q 3544 3216 3844 3400 
Q 4144 3584 4550 3584 
Q 5097 3584 5394 3201 
Q 5691 2819 5691 2113 
L 5691 0 
L 5113 0 
L 5113 2094 
Q 5113 2597 4934 2840 
Q 4756 3084 4391 3084 
Q 3944 3084 3684 2787 
Q 3425 2491 3425 1978 
L 3425 0 
L 2847 0 
L 2847 2094 
Q 2847 2600 2669 2842 
Q 2491 3084 2119 3084 
Q 1678 3084 1418 2786 
Q 1159 2488 1159 1978 
L 1159 0 
L 581 0 
L 581 3500 
L 1159 3500 
L 1159 2956 
Q 1356 3278 1631 3431 
Q 1906 3584 2284 3584 
Q 2666 3584 2933 3390 
Q 3200 3197 3328 2828 
z
" transform="scale(0.015625)"/>
       <path id="DejaVuSans-65" d="M 3597 1894 
L 3597 1613 
L 953 1613 
Q 991 1019 1311 708 
Q 1631 397 2203 397 
Q 2534 397 2845 478 
Q 3156 559 3463 722 
L 3463 178 
Q 3153 47 2828 -22 
Q 2503 -91 2169 -91 
Q 1331 -91 842 396 
Q 353 884 353 1716 
Q 353 2575 817 3079 
Q 1281 3584 2069 3584 
Q 2775 3584 3186 3129 
Q 3597 2675 3597 1894 
z
M 3022 2063 
Q 3016 2534 2758 2815 
Q 2500 3097 2075 3097 
Q 1594 3097 1305 2825 
Q 1016 2553 972 2059 
L 3022 2063 
z
" transform="scale(0.015625)"/>
       <path id="DejaVuSans-20" transform="scale(0.015625)"/>
       <path id="DejaVuSans-28" d="M 1984 4856 
Q 1566 4138 1362 3434 
Q 1159 2731 1159 2009 
Q 1159 1288 1364 580 
Q 1569 -128 1984 -844 
L 1484 -844 
Q 1016 -109 783 600 
Q 550 1309 550 2009 
Q 550 2706 781 3412 
Q 1013 4119 1484 4856 
L 1984 4856 
z
" transform="scale(0.015625)"/>
       <path id="DejaVuSans-73" d="M 2834 3397 
L 2834 2853 
Q 2591 2978 2328 3040 
Q 2066 3103 1784 3103 
Q 1356 3103 1142 2972 
Q 928 2841 928 2578 
Q 928 2378 1081 2264 
Q 1234 2150 1697 2047 
L 1894 2003 
Q 2506 1872 2764 1633 
Q 3022 1394 3022 966 
Q 3022 478 2636 193 
Q 2250 -91 1575 -91 
Q 1294 -91 989 -36 
Q 684 19 347 128 
L 347 722 
Q 666 556 975 473 
Q 1284 391 1588 391 
Q 1994 391 2212 530 
Q 2431 669 2431 922 
Q 2431 1156 2273 1281 
Q 2116 1406 1581 1522 
L 1381 1569 
Q 847 1681 609 1914 
Q 372 2147 372 2553 
Q 372 3047 722 3315 
Q 1072 3584 1716 3584 
Q 2034 3584 2315 3537 
Q 2597 3491 2834 3397 
z
" transform="scale(0.015625)"/>
       <path id="DejaVuSans-29" d="M 513 4856 
L 1013 4856 
Q 1481 4119 1714 3412 
Q 1947 2706 1947 2009 
Q 1947 1309 1714 600 
Q 1481 -109 1013 -844 
L 513 -844 
Q 928 -128 1133 580 
Q 1338 1288 1338 2009 
Q 1338 2731 1133 3434 
Q 928 4138 513 4856 
z
" transform="scale(0.015625)"/>
      </defs>
      <use xlink:href="#DejaVuSans-54"/>
      <use xlink:href="#DejaVuSans-69" x="57.958984"/>
      <use xlink:href="#DejaVuSans-6d" x="85.742188"/>
      <use xlink:href="#DejaVuSans-65" x="183.154297"/>
      <use xlink:href="#DejaVuSans-20" x="244.677734"/>
      <use xlink:href="#DejaVuSans-28" x="276.464844"/>
      <use xlink:href="#DejaVuSans-73" x="315.478516"/>
      <use xlink:href="#DejaVuSans-29" x="367.578125"/>
     </g>
    </g>
   </g>
   <g id="matplotlib.axis_2">
    <g id="ytick_1">
     <g id="line2d_5">
      <defs>
       <path id="m3e0484003e" d="M 0 0 
L -3.5 0 
" style="stroke: #000000; stroke-width: 0.8"/>
      </defs>
      <g>
       <use xlink:href="#m3e0484003e" x="41.04875" y="86.518779" style="stroke: #000000; stroke-width: 0.8"/>
      </g>
     </g>
     <g id="text_5">
      <!-- 0 -->
      <g transform="translate(26.41375 91.077841)scale(0.12 -0.12)">
       <use xlink:href="#DejaVuSans-30"/>
      </g>
     </g>
    </g>
    <g id="ytick_2">
     <g id="line2d_6">
      <g>
       <use xlink:href="#m3e0484003e" x="41.04875" y="57.763429" style="stroke: #000000; stroke-width: 0.8"/>
      </g>
     </g>
     <g id="text_6">
      <!-- 2 -->
      <g transform="translate(26.41375 62.322492)scale(0.12 -0.12)">
       <use xlink:href="#DejaVuSans-32"/>
      </g>
     </g>
    </g>
    <g id="ytick_3">
     <g id="line2d_7">
      <g>
       <use xlink:href="#m3e0484003e" x="41.04875" y="29.00808" style="stroke: #000000; stroke-width: 0.8"/>
      </g>
     </g>
     <g id="text_7">
      <!-- 4 -->
      <g transform="translate(26.41375 33.567142)scale(0.12 -0.12)">
       <use xlink:href="#DejaVuSans-34"/>
      </g>
     </g>
    </g>
    <g id="text_8">
     <!-- x -->
     <g transform="translate(19.918125 61.1375)rotate(-90)scale(0.12 -0.12)">
      <defs>
       <path id="DejaVuSans-78" d="M 3513 3500 
L 2247 1797 
L 3578 0 
L 2900 0 
L 1881 1375 
L 863 0 
L 184 0 
L 1544 1831 
L 300 3500 
L 978 3500 
L 1906 2253 
L 2834 3500 
L 3513 3500 
z
" transform="scale(0.015625)"/>
      </defs>
      <use xlink:href="#DejaVuSans-78"/>
     </g>
    </g>
   </g>
   <g id="line2d_8">
    <path d="M 49.164716 86.518779 
L 49.490005 86.225882 
L 50.140584 79.95167 
L 50.465873 83.315679 
L 50.791162 84.253547 
L 51.116451 88.928025 
L 51.44174 90.435635 
L 52.092319 82.960189 
L 52.417608 84.833688 
L 52.742897 88.210796 
L 53.393476 92.418987 
L 53.718765 93.068801 
L 54.694633 74.925364 
L 55.345211 80.168051 
L 55.6705 81.508935 
L 55.995789 79.029071 
L 56.321079 79.83174 
L 56.646368 83.057935 
L 56.971657 76.96706 
L 57.296946 78.744333 
L 57.622235 78.676352 
L 57.947525 74.772845 
L 58.272814 75.786399 
L 58.598103 75.963848 
L 58.923392 74.91009 
L 59.248682 76.384533 
L 59.89926 82.533608 
L 60.224549 81.297507 
L 60.549838 81.812779 
L 60.875128 81.789921 
L 61.200417 81.456635 
L 61.525706 83.452603 
L 61.850995 83.269169 
L 62.176285 81.222794 
L 62.501574 82.136578 
L 62.826863 78.635417 
L 63.152152 79.965097 
L 63.477441 78.373164 
L 63.802731 80.85867 
L 65.103887 93.86601 
L 65.429177 92.973418 
L 65.754466 89.898991 
L 66.079755 89.214522 
L 66.405044 89.276134 
L 66.730334 95.233157 
L 67.055623 92.278464 
L 67.380912 95.070692 
L 67.706201 95.118841 
L 68.03149 90.547295 
L 68.35678 90.205995 
L 68.682069 91.023483 
L 69.007358 92.75526 
L 69.332647 87.717746 
L 69.657936 88.009194 
L 69.983226 84.296884 
L 70.633804 81.548593 
L 70.959093 85.364769 
L 71.284383 83.377479 
L 71.934961 71.796339 
L 72.26025 69.263385 
L 72.585539 69.486058 
L 72.910829 62.684277 
L 73.561407 68.290626 
L 73.886696 68.487427 
L 74.211985 67.149024 
L 74.537275 72.137299 
L 74.862564 72.581888 
L 75.187853 75.848628 
L 75.513142 76.105999 
L 76.163721 79.257522 
L 76.48901 83.743978 
L 76.814299 82.770066 
L 77.139588 80.311921 
L 77.790167 82.091224 
L 78.115456 82.304408 
L 78.440745 83.454867 
L 78.766034 79.249677 
L 79.091324 81.478264 
L 79.416613 78.421176 
L 79.741902 78.685288 
L 80.392481 83.672067 
L 80.71777 82.958294 
L 82.018927 76.800541 
L 82.344216 73.039411 
L 82.669505 73.259518 
L 82.994794 74.592999 
L 83.320083 78.066739 
L 83.645373 79.095495 
L 83.970662 81.87737 
L 84.295951 86.790095 
L 84.62124 88.065864 
L 84.94653 88.395128 
L 85.271819 89.154939 
L 85.597108 92.522472 
L 85.922397 89.952554 
L 86.898265 95.175034 
L 87.223554 88.361276 
L 87.548843 89.4648 
L 87.874132 91.296935 
L 88.199422 88.409149 
L 88.524711 87.158551 
L 88.85 87.789642 
L 89.175289 90.096899 
L 89.825868 87.972441 
L 90.151157 88.277053 
L 90.476446 87.724389 
L 90.801735 88.698993 
L 91.127025 86.706072 
L 91.452314 85.503711 
L 91.777603 85.955879 
L 92.102892 82.543368 
L 92.428181 87.868963 
L 92.753471 85.923462 
L 93.07876 80.714056 
L 93.404049 80.545305 
L 93.729338 84.116576 
L 94.054628 78.162302 
L 94.379917 75.61255 
L 94.705206 77.134537 
L 95.030495 77.913318 
L 95.355784 76.834635 
L 95.681074 77.968103 
L 96.006363 86.456393 
L 96.656941 82.750692 
L 96.98223 88.72049 
L 97.30752 86.802769 
L 97.632809 88.533563 
L 97.958098 93.625132 
L 98.283387 92.796912 
L 98.608677 91.38736 
L 98.933966 90.788481 
L 99.584544 81.476134 
L 99.909833 86.616891 
L 100.235123 83.641697 
L 100.560412 84.254879 
L 100.885701 83.853878 
L 101.21099 83.657971 
L 101.536279 86.449907 
L 101.861569 86.484204 
L 102.186858 87.101747 
L 102.837436 90.69436 
L 103.162726 88.568308 
L 103.813304 82.807713 
L 104.138593 81.972776 
L 104.463882 81.964262 
L 104.789172 84.094133 
L 105.43975 76.993676 
L 105.765039 81.736453 
L 106.090328 77.069563 
L 106.415618 76.666992 
L 106.740907 77.359433 
L 107.066196 80.679601 
L 107.391485 79.024453 
L 107.716775 83.248042 
L 108.042064 80.992782 
L 108.367353 80.834711 
L 108.692642 80.518039 
L 109.017931 86.257967 
L 109.343221 89.54499 
L 109.66851 89.85875 
L 110.319088 86.665852 
L 110.644378 86.400338 
L 111.294956 88.745265 
L 111.620245 87.373274 
L 111.945534 89.538976 
L 112.270824 90.522446 
L 112.596113 90.850998 
L 112.921402 87.595125 
L 113.246691 86.624511 
L 113.57198 92.514882 
L 114.222559 88.403104 
L 114.547848 90.146644 
L 114.873137 95.762454 
L 115.523716 91.46033 
L 116.174294 88.244766 
L 116.499583 88.016725 
L 116.824873 87.582014 
L 117.150162 87.745757 
L 117.475451 89.844212 
L 117.80074 87.559463 
L 118.126029 91.010708 
L 118.451319 91.757561 
L 118.776608 89.176387 
L 119.101897 89.05955 
L 119.752476 81.828511 
L 120.077765 83.003331 
L 120.403054 83.186932 
L 121.053632 80.497525 
L 121.378922 77.503071 
L 121.704211 78.935353 
L 122.0295 79.697992 
L 122.354789 83.023988 
L 122.680078 83.646754 
L 123.330657 89.793118 
L 123.655946 95.84079 
L 123.981235 95.411837 
L 124.631814 100.119205 
L 125.282392 91.040326 
L 125.607681 88.590197 
L 125.932971 79.015046 
L 126.25826 84.960889 
L 126.583549 84.773353 
L 126.908838 85.256587 
L 127.234127 87.43547 
L 127.559417 87.629005 
L 127.884706 87.604506 
L 128.209995 90.616934 
L 128.535284 88.806722 
L 129.511152 98.106559 
L 130.16173 91.80297 
L 130.48702 93.466676 
L 130.812309 93.565983 
L 131.137598 89.333825 
L 131.462887 89.897091 
L 131.788176 92.474764 
L 132.113466 92.816901 
L 132.438755 90.824903 
L 132.764044 93.42199 
L 133.089333 91.193828 
L 133.414623 91.834801 
L 133.739912 91.966122 
L 134.39049 83.00994 
L 134.715779 85.352475 
L 135.041069 91.681507 
L 135.366358 87.208409 
L 135.691647 88.191314 
L 136.016936 89.733884 
L 136.342225 90.279716 
L 136.667515 89.44528 
L 136.992804 90.250536 
L 137.318093 87.119978 
L 137.643382 86.132561 
L 137.968672 88.911835 
L 138.293961 81.559766 
L 138.61925 81.265998 
L 139.269828 86.097954 
L 139.595118 89.559874 
L 139.920407 89.074212 
L 140.245696 88.905417 
L 140.896274 87.842528 
L 141.221564 91.742664 
L 141.546853 89.414647 
L 141.872142 84.407181 
L 142.197431 87.204294 
L 142.522721 82.521952 
L 142.84801 79.931283 
L 143.173299 82.888722 
L 143.498588 80.453955 
L 143.823877 83.393304 
L 144.474456 79.740639 
L 144.799745 83.749777 
L 145.125034 80.679863 
L 145.450323 79.652593 
L 145.775613 79.463927 
L 146.100902 82.432281 
L 146.75148 80.076872 
L 147.402059 83.237805 
L 147.727348 82.686549 
L 148.052637 84.622625 
L 148.377926 88.785544 
L 148.703216 88.964332 
L 149.028505 80.54056 
L 149.353794 79.686509 
L 149.679083 87.362598 
L 150.004372 89.021363 
L 150.329662 88.69127 
L 150.654951 87.316521 
L 150.98024 88.989727 
L 151.630819 81.828503 
L 151.956108 84.98272 
L 152.281397 86.368048 
L 152.606686 86.49973 
L 152.931975 84.536466 
L 153.257265 83.785944 
L 153.582554 89.018276 
L 153.907843 91.446077 
L 154.233132 88.756427 
L 154.558422 90.858957 
L 154.883711 88.516305 
L 155.209 90.329343 
L 155.534289 91.323507 
L 156.184868 90.311966 
L 156.510157 87.59345 
L 156.835446 93.358834 
L 157.160735 93.645171 
L 157.486024 89.841882 
L 157.811314 90.179771 
L 158.136603 85.638096 
L 158.787181 80.904668 
L 159.112471 77.104986 
L 159.43776 81.739919 
L 159.763049 80.411242 
L 160.088338 78.589479 
L 160.413627 77.950295 
L 161.064206 90.877817 
L 161.389495 92.191856 
L 161.714784 90.777577 
L 162.040073 92.338843 
L 162.365363 92.357723 
L 162.690652 92.713927 
L 163.015941 95.307522 
L 163.34123 89.903455 
L 163.66652 88.810695 
L 163.991809 87.250564 
L 164.317098 87.689793 
L 164.642387 82.629714 
L 164.967676 83.027349 
L 165.292966 85.236805 
L 165.618255 89.565705 
L 166.268833 87.299959 
L 166.594122 80.071089 
L 166.919412 85.317407 
L 167.244701 83.531508 
L 167.56999 86.689716 
L 168.545858 84.421041 
L 168.871147 90.083798 
L 169.196436 91.256298 
L 169.521725 89.950489 
L 169.847015 91.870459 
L 170.172304 90.496059 
L 170.497593 91.833549 
L 170.822882 89.380228 
L 171.148171 96.882476 
L 171.473461 91.516428 
L 171.79875 89.539574 
L 172.124039 90.789373 
L 172.449328 86.996484 
L 172.774618 89.24454 
L 173.099907 89.367909 
L 173.425196 88.795315 
L 173.750485 87.146569 
L 174.075774 89.353175 
L 174.401064 87.818044 
L 174.726353 90.337375 
L 175.051642 87.540591 
L 175.376931 88.821924 
L 175.70222 88.51264 
L 176.02751 82.824159 
L 176.352799 79.696882 
L 176.678088 77.788532 
L 177.328667 81.58477 
L 177.653956 80.823144 
L 177.979245 79.471035 
L 178.304534 89.233971 
L 179.280402 75.920313 
L 179.605691 82.132112 
L 179.93098 82.892471 
L 180.256269 83.964779 
L 180.581559 80.391525 
L 180.906848 80.785853 
L 181.232137 83.658644 
L 181.557426 85.443073 
L 181.882716 84.57544 
L 182.208005 84.159836 
L 182.533294 81.885508 
L 183.183872 89.084962 
L 183.509162 90.928399 
L 183.834451 90.349859 
L 184.15974 89.308337 
L 184.485029 87.547251 
L 185.135608 92.45542 
L 185.460897 90.9933 
L 186.111475 99.190646 
L 187.087343 88.903751 
L 187.412632 92.655509 
L 187.737921 88.678382 
L 188.063211 91.983932 
L 188.3885 92.899331 
L 188.713789 88.839727 
L 189.039078 87.835975 
L 189.364367 88.272112 
L 189.689657 89.080779 
L 190.340235 86.857693 
L 190.665524 82.691773 
L 190.990814 83.313625 
L 191.316103 83.596246 
L 191.641392 81.099545 
L 191.966681 79.791449 
L 192.29197 82.34764 
L 193.267838 77.567624 
L 193.593127 77.996737 
L 193.918416 77.690159 
L 194.243706 77.798627 
L 194.568995 80.401082 
L 194.894284 74.938742 
L 195.219573 73.099318 
L 195.544863 73.02163 
L 195.870152 74.530704 
L 196.195441 74.415137 
L 196.52073 77.464009 
L 196.846019 74.867087 
L 197.171309 73.270683 
L 197.496598 75.538113 
L 197.821887 75.984673 
L 198.147176 75.347955 
L 198.472465 76.576195 
L 198.797755 82.547138 
L 199.123044 84.395992 
L 199.448333 81.085896 
L 199.773622 80.328985 
L 200.098912 78.881211 
L 200.424201 79.14894 
L 200.74949 84.445795 
L 201.074779 85.398797 
L 201.400068 80.498786 
L 201.725358 81.433153 
L 202.050647 81.117994 
L 202.375936 85.316867 
L 202.701225 94.095111 
L 203.026515 93.153557 
L 203.351804 96.382628 
L 203.677093 95.79188 
L 204.002382 91.272327 
L 204.327671 88.939967 
L 204.652961 89.089367 
L 204.97825 91.279293 
L 205.303539 90.888723 
L 205.628828 92.006411 
L 205.954117 87.971794 
L 206.279407 91.540269 
L 206.929985 84.229508 
L 207.255274 78.884434 
L 207.580564 80.856319 
L 207.905853 88.167547 
L 208.231142 90.314514 
L 208.556431 88.444969 
L 208.88172 88.157381 
L 209.532299 88.076181 
L 209.857588 93.445093 
L 210.182877 92.222544 
L 210.833456 87.070154 
L 211.158745 90.496587 
L 211.484034 91.899173 
L 211.484034 91.899173 
" clip-path="url(#pfc40b6bf40)" style="fill: none; stroke: #808080; stroke-width: 0.75; stroke-linecap: square"/>
   </g>
   <g id="line2d_9">
    <path d="M 49.164716 86.518779 
L 49.490005 86.214328 
L 50.140584 79.502945 
L 50.465873 82.21734 
L 50.791162 82.838603 
L 51.116451 87.296245 
L 51.44174 89.046261 
L 52.092319 81.9945 
L 52.417608 83.516331 
L 53.068186 88.875684 
L 53.393476 91.466196 
L 53.718765 92.704115 
L 54.694633 74.823478 
L 55.345211 78.018049 
L 55.6705 78.740816 
L 55.995789 75.768465 
L 56.321079 75.806224 
L 56.646368 78.348148 
L 56.971657 71.929276 
L 57.296946 72.750593 
L 57.622235 71.922516 
L 57.947525 67.233796 
L 58.272814 67.076785 
L 58.598103 66.173604 
L 58.923392 64.05052 
L 59.248682 64.466711 
L 59.89926 69.012319 
L 60.224549 67.372388 
L 60.549838 67.375216 
L 60.875128 66.891459 
L 61.200417 66.070787 
L 61.525706 67.551665 
L 61.850995 67.070102 
L 62.176285 64.691128 
L 62.501574 65.11828 
L 62.826863 61.190476 
L 63.152152 62.115704 
L 63.477441 60.161033 
L 63.802731 62.318003 
L 65.103887 75.381101 
L 65.429177 75.203482 
L 65.754466 72.757738 
L 66.079755 72.428958 
L 66.405044 72.756683 
L 66.730334 79.007063 
L 67.055623 76.933536 
L 67.380912 80.278283 
L 67.706201 81.186633 
L 68.03149 77.472134 
L 68.35678 77.53805 
L 68.682069 78.729925 
L 69.007358 80.920719 
L 69.332647 76.502545 
L 69.657936 76.884762 
L 69.983226 73.296584 
L 70.633804 69.968279 
L 70.959093 73.306377 
L 71.284383 71.234526 
L 71.934961 58.428491 
L 72.26025 55.080958 
L 72.585539 54.568987 
L 72.910829 47.10581 
L 73.561407 51.57546 
L 73.886696 51.289429 
L 74.211985 49.516428 
L 74.537275 54.112727 
L 74.862564 54.206545 
L 75.187853 57.157635 
L 75.513142 57.132254 
L 76.163721 59.800814 
L 76.48901 64.082881 
L 76.814299 62.930998 
L 77.139588 60.310105 
L 77.790167 61.806032 
L 78.115456 61.899581 
L 78.440745 62.942513 
L 78.766034 58.641918 
L 79.091324 60.780056 
L 79.416613 57.643319 
L 79.741902 57.83364 
L 80.392481 62.695923 
L 80.71777 61.932863 
L 82.018927 55.610952 
L 82.344216 51.816212 
L 82.669505 52.00435 
L 82.994794 53.30913 
L 83.320083 56.757556 
L 83.645373 57.765169 
L 83.970662 60.528547 
L 84.295951 65.426526 
L 84.62124 66.731354 
L 84.94653 67.196046 
L 85.271819 68.144206 
L 85.597108 71.77531 
L 85.922397 69.798985 
L 86.898265 76.610655 
L 87.223554 70.635805 
L 87.548843 71.930923 
L 87.874132 74.05692 
L 88.199422 71.652861 
L 88.524711 70.580928 
L 88.85 71.28501 
L 89.175289 73.703761 
L 89.825868 72.213956 
L 90.151157 72.664601 
L 90.476446 72.299137 
L 90.801735 73.392798 
L 91.452314 70.451886 
L 91.777603 70.814282 
L 92.102892 67.344396 
L 92.428181 72.281784 
L 92.753471 70.470245 
L 93.07876 65.212725 
L 93.404049 64.470547 
L 93.729338 67.507343 
L 94.054628 61.321635 
L 94.379917 58.307227 
L 94.705206 59.408343 
L 95.030495 59.809332 
L 95.355784 58.390995 
L 95.681074 59.217449 
L 96.006363 67.430159 
L 96.656941 63.515469 
L 96.98223 69.263045 
L 97.30752 67.56072 
L 97.632809 69.328408 
L 97.958098 74.617295 
L 98.283387 74.489199 
L 98.608677 73.704522 
L 98.933966 73.60303 
L 99.584544 64.684619 
L 99.909833 69.364647 
L 100.235123 66.395027 
L 100.560412 66.701862 
L 101.21099 65.58418 
L 101.536279 68.087014 
L 101.861569 68.115282 
L 102.186858 68.72968 
L 102.512147 70.355475 
L 102.837436 72.603917 
L 103.162726 70.900619 
L 103.813304 65.213117 
L 104.138593 64.014104 
L 104.463882 63.657107 
L 104.789172 65.47227 
L 105.43975 57.86845 
L 105.765039 62.37225 
L 106.090328 57.49451 
L 106.415618 56.897798 
L 106.740907 57.415161 
L 107.066196 60.578066 
L 107.391485 58.78346 
L 107.716775 62.880047 
L 108.042064 60.514867 
L 108.367353 60.254955 
L 108.692642 59.846549 
L 109.017931 65.503609 
L 109.343221 68.764079 
L 109.66851 69.374767 
L 110.319088 66.692368 
L 110.644378 66.421583 
L 111.294956 68.843253 
L 111.620245 67.688015 
L 111.945534 69.946399 
L 112.270824 71.250169 
L 112.596113 71.96277 
L 112.921402 69.140198 
L 113.246691 68.270316 
L 113.57198 74.171601 
L 114.222559 71.029469 
L 114.547848 72.949487 
L 114.873137 78.954363 
L 115.523716 76.25336 
L 116.174294 73.81931 
L 116.499583 73.77018 
L 116.824873 73.4932 
L 117.150162 73.786022 
L 117.475451 76.014563 
L 117.80074 74.041945 
L 118.126029 77.602966 
L 118.451319 78.806026 
L 118.776608 76.757574 
L 119.101897 76.881014 
L 119.752476 69.754929 
L 120.077765 70.467592 
L 120.403054 70.311113 
L 121.053632 66.819801 
L 121.378922 63.206373 
L 121.704211 63.92207 
L 122.0295 64.041358 
L 122.354789 66.788771 
L 122.680078 67.044286 
L 123.330657 72.892271 
L 123.655946 79.290457 
L 123.981235 79.80269 
L 124.631814 86.507616 
L 125.282392 79.610621 
L 125.607681 77.620957 
L 125.932971 68.260357 
L 126.25826 73.456151 
L 126.583549 73.137756 
L 126.908838 73.479323 
L 127.234127 75.55558 
L 127.559417 75.818659 
L 127.884706 75.889632 
L 128.209995 78.994131 
L 128.535284 77.603367 
L 129.185863 84.135441 
L 129.511152 88.438129 
L 129.836441 86.759911 
L 130.16173 84.168869 
L 130.48702 86.342084 
L 130.812309 87.128892 
L 131.137598 83.600672 
L 131.462887 84.438741 
L 131.788176 87.339981 
L 132.113466 88.280011 
L 132.438755 86.929359 
L 132.764044 89.950977 
L 133.089333 88.414882 
L 133.414623 89.535475 
L 133.739912 90.205961 
L 134.39049 81.881258 
L 134.715779 83.876217 
L 135.041069 90.071462 
L 135.366358 86.117161 
L 135.691647 87.162098 
L 136.016936 88.871621 
L 136.342225 89.749265 
L 136.667515 89.288716 
L 136.992804 90.397849 
L 137.318093 87.635177 
L 137.643382 86.716684 
L 137.968672 89.446401 
L 138.293961 82.344112 
L 138.61925 81.557635 
L 139.269828 85.580086 
L 139.595118 89.002446 
L 139.920407 88.833606 
L 140.245696 88.929774 
L 140.896274 88.314149 
L 141.221564 92.358027 
L 141.546853 90.548297 
L 141.872142 85.822948 
L 142.197431 88.409955 
L 142.522721 83.808173 
L 142.84801 80.803528 
L 143.173299 83.096275 
L 143.498588 80.30113 
L 143.823877 82.638911 
L 144.474456 78.166759 
L 144.799745 81.517754 
L 145.125034 78.170674 
L 145.450323 76.579223 
L 145.775613 75.676324 
L 146.100902 77.920174 
L 146.75148 74.623234 
L 147.07677 75.86586 
L 147.402059 76.658722 
L 147.727348 75.753502 
L 148.052637 77.29013 
L 148.377926 81.2615 
L 148.703216 81.663709 
L 149.028505 73.483506 
L 149.353794 72.054976 
L 149.679083 79.049761 
L 150.004372 80.80334 
L 150.329662 80.71756 
L 150.654951 79.554949 
L 150.98024 81.315493 
L 151.630819 74.324829 
L 151.956108 77.012466 
L 152.281397 78.225587 
L 152.606686 78.36215 
L 152.931975 76.414702 
L 153.257265 75.438503 
L 153.582554 80.375717 
L 153.907843 83.058517 
L 154.233132 80.865374 
L 154.558422 83.187066 
L 154.883711 81.279016 
L 155.534289 84.663459 
L 155.859578 84.706694 
L 156.184868 84.554928 
L 156.510157 82.206811 
L 156.835446 88.083523 
L 157.160735 89.065865 
L 157.486024 85.988133 
L 157.811314 86.655623 
L 158.136603 82.468887 
L 158.787181 77.350553 
L 159.112471 72.990384 
L 159.43776 76.713069 
L 160.413627 70.998642 
L 161.064206 82.805653 
L 161.389495 84.565218 
L 161.714784 83.709566 
L 162.040073 85.686746 
L 162.365363 86.28887 
L 162.690652 87.222459 
L 163.015941 90.436236 
L 163.34123 85.904941 
L 163.66652 85.150423 
L 163.991809 83.827549 
L 164.317098 84.324824 
L 164.642387 79.362933 
L 164.967676 79.379952 
L 165.292966 81.248326 
L 165.618255 85.445752 
L 165.943544 84.739092 
L 166.268833 83.685868 
L 166.594122 76.52607 
L 166.919412 81.098674 
L 167.244701 79.189572 
L 167.56999 82.059418 
L 168.545858 79.629122 
L 168.871147 85.090734 
L 169.196436 86.625654 
L 169.521725 85.781881 
L 169.847015 88.046535 
L 170.172304 87.219862 
L 170.497593 88.955709 
L 170.822882 87.045831 
L 171.148171 94.832644 
L 171.473461 90.50376 
L 171.79875 89.019156 
L 172.124039 90.583926 
L 172.449328 87.211426 
L 172.774618 89.507757 
L 173.099907 89.912423 
L 173.425196 89.625486 
L 173.750485 88.20726 
L 174.075774 90.488297 
L 174.401064 89.229341 
L 174.726353 91.889821 
L 175.051642 89.479795 
L 175.376931 90.872982 
L 175.70222 90.793504 
L 176.02751 85.30192 
L 176.678088 79.223293 
L 177.328667 81.504475 
L 177.653956 80.249264 
L 177.979245 78.332854 
L 178.304534 87.409493 
L 178.629823 83.602199 
L 179.280402 73.604408 
L 179.605691 78.772156 
L 179.93098 79.102419 
L 180.256269 79.823226 
L 180.581559 76.004326 
L 180.906848 75.765857 
L 181.557426 79.565402 
L 181.882716 78.597871 
L 182.208005 77.999346 
L 182.533294 75.505669 
L 183.183872 82.14825 
L 183.509162 84.252709 
L 183.834451 84.095766 
L 184.15974 83.419279 
L 184.485029 81.934084 
L 185.135608 87.26014 
L 185.460897 86.3928 
L 186.111475 95.879634 
L 187.087343 88.340671 
L 187.412632 92.342223 
L 187.737921 88.974564 
L 188.063211 92.508369 
L 188.3885 93.964975 
L 188.713789 90.521025 
L 189.039078 89.741724 
L 189.364367 90.307503 
L 189.689657 91.290586 
L 190.340235 89.460206 
L 190.665524 85.338365 
L 190.990814 85.584122 
L 191.316103 85.548675 
L 191.966681 80.921789 
L 192.29197 82.800945 
L 193.267838 76.352467 
L 193.593127 75.861474 
L 194.243706 73.899048 
L 194.568995 75.633819 
L 194.894284 69.53903 
L 195.219573 66.539589 
L 195.544863 65.099871 
L 195.870152 65.271814 
L 196.195441 63.962354 
L 196.52073 65.911963 
L 197.171309 59.909533 
L 197.496598 61.363128 
L 197.821887 61.078526 
L 198.147176 59.783304 
L 198.472465 60.417933 
L 198.797755 65.855042 
L 199.123044 67.304727 
L 199.448333 63.790609 
L 199.773622 62.61815 
L 200.098912 60.794496 
L 200.424201 60.721443 
L 200.74949 65.71152 
L 201.074779 66.45223 
L 201.400068 61.420945 
L 201.725358 62.114512 
L 202.050647 61.583539 
L 202.375936 65.587457 
L 202.701225 74.242394 
L 203.026515 74.061622 
L 203.351804 77.960128 
L 203.677093 78.371459 
L 204.002382 74.796692 
L 204.327671 72.926502 
L 204.652961 73.342887 
L 204.97825 75.819714 
L 205.303539 75.889642 
L 205.628828 77.427823 
L 205.954117 73.945223 
L 206.279407 77.663024 
L 206.929985 71.00641 
L 207.255274 65.421372 
L 207.580564 66.631879 
L 207.905853 73.356448 
L 208.231142 75.697698 
L 208.556431 74.189666 
L 208.88172 74.098944 
L 209.532299 74.353877 
L 209.857588 79.880779 
L 210.182877 79.359585 
L 210.833456 75.055712 
L 211.158745 78.520649 
L 211.484034 80.334542 
L 211.484034 80.334542 
" clip-path="url(#pfc40b6bf40)" style="fill: none; stroke: #1f77b4; stroke-width: 1.5; stroke-linecap: square"/>
   </g>
   <g id="line2d_10">
    <path d="M 41.04875 86.518779 
L 219.6 86.518779 
" clip-path="url(#pfc40b6bf40)" style="fill: none; stroke-dasharray: 2.775,1.2; stroke-dashoffset: 0; stroke: #808080; stroke-width: 0.75"/>
   </g>
   <g id="patch_3">
    <path d="M 41.04875 104.3725 
L 41.04875 10.8 
" style="fill: none; stroke: #000000; stroke-width: 0.8; stroke-linejoin: miter; stroke-linecap: square"/>
   </g>
   <g id="patch_4">
    <path d="M 219.6 104.3725 
L 219.6 10.8 
" style="fill: none; stroke: #000000; stroke-width: 0.8; stroke-linejoin: miter; stroke-linecap: square"/>
   </g>
   <g id="patch_5">
    <path d="M 41.04875 104.3725 
L 219.6 104.3725 
" style="fill: none; stroke: #000000; stroke-width: 0.8; stroke-linejoin: miter; stroke-linecap: square"/>
   </g>
   <g id="patch_6">
    <path d="M 41.04875 10.8 
L 219.6 10.8 
" style="fill: none; stroke: #000000; stroke-width: 0.8; stroke-linejoin: miter; stroke-linecap: square"/>
   </g>
  </g>
  <g id="axes_2">
   <g id="patch_7">
    <path d="M 41.04875 242.9725 
L 219.6 242.9725 
L 219.6 149.4 
L 41.04875 149.4 
z
" style="fill: #ffffff"/>
   </g>
   <g id="line2d_11">
    <path d="M 49.164716 224.72602 
L 49.490005 224.433124 
L 50.140584 217.723743 
L 50.465873 220.431042 
L 50.791162 221.0486 
L 51.116451 225.496554 
L 51.44174 227.245089 
L 52.092319 220.179027 
L 52.417608 221.696667 
L 53.068186 227.071438 
L 53.393476 229.651558 
L 53.718765 230.891393 
L 54.694633 213.016009 
L 55.345211 216.249406 
L 55.6705 216.955218 
L 55.995789 213.974369 
L 56.321079 214.028068 
L 56.646368 216.585558 
L 56.971657 210.148599 
L 57.296946 210.970701 
L 57.622235 210.125275 
L 57.947525 205.437525 
L 58.272814 205.276486 
L 58.598103 204.380697 
L 58.923392 202.271446 
L 59.248682 202.58502 
L 59.89926 207.070653 
L 60.224549 205.436034 
L 60.549838 205.429179 
L 60.875128 204.93572 
L 61.200417 204.129549 
L 61.525706 205.619303 
L 61.850995 205.129252 
L 62.176285 202.757915 
L 62.501574 203.1421 
L 62.826863 199.202719 
L 63.152152 199.744063 
L 63.477441 197.496762 
L 63.802731 199.167706 
L 65.103887 211.960537 
L 65.429177 211.802668 
L 65.754466 209.373705 
L 66.079755 209.027258 
L 66.405044 209.358444 
L 66.730334 215.591203 
L 67.055623 213.507947 
L 67.380912 216.876143 
L 67.706201 217.779483 
L 68.03149 214.067944 
L 68.35678 214.129495 
L 68.682069 215.315705 
L 69.007358 217.497953 
L 69.332647 213.084087 
L 69.657936 213.495431 
L 69.983226 209.932163 
L 70.633804 206.583005 
L 70.959093 209.902162 
L 71.284383 207.799471 
L 71.934961 194.950438 
L 72.26025 190.94524 
L 72.585539 189.442374 
L 72.910829 180.93732 
L 73.236118 181.360886 
L 73.561407 182.057471 
L 73.886696 180.431456 
L 74.211985 177.289919 
L 74.537275 180.341218 
L 74.862564 179.347659 
L 75.187853 181.22071 
L 75.513142 180.411066 
L 76.163721 181.647714 
L 76.48901 185.408045 
L 76.814299 184.156653 
L 77.139588 181.323637 
L 77.790167 181.961443 
L 78.115456 181.731871 
L 78.440745 182.460893 
L 78.766034 177.949312 
L 79.091324 179.450988 
L 79.416613 175.889849 
L 79.741902 175.344201 
L 80.067191 176.701457 
L 80.392481 178.978342 
L 80.71777 177.979899 
L 81.693637 171.953456 
L 82.018927 169.496746 
L 82.344216 164.763792 
L 82.669505 163.635963 
L 82.994794 163.643517 
L 83.320083 165.924679 
L 83.645373 166.108231 
L 83.970662 168.147778 
L 84.295951 172.596362 
L 84.62124 173.899262 
L 84.94653 174.383235 
L 85.271819 175.330681 
L 85.597108 178.96183 
L 85.922397 176.992282 
L 86.898265 183.788125 
L 87.223554 177.839993 
L 87.548843 179.127767 
L 87.874132 181.254504 
L 88.199422 178.844533 
L 88.524711 177.782973 
L 88.85 178.478041 
L 89.175289 180.912384 
L 89.825868 179.387804 
L 90.151157 179.837783 
L 90.476446 179.460947 
L 90.801735 180.556111 
L 91.452314 177.597579 
L 91.777603 177.948241 
L 92.102892 174.479441 
L 92.428181 179.407494 
L 92.753471 177.597012 
L 93.07876 172.328074 
L 93.404049 171.57885 
L 93.729338 174.552774 
L 94.054628 168.35828 
L 94.379917 164.97288 
L 94.705206 165.404244 
L 95.030495 165.244601 
L 95.355784 163.305372 
L 95.681074 163.470426 
L 96.006363 171.103648 
L 96.656941 167.175819 
L 96.98223 172.768808 
L 97.30752 171.071258 
L 97.632809 172.830451 
L 97.958098 178.123499 
L 98.283387 178.005914 
L 98.608677 177.224175 
L 98.933966 177.112155 
L 99.584544 168.182026 
L 99.909833 172.818518 
L 100.235123 169.853135 
L 100.560412 170.178609 
L 101.21099 169.088821 
L 101.536279 171.594676 
L 101.861569 171.622086 
L 102.186858 172.236172 
L 102.512147 173.867444 
L 102.837436 176.102676 
L 103.162726 174.394181 
L 103.813304 168.70701 
L 104.138593 167.500967 
L 104.463882 167.037853 
L 104.789172 168.712272 
L 105.43975 160.803042 
L 105.765039 164.593309 
L 106.090328 159.448186 
L 106.415618 158.100694 
L 106.740907 157.807956 
L 107.066196 160.21219 
L 107.391485 157.973124 
L 107.716775 161.44728 
L 108.042064 158.864946 
L 108.692642 157.269198 
L 109.017931 162.409051 
L 109.343221 165.669993 
L 109.66851 166.286374 
L 110.319088 163.608385 
L 110.644378 163.357579 
L 111.294956 165.789253 
L 111.620245 164.639911 
L 111.945534 166.891062 
L 112.270824 168.176552 
L 112.596113 168.905471 
L 112.921402 166.08282 
L 113.246691 165.219841 
L 113.57198 171.120785 
L 114.222559 167.977057 
L 114.547848 169.90903 
L 114.873137 175.887627 
L 115.198427 174.243372 
L 116.174294 170.782296 
L 116.499583 170.726854 
L 116.824873 170.441937 
L 117.150162 170.712004 
L 117.475451 172.933156 
L 117.80074 170.98095 
L 118.126029 174.536264 
L 118.451319 175.73231 
L 118.776608 173.675015 
L 119.101897 173.823938 
L 119.752476 166.691914 
L 120.077765 167.397707 
L 120.403054 167.229764 
L 121.053632 163.726159 
L 121.378922 160.129579 
L 121.704211 160.66029 
L 122.0295 160.664587 
L 122.354789 163.308504 
L 122.680078 163.581791 
L 123.330657 169.438387 
L 123.655946 175.813494 
L 123.981235 176.316742 
L 124.631814 183.003852 
L 125.282392 176.111986 
L 125.607681 174.114011 
L 125.932971 164.746003 
L 126.25826 169.941472 
L 126.583549 169.598147 
L 126.908838 169.906838 
L 127.234127 171.959503 
L 127.559417 172.244707 
L 127.884706 172.331231 
L 128.209995 175.452231 
L 128.535284 174.051835 
L 129.185863 180.581414 
L 129.511152 184.902641 
L 129.836441 183.211795 
L 130.16173 180.631645 
L 130.48702 182.823771 
L 130.812309 183.617867 
L 131.137598 180.09043 
L 131.462887 180.9352 
L 131.788176 183.850704 
L 132.113466 184.78844 
L 132.438755 183.426254 
L 132.764044 186.453953 
L 133.089333 184.916113 
L 133.414623 186.024591 
L 133.739912 186.687513 
L 134.39049 178.366292 
L 134.715779 180.357944 
L 135.041069 186.570345 
L 135.366358 182.61352 
L 135.691647 183.665388 
L 136.016936 185.375212 
L 136.342225 186.242554 
L 136.667515 185.784212 
L 136.992804 186.882118 
L 137.318093 184.124736 
L 137.643382 183.197439 
L 137.968672 185.938091 
L 138.293961 178.825328 
L 138.61925 178.035659 
L 139.269828 182.062612 
L 139.595118 185.48245 
L 139.920407 185.300898 
L 140.245696 185.387646 
L 140.896274 184.74975 
L 141.221564 188.782261 
L 141.546853 186.976633 
L 141.872142 182.258754 
L 142.197431 184.844707 
L 142.522721 180.230916 
L 142.84801 177.240565 
L 143.173299 179.539254 
L 143.498588 176.741481 
L 143.823877 179.074348 
L 144.474456 174.590173 
L 144.799745 177.921496 
L 145.125034 174.574683 
L 145.450323 172.963521 
L 145.775613 172.088236 
L 146.100902 174.351105 
L 146.75148 171.066336 
L 147.07677 172.31979 
L 147.402059 173.128652 
L 147.727348 172.249299 
L 148.052637 173.802152 
L 148.377926 177.775455 
L 148.703216 178.18092 
L 149.028505 170.001703 
L 149.353794 168.54983 
L 149.679083 175.542693 
L 150.004372 177.285839 
L 150.329662 177.206005 
L 150.654951 176.048504 
L 150.98024 177.801485 
L 151.630819 170.793728 
L 151.956108 173.478918 
L 152.281397 174.71064 
L 152.606686 174.827249 
L 152.931975 172.86208 
L 153.257265 171.913327 
L 153.582554 176.872375 
L 153.907843 179.550126 
L 154.233132 177.353205 
L 154.558422 179.6795 
L 154.883711 177.770867 
L 155.534289 181.158877 
L 155.859578 181.209814 
L 156.184868 181.065328 
L 156.510157 178.726131 
L 156.835446 184.598983 
L 157.160735 185.569325 
L 157.486024 182.478675 
L 157.811314 183.148874 
L 158.136603 178.973299 
L 158.787181 173.843294 
L 159.112471 169.4822 
L 159.43776 173.175754 
L 160.413627 167.50456 
L 161.064206 179.350939 
L 161.389495 181.100882 
L 161.714784 180.25391 
L 162.040073 182.241057 
L 162.365363 182.841943 
L 162.690652 183.782041 
L 163.015941 186.995151 
L 163.34123 182.469958 
L 163.66652 181.715666 
L 163.991809 180.384727 
L 164.317098 180.897134 
L 164.642387 175.954157 
L 164.967676 175.962885 
L 165.292966 177.823198 
L 165.618255 182.0239 
L 165.943544 181.312327 
L 166.268833 180.265913 
L 166.594122 173.115162 
L 166.919412 177.71671 
L 167.244701 175.810674 
L 167.56999 178.670155 
L 168.545858 176.240918 
L 168.871147 181.693902 
L 169.196436 183.222903 
L 169.521725 182.390846 
L 169.847015 184.653987 
L 170.172304 183.814755 
L 170.497593 185.549973 
L 170.822882 183.628129 
L 171.148171 191.416522 
L 171.473461 187.086844 
L 171.79875 185.609755 
L 172.124039 187.161634 
L 172.449328 183.795803 
L 172.774618 186.09163 
L 173.099907 186.487576 
L 173.425196 186.199894 
L 173.750485 184.778801 
L 174.075774 187.048187 
L 174.401064 185.796495 
L 174.726353 188.445753 
L 175.051642 186.030829 
L 175.376931 187.414343 
L 175.70222 187.335373 
L 176.02751 181.846278 
L 176.678088 175.759 
L 177.328667 178.029344 
L 177.653956 176.774317 
L 177.979245 174.852645 
L 178.304534 183.910807 
L 178.629823 180.098399 
L 179.280402 170.091149 
L 179.605691 175.243102 
L 179.93098 175.564795 
L 180.256269 176.274471 
L 180.581559 172.445817 
L 180.906848 172.227421 
L 181.232137 174.526919 
L 181.557426 176.025334 
L 181.882716 175.050131 
L 182.208005 174.440193 
L 182.533294 171.929971 
L 183.183872 178.585865 
L 183.509162 180.685921 
L 183.834451 180.548343 
L 184.15974 179.889928 
L 184.485029 178.407799 
L 185.135608 183.748576 
L 185.460897 182.88012 
L 186.111475 192.376384 
L 187.087343 184.844317 
L 187.412632 188.834573 
L 187.737921 185.471118 
L 188.063211 188.992629 
L 188.3885 190.454543 
L 188.713789 187.032994 
L 189.039078 186.261337 
L 189.364367 186.829194 
L 189.689657 187.813194 
L 190.340235 185.985658 
L 190.665524 181.85363 
L 190.990814 182.092782 
L 191.316103 182.054887 
L 191.966681 177.415913 
L 192.29197 179.299371 
L 193.267838 172.836312 
L 193.593127 172.370309 
L 194.243706 170.437133 
L 194.568995 172.167573 
L 194.894284 166.093463 
L 195.219573 163.096036 
L 195.544863 161.676401 
L 195.870152 161.83576 
L 196.195441 160.521385 
L 196.52073 162.359893 
L 197.171309 156.095921 
L 197.496598 157.038541 
L 197.821887 156.387035 
L 198.147176 154.696907 
L 198.472465 154.808064 
L 198.797755 159.784748 
L 199.123044 161.236438 
L 199.448333 157.714064 
L 199.773622 156.413864 
L 200.098912 154.347111 
L 200.424201 153.851083 
L 200.74949 158.410955 
L 201.074779 159.156659 
L 201.400068 154.144649 
L 201.725358 154.477016 
L 202.050647 153.653295 
L 202.375936 157.31209 
L 202.701225 165.970143 
L 203.026515 165.786222 
L 203.351804 169.678771 
L 203.677093 170.074407 
L 204.002382 166.482164 
L 204.327671 164.625159 
L 204.652961 165.016678 
L 204.97825 167.463663 
L 205.303539 167.549144 
L 205.628828 169.103826 
L 205.954117 165.617973 
L 206.279407 169.331749 
L 206.929985 162.680504 
L 207.255274 157.106502 
L 207.580564 158.314954 
L 207.905853 165.059935 
L 208.231142 167.371779 
L 208.556431 165.881808 
L 208.88172 165.786839 
L 209.532299 166.03295 
L 209.857588 171.557602 
L 210.182877 171.027685 
L 210.833456 166.730314 
L 211.158745 170.211884 
L 211.484034 172.012251 
L 211.484034 172.012251 
" clip-path="url(#p44a57652f7)" style="fill: none; stroke: #00bfbf; stroke-width: 1.5; stroke-linecap: square"/>
   </g>
   <g id="matplotlib.axis_3">
    <g id="xtick_4">
     <g id="line2d_12">
      <g>
       <use xlink:href="#m004fe5d8b9" x="49.164716" y="242.9725" style="stroke: #000000; stroke-width: 0.8"/>
      </g>
     </g>
     <g id="text_9">
      <!-- 0.0 -->
      <g transform="translate(39.622841 259.090625)scale(0.12 -0.12)">
       <use xlink:href="#DejaVuSans-30"/>
       <use xlink:href="#DejaVuSans-2e" x="63.623047"/>
       <use xlink:href="#DejaVuSans-30" x="95.410156"/>
      </g>
     </g>
    </g>
    <g id="xtick_5">
     <g id="line2d_13">
      <g>
       <use xlink:href="#m004fe5d8b9" x="114.222559" y="242.9725" style="stroke: #000000; stroke-width: 0.8"/>
      </g>
     </g>
     <g id="text_10">
      <!-- 0.2 -->
      <g transform="translate(104.680684 259.090625)scale(0.12 -0.12)">
       <use xlink:href="#DejaVuSans-30"/>
       <use xlink:href="#DejaVuSans-2e" x="63.623047"/>
       <use xlink:href="#DejaVuSans-32" x="95.410156"/>
      </g>
     </g>
    </g>
    <g id="xtick_6">
     <g id="line2d_14">
      <g>
       <use xlink:href="#m004fe5d8b9" x="179.280402" y="242.9725" style="stroke: #000000; stroke-width: 0.8"/>
      </g>
     </g>
     <g id="text_11">
      <!-- 0.4 -->
      <g transform="translate(169.738527 259.090625)scale(0.12 -0.12)">
       <use xlink:href="#DejaVuSans-30"/>
       <use xlink:href="#DejaVuSans-2e" x="63.623047"/>
       <use xlink:href="#DejaVuSans-34" x="95.410156"/>
      </g>
     </g>
    </g>
    <g id="text_12">
     <!-- Time (s) -->
     <g transform="translate(105.929687 274.704375)scale(0.12 -0.12)">
      <use xlink:href="#DejaVuSans-54"/>
      <use xlink:href="#DejaVuSans-69" x="57.958984"/>
      <use xlink:href="#DejaVuSans-6d" x="85.742188"/>
      <use xlink:href="#DejaVuSans-65" x="183.154297"/>
      <use xlink:href="#DejaVuSans-20" x="244.677734"/>
      <use xlink:href="#DejaVuSans-28" x="276.464844"/>
      <use xlink:href="#DejaVuSans-73" x="315.478516"/>
      <use xlink:href="#DejaVuSans-29" x="367.578125"/>
     </g>
    </g>
   </g>
   <g id="matplotlib.axis_4">
    <g id="ytick_4">
     <g id="line2d_15">
      <g>
       <use xlink:href="#m3e0484003e" x="41.04875" y="225.118779" style="stroke: #000000; stroke-width: 0.8"/>
      </g>
     </g>
     <g id="text_13">
      <!-- 0 -->
      <g transform="translate(26.41375 229.677841)scale(0.12 -0.12)">
       <use xlink:href="#DejaVuSans-30"/>
      </g>
     </g>
    </g>
    <g id="ytick_5">
     <g id="line2d_16">
      <g>
       <use xlink:href="#m3e0484003e" x="41.04875" y="196.363429" style="stroke: #000000; stroke-width: 0.8"/>
      </g>
     </g>
     <g id="text_14">
      <!-- 2 -->
      <g transform="translate(26.41375 200.922492)scale(0.12 -0.12)">
       <use xlink:href="#DejaVuSans-32"/>
      </g>
     </g>
    </g>
    <g id="ytick_6">
     <g id="line2d_17">
      <g>
       <use xlink:href="#m3e0484003e" x="41.04875" y="167.60808" style="stroke: #000000; stroke-width: 0.8"/>
      </g>
     </g>
     <g id="text_15">
      <!-- 4 -->
      <g transform="translate(26.41375 172.167142)scale(0.12 -0.12)">
       <use xlink:href="#DejaVuSans-34"/>
      </g>
     </g>
    </g>
    <g id="text_16">
     <!-- x -->
     <g transform="translate(19.918125 199.7375)rotate(-90)scale(0.12 -0.12)">
      <use xlink:href="#DejaVuSans-78"/>
     </g>
    </g>
   </g>
   <g id="line2d_18">
    <path d="M 49.164716 225.118779 
L 49.490005 224.825882 
L 50.140584 218.55167 
L 50.465873 221.915679 
L 50.791162 222.853547 
L 51.116451 227.528025 
L 51.44174 229.035635 
L 52.092319 221.560189 
L 52.417608 223.433688 
L 52.742897 226.810796 
L 53.393476 231.018987 
L 53.718765 231.668801 
L 54.694633 213.525364 
L 55.345211 218.768051 
L 55.6705 220.108935 
L 55.995789 217.629071 
L 56.321079 218.43174 
L 56.646368 221.657935 
L 56.971657 215.56706 
L 57.296946 217.344333 
L 57.622235 217.276352 
L 57.947525 213.372845 
L 58.272814 214.386399 
L 58.598103 214.563848 
L 58.923392 213.51009 
L 59.248682 214.984533 
L 59.89926 221.133608 
L 60.224549 219.897507 
L 60.549838 220.412779 
L 60.875128 220.389921 
L 61.200417 220.056635 
L 61.525706 222.052603 
L 61.850995 221.869169 
L 62.176285 219.822794 
L 62.501574 220.736578 
L 62.826863 217.235417 
L 63.152152 218.565097 
L 63.477441 216.973164 
L 63.802731 219.45867 
L 65.103887 232.46601 
L 65.429177 231.573418 
L 65.754466 228.498991 
L 66.079755 227.814522 
L 66.405044 227.876134 
L 66.730334 233.833157 
L 67.055623 230.878464 
L 67.380912 233.670692 
L 67.706201 233.718841 
L 68.03149 229.147295 
L 68.35678 228.805995 
L 68.682069 229.623483 
L 69.007358 231.35526 
L 69.332647 226.317746 
L 69.657936 226.609194 
L 69.983226 222.896884 
L 70.633804 220.148593 
L 70.959093 223.964769 
L 71.284383 221.977479 
L 71.934961 210.396339 
L 72.26025 207.863385 
L 72.585539 208.086058 
L 72.910829 201.284277 
L 73.561407 206.890626 
L 73.886696 207.087427 
L 74.211985 205.749024 
L 74.537275 210.737299 
L 74.862564 211.181888 
L 75.187853 214.448628 
L 75.513142 214.705999 
L 76.163721 217.857522 
L 76.48901 222.343978 
L 76.814299 221.370066 
L 77.139588 218.911921 
L 77.790167 220.691224 
L 78.115456 220.904408 
L 78.440745 222.054867 
L 78.766034 217.849677 
L 79.091324 220.078264 
L 79.416613 217.021176 
L 79.741902 217.285288 
L 80.392481 222.272067 
L 80.71777 221.558294 
L 82.018927 215.400541 
L 82.344216 211.639411 
L 82.669505 211.859518 
L 82.994794 213.192999 
L 83.320083 216.666739 
L 83.645373 217.695495 
L 83.970662 220.47737 
L 84.295951 225.390095 
L 84.62124 226.665864 
L 84.94653 226.995128 
L 85.271819 227.754939 
L 85.597108 231.122472 
L 85.922397 228.552554 
L 86.898265 233.775034 
L 87.223554 226.961276 
L 87.548843 228.0648 
L 87.874132 229.896935 
L 88.199422 227.009149 
L 88.524711 225.758551 
L 88.85 226.389642 
L 89.175289 228.696899 
L 89.825868 226.572441 
L 90.151157 226.877053 
L 90.476446 226.324389 
L 90.801735 227.298993 
L 91.127025 225.306072 
L 91.452314 224.103711 
L 91.777603 224.555879 
L 92.102892 221.143368 
L 92.428181 226.468963 
L 92.753471 224.523462 
L 93.07876 219.314056 
L 93.404049 219.145305 
L 93.729338 222.716576 
L 94.054628 216.762302 
L 94.379917 214.21255 
L 94.705206 215.734537 
L 95.030495 216.513318 
L 95.355784 215.434635 
L 95.681074 216.568103 
L 96.006363 225.056393 
L 96.656941 221.350692 
L 96.98223 227.32049 
L 97.30752 225.402769 
L 97.632809 227.133563 
L 97.958098 232.225132 
L 98.283387 231.396912 
L 98.608677 229.98736 
L 98.933966 229.388481 
L 99.584544 220.076134 
L 99.909833 225.216891 
L 100.235123 222.241697 
L 100.560412 222.854879 
L 100.885701 222.453878 
L 101.21099 222.257971 
L 101.536279 225.049907 
L 101.861569 225.084204 
L 102.186858 225.701747 
L 102.837436 229.29436 
L 103.162726 227.168308 
L 103.813304 221.407713 
L 104.138593 220.572776 
L 104.463882 220.564262 
L 104.789172 222.694133 
L 105.43975 215.593676 
L 105.765039 220.336453 
L 106.090328 215.669563 
L 106.415618 215.266992 
L 106.740907 215.959433 
L 107.066196 219.279601 
L 107.391485 217.624453 
L 107.716775 221.848042 
L 108.042064 219.592782 
L 108.367353 219.434711 
L 108.692642 219.118039 
L 109.017931 224.857967 
L 109.343221 228.14499 
L 109.66851 228.45875 
L 110.319088 225.265852 
L 110.644378 225.000338 
L 111.294956 227.345265 
L 111.620245 225.973274 
L 111.945534 228.138976 
L 112.270824 229.122446 
L 112.596113 229.450998 
L 112.921402 226.195125 
L 113.246691 225.224511 
L 113.57198 231.114882 
L 114.222559 227.003104 
L 114.547848 228.746644 
L 114.873137 234.362454 
L 115.523716 230.06033 
L 116.174294 226.844766 
L 116.499583 226.616725 
L 116.824873 226.182014 
L 117.150162 226.345757 
L 117.475451 228.444212 
L 117.80074 226.159463 
L 118.126029 229.610708 
L 118.451319 230.357561 
L 118.776608 227.776387 
L 119.101897 227.65955 
L 119.752476 220.428511 
L 120.077765 221.603331 
L 120.403054 221.786932 
L 121.053632 219.097525 
L 121.378922 216.103071 
L 121.704211 217.535353 
L 122.0295 218.297992 
L 122.354789 221.623988 
L 122.680078 222.246754 
L 123.330657 228.393118 
L 123.655946 234.44079 
L 123.981235 234.011837 
L 124.631814 238.719205 
L 125.282392 229.640326 
L 125.607681 227.190197 
L 125.932971 217.615046 
L 126.25826 223.560889 
L 126.583549 223.373353 
L 126.908838 223.856587 
L 127.234127 226.03547 
L 127.559417 226.229005 
L 127.884706 226.204506 
L 128.209995 229.216934 
L 128.535284 227.406722 
L 129.511152 236.706559 
L 130.16173 230.40297 
L 130.48702 232.066676 
L 130.812309 232.165983 
L 131.137598 227.933825 
L 131.462887 228.497091 
L 131.788176 231.074764 
L 132.113466 231.416901 
L 132.438755 229.424903 
L 132.764044 232.02199 
L 133.089333 229.793828 
L 133.414623 230.434801 
L 133.739912 230.566122 
L 134.39049 221.60994 
L 134.715779 223.952475 
L 135.041069 230.281507 
L 135.366358 225.808409 
L 135.691647 226.791314 
L 136.016936 228.333884 
L 136.342225 228.879716 
L 136.667515 228.04528 
L 136.992804 228.850536 
L 137.318093 225.719978 
L 137.643382 224.732561 
L 137.968672 227.511835 
L 138.293961 220.159766 
L 138.61925 219.865998 
L 139.269828 224.697954 
L 139.595118 228.159874 
L 139.920407 227.674212 
L 140.245696 227.505417 
L 140.896274 226.442528 
L 141.221564 230.342664 
L 141.546853 228.014647 
L 141.872142 223.007181 
L 142.197431 225.804294 
L 142.522721 221.121952 
L 142.84801 218.531283 
L 143.173299 221.488722 
L 143.498588 219.053955 
L 143.823877 221.993304 
L 144.474456 218.340639 
L 144.799745 222.349777 
L 145.125034 219.279863 
L 145.450323 218.252593 
L 145.775613 218.063927 
L 146.100902 221.032281 
L 146.75148 218.676872 
L 147.402059 221.837805 
L 147.727348 221.286549 
L 148.052637 223.222625 
L 148.377926 227.385544 
L 148.703216 227.564332 
L 149.028505 219.14056 
L 149.353794 218.286509 
L 149.679083 225.962598 
L 150.004372 227.621363 
L 150.329662 227.29127 
L 150.654951 225.916521 
L 150.98024 227.589727 
L 151.630819 220.428503 
L 151.956108 223.58272 
L 152.281397 224.968048 
L 152.606686 225.09973 
L 152.931975 223.136466 
L 153.257265 222.385944 
L 153.582554 227.618276 
L 153.907843 230.046077 
L 154.233132 227.356427 
L 154.558422 229.458957 
L 154.883711 227.116305 
L 155.209 228.929343 
L 155.534289 229.923507 
L 156.184868 228.911966 
L 156.510157 226.19345 
L 156.835446 231.958834 
L 157.160735 232.245171 
L 157.486024 228.441882 
L 157.811314 228.779771 
L 158.136603 224.238096 
L 158.787181 219.504668 
L 159.112471 215.704986 
L 159.43776 220.339919 
L 159.763049 219.011242 
L 160.088338 217.189479 
L 160.413627 216.550295 
L 161.064206 229.477817 
L 161.389495 230.791856 
L 161.714784 229.377577 
L 162.040073 230.938843 
L 162.365363 230.957723 
L 162.690652 231.313927 
L 163.015941 233.907522 
L 163.34123 228.503455 
L 163.66652 227.410695 
L 163.991809 225.850564 
L 164.317098 226.289793 
L 164.642387 221.229714 
L 164.967676 221.627349 
L 165.292966 223.836805 
L 165.618255 228.165705 
L 166.268833 225.899959 
L 166.594122 218.671089 
L 166.919412 223.917407 
L 167.244701 222.131508 
L 167.56999 225.289716 
L 168.545858 223.021041 
L 168.871147 228.683798 
L 169.196436 229.856298 
L 169.521725 228.550489 
L 169.847015 230.470459 
L 170.172304 229.096059 
L 170.497593 230.433549 
L 170.822882 227.980228 
L 171.148171 235.482476 
L 171.473461 230.116428 
L 171.79875 228.139574 
L 172.124039 229.389373 
L 172.449328 225.596484 
L 172.774618 227.84454 
L 173.099907 227.967909 
L 173.425196 227.395315 
L 173.750485 225.746569 
L 174.075774 227.953175 
L 174.401064 226.418044 
L 174.726353 228.937375 
L 175.051642 226.140591 
L 175.376931 227.421924 
L 175.70222 227.11264 
L 176.02751 221.424159 
L 176.352799 218.296882 
L 176.678088 216.388532 
L 177.328667 220.18477 
L 177.653956 219.423144 
L 177.979245 218.071035 
L 178.304534 227.833971 
L 179.280402 214.520313 
L 179.605691 220.732112 
L 179.93098 221.492471 
L 180.256269 222.564779 
L 180.581559 218.991525 
L 180.906848 219.385853 
L 181.232137 222.258644 
L 181.557426 224.043073 
L 181.882716 223.17544 
L 182.208005 222.759836 
L 182.533294 220.485508 
L 183.183872 227.684962 
L 183.509162 229.528399 
L 183.834451 228.949859 
L 184.15974 227.908337 
L 184.485029 226.147251 
L 185.135608 231.05542 
L 185.460897 229.5933 
L 186.111475 237.790646 
L 187.087343 227.503751 
L 187.412632 231.255509 
L 187.737921 227.278382 
L 188.063211 230.583932 
L 188.3885 231.499331 
L 188.713789 227.439727 
L 189.039078 226.435975 
L 189.364367 226.872112 
L 189.689657 227.680779 
L 190.340235 225.457693 
L 190.665524 221.291773 
L 190.990814 221.913625 
L 191.316103 222.196246 
L 191.641392 219.699545 
L 191.966681 218.391449 
L 192.29197 220.94764 
L 193.267838 216.167624 
L 193.593127 216.596737 
L 193.918416 216.290159 
L 194.243706 216.398627 
L 194.568995 219.001082 
L 194.894284 213.538742 
L 195.219573 211.699318 
L 195.544863 211.62163 
L 195.870152 213.130704 
L 196.195441 213.015137 
L 196.52073 216.064009 
L 196.846019 213.467087 
L 197.171309 211.870683 
L 197.496598 214.138113 
L 197.821887 214.584673 
L 198.147176 213.947955 
L 198.472465 215.176195 
L 198.797755 221.147138 
L 199.123044 222.995992 
L 199.448333 219.685896 
L 199.773622 218.928985 
L 200.098912 217.481211 
L 200.424201 217.74894 
L 200.74949 223.045795 
L 201.074779 223.998797 
L 201.400068 219.098786 
L 201.725358 220.033153 
L 202.050647 219.717994 
L 202.375936 223.916867 
L 202.701225 232.695111 
L 203.026515 231.753557 
L 203.351804 234.982628 
L 203.677093 234.39188 
L 204.002382 229.872327 
L 204.327671 227.539967 
L 204.652961 227.689367 
L 204.97825 229.879293 
L 205.303539 229.488723 
L 205.628828 230.606411 
L 205.954117 226.571794 
L 206.279407 230.140269 
L 206.929985 222.829508 
L 207.255274 217.484434 
L 207.580564 219.456319 
L 207.905853 226.767547 
L 208.231142 228.914514 
L 208.556431 227.044969 
L 208.88172 226.757381 
L 209.532299 226.676181 
L 209.857588 232.045093 
L 210.182877 230.822544 
L 210.833456 225.670154 
L 211.158745 229.096587 
L 211.484034 230.499173 
L 211.484034 230.499173 
" clip-path="url(#p44a57652f7)" style="fill: none; stroke: #808080; stroke-width: 0.75; stroke-linecap: square"/>
   </g>
   <g id="line2d_19">
    <path d="M 49.164716 225.118779 
L 49.490005 224.815445 
L 50.140584 218.106611 
L 50.465873 220.822755 
L 50.791162 221.445528 
L 51.116451 225.904312 
L 51.44174 227.655487 
L 52.092319 220.605917 
L 52.417608 222.129262 
L 53.068186 227.490584 
L 53.393476 230.082443 
L 53.718765 231.322089 
L 54.694633 213.445833 
L 55.345211 216.650143 
L 55.6705 217.377458 
L 55.995789 214.407322 
L 56.321079 214.450492 
L 56.646368 216.997247 
L 56.971657 210.579667 
L 57.296946 211.407507 
L 57.622235 210.58682 
L 57.947525 205.904974 
L 58.272814 205.764321 
L 58.598103 204.878477 
L 58.923392 202.763669 
L 59.248682 203.173241 
L 59.89926 207.733766 
L 60.224549 206.104227 
L 60.549838 206.118367 
L 60.875128 205.645753 
L 61.200417 204.843155 
L 61.525706 206.328118 
L 61.850995 205.8561 
L 62.176285 203.502565 
L 62.501574 203.917138 
L 62.826863 199.990503 
L 63.152152 200.900341 
L 63.477441 198.93176 
L 63.802731 201.076016 
L 65.103887 214.146275 
L 65.429177 213.97121 
L 65.754466 211.527932 
L 66.079755 211.211604 
L 66.405044 211.553964 
L 66.730334 217.81847 
L 67.055623 215.746975 
L 67.380912 219.108305 
L 67.706201 220.016216 
L 68.03149 216.306711 
L 68.35678 216.382652 
L 68.682069 217.585762 
L 69.007358 219.77956 
L 69.332647 215.364306 
L 69.657936 215.755102 
L 69.983226 212.185403 
L 70.633804 208.858948 
L 70.959093 212.198123 
L 71.284383 210.116728 
L 71.934961 197.300581 
L 72.26025 193.930327 
L 72.585539 193.397845 
L 72.910829 185.916136 
L 73.561407 190.354163 
L 73.886696 190.054602 
L 74.211985 188.269412 
L 74.537275 192.854814 
L 74.862564 192.938785 
L 75.187853 195.880991 
L 75.513142 195.847653 
L 76.163721 198.502608 
L 76.48901 202.778894 
L 76.814299 201.622037 
L 77.139588 198.996445 
L 77.790167 200.484288 
L 78.115456 200.574413 
L 78.440745 201.614277 
L 78.766034 197.310884 
L 79.091324 199.446484 
L 79.416613 196.307477 
L 79.741902 196.495707 
L 80.392481 201.354438 
L 80.71777 200.589852 
L 82.018927 194.263267 
L 82.344216 190.467632 
L 82.669505 190.654945 
L 82.994794 191.958987 
L 83.320083 195.406747 
L 83.645373 196.413761 
L 83.970662 199.176594 
L 84.295951 204.074079 
L 84.62124 205.387205 
L 84.94653 205.865261 
L 85.271819 206.831109 
L 85.597108 210.474744 
L 85.922397 208.508006 
L 86.898265 215.34012 
L 87.223554 209.371429 
L 87.548843 210.665845 
L 87.874132 212.799871 
L 88.199422 210.399011 
L 88.524711 209.337077 
L 88.85 210.040577 
L 89.175289 212.469432 
L 89.825868 210.992856 
L 90.151157 211.444727 
L 90.476446 211.094044 
L 90.801735 212.192125 
L 91.452314 209.25669 
L 91.777603 209.61933 
L 92.102892 206.144307 
L 92.428181 211.093044 
L 92.753471 209.285444 
L 93.07876 204.027333 
L 93.404049 203.289533 
L 93.729338 206.310504 
L 94.054628 200.134667 
L 94.379917 197.103515 
L 94.705206 198.189376 
L 95.030495 198.576736 
L 95.355784 197.146126 
L 95.681074 197.961442 
L 96.006363 206.16423 
L 96.656941 202.267081 
L 96.98223 208.004137 
L 97.30752 206.309912 
L 97.632809 208.087783 
L 97.958098 213.384431 
L 98.283387 213.258735 
L 98.608677 212.469606 
L 98.933966 212.367618 
L 99.584544 203.454278 
L 99.909833 208.124535 
L 100.235123 205.163549 
L 100.560412 205.480533 
L 101.21099 204.382837 
L 101.536279 206.895864 
L 101.861569 206.935902 
L 102.186858 207.562494 
L 102.512147 209.200863 
L 102.837436 211.449939 
L 103.162726 209.767812 
L 103.813304 204.085088 
L 104.138593 202.888949 
L 104.463882 202.509846 
L 104.789172 204.304723 
L 105.43975 196.686592 
L 105.765039 201.172924 
L 106.090328 196.279661 
L 106.415618 195.668818 
L 106.740907 196.17347 
L 107.066196 199.324925 
L 107.391485 197.520013 
L 107.716775 201.607356 
L 108.042064 199.233892 
L 108.367353 198.966418 
L 108.692642 198.551195 
L 109.017931 204.202197 
L 109.343221 207.469751 
L 109.66851 208.092684 
L 110.319088 205.430999 
L 110.644378 205.175611 
L 111.294956 207.619031 
L 111.620245 206.47673 
L 111.945534 208.743549 
L 112.270824 210.051784 
L 112.596113 210.775388 
L 112.921402 207.959452 
L 113.246691 207.100287 
L 113.57198 213.012327 
L 114.222559 209.894607 
L 114.547848 211.816586 
L 114.873137 217.832643 
L 115.198427 216.19993 
L 116.174294 212.714158 
L 116.499583 212.669645 
L 116.824873 212.395851 
L 117.150162 212.678093 
L 117.475451 214.910395 
L 117.80074 212.939726 
L 118.126029 216.502505 
L 118.451319 217.718314 
L 118.776608 215.674013 
L 119.101897 215.81268 
L 119.752476 208.711995 
L 120.077765 209.441446 
L 120.403054 209.276242 
L 121.053632 205.790425 
L 121.378922 202.206127 
L 121.704211 202.88685 
L 122.0295 202.975359 
L 122.354789 205.6951 
L 122.680078 205.973798 
L 123.330657 211.876485 
L 123.655946 218.288213 
L 123.981235 218.802699 
L 124.631814 225.500506 
L 125.282392 218.611658 
L 125.607681 216.621406 
L 125.932971 207.274519 
L 126.25826 212.477425 
L 126.583549 212.143955 
L 126.908838 212.477335 
L 127.234127 214.539855 
L 127.559417 214.812147 
L 127.884706 214.881095 
L 128.209995 217.984386 
L 128.535284 216.593744 
L 129.185863 223.142574 
L 129.511152 227.455674 
L 129.836441 225.775795 
L 130.16173 223.196626 
L 130.48702 225.381711 
L 130.812309 226.166148 
L 131.137598 222.648736 
L 131.462887 223.476617 
L 131.788176 226.388733 
L 132.113466 227.336205 
L 132.438755 225.98455 
L 132.764044 229.017239 
L 133.089333 227.474721 
L 133.414623 228.594604 
L 133.739912 229.261139 
L 134.39049 220.925748 
L 134.715779 222.921848 
L 135.041069 229.116424 
L 135.366358 225.153053 
L 135.691647 226.193927 
L 136.016936 227.913751 
L 136.342225 228.793391 
L 136.667515 228.339567 
L 136.992804 229.436476 
L 137.318093 226.678747 
L 137.643382 225.764549 
L 137.968672 228.505998 
L 138.293961 221.394849 
L 138.61925 220.615879 
L 139.269828 224.630889 
L 139.595118 228.047372 
L 139.920407 227.877309 
L 140.245696 227.976303 
L 140.896274 227.364145 
L 141.221564 231.406858 
L 141.546853 229.590203 
L 141.872142 224.877077 
L 142.197431 227.457699 
L 142.522721 222.854922 
L 142.84801 219.846342 
L 143.173299 222.143281 
L 143.498588 219.341601 
L 143.823877 221.670289 
L 144.474456 217.18774 
L 144.799745 220.533029 
L 145.125034 217.192177 
L 145.450323 215.594864 
L 145.775613 214.704715 
L 146.100902 216.949782 
L 146.75148 213.665304 
L 147.07677 214.907169 
L 147.402059 215.697668 
L 147.727348 214.809137 
L 148.052637 216.344379 
L 148.377926 220.333025 
L 148.703216 220.740332 
L 149.028505 212.567143 
L 149.353794 211.124597 
L 149.679083 218.1217 
L 150.004372 219.873819 
L 150.329662 219.792328 
L 150.654951 218.633355 
L 150.98024 220.393792 
L 151.630819 213.401385 
L 151.956108 216.078464 
L 152.281397 217.319691 
L 152.606686 217.447096 
L 152.931975 215.493295 
L 153.257265 214.524711 
L 153.582554 219.471318 
L 153.907843 222.146057 
L 154.233132 219.945161 
L 154.558422 222.271582 
L 154.883711 220.355538 
L 155.534289 223.734229 
L 155.859578 223.793926 
L 156.184868 223.659021 
L 156.510157 221.325238 
L 156.835446 227.207357 
L 157.160735 228.19043 
L 157.486024 225.105617 
L 157.811314 225.765596 
L 158.136603 221.590834 
L 158.787181 216.464792 
L 159.112471 212.123156 
L 159.43776 215.842722 
L 159.763049 214.035839 
L 160.088338 211.586627 
L 160.413627 210.188548 
L 161.064206 222.018443 
L 161.389495 223.766489 
L 161.714784 222.928987 
L 162.040073 224.898436 
L 162.365363 225.493874 
L 162.690652 226.427358 
L 163.015941 229.650479 
L 163.34123 225.131412 
L 163.66652 224.366461 
L 163.991809 223.038194 
L 164.317098 223.537442 
L 164.642387 218.59347 
L 164.967676 218.610224 
L 165.292966 220.478282 
L 165.618255 224.683745 
L 165.943544 223.967026 
L 166.268833 222.92784 
L 166.594122 215.75937 
L 166.919412 220.354726 
L 167.244701 218.450844 
L 167.56999 221.321256 
L 168.545858 218.906641 
L 168.871147 224.366101 
L 169.196436 225.897774 
L 169.521725 225.068273 
L 169.847015 227.321606 
L 170.172304 226.493107 
L 170.497593 228.240379 
L 170.822882 226.32162 
L 171.148171 234.11956 
L 171.473461 229.796147 
L 171.79875 228.324594 
L 172.124039 229.87584 
L 172.449328 226.51389 
L 172.774618 228.822752 
L 173.099907 229.22259 
L 173.425196 228.930215 
L 173.750485 227.508053 
L 174.075774 229.789526 
L 174.401064 228.54348 
L 174.726353 231.195338 
L 175.051642 228.773341 
L 175.376931 230.161473 
L 175.70222 230.083349 
L 176.02751 224.594065 
L 176.678088 218.512296 
L 177.328667 220.790586 
L 177.653956 219.541266 
L 177.979245 217.616989 
L 178.304534 226.686929 
L 178.629823 222.887528 
L 179.280402 212.875081 
L 179.605691 218.034874 
L 179.93098 218.365509 
L 180.256269 219.087049 
L 180.581559 215.263629 
L 180.906848 215.024363 
L 181.557426 218.810549 
L 181.882716 217.842583 
L 182.208005 217.244037 
L 182.533294 214.746285 
L 183.183872 221.392799 
L 183.509162 223.503528 
L 183.834451 223.363381 
L 184.15974 222.69969 
L 184.485029 221.200597 
L 185.135608 226.550649 
L 185.460897 225.696592 
L 186.111475 235.194357 
L 187.087343 227.650668 
L 187.412632 231.65495 
L 187.737921 228.281201 
L 188.063211 231.803721 
L 188.3885 233.251704 
L 188.713789 229.826148 
L 189.039078 229.059478 
L 189.364367 229.621806 
L 189.689657 230.611436 
L 190.340235 228.795346 
L 190.665524 224.66781 
L 190.990814 224.902278 
L 191.316103 224.8589 
L 191.966681 220.212121 
L 192.29197 222.096108 
L 193.267838 215.643585 
L 193.593127 215.165769 
L 194.243706 213.194725 
L 194.568995 214.921014 
L 194.894284 208.828089 
L 195.219573 205.851239 
L 195.544863 204.449066 
L 195.870152 204.617144 
L 196.195441 203.307652 
L 196.52073 205.191644 
L 197.171309 199.120727 
L 197.496598 200.517816 
L 197.821887 200.182712 
L 198.147176 198.842077 
L 198.472465 199.435484 
L 198.797755 204.835387 
L 199.123044 206.28249 
L 199.448333 202.779741 
L 199.773622 201.573997 
L 200.098912 199.7194 
L 200.424201 199.618542 
L 200.74949 204.583537 
L 201.074779 205.335568 
L 201.400068 200.316242 
L 201.725358 200.984887 
L 202.050647 200.431584 
L 202.375936 204.415265 
L 202.701225 213.08141 
L 203.026515 212.900095 
L 203.351804 216.800307 
L 203.677093 217.218938 
L 204.002382 213.639845 
L 204.327671 211.771347 
L 204.652961 212.200695 
L 204.97825 214.668821 
L 205.303539 214.737261 
L 205.628828 216.273818 
L 205.954117 212.801705 
L 206.279407 216.52455 
L 206.929985 209.882051 
L 207.255274 204.297689 
L 207.580564 205.511481 
L 207.905853 212.254707 
L 208.231142 214.584617 
L 208.556431 213.080256 
L 208.88172 212.987958 
L 209.532299 213.239079 
L 209.857588 218.757195 
L 210.182877 218.234912 
L 210.833456 213.954085 
L 211.158745 217.421956 
L 211.484034 219.233406 
L 211.484034 219.233406 
" clip-path="url(#p44a57652f7)" style="fill: none; stroke: #ff7f0e; stroke-width: 1.5; stroke-linecap: square"/>
   </g>
   <g id="line2d_20">
    <path d="M 41.04875 225.118779 
L 219.6 225.118779 
" clip-path="url(#p44a57652f7)" style="fill: none; stroke-dasharray: 2.775,1.2; stroke-dashoffset: 0; stroke: #808080; stroke-width: 0.75"/>
   </g>
   <g id="patch_8">
    <path d="M 41.04875 242.9725 
L 41.04875 149.4 
" style="fill: none; stroke: #000000; stroke-width: 0.8; stroke-linejoin: miter; stroke-linecap: square"/>
   </g>
   <g id="patch_9">
    <path d="M 219.6 242.9725 
L 219.6 149.4 
" style="fill: none; stroke: #000000; stroke-width: 0.8; stroke-linejoin: miter; stroke-linecap: square"/>
   </g>
   <g id="patch_10">
    <path d="M 41.04875 242.9725 
L 219.6 242.9725 
" style="fill: none; stroke: #000000; stroke-width: 0.8; stroke-linejoin: miter; stroke-linecap: square"/>
   </g>
   <g id="patch_11">
    <path d="M 41.04875 149.4 
L 219.6 149.4 
" style="fill: none; stroke: #000000; stroke-width: 0.8; stroke-linejoin: miter; stroke-linecap: square"/>
   </g>
  </g>
 </g>
 <defs>
  <clipPath id="pfc40b6bf40">
   <rect x="41.04875" y="10.8" width="178.55125" height="93.5725"/>
  </clipPath>
  <clipPath id="p44a57652f7">
   <rect x="41.04875" y="149.4" width="178.55125" height="93.5725"/>
  </clipPath>
 </defs>
</svg>
