<?xml version="1.0" encoding="utf-8" standalone="no"?>
<!DOCTYPE svg PUBLIC "-//W3C//DTD SVG 1.1//EN"
  "http://www.w3.org/Graphics/SVG/1.1/DTD/svg11.dtd">
<svg xmlns:xlink="http://www.w3.org/1999/xlink" width="230.4pt" height="288pt" viewBox="0 0 230.4 288" xmlns="http://www.w3.org/2000/svg" version="1.1">
 <metadata>
  <rdf:RDF xmlns:dc="http://purl.org/dc/elements/1.1/" xmlns:cc="http://creativecommons.org/ns#" xmlns:rdf="http://www.w3.org/1999/02/22-rdf-syntax-ns#">
   <cc:Work>
    <dc:type rdf:resource="http://purl.org/dc/dcmitype/StillImage"/>
    <dc:date>2025-06-20T15:01:03.450152</dc:date>
    <dc:format>image/svg+xml</dc:format>
    <dc:creator>
     <cc:Agent>
      <dc:title>Matplotlib v3.5.2, https://matplotlib.org/</dc:title>
     </cc:Agent>
    </dc:creator>
   </cc:Work>
  </rdf:RDF>
 </metadata>
 <defs>
  <style type="text/css">*{stroke-linejoin: round; stroke-linecap: butt}</style>
 </defs>
 <g id="figure_1">
  <g id="patch_1">
   <path d="M 0 288 
L 230.4 288 
L 230.4 0 
L 0 0 
z
" style="fill: #ffffff"/>
  </g>
  <g id="axes_1">
   <g id="patch_2">
    <path d="M 62.553125 104.3725 
L 219.6 104.3725 
L 219.6 10.8 
L 62.553125 10.8 
z
" style="fill: #ffffff"/>
   </g>
   <g id="line2d_1">
    <path d="M 69.691619 44.031143 
L 69.977731 41.636138 
L 70.263843 40.987301 
L 70.836067 34.564054 
L 71.408291 34.186437 
L 71.980515 36.574324 
L 72.552739 33.925251 
L 72.838851 32.066401 
L 73.411075 33.22167 
L 73.697187 30.991446 
L 73.983299 31.538354 
L 74.269411 31.359317 
L 74.555523 31.678647 
L 74.841635 33.424819 
L 75.127747 32.662564 
L 75.413859 33.638162 
L 75.699971 31.611157 
L 75.986083 30.697945 
L 76.272195 31.104865 
L 76.558307 32.504008 
L 76.844419 33.182939 
L 77.130531 31.237517 
L 77.416643 30.477109 
L 77.702755 31.210239 
L 77.988867 31.362383 
L 78.274979 31.926033 
L 78.561091 32.826497 
L 78.847203 31.622188 
L 79.133315 31.332847 
L 79.419427 31.708318 
L 79.705539 31.470785 
L 79.991651 29.76072 
L 80.277763 29.974999 
L 80.563875 29.796579 
L 80.849987 28.155278 
L 81.136099 27.325802 
L 81.422211 27.643105 
L 81.708323 28.266266 
L 82.280547 29.957156 
L 82.566659 29.876291 
L 82.852771 30.173856 
L 83.138883 30.001363 
L 83.424995 31.660971 
L 83.711107 31.485994 
L 83.997219 31.649796 
L 84.283331 32.536649 
L 84.569443 31.283218 
L 84.855555 29.115263 
L 85.141667 30.344804 
L 85.427779 30.186818 
L 85.713891 30.426019 
L 86.000003 31.362289 
L 86.286115 29.393906 
L 86.572227 28.657854 
L 86.858339 29.41064 
L 87.144451 29.686154 
L 87.430563 30.138825 
L 88.288899 28.444325 
L 88.575011 28.331604 
L 88.861123 29.21754 
L 89.147235 27.824981 
L 89.433347 27.161527 
L 89.719459 27.99249 
L 90.005571 27.243718 
L 90.291683 24.531177 
L 90.577795 25.276357 
L 91.436131 20.567177 
L 91.722243 22.701184 
L 92.008355 23.015319 
L 92.580579 20.714558 
L 92.866691 21.517225 
L 93.152803 21.477411 
L 93.438915 21.152688 
L 93.725027 20.5084 
L 94.011139 21.600705 
L 94.297251 23.276374 
L 94.583363 23.861771 
L 94.869475 23.509675 
L 95.155587 23.786739 
L 95.727811 24.98821 
L 96.013923 24.85004 
L 96.300035 21.596885 
L 96.586147 20.957485 
L 96.872259 22.610617 
L 97.158371 21.55086 
L 97.444483 21.824694 
L 98.302819 25.594007 
L 98.588931 26.450643 
L 99.161155 23.43085 
L 99.447267 24.27678 
L 99.733379 23.27682 
L 100.019491 23.449696 
L 100.305603 21.283471 
L 100.591715 21.115861 
L 101.163939 19.255809 
L 101.450051 18.476087 
L 101.736163 19.402463 
L 102.022275 21.066619 
L 102.308387 19.004553 
L 102.594499 18.637172 
L 102.880611 19.443164 
L 103.166723 18.077727 
L 103.452835 19.417011 
L 103.738947 18.211417 
L 104.025059 18.440796 
L 104.311171 17.149193 
L 104.597283 18.533796 
L 104.883395 20.620037 
L 105.169507 19.953182 
L 105.455619 20.715196 
L 105.741731 18.655307 
L 106.027843 19.01577 
L 106.313955 18.921176 
L 106.600067 18.34943 
L 106.886179 17.110799 
L 107.172291 17.545086 
L 107.458403 16.172312 
L 107.744515 17.426927 
L 108.030627 20.007099 
L 108.316739 17.976719 
L 108.602851 20.236644 
L 108.888963 20.883454 
L 109.175075 20.632522 
L 109.461187 19.51736 
L 109.747299 19.33956 
L 110.033411 19.017199 
L 110.319523 19.262496 
L 110.605635 17.899225 
L 110.891747 17.873463 
L 111.177859 17.447442 
L 111.463971 18.187579 
L 112.036195 16.237032 
L 112.322307 16.139934 
L 112.608419 15.053295 
L 112.894531 17.803751 
L 113.180643 16.82036 
L 113.466755 17.662632 
L 114.038979 21.260181 
L 114.325091 21.867161 
L 114.611203 22.830281 
L 115.183427 22.848413 
L 115.469539 21.712886 
L 115.755651 21.948977 
L 116.041763 19.852842 
L 116.327875 20.680009 
L 116.900099 23.8092 
L 117.186211 22.083634 
L 117.472323 22.523262 
L 117.758435 23.22359 
L 118.044547 22.233783 
L 118.330659 22.184147 
L 118.616771 21.9347 
L 118.902883 22.741469 
L 119.475107 26.719587 
L 119.761219 25.075353 
L 120.333443 25.535892 
L 120.905667 27.882627 
L 121.191779 26.482796 
L 121.477891 26.217767 
L 121.764003 25.518807 
L 122.050115 24.502624 
L 122.336227 25.290826 
L 122.622339 24.433974 
L 122.908451 24.254507 
L 123.194563 23.697625 
L 123.480675 24.843065 
L 123.766787 22.67286 
L 124.052899 22.052756 
L 124.625123 21.761856 
L 124.911235 22.743963 
L 125.197347 23.188286 
L 125.483459 23.176798 
L 125.769571 21.226878 
L 126.055683 20.802598 
L 126.341795 20.956646 
L 126.627907 22.014553 
L 126.914019 20.995194 
L 127.200131 22.806469 
L 127.486243 23.219253 
L 127.772355 22.977254 
L 128.058467 22.335066 
L 128.344579 23.372212 
L 128.630691 21.173127 
L 128.916803 20.514902 
L 129.202915 18.816551 
L 129.489027 21.170751 
L 129.775139 21.404852 
L 130.061251 23.522388 
L 130.347363 24.626812 
L 130.633475 24.905505 
L 130.919587 23.082972 
L 131.205699 23.968746 
L 131.491811 26.067134 
L 131.777923 23.461599 
L 132.064035 26.390219 
L 132.350147 25.343904 
L 132.636259 26.457602 
L 132.922371 26.939533 
L 133.208483 29.319424 
L 133.494595 30.299302 
L 133.780707 27.989536 
L 134.066819 27.728136 
L 134.352931 26.859166 
L 134.639043 29.052194 
L 135.211267 30.747051 
L 135.497379 30.736173 
L 136.069603 32.327199 
L 136.355715 31.576393 
L 136.641827 33.212539 
L 136.927939 33.345139 
L 137.214051 33.844759 
L 137.786275 36.899193 
L 138.072387 39.011464 
L 138.358499 38.318436 
L 138.644611 38.864401 
L 138.930723 38.446311 
L 139.216835 39.081868 
L 139.502947 38.9652 
L 139.789059 39.151365 
L 140.075171 40.297321 
L 140.361283 43.831992 
L 140.647395 42.886883 
L 140.933507 43.242383 
L 141.219618 42.702975 
L 141.50573 43.091102 
L 141.791842 43.21308 
L 142.077954 42.401795 
L 142.364066 43.128191 
L 142.650178 42.729421 
L 142.93629 42.949651 
L 143.222402 44.044855 
L 143.508514 43.220514 
L 143.794626 44.871392 
L 144.36685 46.083691 
L 144.652962 45.475426 
L 144.939074 47.820627 
L 145.225186 47.600919 
L 145.511298 47.877246 
L 145.79741 48.401781 
L 146.369634 51.742893 
L 146.655746 52.731448 
L 147.22797 52.907144 
L 147.800194 51.330182 
L 148.086306 52.936674 
L 148.372418 52.647434 
L 148.65853 51.669094 
L 148.944642 51.916146 
L 149.230754 51.671102 
L 149.516866 50.383072 
L 149.802978 49.967691 
L 150.08909 50.723593 
L 150.375202 50.403102 
L 150.661314 51.404746 
L 150.947426 50.503605 
L 151.233538 50.420622 
L 151.805762 52.993993 
L 152.377986 50.59427 
L 152.664098 50.373724 
L 152.95021 49.256357 
L 153.236322 49.378207 
L 153.522434 48.294728 
L 153.808546 49.618192 
L 154.094658 49.768292 
L 154.666882 47.824634 
L 154.952994 49.692179 
L 155.239106 49.341767 
L 155.525218 49.501306 
L 156.097442 51.397827 
L 156.383554 50.760308 
L 156.669666 51.821328 
L 156.955778 51.784396 
L 157.24189 52.227276 
L 157.528002 51.140606 
L 157.814114 51.328516 
L 158.100226 50.736054 
L 158.386338 48.663522 
L 158.67245 49.995508 
L 158.958562 50.092047 
L 159.244674 49.929064 
L 159.530786 49.270391 
L 159.816898 49.158145 
L 160.10301 47.930528 
L 160.389122 47.348117 
L 160.675234 47.586875 
L 160.961346 48.033299 
L 161.247458 47.792158 
L 161.53357 49.948631 
L 161.819682 49.308348 
L 162.105794 49.101843 
L 162.391906 48.612761 
L 162.96413 51.377617 
L 163.250242 51.98495 
L 163.536354 51.612236 
L 163.822466 53.12692 
L 164.108578 54.034484 
L 164.39469 53.052286 
L 164.680802 55.198327 
L 164.966914 54.706713 
L 165.539138 55.077176 
L 165.82525 55.185826 
L 166.111362 56.339216 
L 166.397474 58.651961 
L 166.683586 57.327749 
L 166.969698 57.063406 
L 167.25581 55.396497 
L 167.541922 57.230836 
L 167.828034 57.860991 
L 168.114146 59.924422 
L 168.400258 58.223463 
L 168.68637 57.820462 
L 169.258594 59.83553 
L 169.544706 62.324097 
L 170.11693 62.602499 
L 170.403042 63.930901 
L 170.689154 63.848354 
L 171.261378 65.308322 
L 171.54749 65.103432 
L 171.833602 67.211252 
L 172.119714 68.491267 
L 172.405826 69.122131 
L 172.691938 70.483362 
L 172.97805 71.085723 
L 173.264162 69.84551 
L 173.550274 70.362716 
L 173.836386 67.447172 
L 174.122498 68.26992 
L 174.40861 66.911288 
L 174.980834 69.986542 
L 175.266946 67.63123 
L 175.553058 67.466768 
L 175.83917 67.711597 
L 176.125282 66.543732 
L 176.411394 66.2804 
L 176.697506 65.398119 
L 177.26973 67.06625 
L 177.555842 66.222444 
L 177.841954 66.4203 
L 178.128066 67.327178 
L 178.414178 69.700226 
L 178.70029 70.007539 
L 178.986402 68.824807 
L 179.272514 66.830156 
L 179.558626 68.377925 
L 179.844738 68.481539 
L 180.13085 67.7398 
L 180.416962 67.352659 
L 180.703074 66.395361 
L 181.56141 69.837821 
L 181.847522 70.435547 
L 182.133634 68.691663 
L 182.419746 71.140586 
L 182.705858 72.021117 
L 183.278082 69.453473 
L 183.564194 70.709509 
L 183.850306 69.248159 
L 184.136418 68.710253 
L 184.708642 73.831361 
L 184.994754 73.257394 
L 185.280866 72.023185 
L 185.566978 72.274155 
L 186.139202 73.296054 
L 186.425314 72.055316 
L 187.28365 72.423731 
L 187.569762 72.437586 
L 187.855874 74.204393 
L 188.141986 70.520695 
L 188.428098 70.252826 
L 188.71421 70.505121 
L 189.000322 69.656102 
L 189.286434 69.427156 
L 189.572546 68.306955 
L 189.858658 67.78285 
L 190.14477 68.43788 
L 190.430882 67.772272 
L 190.716994 68.190367 
L 191.003106 68.938153 
L 191.289218 69.160001 
L 192.147554 73.149427 
L 192.433666 72.412109 
L 192.719778 74.40417 
L 193.00589 72.381763 
L 193.292002 71.484089 
L 193.578114 72.709264 
L 193.864226 72.788965 
L 194.150338 73.582223 
L 194.43645 72.889044 
L 194.722562 73.544064 
L 195.008674 73.767736 
L 195.294786 72.140727 
L 195.580898 71.216092 
L 195.86701 71.778999 
L 196.153122 70.612662 
L 196.439234 70.143817 
L 196.725346 71.928862 
L 197.011458 72.250092 
L 197.29757 73.608415 
L 197.583682 72.365373 
L 197.869794 71.812546 
L 198.155906 70.683316 
L 198.442018 71.935382 
L 199.014242 72.004767 
L 199.300354 72.402821 
L 199.586466 72.397709 
L 199.872578 71.635018 
L 200.15869 71.867623 
L 200.444802 68.592492 
L 201.303138 69.604828 
L 201.58925 69.738376 
L 201.875362 67.194961 
L 202.161474 68.41951 
L 202.447586 66.85065 
L 202.733698 67.236951 
L 203.305922 63.537854 
L 203.592034 64.377722 
L 203.878146 65.684754 
L 204.164258 65.617967 
L 205.022594 62.3074 
L 205.308706 64.111301 
L 205.594818 62.810964 
L 205.88093 64.33347 
L 206.739266 60.084584 
L 207.025378 60.330781 
L 207.31149 58.867471 
L 207.597602 59.984929 
L 207.883714 62.498835 
L 208.455938 63.36596 
L 208.74205 62.756387 
L 209.028162 63.131871 
L 209.314274 60.953325 
L 209.600386 61.821191 
L 209.886498 61.72433 
L 210.17261 59.684679 
L 210.458722 60.353421 
L 210.744834 59.426964 
L 211.030946 59.895423 
L 211.317058 59.417931 
L 211.60317 59.806921 
L 211.889282 61.330868 
L 212.175394 61.495705 
L 212.461506 62.227103 
L 212.461506 62.227103 
" clip-path="url(#p86b7507c5d)" style="fill: none; stroke: #00bfbf; stroke-width: 1.5; stroke-linecap: square"/>
   </g>
   <g id="matplotlib.axis_1">
    <g id="xtick_1">
     <g id="line2d_2">
      <defs>
       <path id="mff70231e1a" d="M 0 0 
L 0 3.5 
" style="stroke: #000000; stroke-width: 0.8"/>
      </defs>
      <g>
       <use xlink:href="#mff70231e1a" x="69.691619" y="104.3725" style="stroke: #000000; stroke-width: 0.8"/>
      </g>
     </g>
     <g id="text_1">
      <!-- 0.0 -->
      <g transform="translate(60.149744 120.490625)scale(0.12 -0.12)">
       <defs>
        <path id="DejaVuSans-30" d="M 2034 4250 
Q 1547 4250 1301 3770 
Q 1056 3291 1056 2328 
Q 1056 1369 1301 889 
Q 1547 409 2034 409 
Q 2525 409 2770 889 
Q 3016 1369 3016 2328 
Q 3016 3291 2770 3770 
Q 2525 4250 2034 4250 
z
M 2034 4750 
Q 2819 4750 3233 4129 
Q 3647 3509 3647 2328 
Q 3647 1150 3233 529 
Q 2819 -91 2034 -91 
Q 1250 -91 836 529 
Q 422 1150 422 2328 
Q 422 3509 836 4129 
Q 1250 4750 2034 4750 
z
" transform="scale(0.015625)"/>
        <path id="DejaVuSans-2e" d="M 684 794 
L 1344 794 
L 1344 0 
L 684 0 
L 684 794 
z
" transform="scale(0.015625)"/>
       </defs>
       <use xlink:href="#DejaVuSans-30"/>
       <use xlink:href="#DejaVuSans-2e" x="63.623047"/>
       <use xlink:href="#DejaVuSans-30" x="95.410156"/>
      </g>
     </g>
    </g>
    <g id="xtick_2">
     <g id="line2d_3">
      <g>
       <use xlink:href="#mff70231e1a" x="126.914019" y="104.3725" style="stroke: #000000; stroke-width: 0.8"/>
      </g>
     </g>
     <g id="text_2">
      <!-- 0.2 -->
      <g transform="translate(117.372144 120.490625)scale(0.12 -0.12)">
       <defs>
        <path id="DejaVuSans-32" d="M 1228 531 
L 3431 531 
L 3431 0 
L 469 0 
L 469 531 
Q 828 903 1448 1529 
Q 2069 2156 2228 2338 
Q 2531 2678 2651 2914 
Q 2772 3150 2772 3378 
Q 2772 3750 2511 3984 
Q 2250 4219 1831 4219 
Q 1534 4219 1204 4116 
Q 875 4013 500 3803 
L 500 4441 
Q 881 4594 1212 4672 
Q 1544 4750 1819 4750 
Q 2544 4750 2975 4387 
Q 3406 4025 3406 3419 
Q 3406 3131 3298 2873 
Q 3191 2616 2906 2266 
Q 2828 2175 2409 1742 
Q 1991 1309 1228 531 
z
" transform="scale(0.015625)"/>
       </defs>
       <use xlink:href="#DejaVuSans-30"/>
       <use xlink:href="#DejaVuSans-2e" x="63.623047"/>
       <use xlink:href="#DejaVuSans-32" x="95.410156"/>
      </g>
     </g>
    </g>
    <g id="xtick_3">
     <g id="line2d_4">
      <g>
       <use xlink:href="#mff70231e1a" x="184.136418" y="104.3725" style="stroke: #000000; stroke-width: 0.8"/>
      </g>
     </g>
     <g id="text_3">
      <!-- 0.4 -->
      <g transform="translate(174.594543 120.490625)scale(0.12 -0.12)">
       <defs>
        <path id="DejaVuSans-34" d="M 2419 4116 
L 825 1625 
L 2419 1625 
L 2419 4116 
z
M 2253 4666 
L 3047 4666 
L 3047 1625 
L 3713 1625 
L 3713 1100 
L 3047 1100 
L 3047 0 
L 2419 0 
L 2419 1100 
L 313 1100 
L 313 1709 
L 2253 4666 
z
" transform="scale(0.015625)"/>
       </defs>
       <use xlink:href="#DejaVuSans-30"/>
       <use xlink:href="#DejaVuSans-2e" x="63.623047"/>
       <use xlink:href="#DejaVuSans-34" x="95.410156"/>
      </g>
     </g>
    </g>
    <g id="text_4">
     <!-- Time (s) -->
     <g transform="translate(116.681875 136.104375)scale(0.12 -0.12)">
      <defs>
       <path id="DejaVuSans-54" d="M -19 4666 
L 3928 4666 
L 3928 4134 
L 2272 4134 
L 2272 0 
L 1638 0 
L 1638 4134 
L -19 4134 
L -19 4666 
z
" transform="scale(0.015625)"/>
       <path id="DejaVuSans-69" d="M 603 3500 
L 1178 3500 
L 1178 0 
L 603 0 
L 603 3500 
z
M 603 4863 
L 1178 4863 
L 1178 4134 
L 603 4134 
L 603 4863 
z
" transform="scale(0.015625)"/>
       <path id="DejaVuSans-6d" d="M 3328 2828 
Q 3544 3216 3844 3400 
Q 4144 3584 4550 3584 
Q 5097 3584 5394 3201 
Q 5691 2819 5691 2113 
L 5691 0 
L 5113 0 
L 5113 2094 
Q 5113 2597 4934 2840 
Q 4756 3084 4391 3084 
Q 3944 3084 3684 2787 
Q 3425 2491 3425 1978 
L 3425 0 
L 2847 0 
L 2847 2094 
Q 2847 2600 2669 2842 
Q 2491 3084 2119 3084 
Q 1678 3084 1418 2786 
Q 1159 2488 1159 1978 
L 1159 0 
L 581 0 
L 581 3500 
L 1159 3500 
L 1159 2956 
Q 1356 3278 1631 3431 
Q 1906 3584 2284 3584 
Q 2666 3584 2933 3390 
Q 3200 3197 3328 2828 
z
" transform="scale(0.015625)"/>
       <path id="DejaVuSans-65" d="M 3597 1894 
L 3597 1613 
L 953 1613 
Q 991 1019 1311 708 
Q 1631 397 2203 397 
Q 2534 397 2845 478 
Q 3156 559 3463 722 
L 3463 178 
Q 3153 47 2828 -22 
Q 2503 -91 2169 -91 
Q 1331 -91 842 396 
Q 353 884 353 1716 
Q 353 2575 817 3079 
Q 1281 3584 2069 3584 
Q 2775 3584 3186 3129 
Q 3597 2675 3597 1894 
z
M 3022 2063 
Q 3016 2534 2758 2815 
Q 2500 3097 2075 3097 
Q 1594 3097 1305 2825 
Q 1016 2553 972 2059 
L 3022 2063 
z
" transform="scale(0.015625)"/>
       <path id="DejaVuSans-20" transform="scale(0.015625)"/>
       <path id="DejaVuSans-28" d="M 1984 4856 
Q 1566 4138 1362 3434 
Q 1159 2731 1159 2009 
Q 1159 1288 1364 580 
Q 1569 -128 1984 -844 
L 1484 -844 
Q 1016 -109 783 600 
Q 550 1309 550 2009 
Q 550 2706 781 3412 
Q 1013 4119 1484 4856 
L 1984 4856 
z
" transform="scale(0.015625)"/>
       <path id="DejaVuSans-73" d="M 2834 3397 
L 2834 2853 
Q 2591 2978 2328 3040 
Q 2066 3103 1784 3103 
Q 1356 3103 1142 2972 
Q 928 2841 928 2578 
Q 928 2378 1081 2264 
Q 1234 2150 1697 2047 
L 1894 2003 
Q 2506 1872 2764 1633 
Q 3022 1394 3022 966 
Q 3022 478 2636 193 
Q 2250 -91 1575 -91 
Q 1294 -91 989 -36 
Q 684 19 347 128 
L 347 722 
Q 666 556 975 473 
Q 1284 391 1588 391 
Q 1994 391 2212 530 
Q 2431 669 2431 922 
Q 2431 1156 2273 1281 
Q 2116 1406 1581 1522 
L 1381 1569 
Q 847 1681 609 1914 
Q 372 2147 372 2553 
Q 372 3047 722 3315 
Q 1072 3584 1716 3584 
Q 2034 3584 2315 3537 
Q 2597 3491 2834 3397 
z
" transform="scale(0.015625)"/>
       <path id="DejaVuSans-29" d="M 513 4856 
L 1013 4856 
Q 1481 4119 1714 3412 
Q 1947 2706 1947 2009 
Q 1947 1309 1714 600 
Q 1481 -109 1013 -844 
L 513 -844 
Q 928 -128 1133 580 
Q 1338 1288 1338 2009 
Q 1338 2731 1133 3434 
Q 928 4138 513 4856 
z
" transform="scale(0.015625)"/>
      </defs>
      <use xlink:href="#DejaVuSans-54"/>
      <use xlink:href="#DejaVuSans-69" x="57.958984"/>
      <use xlink:href="#DejaVuSans-6d" x="85.742188"/>
      <use xlink:href="#DejaVuSans-65" x="183.154297"/>
      <use xlink:href="#DejaVuSans-20" x="244.677734"/>
      <use xlink:href="#DejaVuSans-28" x="276.464844"/>
      <use xlink:href="#DejaVuSans-73" x="315.478516"/>
      <use xlink:href="#DejaVuSans-29" x="367.578125"/>
     </g>
    </g>
   </g>
   <g id="matplotlib.axis_2">
    <g id="ytick_1">
     <g id="line2d_5">
      <defs>
       <path id="m84780a2792" d="M 0 0 
L -3.5 0 
" style="stroke: #000000; stroke-width: 0.8"/>
      </defs>
      <g>
       <use xlink:href="#m84780a2792" x="62.553125" y="89.708313" style="stroke: #000000; stroke-width: 0.8"/>
      </g>
     </g>
     <g id="text_5">
      <!-- −0.2 -->
      <g transform="translate(26.41375 94.267376)scale(0.12 -0.12)">
       <defs>
        <path id="DejaVuSans-2212" d="M 678 2272 
L 4684 2272 
L 4684 1741 
L 678 1741 
L 678 2272 
z
" transform="scale(0.015625)"/>
       </defs>
       <use xlink:href="#DejaVuSans-2212"/>
       <use xlink:href="#DejaVuSans-30" x="83.789062"/>
       <use xlink:href="#DejaVuSans-2e" x="147.412109"/>
       <use xlink:href="#DejaVuSans-32" x="179.199219"/>
      </g>
     </g>
    </g>
    <g id="ytick_2">
     <g id="line2d_6">
      <g>
       <use xlink:href="#m84780a2792" x="62.553125" y="43.689262" style="stroke: #000000; stroke-width: 0.8"/>
      </g>
     </g>
     <g id="text_6">
      <!-- 0.0 -->
      <g transform="translate(36.469375 48.248325)scale(0.12 -0.12)">
       <use xlink:href="#DejaVuSans-30"/>
       <use xlink:href="#DejaVuSans-2e" x="63.623047"/>
       <use xlink:href="#DejaVuSans-30" x="95.410156"/>
      </g>
     </g>
    </g>
    <g id="text_7">
     <!-- x -->
     <g transform="translate(19.918125 61.1375)rotate(-90)scale(0.12 -0.12)">
      <defs>
       <path id="DejaVuSans-78" d="M 3513 3500 
L 2247 1797 
L 3578 0 
L 2900 0 
L 1881 1375 
L 863 0 
L 184 0 
L 1544 1831 
L 300 3500 
L 978 3500 
L 1906 2253 
L 2834 3500 
L 3513 3500 
z
" transform="scale(0.015625)"/>
      </defs>
      <use xlink:href="#DejaVuSans-78"/>
     </g>
    </g>
   </g>
   <g id="line2d_7">
    <path d="M 69.691619 43.689262 
L 69.977731 41.294256 
L 70.263843 40.88492 
L 70.836067 35.268425 
L 71.408291 36.510956 
L 71.980515 40.160924 
L 72.552739 38.298549 
L 72.838851 36.97877 
L 73.411075 39.338981 
L 73.697187 37.543786 
L 73.983299 38.705241 
L 74.269411 39.024606 
L 74.555523 39.810402 
L 74.841635 41.944459 
L 75.127747 41.356685 
L 75.413859 42.56554 
L 75.699971 40.650908 
L 75.986083 40.041531 
L 76.272195 40.813224 
L 76.558307 42.499972 
L 76.844419 43.297831 
L 77.130531 41.391552 
L 77.416643 40.860915 
L 77.702755 41.87688 
L 77.988867 42.210262 
L 78.561091 43.899021 
L 78.847203 42.673737 
L 79.133315 42.485948 
L 79.419427 42.98175 
L 79.705539 42.814969 
L 79.991651 41.192332 
L 80.277763 41.656305 
L 80.563875 41.681181 
L 80.849987 40.240687 
L 81.136099 39.756069 
L 81.708323 41.41211 
L 81.994435 42.695659 
L 82.280547 43.430075 
L 82.566659 43.375129 
L 82.852771 43.704107 
L 83.138883 43.53013 
L 83.424995 45.20565 
L 83.711107 44.879035 
L 83.997219 44.92386 
L 84.283331 45.687252 
L 84.569443 44.234023 
L 84.855555 42.011592 
L 85.141667 43.4089 
L 85.427779 43.27895 
L 85.713891 43.559182 
L 86.000003 44.508461 
L 86.286115 42.458157 
L 86.572227 41.845216 
L 86.858339 42.782407 
L 87.430563 43.655343 
L 88.288899 42.114682 
L 88.575011 42.159419 
L 88.861123 43.19834 
L 89.147235 41.854872 
L 89.433347 41.374858 
L 89.719459 42.437261 
L 90.005571 41.813689 
L 90.291683 39.288706 
L 90.577795 40.473941 
L 91.436131 37.093995 
L 91.722243 39.887528 
L 92.008355 40.581836 
L 92.580579 38.987038 
L 92.866691 40.259927 
L 93.152803 40.563046 
L 93.438915 40.550946 
L 93.725027 40.220489 
L 94.583363 44.138792 
L 94.869475 43.741743 
L 95.155587 44.013559 
L 95.727811 45.087429 
L 96.013923 44.809442 
L 96.300035 41.444269 
L 96.586147 41.029368 
L 96.872259 42.948489 
L 97.158371 41.96281 
L 97.444483 42.409289 
L 98.016707 45.312587 
L 98.588931 46.730604 
L 98.875043 44.569676 
L 99.161155 43.318635 
L 99.447267 44.201627 
L 99.733379 43.150431 
L 100.019491 43.37719 
L 100.305603 41.242173 
L 100.591715 41.319271 
L 101.163939 40.011304 
L 101.450051 39.599378 
L 101.736163 40.934742 
L 102.022275 42.87435 
L 102.308387 40.893775 
L 102.594499 40.805942 
L 102.880611 41.900267 
L 103.166723 40.713729 
L 103.452835 42.350566 
L 103.738947 41.278842 
L 104.025059 41.749263 
L 104.311171 40.65166 
L 104.883395 44.561188 
L 105.169507 43.80714 
L 105.455619 44.557366 
L 105.741731 42.410667 
L 106.027843 42.89899 
L 106.313955 42.883422 
L 106.600067 42.39226 
L 106.886179 41.28333 
L 107.172291 41.958211 
L 107.458403 40.758541 
L 107.744515 42.306228 
L 108.030627 45.024703 
L 108.316739 42.86078 
L 108.602851 45.203553 
L 108.888963 45.698933 
L 109.175075 45.247034 
L 109.461187 43.976095 
L 110.033411 43.439216 
L 110.319523 43.709518 
L 110.605635 42.344221 
L 110.891747 42.452963 
L 111.177859 42.150572 
L 111.463971 43.044578 
L 111.750083 41.913895 
L 112.036195 41.336036 
L 112.322307 41.474261 
L 112.608419 40.609122 
L 112.894531 43.667592 
L 113.180643 42.686368 
L 113.466755 43.628929 
L 114.038979 47.031317 
L 114.325091 47.304092 
L 114.611203 47.905729 
L 115.183427 47.120598 
L 115.469539 45.641938 
L 115.755651 45.682761 
L 116.041763 43.387276 
L 116.327875 44.244642 
L 116.900099 47.086091 
L 117.186211 45.020841 
L 117.472323 45.327312 
L 117.758435 45.863835 
L 118.044547 44.65657 
L 118.330659 44.510204 
L 118.616771 44.178662 
L 118.902883 44.936491 
L 119.188995 47.144367 
L 119.475107 48.444377 
L 119.761219 46.324631 
L 120.047331 46.371831 
L 120.333443 46.253376 
L 120.905667 48.007113 
L 121.191779 46.175497 
L 121.477891 45.661844 
L 122.050115 43.641806 
L 122.336227 44.434754 
L 122.622339 43.503353 
L 122.908451 43.342476 
L 123.194563 42.820273 
L 123.480675 44.052612 
L 123.766787 41.846072 
L 124.052899 41.410287 
L 124.625123 41.571246 
L 124.911235 42.765155 
L 125.197347 43.301889 
L 125.483459 43.329138 
L 125.769571 41.41523 
L 126.055683 41.218354 
L 126.341795 41.619492 
L 126.627907 42.884377 
L 126.914019 41.945506 
L 127.200131 43.931156 
L 127.486243 44.319751 
L 127.772355 44.014703 
L 128.058467 43.339971 
L 128.344579 44.412046 
L 128.630691 42.140683 
L 128.916803 41.637315 
L 129.202915 40.144159 
L 129.489027 42.852869 
L 129.775139 43.17061 
L 130.061251 45.340011 
L 130.347363 46.279361 
L 130.633475 46.299044 
L 130.919587 44.215532 
L 131.205699 45.048679 
L 131.491811 47.011126 
L 131.777923 44.073404 
L 132.064035 46.96361 
L 132.350147 45.58986 
L 132.636259 46.513498 
L 132.922371 46.713006 
L 133.208483 48.790522 
L 133.494595 49.260274 
L 133.780707 46.393407 
L 134.066819 45.861592 
L 134.352931 44.77539 
L 134.639043 46.859805 
L 134.925155 47.517044 
L 135.211267 47.854829 
L 135.497379 47.427395 
L 136.069603 48.228208 
L 136.355715 47.023508 
L 136.641827 48.32623 
L 136.927939 47.995133 
L 137.214051 48.064166 
L 137.786275 50.142594 
L 138.072387 51.609532 
L 138.358499 50.124477 
L 138.644611 50.026921 
L 138.930723 48.975065 
L 139.216835 49.082041 
L 139.502947 48.426096 
L 139.789059 48.138577 
L 140.075171 48.839602 
L 140.361283 51.859238 
L 140.647395 50.097132 
L 140.933507 49.811845 
L 141.219618 48.660178 
L 141.50573 48.551214 
L 141.791842 48.186997 
L 142.077954 46.925938 
L 142.364066 47.328667 
L 142.650178 46.565957 
L 142.93629 46.498517 
L 143.222402 47.312795 
L 143.508514 46.126101 
L 143.794626 47.533295 
L 144.36685 47.95174 
L 144.652962 46.917227 
L 144.939074 48.939631 
L 145.225186 48.194887 
L 145.511298 48.020651 
L 145.79741 48.112047 
L 146.369634 50.436884 
L 146.655746 50.750676 
L 147.22797 49.571059 
L 147.800194 46.945331 
L 148.086306 48.226216 
L 148.372418 47.48328 
L 148.65853 46.125538 
L 148.944642 46.128963 
L 149.230754 45.639949 
L 149.516866 44.15685 
L 149.802978 43.69471 
L 150.08909 44.450068 
L 150.375202 44.053496 
L 150.661314 45.018716 
L 150.947426 43.98463 
L 151.233538 43.87211 
L 151.805762 46.295251 
L 152.377986 43.538945 
L 152.664098 43.33343 
L 152.95021 42.251646 
L 153.236322 42.517258 
L 153.522434 41.550979 
L 153.808546 43.088272 
L 154.094658 43.298471 
L 154.666882 41.5351 
L 154.952994 43.618061 
L 155.239106 43.274769 
L 155.525218 43.475758 
L 155.81133 44.642152 
L 156.097442 45.29834 
L 156.383554 44.499914 
L 156.669666 45.479868 
L 156.955778 45.263875 
L 157.24189 45.549294 
L 157.528002 44.276621 
L 157.814114 44.405795 
L 158.100226 43.741679 
L 158.386338 41.663907 
L 158.67245 43.198427 
L 158.958562 43.34405 
L 159.244674 43.215588 
L 159.530786 42.604283 
L 159.816898 42.600535 
L 160.10301 41.48179 
L 160.389122 41.120126 
L 160.961346 42.269568 
L 161.247458 42.170397 
L 161.53357 44.478756 
L 161.819682 43.759524 
L 162.105794 43.545993 
L 162.391906 43.071238 
L 162.96413 45.802488 
L 163.250242 46.198498 
L 163.536354 45.57486 
L 163.822466 46.900984 
L 164.108578 47.487376 
L 164.39469 46.125366 
L 164.680802 48.027798 
L 164.966914 47.10233 
L 165.82525 46.600963 
L 166.111362 47.463182 
L 166.397474 49.398536 
L 166.683586 47.503396 
L 166.969698 46.85764 
L 167.25581 44.873894 
L 167.541922 46.589769 
L 167.828034 46.929874 
L 168.114146 48.669243 
L 168.400258 46.470286 
L 168.68637 45.789183 
L 168.972482 46.801407 
L 169.258594 47.283044 
L 169.544706 49.412232 
L 170.11693 48.592067 
L 170.403042 49.430188 
L 170.689154 48.773548 
L 170.975266 49.066741 
L 171.261378 49.18734 
L 171.54749 48.432642 
L 171.833602 50.066125 
L 172.119714 50.708453 
L 172.405826 50.637398 
L 172.691938 51.303815 
L 172.97805 51.144721 
L 173.264162 49.158962 
L 173.550274 49.129198 
L 173.836386 45.66966 
L 174.122498 46.294369 
L 174.40861 44.675226 
L 174.694722 46.425477 
L 174.980834 47.378262 
L 175.266946 44.654051 
L 175.553058 44.39311 
L 175.83917 44.567554 
L 176.125282 43.31186 
L 176.411394 43.086268 
L 176.697506 42.264286 
L 177.26973 44.130685 
L 177.555842 43.242737 
L 177.841954 43.485246 
L 178.128066 44.412525 
L 178.414178 46.713246 
L 178.70029 46.718161 
L 178.986402 45.232539 
L 179.272514 43.08356 
L 179.558626 44.6919 
L 179.844738 44.69525 
L 180.13085 43.852913 
L 180.416962 43.449406 
L 180.703074 42.516094 
L 181.275298 44.996988 
L 181.56141 45.922239 
L 181.847522 46.296666 
L 182.133634 44.292043 
L 182.419746 46.680687 
L 182.705858 47.262076 
L 183.278082 44.164839 
L 183.564194 45.373317 
L 183.850306 43.743562 
L 184.136418 43.200226 
L 184.708642 48.176458 
L 184.994754 47.153771 
L 185.280866 45.573111 
L 185.566978 45.635697 
L 186.139202 46.238982 
L 186.425314 44.743272 
L 187.28365 44.790872 
L 187.569762 44.694565 
L 187.855874 46.360842 
L 188.141986 42.409986 
L 188.428098 42.270045 
L 188.71421 42.664262 
L 189.000322 41.917743 
L 189.286434 41.865949 
L 189.572546 40.928079 
L 189.858658 40.680092 
L 190.14477 41.636039 
L 190.430882 41.175754 
L 191.289218 43.090427 
L 192.147554 46.887858 
L 192.433666 45.830681 
L 192.719778 47.6086 
L 193.00589 45.194259 
L 193.292002 44.146085 
L 193.578114 45.325577 
L 193.864226 45.241647 
L 194.150338 45.879667 
L 194.43645 44.967448 
L 194.722562 45.494649 
L 195.008674 45.537782 
L 195.294786 43.725921 
L 195.580898 42.797621 
L 195.86701 43.449691 
L 196.153122 42.307312 
L 196.439234 41.976662 
L 196.725346 43.932966 
L 197.011458 44.229826 
L 197.29757 45.534093 
L 197.583682 44.106567 
L 197.869794 43.51201 
L 198.155906 42.400505 
L 198.442018 43.781447 
L 199.014242 43.826515 
L 199.300354 44.210844 
L 199.586466 44.153573 
L 199.872578 43.344452 
L 200.15869 43.611538 
L 200.444802 40.344179 
L 201.017026 41.577157 
L 201.303138 42.164266 
L 201.58925 42.450314 
L 201.875362 40.030794 
L 202.161474 41.62119 
L 202.447586 40.259137 
L 202.733698 40.988451 
L 203.305922 38.002088 
L 203.878146 41.145564 
L 204.164258 41.333147 
L 204.736482 39.62965 
L 205.022594 38.997813 
L 205.308706 41.270858 
L 205.594818 40.212362 
L 205.88093 42.082558 
L 206.167042 40.90346 
L 206.453154 40.355977 
L 206.739266 38.606251 
L 207.025378 39.360749 
L 207.31149 38.33029 
L 207.597602 39.983646 
L 207.883714 42.868113 
L 208.455938 43.853341 
L 208.74205 43.22736 
L 209.028162 43.649035 
L 209.314274 41.474511 
L 209.600386 42.563853 
L 209.886498 42.579533 
L 210.17261 40.650854 
L 210.458722 41.623437 
L 210.744834 40.903563 
L 211.030946 41.650592 
L 211.317058 41.376967 
L 211.60317 41.997186 
L 211.889282 43.69034 
L 212.175394 43.85507 
L 212.461506 44.569887 
L 212.461506 44.569887 
" clip-path="url(#p86b7507c5d)" style="fill: none; stroke: #808080; stroke-width: 0.75; stroke-linecap: square"/>
   </g>
   <g id="line2d_8">
    <path d="M 69.691619 43.689262 
L 69.977731 41.109339 
L 70.263843 40.337174 
L 70.836067 33.693639 
L 71.408291 33.316103 
L 71.980515 35.694747 
L 72.552739 32.964949 
L 72.838851 31.115644 
L 73.411075 32.318276 
L 73.697187 30.108441 
L 73.983299 30.675925 
L 74.269411 30.517304 
L 74.555523 30.85655 
L 74.841635 32.624056 
L 75.127747 31.877466 
L 75.413859 32.87736 
L 75.699971 30.861479 
L 75.986083 29.96963 
L 76.272195 30.398032 
L 76.558307 31.816974 
L 76.844419 32.520431 
L 77.130531 30.592411 
L 77.416643 29.852111 
L 77.702755 30.607736 
L 77.988867 30.780037 
L 78.274979 31.364598 
L 78.561091 32.28926 
L 78.847203 31.105714 
L 79.133315 30.839226 
L 79.419427 31.235932 
L 79.705539 31.021994 
L 79.991651 29.334269 
L 80.277763 29.577547 
L 80.563875 29.424718 
L 80.849987 27.811088 
L 81.136099 27.038654 
L 81.422211 27.426889 
L 81.708323 28.114357 
L 82.280547 29.887047 
L 82.566659 29.828353 
L 82.852771 30.148642 
L 83.138883 29.996526 
L 83.424995 31.677414 
L 83.711107 31.527226 
L 83.997219 31.715714 
L 84.283331 32.627319 
L 84.569443 31.389496 
L 84.855555 29.245836 
L 85.141667 30.505733 
L 85.427779 30.367642 
L 85.713891 30.62665 
L 86.000003 31.583144 
L 86.286115 29.639528 
L 86.572227 28.928289 
L 86.858339 29.71671 
L 87.144451 30.016129 
L 87.430563 30.489942 
L 88.288899 28.862446 
L 88.575011 28.786521 
L 88.861123 29.710617 
L 89.147235 28.342031 
L 89.433347 27.725147 
L 89.719459 28.614821 
L 90.005571 27.907381 
L 90.291683 25.249992 
L 90.577795 26.092953 
L 91.436131 21.706269 
L 91.722243 23.967346 
L 92.008355 24.400302 
L 92.580579 22.338943 
L 92.866691 23.277014 
L 93.152803 23.36528 
L 93.438915 23.167512 
L 93.725027 22.652657 
L 94.011139 23.879474 
L 94.297251 25.675198 
L 94.583363 26.351319 
L 94.869475 26.080146 
L 95.155587 26.441906 
L 95.727811 27.791646 
L 96.013923 27.710897 
L 96.300035 24.516729 
L 96.586147 23.987791 
L 96.872259 25.759454 
L 97.158371 24.789112 
L 97.444483 25.168803 
L 98.302819 29.163839 
L 98.588931 30.052138 
L 98.875043 28.216248 
L 99.161155 27.10229 
L 99.447267 28.018123 
L 99.733379 27.071127 
L 100.019491 27.314412 
L 100.305603 25.214499 
L 100.591715 25.145286 
L 101.163939 23.499868 
L 101.450051 22.845345 
L 101.736163 23.904684 
L 102.022275 25.688543 
L 102.308387 23.716991 
L 102.594499 23.471901 
L 102.880611 24.403461 
L 103.166723 23.150316 
L 103.452835 24.61924 
L 103.738947 23.522408 
L 104.025059 23.876689 
L 104.311171 22.70518 
L 104.597283 24.223931 
L 104.883395 26.425245 
L 105.169507 25.838295 
L 105.455619 26.688526 
L 105.741731 24.704855 
L 106.027843 25.172627 
L 106.313955 25.177161 
L 106.600067 24.704464 
L 106.886179 23.573149 
L 107.172291 24.131664 
L 107.458403 22.875338 
L 107.744515 24.262628 
L 108.030627 26.957285 
L 108.316739 24.999119 
L 108.602851 27.361222 
L 108.888963 28.073517 
L 109.175075 27.874451 
L 109.461187 26.81509 
L 109.747299 26.711661 
L 110.033411 26.465185 
L 110.319523 26.789836 
L 110.605635 25.50131 
L 110.891747 25.569072 
L 111.177859 25.235469 
L 111.463971 26.073639 
L 111.750083 24.963275 
L 112.036195 24.310689 
L 112.322307 24.327338 
L 112.608419 23.354189 
L 112.894531 26.231742 
L 113.180643 25.330925 
L 113.466755 26.269585 
L 114.038979 29.994277 
L 114.325091 30.622555 
L 114.611203 31.605883 
L 115.183427 31.673599 
L 115.469539 30.562862 
L 115.755651 30.818976 
L 116.041763 28.743962 
L 116.327875 29.610065 
L 116.900099 32.788954 
L 117.186211 31.076117 
L 117.472323 31.538419 
L 117.758435 32.263454 
L 118.044547 31.294729 
L 118.330659 31.268983 
L 118.616771 31.0433 
L 118.902883 31.872541 
L 119.475107 35.86463 
L 119.761219 34.149403 
L 120.047331 34.451551 
L 120.333443 34.585201 
L 120.905667 36.850518 
L 121.191779 35.347297 
L 121.477891 35.032647 
L 122.050115 33.268845 
L 122.336227 34.061522 
L 122.622339 33.197817 
L 122.908451 33.023931 
L 123.194563 32.47555 
L 123.480675 33.639106 
L 123.766787 31.468335 
L 124.052899 30.872782 
L 124.625123 30.623857 
L 124.911235 31.626177 
L 125.197347 32.095296 
L 125.483459 32.106662 
L 125.769571 30.179494 
L 126.055683 29.775457 
L 126.341795 29.952767 
L 126.627907 31.032289 
L 126.914019 30.035334 
L 127.200131 31.867621 
L 127.486243 32.304744 
L 127.772355 32.08331 
L 128.058467 31.464081 
L 128.344579 32.525766 
L 128.630691 30.343997 
L 128.916803 29.705598 
L 129.202915 28.031278 
L 129.489027 30.438181 
L 129.775139 30.692093 
L 130.061251 32.830114 
L 130.347363 33.946521 
L 130.633475 34.220354 
L 130.919587 32.387682 
L 131.205699 33.29289 
L 131.491811 35.39539 
L 131.777923 32.738222 
L 132.064035 35.680488 
L 132.350147 34.570655 
L 132.636259 35.66455 
L 132.922371 36.083621 
L 133.208483 38.384027 
L 133.494595 39.252929 
L 133.780707 36.839067 
L 134.066819 36.474546 
L 134.352931 35.512546 
L 134.639043 37.649035 
L 135.211267 39.120043 
L 135.497379 39.004356 
L 136.069603 40.386617 
L 136.355715 39.528115 
L 136.641827 41.061015 
L 136.927939 41.071685 
L 137.214051 41.449072 
L 137.786275 44.19566 
L 138.072387 46.114741 
L 138.358499 45.245596 
L 138.644611 45.600966 
L 138.930723 44.999524 
L 139.216835 45.440528 
L 139.502947 45.13722 
L 139.789059 45.130844 
L 140.075171 46.084155 
L 140.361283 49.442468 
L 140.647395 48.365142 
L 140.933507 48.555913 
L 141.219618 47.856125 
L 141.50573 48.072045 
L 141.791842 48.0243 
L 142.077954 47.042661 
L 142.364066 47.593885 
L 142.650178 47.021015 
L 142.93629 47.066084 
L 143.222402 47.986105 
L 143.508514 46.990942 
L 143.794626 48.46668 
L 144.36685 49.36713 
L 144.652962 48.623973 
L 144.939074 50.810554 
L 145.225186 50.523627 
L 145.511298 50.716872 
L 145.79741 51.169082 
L 146.369634 54.441996 
L 146.655746 55.433287 
L 147.22797 55.643768 
L 147.800194 54.096547 
L 148.086306 55.70004 
L 148.372418 55.430079 
L 148.65853 54.468316 
L 148.944642 54.71854 
L 149.230754 54.480702 
L 149.516866 53.196047 
L 149.802978 52.765165 
L 150.08909 53.501652 
L 150.375202 53.169257 
L 150.661314 54.15512 
L 150.947426 53.251944 
L 151.233538 53.154061 
L 151.805762 55.711753 
L 152.377986 53.332555 
L 152.664098 53.098019 
L 152.95021 51.964157 
L 153.236322 52.058508 
L 153.522434 50.948896 
L 153.808546 52.212356 
L 154.094658 52.338198 
L 154.666882 50.325365 
L 154.952994 52.099005 
L 155.239106 51.722993 
L 155.525218 51.850544 
L 156.097442 53.699922 
L 156.383554 53.053229 
L 156.669666 54.097324 
L 156.955778 54.057405 
L 157.24189 54.496646 
L 157.528002 53.413616 
L 157.814114 53.588506 
L 158.100226 52.985299 
L 158.386338 50.895216 
L 158.67245 52.164454 
L 158.958562 52.236192 
L 159.244674 52.049208 
L 159.530786 51.364276 
L 159.816898 51.209903 
L 160.10301 49.93428 
L 160.389122 49.238934 
L 160.675234 49.338343 
L 160.961346 49.648864 
L 161.247458 49.283126 
L 161.53357 51.301774 
L 161.819682 50.617098 
L 162.105794 50.332726 
L 162.391906 49.750131 
L 162.96413 52.343359 
L 163.250242 52.927763 
L 163.536354 52.536988 
L 164.108578 54.933915 
L 164.39469 53.962147 
L 164.680802 56.103016 
L 164.966914 55.634787 
L 165.82525 56.176093 
L 166.111362 57.353744 
L 166.397474 59.721232 
L 166.683586 58.538769 
L 166.969698 58.385228 
L 167.25581 56.821866 
L 167.541922 58.692651 
L 167.828034 59.44042 
L 168.114146 61.642675 
L 168.400258 60.08217 
L 168.68637 59.822456 
L 169.258594 62.122373 
L 169.544706 64.748823 
L 170.11693 65.323198 
L 170.403042 66.81251 
L 170.689154 66.947202 
L 171.261378 68.829722 
L 171.54749 68.815852 
L 172.119714 72.58146 
L 172.405826 73.393617 
L 172.691938 74.938157 
L 172.97805 75.749531 
L 173.264162 74.714946 
L 173.550274 75.439328 
L 173.836386 72.731999 
L 174.122498 73.735657 
L 174.40861 72.564993 
L 174.980834 76.027122 
L 175.266946 73.87445 
L 175.553058 73.90053 
L 175.83917 74.336423 
L 176.125282 73.369194 
L 176.411394 73.288933 
L 176.697506 72.589033 
L 177.26973 74.622861 
L 177.555842 73.985003 
L 177.841954 74.375685 
L 178.128066 75.484031 
L 178.414178 78.06499 
L 178.70029 78.542011 
L 178.986402 77.520671 
L 179.272514 75.705859 
L 179.558626 77.459679 
L 179.844738 77.744262 
L 180.13085 77.178186 
L 180.416962 76.977073 
L 180.703074 76.20921 
L 181.56141 80.183485 
L 181.847522 80.925277 
L 182.133634 79.336427 
L 182.419746 81.935254 
L 182.705858 82.99285 
L 183.278082 80.794338 
L 183.564194 82.202404 
L 183.850306 80.923353 
L 184.136418 80.540435 
L 184.708642 86.006767 
L 184.994754 85.618484 
L 185.280866 84.575119 
L 185.566978 85.03177 
L 186.139202 86.442958 
L 186.425314 85.384013 
L 187.28365 86.322109 
L 187.569762 86.518611 
L 187.855874 88.466762 
L 188.141986 84.963426 
L 188.428098 84.896467 
L 188.71421 85.350618 
L 189.000322 84.696565 
L 189.286434 84.672018 
L 189.572546 83.756493 
L 189.858658 83.439112 
L 190.14477 84.29762 
L 190.430882 83.839644 
L 190.716994 84.465014 
L 191.003106 85.419432 
L 191.289218 85.835166 
L 192.147554 90.372427 
L 192.433666 89.805606 
L 192.719778 91.974593 
L 193.00589 90.072896 
L 193.292002 89.349638 
L 193.578114 90.754448 
L 193.864226 90.997384 
L 194.150338 91.947709 
L 194.43645 91.376451 
L 194.722562 92.176476 
L 195.008674 92.511457 
L 195.294786 90.97908 
L 195.580898 90.212021 
L 195.86701 90.947689 
L 196.153122 89.939782 
L 196.439234 89.646703 
L 196.725346 91.609822 
L 197.011458 92.067274 
L 197.29757 93.542058 
L 197.583682 92.337498 
L 197.869794 91.888119 
L 198.155906 90.883456 
L 198.442018 92.295637 
L 199.014242 92.567346 
L 199.300354 93.057135 
L 199.586466 93.117365 
L 199.872578 92.416687 
L 200.15869 92.748766 
L 200.444802 89.555781 
L 201.303138 91.088151 
L 201.58925 91.376143 
L 201.875362 88.977745 
L 202.161474 90.382876 
L 202.447586 88.984351 
L 202.733698 89.551225 
L 203.305922 86.21017 
L 203.592034 87.23363 
L 203.878146 88.720096 
L 204.164258 88.833948 
L 205.022594 86.06334 
L 205.308706 88.052295 
L 205.594818 86.931659 
L 205.88093 88.634008 
L 206.167042 87.474813 
L 206.453154 86.828079 
L 206.739266 84.925116 
L 207.025378 85.372769 
L 207.31149 84.104076 
L 207.597602 85.429584 
L 207.883714 88.137218 
L 208.455938 89.364792 
L 208.74205 88.934794 
L 209.028162 89.4909 
L 209.314274 87.491339 
L 209.600386 88.538533 
L 209.886498 88.622135 
L 210.17261 86.763044 
L 210.458722 87.612072 
L 210.744834 86.864953 
L 211.030946 87.513407 
L 211.317058 87.215241 
L 211.60317 87.783681 
L 211.889282 89.487043 
L 212.175394 89.830886 
L 212.461506 90.739005 
L 212.461506 90.739005 
" clip-path="url(#p86b7507c5d)" style="fill: none; stroke: #1f77b4; stroke-width: 1.5; stroke-linecap: square"/>
   </g>
   <g id="line2d_9">
    <path d="M 62.553125 43.689262 
L 219.6 43.689262 
" clip-path="url(#p86b7507c5d)" style="fill: none; stroke-dasharray: 2.775,1.2; stroke-dashoffset: 0; stroke: #808080; stroke-width: 0.75"/>
   </g>
   <g id="patch_3">
    <path d="M 62.553125 104.3725 
L 62.553125 10.8 
" style="fill: none; stroke: #000000; stroke-width: 0.8; stroke-linejoin: miter; stroke-linecap: square"/>
   </g>
   <g id="patch_4">
    <path d="M 219.6 104.3725 
L 219.6 10.8 
" style="fill: none; stroke: #000000; stroke-width: 0.8; stroke-linejoin: miter; stroke-linecap: square"/>
   </g>
   <g id="patch_5">
    <path d="M 62.553125 104.3725 
L 219.6 104.3725 
" style="fill: none; stroke: #000000; stroke-width: 0.8; stroke-linejoin: miter; stroke-linecap: square"/>
   </g>
   <g id="patch_6">
    <path d="M 62.553125 10.8 
L 219.6 10.8 
" style="fill: none; stroke: #000000; stroke-width: 0.8; stroke-linejoin: miter; stroke-linecap: square"/>
   </g>
  </g>
  <g id="axes_2">
   <g id="patch_7">
    <path d="M 62.553125 242.9725 
L 219.6 242.9725 
L 219.6 149.4 
L 62.553125 149.4 
z
" style="fill: #ffffff"/>
   </g>
   <g id="line2d_10">
    <path d="M 69.691619 182.631143 
L 69.977731 180.236138 
L 70.263843 179.587301 
L 70.836067 173.164054 
L 71.408291 172.786437 
L 71.980515 175.174324 
L 72.552739 172.525251 
L 72.838851 170.666401 
L 73.411075 171.82167 
L 73.697187 169.591446 
L 73.983299 170.138354 
L 74.269411 169.959317 
L 74.555523 170.278647 
L 74.841635 172.024819 
L 75.127747 171.262564 
L 75.413859 172.238162 
L 75.699971 170.211157 
L 75.986083 169.297945 
L 76.272195 169.704865 
L 76.558307 171.104008 
L 76.844419 171.782939 
L 77.130531 169.837517 
L 77.416643 169.077109 
L 77.702755 169.810239 
L 77.988867 169.962383 
L 78.274979 170.526033 
L 78.561091 171.426497 
L 78.847203 170.222188 
L 79.133315 169.932847 
L 79.419427 170.308318 
L 79.705539 170.070785 
L 79.991651 168.36072 
L 80.277763 168.574999 
L 80.563875 168.396579 
L 80.849987 166.755278 
L 81.136099 165.925802 
L 81.422211 166.243105 
L 81.708323 166.866266 
L 82.280547 168.557156 
L 82.566659 168.476291 
L 82.852771 168.773856 
L 83.138883 168.601363 
L 83.424995 170.260971 
L 83.711107 170.085994 
L 83.997219 170.249796 
L 84.283331 171.136649 
L 84.569443 169.883218 
L 84.855555 167.715263 
L 85.141667 168.944804 
L 85.427779 168.786818 
L 85.713891 169.026019 
L 86.000003 169.962289 
L 86.286115 167.993906 
L 86.572227 167.257854 
L 86.858339 168.01064 
L 87.144451 168.286154 
L 87.430563 168.738825 
L 88.288899 167.044325 
L 88.575011 166.931604 
L 88.861123 167.81754 
L 89.147235 166.424981 
L 89.433347 165.761527 
L 89.719459 166.59249 
L 90.005571 165.843718 
L 90.291683 163.131177 
L 90.577795 163.876357 
L 91.436131 159.167177 
L 91.722243 161.301184 
L 92.008355 161.615319 
L 92.580579 159.314558 
L 92.866691 160.117225 
L 93.152803 160.077411 
L 93.438915 159.752688 
L 93.725027 159.1084 
L 94.011139 160.200705 
L 94.297251 161.876374 
L 94.583363 162.461771 
L 94.869475 162.109675 
L 95.155587 162.386739 
L 95.727811 163.58821 
L 96.013923 163.45004 
L 96.300035 160.196885 
L 96.586147 159.557485 
L 96.872259 161.210617 
L 97.158371 160.15086 
L 97.444483 160.424694 
L 98.302819 164.194007 
L 98.588931 165.050643 
L 99.161155 162.03085 
L 99.447267 162.87678 
L 99.733379 161.87682 
L 100.019491 162.049696 
L 100.305603 159.883471 
L 100.591715 159.715861 
L 101.163939 157.855809 
L 101.450051 157.076087 
L 101.736163 158.002463 
L 102.022275 159.666619 
L 102.308387 157.604553 
L 102.594499 157.237172 
L 102.880611 158.043164 
L 103.166723 156.677727 
L 103.452835 158.017011 
L 103.738947 156.811417 
L 104.025059 157.040796 
L 104.311171 155.749193 
L 104.597283 157.133796 
L 104.883395 159.220037 
L 105.169507 158.553182 
L 105.455619 159.315196 
L 105.741731 157.255307 
L 106.027843 157.61577 
L 106.313955 157.521176 
L 106.600067 156.94943 
L 106.886179 155.710799 
L 107.172291 156.145086 
L 107.458403 154.772312 
L 107.744515 156.026927 
L 108.030627 158.607099 
L 108.316739 156.576719 
L 108.602851 158.836644 
L 108.888963 159.483454 
L 109.175075 159.232522 
L 109.461187 158.11736 
L 109.747299 157.93956 
L 110.033411 157.617199 
L 110.319523 157.862496 
L 110.605635 156.499225 
L 110.891747 156.473463 
L 111.177859 156.047442 
L 111.463971 156.787579 
L 112.036195 154.837032 
L 112.322307 154.739934 
L 112.608419 153.653295 
L 112.894531 156.403751 
L 113.180643 155.42036 
L 113.466755 156.262632 
L 114.038979 159.860181 
L 114.325091 160.467161 
L 114.611203 161.430281 
L 115.183427 161.448413 
L 115.469539 160.312886 
L 115.755651 160.548977 
L 116.041763 158.452842 
L 116.327875 159.280009 
L 116.900099 162.4092 
L 117.186211 160.683634 
L 117.472323 161.123262 
L 117.758435 161.82359 
L 118.044547 160.833783 
L 118.330659 160.784147 
L 118.616771 160.5347 
L 118.902883 161.341469 
L 119.475107 165.319587 
L 119.761219 163.675353 
L 120.333443 164.135892 
L 120.905667 166.482627 
L 121.191779 165.082796 
L 121.477891 164.817767 
L 121.764003 164.118807 
L 122.050115 163.102624 
L 122.336227 163.890826 
L 122.622339 163.033974 
L 122.908451 162.854507 
L 123.194563 162.297625 
L 123.480675 163.443065 
L 123.766787 161.27286 
L 124.052899 160.652756 
L 124.625123 160.361856 
L 124.911235 161.343963 
L 125.197347 161.788286 
L 125.483459 161.776798 
L 125.769571 159.826878 
L 126.055683 159.402598 
L 126.341795 159.556646 
L 126.627907 160.614553 
L 126.914019 159.595194 
L 127.200131 161.406469 
L 127.486243 161.819253 
L 127.772355 161.577254 
L 128.058467 160.935066 
L 128.344579 161.972212 
L 128.630691 159.773127 
L 128.916803 159.114902 
L 129.202915 157.416551 
L 129.489027 159.770751 
L 129.775139 160.004852 
L 130.061251 162.122388 
L 130.347363 163.226812 
L 130.633475 163.505505 
L 130.919587 161.682972 
L 131.205699 162.568746 
L 131.491811 164.667134 
L 131.777923 162.061599 
L 132.064035 164.990219 
L 132.350147 163.943904 
L 132.636259 165.057602 
L 132.922371 165.539533 
L 133.208483 167.919424 
L 133.494595 168.899302 
L 133.780707 166.589536 
L 134.066819 166.328136 
L 134.352931 165.459166 
L 134.639043 167.652194 
L 135.211267 169.347051 
L 135.497379 169.336173 
L 136.069603 170.927199 
L 136.355715 170.176393 
L 136.641827 171.812539 
L 136.927939 171.945139 
L 137.214051 172.444759 
L 137.786275 175.499193 
L 138.072387 177.611464 
L 138.358499 176.918436 
L 138.644611 177.464401 
L 138.930723 177.046311 
L 139.216835 177.681868 
L 139.502947 177.5652 
L 139.789059 177.751365 
L 140.075171 178.897321 
L 140.361283 182.431992 
L 140.647395 181.486883 
L 140.933507 181.842383 
L 141.219618 181.302975 
L 141.50573 181.691102 
L 141.791842 181.81308 
L 142.077954 181.001795 
L 142.364066 181.728191 
L 142.650178 181.329421 
L 142.93629 181.549651 
L 143.222402 182.644855 
L 143.508514 181.820514 
L 143.794626 183.471392 
L 144.36685 184.683691 
L 144.652962 184.075426 
L 144.939074 186.420627 
L 145.225186 186.200919 
L 145.511298 186.477246 
L 145.79741 187.001781 
L 146.369634 190.342893 
L 146.655746 191.331448 
L 147.22797 191.507144 
L 147.800194 189.930182 
L 148.086306 191.536674 
L 148.372418 191.247434 
L 148.65853 190.269094 
L 148.944642 190.516146 
L 149.230754 190.271102 
L 149.516866 188.983072 
L 149.802978 188.567691 
L 150.08909 189.323593 
L 150.375202 189.003102 
L 150.661314 190.004746 
L 150.947426 189.103605 
L 151.233538 189.020622 
L 151.805762 191.593993 
L 152.377986 189.19427 
L 152.664098 188.973724 
L 152.95021 187.856357 
L 153.236322 187.978207 
L 153.522434 186.894728 
L 153.808546 188.218192 
L 154.094658 188.368292 
L 154.666882 186.424634 
L 154.952994 188.292179 
L 155.239106 187.941767 
L 155.525218 188.101306 
L 156.097442 189.997827 
L 156.383554 189.360308 
L 156.669666 190.421328 
L 156.955778 190.384396 
L 157.24189 190.827276 
L 157.528002 189.740606 
L 157.814114 189.928516 
L 158.100226 189.336054 
L 158.386338 187.263522 
L 158.67245 188.595508 
L 158.958562 188.692047 
L 159.244674 188.529064 
L 159.530786 187.870391 
L 159.816898 187.758145 
L 160.10301 186.530528 
L 160.389122 185.948117 
L 160.675234 186.186875 
L 160.961346 186.633299 
L 161.247458 186.392158 
L 161.53357 188.548631 
L 161.819682 187.908348 
L 162.105794 187.701843 
L 162.391906 187.212761 
L 162.96413 189.977617 
L 163.250242 190.58495 
L 163.536354 190.212236 
L 163.822466 191.72692 
L 164.108578 192.634484 
L 164.39469 191.652286 
L 164.680802 193.798327 
L 164.966914 193.306713 
L 165.539138 193.677176 
L 165.82525 193.785826 
L 166.111362 194.939216 
L 166.397474 197.251961 
L 166.683586 195.927749 
L 166.969698 195.663406 
L 167.25581 193.996497 
L 167.541922 195.830836 
L 167.828034 196.460991 
L 168.114146 198.524422 
L 168.400258 196.823463 
L 168.68637 196.420462 
L 169.258594 198.43553 
L 169.544706 200.924097 
L 170.11693 201.202499 
L 170.403042 202.530901 
L 170.689154 202.448354 
L 171.261378 203.908322 
L 171.54749 203.703432 
L 171.833602 205.811252 
L 172.119714 207.091267 
L 172.405826 207.722131 
L 172.691938 209.083362 
L 172.97805 209.685723 
L 173.264162 208.44551 
L 173.550274 208.962716 
L 173.836386 206.047172 
L 174.122498 206.86992 
L 174.40861 205.511288 
L 174.980834 208.586542 
L 175.266946 206.23123 
L 175.553058 206.066768 
L 175.83917 206.311597 
L 176.125282 205.143732 
L 176.411394 204.8804 
L 176.697506 203.998119 
L 177.26973 205.66625 
L 177.555842 204.822444 
L 177.841954 205.0203 
L 178.128066 205.927178 
L 178.414178 208.300226 
L 178.70029 208.607539 
L 178.986402 207.424807 
L 179.272514 205.430156 
L 179.558626 206.977925 
L 179.844738 207.081539 
L 180.13085 206.3398 
L 180.416962 205.952659 
L 180.703074 204.995361 
L 181.56141 208.437821 
L 181.847522 209.035547 
L 182.133634 207.291663 
L 182.419746 209.740586 
L 182.705858 210.621117 
L 183.278082 208.053473 
L 183.564194 209.309509 
L 183.850306 207.848159 
L 184.136418 207.310253 
L 184.708642 212.431361 
L 184.994754 211.857394 
L 185.280866 210.623185 
L 185.566978 210.874155 
L 186.139202 211.896054 
L 186.425314 210.655316 
L 187.28365 211.023731 
L 187.569762 211.037586 
L 187.855874 212.804393 
L 188.141986 209.120695 
L 188.428098 208.852826 
L 188.71421 209.105121 
L 189.000322 208.256102 
L 189.286434 208.027156 
L 189.572546 206.906955 
L 189.858658 206.38285 
L 190.14477 207.03788 
L 190.430882 206.372272 
L 190.716994 206.790367 
L 191.003106 207.538153 
L 191.289218 207.760001 
L 192.147554 211.749427 
L 192.433666 211.012109 
L 192.719778 213.00417 
L 193.00589 210.981763 
L 193.292002 210.084089 
L 193.578114 211.309264 
L 193.864226 211.388965 
L 194.150338 212.182223 
L 194.43645 211.489044 
L 194.722562 212.144064 
L 195.008674 212.367736 
L 195.294786 210.740727 
L 195.580898 209.816092 
L 195.86701 210.378999 
L 196.153122 209.212662 
L 196.439234 208.743817 
L 196.725346 210.528862 
L 197.011458 210.850092 
L 197.29757 212.208415 
L 197.583682 210.965373 
L 197.869794 210.412546 
L 198.155906 209.283316 
L 198.442018 210.535382 
L 199.014242 210.604767 
L 199.300354 211.002821 
L 199.586466 210.997709 
L 199.872578 210.235018 
L 200.15869 210.467623 
L 200.444802 207.192492 
L 201.303138 208.204828 
L 201.58925 208.338376 
L 201.875362 205.794961 
L 202.161474 207.01951 
L 202.447586 205.45065 
L 202.733698 205.836951 
L 203.305922 202.137854 
L 203.592034 202.977722 
L 203.878146 204.284754 
L 204.164258 204.217967 
L 205.022594 200.9074 
L 205.308706 202.711301 
L 205.594818 201.410964 
L 205.88093 202.93347 
L 206.739266 198.684584 
L 207.025378 198.930781 
L 207.31149 197.467471 
L 207.597602 198.584929 
L 207.883714 201.098835 
L 208.455938 201.96596 
L 208.74205 201.356387 
L 209.028162 201.731871 
L 209.314274 199.553325 
L 209.600386 200.421191 
L 209.886498 200.32433 
L 210.17261 198.284679 
L 210.458722 198.953421 
L 210.744834 198.026964 
L 211.030946 198.495423 
L 211.317058 198.017931 
L 211.60317 198.406921 
L 211.889282 199.930868 
L 212.175394 200.095705 
L 212.461506 200.827103 
L 212.461506 200.827103 
" clip-path="url(#pc678924dde)" style="fill: none; stroke: #00bfbf; stroke-width: 1.5; stroke-linecap: square"/>
   </g>
   <g id="matplotlib.axis_3">
    <g id="xtick_4">
     <g id="line2d_11">
      <g>
       <use xlink:href="#mff70231e1a" x="69.691619" y="242.9725" style="stroke: #000000; stroke-width: 0.8"/>
      </g>
     </g>
     <g id="text_8">
      <!-- 0.0 -->
      <g transform="translate(60.149744 259.090625)scale(0.12 -0.12)">
       <use xlink:href="#DejaVuSans-30"/>
       <use xlink:href="#DejaVuSans-2e" x="63.623047"/>
       <use xlink:href="#DejaVuSans-30" x="95.410156"/>
      </g>
     </g>
    </g>
    <g id="xtick_5">
     <g id="line2d_12">
      <g>
       <use xlink:href="#mff70231e1a" x="126.914019" y="242.9725" style="stroke: #000000; stroke-width: 0.8"/>
      </g>
     </g>
     <g id="text_9">
      <!-- 0.2 -->
      <g transform="translate(117.372144 259.090625)scale(0.12 -0.12)">
       <use xlink:href="#DejaVuSans-30"/>
       <use xlink:href="#DejaVuSans-2e" x="63.623047"/>
       <use xlink:href="#DejaVuSans-32" x="95.410156"/>
      </g>
     </g>
    </g>
    <g id="xtick_6">
     <g id="line2d_13">
      <g>
       <use xlink:href="#mff70231e1a" x="184.136418" y="242.9725" style="stroke: #000000; stroke-width: 0.8"/>
      </g>
     </g>
     <g id="text_10">
      <!-- 0.4 -->
      <g transform="translate(174.594543 259.090625)scale(0.12 -0.12)">
       <use xlink:href="#DejaVuSans-30"/>
       <use xlink:href="#DejaVuSans-2e" x="63.623047"/>
       <use xlink:href="#DejaVuSans-34" x="95.410156"/>
      </g>
     </g>
    </g>
    <g id="text_11">
     <!-- Time (s) -->
     <g transform="translate(116.681875 274.704375)scale(0.12 -0.12)">
      <use xlink:href="#DejaVuSans-54"/>
      <use xlink:href="#DejaVuSans-69" x="57.958984"/>
      <use xlink:href="#DejaVuSans-6d" x="85.742188"/>
      <use xlink:href="#DejaVuSans-65" x="183.154297"/>
      <use xlink:href="#DejaVuSans-20" x="244.677734"/>
      <use xlink:href="#DejaVuSans-28" x="276.464844"/>
      <use xlink:href="#DejaVuSans-73" x="315.478516"/>
      <use xlink:href="#DejaVuSans-29" x="367.578125"/>
     </g>
    </g>
   </g>
   <g id="matplotlib.axis_4">
    <g id="ytick_3">
     <g id="line2d_14">
      <g>
       <use xlink:href="#m84780a2792" x="62.553125" y="228.308313" style="stroke: #000000; stroke-width: 0.8"/>
      </g>
     </g>
     <g id="text_12">
      <!-- −0.2 -->
      <g transform="translate(26.41375 232.867376)scale(0.12 -0.12)">
       <use xlink:href="#DejaVuSans-2212"/>
       <use xlink:href="#DejaVuSans-30" x="83.789062"/>
       <use xlink:href="#DejaVuSans-2e" x="147.412109"/>
       <use xlink:href="#DejaVuSans-32" x="179.199219"/>
      </g>
     </g>
    </g>
    <g id="ytick_4">
     <g id="line2d_15">
      <g>
       <use xlink:href="#m84780a2792" x="62.553125" y="182.289262" style="stroke: #000000; stroke-width: 0.8"/>
      </g>
     </g>
     <g id="text_13">
      <!-- 0.0 -->
      <g transform="translate(36.469375 186.848325)scale(0.12 -0.12)">
       <use xlink:href="#DejaVuSans-30"/>
       <use xlink:href="#DejaVuSans-2e" x="63.623047"/>
       <use xlink:href="#DejaVuSans-30" x="95.410156"/>
      </g>
     </g>
    </g>
    <g id="text_14">
     <!-- x -->
     <g transform="translate(19.918125 199.7375)rotate(-90)scale(0.12 -0.12)">
      <use xlink:href="#DejaVuSans-78"/>
     </g>
    </g>
   </g>
   <g id="line2d_16">
    <path d="M 69.691619 182.289262 
L 69.977731 179.894256 
L 70.263843 179.48492 
L 70.836067 173.868425 
L 71.408291 175.110956 
L 71.980515 178.760924 
L 72.552739 176.898549 
L 72.838851 175.57877 
L 73.411075 177.938981 
L 73.697187 176.143786 
L 73.983299 177.305241 
L 74.269411 177.624606 
L 74.555523 178.410402 
L 74.841635 180.544459 
L 75.127747 179.956685 
L 75.413859 181.16554 
L 75.699971 179.250908 
L 75.986083 178.641531 
L 76.272195 179.413224 
L 76.558307 181.099972 
L 76.844419 181.897831 
L 77.130531 179.991552 
L 77.416643 179.460915 
L 77.702755 180.47688 
L 77.988867 180.810262 
L 78.561091 182.499021 
L 78.847203 181.273737 
L 79.133315 181.085948 
L 79.419427 181.58175 
L 79.705539 181.414969 
L 79.991651 179.792332 
L 80.277763 180.256305 
L 80.563875 180.281181 
L 80.849987 178.840687 
L 81.136099 178.356069 
L 81.708323 180.01211 
L 81.994435 181.295659 
L 82.280547 182.030075 
L 82.566659 181.975129 
L 82.852771 182.304107 
L 83.138883 182.13013 
L 83.424995 183.80565 
L 83.711107 183.479035 
L 83.997219 183.52386 
L 84.283331 184.287252 
L 84.569443 182.834023 
L 84.855555 180.611592 
L 85.141667 182.0089 
L 85.427779 181.87895 
L 85.713891 182.159182 
L 86.000003 183.108461 
L 86.286115 181.058157 
L 86.572227 180.445216 
L 86.858339 181.382407 
L 87.430563 182.255343 
L 88.288899 180.714682 
L 88.575011 180.759419 
L 88.861123 181.79834 
L 89.147235 180.454872 
L 89.433347 179.974858 
L 89.719459 181.037261 
L 90.005571 180.413689 
L 90.291683 177.888706 
L 90.577795 179.073941 
L 91.436131 175.693995 
L 91.722243 178.487528 
L 92.008355 179.181836 
L 92.580579 177.587038 
L 92.866691 178.859927 
L 93.152803 179.163046 
L 93.438915 179.150946 
L 93.725027 178.820489 
L 94.583363 182.738792 
L 94.869475 182.341743 
L 95.155587 182.613559 
L 95.727811 183.687429 
L 96.013923 183.409442 
L 96.300035 180.044269 
L 96.586147 179.629368 
L 96.872259 181.548489 
L 97.158371 180.56281 
L 97.444483 181.009289 
L 98.016707 183.912587 
L 98.588931 185.330604 
L 98.875043 183.169676 
L 99.161155 181.918635 
L 99.447267 182.801627 
L 99.733379 181.750431 
L 100.019491 181.97719 
L 100.305603 179.842173 
L 100.591715 179.919271 
L 101.163939 178.611304 
L 101.450051 178.199378 
L 101.736163 179.534742 
L 102.022275 181.47435 
L 102.308387 179.493775 
L 102.594499 179.405942 
L 102.880611 180.500267 
L 103.166723 179.313729 
L 103.452835 180.950566 
L 103.738947 179.878842 
L 104.025059 180.349263 
L 104.311171 179.25166 
L 104.883395 183.161188 
L 105.169507 182.40714 
L 105.455619 183.157366 
L 105.741731 181.010667 
L 106.027843 181.49899 
L 106.313955 181.483422 
L 106.600067 180.99226 
L 106.886179 179.88333 
L 107.172291 180.558211 
L 107.458403 179.358541 
L 107.744515 180.906228 
L 108.030627 183.624703 
L 108.316739 181.46078 
L 108.602851 183.803553 
L 108.888963 184.298933 
L 109.175075 183.847034 
L 109.461187 182.576095 
L 110.033411 182.039216 
L 110.319523 182.309518 
L 110.605635 180.944221 
L 110.891747 181.052963 
L 111.177859 180.750572 
L 111.463971 181.644578 
L 111.750083 180.513895 
L 112.036195 179.936036 
L 112.322307 180.074261 
L 112.608419 179.209122 
L 112.894531 182.267592 
L 113.180643 181.286368 
L 113.466755 182.228929 
L 114.038979 185.631317 
L 114.325091 185.904092 
L 114.611203 186.505729 
L 115.183427 185.720598 
L 115.469539 184.241938 
L 115.755651 184.282761 
L 116.041763 181.987276 
L 116.327875 182.844642 
L 116.900099 185.686091 
L 117.186211 183.620841 
L 117.472323 183.927312 
L 117.758435 184.463835 
L 118.044547 183.25657 
L 118.330659 183.110204 
L 118.616771 182.778662 
L 118.902883 183.536491 
L 119.188995 185.744367 
L 119.475107 187.044377 
L 119.761219 184.924631 
L 120.047331 184.971831 
L 120.333443 184.853376 
L 120.905667 186.607113 
L 121.191779 184.775497 
L 121.477891 184.261844 
L 122.050115 182.241806 
L 122.336227 183.034754 
L 122.622339 182.103353 
L 122.908451 181.942476 
L 123.194563 181.420273 
L 123.480675 182.652612 
L 123.766787 180.446072 
L 124.052899 180.010287 
L 124.625123 180.171246 
L 124.911235 181.365155 
L 125.197347 181.901889 
L 125.483459 181.929138 
L 125.769571 180.01523 
L 126.055683 179.818354 
L 126.341795 180.219492 
L 126.627907 181.484377 
L 126.914019 180.545506 
L 127.200131 182.531156 
L 127.486243 182.919751 
L 127.772355 182.614703 
L 128.058467 181.939971 
L 128.344579 183.012046 
L 128.630691 180.740683 
L 128.916803 180.237315 
L 129.202915 178.744159 
L 129.489027 181.452869 
L 129.775139 181.77061 
L 130.061251 183.940011 
L 130.347363 184.879361 
L 130.633475 184.899044 
L 130.919587 182.815532 
L 131.205699 183.648679 
L 131.491811 185.611126 
L 131.777923 182.673404 
L 132.064035 185.56361 
L 132.350147 184.18986 
L 132.636259 185.113498 
L 132.922371 185.313006 
L 133.208483 187.390522 
L 133.494595 187.860274 
L 133.780707 184.993407 
L 134.066819 184.461592 
L 134.352931 183.37539 
L 134.639043 185.459805 
L 134.925155 186.117044 
L 135.211267 186.454829 
L 135.497379 186.027395 
L 136.069603 186.828208 
L 136.355715 185.623508 
L 136.641827 186.92623 
L 136.927939 186.595133 
L 137.214051 186.664166 
L 137.786275 188.742594 
L 138.072387 190.209532 
L 138.358499 188.724477 
L 138.644611 188.626921 
L 138.930723 187.575065 
L 139.216835 187.682041 
L 139.502947 187.026096 
L 139.789059 186.738577 
L 140.075171 187.439602 
L 140.361283 190.459238 
L 140.647395 188.697132 
L 140.933507 188.411845 
L 141.219618 187.260178 
L 141.50573 187.151214 
L 141.791842 186.786997 
L 142.077954 185.525938 
L 142.364066 185.928667 
L 142.650178 185.165957 
L 142.93629 185.098517 
L 143.222402 185.912795 
L 143.508514 184.726101 
L 143.794626 186.133295 
L 144.36685 186.55174 
L 144.652962 185.517227 
L 144.939074 187.539631 
L 145.225186 186.794887 
L 145.511298 186.620651 
L 145.79741 186.712047 
L 146.369634 189.036884 
L 146.655746 189.350676 
L 147.22797 188.171059 
L 147.800194 185.545331 
L 148.086306 186.826216 
L 148.372418 186.08328 
L 148.65853 184.725538 
L 148.944642 184.728963 
L 149.230754 184.239949 
L 149.516866 182.75685 
L 149.802978 182.29471 
L 150.08909 183.050068 
L 150.375202 182.653496 
L 150.661314 183.618716 
L 150.947426 182.58463 
L 151.233538 182.47211 
L 151.805762 184.895251 
L 152.377986 182.138945 
L 152.664098 181.93343 
L 152.95021 180.851646 
L 153.236322 181.117258 
L 153.522434 180.150979 
L 153.808546 181.688272 
L 154.094658 181.898471 
L 154.666882 180.1351 
L 154.952994 182.218061 
L 155.239106 181.874769 
L 155.525218 182.075758 
L 155.81133 183.242152 
L 156.097442 183.89834 
L 156.383554 183.099914 
L 156.669666 184.079868 
L 156.955778 183.863875 
L 157.24189 184.149294 
L 157.528002 182.876621 
L 157.814114 183.005795 
L 158.100226 182.341679 
L 158.386338 180.263907 
L 158.67245 181.798427 
L 158.958562 181.94405 
L 159.244674 181.815588 
L 159.530786 181.204283 
L 159.816898 181.200535 
L 160.10301 180.08179 
L 160.389122 179.720126 
L 160.961346 180.869568 
L 161.247458 180.770397 
L 161.53357 183.078756 
L 161.819682 182.359524 
L 162.105794 182.145993 
L 162.391906 181.671238 
L 162.96413 184.402488 
L 163.250242 184.798498 
L 163.536354 184.17486 
L 163.822466 185.500984 
L 164.108578 186.087376 
L 164.39469 184.725366 
L 164.680802 186.627798 
L 164.966914 185.70233 
L 165.82525 185.200963 
L 166.111362 186.063182 
L 166.397474 187.998536 
L 166.683586 186.103396 
L 166.969698 185.45764 
L 167.25581 183.473894 
L 167.541922 185.189769 
L 167.828034 185.529874 
L 168.114146 187.269243 
L 168.400258 185.070286 
L 168.68637 184.389183 
L 168.972482 185.401407 
L 169.258594 185.883044 
L 169.544706 188.012232 
L 170.11693 187.192067 
L 170.403042 188.030188 
L 170.689154 187.373548 
L 170.975266 187.666741 
L 171.261378 187.78734 
L 171.54749 187.032642 
L 171.833602 188.666125 
L 172.119714 189.308453 
L 172.405826 189.237398 
L 172.691938 189.903815 
L 172.97805 189.744721 
L 173.264162 187.758962 
L 173.550274 187.729198 
L 173.836386 184.26966 
L 174.122498 184.894369 
L 174.40861 183.275226 
L 174.694722 185.025477 
L 174.980834 185.978262 
L 175.266946 183.254051 
L 175.553058 182.99311 
L 175.83917 183.167554 
L 176.125282 181.91186 
L 176.411394 181.686268 
L 176.697506 180.864286 
L 177.26973 182.730685 
L 177.555842 181.842737 
L 177.841954 182.085246 
L 178.128066 183.012525 
L 178.414178 185.313246 
L 178.70029 185.318161 
L 178.986402 183.832539 
L 179.272514 181.68356 
L 179.558626 183.2919 
L 179.844738 183.29525 
L 180.13085 182.452913 
L 180.416962 182.049406 
L 180.703074 181.116094 
L 181.275298 183.596988 
L 181.56141 184.522239 
L 181.847522 184.896666 
L 182.133634 182.892043 
L 182.419746 185.280687 
L 182.705858 185.862076 
L 183.278082 182.764839 
L 183.564194 183.973317 
L 183.850306 182.343562 
L 184.136418 181.800226 
L 184.708642 186.776458 
L 184.994754 185.753771 
L 185.280866 184.173111 
L 185.566978 184.235697 
L 186.139202 184.838982 
L 186.425314 183.343272 
L 187.28365 183.390872 
L 187.569762 183.294565 
L 187.855874 184.960842 
L 188.141986 181.009986 
L 188.428098 180.870045 
L 188.71421 181.264262 
L 189.000322 180.517743 
L 189.286434 180.465949 
L 189.572546 179.528079 
L 189.858658 179.280092 
L 190.14477 180.236039 
L 190.430882 179.775754 
L 191.289218 181.690427 
L 192.147554 185.487858 
L 192.433666 184.430681 
L 192.719778 186.2086 
L 193.00589 183.794259 
L 193.292002 182.746085 
L 193.578114 183.925577 
L 193.864226 183.841647 
L 194.150338 184.479667 
L 194.43645 183.567448 
L 194.722562 184.094649 
L 195.008674 184.137782 
L 195.294786 182.325921 
L 195.580898 181.397621 
L 195.86701 182.049691 
L 196.153122 180.907312 
L 196.439234 180.576662 
L 196.725346 182.532966 
L 197.011458 182.829826 
L 197.29757 184.134093 
L 197.583682 182.706567 
L 197.869794 182.11201 
L 198.155906 181.000505 
L 198.442018 182.381447 
L 199.014242 182.426515 
L 199.300354 182.810844 
L 199.586466 182.753573 
L 199.872578 181.944452 
L 200.15869 182.211538 
L 200.444802 178.944179 
L 201.017026 180.177157 
L 201.303138 180.764266 
L 201.58925 181.050314 
L 201.875362 178.630794 
L 202.161474 180.22119 
L 202.447586 178.859137 
L 202.733698 179.588451 
L 203.305922 176.602088 
L 203.878146 179.745564 
L 204.164258 179.933147 
L 204.736482 178.22965 
L 205.022594 177.597813 
L 205.308706 179.870858 
L 205.594818 178.812362 
L 205.88093 180.682558 
L 206.167042 179.50346 
L 206.453154 178.955977 
L 206.739266 177.206251 
L 207.025378 177.960749 
L 207.31149 176.93029 
L 207.597602 178.583646 
L 207.883714 181.468113 
L 208.455938 182.453341 
L 208.74205 181.82736 
L 209.028162 182.249035 
L 209.314274 180.074511 
L 209.600386 181.163853 
L 209.886498 181.179533 
L 210.17261 179.250854 
L 210.458722 180.223437 
L 210.744834 179.503563 
L 211.030946 180.250592 
L 211.317058 179.976967 
L 211.60317 180.597186 
L 211.889282 182.29034 
L 212.175394 182.45507 
L 212.461506 183.169887 
L 212.461506 183.169887 
" clip-path="url(#pc678924dde)" style="fill: none; stroke: #808080; stroke-width: 0.75; stroke-linecap: square"/>
   </g>
   <g id="line2d_17">
    <path d="M 69.691619 182.289262 
L 69.977731 179.727225 
L 70.263843 178.972606 
L 70.836067 172.36437 
L 71.408291 172.0207 
L 71.980515 174.430443 
L 72.552739 171.726427 
L 72.838851 169.89229 
L 73.411075 171.130724 
L 73.697187 168.935701 
L 73.983299 169.520415 
L 74.269411 169.381061 
L 74.555523 169.739276 
L 74.841635 171.526469 
L 75.127747 170.792415 
L 75.413859 171.807878 
L 75.699971 169.804261 
L 75.986083 168.93244 
L 76.272195 169.377171 
L 76.558307 170.815179 
L 76.844419 171.533724 
L 77.130531 169.616372 
L 77.416643 168.896238 
L 77.702755 169.667235 
L 77.988867 169.859966 
L 78.274979 170.465302 
L 78.561091 171.408081 
L 78.847203 170.234121 
L 79.133315 169.987544 
L 79.419427 170.405269 
L 79.705539 170.210266 
L 79.991651 168.542955 
L 80.277763 168.7969 
L 80.563875 168.656627 
L 80.849987 167.054173 
L 81.136099 166.287069 
L 81.422211 166.681804 
L 81.708323 167.37465 
L 82.280547 169.162039 
L 82.566659 169.119165 
L 82.852771 169.45462 
L 83.138883 169.321419 
L 83.424995 171.019614 
L 83.711107 170.881572 
L 83.997219 171.0842 
L 84.283331 172.006999 
L 84.569443 170.774009 
L 84.855555 168.646115 
L 85.141667 169.914569 
L 85.427779 169.798533 
L 85.713891 170.079093 
L 86.000003 171.05791 
L 86.286115 169.125883 
L 86.572227 168.427734 
L 86.858339 169.221223 
L 87.144451 169.53491 
L 87.430563 170.027352 
L 88.288899 168.452921 
L 88.575011 168.380659 
L 88.861123 169.307776 
L 89.147235 167.953741 
L 89.433347 167.33697 
L 89.719459 168.224976 
L 90.005571 167.51917 
L 90.291683 164.8604 
L 90.577795 165.705756 
L 91.436131 161.327995 
L 91.722243 163.61401 
L 92.008355 164.04807 
L 92.580579 161.990006 
L 92.866691 162.937334 
L 93.152803 163.02887 
L 93.438915 162.83405 
L 93.725027 162.322699 
L 94.011139 163.55524 
L 94.297251 165.35187 
L 94.583363 166.030562 
L 94.869475 165.760695 
L 95.155587 166.124689 
L 95.727811 167.472723 
L 96.013923 167.389144 
L 96.300035 164.192081 
L 96.586147 163.66273 
L 96.872259 165.434929 
L 97.158371 164.467242 
L 97.444483 164.846862 
L 98.302819 168.840921 
L 98.588931 169.735557 
L 99.161155 166.803956 
L 99.447267 167.717153 
L 99.733379 166.767595 
L 100.019491 167.008456 
L 100.305603 164.905489 
L 100.591715 164.837432 
L 101.163939 163.192454 
L 101.450051 162.539956 
L 101.736163 163.60356 
L 102.022275 165.387826 
L 102.308387 163.418528 
L 102.594499 163.174505 
L 102.880611 164.108021 
L 103.166723 162.854003 
L 103.452835 164.325921 
L 103.738947 163.228262 
L 104.025059 163.584264 
L 104.311171 162.413111 
L 104.597283 163.936711 
L 104.883395 166.137247 
L 105.169507 165.550659 
L 105.455619 166.402981 
L 105.741731 164.418278 
L 106.027843 164.885262 
L 106.313955 164.890499 
L 106.600067 164.418513 
L 106.886179 163.2864 
L 107.172291 163.846324 
L 107.458403 162.589402 
L 107.744515 163.980544 
L 108.030627 166.674265 
L 108.316739 164.713721 
L 108.602851 167.075867 
L 108.888963 167.784631 
L 109.175075 167.583002 
L 109.461187 166.520504 
L 109.747299 166.415582 
L 110.033411 166.168161 
L 110.319523 166.493147 
L 110.605635 165.203293 
L 110.891747 165.272954 
L 111.177859 164.941368 
L 111.463971 165.780564 
L 111.750083 164.67201 
L 112.036195 164.019425 
L 112.322307 164.03522 
L 112.608419 163.06121 
L 112.894531 165.941047 
L 113.180643 165.041488 
L 113.466755 165.981438 
L 114.038979 169.706279 
L 114.325091 170.354083 
L 114.611203 171.359859 
L 115.183427 171.439483 
L 115.469539 170.333735 
L 115.755651 170.612518 
L 116.041763 168.557866 
L 116.327875 169.42458 
L 116.900099 172.625439 
L 117.186211 170.911646 
L 117.472323 171.389715 
L 117.758435 172.120726 
L 118.044547 171.149839 
L 118.330659 171.135089 
L 118.616771 170.920771 
L 118.902883 171.765862 
L 119.475107 175.729067 
L 119.761219 173.993863 
L 120.047331 174.271009 
L 120.333443 174.375664 
L 120.905667 176.589173 
L 121.191779 175.093638 
L 121.477891 174.752973 
L 122.050115 172.940332 
L 122.336227 173.733429 
L 122.622339 172.853789 
L 122.908451 172.681375 
L 123.194563 172.135234 
L 123.480675 173.299407 
L 123.766787 171.123051 
L 124.052899 170.538272 
L 124.625123 170.331898 
L 124.911235 171.3567 
L 125.197347 171.832303 
L 125.483459 171.843818 
L 125.769571 169.916723 
L 126.055683 169.534403 
L 126.341795 169.728218 
L 126.627907 170.827081 
L 126.914019 169.847201 
L 127.200131 171.700096 
L 127.486243 172.138035 
L 127.772355 171.914733 
L 128.058467 171.2943 
L 128.344579 172.363843 
L 128.630691 170.180534 
L 128.916803 169.56504 
L 129.202915 167.906645 
L 129.489027 170.308238 
L 129.775139 170.585067 
L 130.061251 172.744275 
L 130.347363 173.858187 
L 130.633475 174.108951 
L 130.919587 172.248008 
L 131.205699 173.151069 
L 131.491811 175.24825 
L 131.777923 172.562519 
L 132.064035 175.503987 
L 132.350147 174.371059 
L 132.636259 175.435514 
L 132.922371 175.832405 
L 133.208483 178.119761 
L 133.494595 179.014436 
L 133.780707 176.614666 
L 134.066819 176.257677 
L 134.352931 175.292684 
L 134.639043 177.404297 
L 135.211267 178.924911 
L 135.497379 178.82519 
L 136.069603 180.22798 
L 136.355715 179.354682 
L 136.641827 180.894727 
L 136.927939 180.881802 
L 137.214051 181.236281 
L 137.786275 183.965823 
L 138.072387 185.907453 
L 138.358499 185.056646 
L 138.644611 185.445201 
L 138.930723 184.869443 
L 139.216835 185.347169 
L 139.502947 185.072959 
L 139.789059 185.101725 
L 140.075171 186.090296 
L 140.361283 189.467654 
L 140.647395 188.475384 
L 140.933507 188.732473 
L 141.219618 188.106369 
L 141.50573 188.381675 
L 141.791842 188.401355 
L 142.077954 187.488573 
L 142.364066 188.081176 
L 142.650178 187.568673 
L 142.93629 187.657649 
L 143.222402 188.6245 
L 143.508514 187.708345 
L 143.794626 189.232555 
L 144.36685 190.353788 
L 144.652962 189.73119 
L 144.939074 192.042041 
L 145.225186 191.826612 
L 145.511298 192.104713 
L 145.79741 192.634326 
L 146.369634 196.025556 
L 146.655746 197.088732 
L 147.22797 197.526603 
L 147.800194 196.213327 
L 148.086306 197.902773 
L 148.372418 197.766906 
L 148.65853 196.939008 
L 148.944642 197.304214 
L 149.230754 197.194115 
L 149.516866 196.036246 
L 149.802978 195.695945 
L 150.08909 196.513633 
L 150.375202 196.29037 
L 150.661314 197.37854 
L 150.947426 196.615373 
L 151.233538 196.634606 
L 151.805762 199.46432 
L 152.377986 197.382619 
L 152.664098 197.300207 
L 152.95021 196.317616 
L 153.236322 196.527275 
L 153.522434 195.541689 
L 153.808546 196.92191 
L 154.094658 197.189331 
L 154.666882 195.460679 
L 154.952994 197.382612 
L 155.239106 197.170335 
L 155.525218 197.458964 
L 156.097442 199.65675 
L 156.383554 199.178911 
L 156.669666 200.40034 
L 156.955778 200.519804 
L 157.24189 201.118422 
L 157.528002 200.184898 
L 157.814114 200.530363 
L 158.100226 200.093581 
L 158.386338 198.179062 
L 158.67245 199.668398 
L 158.958562 199.924585 
L 159.244674 199.920373 
L 159.530786 199.420488 
L 159.816898 199.468411 
L 160.10301 198.400886 
L 160.389122 197.977554 
L 160.675234 198.371007 
L 160.961346 198.976334 
L 161.247458 198.895627 
L 161.53357 201.212493 
L 161.819682 200.72515 
L 162.105794 200.673308 
L 162.391906 200.339149 
L 162.96413 203.414558 
L 163.250242 204.185055 
L 163.536354 204.000795 
L 164.108578 206.838594 
L 164.39469 206.07227 
L 164.680802 208.449009 
L 164.966914 208.160066 
L 165.82525 209.247726 
L 166.111362 210.60418 
L 166.397474 213.117578 
L 166.683586 212.014229 
L 166.969698 211.950053 
L 167.25581 210.482687 
L 167.541922 212.518264 
L 167.828034 213.356486 
L 168.114146 215.644189 
L 168.400258 214.148156 
L 168.68637 213.969206 
L 169.258594 216.418138 
L 169.544706 219.097581 
L 170.11693 219.70728 
L 170.403042 221.211637 
L 170.689154 221.335718 
L 171.261378 223.227762 
L 171.54749 223.244562 
L 172.119714 227.050198 
L 172.405826 227.877926 
L 172.691938 229.43559 
L 172.97805 230.215801 
L 173.264162 229.128116 
L 173.550274 229.829734 
L 173.836386 227.080744 
L 174.122498 228.100401 
L 174.40861 226.937235 
L 174.980834 230.39604 
L 175.266946 228.185829 
L 175.553058 228.216352 
L 175.83917 228.65598 
L 176.125282 227.679246 
L 176.411394 227.612873 
L 176.697506 226.927659 
L 177.26973 228.988984 
L 177.555842 228.33195 
L 177.841954 228.723825 
L 178.128066 229.821076 
L 178.414178 232.36096 
L 178.70029 232.711446 
L 178.986402 231.553824 
L 179.272514 229.646758 
L 179.558626 231.366727 
L 179.844738 231.56808 
L 180.13085 230.913145 
L 180.416962 230.647211 
L 180.703074 229.823851 
L 181.275298 232.479664 
L 181.56141 233.572581 
L 181.847522 234.160798 
L 182.133634 232.396191 
L 182.419746 234.886408 
L 182.705858 235.749467 
L 183.278082 233.164736 
L 183.564194 234.425461 
L 183.850306 232.942409 
L 184.136418 232.418697 
L 184.708642 237.561646 
L 184.994754 237.040077 
L 185.280866 235.846024 
L 185.566978 236.104191 
L 186.139202 237.16969 
L 186.425314 235.972412 
L 187.28365 236.38543 
L 187.569762 236.422062 
L 187.855874 238.212654 
L 188.141986 234.588818 
L 188.428098 234.299921 
L 188.71421 234.530654 
L 189.000322 233.660258 
L 189.286434 233.419387 
L 189.572546 232.294465 
L 189.858658 231.817105 
L 190.14477 232.545178 
L 190.430882 231.913063 
L 190.716994 232.398871 
L 191.003106 233.18781 
L 191.289218 233.413426 
L 192.147554 237.384677 
L 192.433666 236.695998 
L 192.719778 238.719205 
L 193.00589 236.755987 
L 193.292002 235.891045 
L 193.578114 237.124759 
L 193.864226 237.246786 
L 194.150338 238.085417 
L 194.43645 237.451493 
L 194.722562 238.156637 
L 195.008674 238.439951 
L 195.294786 236.873009 
L 195.580898 235.984182 
L 195.86701 236.558394 
L 196.153122 235.419535 
L 196.439234 234.945422 
L 196.725346 236.714022 
L 197.011458 237.066874 
L 197.29757 238.466044 
L 197.583682 237.28303 
L 197.869794 236.776456 
L 198.155906 235.680497 
L 198.442018 236.934824 
L 199.014242 237.081794 
L 199.300354 237.521078 
L 199.586466 237.567554 
L 199.872578 236.857376 
L 200.15869 237.125379 
L 200.444802 233.892589 
L 201.303138 234.844851 
L 201.58925 234.960263 
L 201.875362 232.400678 
L 202.161474 233.666284 
L 202.447586 232.085342 
L 202.733698 232.529815 
L 203.305922 229.002544 
L 203.592034 230.028971 
L 203.878146 231.495657 
L 204.164258 231.519634 
L 204.736482 229.481552 
L 205.022594 228.620454 
L 205.308706 230.615858 
L 205.594818 229.450901 
L 205.88093 231.150879 
L 206.167042 229.920256 
L 206.453154 229.257706 
L 206.739266 227.356532 
L 207.025378 227.799913 
L 207.31149 226.53328 
L 207.597602 227.846817 
L 207.883714 230.55726 
L 208.455938 231.675508 
L 208.74205 231.146824 
L 209.028162 231.631664 
L 209.314274 229.536426 
L 209.600386 230.579562 
L 209.886498 230.619732 
L 210.17261 228.715283 
L 210.458722 229.574497 
L 210.744834 228.822279 
L 211.030946 229.4799 
L 211.317058 229.17915 
L 211.60317 229.751595 
L 211.889282 231.44459 
L 212.175394 231.702966 
L 212.461506 232.513735 
L 212.461506 232.513735 
" clip-path="url(#pc678924dde)" style="fill: none; stroke: #ff7f0e; stroke-width: 1.5; stroke-linecap: square"/>
   </g>
   <g id="line2d_18">
    <path d="M 62.553125 182.289262 
L 219.6 182.289262 
" clip-path="url(#pc678924dde)" style="fill: none; stroke-dasharray: 2.775,1.2; stroke-dashoffset: 0; stroke: #808080; stroke-width: 0.75"/>
   </g>
   <g id="patch_8">
    <path d="M 62.553125 242.9725 
L 62.553125 149.4 
" style="fill: none; stroke: #000000; stroke-width: 0.8; stroke-linejoin: miter; stroke-linecap: square"/>
   </g>
   <g id="patch_9">
    <path d="M 219.6 242.9725 
L 219.6 149.4 
" style="fill: none; stroke: #000000; stroke-width: 0.8; stroke-linejoin: miter; stroke-linecap: square"/>
   </g>
   <g id="patch_10">
    <path d="M 62.553125 242.9725 
L 219.6 242.9725 
" style="fill: none; stroke: #000000; stroke-width: 0.8; stroke-linejoin: miter; stroke-linecap: square"/>
   </g>
   <g id="patch_11">
    <path d="M 62.553125 149.4 
L 219.6 149.4 
" style="fill: none; stroke: #000000; stroke-width: 0.8; stroke-linejoin: miter; stroke-linecap: square"/>
   </g>
  </g>
 </g>
 <defs>
  <clipPath id="p86b7507c5d">
   <rect x="62.553125" y="10.8" width="157.046875" height="93.5725"/>
  </clipPath>
  <clipPath id="pc678924dde">
   <rect x="62.553125" y="149.4" width="157.046875" height="93.5725"/>
  </clipPath>
 </defs>
</svg>
