<?xml version="1.0" encoding="utf-8" standalone="no"?>
<!DOCTYPE svg PUBLIC "-//W3C//DTD SVG 1.1//EN"
  "http://www.w3.org/Graphics/SVG/1.1/DTD/svg11.dtd">
<svg xmlns:xlink="http://www.w3.org/1999/xlink" width="576pt" height="126pt" viewBox="0 0 576 126" xmlns="http://www.w3.org/2000/svg" version="1.1">
 <metadata>
  <rdf:RDF xmlns:dc="http://purl.org/dc/elements/1.1/" xmlns:cc="http://creativecommons.org/ns#" xmlns:rdf="http://www.w3.org/1999/02/22-rdf-syntax-ns#">
   <cc:Work>
    <dc:type rdf:resource="http://purl.org/dc/dcmitype/StillImage"/>
    <dc:date>2025-06-20T14:37:51.731235</dc:date>
    <dc:format>image/svg+xml</dc:format>
    <dc:creator>
     <cc:Agent>
      <dc:title>Matplotlib v3.5.2, https://matplotlib.org/</dc:title>
     </cc:Agent>
    </dc:creator>
   </cc:Work>
  </rdf:RDF>
 </metadata>
 <defs>
  <style type="text/css">*{stroke-linejoin: round; stroke-linecap: butt}</style>
 </defs>
 <g id="figure_1">
  <g id="patch_1">
   <path d="M 0 126 
L 576 126 
L 576 0 
L 0 0 
z
" style="fill: #ffffff"/>
  </g>
  <g id="axes_1">
   <g id="patch_2">
    <path d="M 51.104375 80.9725 
L 282.6 80.9725 
L 282.6 15.359062 
L 51.104375 15.359062 
z
" style="fill: #ffffff"/>
   </g>
   <g id="matplotlib.axis_1">
    <g id="xtick_1">
     <g id="line2d_1">
      <defs>
       <path id="m55e5429e24" d="M 0 0 
L 0 3.5 
" style="stroke: #000000; stroke-width: 0.8"/>
      </defs>
      <g>
       <use xlink:href="#m55e5429e24" x="61.626903" y="80.9725" style="stroke: #000000; stroke-width: 0.8"/>
      </g>
     </g>
     <g id="text_1">
      <!-- 0.0 -->
      <g transform="translate(52.085028 97.090625)scale(0.12 -0.12)">
       <defs>
        <path id="DejaVuSans-30" d="M 2034 4250 
Q 1547 4250 1301 3770 
Q 1056 3291 1056 2328 
Q 1056 1369 1301 889 
Q 1547 409 2034 409 
Q 2525 409 2770 889 
Q 3016 1369 3016 2328 
Q 3016 3291 2770 3770 
Q 2525 4250 2034 4250 
z
M 2034 4750 
Q 2819 4750 3233 4129 
Q 3647 3509 3647 2328 
Q 3647 1150 3233 529 
Q 2819 -91 2034 -91 
Q 1250 -91 836 529 
Q 422 1150 422 2328 
Q 422 3509 836 4129 
Q 1250 4750 2034 4750 
z
" transform="scale(0.015625)"/>
        <path id="DejaVuSans-2e" d="M 684 794 
L 1344 794 
L 1344 0 
L 684 0 
L 684 794 
z
" transform="scale(0.015625)"/>
       </defs>
       <use xlink:href="#DejaVuSans-30"/>
       <use xlink:href="#DejaVuSans-2e" x="63.623047"/>
       <use xlink:href="#DejaVuSans-30" x="95.410156"/>
      </g>
     </g>
    </g>
    <g id="xtick_2">
     <g id="line2d_2">
      <g>
       <use xlink:href="#m55e5429e24" x="117.821982" y="80.9725" style="stroke: #000000; stroke-width: 0.8"/>
      </g>
     </g>
     <g id="text_2">
      <!-- 0.2 -->
      <g transform="translate(108.280107 97.090625)scale(0.12 -0.12)">
       <defs>
        <path id="DejaVuSans-32" d="M 1228 531 
L 3431 531 
L 3431 0 
L 469 0 
L 469 531 
Q 828 903 1448 1529 
Q 2069 2156 2228 2338 
Q 2531 2678 2651 2914 
Q 2772 3150 2772 3378 
Q 2772 3750 2511 3984 
Q 2250 4219 1831 4219 
Q 1534 4219 1204 4116 
Q 875 4013 500 3803 
L 500 4441 
Q 881 4594 1212 4672 
Q 1544 4750 1819 4750 
Q 2544 4750 2975 4387 
Q 3406 4025 3406 3419 
Q 3406 3131 3298 2873 
Q 3191 2616 2906 2266 
Q 2828 2175 2409 1742 
Q 1991 1309 1228 531 
z
" transform="scale(0.015625)"/>
       </defs>
       <use xlink:href="#DejaVuSans-30"/>
       <use xlink:href="#DejaVuSans-2e" x="63.623047"/>
       <use xlink:href="#DejaVuSans-32" x="95.410156"/>
      </g>
     </g>
    </g>
    <g id="xtick_3">
     <g id="line2d_3">
      <g>
       <use xlink:href="#m55e5429e24" x="174.01706" y="80.9725" style="stroke: #000000; stroke-width: 0.8"/>
      </g>
     </g>
     <g id="text_3">
      <!-- 0.4 -->
      <g transform="translate(164.475185 97.090625)scale(0.12 -0.12)">
       <defs>
        <path id="DejaVuSans-34" d="M 2419 4116 
L 825 1625 
L 2419 1625 
L 2419 4116 
z
M 2253 4666 
L 3047 4666 
L 3047 1625 
L 3713 1625 
L 3713 1100 
L 3047 1100 
L 3047 0 
L 2419 0 
L 2419 1100 
L 313 1100 
L 313 1709 
L 2253 4666 
z
" transform="scale(0.015625)"/>
       </defs>
       <use xlink:href="#DejaVuSans-30"/>
       <use xlink:href="#DejaVuSans-2e" x="63.623047"/>
       <use xlink:href="#DejaVuSans-34" x="95.410156"/>
      </g>
     </g>
    </g>
    <g id="xtick_4">
     <g id="line2d_4">
      <g>
       <use xlink:href="#m55e5429e24" x="230.212138" y="80.9725" style="stroke: #000000; stroke-width: 0.8"/>
      </g>
     </g>
     <g id="text_4">
      <!-- 0.6 -->
      <g transform="translate(220.670263 97.090625)scale(0.12 -0.12)">
       <defs>
        <path id="DejaVuSans-36" d="M 2113 2584 
Q 1688 2584 1439 2293 
Q 1191 2003 1191 1497 
Q 1191 994 1439 701 
Q 1688 409 2113 409 
Q 2538 409 2786 701 
Q 3034 994 3034 1497 
Q 3034 2003 2786 2293 
Q 2538 2584 2113 2584 
z
M 3366 4563 
L 3366 3988 
Q 3128 4100 2886 4159 
Q 2644 4219 2406 4219 
Q 1781 4219 1451 3797 
Q 1122 3375 1075 2522 
Q 1259 2794 1537 2939 
Q 1816 3084 2150 3084 
Q 2853 3084 3261 2657 
Q 3669 2231 3669 1497 
Q 3669 778 3244 343 
Q 2819 -91 2113 -91 
Q 1303 -91 875 529 
Q 447 1150 447 2328 
Q 447 3434 972 4092 
Q 1497 4750 2381 4750 
Q 2619 4750 2861 4703 
Q 3103 4656 3366 4563 
z
" transform="scale(0.015625)"/>
       </defs>
       <use xlink:href="#DejaVuSans-30"/>
       <use xlink:href="#DejaVuSans-2e" x="63.623047"/>
       <use xlink:href="#DejaVuSans-36" x="95.410156"/>
      </g>
     </g>
    </g>
    <g id="text_5">
     <!-- Time (s) -->
     <g transform="translate(142.4575 112.704375)scale(0.12 -0.12)">
      <defs>
       <path id="DejaVuSans-54" d="M -19 4666 
L 3928 4666 
L 3928 4134 
L 2272 4134 
L 2272 0 
L 1638 0 
L 1638 4134 
L -19 4134 
L -19 4666 
z
" transform="scale(0.015625)"/>
       <path id="DejaVuSans-69" d="M 603 3500 
L 1178 3500 
L 1178 0 
L 603 0 
L 603 3500 
z
M 603 4863 
L 1178 4863 
L 1178 4134 
L 603 4134 
L 603 4863 
z
" transform="scale(0.015625)"/>
       <path id="DejaVuSans-6d" d="M 3328 2828 
Q 3544 3216 3844 3400 
Q 4144 3584 4550 3584 
Q 5097 3584 5394 3201 
Q 5691 2819 5691 2113 
L 5691 0 
L 5113 0 
L 5113 2094 
Q 5113 2597 4934 2840 
Q 4756 3084 4391 3084 
Q 3944 3084 3684 2787 
Q 3425 2491 3425 1978 
L 3425 0 
L 2847 0 
L 2847 2094 
Q 2847 2600 2669 2842 
Q 2491 3084 2119 3084 
Q 1678 3084 1418 2786 
Q 1159 2488 1159 1978 
L 1159 0 
L 581 0 
L 581 3500 
L 1159 3500 
L 1159 2956 
Q 1356 3278 1631 3431 
Q 1906 3584 2284 3584 
Q 2666 3584 2933 3390 
Q 3200 3197 3328 2828 
z
" transform="scale(0.015625)"/>
       <path id="DejaVuSans-65" d="M 3597 1894 
L 3597 1613 
L 953 1613 
Q 991 1019 1311 708 
Q 1631 397 2203 397 
Q 2534 397 2845 478 
Q 3156 559 3463 722 
L 3463 178 
Q 3153 47 2828 -22 
Q 2503 -91 2169 -91 
Q 1331 -91 842 396 
Q 353 884 353 1716 
Q 353 2575 817 3079 
Q 1281 3584 2069 3584 
Q 2775 3584 3186 3129 
Q 3597 2675 3597 1894 
z
M 3022 2063 
Q 3016 2534 2758 2815 
Q 2500 3097 2075 3097 
Q 1594 3097 1305 2825 
Q 1016 2553 972 2059 
L 3022 2063 
z
" transform="scale(0.015625)"/>
       <path id="DejaVuSans-20" transform="scale(0.015625)"/>
       <path id="DejaVuSans-28" d="M 1984 4856 
Q 1566 4138 1362 3434 
Q 1159 2731 1159 2009 
Q 1159 1288 1364 580 
Q 1569 -128 1984 -844 
L 1484 -844 
Q 1016 -109 783 600 
Q 550 1309 550 2009 
Q 550 2706 781 3412 
Q 1013 4119 1484 4856 
L 1984 4856 
z
" transform="scale(0.015625)"/>
       <path id="DejaVuSans-73" d="M 2834 3397 
L 2834 2853 
Q 2591 2978 2328 3040 
Q 2066 3103 1784 3103 
Q 1356 3103 1142 2972 
Q 928 2841 928 2578 
Q 928 2378 1081 2264 
Q 1234 2150 1697 2047 
L 1894 2003 
Q 2506 1872 2764 1633 
Q 3022 1394 3022 966 
Q 3022 478 2636 193 
Q 2250 -91 1575 -91 
Q 1294 -91 989 -36 
Q 684 19 347 128 
L 347 722 
Q 666 556 975 473 
Q 1284 391 1588 391 
Q 1994 391 2212 530 
Q 2431 669 2431 922 
Q 2431 1156 2273 1281 
Q 2116 1406 1581 1522 
L 1381 1569 
Q 847 1681 609 1914 
Q 372 2147 372 2553 
Q 372 3047 722 3315 
Q 1072 3584 1716 3584 
Q 2034 3584 2315 3537 
Q 2597 3491 2834 3397 
z
" transform="scale(0.015625)"/>
       <path id="DejaVuSans-29" d="M 513 4856 
L 1013 4856 
Q 1481 4119 1714 3412 
Q 1947 2706 1947 2009 
Q 1947 1309 1714 600 
Q 1481 -109 1013 -844 
L 513 -844 
Q 928 -128 1133 580 
Q 1338 1288 1338 2009 
Q 1338 2731 1133 3434 
Q 928 4138 513 4856 
z
" transform="scale(0.015625)"/>
      </defs>
      <use xlink:href="#DejaVuSans-54"/>
      <use xlink:href="#DejaVuSans-69" x="57.958984"/>
      <use xlink:href="#DejaVuSans-6d" x="85.742188"/>
      <use xlink:href="#DejaVuSans-65" x="183.154297"/>
      <use xlink:href="#DejaVuSans-20" x="244.677734"/>
      <use xlink:href="#DejaVuSans-28" x="276.464844"/>
      <use xlink:href="#DejaVuSans-73" x="315.478516"/>
      <use xlink:href="#DejaVuSans-29" x="367.578125"/>
     </g>
    </g>
   </g>
   <g id="matplotlib.axis_2">
    <g id="ytick_1">
     <g id="line2d_5">
      <defs>
       <path id="m029754e50f" d="M 0 0 
L -3.5 0 
" style="stroke: #000000; stroke-width: 0.8"/>
      </defs>
      <g>
       <use xlink:href="#m029754e50f" x="51.104375" y="80.9725" style="stroke: #000000; stroke-width: 0.8"/>
      </g>
     </g>
     <g id="text_6">
      <!-- −2 -->
      <g transform="translate(26.41375 85.531562)scale(0.12 -0.12)">
       <defs>
        <path id="DejaVuSans-2212" d="M 678 2272 
L 4684 2272 
L 4684 1741 
L 678 1741 
L 678 2272 
z
" transform="scale(0.015625)"/>
       </defs>
       <use xlink:href="#DejaVuSans-2212"/>
       <use xlink:href="#DejaVuSans-32" x="83.789062"/>
      </g>
     </g>
    </g>
    <g id="ytick_2">
     <g id="line2d_6">
      <g>
       <use xlink:href="#m029754e50f" x="51.104375" y="48.165781" style="stroke: #000000; stroke-width: 0.8"/>
      </g>
     </g>
     <g id="text_7">
      <!-- 0 -->
      <g transform="translate(36.469375 52.724844)scale(0.12 -0.12)">
       <use xlink:href="#DejaVuSans-30"/>
      </g>
     </g>
    </g>
    <g id="ytick_3">
     <g id="line2d_7">
      <g>
       <use xlink:href="#m029754e50f" x="51.104375" y="15.359062" style="stroke: #000000; stroke-width: 0.8"/>
      </g>
     </g>
     <g id="text_8">
      <!-- 2 -->
      <g transform="translate(36.469375 19.918125)scale(0.12 -0.12)">
       <use xlink:href="#DejaVuSans-32"/>
      </g>
     </g>
    </g>
    <g id="text_9">
     <!-- x -->
     <g transform="translate(19.918125 51.717031)rotate(-90)scale(0.12 -0.12)">
      <defs>
       <path id="DejaVuSans-78" d="M 3513 3500 
L 2247 1797 
L 3578 0 
L 2900 0 
L 1881 1375 
L 863 0 
L 184 0 
L 1544 1831 
L 300 3500 
L 978 3500 
L 1906 2253 
L 2834 3500 
L 3513 3500 
z
" transform="scale(0.015625)"/>
      </defs>
      <use xlink:href="#DejaVuSans-78"/>
     </g>
    </g>
   </g>
   <g id="line2d_8">
    <path d="M 61.626903 26.841414 
L 62.46983 26.850368 
L 63.312756 27.09422 
L 64.717633 27.820855 
L 66.68446 29.110853 
L 68.932264 31.048384 
L 70.056165 32.276087 
L 71.180067 33.825067 
L 72.584944 36.125271 
L 77.08055 44.389999 
L 80.171279 50.204347 
L 84.666886 58.168068 
L 87.195664 61.955508 
L 90.848344 66.930111 
L 91.972246 67.872224 
L 93.096147 68.504008 
L 94.501024 69.013223 
L 96.186877 69.383569 
L 97.310778 69.519121 
L 98.153704 69.370911 
L 98.99663 69.025547 
L 100.963458 67.899484 
L 102.368335 66.852102 
L 104.616138 64.829316 
L 105.74004 63.465382 
L 106.863941 61.811434 
L 108.549794 58.880789 
L 113.326375 50.036666 
L 118.664908 40.27012 
L 120.069785 37.95633 
L 122.317588 34.592308 
L 125.970268 29.573211 
L 127.09417 28.577506 
L 128.218071 27.910589 
L 129.622948 27.373375 
L 131.3088 26.985139 
L 132.713677 26.829142 
L 133.556604 27.006755 
L 134.680505 27.521177 
L 136.647333 28.711621 
L 138.333185 30.065009 
L 140.019038 31.650379 
L 141.142939 33.046211 
L 142.266841 34.729164 
L 144.795619 39.184978 
L 147.324398 43.879852 
L 150.977078 50.751004 
L 155.472684 58.64094 
L 157.720487 61.982757 
L 161.373167 66.952029 
L 162.497069 67.886844 
L 163.62097 68.513854 
L 165.025847 69.019306 
L 166.992675 69.432566 
L 168.116577 69.494094 
L 168.959503 69.268856 
L 170.083405 68.718777 
L 172.050232 67.497706 
L 173.736085 66.115061 
L 175.421937 64.494843 
L 176.545839 63.053627 
L 177.950715 60.837192 
L 180.198519 56.855007 
L 182.446322 52.703527 
L 186.099002 45.845199 
L 190.313633 38.361186 
L 193.123387 34.165442 
L 196.495091 29.55209 
L 197.618993 28.563392 
L 198.742894 27.901117 
L 200.147771 27.367577 
L 201.833624 26.981676 
L 203.238501 26.830176 
L 204.081427 27.011805 
L 205.205328 27.529833 
L 207.172156 28.724102 
L 208.858009 30.081224 
L 210.543861 31.671951 
L 211.667762 33.073076 
L 212.791664 34.758139 
L 215.601418 39.715427 
L 217.849221 43.91148 
L 221.501901 50.781534 
L 225.997507 58.668626 
L 228.245311 62.006646 
L 231.617015 66.672826 
L 232.740917 67.700438 
L 233.864818 68.388406 
L 235.269695 68.942288 
L 236.955548 69.341354 
L 238.360425 69.516363 
L 239.203351 69.35611 
L 240.046277 69.003154 
L 242.013105 67.873178 
L 243.417982 66.820129 
L 245.665785 64.789371 
L 246.789686 63.416319 
L 247.913588 61.750176 
L 249.59944 58.809501 
L 253.814071 51.037188 
L 256.9048 45.301525 
L 261.962357 36.592017 
L 264.772111 32.558083 
L 267.30089 29.250167 
L 268.424792 28.361769 
L 269.548693 27.765415 
L 270.95357 27.283846 
L 272.077472 27.02961 
L 272.077472 27.02961 
" clip-path="url(#pcefbb82dd4)" style="fill: none; stroke: #1f77b4; stroke-width: 1.5; stroke-linecap: square"/>
   </g>
   <g id="line2d_9">
    <path d="M 61.626903 48.165781 
L 64.436657 42.583532 
L 66.68446 38.836998 
L 69.494214 34.155405 
L 70.899091 32.354176 
L 72.584944 30.537025 
L 74.551771 28.707632 
L 76.518599 27.189956 
L 77.361525 26.900213 
L 78.485427 26.801364 
L 79.890304 26.974973 
L 81.857132 27.529967 
L 83.262009 28.133667 
L 84.666886 29.153061 
L 85.790787 30.324649 
L 87.476639 32.399251 
L 89.443467 35.153487 
L 91.69127 38.814795 
L 95.905901 46.265584 
L 100.963458 55.941303 
L 105.74004 63.519329 
L 107.425892 65.401131 
L 109.673695 67.528093 
L 111.640523 69.080467 
L 112.483449 69.409765 
L 113.607351 69.538268 
L 115.012228 69.38985 
L 116.69808 68.947538 
L 118.383932 68.276612 
L 119.507834 67.519463 
L 120.35076 66.76885 
L 122.036613 64.834276 
L 124.00344 62.21307 
L 125.408317 60.095543 
L 129.903924 52.461599 
L 131.589776 49.291853 
L 135.242456 42.057191 
L 139.176111 35.440326 
L 140.300013 33.735773 
L 141.70489 32.008103 
L 143.952693 29.683235 
L 146.200496 27.744207 
L 147.043422 27.179568 
L 147.886349 26.895265 
L 149.01025 26.80198 
L 150.415127 26.979167 
L 152.381955 27.536956 
L 153.786832 28.14562 
L 155.191709 29.171995 
L 156.31561 30.347003 
L 158.001463 32.42422 
L 159.96829 35.186221 
L 162.216094 38.850217 
L 166.430724 46.305873 
L 171.488281 55.977976 
L 176.264863 63.545969 
L 178.231691 65.707541 
L 180.198519 67.54703 
L 182.165346 69.093279 
L 183.008273 69.415584 
L 184.132174 69.538618 
L 185.537051 69.386009 
L 187.222903 68.940648 
L 188.908756 68.266182 
L 190.032657 67.503812 
L 190.875583 66.746406 
L 192.561436 64.806845 
L 194.528264 62.184243 
L 195.933141 60.063775 
L 200.428747 52.429034 
L 202.114599 49.252468 
L 205.767279 42.025838 
L 209.98191 34.951606 
L 211.105812 33.339318 
L 212.510689 31.677529 
L 214.758492 29.410253 
L 217.006295 27.509394 
L 217.849221 27.050495 
L 218.692147 26.842517 
L 219.816049 26.819041 
L 221.220926 27.047568 
L 223.187753 27.650532 
L 224.311655 28.155809 
L 225.716532 29.188793 
L 226.840434 30.36685 
L 228.526286 32.446253 
L 230.493114 35.21383 
L 232.740917 38.879392 
L 236.955548 46.337408 
L 242.013105 56.00599 
L 246.789686 63.566183 
L 248.756514 65.7243 
L 250.723342 67.561139 
L 252.69017 69.102561 
L 253.533096 69.419407 
L 254.656997 69.538286 
L 256.061874 69.382297 
L 258.028702 68.83948 
L 259.433579 68.257177 
L 260.557481 67.490767 
L 261.400407 66.728158 
L 263.086259 64.784178 
L 265.053087 62.160204 
L 266.457964 60.03682 
L 270.672595 52.883335 
L 272.077472 50.311972 
L 272.077472 50.311972 
" clip-path="url(#pcefbb82dd4)" style="fill: none; stroke: #ff7f0e; stroke-width: 1.5; stroke-linecap: square"/>
   </g>
   <g id="line2d_10">
    <path d="M 61.626903 26.841414 
L 62.35861 26.887071 
L 63.090317 27.023847 
L 63.822024 27.251156 
L 64.55373 27.568024 
L 65.285437 27.973095 
L 66.017144 28.464635 
L 66.748851 29.040538 
L 67.480557 29.698338 
L 68.212264 30.435218 
L 68.943971 31.248023 
L 69.675678 32.133273 
L 70.407384 33.087177 
L 71.139091 34.105649 
L 71.870798 35.184329 
L 72.602505 36.318598 
L 73.334211 37.503598 
L 74.065918 38.734255 
L 74.797625 40.005299 
L 75.529332 41.311288 
L 76.261038 42.646629 
L 76.992745 44.005604 
L 77.724452 45.382393 
L 78.456159 46.771101 
L 79.187865 48.165781 
L 79.919572 49.560462 
L 80.651279 50.94917 
L 81.382986 52.325959 
L 82.114692 53.684934 
L 82.846399 55.020274 
L 83.578106 56.326263 
L 84.309813 57.597308 
L 85.041519 58.827965 
L 85.773226 60.012965 
L 86.504933 61.147233 
L 87.23664 62.225914 
L 87.968346 63.244386 
L 88.700053 64.198289 
L 89.43176 65.083539 
L 90.163467 65.896345 
L 90.895173 66.633225 
L 91.62688 67.291025 
L 92.358587 67.866928 
L 93.090294 68.358467 
L 93.822 68.763538 
L 94.553707 69.080407 
L 95.285414 69.307716 
L 96.017121 69.444491 
L 96.748827 69.490148 
L 97.480534 69.444491 
L 98.212241 69.307716 
L 98.943948 69.080407 
L 99.675654 68.763538 
L 100.407361 68.358467 
L 101.139068 67.866928 
L 101.870775 67.291025 
L 102.602481 66.633225 
L 103.334188 65.896345 
L 104.065895 65.083539 
L 104.797602 64.198289 
L 105.529308 63.244386 
L 106.261015 62.225914 
L 106.992722 61.147233 
L 107.724429 60.012965 
L 108.456135 58.827965 
L 109.187842 57.597308 
L 109.919549 56.326263 
L 110.651256 55.020274 
L 111.382962 53.684934 
L 112.114669 52.325959 
L 112.846376 50.94917 
L 113.578083 49.560462 
L 114.309789 48.165781 
L 115.041496 46.771101 
L 115.773203 45.382393 
L 116.50491 44.005604 
L 117.236616 42.646629 
L 117.968323 41.311288 
L 118.70003 40.005299 
L 119.431737 38.734255 
L 120.163443 37.503598 
L 120.89515 36.318598 
L 121.626857 35.184329 
L 122.358564 34.105649 
L 123.09027 33.087177 
L 123.821977 32.133273 
L 124.553684 31.248023 
L 125.285391 30.435218 
L 126.017097 29.698338 
L 126.748804 29.040538 
L 127.480511 28.464635 
L 128.212218 27.973095 
L 128.943924 27.568024 
L 129.675631 27.251156 
L 130.407338 27.023847 
L 131.139045 26.887071 
" clip-path="url(#pcefbb82dd4)" style="fill: none; stroke-dasharray: 5.55,2.4; stroke-dashoffset: 0; stroke: #000000; stroke-width: 1.5"/>
   </g>
   <g id="line2d_11">
    <path d="M 61.626903 48.165781 
L 62.35861 46.771101 
L 63.090317 45.382393 
L 63.822024 44.005604 
L 64.55373 42.646629 
L 65.285437 41.311288 
L 66.017144 40.005299 
L 66.748851 38.734255 
L 67.480557 37.503598 
L 68.212264 36.318598 
L 68.943971 35.184329 
L 69.675678 34.105649 
L 70.407384 33.087177 
L 71.139091 32.133273 
L 71.870798 31.248023 
L 72.602505 30.435218 
L 73.334211 29.698338 
L 74.065918 29.040538 
L 74.797625 28.464635 
L 75.529332 27.973095 
L 76.261038 27.568024 
L 76.992745 27.251156 
L 77.724452 27.023847 
L 78.456159 26.887071 
L 79.187865 26.841414 
L 79.919572 26.887071 
L 80.651279 27.023847 
L 81.382986 27.251156 
L 82.114692 27.568024 
L 82.846399 27.973095 
L 83.578106 28.464635 
L 84.309813 29.040538 
L 85.041519 29.698338 
L 85.773226 30.435218 
L 86.504933 31.248023 
L 87.23664 32.133273 
L 87.968346 33.087177 
L 88.700053 34.105649 
L 89.43176 35.184329 
L 90.163467 36.318598 
L 90.895173 37.503598 
L 91.62688 38.734255 
L 92.358587 40.005299 
L 93.090294 41.311288 
L 93.822 42.646629 
L 94.553707 44.005604 
L 95.285414 45.382393 
L 96.017121 46.771101 
L 96.748827 48.165781 
L 97.480534 49.560462 
L 98.212241 50.94917 
L 98.943948 52.325959 
L 99.675654 53.684934 
L 100.407361 55.020274 
L 101.139068 56.326263 
L 101.870775 57.597308 
L 102.602481 58.827965 
L 103.334188 60.012965 
L 104.065895 61.147233 
L 104.797602 62.225914 
L 105.529308 63.244386 
L 106.261015 64.198289 
L 106.992722 65.083539 
L 107.724429 65.896345 
L 108.456135 66.633225 
L 109.187842 67.291025 
L 109.919549 67.866928 
L 110.651256 68.358467 
L 111.382962 68.763538 
L 112.114669 69.080407 
L 112.846376 69.307716 
L 113.578083 69.444491 
L 114.309789 69.490148 
L 115.041496 69.444491 
L 115.773203 69.307716 
L 116.50491 69.080407 
L 117.236616 68.763538 
L 117.968323 68.358467 
L 118.70003 67.866928 
L 119.431737 67.291025 
L 120.163443 66.633225 
L 120.89515 65.896345 
L 121.626857 65.083539 
L 122.358564 64.198289 
L 123.09027 63.244386 
L 123.821977 62.225914 
L 124.553684 61.147233 
L 125.285391 60.012965 
L 126.017097 58.827965 
L 126.748804 57.597308 
L 127.480511 56.326263 
L 128.212218 55.020274 
L 128.943924 53.684934 
L 129.675631 52.325959 
L 130.407338 50.94917 
L 131.139045 49.560462 
" clip-path="url(#pcefbb82dd4)" style="fill: none; stroke-dasharray: 5.55,2.4; stroke-dashoffset: 0; stroke: #000000; stroke-width: 1.5"/>
   </g>
   <g id="patch_3">
    <path d="M 51.104375 80.9725 
L 51.104375 15.359062 
" style="fill: none; stroke: #000000; stroke-width: 0.8; stroke-linejoin: miter; stroke-linecap: square"/>
   </g>
   <g id="patch_4">
    <path d="M 282.6 80.9725 
L 282.6 15.359062 
" style="fill: none; stroke: #000000; stroke-width: 0.8; stroke-linejoin: miter; stroke-linecap: square"/>
   </g>
   <g id="patch_5">
    <path d="M 51.104375 80.9725 
L 282.6 80.9725 
" style="fill: none; stroke: #000000; stroke-width: 0.8; stroke-linejoin: miter; stroke-linecap: square"/>
   </g>
   <g id="patch_6">
    <path d="M 51.104375 15.359062 
L 282.6 15.359062 
" style="fill: none; stroke: #000000; stroke-width: 0.8; stroke-linejoin: miter; stroke-linecap: square"/>
   </g>
  </g>
  <g id="axes_2">
   <g id="patch_7">
    <path d="M 333.704375 80.9725 
L 565.2 80.9725 
L 565.2 15.359062 
L 333.704375 15.359062 
z
" style="fill: #ffffff"/>
   </g>
   <g id="PathCollection_1">
    <defs>
     <path id="mdf1b3e7a29" d="M -0 3 
L 3 -3 
L -3 -3 
z
" style="stroke: #000000"/>
    </defs>
    <g clip-path="url(#p62ae957e2d)">
     <use xlink:href="#mdf1b3e7a29" x="396.909789" y="21.920406" style="stroke: #000000"/>
    </g>
   </g>
   <g id="matplotlib.axis_3">
    <g id="xtick_5">
     <g id="line2d_12">
      <g>
       <use xlink:href="#m55e5429e24" x="344.226903" y="80.9725" style="stroke: #000000; stroke-width: 0.8"/>
      </g>
     </g>
     <g id="text_10">
      <!-- 0.0 -->
      <g transform="translate(334.685028 97.090625)scale(0.12 -0.12)">
       <use xlink:href="#DejaVuSans-30"/>
       <use xlink:href="#DejaVuSans-2e" x="63.623047"/>
       <use xlink:href="#DejaVuSans-30" x="95.410156"/>
      </g>
     </g>
    </g>
    <g id="xtick_6">
     <g id="line2d_13">
      <g>
       <use xlink:href="#m55e5429e24" x="400.421982" y="80.9725" style="stroke: #000000; stroke-width: 0.8"/>
      </g>
     </g>
     <g id="text_11">
      <!-- 0.2 -->
      <g transform="translate(390.880107 97.090625)scale(0.12 -0.12)">
       <use xlink:href="#DejaVuSans-30"/>
       <use xlink:href="#DejaVuSans-2e" x="63.623047"/>
       <use xlink:href="#DejaVuSans-32" x="95.410156"/>
      </g>
     </g>
    </g>
    <g id="xtick_7">
     <g id="line2d_14">
      <g>
       <use xlink:href="#m55e5429e24" x="456.61706" y="80.9725" style="stroke: #000000; stroke-width: 0.8"/>
      </g>
     </g>
     <g id="text_12">
      <!-- 0.4 -->
      <g transform="translate(447.075185 97.090625)scale(0.12 -0.12)">
       <use xlink:href="#DejaVuSans-30"/>
       <use xlink:href="#DejaVuSans-2e" x="63.623047"/>
       <use xlink:href="#DejaVuSans-34" x="95.410156"/>
      </g>
     </g>
    </g>
    <g id="xtick_8">
     <g id="line2d_15">
      <g>
       <use xlink:href="#m55e5429e24" x="512.812138" y="80.9725" style="stroke: #000000; stroke-width: 0.8"/>
      </g>
     </g>
     <g id="text_13">
      <!-- 0.6 -->
      <g transform="translate(503.270263 97.090625)scale(0.12 -0.12)">
       <use xlink:href="#DejaVuSans-30"/>
       <use xlink:href="#DejaVuSans-2e" x="63.623047"/>
       <use xlink:href="#DejaVuSans-36" x="95.410156"/>
      </g>
     </g>
    </g>
    <g id="text_14">
     <!-- Time (s) -->
     <g transform="translate(425.0575 112.704375)scale(0.12 -0.12)">
      <use xlink:href="#DejaVuSans-54"/>
      <use xlink:href="#DejaVuSans-69" x="57.958984"/>
      <use xlink:href="#DejaVuSans-6d" x="85.742188"/>
      <use xlink:href="#DejaVuSans-65" x="183.154297"/>
      <use xlink:href="#DejaVuSans-20" x="244.677734"/>
      <use xlink:href="#DejaVuSans-28" x="276.464844"/>
      <use xlink:href="#DejaVuSans-73" x="315.478516"/>
      <use xlink:href="#DejaVuSans-29" x="367.578125"/>
     </g>
    </g>
   </g>
   <g id="matplotlib.axis_4">
    <g id="ytick_4">
     <g id="line2d_16">
      <g>
       <use xlink:href="#m029754e50f" x="333.704375" y="80.9725" style="stroke: #000000; stroke-width: 0.8"/>
      </g>
     </g>
     <g id="text_15">
      <!-- −2 -->
      <g transform="translate(309.01375 85.531562)scale(0.12 -0.12)">
       <use xlink:href="#DejaVuSans-2212"/>
       <use xlink:href="#DejaVuSans-32" x="83.789062"/>
      </g>
     </g>
    </g>
    <g id="ytick_5">
     <g id="line2d_17">
      <g>
       <use xlink:href="#m029754e50f" x="333.704375" y="48.165781" style="stroke: #000000; stroke-width: 0.8"/>
      </g>
     </g>
     <g id="text_16">
      <!-- 0 -->
      <g transform="translate(319.069375 52.724844)scale(0.12 -0.12)">
       <use xlink:href="#DejaVuSans-30"/>
      </g>
     </g>
    </g>
    <g id="ytick_6">
     <g id="line2d_18">
      <g>
       <use xlink:href="#m029754e50f" x="333.704375" y="15.359062" style="stroke: #000000; stroke-width: 0.8"/>
      </g>
     </g>
     <g id="text_17">
      <!-- 2 -->
      <g transform="translate(319.069375 19.918125)scale(0.12 -0.12)">
       <use xlink:href="#DejaVuSans-32"/>
      </g>
     </g>
    </g>
    <g id="text_18">
     <!-- x -->
     <g transform="translate(302.518125 51.717031)rotate(-90)scale(0.12 -0.12)">
      <use xlink:href="#DejaVuSans-78"/>
     </g>
    </g>
   </g>
   <g id="line2d_19">
    <path d="M 344.226903 26.841414 
L 345.06983 26.850368 
L 345.912756 27.09422 
L 347.317633 27.820855 
L 349.28446 29.110853 
L 351.532264 31.048384 
L 352.656165 32.276087 
L 353.780067 33.825067 
L 355.184944 36.125271 
L 359.68055 44.389999 
L 362.771279 50.204347 
L 367.266886 58.168068 
L 369.795664 61.955508 
L 373.448344 66.930111 
L 374.572246 67.872224 
L 375.696147 68.504008 
L 377.101024 69.013223 
L 378.786877 69.383569 
L 379.910778 69.519121 
L 380.753704 69.370911 
L 381.59663 69.025547 
L 383.563458 67.899484 
L 384.968335 66.852102 
L 387.216138 64.829316 
L 388.34004 63.465382 
L 389.463941 61.811434 
L 391.149794 58.880789 
L 395.926375 50.036666 
L 396.769302 48.447611 
L 397.050277 56.13337 
L 398.455154 52.598698 
L 399.860031 49.626153 
L 401.826859 45.991696 
L 406.322465 38.260661 
L 409.413194 33.771182 
L 412.784899 29.286332 
L 413.9088 28.386214 
L 415.032702 27.782062 
L 416.437579 27.294471 
L 418.404407 26.894373 
L 419.247333 26.826123 
L 420.090259 26.999639 
L 421.214161 27.509641 
L 423.180988 28.695698 
L 424.866841 30.04491 
L 426.552693 31.621792 
L 427.676595 33.011352 
L 428.800496 34.692175 
L 431.048299 38.651268 
L 433.577078 43.285985 
L 437.229758 50.196246 
L 441.725364 58.161276 
L 444.254143 61.949741 
L 447.906823 66.925309 
L 449.030724 67.869018 
L 450.154626 68.501844 
L 451.559503 69.011885 
L 453.245355 69.382776 
L 454.369257 69.519477 
L 455.212183 69.372888 
L 456.055109 69.028585 
L 458.021937 67.90296 
L 459.426814 66.856402 
L 461.674617 64.834628 
L 462.798519 63.472175 
L 463.92242 61.81996 
L 465.608273 58.890636 
L 470.66583 49.520495 
L 473.475583 44.402994 
L 475.442411 40.792374 
L 476.847288 38.400443 
L 479.657042 34.204193 
L 483.028747 29.577941 
L 484.152648 28.580664 
L 485.27655 27.912707 
L 486.681427 27.374669 
L 488.367279 26.985906 
L 489.772156 26.828976 
L 490.615082 27.005759 
L 491.738984 27.519368 
L 493.705812 28.708979 
L 495.391664 30.061586 
L 497.077516 31.645584 
L 498.201418 33.040301 
L 499.325319 34.722863 
L 501.854098 39.177754 
L 504.382877 43.8726 
L 508.035557 50.743755 
L 512.531163 58.634594 
L 514.778966 61.977321 
L 518.431646 66.947769 
L 519.555548 67.884004 
L 520.679449 68.511943 
L 522.084326 69.018126 
L 524.051154 69.43192 
L 525.175055 69.49484 
L 526.017982 69.270777 
L 527.141883 68.721244 
L 529.108711 67.500802 
L 530.794563 66.118679 
L 532.480416 64.499119 
L 533.604317 63.058936 
L 535.009194 60.844071 
L 537.256997 56.862124 
L 539.5048 52.712149 
L 543.157481 45.852781 
L 547.372111 38.367342 
L 550.181865 34.171549 
L 553.55357 29.556195 
L 554.677472 28.566137 
L 554.677472 28.566137 
" clip-path="url(#p62ae957e2d)" style="fill: none; stroke: #1f77b4; stroke-width: 1.5; stroke-linecap: square"/>
   </g>
   <g id="line2d_20">
    <path d="M 344.226903 48.165781 
L 347.036657 42.583532 
L 349.28446 38.836998 
L 352.094214 34.155405 
L 353.499091 32.354176 
L 355.184944 30.537025 
L 357.151771 28.707632 
L 359.118599 27.189956 
L 359.961525 26.900213 
L 361.085427 26.801364 
L 362.490304 26.974973 
L 364.457132 27.529967 
L 365.862009 28.133667 
L 367.266886 29.153061 
L 368.390787 30.324649 
L 370.076639 32.399251 
L 372.043467 35.153487 
L 374.29127 38.814795 
L 378.505901 46.265584 
L 383.563458 55.941303 
L 388.34004 63.519329 
L 390.025892 65.401131 
L 392.273695 67.528093 
L 394.240523 69.080467 
L 395.083449 69.409765 
L 396.207351 69.538268 
L 396.769302 69.508046 
L 397.050277 77.67981 
L 397.893203 75.730718 
L 399.017105 73.780817 
L 400.141006 72.34371 
L 401.264908 71.24281 
L 402.669785 70.149593 
L 406.04149 67.791807 
L 407.165391 66.64907 
L 408.851243 64.582028 
L 410.818071 61.886124 
L 412.503924 59.215546 
L 416.437579 52.502901 
L 418.123431 49.339751 
L 421.776111 42.095815 
L 425.428792 35.956997 
L 426.833668 33.768759 
L 428.238545 32.034606 
L 430.205373 29.976572 
L 431.891226 28.474732 
L 433.577078 27.192137 
L 434.420004 26.901151 
L 435.543906 26.801168 
L 436.948783 26.974 
L 438.91561 27.528437 
L 440.320487 28.131111 
L 441.725364 29.14913 
L 442.849266 30.319948 
L 444.535118 32.393995 
L 446.501946 35.146444 
L 448.468774 38.339071 
L 451.840478 44.142603 
L 453.526331 47.368161 
L 456.336085 53.042527 
L 458.021937 55.932738 
L 462.798519 63.512957 
L 464.484371 65.395488 
L 466.732174 67.52352 
L 468.699002 69.077363 
L 469.541928 69.408304 
L 470.66583 69.538112 
L 472.070707 69.390663 
L 473.756559 68.949059 
L 475.442411 68.278933 
L 476.566313 67.522992 
L 477.409239 66.773999 
L 479.095091 64.840503 
L 481.061919 62.219538 
L 482.466796 60.10266 
L 486.962402 52.46864 
L 488.648255 49.300228 
L 492.300935 42.063844 
L 496.23459 35.447045 
L 497.358492 33.741379 
L 498.763369 32.012615 
L 501.011172 29.68696 
L 503.258975 27.747664 
L 504.101901 27.181681 
L 504.944827 26.89633 
L 506.068729 26.801917 
L 507.473606 26.978395 
L 509.440434 27.535607 
L 510.845311 28.143261 
L 512.250187 29.168184 
L 513.374089 30.342523 
L 515.059941 32.419222 
L 517.026769 35.179782 
L 519.274572 38.843381 
L 523.489203 46.298259 
L 528.54676 55.971138 
L 533.323342 63.54105 
L 535.29017 65.703428 
L 537.256997 67.543558 
L 539.223825 69.09095 
L 540.066751 69.414566 
L 541.190653 69.53861 
L 542.59553 69.386794 
L 544.281382 68.942004 
L 545.967234 68.268224 
L 547.091136 67.506837 
L 547.934062 66.750698 
L 549.619915 64.812135 
L 551.586742 62.18983 
L 552.991619 60.069955 
L 554.677472 57.283337 
L 554.677472 57.283337 
" clip-path="url(#p62ae957e2d)" style="fill: none; stroke: #ff7f0e; stroke-width: 1.5; stroke-linecap: square"/>
   </g>
   <g id="patch_8">
    <path d="M 333.704375 80.9725 
L 333.704375 15.359062 
" style="fill: none; stroke: #000000; stroke-width: 0.8; stroke-linejoin: miter; stroke-linecap: square"/>
   </g>
   <g id="patch_9">
    <path d="M 565.2 80.9725 
L 565.2 15.359062 
" style="fill: none; stroke: #000000; stroke-width: 0.8; stroke-linejoin: miter; stroke-linecap: square"/>
   </g>
   <g id="patch_10">
    <path d="M 333.704375 80.9725 
L 565.2 80.9725 
" style="fill: none; stroke: #000000; stroke-width: 0.8; stroke-linejoin: miter; stroke-linecap: square"/>
   </g>
   <g id="patch_11">
    <path d="M 333.704375 15.359062 
L 565.2 15.359062 
" style="fill: none; stroke: #000000; stroke-width: 0.8; stroke-linejoin: miter; stroke-linecap: square"/>
   </g>
  </g>
 </g>
 <defs>
  <clipPath id="pcefbb82dd4">
   <rect x="51.104375" y="15.359062" width="231.495625" height="65.613438"/>
  </clipPath>
  <clipPath id="p62ae957e2d">
   <rect x="333.704375" y="15.359062" width="231.495625" height="65.613438"/>
  </clipPath>
 </defs>
</svg>
