<?xml version="1.0" encoding="utf-8" standalone="no"?>
<!DOCTYPE svg PUBLIC "-//W3C//DTD SVG 1.1//EN"
  "http://www.w3.org/Graphics/SVG/1.1/DTD/svg11.dtd">
<svg xmlns:xlink="http://www.w3.org/1999/xlink" width="576pt" height="126pt" viewBox="0 0 576 126" xmlns="http://www.w3.org/2000/svg" version="1.1">
 <metadata>
  <rdf:RDF xmlns:dc="http://purl.org/dc/elements/1.1/" xmlns:cc="http://creativecommons.org/ns#" xmlns:rdf="http://www.w3.org/1999/02/22-rdf-syntax-ns#">
   <cc:Work>
    <dc:type rdf:resource="http://purl.org/dc/dcmitype/StillImage"/>
    <dc:date>2025-06-20T14:47:27.848067</dc:date>
    <dc:format>image/svg+xml</dc:format>
    <dc:creator>
     <cc:Agent>
      <dc:title>Matplotlib v3.5.2, https://matplotlib.org/</dc:title>
     </cc:Agent>
    </dc:creator>
   </cc:Work>
  </rdf:RDF>
 </metadata>
 <defs>
  <style type="text/css">*{stroke-linejoin: round; stroke-linecap: butt}</style>
 </defs>
 <g id="figure_1">
  <g id="patch_1">
   <path d="M 0 126 
L 576 126 
L 576 0 
L 0 0 
z
" style="fill: #ffffff"/>
  </g>
  <g id="axes_1">
   <g id="patch_2">
    <path d="M 51.104375 80.9725 
L 282.6 80.9725 
L 282.6 15.359062 
L 51.104375 15.359062 
z
" style="fill: #ffffff"/>
   </g>
   <g id="matplotlib.axis_1">
    <g id="xtick_1">
     <g id="line2d_1">
      <defs>
       <path id="m6daa18fc07" d="M 0 0 
L 0 3.5 
" style="stroke: #000000; stroke-width: 0.8"/>
      </defs>
      <g>
       <use xlink:href="#m6daa18fc07" x="61.626903" y="80.9725" style="stroke: #000000; stroke-width: 0.8"/>
      </g>
     </g>
     <g id="text_1">
      <!-- 0.0 -->
      <g transform="translate(52.085028 97.090625)scale(0.12 -0.12)">
       <defs>
        <path id="DejaVuSans-30" d="M 2034 4250 
Q 1547 4250 1301 3770 
Q 1056 3291 1056 2328 
Q 1056 1369 1301 889 
Q 1547 409 2034 409 
Q 2525 409 2770 889 
Q 3016 1369 3016 2328 
Q 3016 3291 2770 3770 
Q 2525 4250 2034 4250 
z
M 2034 4750 
Q 2819 4750 3233 4129 
Q 3647 3509 3647 2328 
Q 3647 1150 3233 529 
Q 2819 -91 2034 -91 
Q 1250 -91 836 529 
Q 422 1150 422 2328 
Q 422 3509 836 4129 
Q 1250 4750 2034 4750 
z
" transform="scale(0.015625)"/>
        <path id="DejaVuSans-2e" d="M 684 794 
L 1344 794 
L 1344 0 
L 684 0 
L 684 794 
z
" transform="scale(0.015625)"/>
       </defs>
       <use xlink:href="#DejaVuSans-30"/>
       <use xlink:href="#DejaVuSans-2e" x="63.623047"/>
       <use xlink:href="#DejaVuSans-30" x="95.410156"/>
      </g>
     </g>
    </g>
    <g id="xtick_2">
     <g id="line2d_2">
      <g>
       <use xlink:href="#m6daa18fc07" x="117.821982" y="80.9725" style="stroke: #000000; stroke-width: 0.8"/>
      </g>
     </g>
     <g id="text_2">
      <!-- 0.2 -->
      <g transform="translate(108.280107 97.090625)scale(0.12 -0.12)">
       <defs>
        <path id="DejaVuSans-32" d="M 1228 531 
L 3431 531 
L 3431 0 
L 469 0 
L 469 531 
Q 828 903 1448 1529 
Q 2069 2156 2228 2338 
Q 2531 2678 2651 2914 
Q 2772 3150 2772 3378 
Q 2772 3750 2511 3984 
Q 2250 4219 1831 4219 
Q 1534 4219 1204 4116 
Q 875 4013 500 3803 
L 500 4441 
Q 881 4594 1212 4672 
Q 1544 4750 1819 4750 
Q 2544 4750 2975 4387 
Q 3406 4025 3406 3419 
Q 3406 3131 3298 2873 
Q 3191 2616 2906 2266 
Q 2828 2175 2409 1742 
Q 1991 1309 1228 531 
z
" transform="scale(0.015625)"/>
       </defs>
       <use xlink:href="#DejaVuSans-30"/>
       <use xlink:href="#DejaVuSans-2e" x="63.623047"/>
       <use xlink:href="#DejaVuSans-32" x="95.410156"/>
      </g>
     </g>
    </g>
    <g id="xtick_3">
     <g id="line2d_3">
      <g>
       <use xlink:href="#m6daa18fc07" x="174.01706" y="80.9725" style="stroke: #000000; stroke-width: 0.8"/>
      </g>
     </g>
     <g id="text_3">
      <!-- 0.4 -->
      <g transform="translate(164.475185 97.090625)scale(0.12 -0.12)">
       <defs>
        <path id="DejaVuSans-34" d="M 2419 4116 
L 825 1625 
L 2419 1625 
L 2419 4116 
z
M 2253 4666 
L 3047 4666 
L 3047 1625 
L 3713 1625 
L 3713 1100 
L 3047 1100 
L 3047 0 
L 2419 0 
L 2419 1100 
L 313 1100 
L 313 1709 
L 2253 4666 
z
" transform="scale(0.015625)"/>
       </defs>
       <use xlink:href="#DejaVuSans-30"/>
       <use xlink:href="#DejaVuSans-2e" x="63.623047"/>
       <use xlink:href="#DejaVuSans-34" x="95.410156"/>
      </g>
     </g>
    </g>
    <g id="xtick_4">
     <g id="line2d_4">
      <g>
       <use xlink:href="#m6daa18fc07" x="230.212138" y="80.9725" style="stroke: #000000; stroke-width: 0.8"/>
      </g>
     </g>
     <g id="text_4">
      <!-- 0.6 -->
      <g transform="translate(220.670263 97.090625)scale(0.12 -0.12)">
       <defs>
        <path id="DejaVuSans-36" d="M 2113 2584 
Q 1688 2584 1439 2293 
Q 1191 2003 1191 1497 
Q 1191 994 1439 701 
Q 1688 409 2113 409 
Q 2538 409 2786 701 
Q 3034 994 3034 1497 
Q 3034 2003 2786 2293 
Q 2538 2584 2113 2584 
z
M 3366 4563 
L 3366 3988 
Q 3128 4100 2886 4159 
Q 2644 4219 2406 4219 
Q 1781 4219 1451 3797 
Q 1122 3375 1075 2522 
Q 1259 2794 1537 2939 
Q 1816 3084 2150 3084 
Q 2853 3084 3261 2657 
Q 3669 2231 3669 1497 
Q 3669 778 3244 343 
Q 2819 -91 2113 -91 
Q 1303 -91 875 529 
Q 447 1150 447 2328 
Q 447 3434 972 4092 
Q 1497 4750 2381 4750 
Q 2619 4750 2861 4703 
Q 3103 4656 3366 4563 
z
" transform="scale(0.015625)"/>
       </defs>
       <use xlink:href="#DejaVuSans-30"/>
       <use xlink:href="#DejaVuSans-2e" x="63.623047"/>
       <use xlink:href="#DejaVuSans-36" x="95.410156"/>
      </g>
     </g>
    </g>
    <g id="text_5">
     <!-- Time (s) -->
     <g transform="translate(142.4575 112.704375)scale(0.12 -0.12)">
      <defs>
       <path id="DejaVuSans-54" d="M -19 4666 
L 3928 4666 
L 3928 4134 
L 2272 4134 
L 2272 0 
L 1638 0 
L 1638 4134 
L -19 4134 
L -19 4666 
z
" transform="scale(0.015625)"/>
       <path id="DejaVuSans-69" d="M 603 3500 
L 1178 3500 
L 1178 0 
L 603 0 
L 603 3500 
z
M 603 4863 
L 1178 4863 
L 1178 4134 
L 603 4134 
L 603 4863 
z
" transform="scale(0.015625)"/>
       <path id="DejaVuSans-6d" d="M 3328 2828 
Q 3544 3216 3844 3400 
Q 4144 3584 4550 3584 
Q 5097 3584 5394 3201 
Q 5691 2819 5691 2113 
L 5691 0 
L 5113 0 
L 5113 2094 
Q 5113 2597 4934 2840 
Q 4756 3084 4391 3084 
Q 3944 3084 3684 2787 
Q 3425 2491 3425 1978 
L 3425 0 
L 2847 0 
L 2847 2094 
Q 2847 2600 2669 2842 
Q 2491 3084 2119 3084 
Q 1678 3084 1418 2786 
Q 1159 2488 1159 1978 
L 1159 0 
L 581 0 
L 581 3500 
L 1159 3500 
L 1159 2956 
Q 1356 3278 1631 3431 
Q 1906 3584 2284 3584 
Q 2666 3584 2933 3390 
Q 3200 3197 3328 2828 
z
" transform="scale(0.015625)"/>
       <path id="DejaVuSans-65" d="M 3597 1894 
L 3597 1613 
L 953 1613 
Q 991 1019 1311 708 
Q 1631 397 2203 397 
Q 2534 397 2845 478 
Q 3156 559 3463 722 
L 3463 178 
Q 3153 47 2828 -22 
Q 2503 -91 2169 -91 
Q 1331 -91 842 396 
Q 353 884 353 1716 
Q 353 2575 817 3079 
Q 1281 3584 2069 3584 
Q 2775 3584 3186 3129 
Q 3597 2675 3597 1894 
z
M 3022 2063 
Q 3016 2534 2758 2815 
Q 2500 3097 2075 3097 
Q 1594 3097 1305 2825 
Q 1016 2553 972 2059 
L 3022 2063 
z
" transform="scale(0.015625)"/>
       <path id="DejaVuSans-20" transform="scale(0.015625)"/>
       <path id="DejaVuSans-28" d="M 1984 4856 
Q 1566 4138 1362 3434 
Q 1159 2731 1159 2009 
Q 1159 1288 1364 580 
Q 1569 -128 1984 -844 
L 1484 -844 
Q 1016 -109 783 600 
Q 550 1309 550 2009 
Q 550 2706 781 3412 
Q 1013 4119 1484 4856 
L 1984 4856 
z
" transform="scale(0.015625)"/>
       <path id="DejaVuSans-73" d="M 2834 3397 
L 2834 2853 
Q 2591 2978 2328 3040 
Q 2066 3103 1784 3103 
Q 1356 3103 1142 2972 
Q 928 2841 928 2578 
Q 928 2378 1081 2264 
Q 1234 2150 1697 2047 
L 1894 2003 
Q 2506 1872 2764 1633 
Q 3022 1394 3022 966 
Q 3022 478 2636 193 
Q 2250 -91 1575 -91 
Q 1294 -91 989 -36 
Q 684 19 347 128 
L 347 722 
Q 666 556 975 473 
Q 1284 391 1588 391 
Q 1994 391 2212 530 
Q 2431 669 2431 922 
Q 2431 1156 2273 1281 
Q 2116 1406 1581 1522 
L 1381 1569 
Q 847 1681 609 1914 
Q 372 2147 372 2553 
Q 372 3047 722 3315 
Q 1072 3584 1716 3584 
Q 2034 3584 2315 3537 
Q 2597 3491 2834 3397 
z
" transform="scale(0.015625)"/>
       <path id="DejaVuSans-29" d="M 513 4856 
L 1013 4856 
Q 1481 4119 1714 3412 
Q 1947 2706 1947 2009 
Q 1947 1309 1714 600 
Q 1481 -109 1013 -844 
L 513 -844 
Q 928 -128 1133 580 
Q 1338 1288 1338 2009 
Q 1338 2731 1133 3434 
Q 928 4138 513 4856 
z
" transform="scale(0.015625)"/>
      </defs>
      <use xlink:href="#DejaVuSans-54"/>
      <use xlink:href="#DejaVuSans-69" x="57.958984"/>
      <use xlink:href="#DejaVuSans-6d" x="85.742188"/>
      <use xlink:href="#DejaVuSans-65" x="183.154297"/>
      <use xlink:href="#DejaVuSans-20" x="244.677734"/>
      <use xlink:href="#DejaVuSans-28" x="276.464844"/>
      <use xlink:href="#DejaVuSans-73" x="315.478516"/>
      <use xlink:href="#DejaVuSans-29" x="367.578125"/>
     </g>
    </g>
   </g>
   <g id="matplotlib.axis_2">
    <g id="ytick_1">
     <g id="line2d_5">
      <defs>
       <path id="mdbda178be7" d="M 0 0 
L -3.5 0 
" style="stroke: #000000; stroke-width: 0.8"/>
      </defs>
      <g>
       <use xlink:href="#mdbda178be7" x="51.104375" y="80.9725" style="stroke: #000000; stroke-width: 0.8"/>
      </g>
     </g>
     <g id="text_6">
      <!-- −2 -->
      <g transform="translate(26.41375 85.531562)scale(0.12 -0.12)">
       <defs>
        <path id="DejaVuSans-2212" d="M 678 2272 
L 4684 2272 
L 4684 1741 
L 678 1741 
L 678 2272 
z
" transform="scale(0.015625)"/>
       </defs>
       <use xlink:href="#DejaVuSans-2212"/>
       <use xlink:href="#DejaVuSans-32" x="83.789062"/>
      </g>
     </g>
    </g>
    <g id="ytick_2">
     <g id="line2d_6">
      <g>
       <use xlink:href="#mdbda178be7" x="51.104375" y="48.165781" style="stroke: #000000; stroke-width: 0.8"/>
      </g>
     </g>
     <g id="text_7">
      <!-- 0 -->
      <g transform="translate(36.469375 52.724844)scale(0.12 -0.12)">
       <use xlink:href="#DejaVuSans-30"/>
      </g>
     </g>
    </g>
    <g id="ytick_3">
     <g id="line2d_7">
      <g>
       <use xlink:href="#mdbda178be7" x="51.104375" y="15.359062" style="stroke: #000000; stroke-width: 0.8"/>
      </g>
     </g>
     <g id="text_8">
      <!-- 2 -->
      <g transform="translate(36.469375 19.918125)scale(0.12 -0.12)">
       <use xlink:href="#DejaVuSans-32"/>
      </g>
     </g>
    </g>
    <g id="text_9">
     <!-- x -->
     <g transform="translate(19.918125 51.717031)rotate(-90)scale(0.12 -0.12)">
      <defs>
       <path id="DejaVuSans-78" d="M 3513 3500 
L 2247 1797 
L 3578 0 
L 2900 0 
L 1881 1375 
L 863 0 
L 184 0 
L 1544 1831 
L 300 3500 
L 978 3500 
L 1906 2253 
L 2834 3500 
L 3513 3500 
z
" transform="scale(0.015625)"/>
      </defs>
      <use xlink:href="#DejaVuSans-78"/>
     </g>
    </g>
   </g>
   <g id="line2d_8">
    <path d="M 61.626903 26.841414 
L 62.188854 26.768547 
L 63.03178 26.893365 
L 64.436657 27.453646 
L 65.560559 28.080966 
L 67.246411 29.393595 
L 68.932264 31.018909 
L 70.056165 32.335605 
L 71.742018 34.730932 
L 74.832747 39.751643 
L 77.361525 44.432449 
L 82.138107 53.582025 
L 84.38591 57.632143 
L 86.914689 61.500091 
L 89.724443 65.366707 
L 90.848344 66.713775 
L 91.972246 67.663512 
L 93.096147 68.334543 
L 94.501024 68.918408 
L 96.467852 69.459324 
L 97.591754 69.593897 
L 98.43468 69.412023 
L 99.839557 68.814352 
L 100.963458 68.134076 
L 102.649311 66.79343 
L 104.335163 65.138232 
L 105.459064 63.774011 
L 106.863941 61.768248 
L 109.673695 57.246544 
L 111.921498 53.199715 
L 118.102957 41.372059 
L 119.507834 38.908585 
L 121.755637 35.40118 
L 125.408317 30.386727 
L 126.532219 29.205108 
L 127.65612 28.377265 
L 129.060997 27.66846 
L 130.74685 27.109161 
L 132.432702 26.73194 
L 133.275628 26.813115 
L 134.118554 27.083893 
L 135.523431 27.751981 
L 136.647333 28.51815 
L 138.333185 29.944399 
L 139.738062 31.373238 
L 141.142939 33.161542 
L 143.109767 36.135227 
L 146.481472 41.833678 
L 150.696102 49.830034 
L 154.067807 56.296069 
L 156.31561 59.948286 
L 159.40634 64.310937 
L 161.373167 66.759624 
L 162.497069 67.695836 
L 163.62097 68.35741 
L 165.025847 68.933935 
L 166.992675 69.469312 
L 167.835601 69.604576 
L 168.678528 69.483293 
L 169.802429 69.05589 
L 171.207306 68.305513 
L 173.174134 66.754501 
L 174.859986 65.08761 
L 175.983888 63.715337 
L 177.388765 61.701647 
L 180.198519 57.170956 
L 182.446322 53.105012 
L 189.470707 39.756402 
L 191.71851 36.134427 
L 195.37119 31.055352 
L 196.495091 29.686401 
L 197.618993 28.71615 
L 198.742894 28.031176 
L 200.147771 27.436646 
L 202.114599 26.887792 
L 203.238501 26.733302 
L 204.081427 26.899698 
L 205.486304 27.486901 
L 206.610205 28.150215 
L 208.296058 29.480562 
L 209.98191 31.12561 
L 211.105812 32.473336 
L 212.510689 34.461936 
L 215.320443 38.967586 
L 217.28727 42.445731 
L 220.097024 47.752137 
L 225.435557 57.778091 
L 227.68336 61.235398 
L 230.774089 65.498429 
L 231.897991 66.811088 
L 233.021892 67.732227 
L 234.145794 68.383746 
L 235.550671 68.95172 
L 237.517498 69.480698 
L 238.360425 69.605949 
L 239.203351 69.472043 
L 240.608228 68.901285 
L 241.732129 68.270943 
L 243.417982 66.955373 
L 245.103834 65.330165 
L 246.227736 64.01695 
L 247.913588 61.623871 
L 250.723342 57.090632 
L 252.971145 52.998637 
L 260.276505 39.182968 
L 262.524308 35.64763 
L 266.457964 30.252528 
L 267.581865 29.112454 
L 268.705767 28.311986 
L 270.110644 27.625355 
L 271.796496 27.079919 
L 272.077472 27.008322 
L 272.077472 27.008322 
" clip-path="url(#p5bc297a030)" style="fill: none; stroke: #1f77b4; stroke-width: 1.5; stroke-linecap: square"/>
   </g>
   <g id="line2d_9">
    <path d="M 61.626903 48.165781 
L 63.874707 43.765931 
L 66.12251 40.10374 
L 70.899091 32.48767 
L 72.584944 30.624095 
L 74.270796 29.065256 
L 76.518599 27.249192 
L 77.361525 26.903693 
L 78.485427 26.736422 
L 79.609328 26.831788 
L 81.014205 27.210375 
L 82.981033 27.956511 
L 83.823959 28.434351 
L 84.666886 29.108165 
L 86.352738 30.966735 
L 87.757615 32.719882 
L 91.69127 38.362462 
L 93.658098 42.02264 
L 98.99663 52.382956 
L 100.963458 55.603943 
L 106.021015 63.708372 
L 107.425892 65.314642 
L 109.39272 67.176787 
L 111.921498 69.171331 
L 112.764425 69.473803 
L 113.888326 69.599901 
L 115.012228 69.469624 
L 116.417105 69.070661 
L 118.383932 68.305245 
L 119.226859 67.791113 
L 120.069785 67.067727 
L 122.036613 64.846474 
L 124.284416 61.884905 
L 126.251243 59.070928 
L 127.65612 56.67101 
L 132.713677 46.885443 
L 134.39953 43.662917 
L 136.928308 39.554741 
L 139.176111 35.770508 
L 140.300013 33.92012 
L 141.70489 32.081154 
L 143.390742 30.290921 
L 145.35757 28.536551 
L 147.043422 27.220372 
L 147.886349 26.888829 
L 149.01025 26.733826 
L 150.134152 26.839064 
L 151.539029 27.224347 
L 153.505856 27.976299 
L 154.348783 28.464957 
L 155.191709 29.148807 
L 156.877561 31.021 
L 158.282438 32.784206 
L 161.935118 37.968722 
L 163.62097 41.023224 
L 170.645355 54.311104 
L 174.01706 59.841619 
L 175.702912 62.642223 
L 177.107789 64.437574 
L 178.793642 66.201597 
L 180.760469 67.937906 
L 182.165346 69.046215 
L 183.008273 69.409519 
L 184.132174 69.594756 
L 185.256076 69.510978 
L 186.660953 69.145963 
L 188.62778 68.407608 
L 189.470707 67.948465 
L 190.313633 67.288751 
L 191.71851 65.76043 
L 193.404362 63.708963 
L 197.338017 58.078889 
L 199.304845 54.43223 
L 204.643378 44.064547 
L 206.32923 41.303571 
L 211.386787 33.06767 
L 212.791664 31.389947 
L 214.477516 29.707817 
L 217.006295 27.555048 
L 217.849221 27.064491 
L 218.692147 26.811221 
L 219.816049 26.739385 
L 220.93995 26.909662 
L 222.625803 27.433618 
L 224.311655 28.136984 
L 225.435557 28.938873 
L 226.278483 29.800255 
L 228.526286 32.470684 
L 232.178966 37.605464 
L 233.583843 40.069215 
L 237.798474 48.149225 
L 240.046277 52.550073 
L 242.29408 56.211179 
L 247.070662 63.827269 
L 248.475539 65.410641 
L 250.442366 67.255275 
L 252.69017 69.07487 
L 253.533096 69.424088 
L 254.656997 69.594897 
L 255.780899 69.501913 
L 257.185776 69.125772 
L 259.152604 68.381154 
L 259.99553 67.906684 
L 260.838456 67.235294 
L 262.524308 65.380296 
L 263.929185 63.630024 
L 267.862841 57.990441 
L 269.829668 54.331593 
L 272.077472 49.995088 
L 272.077472 49.995088 
" clip-path="url(#p5bc297a030)" style="fill: none; stroke: #ff7f0e; stroke-width: 1.5; stroke-linecap: square"/>
   </g>
   <g id="line2d_10">
    <path d="M 61.626903 26.841414 
L 62.35861 26.887071 
L 63.090317 27.023847 
L 63.822024 27.251156 
L 64.55373 27.568024 
L 65.285437 27.973095 
L 66.017144 28.464635 
L 66.748851 29.040538 
L 67.480557 29.698338 
L 68.212264 30.435218 
L 68.943971 31.248023 
L 69.675678 32.133273 
L 70.407384 33.087177 
L 71.139091 34.105649 
L 71.870798 35.184329 
L 72.602505 36.318598 
L 73.334211 37.503598 
L 74.065918 38.734255 
L 74.797625 40.005299 
L 75.529332 41.311288 
L 76.261038 42.646629 
L 76.992745 44.005604 
L 77.724452 45.382393 
L 78.456159 46.771101 
L 79.187865 48.165781 
L 79.919572 49.560462 
L 80.651279 50.94917 
L 81.382986 52.325959 
L 82.114692 53.684934 
L 82.846399 55.020274 
L 83.578106 56.326263 
L 84.309813 57.597308 
L 85.041519 58.827965 
L 85.773226 60.012965 
L 86.504933 61.147233 
L 87.23664 62.225914 
L 87.968346 63.244386 
L 88.700053 64.198289 
L 89.43176 65.083539 
L 90.163467 65.896345 
L 90.895173 66.633225 
L 91.62688 67.291025 
L 92.358587 67.866928 
L 93.090294 68.358467 
L 93.822 68.763538 
L 94.553707 69.080407 
L 95.285414 69.307716 
L 96.017121 69.444491 
L 96.748827 69.490148 
L 97.480534 69.444491 
L 98.212241 69.307716 
L 98.943948 69.080407 
L 99.675654 68.763538 
L 100.407361 68.358467 
L 101.139068 67.866928 
L 101.870775 67.291025 
L 102.602481 66.633225 
L 103.334188 65.896345 
L 104.065895 65.083539 
L 104.797602 64.198289 
L 105.529308 63.244386 
L 106.261015 62.225914 
L 106.992722 61.147233 
L 107.724429 60.012965 
L 108.456135 58.827965 
L 109.187842 57.597308 
L 109.919549 56.326263 
L 110.651256 55.020274 
L 111.382962 53.684934 
L 112.114669 52.325959 
L 112.846376 50.94917 
L 113.578083 49.560462 
L 114.309789 48.165781 
L 115.041496 46.771101 
L 115.773203 45.382393 
L 116.50491 44.005604 
L 117.236616 42.646629 
L 117.968323 41.311288 
L 118.70003 40.005299 
L 119.431737 38.734255 
L 120.163443 37.503598 
L 120.89515 36.318598 
L 121.626857 35.184329 
L 122.358564 34.105649 
L 123.09027 33.087177 
L 123.821977 32.133273 
L 124.553684 31.248023 
L 125.285391 30.435218 
L 126.017097 29.698338 
L 126.748804 29.040538 
L 127.480511 28.464635 
L 128.212218 27.973095 
L 128.943924 27.568024 
L 129.675631 27.251156 
L 130.407338 27.023847 
L 131.139045 26.887071 
" clip-path="url(#p5bc297a030)" style="fill: none; stroke-dasharray: 5.55,2.4; stroke-dashoffset: 0; stroke: #000000; stroke-width: 1.5"/>
   </g>
   <g id="line2d_11">
    <path d="M 61.626903 48.165781 
L 62.35861 46.771101 
L 63.090317 45.382393 
L 63.822024 44.005604 
L 64.55373 42.646629 
L 65.285437 41.311288 
L 66.017144 40.005299 
L 66.748851 38.734255 
L 67.480557 37.503598 
L 68.212264 36.318598 
L 68.943971 35.184329 
L 69.675678 34.105649 
L 70.407384 33.087177 
L 71.139091 32.133273 
L 71.870798 31.248023 
L 72.602505 30.435218 
L 73.334211 29.698338 
L 74.065918 29.040538 
L 74.797625 28.464635 
L 75.529332 27.973095 
L 76.261038 27.568024 
L 76.992745 27.251156 
L 77.724452 27.023847 
L 78.456159 26.887071 
L 79.187865 26.841414 
L 79.919572 26.887071 
L 80.651279 27.023847 
L 81.382986 27.251156 
L 82.114692 27.568024 
L 82.846399 27.973095 
L 83.578106 28.464635 
L 84.309813 29.040538 
L 85.041519 29.698338 
L 85.773226 30.435218 
L 86.504933 31.248023 
L 87.23664 32.133273 
L 87.968346 33.087177 
L 88.700053 34.105649 
L 89.43176 35.184329 
L 90.163467 36.318598 
L 90.895173 37.503598 
L 91.62688 38.734255 
L 92.358587 40.005299 
L 93.090294 41.311288 
L 93.822 42.646629 
L 94.553707 44.005604 
L 95.285414 45.382393 
L 96.017121 46.771101 
L 96.748827 48.165781 
L 97.480534 49.560462 
L 98.212241 50.94917 
L 98.943948 52.325959 
L 99.675654 53.684934 
L 100.407361 55.020274 
L 101.139068 56.326263 
L 101.870775 57.597308 
L 102.602481 58.827965 
L 103.334188 60.012965 
L 104.065895 61.147233 
L 104.797602 62.225914 
L 105.529308 63.244386 
L 106.261015 64.198289 
L 106.992722 65.083539 
L 107.724429 65.896345 
L 108.456135 66.633225 
L 109.187842 67.291025 
L 109.919549 67.866928 
L 110.651256 68.358467 
L 111.382962 68.763538 
L 112.114669 69.080407 
L 112.846376 69.307716 
L 113.578083 69.444491 
L 114.309789 69.490148 
L 115.041496 69.444491 
L 115.773203 69.307716 
L 116.50491 69.080407 
L 117.236616 68.763538 
L 117.968323 68.358467 
L 118.70003 67.866928 
L 119.431737 67.291025 
L 120.163443 66.633225 
L 120.89515 65.896345 
L 121.626857 65.083539 
L 122.358564 64.198289 
L 123.09027 63.244386 
L 123.821977 62.225914 
L 124.553684 61.147233 
L 125.285391 60.012965 
L 126.017097 58.827965 
L 126.748804 57.597308 
L 127.480511 56.326263 
L 128.212218 55.020274 
L 128.943924 53.684934 
L 129.675631 52.325959 
L 130.407338 50.94917 
L 131.139045 49.560462 
" clip-path="url(#p5bc297a030)" style="fill: none; stroke-dasharray: 5.55,2.4; stroke-dashoffset: 0; stroke: #000000; stroke-width: 1.5"/>
   </g>
   <g id="patch_3">
    <path d="M 51.104375 80.9725 
L 51.104375 15.359062 
" style="fill: none; stroke: #000000; stroke-width: 0.8; stroke-linejoin: miter; stroke-linecap: square"/>
   </g>
   <g id="patch_4">
    <path d="M 282.6 80.9725 
L 282.6 15.359062 
" style="fill: none; stroke: #000000; stroke-width: 0.8; stroke-linejoin: miter; stroke-linecap: square"/>
   </g>
   <g id="patch_5">
    <path d="M 51.104375 80.9725 
L 282.6 80.9725 
" style="fill: none; stroke: #000000; stroke-width: 0.8; stroke-linejoin: miter; stroke-linecap: square"/>
   </g>
   <g id="patch_6">
    <path d="M 51.104375 15.359062 
L 282.6 15.359062 
" style="fill: none; stroke: #000000; stroke-width: 0.8; stroke-linejoin: miter; stroke-linecap: square"/>
   </g>
  </g>
  <g id="axes_2">
   <g id="patch_7">
    <path d="M 333.704375 80.9725 
L 565.2 80.9725 
L 565.2 15.359062 
L 333.704375 15.359062 
z
" style="fill: #ffffff"/>
   </g>
   <g id="PathCollection_1">
    <defs>
     <path id="mb55b030908" d="M -0 3 
L 3 -3 
L -3 -3 
z
" style="stroke: #000000"/>
    </defs>
    <g clip-path="url(#pd890f2330c)">
     <use xlink:href="#mb55b030908" x="396.909789" y="21.920406" style="stroke: #000000"/>
    </g>
   </g>
   <g id="matplotlib.axis_3">
    <g id="xtick_5">
     <g id="line2d_12">
      <g>
       <use xlink:href="#m6daa18fc07" x="344.226903" y="80.9725" style="stroke: #000000; stroke-width: 0.8"/>
      </g>
     </g>
     <g id="text_10">
      <!-- 0.0 -->
      <g transform="translate(334.685028 97.090625)scale(0.12 -0.12)">
       <use xlink:href="#DejaVuSans-30"/>
       <use xlink:href="#DejaVuSans-2e" x="63.623047"/>
       <use xlink:href="#DejaVuSans-30" x="95.410156"/>
      </g>
     </g>
    </g>
    <g id="xtick_6">
     <g id="line2d_13">
      <g>
       <use xlink:href="#m6daa18fc07" x="400.421982" y="80.9725" style="stroke: #000000; stroke-width: 0.8"/>
      </g>
     </g>
     <g id="text_11">
      <!-- 0.2 -->
      <g transform="translate(390.880107 97.090625)scale(0.12 -0.12)">
       <use xlink:href="#DejaVuSans-30"/>
       <use xlink:href="#DejaVuSans-2e" x="63.623047"/>
       <use xlink:href="#DejaVuSans-32" x="95.410156"/>
      </g>
     </g>
    </g>
    <g id="xtick_7">
     <g id="line2d_14">
      <g>
       <use xlink:href="#m6daa18fc07" x="456.61706" y="80.9725" style="stroke: #000000; stroke-width: 0.8"/>
      </g>
     </g>
     <g id="text_12">
      <!-- 0.4 -->
      <g transform="translate(447.075185 97.090625)scale(0.12 -0.12)">
       <use xlink:href="#DejaVuSans-30"/>
       <use xlink:href="#DejaVuSans-2e" x="63.623047"/>
       <use xlink:href="#DejaVuSans-34" x="95.410156"/>
      </g>
     </g>
    </g>
    <g id="xtick_8">
     <g id="line2d_15">
      <g>
       <use xlink:href="#m6daa18fc07" x="512.812138" y="80.9725" style="stroke: #000000; stroke-width: 0.8"/>
      </g>
     </g>
     <g id="text_13">
      <!-- 0.6 -->
      <g transform="translate(503.270263 97.090625)scale(0.12 -0.12)">
       <use xlink:href="#DejaVuSans-30"/>
       <use xlink:href="#DejaVuSans-2e" x="63.623047"/>
       <use xlink:href="#DejaVuSans-36" x="95.410156"/>
      </g>
     </g>
    </g>
    <g id="text_14">
     <!-- Time (s) -->
     <g transform="translate(425.0575 112.704375)scale(0.12 -0.12)">
      <use xlink:href="#DejaVuSans-54"/>
      <use xlink:href="#DejaVuSans-69" x="57.958984"/>
      <use xlink:href="#DejaVuSans-6d" x="85.742188"/>
      <use xlink:href="#DejaVuSans-65" x="183.154297"/>
      <use xlink:href="#DejaVuSans-20" x="244.677734"/>
      <use xlink:href="#DejaVuSans-28" x="276.464844"/>
      <use xlink:href="#DejaVuSans-73" x="315.478516"/>
      <use xlink:href="#DejaVuSans-29" x="367.578125"/>
     </g>
    </g>
   </g>
   <g id="matplotlib.axis_4">
    <g id="ytick_4">
     <g id="line2d_16">
      <g>
       <use xlink:href="#mdbda178be7" x="333.704375" y="80.9725" style="stroke: #000000; stroke-width: 0.8"/>
      </g>
     </g>
     <g id="text_15">
      <!-- −2 -->
      <g transform="translate(309.01375 85.531562)scale(0.12 -0.12)">
       <use xlink:href="#DejaVuSans-2212"/>
       <use xlink:href="#DejaVuSans-32" x="83.789062"/>
      </g>
     </g>
    </g>
    <g id="ytick_5">
     <g id="line2d_17">
      <g>
       <use xlink:href="#mdbda178be7" x="333.704375" y="48.165781" style="stroke: #000000; stroke-width: 0.8"/>
      </g>
     </g>
     <g id="text_16">
      <!-- 0 -->
      <g transform="translate(319.069375 52.724844)scale(0.12 -0.12)">
       <use xlink:href="#DejaVuSans-30"/>
      </g>
     </g>
    </g>
    <g id="ytick_6">
     <g id="line2d_18">
      <g>
       <use xlink:href="#mdbda178be7" x="333.704375" y="15.359062" style="stroke: #000000; stroke-width: 0.8"/>
      </g>
     </g>
     <g id="text_17">
      <!-- 2 -->
      <g transform="translate(319.069375 19.918125)scale(0.12 -0.12)">
       <use xlink:href="#DejaVuSans-32"/>
      </g>
     </g>
    </g>
    <g id="text_18">
     <!-- x -->
     <g transform="translate(302.518125 51.717031)rotate(-90)scale(0.12 -0.12)">
      <use xlink:href="#DejaVuSans-78"/>
     </g>
    </g>
   </g>
   <g id="line2d_19">
    <path d="M 344.226903 26.841414 
L 344.788854 26.768547 
L 345.63178 26.893365 
L 347.036657 27.453646 
L 348.160559 28.080966 
L 349.846411 29.393595 
L 351.532264 31.018909 
L 352.656165 32.335605 
L 354.342018 34.730932 
L 357.432747 39.751643 
L 359.961525 44.432449 
L 364.738107 53.582025 
L 366.98591 57.632143 
L 369.514689 61.500091 
L 372.324443 65.366707 
L 373.448344 66.713775 
L 374.572246 67.663512 
L 375.696147 68.334543 
L 377.101024 68.918408 
L 379.067852 69.459324 
L 380.191754 69.593897 
L 381.03468 69.412023 
L 382.439557 68.814352 
L 383.563458 68.134076 
L 385.249311 66.79343 
L 386.935163 65.138232 
L 388.059064 63.774011 
L 389.463941 61.768248 
L 392.273695 57.246544 
L 394.521498 53.199715 
L 396.769302 48.995365 
L 397.050277 56.650709 
L 398.174179 53.667273 
L 399.579056 50.65261 
L 403.512711 43.086133 
L 406.04149 38.64463 
L 408.570268 34.855515 
L 411.660997 30.662712 
L 412.784899 29.39972 
L 413.9088 28.515532 
L 415.313677 27.761373 
L 416.99953 27.170249 
L 418.966358 26.727911 
L 419.809284 26.821617 
L 420.933185 27.219727 
L 422.338062 27.944567 
L 424.023915 29.224085 
L 425.709767 30.819167 
L 426.833668 32.09518 
L 428.519521 34.441657 
L 431.329275 38.944913 
L 433.296102 42.421261 
L 436.386832 48.263857 
L 441.725364 58.210306 
L 443.411217 60.821096 
L 447.344872 66.195248 
L 448.468774 67.300227 
L 449.592675 68.077294 
L 450.997552 68.744066 
L 452.683405 69.27665 
L 454.369257 69.60576 
L 455.212183 69.475432 
L 456.336085 69.039492 
L 457.740962 68.280395 
L 459.426814 66.967238 
L 461.112666 65.34455 
L 462.236568 64.035781 
L 463.92242 61.645619 
L 466.732174 57.11277 
L 468.979977 53.02672 
L 476.285337 39.206689 
L 478.533141 35.667317 
L 482.466796 30.267909 
L 483.590698 29.12309 
L 484.714599 28.319505 
L 486.119476 27.630242 
L 487.805328 27.083252 
L 489.491181 26.728669 
L 490.334107 26.834248 
L 491.458009 27.245161 
L 492.862885 27.980367 
L 494.548738 29.271395 
L 496.23459 30.873733 
L 497.358492 32.159407 
L 499.044344 34.526103 
L 501.854098 39.041159 
L 503.820926 42.526039 
L 506.349704 47.289769 
L 511.407261 56.919973 
L 513.93604 60.897633 
L 517.869695 66.256901 
L 518.993597 67.343496 
L 520.117498 68.108629 
L 521.522375 68.764896 
L 523.208228 69.290436 
L 524.89408 69.604691 
L 525.737006 69.459612 
L 527.141883 68.881797 
L 528.265785 68.239931 
L 529.951637 66.917601 
L 531.637489 65.283948 
L 532.761391 63.958239 
L 534.447243 61.556286 
L 537.537973 56.532441 
L 540.066751 51.847578 
L 544.000407 44.315745 
L 546.810161 39.121425 
L 549.057964 35.593822 
L 552.991619 30.209752 
L 554.115521 29.082746 
L 554.677472 28.65227 
L 554.677472 28.65227 
" clip-path="url(#pd890f2330c)" style="fill: none; stroke: #1f77b4; stroke-width: 1.5; stroke-linecap: square"/>
   </g>
   <g id="line2d_20">
    <path d="M 344.226903 48.165781 
L 346.474707 43.765931 
L 348.72251 40.10374 
L 353.499091 32.48767 
L 355.184944 30.624095 
L 356.870796 29.065256 
L 359.118599 27.249192 
L 359.961525 26.903693 
L 361.085427 26.736422 
L 362.209328 26.831788 
L 363.614205 27.210375 
L 365.581033 27.956511 
L 366.423959 28.434351 
L 367.266886 29.108165 
L 368.952738 30.966735 
L 370.357615 32.719882 
L 374.29127 38.362462 
L 376.258098 42.02264 
L 381.59663 52.382956 
L 383.563458 55.603943 
L 388.621015 63.708372 
L 390.025892 65.314642 
L 391.99272 67.176787 
L 394.521498 69.171331 
L 395.364425 69.473803 
L 396.488326 69.599901 
L 396.769302 69.58824 
L 397.050277 77.760063 
L 397.893203 75.801166 
L 398.736129 74.29673 
L 399.860031 72.777763 
L 401.264908 71.340555 
L 402.95076 69.98712 
L 406.322465 67.520454 
L 408.008317 65.560227 
L 409.69417 63.379564 
L 413.065874 58.569046 
L 414.470751 56.069728 
L 418.685382 47.960228 
L 420.933185 43.592373 
L 424.023915 38.578258 
L 427.676595 32.720867 
L 429.081472 31.100351 
L 431.048299 29.22601 
L 433.577078 27.200701 
L 434.420004 26.878629 
L 435.543906 26.732055 
L 436.667807 26.845479 
L 438.072684 27.234958 
L 440.039512 27.991661 
L 440.882438 28.487319 
L 441.725364 29.182813 
L 443.692192 31.389818 
L 445.939995 34.345423 
L 447.906823 37.139871 
L 449.3117 39.512615 
L 454.088281 48.693767 
L 456.055109 52.525286 
L 458.021937 55.733913 
L 463.079494 63.809946 
L 464.484371 65.39675 
L 466.451199 67.244253 
L 468.699002 69.067301 
L 469.541928 69.420239 
L 470.66583 69.594678 
L 471.789731 69.504027 
L 473.194608 69.130667 
L 475.161436 68.387533 
L 476.004362 67.916568 
L 476.847288 67.247729 
L 478.252165 65.71355 
L 479.938017 63.648553 
L 483.871673 58.011213 
L 485.838501 54.354215 
L 491.177033 43.99114 
L 492.862885 41.23739 
L 497.639467 33.391886 
L 499.044344 31.655587 
L 500.730196 29.928424 
L 502.978 27.981914 
L 504.101901 27.172344 
L 504.944827 26.863967 
L 506.068729 26.731472 
L 507.19263 26.857064 
L 508.597507 27.25284 
L 510.564335 28.015781 
L 511.407261 28.523333 
L 512.250187 29.238723 
L 514.217015 31.456959 
L 516.464818 34.417712 
L 518.431646 37.226495 
L 519.836523 39.618745 
L 524.89408 49.394858 
L 526.579932 52.625553 
L 529.108711 56.73633 
L 531.356514 60.51571 
L 532.480416 62.374338 
L 533.885293 64.220269 
L 535.571145 66.016117 
L 537.537973 67.773641 
L 539.223825 69.097867 
L 540.066751 69.435912 
L 541.190653 69.596491 
L 542.314554 69.496148 
L 543.719431 69.11379 
L 545.686259 68.364669 
L 546.529185 67.881052 
L 547.372111 67.202678 
L 549.057964 65.337125 
L 550.462841 63.579132 
L 554.115521 58.400986 
L 554.677472 57.435886 
L 554.677472 57.435886 
" clip-path="url(#pd890f2330c)" style="fill: none; stroke: #ff7f0e; stroke-width: 1.5; stroke-linecap: square"/>
   </g>
   <g id="patch_8">
    <path d="M 333.704375 80.9725 
L 333.704375 15.359062 
" style="fill: none; stroke: #000000; stroke-width: 0.8; stroke-linejoin: miter; stroke-linecap: square"/>
   </g>
   <g id="patch_9">
    <path d="M 565.2 80.9725 
L 565.2 15.359062 
" style="fill: none; stroke: #000000; stroke-width: 0.8; stroke-linejoin: miter; stroke-linecap: square"/>
   </g>
   <g id="patch_10">
    <path d="M 333.704375 80.9725 
L 565.2 80.9725 
" style="fill: none; stroke: #000000; stroke-width: 0.8; stroke-linejoin: miter; stroke-linecap: square"/>
   </g>
   <g id="patch_11">
    <path d="M 333.704375 15.359062 
L 565.2 15.359062 
" style="fill: none; stroke: #000000; stroke-width: 0.8; stroke-linejoin: miter; stroke-linecap: square"/>
   </g>
  </g>
 </g>
 <defs>
  <clipPath id="p5bc297a030">
   <rect x="51.104375" y="15.359062" width="231.495625" height="65.613438"/>
  </clipPath>
  <clipPath id="pd890f2330c">
   <rect x="333.704375" y="15.359062" width="231.495625" height="65.613438"/>
  </clipPath>
 </defs>
</svg>
