<?xml version="1.0" encoding="utf-8" standalone="no"?>
<!DOCTYPE svg PUBLIC "-//W3C//DTD SVG 1.1//EN"
  "http://www.w3.org/Graphics/SVG/1.1/DTD/svg11.dtd">
<!-- Created with matplotlib (https://matplotlib.org/) -->
<svg height="288pt" version="1.1" viewBox="0 0 223.2 288" width="223.2pt" xmlns="http://www.w3.org/2000/svg" xmlns:xlink="http://www.w3.org/1999/xlink">
 <metadata>
  <rdf:RDF xmlns:cc="http://creativecommons.org/ns#" xmlns:dc="http://purl.org/dc/elements/1.1/" xmlns:rdf="http://www.w3.org/1999/02/22-rdf-syntax-ns#">
   <cc:Work>
    <dc:type rdf:resource="http://purl.org/dc/dcmitype/StillImage"/>
    <dc:date>2025-11-04T17:30:36.878986</dc:date>
    <dc:format>image/svg+xml</dc:format>
    <dc:creator>
     <cc:Agent>
      <dc:title>Matplotlib v3.3.4, https://matplotlib.org/</dc:title>
     </cc:Agent>
    </dc:creator>
   </cc:Work>
  </rdf:RDF>
 </metadata>
 <defs>
  <style type="text/css">*{stroke-linecap:butt;stroke-linejoin:round;}</style>
 </defs>
 <g id="figure_1">
  <g id="patch_1">
   <path d="M 0 288 
L 223.2 288 
L 223.2 0 
L 0 0 
z
" style="fill:none;"/>
  </g>
  <g id="axes_1">
   <g id="patch_2">
    <path d="M 45.267188 121.921875 
L 212.4 121.921875 
L 212.4 10.8 
L 45.267188 10.8 
z
" style="fill:#ffffff;"/>
   </g>
   <g id="matplotlib.axis_1">
    <g id="xtick_1">
     <g id="line2d_1">
      <defs>
       <path d="M 0 0 
L 0 3.5 
" id="m43c39f0bee" style="stroke:#000000;stroke-width:0.8;"/>
      </defs>
      <g>
       <use style="stroke:#000000;stroke-width:0.8;" x="78.187287" xlink:href="#m43c39f0bee" y="121.921875"/>
      </g>
     </g>
     <g id="text_1">
      <!-- 0 -->
      <g transform="translate(75.006037 136.520312)scale(0.1 -0.1)">
       <defs>
        <path d="M 31.78125 66.40625 
Q 24.171875 66.40625 20.328125 58.90625 
Q 16.5 51.421875 16.5 36.375 
Q 16.5 21.390625 20.328125 13.890625 
Q 24.171875 6.390625 31.78125 6.390625 
Q 39.453125 6.390625 43.28125 13.890625 
Q 47.125 21.390625 47.125 36.375 
Q 47.125 51.421875 43.28125 58.90625 
Q 39.453125 66.40625 31.78125 66.40625 
z
M 31.78125 74.21875 
Q 44.046875 74.21875 50.515625 64.515625 
Q 56.984375 54.828125 56.984375 36.375 
Q 56.984375 17.96875 50.515625 8.265625 
Q 44.046875 -1.421875 31.78125 -1.421875 
Q 19.53125 -1.421875 13.0625 8.265625 
Q 6.59375 17.96875 6.59375 36.375 
Q 6.59375 54.828125 13.0625 64.515625 
Q 19.53125 74.21875 31.78125 74.21875 
z
" id="DejaVuSans-48"/>
       </defs>
       <use xlink:href="#DejaVuSans-48"/>
      </g>
     </g>
    </g>
    <g id="xtick_2">
     <g id="line2d_2">
      <g>
       <use style="stroke:#000000;stroke-width:0.8;" x="128.833594" xlink:href="#m43c39f0bee" y="121.921875"/>
      </g>
     </g>
     <g id="text_2">
      <!-- 1 -->
      <g transform="translate(125.652344 136.520312)scale(0.1 -0.1)">
       <defs>
        <path d="M 12.40625 8.296875 
L 28.515625 8.296875 
L 28.515625 63.921875 
L 10.984375 60.40625 
L 10.984375 69.390625 
L 28.421875 72.90625 
L 38.28125 72.90625 
L 38.28125 8.296875 
L 54.390625 8.296875 
L 54.390625 0 
L 12.40625 0 
z
" id="DejaVuSans-49"/>
       </defs>
       <use xlink:href="#DejaVuSans-49"/>
      </g>
     </g>
    </g>
    <g id="xtick_3">
     <g id="line2d_3">
      <g>
       <use style="stroke:#000000;stroke-width:0.8;" x="179.479901" xlink:href="#m43c39f0bee" y="121.921875"/>
      </g>
     </g>
     <g id="text_3">
      <!-- 2 -->
      <g transform="translate(176.298651 136.520312)scale(0.1 -0.1)">
       <defs>
        <path d="M 19.1875 8.296875 
L 53.609375 8.296875 
L 53.609375 0 
L 7.328125 0 
L 7.328125 8.296875 
Q 12.9375 14.109375 22.625 23.890625 
Q 32.328125 33.6875 34.8125 36.53125 
Q 39.546875 41.84375 41.421875 45.53125 
Q 43.3125 49.21875 43.3125 52.78125 
Q 43.3125 58.59375 39.234375 62.25 
Q 35.15625 65.921875 28.609375 65.921875 
Q 23.96875 65.921875 18.8125 64.3125 
Q 13.671875 62.703125 7.8125 59.421875 
L 7.8125 69.390625 
Q 13.765625 71.78125 18.9375 73 
Q 24.125 74.21875 28.421875 74.21875 
Q 39.75 74.21875 46.484375 68.546875 
Q 53.21875 62.890625 53.21875 53.421875 
Q 53.21875 48.921875 51.53125 44.890625 
Q 49.859375 40.875 45.40625 35.40625 
Q 44.1875 33.984375 37.640625 27.21875 
Q 31.109375 20.453125 19.1875 8.296875 
z
" id="DejaVuSans-50"/>
       </defs>
       <use xlink:href="#DejaVuSans-50"/>
      </g>
     </g>
    </g>
   </g>
   <g id="matplotlib.axis_2">
    <g id="ytick_1">
     <g id="line2d_4">
      <defs>
       <path d="M 0 0 
L -3.5 0 
" id="m3f3a9a7723" style="stroke:#000000;stroke-width:0.8;"/>
      </defs>
      <g>
       <use style="stroke:#000000;stroke-width:0.8;" x="45.267188" xlink:href="#m3f3a9a7723" y="100.034233"/>
      </g>
     </g>
     <g id="text_4">
      <!-- −100 -->
      <g transform="translate(10.8 103.833452)scale(0.1 -0.1)">
       <defs>
        <path d="M 10.59375 35.5 
L 73.1875 35.5 
L 73.1875 27.203125 
L 10.59375 27.203125 
z
" id="DejaVuSans-8722"/>
       </defs>
       <use xlink:href="#DejaVuSans-8722"/>
       <use x="83.789062" xlink:href="#DejaVuSans-49"/>
       <use x="147.412109" xlink:href="#DejaVuSans-48"/>
       <use x="211.035156" xlink:href="#DejaVuSans-48"/>
      </g>
     </g>
    </g>
    <g id="ytick_2">
     <g id="line2d_5">
      <g>
       <use style="stroke:#000000;stroke-width:0.8;" x="45.267188" xlink:href="#m3f3a9a7723" y="66.360938"/>
      </g>
     </g>
     <g id="text_5">
      <!-- 0 -->
      <g transform="translate(31.904688 70.160156)scale(0.1 -0.1)">
       <use xlink:href="#DejaVuSans-48"/>
      </g>
     </g>
    </g>
    <g id="ytick_3">
     <g id="line2d_6">
      <g>
       <use style="stroke:#000000;stroke-width:0.8;" x="45.267188" xlink:href="#m3f3a9a7723" y="32.687642"/>
      </g>
     </g>
     <g id="text_6">
      <!-- 100 -->
      <g transform="translate(19.179688 36.486861)scale(0.1 -0.1)">
       <use xlink:href="#DejaVuSans-49"/>
       <use x="63.623047" xlink:href="#DejaVuSans-48"/>
       <use x="127.246094" xlink:href="#DejaVuSans-48"/>
      </g>
     </g>
    </g>
   </g>
   <g id="line2d_7">
    <path clip-path="url(#pe9b6cb3fc4)" d="M 52.864134 15.850994 
L 54.39887 16.871397 
L 55.933607 17.8918 
L 57.468343 18.912203 
L 59.00308 19.932606 
L 60.537816 20.953009 
L 62.072553 21.973412 
L 63.60729 22.993815 
L 65.142026 24.014217 
L 66.676763 25.03462 
L 68.211499 26.055023 
L 69.746236 27.075426 
L 71.280972 28.095829 
L 72.815709 29.116232 
L 74.350446 30.136635 
L 75.885182 31.157038 
L 77.419919 32.177441 
L 78.954655 33.197843 
L 80.489392 34.218246 
L 82.024128 35.238649 
L 83.558865 36.259052 
L 85.093601 37.279455 
L 86.628338 38.299858 
L 88.163075 39.320261 
L 89.697811 40.340664 
L 91.232548 41.361067 
L 92.767284 42.38147 
L 94.302021 43.401872 
L 95.836757 44.422275 
L 97.371494 45.442678 
L 98.906231 46.463081 
L 100.440967 47.483484 
L 101.975704 48.503887 
L 103.51044 49.52429 
L 105.045177 50.544693 
L 106.579913 51.565096 
L 108.11465 52.585498 
L 109.649387 53.605901 
L 111.184123 54.626304 
L 112.71886 55.646707 
L 114.253596 56.66711 
L 115.788333 57.687513 
L 117.323069 58.707916 
L 118.857806 59.728319 
L 120.392543 60.748722 
L 121.927279 61.769124 
L 123.462016 62.789527 
L 124.996752 63.80993 
L 126.531489 64.830333 
L 128.066225 65.850736 
L 129.600962 66.871139 
L 131.135699 67.891542 
L 132.670435 68.911945 
L 134.205172 69.932348 
L 135.739908 70.952751 
L 137.274645 71.973153 
L 138.809381 72.993556 
L 140.344118 74.013959 
L 141.878855 75.034362 
L 143.413591 76.054765 
L 144.948328 77.075168 
L 146.483064 78.095571 
L 148.017801 79.115974 
L 149.552537 80.136377 
L 151.087274 81.156779 
L 152.622011 82.177182 
L 154.156747 83.197585 
L 155.691484 84.217988 
L 157.22622 85.238391 
L 158.760957 86.258794 
L 160.295693 87.279197 
L 161.83043 88.2996 
L 163.365167 89.320003 
L 164.899903 90.340405 
L 166.43464 91.360808 
L 167.969376 92.381211 
L 169.504113 93.401614 
L 171.038849 94.422017 
L 172.573586 95.44242 
L 174.108323 96.462823 
L 175.643059 97.483226 
L 177.177796 98.503629 
L 178.712532 99.524032 
L 180.247269 100.544434 
L 181.782005 101.564837 
L 183.316742 102.58524 
L 184.851479 103.605643 
L 186.386215 104.626046 
L 187.920952 105.646449 
L 189.455688 106.666852 
L 190.990425 107.687255 
L 192.525161 108.707658 
L 194.059898 109.72806 
L 195.594635 110.748463 
L 197.129371 111.768866 
L 198.664108 112.789269 
L 200.198844 113.809672 
L 201.733581 114.830075 
L 203.268317 115.850478 
L 204.803054 116.870881 
" style="fill:none;stroke:#1f77b4;stroke-linecap:square;stroke-width:1.5;"/>
   </g>
   <g id="line2d_8">
    <path clip-path="url(#pe9b6cb3fc4)" d="M 52.864134 15.850994 
L 54.39887 16.871397 
L 55.933607 17.8918 
L 57.468343 18.912203 
L 59.00308 19.932606 
L 60.537816 20.953009 
L 62.072553 21.973412 
L 63.60729 22.993815 
L 65.142026 24.014217 
L 66.676763 25.03462 
L 68.211499 26.055023 
L 69.746236 27.075426 
L 71.280972 28.095829 
L 72.815709 29.116232 
L 74.350446 30.136635 
L 75.885182 31.157038 
L 77.419919 32.177441 
L 78.954655 33.197843 
L 80.489392 34.218246 
L 82.024128 35.238649 
L 83.558865 36.259052 
L 85.093601 37.279455 
L 86.628338 38.299858 
L 88.163075 39.320261 
L 89.697811 40.340664 
L 91.232548 41.361067 
L 92.767284 42.38147 
L 94.302021 43.401872 
L 95.836757 44.422275 
L 97.371494 45.442678 
L 98.906231 46.463081 
L 100.440967 47.483484 
L 101.975704 48.503887 
L 103.51044 49.52429 
L 105.045177 50.544693 
L 106.579913 51.565096 
L 108.11465 52.585498 
L 109.649387 53.605901 
L 111.184123 54.626304 
L 112.71886 55.646707 
L 114.253596 56.66711 
L 115.788333 57.687513 
L 117.323069 58.707916 
L 118.857806 59.728319 
L 120.392543 60.748722 
L 121.927279 61.769124 
L 123.462016 62.789527 
L 124.996752 63.80993 
L 126.531489 64.830333 
L 128.066225 65.850736 
L 129.600962 66.871139 
L 131.135699 67.891542 
L 132.670435 68.911945 
L 134.205172 69.932348 
L 135.739908 70.952751 
L 137.274645 71.973153 
L 138.809381 72.993556 
L 140.344118 74.013959 
L 141.878855 75.034362 
L 143.413591 76.054765 
L 144.948328 77.075168 
L 146.483064 78.095571 
L 148.017801 79.115974 
L 149.552537 80.136377 
L 151.087274 81.156779 
L 152.622011 82.177182 
L 154.156747 83.197585 
L 155.691484 84.217988 
L 157.22622 85.238391 
L 158.760957 86.258794 
L 160.295693 87.279197 
L 161.83043 88.2996 
L 163.365167 89.320003 
L 164.899903 90.340405 
L 166.43464 91.360808 
L 167.969376 92.381211 
L 169.504113 93.401614 
L 171.038849 94.422017 
L 172.573586 95.44242 
L 174.108323 96.462823 
L 175.643059 97.483226 
L 177.177796 98.503629 
L 178.712532 99.524032 
L 180.247269 100.544434 
L 181.782005 101.564837 
L 183.316742 102.58524 
L 184.851479 103.605643 
L 186.386215 104.626046 
L 187.920952 105.646449 
L 189.455688 106.666852 
L 190.990425 107.687255 
L 192.525161 108.707658 
L 194.059898 109.72806 
L 195.594635 110.748463 
L 197.129371 111.768866 
L 198.664108 112.789269 
L 200.198844 113.809672 
L 201.733581 114.830075 
L 203.268317 115.850478 
L 204.803054 116.870881 
" style="fill:none;stroke:#ff7f0e;stroke-linecap:square;stroke-width:1.5;"/>
   </g>
   <g id="line2d_9">
    <path clip-path="url(#pe9b6cb3fc4)" d="M 52.864134 15.850994 
L 54.39887 16.871397 
L 55.933607 17.8918 
L 57.468343 18.912203 
L 59.00308 19.932606 
L 60.537816 20.953009 
L 62.072553 21.973412 
L 63.60729 22.993815 
L 65.142026 24.014217 
L 66.676763 25.03462 
L 68.211499 26.055023 
L 69.746236 27.075426 
L 71.280972 28.095829 
L 72.815709 29.116232 
L 74.350446 30.136635 
L 75.885182 31.157038 
L 77.419919 32.177441 
L 78.954655 33.197843 
L 80.489392 34.218246 
L 82.024128 35.238649 
L 83.558865 36.259052 
L 85.093601 37.279455 
L 86.628338 38.299858 
L 88.163075 39.320261 
L 89.697811 40.340664 
L 91.232548 41.361067 
L 92.767284 42.38147 
L 94.302021 43.401872 
L 95.836757 44.422275 
L 97.371494 45.442678 
L 98.906231 46.463081 
L 100.440967 47.483484 
L 101.975704 48.503887 
L 103.51044 49.52429 
L 105.045177 50.544693 
L 106.579913 51.565096 
L 108.11465 52.585498 
L 109.649387 53.605901 
L 111.184123 54.626304 
L 112.71886 55.646707 
L 114.253596 56.66711 
L 115.788333 57.687513 
L 117.323069 58.707916 
L 118.857806 59.728319 
L 120.392543 60.748722 
L 121.927279 61.769124 
L 123.462016 62.789527 
L 124.996752 63.80993 
L 126.531489 64.830333 
L 128.066225 65.850736 
L 129.600962 66.871139 
L 131.135699 67.891542 
L 132.670435 68.911945 
L 134.205172 69.932348 
L 135.739908 70.952751 
L 137.274645 71.973153 
L 138.809381 72.993556 
L 140.344118 74.013959 
L 141.878855 75.034362 
L 143.413591 76.054765 
L 144.948328 77.075168 
L 146.483064 78.095571 
L 148.017801 79.115974 
L 149.552537 80.136377 
L 151.087274 81.156779 
L 152.622011 82.177182 
L 154.156747 83.197585 
L 155.691484 84.217988 
L 157.22622 85.238391 
L 158.760957 86.258794 
L 160.295693 87.279197 
L 161.83043 88.2996 
L 163.365167 89.320003 
L 164.899903 90.340405 
L 166.43464 91.360808 
L 167.969376 92.381211 
L 169.504113 93.401614 
L 171.038849 94.422017 
L 172.573586 95.44242 
L 174.108323 96.462823 
L 175.643059 97.483226 
L 177.177796 98.503629 
L 178.712532 99.524032 
L 180.247269 100.544434 
L 181.782005 101.564837 
L 183.316742 102.58524 
L 184.851479 103.605643 
L 186.386215 104.626046 
L 187.920952 105.646449 
L 189.455688 106.666852 
L 190.990425 107.687255 
L 192.525161 108.707658 
L 194.059898 109.72806 
L 195.594635 110.748463 
L 197.129371 111.768866 
L 198.664108 112.789269 
L 200.198844 113.809672 
L 201.733581 114.830075 
L 203.268317 115.850478 
L 204.803054 116.870881 
" style="fill:none;stroke:#808080;stroke-linecap:square;stroke-width:1.5;"/>
   </g>
   <g id="line2d_10">
    <path clip-path="url(#pe9b6cb3fc4)" d="M 45.267188 66.360938 
L 212.4 66.360938 
" style="fill:none;stroke:#808080;stroke-dasharray:1.85,0.8;stroke-dashoffset:0;stroke-width:0.5;"/>
   </g>
   <g id="patch_3">
    <path d="M 45.267188 121.921875 
L 45.267188 10.8 
" style="fill:none;stroke:#000000;stroke-linecap:square;stroke-linejoin:miter;stroke-width:0.8;"/>
   </g>
   <g id="patch_4">
    <path d="M 212.4 121.921875 
L 212.4 10.8 
" style="fill:none;stroke:#000000;stroke-linecap:square;stroke-linejoin:miter;stroke-width:0.8;"/>
   </g>
   <g id="patch_5">
    <path d="M 45.267188 121.921875 
L 212.4 121.921875 
" style="fill:none;stroke:#000000;stroke-linecap:square;stroke-linejoin:miter;stroke-width:0.8;"/>
   </g>
   <g id="patch_6">
    <path d="M 45.267188 10.8 
L 212.4 10.8 
" style="fill:none;stroke:#000000;stroke-linecap:square;stroke-linejoin:miter;stroke-width:0.8;"/>
   </g>
  </g>
  <g id="axes_2">
   <g id="patch_7">
    <path d="M 45.267188 260.521875 
L 212.4 260.521875 
L 212.4 149.4 
L 45.267188 149.4 
z
" style="fill:#ffffff;"/>
   </g>
   <g id="matplotlib.axis_3">
    <g id="xtick_4">
     <g id="line2d_11">
      <g>
       <use style="stroke:#000000;stroke-width:0.8;" x="78.187287" xlink:href="#m43c39f0bee" y="260.521875"/>
      </g>
     </g>
     <g id="text_7">
      <!-- 0 -->
      <g transform="translate(75.006037 275.120313)scale(0.1 -0.1)">
       <use xlink:href="#DejaVuSans-48"/>
      </g>
     </g>
    </g>
    <g id="xtick_5">
     <g id="line2d_12">
      <g>
       <use style="stroke:#000000;stroke-width:0.8;" x="128.833594" xlink:href="#m43c39f0bee" y="260.521875"/>
      </g>
     </g>
     <g id="text_8">
      <!-- 1 -->
      <g transform="translate(125.652344 275.120313)scale(0.1 -0.1)">
       <use xlink:href="#DejaVuSans-49"/>
      </g>
     </g>
    </g>
    <g id="xtick_6">
     <g id="line2d_13">
      <g>
       <use style="stroke:#000000;stroke-width:0.8;" x="179.479901" xlink:href="#m43c39f0bee" y="260.521875"/>
      </g>
     </g>
     <g id="text_9">
      <!-- 2 -->
      <g transform="translate(176.298651 275.120313)scale(0.1 -0.1)">
       <use xlink:href="#DejaVuSans-50"/>
      </g>
     </g>
    </g>
   </g>
   <g id="matplotlib.axis_4">
    <g id="ytick_4">
     <g id="line2d_14">
      <g>
       <use style="stroke:#000000;stroke-width:0.8;" x="45.267188" xlink:href="#m3f3a9a7723" y="238.634233"/>
      </g>
     </g>
     <g id="text_10">
      <!-- −100 -->
      <g transform="translate(10.8 242.433452)scale(0.1 -0.1)">
       <use xlink:href="#DejaVuSans-8722"/>
       <use x="83.789062" xlink:href="#DejaVuSans-49"/>
       <use x="147.412109" xlink:href="#DejaVuSans-48"/>
       <use x="211.035156" xlink:href="#DejaVuSans-48"/>
      </g>
     </g>
    </g>
    <g id="ytick_5">
     <g id="line2d_15">
      <g>
       <use style="stroke:#000000;stroke-width:0.8;" x="45.267188" xlink:href="#m3f3a9a7723" y="204.960937"/>
      </g>
     </g>
     <g id="text_11">
      <!-- 0 -->
      <g transform="translate(31.904688 208.760156)scale(0.1 -0.1)">
       <use xlink:href="#DejaVuSans-48"/>
      </g>
     </g>
    </g>
    <g id="ytick_6">
     <g id="line2d_16">
      <g>
       <use style="stroke:#000000;stroke-width:0.8;" x="45.267188" xlink:href="#m3f3a9a7723" y="171.287642"/>
      </g>
     </g>
     <g id="text_12">
      <!-- 100 -->
      <g transform="translate(19.179688 175.086861)scale(0.1 -0.1)">
       <use xlink:href="#DejaVuSans-49"/>
       <use x="63.623047" xlink:href="#DejaVuSans-48"/>
       <use x="127.246094" xlink:href="#DejaVuSans-48"/>
      </g>
     </g>
    </g>
   </g>
   <g id="line2d_17">
    <path clip-path="url(#p64c1e25a23)" d="M 52.864134 154.450994 
L 54.39887 155.471397 
L 55.933607 156.4918 
L 57.468343 157.512203 
L 59.00308 158.532606 
L 60.537816 159.553009 
L 62.072553 160.573412 
L 63.60729 161.593815 
L 65.142026 162.614217 
L 66.676763 163.63462 
L 68.211499 164.655023 
L 69.746236 165.675426 
L 71.280972 166.695829 
L 72.815709 167.716232 
L 74.350446 168.736635 
L 75.885182 169.757038 
L 77.419919 170.777441 
L 78.954655 171.797843 
L 80.489392 172.818246 
L 82.024128 173.838649 
L 83.558865 174.859052 
L 85.093601 175.879455 
L 86.628338 176.899858 
L 88.163075 177.920261 
L 89.697811 178.940664 
L 91.232548 179.961067 
L 92.767284 180.98147 
L 94.302021 182.001872 
L 95.836757 183.022275 
L 97.371494 184.042678 
L 98.906231 185.063081 
L 100.440967 186.083484 
L 101.975704 187.103887 
L 103.51044 188.12429 
L 105.045177 189.144693 
L 106.579913 190.165096 
L 108.11465 191.185498 
L 109.649387 192.205901 
L 111.184123 193.226304 
L 112.71886 194.246707 
L 114.253596 195.26711 
L 115.788333 196.287513 
L 117.323069 197.307916 
L 118.857806 198.328319 
L 120.392543 199.348722 
L 121.927279 200.369124 
L 123.462016 201.389527 
L 124.996752 202.40993 
L 126.531489 203.430333 
L 128.066225 204.450736 
L 129.600962 205.471139 
L 131.135699 206.491542 
L 132.670435 207.511945 
L 134.205172 208.532348 
L 135.739908 209.552751 
L 137.274645 210.573153 
L 138.809381 211.593556 
L 140.344118 212.613959 
L 141.878855 213.634362 
L 143.413591 214.654765 
L 144.948328 215.675168 
L 146.483064 216.695571 
L 148.017801 217.715974 
L 149.552537 218.736377 
L 151.087274 219.756779 
L 152.622011 220.777182 
L 154.156747 221.797585 
L 155.691484 222.817988 
L 157.22622 223.838391 
L 158.760957 224.858794 
L 160.295693 225.879197 
L 161.83043 226.8996 
L 163.365167 227.920003 
L 164.899903 228.940405 
L 166.43464 229.960808 
L 167.969376 230.981211 
L 169.504113 232.001614 
L 171.038849 233.022017 
L 172.573586 234.04242 
L 174.108323 235.062823 
L 175.643059 236.083226 
L 177.177796 237.103629 
L 178.712532 238.124032 
L 180.247269 239.144434 
L 181.782005 240.164837 
L 183.316742 241.18524 
L 184.851479 242.205643 
L 186.386215 243.226046 
L 187.920952 244.246449 
L 189.455688 245.266852 
L 190.990425 246.287255 
L 192.525161 247.307658 
L 194.059898 248.32806 
L 195.594635 249.348463 
L 197.129371 250.368866 
L 198.664108 251.389269 
L 200.198844 252.409672 
L 201.733581 253.430075 
L 203.268317 254.450478 
L 204.803054 255.470881 
" style="fill:none;stroke:#1f77b4;stroke-linecap:square;stroke-width:1.5;"/>
   </g>
   <g id="line2d_18">
    <path clip-path="url(#p64c1e25a23)" d="M 52.864134 154.450994 
L 54.39887 155.471397 
L 55.933607 156.4918 
L 57.468343 157.512203 
L 59.00308 158.532606 
L 60.537816 159.553009 
L 62.072553 160.573412 
L 63.60729 161.593815 
L 65.142026 162.614217 
L 66.676763 163.63462 
L 68.211499 164.655023 
L 69.746236 165.675426 
L 71.280972 166.695829 
L 72.815709 167.716232 
L 74.350446 168.736635 
L 75.885182 169.757038 
L 77.419919 170.777441 
L 78.954655 171.797843 
L 80.489392 172.818246 
L 82.024128 173.838649 
L 83.558865 174.859052 
L 85.093601 175.879455 
L 86.628338 176.899858 
L 88.163075 177.920261 
L 89.697811 178.940664 
L 91.232548 179.961067 
L 92.767284 180.98147 
L 94.302021 182.001872 
L 95.836757 183.022275 
L 97.371494 184.042678 
L 98.906231 185.063081 
L 100.440967 186.083484 
L 101.975704 187.103887 
L 103.51044 188.12429 
L 105.045177 189.144693 
L 106.579913 190.165096 
L 108.11465 191.185498 
L 109.649387 192.205901 
L 111.184123 193.226304 
L 112.71886 194.246707 
L 114.253596 195.26711 
L 115.788333 196.287513 
L 117.323069 197.307916 
L 118.857806 198.328319 
L 120.392543 199.348722 
L 121.927279 200.369124 
L 123.462016 201.389527 
L 124.996752 202.40993 
L 126.531489 203.430333 
L 128.066225 204.450736 
L 129.600962 205.471139 
L 131.135699 206.491542 
L 132.670435 207.511945 
L 134.205172 208.532348 
L 135.739908 209.552751 
L 137.274645 210.573153 
L 138.809381 211.593556 
L 140.344118 212.613959 
L 141.878855 213.634362 
L 143.413591 214.654765 
L 144.948328 215.675168 
L 146.483064 216.695571 
L 148.017801 217.715974 
L 149.552537 218.736377 
L 151.087274 219.756779 
L 152.622011 220.777182 
L 154.156747 221.797585 
L 155.691484 222.817988 
L 157.22622 223.838391 
L 158.760957 224.858794 
L 160.295693 225.879197 
L 161.83043 226.8996 
L 163.365167 227.920003 
L 164.899903 228.940405 
L 166.43464 229.960808 
L 167.969376 230.981211 
L 169.504113 232.001614 
L 171.038849 233.022017 
L 172.573586 234.04242 
L 174.108323 235.062823 
L 175.643059 236.083226 
L 177.177796 237.103629 
L 178.712532 238.124032 
L 180.247269 239.144434 
L 181.782005 240.164837 
L 183.316742 241.18524 
L 184.851479 242.205643 
L 186.386215 243.226046 
L 187.920952 244.246449 
L 189.455688 245.266852 
L 190.990425 246.287255 
L 192.525161 247.307658 
L 194.059898 248.32806 
L 195.594635 249.348463 
L 197.129371 250.368866 
L 198.664108 251.389269 
L 200.198844 252.409672 
L 201.733581 253.430075 
L 203.268317 254.450478 
L 204.803054 255.470881 
" style="fill:none;stroke:#ff7f0e;stroke-linecap:square;stroke-width:1.5;"/>
   </g>
   <g id="line2d_19">
    <path clip-path="url(#p64c1e25a23)" d="M 52.864134 154.450994 
L 54.39887 155.471397 
L 55.933607 156.4918 
L 57.468343 157.512203 
L 59.00308 158.532606 
L 60.537816 159.553009 
L 62.072553 160.573412 
L 63.60729 161.593815 
L 65.142026 162.614217 
L 66.676763 163.63462 
L 68.211499 164.655023 
L 69.746236 165.675426 
L 71.280972 166.695829 
L 72.815709 167.716232 
L 74.350446 168.736635 
L 75.885182 169.757038 
L 77.419919 170.777441 
L 78.954655 171.797843 
L 80.489392 172.818246 
L 82.024128 173.838649 
L 83.558865 174.859052 
L 85.093601 175.879455 
L 86.628338 176.899858 
L 88.163075 177.920261 
L 89.697811 178.940664 
L 91.232548 179.961067 
L 92.767284 180.98147 
L 94.302021 182.001872 
L 95.836757 183.022275 
L 97.371494 184.042678 
L 98.906231 185.063081 
L 100.440967 186.083484 
L 101.975704 187.103887 
L 103.51044 188.12429 
L 105.045177 189.144693 
L 106.579913 190.165096 
L 108.11465 191.185498 
L 109.649387 192.205901 
L 111.184123 193.226304 
L 112.71886 194.246707 
L 114.253596 195.26711 
L 115.788333 196.287513 
L 117.323069 197.307916 
L 118.857806 198.328319 
L 120.392543 199.348722 
L 121.927279 200.369124 
L 123.462016 201.389527 
L 124.996752 202.40993 
L 126.531489 203.430333 
L 128.066225 204.450736 
L 129.600962 205.471139 
L 131.135699 206.491542 
L 132.670435 207.511945 
L 134.205172 208.532348 
L 135.739908 209.552751 
L 137.274645 210.573153 
L 138.809381 211.593556 
L 140.344118 212.613959 
L 141.878855 213.634362 
L 143.413591 214.654765 
L 144.948328 215.675168 
L 146.483064 216.695571 
L 148.017801 217.715974 
L 149.552537 218.736377 
L 151.087274 219.756779 
L 152.622011 220.777182 
L 154.156747 221.797585 
L 155.691484 222.817988 
L 157.22622 223.838391 
L 158.760957 224.858794 
L 160.295693 225.879197 
L 161.83043 226.8996 
L 163.365167 227.920003 
L 164.899903 228.940405 
L 166.43464 229.960808 
L 167.969376 230.981211 
L 169.504113 232.001614 
L 171.038849 233.022017 
L 172.573586 234.04242 
L 174.108323 235.062823 
L 175.643059 236.083226 
L 177.177796 237.103629 
L 178.712532 238.124032 
L 180.247269 239.144434 
L 181.782005 240.164837 
L 183.316742 241.18524 
L 184.851479 242.205643 
L 186.386215 243.226046 
L 187.920952 244.246449 
L 189.455688 245.266852 
L 190.990425 246.287255 
L 192.525161 247.307658 
L 194.059898 248.32806 
L 195.594635 249.348463 
L 197.129371 250.368866 
L 198.664108 251.389269 
L 200.198844 252.409672 
L 201.733581 253.430075 
L 203.268317 254.450478 
L 204.803054 255.470881 
" style="fill:none;stroke:#808080;stroke-linecap:square;stroke-width:1.5;"/>
   </g>
   <g id="line2d_20">
    <path clip-path="url(#p64c1e25a23)" d="M 45.267188 204.960937 
L 212.4 204.960937 
" style="fill:none;stroke:#808080;stroke-dasharray:1.85,0.8;stroke-dashoffset:0;stroke-width:0.5;"/>
   </g>
   <g id="patch_8">
    <path d="M 45.267188 260.521875 
L 45.267188 149.4 
" style="fill:none;stroke:#000000;stroke-linecap:square;stroke-linejoin:miter;stroke-width:0.8;"/>
   </g>
   <g id="patch_9">
    <path d="M 212.4 260.521875 
L 212.4 149.4 
" style="fill:none;stroke:#000000;stroke-linecap:square;stroke-linejoin:miter;stroke-width:0.8;"/>
   </g>
   <g id="patch_10">
    <path d="M 45.267188 260.521875 
L 212.4 260.521875 
" style="fill:none;stroke:#000000;stroke-linecap:square;stroke-linejoin:miter;stroke-width:0.8;"/>
   </g>
   <g id="patch_11">
    <path d="M 45.267188 149.4 
L 212.4 149.4 
" style="fill:none;stroke:#000000;stroke-linecap:square;stroke-linejoin:miter;stroke-width:0.8;"/>
   </g>
  </g>
 </g>
 <defs>
  <clipPath id="pe9b6cb3fc4">
   <rect height="111.121875" width="167.132812" x="45.267188" y="10.8"/>
  </clipPath>
  <clipPath id="p64c1e25a23">
   <rect height="111.121875" width="167.132812" x="45.267188" y="149.4"/>
  </clipPath>
 </defs>
</svg>
