<?xml version="1.0" encoding="utf-8" standalone="no"?>
<!DOCTYPE svg PUBLIC "-//W3C//DTD SVG 1.1//EN"
  "http://www.w3.org/Graphics/SVG/1.1/DTD/svg11.dtd">
<svg xmlns:xlink="http://www.w3.org/1999/xlink" width="360pt" height="180pt" viewBox="0 0 360 180" xmlns="http://www.w3.org/2000/svg" version="1.1">
 <metadata>
  <rdf:RDF xmlns:dc="http://purl.org/dc/elements/1.1/" xmlns:cc="http://creativecommons.org/ns#" xmlns:rdf="http://www.w3.org/1999/02/22-rdf-syntax-ns#">
   <cc:Work>
    <dc:type rdf:resource="http://purl.org/dc/dcmitype/StillImage"/>
    <dc:date>2025-02-24T18:24:46.607717</dc:date>
    <dc:format>image/svg+xml</dc:format>
    <dc:creator>
     <cc:Agent>
      <dc:title>Matplotlib v3.5.2, https://matplotlib.org/</dc:title>
     </cc:Agent>
    </dc:creator>
   </cc:Work>
  </rdf:RDF>
 </metadata>
 <defs>
  <style type="text/css">*{stroke-linejoin: round; stroke-linecap: butt}</style>
 </defs>
 <g id="figure_1">
  <g id="patch_1">
   <path d="M 0 180 
L 360 180 
L 360 0 
L 0 0 
z
" style="fill: #ffffff"/>
  </g>
  <g id="axes_1">
   <g id="patch_2">
    <path d="M 52.4975 134.9725 
L 174.6 134.9725 
L 174.6 10.8 
L 52.4975 10.8 
z
" style="fill: #ffffff"/>
   </g>
   <g id="line2d_1">
    <path d="M 58.047614 129.328295 
L 58.270063 129.328295 
L 58.492513 125.65743 
L 58.937411 125.65743 
L 59.159861 125.314183 
L 59.38231 90.070877 
L 59.60476 129.328295 
L 60.049659 90.070877 
L 60.272108 90.070877 
L 60.494558 101.567849 
L 60.717007 80.166222 
L 61.384355 80.166222 
L 61.606805 111.294535 
L 61.829254 84.94475 
L 62.051704 80.166222 
L 62.274153 80.166222 
L 62.496603 95.279502 
L 62.719052 43.109057 
L 62.941501 54.791486 
L 63.163951 81.013046 
L 63.3864 43.109057 
L 63.60885 30.465634 
L 64.276198 30.465634 
L 64.498648 81.092869 
L 64.721097 25.54695 
L 64.943546 58.7496 
L 65.165996 25.54695 
L 65.388445 76.696942 
L 65.610895 58.265293 
L 65.833344 25.54695 
L 66.055794 79.041191 
L 66.278243 75.939937 
L 66.500693 25.54695 
L 66.723142 69.860445 
L 66.945591 25.54695 
L 67.168041 76.727048 
L 67.39049 25.54695 
L 67.835389 25.54695 
L 68.057839 31.167063 
L 68.280288 30.249933 
L 68.502738 58.281471 
L 68.947636 25.54695 
L 69.170086 25.54695 
L 69.392535 76.24885 
L 69.614985 25.54695 
L 69.837434 25.54695 
L 70.059884 64.685801 
L 70.282333 60.562691 
L 70.504783 25.54695 
L 70.727232 76.744575 
L 71.172131 22.5036 
L 71.39458 22.5036 
L 71.61703 26.986841 
L 71.839479 54.538142 
L 72.061929 22.5036 
L 72.284378 22.5036 
L 72.506828 44.630466 
L 72.729277 129.328295 
L 73.174176 22.5036 
L 73.396625 59.12425 
L 73.619075 22.5036 
L 73.841524 75.077674 
L 74.063974 22.970732 
L 74.286423 63.477164 
L 74.508873 29.414028 
L 74.731322 76.831256 
L 74.953771 44.162098 
L 75.176221 76.574021 
L 75.39867 22.5036 
L 75.62112 67.468614 
L 75.843569 22.5036 
L 76.066019 25.596718 
L 76.288468 76.120754 
L 76.510918 75.337873 
L 76.955816 27.657732 
L 77.178266 22.5036 
L 77.400715 75.531644 
L 77.623165 22.5036 
L 77.845614 22.5036 
L 78.068064 19.004846 
L 78.290513 73.288398 
L 78.512963 19.004846 
L 78.735412 19.004846 
L 78.957861 76.309086 
L 79.180311 19.004846 
L 79.40276 19.004846 
L 79.62521 73.184427 
L 79.847659 19.004846 
L 80.070109 59.853235 
L 80.292558 74.844843 
L 80.515008 18.265032 
L 80.737457 74.316596 
L 80.959906 18.265032 
L 81.182356 53.402579 
L 81.404805 18.265032 
L 81.627255 70.081789 
L 81.849704 18.265032 
L 82.072154 75.316643 
L 82.294603 72.501758 
L 82.517053 35.008539 
L 82.739502 18.265032 
L 82.961951 18.265032 
L 83.184401 17.381497 
L 83.851749 17.381497 
L 84.074199 72.384853 
L 84.296648 24.98521 
L 84.519098 17.381497 
L 84.741547 17.381497 
L 84.963996 56.103014 
L 85.186446 32.19337 
L 85.408895 72.512405 
L 85.631345 57.793965 
L 85.853794 63.889207 
L 86.076244 74.420459 
L 86.298693 72.447294 
L 86.521143 17.381497 
L 86.743592 17.381497 
L 86.966041 74.518498 
L 87.188491 17.381497 
L 87.63339 129.328295 
L 87.855839 17.381497 
L 88.078289 46.631724 
L 88.300738 17.381497 
L 88.523188 17.381497 
L 88.745637 73.242829 
L 88.968086 30.717033 
L 89.190536 19.614639 
L 89.412985 17.381497 
L 89.635435 74.806931 
L 89.857884 17.381497 
L 90.080334 34.097366 
L 90.302783 72.483033 
L 90.525233 73.465696 
L 90.747682 21.571324 
L 90.970131 32.678892 
L 91.192581 17.381497 
L 91.41503 17.381497 
L 91.63748 18.202807 
L 91.859929 17.381497 
L 92.304828 73.490539 
L 92.527278 17.381497 
L 92.749727 42.934898 
L 92.972176 17.982697 
L 93.194626 73.478796 
L 93.417075 73.546415 
L 93.639525 17.381497 
L 93.861974 21.414986 
L 94.084424 41.873935 
L 94.306873 17.381497 
L 94.529323 73.543143 
L 94.751772 24.729097 
L 94.974221 77.334414 
L 95.196671 36.854965 
L 95.41912 29.334152 
L 95.64157 52.162963 
L 95.864019 17.381497 
L 96.086469 72.477627 
L 96.308918 74.308448 
L 96.531368 65.627511 
L 96.753817 68.582947 
L 96.976266 16.444205 
L 97.198716 16.444205 
L 97.421165 30.606291 
L 97.643615 16.444205 
L 97.866064 16.444205 
L 98.088514 73.55225 
L 98.310963 73.317952 
L 98.533413 72.653386 
L 98.755862 16.444205 
L 99.200761 16.444205 
L 99.42321 70.173033 
L 99.64566 73.282182 
L 100.090559 16.444205 
L 100.757907 16.444205 
L 100.980356 27.643507 
L 101.202806 16.444205 
L 101.425255 73.212411 
L 101.647705 16.444205 
L 102.092604 16.444205 
L 102.315053 42.020441 
L 102.537503 16.444205 
L 102.759952 72.411376 
L 102.982401 26.867069 
L 103.204851 16.444205 
L 103.4273 16.444205 
L 103.64975 25.436677 
L 103.872199 16.444205 
L 104.094649 70.582394 
L 104.317098 29.450933 
L 104.539548 16.444205 
L 104.761997 49.7678 
L 104.984446 16.444205 
L 105.206896 16.444205 
L 105.429345 69.94184 
L 105.651795 58.732409 
L 105.874244 16.444205 
L 106.096694 52.030798 
L 106.319143 16.444205 
L 106.541593 16.444205 
L 106.764042 18.771086 
L 106.986491 51.576998 
L 107.208941 16.444205 
L 107.43139 48.590306 
L 107.65384 53.623785 
L 107.876289 16.444205 
L 108.098739 72.436461 
L 108.543638 16.444205 
L 108.766087 50.548979 
L 108.988536 16.444205 
L 109.210986 74.228982 
L 109.433435 16.444205 
L 109.655885 16.444205 
L 109.878334 72.511016 
L 110.100784 16.444205 
L 110.545683 16.444205 
L 110.768132 62.062172 
L 110.990581 17.46629 
L 111.213031 73.173071 
L 111.43548 73.37014 
L 111.65793 16.567597 
L 111.880379 67.636402 
L 112.102829 16.444205 
L 112.992626 16.444205 
L 113.215076 72.446668 
L 113.437525 16.444205 
L 113.659975 16.444205 
L 113.882424 23.026865 
L 114.104874 21.524903 
L 114.327323 16.444205 
L 114.549772 16.444205 
L 114.772222 44.279151 
L 114.994671 16.444205 
L 115.217121 16.444205 
L 115.43957 73.356657 
L 115.66202 16.444205 
L 116.106919 16.444205 
L 116.329368 58.919557 
L 116.774267 16.444205 
L 117.664065 16.444205 
L 117.886514 72.37814 
L 118.108964 40.944465 
L 118.331413 73.180156 
L 118.553862 16.444205 
L 118.776312 35.160895 
L 118.998761 16.444205 
L 119.221211 16.444205 
L 119.44366 73.329724 
L 119.66611 62.931668 
L 119.888559 16.444205 
L 120.111009 21.143649 
L 120.333458 16.444205 
L 120.555907 73.457094 
L 120.778357 16.48607 
L 121.223256 16.444205 
L 121.445705 23.677018 
L 121.668155 86.764821 
L 121.890604 72.502379 
L 122.113054 73.531167 
L 122.335503 16.444205 
L 122.557952 73.365917 
L 122.780402 21.347553 
L 123.002851 41.057538 
L 123.225301 21.313711 
L 123.44775 16.444205 
L 123.6702 31.39132 
L 123.892649 16.444205 
L 124.115099 16.444205 
L 124.337548 28.687248 
L 124.559997 16.444205 
L 124.782447 16.444205 
L 125.004896 47.267402 
L 125.227346 16.444205 
L 125.449795 16.444205 
L 125.672245 73.558386 
L 125.894694 16.444205 
L 126.117144 35.228722 
L 126.339593 73.555733 
L 126.562042 16.444205 
L 127.67429 16.444205 
L 127.896739 34.438645 
L 128.119189 73.202862 
L 128.341638 20.314902 
L 128.564087 16.444205 
L 128.786537 17.459785 
L 129.008986 16.444205 
L 129.231436 28.468109 
L 129.453885 16.444205 
L 129.676335 16.850802 
L 129.898784 70.551085 
L 130.121234 16.444205 
L 130.343683 20.988039 
L 130.566132 16.444205 
L 130.788582 73.13579 
L 131.011031 73.327802 
L 131.233481 29.712467 
L 131.45593 16.444205 
L 131.67838 16.444205 
L 131.900829 73.493288 
L 132.123279 16.444205 
L 132.345728 65.672522 
L 132.568177 72.373039 
L 132.790627 33.553987 
L 133.013076 21.561632 
L 133.235526 72.611849 
L 133.457975 40.20521 
L 133.680425 63.792836 
L 133.902874 16.444205 
L 134.125324 72.649969 
L 134.570222 73.521995 
L 134.792672 16.444205 
L 135.015121 73.523529 
L 135.237571 53.168063 
L 135.46002 16.444205 
L 135.68247 72.39014 
L 135.904919 16.444205 
L 136.127369 19.377727 
L 136.349818 16.444205 
L 136.572267 56.961551 
L 136.794717 72.606718 
L 137.239616 16.444205 
L 137.462065 56.058944 
L 137.684515 73.349842 
L 137.906964 78.930185 
L 138.351863 45.899698 
L 138.574312 73.542618 
L 138.796762 73.154186 
L 139.019211 16.444205 
L 139.241661 72.495752 
L 139.46411 84.105784 
L 139.68656 35.335404 
L 139.909009 72.482659 
L 140.131459 73.242944 
L 140.576357 16.444205 
L 140.798807 73.481281 
L 141.021256 16.444205 
L 141.243706 73.550299 
L 141.466155 16.444205 
L 141.911054 16.444205 
L 142.133504 19.129531 
L 142.355953 73.650667 
L 142.578402 29.462506 
L 142.800852 37.734787 
L 143.023301 16.444205 
L 143.245751 16.444205 
L 143.4682 54.856909 
L 143.69065 16.444205 
L 144.135549 60.779819 
L 144.357998 25.203141 
L 144.580447 16.444205 
L 144.802897 74.046657 
L 145.025346 16.444205 
L 145.247796 34.147339 
L 145.470245 16.444205 
L 145.692695 16.444205 
L 145.915144 58.106878 
L 146.137594 16.444205 
L 146.360043 36.966568 
L 146.582492 16.444205 
L 146.804942 16.444205 
L 147.027391 49.66312 
L 147.249841 129.311975 
L 147.47229 72.518863 
L 147.69474 60.1594 
L 147.917189 20.305315 
L 148.139639 129.328295 
L 148.362088 23.936318 
L 148.584537 16.444205 
L 148.806987 51.148328 
L 149.029436 40.872347 
L 149.251886 59.116337 
L 149.474335 16.444205 
L 150.586582 16.444205 
L 150.809032 73.130727 
L 151.031481 73.365682 
L 151.253931 72.496514 
L 151.47638 43.85754 
L 151.69883 68.134773 
L 151.921279 16.444205 
L 152.143729 16.444205 
L 152.366178 64.746076 
L 152.588627 16.444205 
L 152.811077 70.263137 
L 153.033526 32.056872 
L 153.255976 16.444205 
L 153.478425 73.269016 
L 153.923324 16.444205 
L 154.145774 73.19999 
L 154.368223 16.444205 
L 154.590672 45.068119 
L 154.813122 16.444205 
L 155.035571 21.295169 
L 155.258021 16.444205 
L 155.48047 16.444205 
L 155.70292 64.735867 
L 155.925369 44.536569 
L 156.147819 105.129793 
L 156.370268 72.583345 
L 156.592717 18.32468 
L 156.815167 19.623476 
L 157.037616 16.444205 
L 157.260066 16.444205 
L 157.482515 42.293637 
L 157.927414 34.487205 
L 158.149864 16.444205 
L 158.372313 73.063189 
L 158.594762 29.374368 
L 158.817212 16.444205 
L 159.039661 91.853985 
L 159.262111 36.074764 
L 159.48456 16.444205 
L 159.70701 16.444205 
L 159.929459 52.388923 
L 160.151909 16.444205 
L 160.374358 72.483585 
L 160.596807 22.102789 
L 161.041706 59.617739 
L 161.264156 73.473533 
L 161.486605 16.444205 
L 161.709055 55.93455 
L 161.931504 16.444205 
L 162.153954 73.375298 
L 162.376403 24.214735 
L 162.598852 18.800763 
L 162.821302 16.444205 
L 163.043751 16.444205 
L 163.266201 45.424816 
L 163.48865 23.069612 
L 163.7111 16.444205 
L 163.933549 16.444205 
L 164.155999 50.362865 
L 164.378448 16.444205 
L 164.600897 73.093986 
L 164.823347 16.444205 
L 165.045796 72.525101 
L 165.268246 73.309738 
L 165.490695 16.444205 
L 165.713145 17.978627 
L 165.935594 16.444205 
L 166.158044 31.787793 
L 166.380493 73.1314 
L 166.602942 23.715905 
L 166.825392 16.444205 
L 167.047841 19.665745 
L 167.270291 72.488731 
L 167.49274 16.444205 
L 167.937639 73.598076 
L 168.160089 72.4991 
L 168.382538 21.627355 
L 168.604987 16.444205 
L 168.827437 40.086332 
L 169.049886 16.444205 
L 169.049886 16.444205 
" clip-path="url(#p2ba80ffe60)" style="fill: none; stroke: #000000; stroke-width: 1.5; stroke-linecap: square"/>
   </g>
   <g id="PathCollection_1">
    <defs>
     <path id="m70cee1e8d2" d="M 0 3 
C 0.795609 3 1.55874 2.683901 2.12132 2.12132 
C 2.683901 1.55874 3 0.795609 3 0 
C 3 -0.795609 2.683901 -1.55874 2.12132 -2.12132 
C 1.55874 -2.683901 0.795609 -3 0 -3 
C -0.795609 -3 -1.55874 -2.683901 -2.12132 -2.12132 
C -2.683901 -1.55874 -3 -0.795609 -3 0 
C -3 0.795609 -2.683901 1.55874 -2.12132 2.12132 
C -1.55874 2.683901 -0.795609 3 0 3 
z
" style="stroke: #ff0000"/>
    </defs>
    <g clip-path="url(#p2ba80ffe60)">
     <use xlink:href="#m70cee1e8d2" x="58.492513" y="125.65743" style="fill: #ff0000; stroke: #ff0000"/>
     <use xlink:href="#m70cee1e8d2" x="59.159861" y="125.314183" style="fill: #ff0000; stroke: #ff0000"/>
     <use xlink:href="#m70cee1e8d2" x="59.38231" y="90.070877" style="fill: #ff0000; stroke: #ff0000"/>
     <use xlink:href="#m70cee1e8d2" x="60.717007" y="80.166222" style="fill: #ff0000; stroke: #ff0000"/>
     <use xlink:href="#m70cee1e8d2" x="62.719052" y="43.109057" style="fill: #ff0000; stroke: #ff0000"/>
     <use xlink:href="#m70cee1e8d2" x="63.60885" y="30.465634" style="fill: #ff0000; stroke: #ff0000"/>
     <use xlink:href="#m70cee1e8d2" x="64.721097" y="25.54695" style="fill: #ff0000; stroke: #ff0000"/>
     <use xlink:href="#m70cee1e8d2" x="71.172131" y="22.5036" style="fill: #ff0000; stroke: #ff0000"/>
     <use xlink:href="#m70cee1e8d2" x="78.068064" y="19.004846" style="fill: #ff0000; stroke: #ff0000"/>
     <use xlink:href="#m70cee1e8d2" x="80.515008" y="18.265032" style="fill: #ff0000; stroke: #ff0000"/>
     <use xlink:href="#m70cee1e8d2" x="83.184401" y="17.381497" style="fill: #ff0000; stroke: #ff0000"/>
     <use xlink:href="#m70cee1e8d2" x="96.976266" y="16.444205" style="fill: #ff0000; stroke: #ff0000"/>
    </g>
   </g>
   <g id="matplotlib.axis_1">
    <g id="xtick_1">
     <g id="line2d_2">
      <defs>
       <path id="m8bad25b309" d="M 0 0 
L 0 3.5 
" style="stroke: #000000; stroke-width: 0.8"/>
      </defs>
      <g>
       <use xlink:href="#m8bad25b309" x="57.825164" y="134.9725" style="stroke: #000000; stroke-width: 0.8"/>
      </g>
     </g>
     <g id="text_1">
      <!-- 0 -->
      <g transform="translate(54.007664 151.090625)scale(0.12 -0.12)">
       <defs>
        <path id="DejaVuSans-30" d="M 2034 4250 
Q 1547 4250 1301 3770 
Q 1056 3291 1056 2328 
Q 1056 1369 1301 889 
Q 1547 409 2034 409 
Q 2525 409 2770 889 
Q 3016 1369 3016 2328 
Q 3016 3291 2770 3770 
Q 2525 4250 2034 4250 
z
M 2034 4750 
Q 2819 4750 3233 4129 
Q 3647 3509 3647 2328 
Q 3647 1150 3233 529 
Q 2819 -91 2034 -91 
Q 1250 -91 836 529 
Q 422 1150 422 2328 
Q 422 3509 836 4129 
Q 1250 4750 2034 4750 
z
" transform="scale(0.015625)"/>
       </defs>
       <use xlink:href="#DejaVuSans-30"/>
      </g>
     </g>
    </g>
    <g id="xtick_2">
     <g id="line2d_3">
      <g>
       <use xlink:href="#m8bad25b309" x="102.315053" y="134.9725" style="stroke: #000000; stroke-width: 0.8"/>
      </g>
     </g>
     <g id="text_2">
      <!-- 200 -->
      <g transform="translate(90.862553 151.090625)scale(0.12 -0.12)">
       <defs>
        <path id="DejaVuSans-32" d="M 1228 531 
L 3431 531 
L 3431 0 
L 469 0 
L 469 531 
Q 828 903 1448 1529 
Q 2069 2156 2228 2338 
Q 2531 2678 2651 2914 
Q 2772 3150 2772 3378 
Q 2772 3750 2511 3984 
Q 2250 4219 1831 4219 
Q 1534 4219 1204 4116 
Q 875 4013 500 3803 
L 500 4441 
Q 881 4594 1212 4672 
Q 1544 4750 1819 4750 
Q 2544 4750 2975 4387 
Q 3406 4025 3406 3419 
Q 3406 3131 3298 2873 
Q 3191 2616 2906 2266 
Q 2828 2175 2409 1742 
Q 1991 1309 1228 531 
z
" transform="scale(0.015625)"/>
       </defs>
       <use xlink:href="#DejaVuSans-32"/>
       <use xlink:href="#DejaVuSans-30" x="63.623047"/>
       <use xlink:href="#DejaVuSans-30" x="127.246094"/>
      </g>
     </g>
    </g>
    <g id="xtick_3">
     <g id="line2d_4">
      <g>
       <use xlink:href="#m8bad25b309" x="146.804942" y="134.9725" style="stroke: #000000; stroke-width: 0.8"/>
      </g>
     </g>
     <g id="text_3">
      <!-- 400 -->
      <g transform="translate(135.352442 151.090625)scale(0.12 -0.12)">
       <defs>
        <path id="DejaVuSans-34" d="M 2419 4116 
L 825 1625 
L 2419 1625 
L 2419 4116 
z
M 2253 4666 
L 3047 4666 
L 3047 1625 
L 3713 1625 
L 3713 1100 
L 3047 1100 
L 3047 0 
L 2419 0 
L 2419 1100 
L 313 1100 
L 313 1709 
L 2253 4666 
z
" transform="scale(0.015625)"/>
       </defs>
       <use xlink:href="#DejaVuSans-34"/>
       <use xlink:href="#DejaVuSans-30" x="63.623047"/>
       <use xlink:href="#DejaVuSans-30" x="127.246094"/>
      </g>
     </g>
    </g>
    <g id="text_4">
     <!-- Epoch -->
     <g transform="translate(95.175625 166.704375)scale(0.12 -0.12)">
      <defs>
       <path id="DejaVuSans-45" d="M 628 4666 
L 3578 4666 
L 3578 4134 
L 1259 4134 
L 1259 2753 
L 3481 2753 
L 3481 2222 
L 1259 2222 
L 1259 531 
L 3634 531 
L 3634 0 
L 628 0 
L 628 4666 
z
" transform="scale(0.015625)"/>
       <path id="DejaVuSans-70" d="M 1159 525 
L 1159 -1331 
L 581 -1331 
L 581 3500 
L 1159 3500 
L 1159 2969 
Q 1341 3281 1617 3432 
Q 1894 3584 2278 3584 
Q 2916 3584 3314 3078 
Q 3713 2572 3713 1747 
Q 3713 922 3314 415 
Q 2916 -91 2278 -91 
Q 1894 -91 1617 61 
Q 1341 213 1159 525 
z
M 3116 1747 
Q 3116 2381 2855 2742 
Q 2594 3103 2138 3103 
Q 1681 3103 1420 2742 
Q 1159 2381 1159 1747 
Q 1159 1113 1420 752 
Q 1681 391 2138 391 
Q 2594 391 2855 752 
Q 3116 1113 3116 1747 
z
" transform="scale(0.015625)"/>
       <path id="DejaVuSans-6f" d="M 1959 3097 
Q 1497 3097 1228 2736 
Q 959 2375 959 1747 
Q 959 1119 1226 758 
Q 1494 397 1959 397 
Q 2419 397 2687 759 
Q 2956 1122 2956 1747 
Q 2956 2369 2687 2733 
Q 2419 3097 1959 3097 
z
M 1959 3584 
Q 2709 3584 3137 3096 
Q 3566 2609 3566 1747 
Q 3566 888 3137 398 
Q 2709 -91 1959 -91 
Q 1206 -91 779 398 
Q 353 888 353 1747 
Q 353 2609 779 3096 
Q 1206 3584 1959 3584 
z
" transform="scale(0.015625)"/>
       <path id="DejaVuSans-63" d="M 3122 3366 
L 3122 2828 
Q 2878 2963 2633 3030 
Q 2388 3097 2138 3097 
Q 1578 3097 1268 2742 
Q 959 2388 959 1747 
Q 959 1106 1268 751 
Q 1578 397 2138 397 
Q 2388 397 2633 464 
Q 2878 531 3122 666 
L 3122 134 
Q 2881 22 2623 -34 
Q 2366 -91 2075 -91 
Q 1284 -91 818 406 
Q 353 903 353 1747 
Q 353 2603 823 3093 
Q 1294 3584 2113 3584 
Q 2378 3584 2631 3529 
Q 2884 3475 3122 3366 
z
" transform="scale(0.015625)"/>
       <path id="DejaVuSans-68" d="M 3513 2113 
L 3513 0 
L 2938 0 
L 2938 2094 
Q 2938 2591 2744 2837 
Q 2550 3084 2163 3084 
Q 1697 3084 1428 2787 
Q 1159 2491 1159 1978 
L 1159 0 
L 581 0 
L 581 4863 
L 1159 4863 
L 1159 2956 
Q 1366 3272 1645 3428 
Q 1925 3584 2291 3584 
Q 2894 3584 3203 3211 
Q 3513 2838 3513 2113 
z
" transform="scale(0.015625)"/>
      </defs>
      <use xlink:href="#DejaVuSans-45"/>
      <use xlink:href="#DejaVuSans-70" x="63.183594"/>
      <use xlink:href="#DejaVuSans-6f" x="126.660156"/>
      <use xlink:href="#DejaVuSans-63" x="187.841797"/>
      <use xlink:href="#DejaVuSans-68" x="242.822266"/>
     </g>
    </g>
   </g>
   <g id="matplotlib.axis_2">
    <g id="ytick_1">
     <g id="line2d_5">
      <defs>
       <path id="md79e7bac6a" d="M 0 0 
L -3.5 0 
" style="stroke: #000000; stroke-width: 0.8"/>
      </defs>
      <g>
       <use xlink:href="#md79e7bac6a" x="52.4975" y="129.328295" style="stroke: #000000; stroke-width: 0.8"/>
      </g>
     </g>
     <g id="text_5">
      <!-- 0.0 -->
      <g transform="translate(26.41375 133.887358)scale(0.12 -0.12)">
       <defs>
        <path id="DejaVuSans-2e" d="M 684 794 
L 1344 794 
L 1344 0 
L 684 0 
L 684 794 
z
" transform="scale(0.015625)"/>
       </defs>
       <use xlink:href="#DejaVuSans-30"/>
       <use xlink:href="#DejaVuSans-2e" x="63.623047"/>
       <use xlink:href="#DejaVuSans-30" x="95.410156"/>
      </g>
     </g>
    </g>
    <g id="ytick_2">
     <g id="line2d_6">
      <g>
       <use xlink:href="#md79e7bac6a" x="52.4975" y="106.539408" style="stroke: #000000; stroke-width: 0.8"/>
      </g>
     </g>
     <g id="text_6">
      <!-- 0.2 -->
      <g transform="translate(26.41375 111.09847)scale(0.12 -0.12)">
       <use xlink:href="#DejaVuSans-30"/>
       <use xlink:href="#DejaVuSans-2e" x="63.623047"/>
       <use xlink:href="#DejaVuSans-32" x="95.410156"/>
      </g>
     </g>
    </g>
    <g id="ytick_3">
     <g id="line2d_7">
      <g>
       <use xlink:href="#md79e7bac6a" x="52.4975" y="83.75052" style="stroke: #000000; stroke-width: 0.8"/>
      </g>
     </g>
     <g id="text_7">
      <!-- 0.4 -->
      <g transform="translate(26.41375 88.309582)scale(0.12 -0.12)">
       <use xlink:href="#DejaVuSans-30"/>
       <use xlink:href="#DejaVuSans-2e" x="63.623047"/>
       <use xlink:href="#DejaVuSans-34" x="95.410156"/>
      </g>
     </g>
    </g>
    <g id="ytick_4">
     <g id="line2d_8">
      <g>
       <use xlink:href="#md79e7bac6a" x="52.4975" y="60.961632" style="stroke: #000000; stroke-width: 0.8"/>
      </g>
     </g>
     <g id="text_8">
      <!-- 0.6 -->
      <g transform="translate(26.41375 65.520694)scale(0.12 -0.12)">
       <defs>
        <path id="DejaVuSans-36" d="M 2113 2584 
Q 1688 2584 1439 2293 
Q 1191 2003 1191 1497 
Q 1191 994 1439 701 
Q 1688 409 2113 409 
Q 2538 409 2786 701 
Q 3034 994 3034 1497 
Q 3034 2003 2786 2293 
Q 2538 2584 2113 2584 
z
M 3366 4563 
L 3366 3988 
Q 3128 4100 2886 4159 
Q 2644 4219 2406 4219 
Q 1781 4219 1451 3797 
Q 1122 3375 1075 2522 
Q 1259 2794 1537 2939 
Q 1816 3084 2150 3084 
Q 2853 3084 3261 2657 
Q 3669 2231 3669 1497 
Q 3669 778 3244 343 
Q 2819 -91 2113 -91 
Q 1303 -91 875 529 
Q 447 1150 447 2328 
Q 447 3434 972 4092 
Q 1497 4750 2381 4750 
Q 2619 4750 2861 4703 
Q 3103 4656 3366 4563 
z
" transform="scale(0.015625)"/>
       </defs>
       <use xlink:href="#DejaVuSans-30"/>
       <use xlink:href="#DejaVuSans-2e" x="63.623047"/>
       <use xlink:href="#DejaVuSans-36" x="95.410156"/>
      </g>
     </g>
    </g>
    <g id="ytick_5">
     <g id="line2d_9">
      <g>
       <use xlink:href="#md79e7bac6a" x="52.4975" y="38.172744" style="stroke: #000000; stroke-width: 0.8"/>
      </g>
     </g>
     <g id="text_9">
      <!-- 0.8 -->
      <g transform="translate(26.41375 42.731806)scale(0.12 -0.12)">
       <defs>
        <path id="DejaVuSans-38" d="M 2034 2216 
Q 1584 2216 1326 1975 
Q 1069 1734 1069 1313 
Q 1069 891 1326 650 
Q 1584 409 2034 409 
Q 2484 409 2743 651 
Q 3003 894 3003 1313 
Q 3003 1734 2745 1975 
Q 2488 2216 2034 2216 
z
M 1403 2484 
Q 997 2584 770 2862 
Q 544 3141 544 3541 
Q 544 4100 942 4425 
Q 1341 4750 2034 4750 
Q 2731 4750 3128 4425 
Q 3525 4100 3525 3541 
Q 3525 3141 3298 2862 
Q 3072 2584 2669 2484 
Q 3125 2378 3379 2068 
Q 3634 1759 3634 1313 
Q 3634 634 3220 271 
Q 2806 -91 2034 -91 
Q 1263 -91 848 271 
Q 434 634 434 1313 
Q 434 1759 690 2068 
Q 947 2378 1403 2484 
z
M 1172 3481 
Q 1172 3119 1398 2916 
Q 1625 2713 2034 2713 
Q 2441 2713 2670 2916 
Q 2900 3119 2900 3481 
Q 2900 3844 2670 4047 
Q 2441 4250 2034 4250 
Q 1625 4250 1398 4047 
Q 1172 3844 1172 3481 
z
" transform="scale(0.015625)"/>
       </defs>
       <use xlink:href="#DejaVuSans-30"/>
       <use xlink:href="#DejaVuSans-2e" x="63.623047"/>
       <use xlink:href="#DejaVuSans-38" x="95.410156"/>
      </g>
     </g>
    </g>
    <g id="ytick_6">
     <g id="line2d_10">
      <g>
       <use xlink:href="#md79e7bac6a" x="52.4975" y="15.383856" style="stroke: #000000; stroke-width: 0.8"/>
      </g>
     </g>
     <g id="text_10">
      <!-- 1.0 -->
      <g transform="translate(26.41375 19.942919)scale(0.12 -0.12)">
       <defs>
        <path id="DejaVuSans-31" d="M 794 531 
L 1825 531 
L 1825 4091 
L 703 3866 
L 703 4441 
L 1819 4666 
L 2450 4666 
L 2450 531 
L 3481 531 
L 3481 0 
L 794 0 
L 794 531 
z
" transform="scale(0.015625)"/>
       </defs>
       <use xlink:href="#DejaVuSans-31"/>
       <use xlink:href="#DejaVuSans-2e" x="63.623047"/>
       <use xlink:href="#DejaVuSans-30" x="95.410156"/>
      </g>
     </g>
    </g>
    <g id="text_11">
     <!-- R -->
     <g transform="translate(19.918125 77.055313)rotate(-90)scale(0.12 -0.12)">
      <defs>
       <path id="DejaVuSans-52" d="M 2841 2188 
Q 3044 2119 3236 1894 
Q 3428 1669 3622 1275 
L 4263 0 
L 3584 0 
L 2988 1197 
Q 2756 1666 2539 1819 
Q 2322 1972 1947 1972 
L 1259 1972 
L 1259 0 
L 628 0 
L 628 4666 
L 2053 4666 
Q 2853 4666 3247 4331 
Q 3641 3997 3641 3322 
Q 3641 2881 3436 2590 
Q 3231 2300 2841 2188 
z
M 1259 4147 
L 1259 2491 
L 2053 2491 
Q 2509 2491 2742 2702 
Q 2975 2913 2975 3322 
Q 2975 3731 2742 3939 
Q 2509 4147 2053 4147 
L 1259 4147 
z
" transform="scale(0.015625)"/>
      </defs>
      <use xlink:href="#DejaVuSans-52"/>
     </g>
    </g>
   </g>
   <g id="patch_3">
    <path d="M 52.4975 134.9725 
L 52.4975 10.8 
" style="fill: none; stroke: #000000; stroke-width: 0.8; stroke-linejoin: miter; stroke-linecap: square"/>
   </g>
   <g id="patch_4">
    <path d="M 174.6 134.9725 
L 174.6 10.8 
" style="fill: none; stroke: #000000; stroke-width: 0.8; stroke-linejoin: miter; stroke-linecap: square"/>
   </g>
   <g id="patch_5">
    <path d="M 52.4975 134.9725 
L 174.6 134.9725 
" style="fill: none; stroke: #000000; stroke-width: 0.8; stroke-linejoin: miter; stroke-linecap: square"/>
   </g>
   <g id="patch_6">
    <path d="M 52.4975 10.8 
L 174.6 10.8 
" style="fill: none; stroke: #000000; stroke-width: 0.8; stroke-linejoin: miter; stroke-linecap: square"/>
   </g>
  </g>
  <g id="axes_2">
   <g id="patch_7">
    <path d="M 227.0975 134.9725 
L 349.2 134.9725 
L 349.2 10.8 
L 227.0975 10.8 
z
" style="fill: #ffffff"/>
   </g>
   <g id="PolyCollection_1">
    <defs>
     <path id="m84453389db" d="M 232.647614 -163.555795 
L 232.647614 -163.555795 
L 232.870063 -65.248344 
L 233.092513 -63.92458 
L 233.314962 -61.60525 
L 233.537411 -61.60525 
L 233.759861 -60.690641 
L 233.98231 -60.690641 
L 234.20476 -59.640952 
L 234.427209 -59.568626 
L 234.649659 -59.568626 
L 234.872108 -58.948071 
L 235.094558 -58.29667 
L 235.317007 -58.29667 
L 235.539456 -57.845398 
L 235.761906 -57.49648 
L 235.984355 -57.373881 
L 236.206805 -57.35924 
L 236.429254 -57.070855 
L 236.651704 -57.070855 
L 236.874153 -57.070855 
L 237.096603 -56.743458 
L 237.319052 -56.318014 
L 237.541501 -56.318014 
L 237.763951 -56.316382 
L 237.9864 -56.316382 
L 238.20885 -56.164415 
L 238.431299 -56.164415 
L 238.653749 -54.910053 
L 238.876198 -54.9006 
L 239.098648 -54.9006 
L 239.321097 -54.87238 
L 239.543546 -54.87238 
L 239.765996 -54.520316 
L 239.988445 -54.520316 
L 240.210895 -54.520316 
L 240.433344 -54.409519 
L 240.655794 -54.409519 
L 240.878243 -54.409519 
L 241.100693 -54.409519 
L 241.323142 -54.066824 
L 241.545591 -54.066824 
L 241.768041 -54.043918 
L 241.99049 -54.042539 
L 242.21294 -54.042539 
L 242.435389 -54.042539 
L 242.657839 -54.042539 
L 242.880288 -54.042539 
L 243.102738 -53.785738 
L 243.325187 -53.785738 
L 243.547636 -53.571739 
L 243.770086 -53.565954 
L 243.992535 -53.544004 
L 244.214985 -53.415731 
L 244.437434 -53.415731 
L 244.659884 -53.415731 
L 244.882333 -53.415731 
L 245.104783 -53.415731 
L 245.327232 -53.406664 
L 245.549681 -53.406664 
L 245.772131 -53.406664 
L 245.99458 -53.406664 
L 246.21703 -53.406664 
L 246.439479 -53.398712 
L 246.661929 -52.736805 
L 246.884378 -52.736805 
L 247.106828 -52.736805 
L 247.329277 -52.736805 
L 247.551726 -52.616354 
L 247.774176 -52.616354 
L 247.996625 -52.616354 
L 248.219075 -52.616354 
L 248.441524 -51.9499 
L 248.663974 -51.9499 
L 248.886423 -51.9499 
L 249.108873 -51.9499 
L 249.331322 -51.9499 
L 249.553771 -51.9499 
L 249.776221 -51.9499 
L 249.99867 -51.9499 
L 250.22112 -51.9499 
L 250.443569 -51.9499 
L 250.666019 -51.9499 
L 250.888468 -51.9499 
L 251.110918 -51.9499 
L 251.333367 -51.9499 
L 251.555816 -51.9499 
L 251.778266 -51.948494 
L 252.000715 -51.948494 
L 252.223165 -51.948494 
L 252.445614 -51.839703 
L 252.668064 -51.839703 
L 252.890513 -51.839703 
L 253.112963 -51.839703 
L 253.335412 -51.839703 
L 253.557861 -51.839703 
L 253.780311 -51.839703 
L 254.00276 -51.801916 
L 254.22521 -51.801916 
L 254.447659 -51.801916 
L 254.670109 -51.724656 
L 254.892558 -51.724656 
L 255.115008 -51.724656 
L 255.337457 -51.724656 
L 255.559906 -51.724656 
L 255.782356 -51.724656 
L 256.004805 -51.724656 
L 256.227255 -51.724656 
L 256.449704 -51.724656 
L 256.672154 -51.724656 
L 256.894603 -51.700128 
L 257.117053 -51.700128 
L 257.339502 -51.700128 
L 257.561951 -51.700128 
L 257.784401 -51.700128 
L 258.00685 -51.700128 
L 258.2293 -51.700128 
L 258.451749 -51.700128 
L 258.674199 -51.700128 
L 258.896648 -51.700128 
L 259.119098 -51.700128 
L 259.341547 -51.700128 
L 259.563996 -51.700128 
L 259.786446 -51.700128 
L 260.008895 -51.478359 
L 260.231345 -51.478359 
L 260.453794 -51.384769 
L 260.676244 -51.384769 
L 260.898693 -51.384769 
L 261.121143 -51.384769 
L 261.343592 -51.384769 
L 261.566041 -51.384769 
L 261.788491 -51.384769 
L 262.01094 -51.384769 
L 262.23339 -51.384769 
L 262.455839 -51.384769 
L 262.678289 -51.384769 
L 262.900738 -51.384769 
L 263.123188 -51.384769 
L 263.345637 -51.382566 
L 263.568086 -51.38118 
L 263.790536 -51.38118 
L 264.012985 -51.38118 
L 264.235435 -51.38118 
L 264.457884 -51.38118 
L 264.680334 -51.38118 
L 264.902783 -51.38118 
L 265.125233 -51.38118 
L 265.347682 -51.38118 
L 265.570131 -51.38118 
L 265.792581 -51.38118 
L 266.01503 -51.38118 
L 266.23748 -51.38118 
L 266.459929 -51.38118 
L 266.682379 -51.38118 
L 266.904828 -51.379879 
L 267.127278 -51.379879 
L 267.349727 -51.379879 
L 267.572176 -51.337949 
L 267.794626 -51.337949 
L 268.017075 -51.31542 
L 268.239525 -51.31542 
L 268.461974 -51.31542 
L 268.684424 -51.31542 
L 268.906873 -51.31542 
L 269.129323 -51.31542 
L 269.351772 -51.31542 
L 269.574221 -51.31542 
L 269.796671 -51.250464 
L 270.01912 -51.250024 
L 270.24157 -51.250024 
L 270.464019 -51.250024 
L 270.686469 -51.250024 
L 270.908918 -51.250024 
L 271.131368 -51.250024 
L 271.353817 -51.249224 
L 271.576266 -51.249224 
L 271.798716 -51.249224 
L 272.021165 -51.245561 
L 272.243615 -51.245561 
L 272.466064 -51.245561 
L 272.688514 -51.245561 
L 272.910963 -51.245561 
L 273.133413 -51.245561 
L 273.355862 -51.245561 
L 273.578311 -51.245561 
L 273.800761 -51.245561 
L 274.02321 -51.245561 
L 274.24566 -51.192878 
L 274.468109 -51.192878 
L 274.690559 -51.192878 
L 274.913008 -51.192878 
L 275.135458 -51.192878 
L 275.357907 -51.192878 
L 275.580356 -51.180218 
L 275.802806 -51.180218 
L 276.025255 -51.180218 
L 276.247705 -51.180218 
L 276.470154 -51.180218 
L 276.692604 -51.180218 
L 276.915053 -51.180218 
L 277.137503 -51.180218 
L 277.359952 -51.180218 
L 277.582401 -51.180218 
L 277.804851 -51.178309 
L 278.0273 -51.138293 
L 278.24975 -51.138293 
L 278.472199 -51.138293 
L 278.694649 -51.138293 
L 278.917098 -51.138293 
L 279.139548 -51.120198 
L 279.361997 -51.120198 
L 279.584446 -51.120198 
L 279.806896 -51.120198 
L 280.029345 -51.120198 
L 280.251795 -51.120198 
L 280.474244 -51.111251 
L 280.696694 -51.111251 
L 280.919143 -51.111251 
L 281.141593 -51.111251 
L 281.364042 -51.111251 
L 281.586491 -51.111251 
L 281.808941 -51.111251 
L 282.03139 -51.105331 
L 282.25384 -51.105331 
L 282.476289 -51.105331 
L 282.698739 -51.105331 
L 282.921188 -51.105331 
L 283.143638 -51.105331 
L 283.366087 -51.105331 
L 283.588536 -51.087873 
L 283.810986 -51.087873 
L 284.033435 -51.087873 
L 284.255885 -51.087873 
L 284.478334 -51.087873 
L 284.700784 -51.087873 
L 284.923233 -51.087873 
L 285.145683 -51.087873 
L 285.368132 -51.087873 
L 285.590581 -51.087873 
L 285.813031 -51.087873 
L 286.03548 -51.087873 
L 286.25793 -51.087873 
L 286.480379 -51.087873 
L 286.702829 -51.087873 
L 286.925278 -51.082466 
L 287.147728 -51.082466 
L 287.370177 -51.082466 
L 287.592626 -51.082466 
L 287.815076 -51.082466 
L 288.037525 -51.082417 
L 288.259975 -51.082417 
L 288.482424 -51.082417 
L 288.704874 -51.082417 
L 288.927323 -51.082417 
L 289.149772 -51.082417 
L 289.372222 -51.082417 
L 289.594671 -51.082417 
L 289.817121 -51.082417 
L 290.03957 -51.082417 
L 290.26202 -51.082417 
L 290.484469 -51.082417 
L 290.706919 -51.082417 
L 290.929368 -51.082417 
L 291.151817 -51.054102 
L 291.374267 -51.054102 
L 291.596716 -51.054102 
L 291.819166 -51.054102 
L 292.041615 -51.054102 
L 292.264065 -51.054102 
L 292.486514 -51.054102 
L 292.708964 -51.054102 
L 292.931413 -51.054102 
L 293.153862 -51.054102 
L 293.376312 -51.024852 
L 293.598761 -51.024852 
L 293.821211 -51.024852 
L 294.04366 -51.024852 
L 294.26611 -51.024852 
L 294.488559 -51.024852 
L 294.711009 -51.024852 
L 294.933458 -51.024852 
L 295.155907 -51.024852 
L 295.378357 -51.024852 
L 295.600806 -51.024852 
L 295.823256 -51.024852 
L 296.045705 -51.024852 
L 296.268155 -50.97282 
L 296.490604 -50.97282 
L 296.713054 -50.97282 
L 296.935503 -50.97282 
L 297.157952 -50.97282 
L 297.380402 -50.907469 
L 297.602851 -50.907469 
L 297.825301 -50.907469 
L 298.04775 -50.907469 
L 298.2702 -50.867713 
L 298.492649 -50.867713 
L 298.715099 -50.867713 
L 298.937548 -50.867713 
L 299.159997 -50.867713 
L 299.382447 -50.867713 
L 299.604896 -50.867713 
L 299.827346 -50.867713 
L 300.049795 -50.867713 
L 300.272245 -50.867713 
L 300.494694 -50.867713 
L 300.717144 -50.867713 
L 300.939593 -50.867713 
L 301.162042 -50.867713 
L 301.384492 -50.834064 
L 301.606941 -50.834064 
L 301.829391 -50.834064 
L 302.05184 -50.834064 
L 302.27429 -50.834064 
L 302.496739 -50.834064 
L 302.719189 -50.834064 
L 302.941638 -50.834064 
L 303.164087 -50.834064 
L 303.386537 -50.834064 
L 303.608986 -50.834064 
L 303.831436 -50.834064 
L 304.053885 -50.834064 
L 304.276335 -50.834064 
L 304.498784 -50.83261 
L 304.721234 -50.83261 
L 304.943683 -50.83261 
L 305.166132 -50.83261 
L 305.388582 -50.83261 
L 305.611031 -50.83261 
L 305.833481 -50.83261 
L 306.05593 -50.83261 
L 306.27838 -50.83261 
L 306.500829 -50.83261 
L 306.723279 -50.818302 
L 306.945728 -50.818302 
L 307.168177 -50.818302 
L 307.390627 -50.818302 
L 307.613076 -50.818302 
L 307.835526 -50.818302 
L 308.057975 -50.818302 
L 308.280425 -50.818302 
L 308.502874 -50.818302 
L 308.725324 -50.818302 
L 308.947773 -50.818302 
L 309.170222 -50.818302 
L 309.392672 -50.818302 
L 309.615121 -50.818302 
L 309.837571 -50.818302 
L 310.06002 -50.818302 
L 310.28247 -50.804672 
L 310.504919 -50.804672 
L 310.727369 -50.804672 
L 310.949818 -50.804672 
L 311.172267 -50.804672 
L 311.394717 -50.804672 
L 311.617166 -50.804672 
L 311.839616 -50.804672 
L 312.062065 -50.804672 
L 312.284515 -50.804672 
L 312.506964 -50.804672 
L 312.729414 -50.804672 
L 312.951863 -50.804672 
L 313.174312 -50.804672 
L 313.396762 -50.804672 
L 313.619211 -50.804672 
L 313.841661 -50.798109 
L 314.06411 -50.798109 
L 314.28656 -50.798109 
L 314.509009 -50.798109 
L 314.731459 -50.798109 
L 314.953908 -50.798109 
L 315.176357 -50.798109 
L 315.398807 -50.798109 
L 315.621256 -50.798109 
L 315.843706 -50.798109 
L 316.066155 -50.79108 
L 316.288605 -50.79108 
L 316.511054 -50.79108 
L 316.733504 -50.79108 
L 316.955953 -50.79108 
L 317.178402 -50.79108 
L 317.400852 -50.79108 
L 317.623301 -50.79108 
L 317.845751 -50.79108 
L 318.0682 -50.79108 
L 318.29065 -50.79108 
L 318.513099 -50.79108 
L 318.735549 -50.785376 
L 318.957998 -50.785376 
L 319.180447 -50.785376 
L 319.402897 -50.785376 
L 319.625346 -50.785376 
L 319.847796 -50.785376 
L 320.070245 -50.785376 
L 320.292695 -50.785376 
L 320.515144 -50.785376 
L 320.737594 -50.785376 
L 320.960043 -50.785376 
L 321.182492 -50.785376 
L 321.404942 -50.773761 
L 321.627391 -50.773761 
L 321.849841 -50.773761 
L 322.07229 -50.773761 
L 322.29474 -50.773761 
L 322.517189 -50.773761 
L 322.739639 -50.773761 
L 322.962088 -50.773761 
L 323.184537 -50.773761 
L 323.406987 -50.773761 
L 323.629436 -50.773761 
L 323.851886 -50.773761 
L 324.074335 -50.764869 
L 324.296785 -50.764869 
L 324.519234 -50.764869 
L 324.741684 -50.764869 
L 324.964133 -50.764869 
L 325.186582 -50.764869 
L 325.409032 -50.764869 
L 325.631481 -50.764869 
L 325.853931 -50.764869 
L 326.07638 -50.764869 
L 326.29883 -50.764869 
L 326.521279 -50.764869 
L 326.743729 -50.764869 
L 326.966178 -50.764869 
L 327.188627 -50.764869 
L 327.411077 -50.764869 
L 327.633526 -50.764869 
L 327.855976 -50.761067 
L 328.078425 -50.761067 
L 328.300875 -50.761067 
L 328.523324 -50.761067 
L 328.745774 -50.761067 
L 328.968223 -50.761067 
L 329.190672 -50.761067 
L 329.413122 -50.761067 
L 329.635571 -50.761067 
L 329.858021 -50.761067 
L 330.08047 -50.761067 
L 330.30292 -50.761067 
L 330.525369 -50.761067 
L 330.747819 -50.761067 
L 330.970268 -50.761067 
L 331.192717 -50.756439 
L 331.415167 -50.756439 
L 331.637616 -50.738063 
L 331.860066 -50.738063 
L 332.082515 -50.738063 
L 332.304965 -50.738063 
L 332.527414 -50.738063 
L 332.749864 -50.738063 
L 332.972313 -50.738063 
L 333.194762 -50.738063 
L 333.417212 -50.738063 
L 333.639661 -50.738063 
L 333.862111 -50.738063 
L 334.08456 -50.738063 
L 334.30701 -50.738063 
L 334.529459 -50.738063 
L 334.751909 -50.738063 
L 334.974358 -50.738063 
L 335.196807 -50.738063 
L 335.419257 -50.738063 
L 335.641706 -50.738063 
L 335.864156 -50.738063 
L 336.086605 -50.738063 
L 336.309055 -50.738063 
L 336.531504 -50.717274 
L 336.753954 -50.717274 
L 336.976403 -50.707006 
L 337.198852 -50.707006 
L 337.421302 -50.707006 
L 337.643751 -50.707006 
L 337.866201 -50.707006 
L 338.08865 -50.707006 
L 338.3111 -50.707006 
L 338.533549 -50.707006 
L 338.755999 -50.707006 
L 338.978448 -50.707006 
L 339.200897 -50.707006 
L 339.423347 -50.707006 
L 339.645796 -50.707006 
L 339.868246 -50.707006 
L 340.090695 -50.707006 
L 340.313145 -50.707006 
L 340.535594 -50.699909 
L 340.758044 -50.699909 
L 340.980493 -50.699909 
L 341.202942 -50.699909 
L 341.425392 -50.699909 
L 341.647841 -50.699909 
L 341.870291 -50.699909 
L 342.09274 -50.699909 
L 342.31519 -50.699909 
L 342.537639 -50.671705 
L 342.760089 -50.671705 
L 342.982538 -50.671705 
L 343.204987 -50.671705 
L 343.427437 -50.671705 
L 343.649886 -50.671705 
L 343.649886 -50.795436 
L 343.649886 -50.795436 
L 343.427437 -50.795436 
L 343.204987 -50.795436 
L 342.982538 -50.795436 
L 342.760089 -50.795436 
L 342.537639 -50.795436 
L 342.31519 -50.827761 
L 342.09274 -50.827761 
L 341.870291 -50.827761 
L 341.647841 -50.827761 
L 341.425392 -50.827761 
L 341.202942 -50.827761 
L 340.980493 -50.827761 
L 340.758044 -50.827761 
L 340.535594 -50.827761 
L 340.313145 -50.845256 
L 340.090695 -50.845256 
L 339.868246 -50.845256 
L 339.645796 -50.845256 
L 339.423347 -50.845256 
L 339.200897 -50.845256 
L 338.978448 -50.845256 
L 338.755999 -50.845256 
L 338.533549 -50.845256 
L 338.3111 -50.845256 
L 338.08865 -50.845256 
L 337.866201 -50.845256 
L 337.643751 -50.845256 
L 337.421302 -50.845256 
L 337.198852 -50.845256 
L 336.976403 -50.845256 
L 336.753954 -50.853029 
L 336.531504 -50.853029 
L 336.309055 -50.922499 
L 336.086605 -50.922499 
L 335.864156 -50.922499 
L 335.641706 -50.922499 
L 335.419257 -50.922499 
L 335.196807 -50.922499 
L 334.974358 -50.922499 
L 334.751909 -50.922499 
L 334.529459 -50.922499 
L 334.30701 -50.922499 
L 334.08456 -50.922499 
L 333.862111 -50.922499 
L 333.639661 -50.922499 
L 333.417212 -50.922499 
L 333.194762 -50.922499 
L 332.972313 -50.922499 
L 332.749864 -50.922499 
L 332.527414 -50.922499 
L 332.304965 -50.922499 
L 332.082515 -50.922499 
L 331.860066 -50.922499 
L 331.637616 -50.922499 
L 331.415167 -50.938756 
L 331.192717 -50.938756 
L 330.970268 -50.944249 
L 330.747819 -50.944249 
L 330.525369 -50.944249 
L 330.30292 -50.944249 
L 330.08047 -50.944249 
L 329.858021 -50.944249 
L 329.635571 -50.944249 
L 329.413122 -50.944249 
L 329.190672 -50.944249 
L 328.968223 -50.944249 
L 328.745774 -50.944249 
L 328.523324 -50.944249 
L 328.300875 -50.944249 
L 328.078425 -50.944249 
L 327.855976 -50.944249 
L 327.633526 -50.949234 
L 327.411077 -50.949234 
L 327.188627 -50.949234 
L 326.966178 -50.949234 
L 326.743729 -50.949234 
L 326.521279 -50.949234 
L 326.29883 -50.949234 
L 326.07638 -50.949234 
L 325.853931 -50.949234 
L 325.631481 -50.949234 
L 325.409032 -50.949234 
L 325.186582 -50.949234 
L 324.964133 -50.949234 
L 324.741684 -50.949234 
L 324.519234 -50.949234 
L 324.296785 -50.949234 
L 324.074335 -50.949234 
L 323.851886 -50.962962 
L 323.629436 -50.962962 
L 323.406987 -50.962962 
L 323.184537 -50.962962 
L 322.962088 -50.962962 
L 322.739639 -50.962962 
L 322.517189 -50.962962 
L 322.29474 -50.962962 
L 322.07229 -50.962962 
L 321.849841 -50.962962 
L 321.627391 -50.962962 
L 321.404942 -50.962962 
L 321.182492 -50.975026 
L 320.960043 -50.975026 
L 320.737594 -50.975026 
L 320.515144 -50.975026 
L 320.292695 -50.975026 
L 320.070245 -50.975026 
L 319.847796 -50.975026 
L 319.625346 -50.975026 
L 319.402897 -50.975026 
L 319.180447 -50.975026 
L 318.957998 -50.975026 
L 318.735549 -50.975026 
L 318.513099 -50.980887 
L 318.29065 -50.980887 
L 318.0682 -50.980887 
L 317.845751 -50.980887 
L 317.623301 -50.980887 
L 317.400852 -50.980887 
L 317.178402 -50.980887 
L 316.955953 -50.980887 
L 316.733504 -50.980887 
L 316.511054 -50.980887 
L 316.288605 -50.980887 
L 316.066155 -50.980887 
L 315.843706 -50.994187 
L 315.621256 -50.994187 
L 315.398807 -50.994187 
L 315.176357 -50.994187 
L 314.953908 -50.994187 
L 314.731459 -50.994187 
L 314.509009 -50.994187 
L 314.28656 -50.994187 
L 314.06411 -50.994187 
L 313.841661 -50.994187 
L 313.619211 -51.004223 
L 313.396762 -51.004223 
L 313.174312 -51.004223 
L 312.951863 -51.004223 
L 312.729414 -51.004223 
L 312.506964 -51.004223 
L 312.284515 -51.004223 
L 312.062065 -51.004223 
L 311.839616 -51.004223 
L 311.617166 -51.004223 
L 311.394717 -51.004223 
L 311.172267 -51.004223 
L 310.949818 -51.004223 
L 310.727369 -51.004223 
L 310.504919 -51.004223 
L 310.28247 -51.004223 
L 310.06002 -51.018408 
L 309.837571 -51.018408 
L 309.615121 -51.018408 
L 309.392672 -51.018408 
L 309.170222 -51.018408 
L 308.947773 -51.018408 
L 308.725324 -51.018408 
L 308.502874 -51.018408 
L 308.280425 -51.018408 
L 308.057975 -51.018408 
L 307.835526 -51.018408 
L 307.613076 -51.018408 
L 307.390627 -51.018408 
L 307.168177 -51.018408 
L 306.945728 -51.018408 
L 306.723279 -51.018408 
L 306.500829 -51.03911 
L 306.27838 -51.03911 
L 306.05593 -51.03911 
L 305.833481 -51.03911 
L 305.611031 -51.03911 
L 305.388582 -51.03911 
L 305.166132 -51.03911 
L 304.943683 -51.03911 
L 304.721234 -51.03911 
L 304.498784 -51.03911 
L 304.276335 -51.040523 
L 304.053885 -51.040523 
L 303.831436 -51.040523 
L 303.608986 -51.040523 
L 303.386537 -51.040523 
L 303.164087 -51.040523 
L 302.941638 -51.040523 
L 302.719189 -51.040523 
L 302.496739 -51.040523 
L 302.27429 -51.040523 
L 302.05184 -51.040523 
L 301.829391 -51.040523 
L 301.606941 -51.040523 
L 301.384492 -51.040523 
L 301.162042 -51.096735 
L 300.939593 -51.096735 
L 300.717144 -51.096735 
L 300.494694 -51.096735 
L 300.272245 -51.096735 
L 300.049795 -51.096735 
L 299.827346 -51.096735 
L 299.604896 -51.096735 
L 299.382447 -51.096735 
L 299.159997 -51.096735 
L 298.937548 -51.096735 
L 298.715099 -51.096735 
L 298.492649 -51.096735 
L 298.2702 -51.096735 
L 298.04775 -51.153646 
L 297.825301 -51.153646 
L 297.602851 -51.153646 
L 297.380402 -51.153646 
L 297.157952 -51.304869 
L 296.935503 -51.304869 
L 296.713054 -51.304869 
L 296.490604 -51.304869 
L 296.268155 -51.304869 
L 296.045705 -51.386873 
L 295.823256 -51.386873 
L 295.600806 -51.386873 
L 295.378357 -51.386873 
L 295.155907 -51.386873 
L 294.933458 -51.386873 
L 294.711009 -51.386873 
L 294.488559 -51.386873 
L 294.26611 -51.386873 
L 294.04366 -51.386873 
L 293.821211 -51.386873 
L 293.598761 -51.386873 
L 293.376312 -51.386873 
L 293.153862 -51.414105 
L 292.931413 -51.414105 
L 292.708964 -51.414105 
L 292.486514 -51.414105 
L 292.264065 -51.414105 
L 292.041615 -51.414105 
L 291.819166 -51.414105 
L 291.596716 -51.414105 
L 291.374267 -51.414105 
L 291.151817 -51.414105 
L 290.929368 -51.469847 
L 290.706919 -51.469847 
L 290.484469 -51.469847 
L 290.26202 -51.469847 
L 290.03957 -51.469847 
L 289.817121 -51.469847 
L 289.594671 -51.469847 
L 289.372222 -51.469847 
L 289.149772 -51.469847 
L 288.927323 -51.469847 
L 288.704874 -51.469847 
L 288.482424 -51.469847 
L 288.259975 -51.469847 
L 288.037525 -51.469847 
L 287.815076 -51.469885 
L 287.592626 -51.469885 
L 287.370177 -51.469885 
L 287.147728 -51.469885 
L 286.925278 -51.469885 
L 286.702829 -51.474591 
L 286.480379 -51.474591 
L 286.25793 -51.474591 
L 286.03548 -51.474591 
L 285.813031 -51.474591 
L 285.590581 -51.474591 
L 285.368132 -51.474591 
L 285.145683 -51.474591 
L 284.923233 -51.474591 
L 284.700784 -51.474591 
L 284.478334 -51.474591 
L 284.255885 -51.474591 
L 284.033435 -51.474591 
L 283.810986 -51.474591 
L 283.588536 -51.474591 
L 283.366087 -51.489721 
L 283.143638 -51.489721 
L 282.921188 -51.489721 
L 282.698739 -51.489721 
L 282.476289 -51.489721 
L 282.25384 -51.489721 
L 282.03139 -51.489721 
L 281.808941 -51.494494 
L 281.586491 -51.494494 
L 281.364042 -51.494494 
L 281.141593 -51.494494 
L 280.919143 -51.494494 
L 280.696694 -51.494494 
L 280.474244 -51.494494 
L 280.251795 -51.501399 
L 280.029345 -51.501399 
L 279.806896 -51.501399 
L 279.584446 -51.501399 
L 279.361997 -51.501399 
L 279.139548 -51.501399 
L 278.917098 -51.519979 
L 278.694649 -51.519979 
L 278.472199 -51.519979 
L 278.24975 -51.519979 
L 278.0273 -51.519979 
L 277.804851 -51.616145 
L 277.582401 -51.617825 
L 277.359952 -51.617825 
L 277.137503 -51.617825 
L 276.915053 -51.617825 
L 276.692604 -51.617825 
L 276.470154 -51.617825 
L 276.247705 -51.617825 
L 276.025255 -51.617825 
L 275.802806 -51.617825 
L 275.580356 -51.617825 
L 275.357907 -51.627592 
L 275.135458 -51.627592 
L 274.913008 -51.627592 
L 274.690559 -51.627592 
L 274.468109 -51.627592 
L 274.24566 -51.627592 
L 274.02321 -51.969473 
L 273.800761 -51.969473 
L 273.578311 -51.969473 
L 273.355862 -51.969473 
L 273.133413 -51.969473 
L 272.910963 -51.969473 
L 272.688514 -51.969473 
L 272.466064 -51.969473 
L 272.243615 -51.969473 
L 272.021165 -51.969473 
L 271.798716 -51.972616 
L 271.576266 -51.972616 
L 271.353817 -51.972616 
L 271.131368 -51.982641 
L 270.908918 -51.982641 
L 270.686469 -51.982641 
L 270.464019 -51.982641 
L 270.24157 -51.982641 
L 270.01912 -51.982641 
L 269.796671 -51.983108 
L 269.574221 -54.983608 
L 269.351772 -54.983608 
L 269.129323 -54.983608 
L 268.906873 -54.983608 
L 268.684424 -54.983608 
L 268.461974 -54.983608 
L 268.239525 -54.983608 
L 268.017075 -54.983608 
L 267.794626 -55.006884 
L 267.572176 -55.006884 
L 267.349727 -55.047459 
L 267.127278 -55.047459 
L 266.904828 -55.047459 
L 266.682379 -55.048747 
L 266.459929 -55.048747 
L 266.23748 -55.048747 
L 266.01503 -55.048747 
L 265.792581 -55.048747 
L 265.570131 -55.048747 
L 265.347682 -55.048747 
L 265.125233 -55.048747 
L 264.902783 -55.048747 
L 264.680334 -55.048747 
L 264.457884 -55.048747 
L 264.235435 -55.048747 
L 264.012985 -55.048747 
L 263.790536 -55.048747 
L 263.568086 -55.048747 
L 263.345637 -55.050019 
L 263.123188 -55.05203 
L 262.900738 -55.05203 
L 262.678289 -55.05203 
L 262.455839 -55.05203 
L 262.23339 -55.05203 
L 262.01094 -55.05203 
L 261.788491 -55.05203 
L 261.566041 -55.05203 
L 261.343592 -55.05203 
L 261.121143 -55.05203 
L 260.898693 -55.05203 
L 260.676244 -55.05203 
L 260.453794 -55.05203 
L 260.231345 -55.14487 
L 260.008895 -55.14487 
L 259.786446 -55.374572 
L 259.563996 -55.374572 
L 259.341547 -55.374572 
L 259.119098 -55.374572 
L 258.896648 -55.374572 
L 258.674199 -55.374572 
L 258.451749 -55.374572 
L 258.2293 -55.374572 
L 258.00685 -55.374572 
L 257.784401 -55.374572 
L 257.561951 -55.374572 
L 257.339502 -55.374572 
L 257.117053 -55.374572 
L 256.894603 -55.374572 
L 256.672154 -55.398283 
L 256.449704 -55.398283 
L 256.227255 -55.398283 
L 256.004805 -55.398283 
L 255.782356 -55.398283 
L 255.559906 -55.398283 
L 255.337457 -55.398283 
L 255.115008 -55.398283 
L 254.892558 -55.398283 
L 254.670109 -55.398283 
L 254.447659 -55.483647 
L 254.22521 -55.483647 
L 254.00276 -55.483647 
L 253.780311 -55.521778 
L 253.557861 -55.521778 
L 253.335412 -55.521778 
L 253.112963 -55.521778 
L 252.890513 -55.521778 
L 252.668064 -55.521778 
L 252.445614 -55.521778 
L 252.223165 -55.624796 
L 252.000715 -55.624796 
L 251.778266 -55.624796 
L 251.555816 -55.626036 
L 251.333367 -55.626036 
L 251.110918 -55.626036 
L 250.888468 -55.626036 
L 250.666019 -55.626036 
L 250.443569 -55.626036 
L 250.22112 -55.626036 
L 249.99867 -55.626036 
L 249.776221 -55.626036 
L 249.553771 -55.626036 
L 249.331322 -55.626036 
L 249.108873 -55.626036 
L 248.886423 -55.626036 
L 248.663974 -55.626036 
L 248.441524 -55.626036 
L 248.219075 -56.458657 
L 247.996625 -56.458657 
L 247.774176 -56.458657 
L 247.551726 -56.458657 
L 247.329277 -56.587602 
L 247.106828 -56.587602 
L 246.884378 -56.587602 
L 246.661929 -56.587602 
L 246.439479 -57.454584 
L 246.21703 -57.472266 
L 245.99458 -57.472266 
L 245.772131 -57.472266 
L 245.549681 -57.472266 
L 245.327232 -57.472266 
L 245.104783 -57.483344 
L 244.882333 -57.483344 
L 244.659884 -57.483344 
L 244.437434 -57.483344 
L 244.214985 -57.483344 
L 243.992535 -57.599807 
L 243.770086 -57.878209 
L 243.547636 -57.957668 
L 243.325187 -58.255612 
L 243.102738 -58.255612 
L 242.880288 -58.879879 
L 242.657839 -58.879879 
L 242.435389 -58.879879 
L 242.21294 -58.879879 
L 241.99049 -58.879879 
L 241.768041 -58.881473 
L 241.545591 -58.903311 
L 241.323142 -58.903311 
L 241.100693 -59.299852 
L 240.878243 -59.299852 
L 240.655794 -59.299852 
L 240.433344 -59.299852 
L 240.210895 -59.414522 
L 239.988445 -59.414522 
L 239.765996 -59.414522 
L 239.543546 -59.801359 
L 239.321097 -59.801359 
L 239.098648 -59.837684 
L 238.876198 -59.837684 
L 238.653749 -59.9042 
L 238.431299 -61.894622 
L 238.20885 -61.894622 
L 237.9864 -62.066252 
L 237.763951 -62.066252 
L 237.541501 -62.073759 
L 237.319052 -62.073759 
L 237.096603 -62.738259 
L 236.874153 -63.17441 
L 236.651704 -63.17441 
L 236.429254 -63.17441 
L 236.206805 -63.8313 
L 235.984355 -63.861774 
L 235.761906 -64.098061 
L 235.539456 -65.614498 
L 235.317007 -66.033748 
L 235.094558 -66.033748 
L 234.872108 -66.738501 
L 234.649659 -67.728005 
L 234.427209 -67.728005 
L 234.20476 -68.080933 
L 233.98231 -69.433528 
L 233.759861 -69.433528 
L 233.537411 -70.401005 
L 233.314962 -70.401005 
L 233.092513 -73.116029 
L 232.870063 -76.455724 
L 232.647614 -163.555795 
z
" style="stroke: #1f77b4; stroke-opacity: 0.5"/>
    </defs>
    <g clip-path="url(#pe2e803057e)">
     <use xlink:href="#m84453389db" x="0" y="180" style="fill: #1f77b4; fill-opacity: 0.5; stroke: #1f77b4; stroke-opacity: 0.5"/>
    </g>
   </g>
   <g id="PolyCollection_2">
    <defs>
     <path id="m526dd2692e" d="M 232.647614 -163.555795 
L 232.647614 -163.555795 
L 232.870063 -67.07724 
L 233.092513 -67.07724 
L 233.314962 -65.403182 
L 233.537411 -65.403182 
L 233.759861 -65.399491 
L 233.98231 -65.394765 
L 234.20476 -63.145934 
L 234.427209 -63.145934 
L 234.649659 -61.359158 
L 234.872108 -61.359158 
L 235.094558 -61.355847 
L 235.317007 -61.355847 
L 235.539456 -61.170074 
L 235.761906 -61.170074 
L 235.984355 -61.170074 
L 236.206805 -61.170074 
L 236.429254 -61.170074 
L 236.651704 -61.153979 
L 236.874153 -61.114351 
L 237.096603 -61.114351 
L 237.319052 -61.042733 
L 237.541501 -60.147907 
L 237.763951 -59.627998 
L 237.9864 -59.627998 
L 238.20885 -59.402404 
L 238.431299 -59.018872 
L 238.653749 -59.018872 
L 238.876198 -59.018872 
L 239.098648 -59.018872 
L 239.321097 -59.018872 
L 239.543546 -58.816079 
L 239.765996 -58.816079 
L 239.988445 -58.45118 
L 240.210895 -58.45118 
L 240.433344 -58.437268 
L 240.655794 -58.437268 
L 240.878243 -58.426686 
L 241.100693 -58.426686 
L 241.323142 -58.106969 
L 241.545591 -58.106969 
L 241.768041 -57.906095 
L 241.99049 -57.906095 
L 242.21294 -56.809654 
L 242.435389 -56.809654 
L 242.657839 -56.809654 
L 242.880288 -56.809654 
L 243.102738 -56.737252 
L 243.325187 -56.737252 
L 243.547636 -56.737252 
L 243.770086 -56.737252 
L 243.992535 -56.737252 
L 244.214985 -56.737252 
L 244.437434 -56.731134 
L 244.659884 -56.728511 
L 244.882333 -56.728511 
L 245.104783 -56.728511 
L 245.327232 -56.46334 
L 245.549681 -56.46334 
L 245.772131 -56.246617 
L 245.99458 -56.145342 
L 246.21703 -55.973165 
L 246.439479 -55.973165 
L 246.661929 -55.973165 
L 246.884378 -55.973165 
L 247.106828 -55.973165 
L 247.329277 -55.973165 
L 247.551726 -55.950075 
L 247.774176 -55.950075 
L 247.996625 -55.950075 
L 248.219075 -55.950075 
L 248.441524 -55.950075 
L 248.663974 -55.950075 
L 248.886423 -55.950075 
L 249.108873 -55.950075 
L 249.331322 -55.950075 
L 249.553771 -55.950075 
L 249.776221 -55.950075 
L 249.99867 -55.950075 
L 250.22112 -55.950075 
L 250.443569 -55.950075 
L 250.666019 -55.950075 
L 250.888468 -55.950075 
L 251.110918 -55.950075 
L 251.333367 -55.950075 
L 251.555816 -55.950075 
L 251.778266 -55.950075 
L 252.000715 -55.950075 
L 252.223165 -55.950075 
L 252.445614 -55.950075 
L 252.668064 -55.948741 
L 252.890513 -55.828634 
L 253.112963 -55.828634 
L 253.335412 -55.339362 
L 253.557861 -55.339362 
L 253.780311 -55.321132 
L 254.00276 -55.321132 
L 254.22521 -55.173739 
L 254.447659 -55.173739 
L 254.670109 -55.120192 
L 254.892558 -55.120192 
L 255.115008 -54.936073 
L 255.337457 -54.910331 
L 255.559906 -54.192034 
L 255.782356 -54.192034 
L 256.004805 -54.192034 
L 256.227255 -54.192034 
L 256.449704 -54.192034 
L 256.672154 -54.192034 
L 256.894603 -54.139172 
L 257.117053 -54.139172 
L 257.339502 -54.139172 
L 257.561951 -54.139172 
L 257.784401 -54.139172 
L 258.00685 -54.108399 
L 258.2293 -54.108399 
L 258.451749 -54.108399 
L 258.674199 -54.108399 
L 258.896648 -54.108399 
L 259.119098 -54.108399 
L 259.341547 -54.108399 
L 259.563996 -54.108399 
L 259.786446 -54.108399 
L 260.008895 -54.108399 
L 260.231345 -54.108399 
L 260.453794 -54.108399 
L 260.676244 -54.108399 
L 260.898693 -54.108399 
L 261.121143 -54.108399 
L 261.343592 -53.888761 
L 261.566041 -53.888761 
L 261.788491 -53.888761 
L 262.01094 -53.888761 
L 262.23339 -53.888761 
L 262.455839 -53.888761 
L 262.678289 -53.888761 
L 262.900738 -53.888761 
L 263.123188 -53.888761 
L 263.345637 -53.888761 
L 263.568086 -53.888761 
L 263.790536 -53.888761 
L 264.012985 -53.888761 
L 264.235435 -53.877428 
L 264.457884 -53.332741 
L 264.680334 -53.332741 
L 264.902783 -53.332741 
L 265.125233 -53.332741 
L 265.347682 -53.225208 
L 265.570131 -53.225208 
L 265.792581 -53.112814 
L 266.01503 -53.112814 
L 266.23748 -53.112814 
L 266.459929 -53.112814 
L 266.682379 -53.096608 
L 266.904828 -53.096608 
L 267.127278 -52.990452 
L 267.349727 -52.990452 
L 267.572176 -52.990452 
L 267.794626 -52.990452 
L 268.017075 -52.990452 
L 268.239525 -52.990452 
L 268.461974 -52.990452 
L 268.684424 -52.990452 
L 268.906873 -52.876961 
L 269.129323 -52.876961 
L 269.351772 -52.876961 
L 269.574221 -52.876961 
L 269.796671 -52.876961 
L 270.01912 -52.876961 
L 270.24157 -52.876961 
L 270.464019 -52.876961 
L 270.686469 -52.876961 
L 270.908918 -52.876961 
L 271.131368 -52.876961 
L 271.353817 -52.876961 
L 271.576266 -52.876961 
L 271.798716 -52.844453 
L 272.021165 -52.842677 
L 272.243615 -52.842677 
L 272.466064 -52.842677 
L 272.688514 -52.842677 
L 272.910963 -52.842677 
L 273.133413 -52.842677 
L 273.355862 -52.842677 
L 273.578311 -52.842677 
L 273.800761 -52.842677 
L 274.02321 -52.842677 
L 274.24566 -52.842677 
L 274.468109 -52.842677 
L 274.690559 -52.842677 
L 274.913008 -52.842677 
L 275.135458 -52.842677 
L 275.357907 -52.842677 
L 275.580356 -52.789972 
L 275.802806 -52.789972 
L 276.025255 -52.774734 
L 276.247705 -52.774734 
L 276.470154 -52.772692 
L 276.692604 -52.772692 
L 276.915053 -52.772692 
L 277.137503 -52.772692 
L 277.359952 -52.772692 
L 277.582401 -52.772692 
L 277.804851 -52.772692 
L 278.0273 -52.772692 
L 278.24975 -52.772692 
L 278.472199 -52.772692 
L 278.694649 -52.772692 
L 278.917098 -52.772692 
L 279.139548 -52.772692 
L 279.361997 -52.772692 
L 279.584446 -52.772692 
L 279.806896 -52.772692 
L 280.029345 -52.772692 
L 280.251795 -52.772692 
L 280.474244 -52.738138 
L 280.696694 -52.738138 
L 280.919143 -52.738138 
L 281.141593 -52.738138 
L 281.364042 -52.738138 
L 281.586491 -52.738138 
L 281.808941 -52.738138 
L 282.03139 -52.738138 
L 282.25384 -52.738138 
L 282.476289 -52.738138 
L 282.698739 -52.738138 
L 282.921188 -52.738138 
L 283.143638 -52.738138 
L 283.366087 -52.738138 
L 283.588536 -52.738138 
L 283.810986 -52.738138 
L 284.033435 -52.735611 
L 284.255885 -52.728034 
L 284.478334 -52.728034 
L 284.700784 -52.728034 
L 284.923233 -52.728034 
L 285.145683 -52.728034 
L 285.368132 -52.728034 
L 285.590581 -52.728034 
L 285.813031 -52.728034 
L 286.03548 -52.728034 
L 286.25793 -52.728034 
L 286.480379 -52.728034 
L 286.702829 -52.728034 
L 286.925278 -52.728034 
L 287.147728 -52.728034 
L 287.370177 -52.728034 
L 287.592626 -52.716946 
L 287.815076 -52.716946 
L 288.037525 -52.714692 
L 288.259975 -52.714692 
L 288.482424 -52.400637 
L 288.704874 -52.400637 
L 288.927323 -52.400637 
L 289.149772 -52.400637 
L 289.372222 -52.400637 
L 289.594671 -52.392214 
L 289.817121 -52.392214 
L 290.03957 -52.392214 
L 290.26202 -52.392214 
L 290.484469 -52.36939 
L 290.706919 -52.36939 
L 290.929368 -52.36939 
L 291.151817 -52.36939 
L 291.374267 -52.36939 
L 291.596716 -52.36939 
L 291.819166 -52.36939 
L 292.041615 -52.36939 
L 292.264065 -52.36939 
L 292.486514 -52.36939 
L 292.708964 -52.36939 
L 292.931413 -52.36939 
L 293.153862 -52.36939 
L 293.376312 -52.36939 
L 293.598761 -52.36939 
L 293.821211 -52.36939 
L 294.04366 -52.36939 
L 294.26611 -52.36939 
L 294.488559 -52.36939 
L 294.711009 -52.36939 
L 294.933458 -52.36939 
L 295.155907 -52.36939 
L 295.378357 -52.36939 
L 295.600806 -52.36939 
L 295.823256 -52.36939 
L 296.045705 -52.36939 
L 296.268155 -52.36939 
L 296.490604 -52.36939 
L 296.713054 -52.36939 
L 296.935503 -52.36939 
L 297.157952 -52.36939 
L 297.380402 -52.36939 
L 297.602851 -52.36939 
L 297.825301 -52.36939 
L 298.04775 -52.367373 
L 298.2702 -52.367373 
L 298.492649 -52.367373 
L 298.715099 -52.367373 
L 298.937548 -52.367373 
L 299.159997 -52.367373 
L 299.382447 -52.367373 
L 299.604896 -52.367373 
L 299.827346 -52.367373 
L 300.049795 -52.364898 
L 300.272245 -52.364898 
L 300.494694 -52.364898 
L 300.717144 -52.364898 
L 300.939593 -51.559821 
L 301.162042 -51.559821 
L 301.384492 -51.559821 
L 301.606941 -51.559821 
L 301.829391 -51.559821 
L 302.05184 -51.559821 
L 302.27429 -51.559821 
L 302.496739 -51.559821 
L 302.719189 -51.559821 
L 302.941638 -51.559821 
L 303.164087 -51.559821 
L 303.386537 -51.559821 
L 303.608986 -51.559821 
L 303.831436 -51.559821 
L 304.053885 -51.522885 
L 304.276335 -51.522885 
L 304.498784 -51.522885 
L 304.721234 -51.522885 
L 304.943683 -51.427829 
L 305.166132 -51.427829 
L 305.388582 -51.427829 
L 305.611031 -51.427829 
L 305.833481 -51.427829 
L 306.05593 -51.427829 
L 306.27838 -51.427829 
L 306.500829 -51.427829 
L 306.723279 -51.427829 
L 306.945728 -51.427003 
L 307.168177 -51.427003 
L 307.390627 -51.427003 
L 307.613076 -51.427003 
L 307.835526 -51.427003 
L 308.057975 -51.427003 
L 308.280425 -51.427003 
L 308.502874 -51.427003 
L 308.725324 -51.263613 
L 308.947773 -51.263613 
L 309.170222 -51.263613 
L 309.392672 -51.263613 
L 309.615121 -51.263613 
L 309.837571 -51.253238 
L 310.06002 -51.233558 
L 310.28247 -51.21402 
L 310.504919 -51.21402 
L 310.727369 -51.200133 
L 310.949818 -51.200133 
L 311.172267 -51.200133 
L 311.394717 -51.200133 
L 311.617166 -51.200133 
L 311.839616 -51.200133 
L 312.062065 -51.200133 
L 312.284515 -51.200133 
L 312.506964 -51.197885 
L 312.729414 -51.197885 
L 312.951863 -51.197885 
L 313.174312 -51.197885 
L 313.396762 -51.197885 
L 313.619211 -51.197885 
L 313.841661 -51.197885 
L 314.06411 -51.197885 
L 314.28656 -51.197885 
L 314.509009 -51.197885 
L 314.731459 -51.197885 
L 314.953908 -51.197885 
L 315.176357 -51.197885 
L 315.398807 -51.197885 
L 315.621256 -51.197885 
L 315.843706 -51.197885 
L 316.066155 -51.197885 
L 316.288605 -51.197885 
L 316.511054 -51.197885 
L 316.733504 -51.197885 
L 316.955953 -51.197885 
L 317.178402 -51.197885 
L 317.400852 -51.197885 
L 317.623301 -51.197885 
L 317.845751 -51.197885 
L 318.0682 -51.142543 
L 318.29065 -51.121982 
L 318.513099 -51.121982 
L 318.735549 -51.121982 
L 318.957998 -51.121982 
L 319.180447 -51.121982 
L 319.402897 -51.121982 
L 319.625346 -51.121982 
L 319.847796 -51.121982 
L 320.070245 -51.121982 
L 320.292695 -51.121982 
L 320.515144 -51.121982 
L 320.737594 -51.121982 
L 320.960043 -51.121982 
L 321.182492 -51.121982 
L 321.404942 -51.121982 
L 321.627391 -51.121982 
L 321.849841 -51.121982 
L 322.07229 -51.121982 
L 322.29474 -51.121982 
L 322.517189 -51.121982 
L 322.739639 -51.121982 
L 322.962088 -51.087221 
L 323.184537 -51.087221 
L 323.406987 -51.087221 
L 323.629436 -51.087221 
L 323.851886 -51.087221 
L 324.074335 -51.087221 
L 324.296785 -51.087221 
L 324.519234 -51.087221 
L 324.741684 -51.087221 
L 324.964133 -51.087221 
L 325.186582 -51.087221 
L 325.409032 -51.087221 
L 325.631481 -51.087221 
L 325.853931 -51.087221 
L 326.07638 -51.087221 
L 326.29883 -51.087221 
L 326.521279 -51.087221 
L 326.743729 -51.087221 
L 326.966178 -51.087221 
L 327.188627 -51.045484 
L 327.411077 -51.045484 
L 327.633526 -51.045484 
L 327.855976 -51.045484 
L 328.078425 -51.045484 
L 328.300875 -51.045484 
L 328.523324 -51.045484 
L 328.745774 -51.045484 
L 328.968223 -51.045484 
L 329.190672 -51.045484 
L 329.413122 -51.045484 
L 329.635571 -51.045484 
L 329.858021 -51.045484 
L 330.08047 -51.045484 
L 330.30292 -51.045484 
L 330.525369 -51.045484 
L 330.747819 -51.045484 
L 330.970268 -51.045484 
L 331.192717 -51.045484 
L 331.415167 -51.045484 
L 331.637616 -51.045484 
L 331.860066 -51.045484 
L 332.082515 -51.045484 
L 332.304965 -51.045484 
L 332.527414 -51.045484 
L 332.749864 -51.045484 
L 332.972313 -51.045484 
L 333.194762 -51.045484 
L 333.417212 -51.045484 
L 333.639661 -51.045484 
L 333.862111 -51.045484 
L 334.08456 -51.045484 
L 334.30701 -51.045484 
L 334.529459 -51.045484 
L 334.751909 -51.045484 
L 334.974358 -51.045484 
L 335.196807 -51.045484 
L 335.419257 -51.008386 
L 335.641706 -50.971466 
L 335.864156 -50.971466 
L 336.086605 -50.971466 
L 336.309055 -50.971466 
L 336.531504 -50.971466 
L 336.753954 -50.971466 
L 336.976403 -50.971466 
L 337.198852 -50.971466 
L 337.421302 -50.971466 
L 337.643751 -50.971466 
L 337.866201 -50.971466 
L 338.08865 -50.971466 
L 338.3111 -50.971466 
L 338.533549 -50.971466 
L 338.755999 -50.971466 
L 338.978448 -50.971466 
L 339.200897 -50.971466 
L 339.423347 -50.971466 
L 339.645796 -50.971466 
L 339.868246 -50.971466 
L 340.090695 -50.971466 
L 340.313145 -50.971466 
L 340.535594 -50.971466 
L 340.758044 -50.971466 
L 340.980493 -50.971466 
L 341.202942 -50.971466 
L 341.425392 -50.971466 
L 341.647841 -50.971466 
L 341.870291 -50.971466 
L 342.09274 -50.971466 
L 342.31519 -50.971466 
L 342.537639 -50.971466 
L 342.760089 -50.956813 
L 342.982538 -50.956813 
L 343.204987 -50.956813 
L 343.427437 -50.956813 
L 343.649886 -50.956813 
L 343.649886 -54.648674 
L 343.649886 -54.648674 
L 343.427437 -54.648674 
L 343.204987 -54.648674 
L 342.982538 -54.648674 
L 342.760089 -54.648674 
L 342.537639 -54.66232 
L 342.31519 -54.66232 
L 342.09274 -54.66232 
L 341.870291 -54.66232 
L 341.647841 -54.66232 
L 341.425392 -54.66232 
L 341.202942 -54.66232 
L 340.980493 -54.66232 
L 340.758044 -54.66232 
L 340.535594 -54.66232 
L 340.313145 -54.66232 
L 340.090695 -54.66232 
L 339.868246 -54.66232 
L 339.645796 -54.66232 
L 339.423347 -54.66232 
L 339.200897 -54.66232 
L 338.978448 -54.66232 
L 338.755999 -54.66232 
L 338.533549 -54.66232 
L 338.3111 -54.66232 
L 338.08865 -54.66232 
L 337.866201 -54.66232 
L 337.643751 -54.66232 
L 337.421302 -54.66232 
L 337.198852 -54.66232 
L 336.976403 -54.66232 
L 336.753954 -54.66232 
L 336.531504 -54.66232 
L 336.309055 -54.66232 
L 336.086605 -54.66232 
L 335.864156 -54.66232 
L 335.641706 -54.66232 
L 335.419257 -54.697647 
L 335.196807 -54.734531 
L 334.974358 -54.734531 
L 334.751909 -54.734531 
L 334.529459 -54.734531 
L 334.30701 -54.734531 
L 334.08456 -54.734531 
L 333.862111 -54.734531 
L 333.639661 -54.734531 
L 333.417212 -54.734531 
L 333.194762 -54.734531 
L 332.972313 -54.734531 
L 332.749864 -54.734531 
L 332.527414 -54.734531 
L 332.304965 -54.734531 
L 332.082515 -54.734531 
L 331.860066 -54.734531 
L 331.637616 -54.734531 
L 331.415167 -54.734531 
L 331.192717 -54.734531 
L 330.970268 -54.734531 
L 330.747819 -54.734531 
L 330.525369 -54.734531 
L 330.30292 -54.734531 
L 330.08047 -54.734531 
L 329.858021 -54.734531 
L 329.635571 -54.734531 
L 329.413122 -54.734531 
L 329.190672 -54.734531 
L 328.968223 -54.734531 
L 328.745774 -54.734531 
L 328.523324 -54.734531 
L 328.300875 -54.734531 
L 328.078425 -54.734531 
L 327.855976 -54.734531 
L 327.633526 -54.734531 
L 327.411077 -54.734531 
L 327.188627 -54.734531 
L 326.966178 -54.774166 
L 326.743729 -54.774166 
L 326.521279 -54.774166 
L 326.29883 -54.774166 
L 326.07638 -54.774166 
L 325.853931 -54.774166 
L 325.631481 -54.774166 
L 325.409032 -54.774166 
L 325.186582 -54.774166 
L 324.964133 -54.774166 
L 324.741684 -54.774166 
L 324.519234 -54.774166 
L 324.296785 -54.774166 
L 324.074335 -54.774166 
L 323.851886 -54.774166 
L 323.629436 -54.774166 
L 323.406987 -54.774166 
L 323.184537 -54.774166 
L 322.962088 -54.774166 
L 322.739639 -54.808834 
L 322.517189 -54.808834 
L 322.29474 -54.808834 
L 322.07229 -54.808834 
L 321.849841 -54.808834 
L 321.627391 -54.808834 
L 321.404942 -54.808834 
L 321.182492 -54.808834 
L 320.960043 -54.808834 
L 320.737594 -54.808834 
L 320.515144 -54.808834 
L 320.292695 -54.808834 
L 320.070245 -54.808834 
L 319.847796 -54.808834 
L 319.625346 -54.808834 
L 319.402897 -54.808834 
L 319.180447 -54.808834 
L 318.957998 -54.808834 
L 318.735549 -54.808834 
L 318.513099 -54.808834 
L 318.29065 -54.808834 
L 318.0682 -54.829848 
L 317.845751 -54.888766 
L 317.623301 -54.888766 
L 317.400852 -54.888766 
L 317.178402 -54.888766 
L 316.955953 -54.888766 
L 316.733504 -54.888766 
L 316.511054 -54.888766 
L 316.288605 -54.888766 
L 316.066155 -54.888766 
L 315.843706 -54.888766 
L 315.621256 -54.888766 
L 315.398807 -54.888766 
L 315.176357 -54.888766 
L 314.953908 -54.888766 
L 314.731459 -54.888766 
L 314.509009 -54.888766 
L 314.28656 -54.888766 
L 314.06411 -54.888766 
L 313.841661 -54.888766 
L 313.619211 -54.888766 
L 313.396762 -54.888766 
L 313.174312 -54.888766 
L 312.951863 -54.888766 
L 312.729414 -54.888766 
L 312.506964 -54.888766 
L 312.284515 -54.890837 
L 312.062065 -54.890837 
L 311.839616 -54.890837 
L 311.617166 -54.890837 
L 311.394717 -54.890837 
L 311.172267 -54.890837 
L 310.949818 -54.890837 
L 310.727369 -54.890837 
L 310.504919 -54.903506 
L 310.28247 -54.903506 
L 310.06002 -54.921877 
L 309.837571 -54.940034 
L 309.615121 -54.949567 
L 309.392672 -54.949567 
L 309.170222 -54.949567 
L 308.947773 -54.949567 
L 308.725324 -54.949567 
L 308.502874 -55.146044 
L 308.280425 -55.146044 
L 308.057975 -55.146044 
L 307.835526 -55.146044 
L 307.613076 -55.146044 
L 307.390627 -55.146044 
L 307.168177 -55.146044 
L 306.945728 -55.146044 
L 306.723279 -55.146807 
L 306.500829 -55.146807 
L 306.27838 -55.146807 
L 306.05593 -55.146807 
L 305.833481 -55.146807 
L 305.611031 -55.146807 
L 305.388582 -55.146807 
L 305.166132 -55.146807 
L 304.943683 -55.146807 
L 304.721234 -55.280004 
L 304.498784 -55.280004 
L 304.276335 -55.280004 
L 304.053885 -55.280004 
L 303.831436 -55.317647 
L 303.608986 -55.317647 
L 303.386537 -55.317647 
L 303.164087 -55.317647 
L 302.941638 -55.317647 
L 302.719189 -55.317647 
L 302.496739 -55.317647 
L 302.27429 -55.317647 
L 302.05184 -55.317647 
L 301.829391 -55.317647 
L 301.606941 -55.317647 
L 301.384492 -55.317647 
L 301.162042 -55.317647 
L 300.939593 -55.317647 
L 300.717144 -57.476418 
L 300.494694 -57.476418 
L 300.272245 -57.476418 
L 300.049795 -57.476418 
L 299.827346 -57.478985 
L 299.604896 -57.478985 
L 299.382447 -57.478985 
L 299.159997 -57.478985 
L 298.937548 -57.478985 
L 298.715099 -57.478985 
L 298.492649 -57.478985 
L 298.2702 -57.478985 
L 298.04775 -57.478985 
L 297.825301 -57.480798 
L 297.602851 -57.480798 
L 297.380402 -57.480798 
L 297.157952 -57.480798 
L 296.935503 -57.480798 
L 296.713054 -57.480798 
L 296.490604 -57.480798 
L 296.268155 -57.480798 
L 296.045705 -57.480798 
L 295.823256 -57.480798 
L 295.600806 -57.480798 
L 295.378357 -57.480798 
L 295.155907 -57.480798 
L 294.933458 -57.480798 
L 294.711009 -57.480798 
L 294.488559 -57.480798 
L 294.26611 -57.480798 
L 294.04366 -57.480798 
L 293.821211 -57.480798 
L 293.598761 -57.480798 
L 293.376312 -57.480798 
L 293.153862 -57.480798 
L 292.931413 -57.480798 
L 292.708964 -57.480798 
L 292.486514 -57.480798 
L 292.264065 -57.480798 
L 292.041615 -57.480798 
L 291.819166 -57.480798 
L 291.596716 -57.480798 
L 291.374267 -57.480798 
L 291.151817 -57.480798 
L 290.929368 -57.480798 
L 290.706919 -57.480798 
L 290.484469 -57.480798 
L 290.26202 -57.50169 
L 290.03957 -57.50169 
L 289.817121 -57.50169 
L 289.594671 -57.50169 
L 289.372222 -57.509342 
L 289.149772 -57.509342 
L 288.927323 -57.509342 
L 288.704874 -57.509342 
L 288.482424 -57.509342 
L 288.259975 -57.879973 
L 288.037525 -57.879973 
L 287.815076 -57.891354 
L 287.592626 -57.891354 
L 287.370177 -57.901193 
L 287.147728 -57.901193 
L 286.925278 -57.901193 
L 286.702829 -57.901193 
L 286.480379 -57.901193 
L 286.25793 -57.901193 
L 286.03548 -57.901193 
L 285.813031 -57.901193 
L 285.590581 -57.901193 
L 285.368132 -57.901193 
L 285.145683 -57.901193 
L 284.923233 -57.901193 
L 284.700784 -57.901193 
L 284.478334 -57.901193 
L 284.255885 -57.901193 
L 284.033435 -57.907939 
L 283.810986 -57.91021 
L 283.588536 -57.91021 
L 283.366087 -57.91021 
L 283.143638 -57.91021 
L 282.921188 -57.91021 
L 282.698739 -57.91021 
L 282.476289 -57.91021 
L 282.25384 -57.91021 
L 282.03139 -57.91021 
L 281.808941 -57.91021 
L 281.586491 -57.91021 
L 281.364042 -57.91021 
L 281.141593 -57.91021 
L 280.919143 -57.91021 
L 280.696694 -57.91021 
L 280.474244 -57.91021 
L 280.251795 -57.94167 
L 280.029345 -57.94167 
L 279.806896 -57.94167 
L 279.584446 -57.94167 
L 279.361997 -57.94167 
L 279.139548 -57.94167 
L 278.917098 -57.94167 
L 278.694649 -57.94167 
L 278.472199 -57.94167 
L 278.24975 -57.94167 
L 278.0273 -57.94167 
L 277.804851 -57.94167 
L 277.582401 -57.94167 
L 277.359952 -57.94167 
L 277.137503 -57.94167 
L 276.915053 -57.94167 
L 276.692604 -57.94167 
L 276.470154 -57.94167 
L 276.247705 -57.943472 
L 276.025255 -57.943472 
L 275.802806 -57.957326 
L 275.580356 -57.957326 
L 275.357907 -58.005567 
L 275.135458 -58.005567 
L 274.913008 -58.005567 
L 274.690559 -58.005567 
L 274.468109 -58.005567 
L 274.24566 -58.005567 
L 274.02321 -58.005567 
L 273.800761 -58.005567 
L 273.578311 -58.005567 
L 273.355862 -58.005567 
L 273.133413 -58.005567 
L 272.910963 -58.005567 
L 272.688514 -58.005567 
L 272.466064 -58.005567 
L 272.243615 -58.005567 
L 272.021165 -58.005567 
L 271.798716 -58.007135 
L 271.576266 -58.036737 
L 271.353817 -58.036737 
L 271.131368 -58.036737 
L 270.908918 -58.036737 
L 270.686469 -58.036737 
L 270.464019 -58.036737 
L 270.24157 -58.036737 
L 270.01912 -58.036737 
L 269.796671 -58.036737 
L 269.574221 -58.036737 
L 269.351772 -58.036737 
L 269.129323 -58.036737 
L 268.906873 -58.036737 
L 268.684424 -58.147447 
L 268.461974 -58.147447 
L 268.239525 -58.147447 
L 268.017075 -58.147447 
L 267.794626 -58.147447 
L 267.572176 -58.147447 
L 267.349727 -58.147447 
L 267.127278 -58.147447 
L 266.904828 -58.295909 
L 266.682379 -58.295909 
L 266.459929 -58.310189 
L 266.23748 -58.310189 
L 266.01503 -58.310189 
L 265.792581 -58.310189 
L 265.570131 -58.417174 
L 265.347682 -58.417174 
L 265.125233 -58.517987 
L 264.902783 -58.517987 
L 264.680334 -58.517987 
L 264.457884 -58.517987 
L 264.235435 -59.117832 
L 264.012985 -59.129136 
L 263.790536 -59.129136 
L 263.568086 -59.129136 
L 263.345637 -59.129136 
L 263.123188 -59.129136 
L 262.900738 -59.129136 
L 262.678289 -59.129136 
L 262.455839 -59.129136 
L 262.23339 -59.129136 
L 262.01094 -59.129136 
L 261.788491 -59.129136 
L 261.566041 -59.129136 
L 261.343592 -59.129136 
L 261.121143 -59.332846 
L 260.898693 -59.332846 
L 260.676244 -59.332846 
L 260.453794 -59.332846 
L 260.231345 -59.332846 
L 260.008895 -59.332846 
L 259.786446 -59.332846 
L 259.563996 -59.332846 
L 259.341547 -59.332846 
L 259.119098 -59.332846 
L 258.896648 -59.332846 
L 258.674199 -59.332846 
L 258.451749 -59.332846 
L 258.2293 -59.332846 
L 258.00685 -59.332846 
L 257.784401 -59.36062 
L 257.561951 -59.36062 
L 257.339502 -59.36062 
L 257.117053 -59.36062 
L 256.894603 -59.36062 
L 256.672154 -59.429473 
L 256.449704 -59.429473 
L 256.227255 -59.429473 
L 256.004805 -59.429473 
L 255.782356 -59.429473 
L 255.559906 -59.429473 
L 255.337457 -60.435465 
L 255.115008 -60.458747 
L 254.892558 -60.660674 
L 254.670109 -60.660674 
L 254.447659 -60.773287 
L 254.22521 -60.773287 
L 254.00276 -60.904795 
L 253.780311 -60.904795 
L 253.557861 -60.920673 
L 253.335412 -60.920673 
L 253.112963 -61.955627 
L 252.890513 -61.955627 
L 252.668064 -62.067366 
L 252.445614 -62.068599 
L 252.223165 -62.068599 
L 252.000715 -62.068599 
L 251.778266 -62.068599 
L 251.555816 -62.068599 
L 251.333367 -62.068599 
L 251.110918 -62.068599 
L 250.888468 -62.068599 
L 250.666019 -62.068599 
L 250.443569 -62.068599 
L 250.22112 -62.068599 
L 249.99867 -62.068599 
L 249.776221 -62.068599 
L 249.553771 -62.068599 
L 249.331322 -62.068599 
L 249.108873 -62.068599 
L 248.886423 -62.068599 
L 248.663974 -62.068599 
L 248.441524 -62.068599 
L 248.219075 -62.068599 
L 247.996625 -62.068599 
L 247.774176 -62.068599 
L 247.551726 -62.068599 
L 247.329277 -62.088395 
L 247.106828 -62.088395 
L 246.884378 -62.088395 
L 246.661929 -62.088395 
L 246.439479 -62.088395 
L 246.21703 -62.088395 
L 245.99458 -62.338871 
L 245.772131 -62.439265 
L 245.549681 -62.724613 
L 245.327232 -62.724613 
L 245.104783 -62.975382 
L 244.882333 -62.975382 
L 244.659884 -62.975382 
L 244.437434 -62.978337 
L 244.214985 -62.983408 
L 243.992535 -62.983408 
L 243.770086 -62.983408 
L 243.547636 -62.983408 
L 243.325187 -62.983408 
L 243.102738 -62.983408 
L 242.880288 -63.057303 
L 242.657839 -63.057303 
L 242.435389 -63.057303 
L 242.21294 -63.057303 
L 241.99049 -64.498004 
L 241.768041 -64.498004 
L 241.545591 -64.675247 
L 241.323142 -64.675247 
L 241.100693 -65.3736 
L 240.878243 -65.3736 
L 240.655794 -65.382188 
L 240.433344 -65.382188 
L 240.210895 -65.393465 
L 239.988445 -65.393465 
L 239.765996 -65.78214 
L 239.543546 -65.78214 
L 239.321097 -65.979735 
L 239.098648 -65.979735 
L 238.876198 -65.979735 
L 238.653749 -65.979735 
L 238.431299 -65.979735 
L 238.20885 -66.434025 
L 237.9864 -66.674371 
L 237.763951 -66.674371 
L 237.541501 -67.625242 
L 237.319052 -69.186024 
L 237.096603 -69.266135 
L 236.874153 -69.266135 
L 236.651704 -69.335608 
L 236.429254 -69.353034 
L 236.206805 -69.353034 
L 235.984355 -69.353034 
L 235.761906 -69.353034 
L 235.539456 -69.353034 
L 235.317007 -69.823596 
L 235.094558 -69.823596 
L 234.872108 -69.830119 
L 234.649659 -69.830119 
L 234.427209 -72.071516 
L 234.20476 -72.071516 
L 233.98231 -75.569325 
L 233.759861 -75.587344 
L 233.537411 -75.593387 
L 233.314962 -75.593387 
L 233.092513 -77.703478 
L 232.870063 -77.703478 
L 232.647614 -163.555795 
z
" style="stroke: #ff7f0e; stroke-opacity: 0.5"/>
    </defs>
    <g clip-path="url(#pe2e803057e)">
     <use xlink:href="#m526dd2692e" x="0" y="180" style="fill: #ff7f0e; fill-opacity: 0.5; stroke: #ff7f0e; stroke-opacity: 0.5"/>
    </g>
   </g>
   <g id="matplotlib.axis_3">
    <g id="xtick_4">
     <g id="line2d_11">
      <g>
       <use xlink:href="#m8bad25b309" x="232.425164" y="134.9725" style="stroke: #000000; stroke-width: 0.8"/>
      </g>
     </g>
     <g id="text_12">
      <!-- 0 -->
      <g transform="translate(228.607664 151.090625)scale(0.12 -0.12)">
       <use xlink:href="#DejaVuSans-30"/>
      </g>
     </g>
    </g>
    <g id="xtick_5">
     <g id="line2d_12">
      <g>
       <use xlink:href="#m8bad25b309" x="276.915053" y="134.9725" style="stroke: #000000; stroke-width: 0.8"/>
      </g>
     </g>
     <g id="text_13">
      <!-- 200 -->
      <g transform="translate(265.462553 151.090625)scale(0.12 -0.12)">
       <use xlink:href="#DejaVuSans-32"/>
       <use xlink:href="#DejaVuSans-30" x="63.623047"/>
       <use xlink:href="#DejaVuSans-30" x="127.246094"/>
      </g>
     </g>
    </g>
    <g id="xtick_6">
     <g id="line2d_13">
      <g>
       <use xlink:href="#m8bad25b309" x="321.404942" y="134.9725" style="stroke: #000000; stroke-width: 0.8"/>
      </g>
     </g>
     <g id="text_14">
      <!-- 400 -->
      <g transform="translate(309.952442 151.090625)scale(0.12 -0.12)">
       <use xlink:href="#DejaVuSans-34"/>
       <use xlink:href="#DejaVuSans-30" x="63.623047"/>
       <use xlink:href="#DejaVuSans-30" x="127.246094"/>
      </g>
     </g>
    </g>
    <g id="text_15">
     <!-- Epoch -->
     <g transform="translate(269.775625 166.704375)scale(0.12 -0.12)">
      <use xlink:href="#DejaVuSans-45"/>
      <use xlink:href="#DejaVuSans-70" x="63.183594"/>
      <use xlink:href="#DejaVuSans-6f" x="126.660156"/>
      <use xlink:href="#DejaVuSans-63" x="187.841797"/>
      <use xlink:href="#DejaVuSans-68" x="242.822266"/>
     </g>
    </g>
   </g>
   <g id="matplotlib.axis_4">
    <g id="ytick_7">
     <g id="line2d_14">
      <g>
       <use xlink:href="#md79e7bac6a" x="227.0975" y="129.702842" style="stroke: #000000; stroke-width: 0.8"/>
      </g>
     </g>
     <g id="text_16">
      <!-- 0.0 -->
      <g transform="translate(201.01375 134.261904)scale(0.12 -0.12)">
       <use xlink:href="#DejaVuSans-30"/>
       <use xlink:href="#DejaVuSans-2e" x="63.623047"/>
       <use xlink:href="#DejaVuSans-30" x="95.410156"/>
      </g>
     </g>
    </g>
    <g id="ytick_8">
     <g id="line2d_15">
      <g>
       <use xlink:href="#md79e7bac6a" x="227.0975" y="107.051115" style="stroke: #000000; stroke-width: 0.8"/>
      </g>
     </g>
     <g id="text_17">
      <!-- 0.2 -->
      <g transform="translate(201.01375 111.610177)scale(0.12 -0.12)">
       <use xlink:href="#DejaVuSans-30"/>
       <use xlink:href="#DejaVuSans-2e" x="63.623047"/>
       <use xlink:href="#DejaVuSans-32" x="95.410156"/>
      </g>
     </g>
    </g>
    <g id="ytick_9">
     <g id="line2d_16">
      <g>
       <use xlink:href="#md79e7bac6a" x="227.0975" y="84.399387" style="stroke: #000000; stroke-width: 0.8"/>
      </g>
     </g>
     <g id="text_18">
      <!-- 0.4 -->
      <g transform="translate(201.01375 88.95845)scale(0.12 -0.12)">
       <use xlink:href="#DejaVuSans-30"/>
       <use xlink:href="#DejaVuSans-2e" x="63.623047"/>
       <use xlink:href="#DejaVuSans-34" x="95.410156"/>
      </g>
     </g>
    </g>
    <g id="ytick_10">
     <g id="line2d_17">
      <g>
       <use xlink:href="#md79e7bac6a" x="227.0975" y="61.74766" style="stroke: #000000; stroke-width: 0.8"/>
      </g>
     </g>
     <g id="text_19">
      <!-- 0.6 -->
      <g transform="translate(201.01375 66.306722)scale(0.12 -0.12)">
       <use xlink:href="#DejaVuSans-30"/>
       <use xlink:href="#DejaVuSans-2e" x="63.623047"/>
       <use xlink:href="#DejaVuSans-36" x="95.410156"/>
      </g>
     </g>
    </g>
    <g id="ytick_11">
     <g id="line2d_18">
      <g>
       <use xlink:href="#md79e7bac6a" x="227.0975" y="39.095932" style="stroke: #000000; stroke-width: 0.8"/>
      </g>
     </g>
     <g id="text_20">
      <!-- 0.8 -->
      <g transform="translate(201.01375 43.654995)scale(0.12 -0.12)">
       <use xlink:href="#DejaVuSans-30"/>
       <use xlink:href="#DejaVuSans-2e" x="63.623047"/>
       <use xlink:href="#DejaVuSans-38" x="95.410156"/>
      </g>
     </g>
    </g>
    <g id="ytick_12">
     <g id="line2d_19">
      <g>
       <use xlink:href="#md79e7bac6a" x="227.0975" y="16.444205" style="stroke: #000000; stroke-width: 0.8"/>
      </g>
     </g>
     <g id="text_21">
      <!-- 1.0 -->
      <g transform="translate(201.01375 21.003267)scale(0.12 -0.12)">
       <use xlink:href="#DejaVuSans-31"/>
       <use xlink:href="#DejaVuSans-2e" x="63.623047"/>
       <use xlink:href="#DejaVuSans-30" x="95.410156"/>
      </g>
     </g>
    </g>
    <g id="text_22">
     <!-- Loss (1-R) -->
     <g transform="translate(194.518125 102.786875)rotate(-90)scale(0.12 -0.12)">
      <defs>
       <path id="DejaVuSans-4c" d="M 628 4666 
L 1259 4666 
L 1259 531 
L 3531 531 
L 3531 0 
L 628 0 
L 628 4666 
z
" transform="scale(0.015625)"/>
       <path id="DejaVuSans-73" d="M 2834 3397 
L 2834 2853 
Q 2591 2978 2328 3040 
Q 2066 3103 1784 3103 
Q 1356 3103 1142 2972 
Q 928 2841 928 2578 
Q 928 2378 1081 2264 
Q 1234 2150 1697 2047 
L 1894 2003 
Q 2506 1872 2764 1633 
Q 3022 1394 3022 966 
Q 3022 478 2636 193 
Q 2250 -91 1575 -91 
Q 1294 -91 989 -36 
Q 684 19 347 128 
L 347 722 
Q 666 556 975 473 
Q 1284 391 1588 391 
Q 1994 391 2212 530 
Q 2431 669 2431 922 
Q 2431 1156 2273 1281 
Q 2116 1406 1581 1522 
L 1381 1569 
Q 847 1681 609 1914 
Q 372 2147 372 2553 
Q 372 3047 722 3315 
Q 1072 3584 1716 3584 
Q 2034 3584 2315 3537 
Q 2597 3491 2834 3397 
z
" transform="scale(0.015625)"/>
       <path id="DejaVuSans-20" transform="scale(0.015625)"/>
       <path id="DejaVuSans-28" d="M 1984 4856 
Q 1566 4138 1362 3434 
Q 1159 2731 1159 2009 
Q 1159 1288 1364 580 
Q 1569 -128 1984 -844 
L 1484 -844 
Q 1016 -109 783 600 
Q 550 1309 550 2009 
Q 550 2706 781 3412 
Q 1013 4119 1484 4856 
L 1984 4856 
z
" transform="scale(0.015625)"/>
       <path id="DejaVuSans-2d" d="M 313 2009 
L 1997 2009 
L 1997 1497 
L 313 1497 
L 313 2009 
z
" transform="scale(0.015625)"/>
       <path id="DejaVuSans-29" d="M 513 4856 
L 1013 4856 
Q 1481 4119 1714 3412 
Q 1947 2706 1947 2009 
Q 1947 1309 1714 600 
Q 1481 -109 1013 -844 
L 513 -844 
Q 928 -128 1133 580 
Q 1338 1288 1338 2009 
Q 1338 2731 1133 3434 
Q 928 4138 513 4856 
z
" transform="scale(0.015625)"/>
      </defs>
      <use xlink:href="#DejaVuSans-4c"/>
      <use xlink:href="#DejaVuSans-6f" x="53.962891"/>
      <use xlink:href="#DejaVuSans-73" x="115.144531"/>
      <use xlink:href="#DejaVuSans-73" x="167.244141"/>
      <use xlink:href="#DejaVuSans-20" x="219.34375"/>
      <use xlink:href="#DejaVuSans-28" x="251.130859"/>
      <use xlink:href="#DejaVuSans-31" x="290.144531"/>
      <use xlink:href="#DejaVuSans-2d" x="353.767578"/>
      <use xlink:href="#DejaVuSans-52" x="389.851562"/>
      <use xlink:href="#DejaVuSans-29" x="459.333984"/>
     </g>
    </g>
   </g>
   <g id="line2d_20">
    <path d="M 232.647614 16.444205 
L 232.870063 109.147966 
L 233.314962 113.996872 
L 233.537411 113.996872 
L 233.759861 114.937916 
L 233.98231 114.937916 
L 234.20476 116.139057 
L 234.427209 116.351685 
L 234.649659 116.351685 
L 235.094558 117.834791 
L 235.317007 117.834791 
L 235.539456 118.270052 
L 235.761906 119.20273 
L 235.984355 119.382172 
L 236.206805 119.40473 
L 236.429254 119.877368 
L 236.874153 119.877368 
L 237.541501 120.804113 
L 237.9864 120.808683 
L 238.20885 120.970482 
L 238.431299 120.970482 
L 238.653749 122.592873 
L 239.543546 122.663131 
L 239.765996 123.032581 
L 240.210895 123.032581 
L 240.655794 123.145315 
L 241.100693 123.145315 
L 241.323142 123.514933 
L 242.880288 123.538791 
L 243.102738 123.979325 
L 243.325187 123.979325 
L 243.547636 124.235297 
L 243.992535 124.428095 
L 244.437434 124.550462 
L 246.439479 124.573352 
L 246.661929 125.337797 
L 247.329277 125.337797 
L 247.774176 125.462495 
L 248.219075 125.462495 
L 248.441524 126.212032 
L 253.780311 126.319259 
L 255.115008 126.43853 
L 259.786446 126.46265 
L 260.008895 126.688386 
L 267.349727 126.786331 
L 268.239525 126.850486 
L 269.574221 126.850486 
L 269.796671 128.383214 
L 274.02321 128.392483 
L 274.24566 128.589765 
L 281.808941 128.697128 
L 287.370177 128.723824 
L 296.045705 128.794138 
L 296.490604 128.861155 
L 298.04775 128.969443 
L 298.715099 129.017776 
L 321.182492 129.119799 
L 323.406987 129.131639 
L 342.31519 129.236165 
L 343.204987 129.26643 
L 343.649886 129.26643 
L 343.649886 129.26643 
" clip-path="url(#pe2e803057e)" style="fill: none; stroke: #1f77b4; stroke-width: 1.5; stroke-linecap: square"/>
   </g>
   <g id="line2d_21">
    <path d="M 232.647614 16.444205 
L 232.870063 107.609641 
L 233.092513 107.609641 
L 233.314962 109.501715 
L 233.98231 109.517955 
L 234.20476 112.391275 
L 234.427209 112.391275 
L 234.649659 114.405361 
L 235.317007 114.410278 
L 235.539456 114.738446 
L 237.096603 114.809757 
L 237.319052 114.885621 
L 237.763951 116.848815 
L 237.9864 116.848815 
L 238.20885 117.081785 
L 238.431299 117.500696 
L 239.321097 117.500696 
L 239.543546 117.70089 
L 239.765996 117.70089 
L 239.988445 118.077677 
L 241.100693 118.099857 
L 241.323142 118.608892 
L 241.545591 118.608892 
L 241.768041 118.797951 
L 241.99049 118.797951 
L 242.21294 120.066522 
L 245.104783 120.148054 
L 245.327232 120.406023 
L 245.549681 120.406023 
L 245.99458 120.757894 
L 246.21703 120.96922 
L 252.668064 120.991946 
L 253.112963 121.10787 
L 253.335412 121.869983 
L 254.00276 121.887036 
L 254.22521 122.026487 
L 254.892558 122.109567 
L 255.115008 122.30259 
L 255.337457 122.327102 
L 255.559906 123.189247 
L 261.121143 123.279378 
L 261.343592 123.491051 
L 264.235435 123.50237 
L 264.457884 124.074636 
L 265.570131 124.178809 
L 266.01503 124.288498 
L 266.904828 124.303741 
L 267.349727 124.43105 
L 268.684424 124.43105 
L 269.129323 124.543151 
L 280.251795 124.642819 
L 281.141593 124.675826 
L 288.259975 124.702667 
L 288.482424 125.04501 
L 300.717144 125.079342 
L 300.939593 126.561266 
L 304.721234 126.598555 
L 305.166132 126.712682 
L 308.502874 126.713477 
L 308.725324 126.89341 
L 317.845751 126.956675 
L 318.513099 127.034592 
L 335.196807 127.109992 
L 336.309055 127.183107 
L 343.649886 127.197256 
L 343.649886 127.197256 
" clip-path="url(#pe2e803057e)" style="fill: none; stroke: #ff7f0e; stroke-width: 1.5; stroke-linecap: square"/>
   </g>
   <g id="patch_8">
    <path d="M 227.0975 134.9725 
L 227.0975 10.8 
" style="fill: none; stroke: #000000; stroke-width: 0.8; stroke-linejoin: miter; stroke-linecap: square"/>
   </g>
   <g id="patch_9">
    <path d="M 349.2 134.9725 
L 349.2 10.8 
" style="fill: none; stroke: #000000; stroke-width: 0.8; stroke-linejoin: miter; stroke-linecap: square"/>
   </g>
   <g id="patch_10">
    <path d="M 227.0975 134.9725 
L 349.2 134.9725 
" style="fill: none; stroke: #000000; stroke-width: 0.8; stroke-linejoin: miter; stroke-linecap: square"/>
   </g>
   <g id="patch_11">
    <path d="M 227.0975 10.8 
L 349.2 10.8 
" style="fill: none; stroke: #000000; stroke-width: 0.8; stroke-linejoin: miter; stroke-linecap: square"/>
   </g>
  </g>
 </g>
 <defs>
  <clipPath id="p2ba80ffe60">
   <rect x="52.4975" y="10.8" width="122.1025" height="124.1725"/>
  </clipPath>
  <clipPath id="pe2e803057e">
   <rect x="227.0975" y="10.8" width="122.1025" height="124.1725"/>
  </clipPath>
 </defs>
</svg>
