<?xml version="1.0" encoding="utf-8" standalone="no"?>
<!DOCTYPE svg PUBLIC "-//W3C//DTD SVG 1.1//EN"
  "http://www.w3.org/Graphics/SVG/1.1/DTD/svg11.dtd">
<svg xmlns:xlink="http://www.w3.org/1999/xlink" width="288pt" height="158.4pt" viewBox="0 0 288 158.4" xmlns="http://www.w3.org/2000/svg" version="1.1">
 <metadata>
  <rdf:RDF xmlns:dc="http://purl.org/dc/elements/1.1/" xmlns:cc="http://creativecommons.org/ns#" xmlns:rdf="http://www.w3.org/1999/02/22-rdf-syntax-ns#">
   <cc:Work>
    <dc:type rdf:resource="http://purl.org/dc/dcmitype/StillImage"/>
    <dc:date>2025-02-21T16:59:35.968822</dc:date>
    <dc:format>image/svg+xml</dc:format>
    <dc:creator>
     <cc:Agent>
      <dc:title>Matplotlib v3.5.2, https://matplotlib.org/</dc:title>
     </cc:Agent>
    </dc:creator>
   </cc:Work>
  </rdf:RDF>
 </metadata>
 <defs>
  <style type="text/css">*{stroke-linejoin: round; stroke-linecap: butt}</style>
 </defs>
 <g id="figure_1">
  <g id="patch_1">
   <path d="M 0 158.4 
L 288 158.4 
L 288 0 
L 0 0 
z
" style="fill: #ffffff"/>
  </g>
  <g id="axes_1">
   <g id="patch_2">
    <path d="M 52.4975 113.3725 
L 131.75907 113.3725 
L 131.75907 10.8 
L 52.4975 10.8 
z
" style="fill: #ffffff"/>
   </g>
   <g id="line2d_1">
    <path d="M 56.100299 98.520788 
L 56.828137 73.733649 
L 57.555975 108.710114 
L 58.283813 108.710114 
L 59.011651 108.710114 
L 59.739489 100.787996 
L 60.467327 108.710114 
L 61.195165 91.819832 
L 61.923004 108.710114 
L 62.650842 108.710114 
L 63.37868 108.710114 
L 64.106518 70.703713 
L 64.834356 69.90501 
L 65.562194 91.901402 
L 66.290032 98.03788 
L 67.01787 54.586503 
L 67.745708 55.237585 
L 68.473547 31.543298 
L 69.201385 17.150256 
L 69.929223 32.25046 
L 70.657061 25.780102 
L 71.384899 69.06834 
L 72.112737 99.980921 
L 72.840575 108.710114 
L 73.568413 72.632339 
L 74.296251 22.78853 
L 75.02409 23.464845 
L 75.751928 108.710114 
L 76.479766 89.206626 
L 77.207604 68.627367 
L 77.935442 108.710114 
L 78.66328 48.304703 
L 79.391118 96.882972 
L 80.118956 104.379077 
L 80.846794 104.507163 
L 81.574633 51.972639 
L 82.302471 62.429945 
L 83.030309 106.963392 
L 83.758147 80.175109 
L 84.485985 33.648518 
L 85.213823 56.874273 
L 85.941661 83.453253 
L 86.669499 27.824079 
L 87.397337 108.710114 
L 88.125176 39.817934 
L 88.853014 66.785524 
L 89.580852 41.578157 
L 90.30869 27.308847 
L 91.036528 108.710114 
L 91.764366 108.710114 
L 92.492204 92.447016 
L 93.220042 92.115711 
L 93.94788 51.586312 
L 94.675719 41.966357 
L 95.403557 60.779634 
L 96.131395 65.621151 
L 96.859233 16.381407 
L 97.587071 87.221996 
L 98.314909 26.561618 
L 99.042747 102.241754 
L 99.770585 17.462743 
L 100.498423 53.836641 
L 101.226262 25.960433 
L 101.9541 40.021975 
L 102.681938 66.836061 
L 103.409776 15.904888 
L 104.137614 102.766867 
L 104.865452 15.462386 
L 105.59329 25.720721 
L 106.321128 29.615225 
L 107.048966 20.868512 
L 107.776805 25.373815 
L 108.504643 25.684441 
L 109.232481 65.025702 
L 109.960319 17.839228 
L 110.688157 51.533739 
L 111.415995 108.710114 
L 112.143833 32.887143 
L 112.871671 60.163547 
L 113.599509 70.979424 
L 114.327347 94.924934 
L 115.055186 108.710114 
L 115.783024 108.710114 
L 116.510862 18.051959 
L 117.2387 36.244237 
L 117.966538 39.448962 
L 118.694376 108.710114 
L 119.422214 108.710114 
L 120.150052 94.919817 
L 120.87789 108.710114 
L 121.605729 29.867692 
L 122.333567 108.710114 
L 123.061405 108.710114 
L 123.789243 47.529379 
L 124.517081 108.710114 
L 125.244919 19.305469 
L 125.972757 39.849207 
L 126.700595 34.634966 
L 127.428433 48.160083 
L 128.156272 42.169846 
" clip-path="url(#p7a209e71e2)" style="fill: none; stroke: #000000; stroke-width: 1.5; stroke-linecap: square"/>
   </g>
   <g id="PathCollection_1">
    <defs>
     <path id="m9776234522" d="M 0 3 
C 0.795609 3 1.55874 2.683901 2.12132 2.12132 
C 2.683901 1.55874 3 0.795609 3 0 
C 3 -0.795609 2.683901 -1.55874 2.12132 -2.12132 
C 1.55874 -2.683901 0.795609 -3 0 -3 
C -0.795609 -3 -1.55874 -2.683901 -2.12132 -2.12132 
C -2.683901 -1.55874 -3 -0.795609 -3 0 
C -3 0.795609 -2.683901 1.55874 -2.12132 2.12132 
C -1.55874 2.683901 -0.795609 3 0 3 
z
" style="stroke: #ff0000"/>
    </defs>
    <g clip-path="url(#p7a209e71e2)">
     <use xlink:href="#m9776234522" x="56.100299" y="98.520788" style="fill: #ff0000; stroke: #ff0000"/>
     <use xlink:href="#m9776234522" x="56.828137" y="73.733649" style="fill: #ff0000; stroke: #ff0000"/>
     <use xlink:href="#m9776234522" x="64.106518" y="70.703713" style="fill: #ff0000; stroke: #ff0000"/>
     <use xlink:href="#m9776234522" x="64.834356" y="69.90501" style="fill: #ff0000; stroke: #ff0000"/>
     <use xlink:href="#m9776234522" x="67.01787" y="54.586503" style="fill: #ff0000; stroke: #ff0000"/>
     <use xlink:href="#m9776234522" x="68.473547" y="31.543298" style="fill: #ff0000; stroke: #ff0000"/>
     <use xlink:href="#m9776234522" x="69.201385" y="17.150256" style="fill: #ff0000; stroke: #ff0000"/>
     <use xlink:href="#m9776234522" x="96.859233" y="16.381407" style="fill: #ff0000; stroke: #ff0000"/>
     <use xlink:href="#m9776234522" x="103.409776" y="15.904888" style="fill: #ff0000; stroke: #ff0000"/>
     <use xlink:href="#m9776234522" x="104.865452" y="15.462386" style="fill: #ff0000; stroke: #ff0000"/>
    </g>
   </g>
   <g id="matplotlib.axis_1">
    <g id="xtick_1">
     <g id="line2d_2">
      <defs>
       <path id="mb88e2a9c31" d="M 0 0 
L 0 3.5 
" style="stroke: #000000; stroke-width: 0.8"/>
      </defs>
      <g>
       <use xlink:href="#mb88e2a9c31" x="55.372461" y="113.3725" style="stroke: #000000; stroke-width: 0.8"/>
      </g>
     </g>
     <g id="text_1">
      <!-- 0 -->
      <g transform="translate(51.554961 129.490625)scale(0.12 -0.12)">
       <defs>
        <path id="DejaVuSans-30" d="M 2034 4250 
Q 1547 4250 1301 3770 
Q 1056 3291 1056 2328 
Q 1056 1369 1301 889 
Q 1547 409 2034 409 
Q 2525 409 2770 889 
Q 3016 1369 3016 2328 
Q 3016 3291 2770 3770 
Q 2525 4250 2034 4250 
z
M 2034 4750 
Q 2819 4750 3233 4129 
Q 3647 3509 3647 2328 
Q 3647 1150 3233 529 
Q 2819 -91 2034 -91 
Q 1250 -91 836 529 
Q 422 1150 422 2328 
Q 422 3509 836 4129 
Q 1250 4750 2034 4750 
z
" transform="scale(0.015625)"/>
       </defs>
       <use xlink:href="#DejaVuSans-30"/>
      </g>
     </g>
    </g>
    <g id="xtick_2">
     <g id="line2d_3">
      <g>
       <use xlink:href="#mb88e2a9c31" x="128.156272" y="113.3725" style="stroke: #000000; stroke-width: 0.8"/>
      </g>
     </g>
     <g id="text_2">
      <!-- 100 -->
      <g transform="translate(116.703772 129.490625)scale(0.12 -0.12)">
       <defs>
        <path id="DejaVuSans-31" d="M 794 531 
L 1825 531 
L 1825 4091 
L 703 3866 
L 703 4441 
L 1819 4666 
L 2450 4666 
L 2450 531 
L 3481 531 
L 3481 0 
L 794 0 
L 794 531 
z
" transform="scale(0.015625)"/>
       </defs>
       <use xlink:href="#DejaVuSans-31"/>
       <use xlink:href="#DejaVuSans-30" x="63.623047"/>
       <use xlink:href="#DejaVuSans-30" x="127.246094"/>
      </g>
     </g>
    </g>
    <g id="text_3">
     <!-- Epoch -->
     <g transform="translate(73.75516 145.104375)scale(0.12 -0.12)">
      <defs>
       <path id="DejaVuSans-45" d="M 628 4666 
L 3578 4666 
L 3578 4134 
L 1259 4134 
L 1259 2753 
L 3481 2753 
L 3481 2222 
L 1259 2222 
L 1259 531 
L 3634 531 
L 3634 0 
L 628 0 
L 628 4666 
z
" transform="scale(0.015625)"/>
       <path id="DejaVuSans-70" d="M 1159 525 
L 1159 -1331 
L 581 -1331 
L 581 3500 
L 1159 3500 
L 1159 2969 
Q 1341 3281 1617 3432 
Q 1894 3584 2278 3584 
Q 2916 3584 3314 3078 
Q 3713 2572 3713 1747 
Q 3713 922 3314 415 
Q 2916 -91 2278 -91 
Q 1894 -91 1617 61 
Q 1341 213 1159 525 
z
M 3116 1747 
Q 3116 2381 2855 2742 
Q 2594 3103 2138 3103 
Q 1681 3103 1420 2742 
Q 1159 2381 1159 1747 
Q 1159 1113 1420 752 
Q 1681 391 2138 391 
Q 2594 391 2855 752 
Q 3116 1113 3116 1747 
z
" transform="scale(0.015625)"/>
       <path id="DejaVuSans-6f" d="M 1959 3097 
Q 1497 3097 1228 2736 
Q 959 2375 959 1747 
Q 959 1119 1226 758 
Q 1494 397 1959 397 
Q 2419 397 2687 759 
Q 2956 1122 2956 1747 
Q 2956 2369 2687 2733 
Q 2419 3097 1959 3097 
z
M 1959 3584 
Q 2709 3584 3137 3096 
Q 3566 2609 3566 1747 
Q 3566 888 3137 398 
Q 2709 -91 1959 -91 
Q 1206 -91 779 398 
Q 353 888 353 1747 
Q 353 2609 779 3096 
Q 1206 3584 1959 3584 
z
" transform="scale(0.015625)"/>
       <path id="DejaVuSans-63" d="M 3122 3366 
L 3122 2828 
Q 2878 2963 2633 3030 
Q 2388 3097 2138 3097 
Q 1578 3097 1268 2742 
Q 959 2388 959 1747 
Q 959 1106 1268 751 
Q 1578 397 2138 397 
Q 2388 397 2633 464 
Q 2878 531 3122 666 
L 3122 134 
Q 2881 22 2623 -34 
Q 2366 -91 2075 -91 
Q 1284 -91 818 406 
Q 353 903 353 1747 
Q 353 2603 823 3093 
Q 1294 3584 2113 3584 
Q 2378 3584 2631 3529 
Q 2884 3475 3122 3366 
z
" transform="scale(0.015625)"/>
       <path id="DejaVuSans-68" d="M 3513 2113 
L 3513 0 
L 2938 0 
L 2938 2094 
Q 2938 2591 2744 2837 
Q 2550 3084 2163 3084 
Q 1697 3084 1428 2787 
Q 1159 2491 1159 1978 
L 1159 0 
L 581 0 
L 581 4863 
L 1159 4863 
L 1159 2956 
Q 1366 3272 1645 3428 
Q 1925 3584 2291 3584 
Q 2894 3584 3203 3211 
Q 3513 2838 3513 2113 
z
" transform="scale(0.015625)"/>
      </defs>
      <use xlink:href="#DejaVuSans-45"/>
      <use xlink:href="#DejaVuSans-70" x="63.183594"/>
      <use xlink:href="#DejaVuSans-6f" x="126.660156"/>
      <use xlink:href="#DejaVuSans-63" x="187.841797"/>
      <use xlink:href="#DejaVuSans-68" x="242.822266"/>
     </g>
    </g>
   </g>
   <g id="matplotlib.axis_2">
    <g id="ytick_1">
     <g id="line2d_4">
      <defs>
       <path id="m32f2c1ce0c" d="M 0 0 
L -3.5 0 
" style="stroke: #000000; stroke-width: 0.8"/>
      </defs>
      <g>
       <use xlink:href="#m32f2c1ce0c" x="52.4975" y="108.710114" style="stroke: #000000; stroke-width: 0.8"/>
      </g>
     </g>
     <g id="text_4">
      <!-- 0.00 -->
      <g transform="translate(18.77875 113.269176)scale(0.12 -0.12)">
       <defs>
        <path id="DejaVuSans-2e" d="M 684 794 
L 1344 794 
L 1344 0 
L 684 0 
L 684 794 
z
" transform="scale(0.015625)"/>
       </defs>
       <use xlink:href="#DejaVuSans-30"/>
       <use xlink:href="#DejaVuSans-2e" x="63.623047"/>
       <use xlink:href="#DejaVuSans-30" x="95.410156"/>
       <use xlink:href="#DejaVuSans-30" x="159.033203"/>
      </g>
     </g>
    </g>
    <g id="ytick_2">
     <g id="line2d_5">
      <g>
       <use xlink:href="#m32f2c1ce0c" x="52.4975" y="85.384116" style="stroke: #000000; stroke-width: 0.8"/>
      </g>
     </g>
     <g id="text_5">
      <!-- 0.25 -->
      <g transform="translate(18.77875 89.943179)scale(0.12 -0.12)">
       <defs>
        <path id="DejaVuSans-32" d="M 1228 531 
L 3431 531 
L 3431 0 
L 469 0 
L 469 531 
Q 828 903 1448 1529 
Q 2069 2156 2228 2338 
Q 2531 2678 2651 2914 
Q 2772 3150 2772 3378 
Q 2772 3750 2511 3984 
Q 2250 4219 1831 4219 
Q 1534 4219 1204 4116 
Q 875 4013 500 3803 
L 500 4441 
Q 881 4594 1212 4672 
Q 1544 4750 1819 4750 
Q 2544 4750 2975 4387 
Q 3406 4025 3406 3419 
Q 3406 3131 3298 2873 
Q 3191 2616 2906 2266 
Q 2828 2175 2409 1742 
Q 1991 1309 1228 531 
z
" transform="scale(0.015625)"/>
        <path id="DejaVuSans-35" d="M 691 4666 
L 3169 4666 
L 3169 4134 
L 1269 4134 
L 1269 2991 
Q 1406 3038 1543 3061 
Q 1681 3084 1819 3084 
Q 2600 3084 3056 2656 
Q 3513 2228 3513 1497 
Q 3513 744 3044 326 
Q 2575 -91 1722 -91 
Q 1428 -91 1123 -41 
Q 819 9 494 109 
L 494 744 
Q 775 591 1075 516 
Q 1375 441 1709 441 
Q 2250 441 2565 725 
Q 2881 1009 2881 1497 
Q 2881 1984 2565 2268 
Q 2250 2553 1709 2553 
Q 1456 2553 1204 2497 
Q 953 2441 691 2322 
L 691 4666 
z
" transform="scale(0.015625)"/>
       </defs>
       <use xlink:href="#DejaVuSans-30"/>
       <use xlink:href="#DejaVuSans-2e" x="63.623047"/>
       <use xlink:href="#DejaVuSans-32" x="95.410156"/>
       <use xlink:href="#DejaVuSans-35" x="159.033203"/>
      </g>
     </g>
    </g>
    <g id="ytick_3">
     <g id="line2d_6">
      <g>
       <use xlink:href="#m32f2c1ce0c" x="52.4975" y="62.058118" style="stroke: #000000; stroke-width: 0.8"/>
      </g>
     </g>
     <g id="text_6">
      <!-- 0.50 -->
      <g transform="translate(18.77875 66.617181)scale(0.12 -0.12)">
       <use xlink:href="#DejaVuSans-30"/>
       <use xlink:href="#DejaVuSans-2e" x="63.623047"/>
       <use xlink:href="#DejaVuSans-35" x="95.410156"/>
       <use xlink:href="#DejaVuSans-30" x="159.033203"/>
      </g>
     </g>
    </g>
    <g id="ytick_4">
     <g id="line2d_7">
      <g>
       <use xlink:href="#m32f2c1ce0c" x="52.4975" y="38.732121" style="stroke: #000000; stroke-width: 0.8"/>
      </g>
     </g>
     <g id="text_7">
      <!-- 0.75 -->
      <g transform="translate(18.77875 43.291183)scale(0.12 -0.12)">
       <defs>
        <path id="DejaVuSans-37" d="M 525 4666 
L 3525 4666 
L 3525 4397 
L 1831 0 
L 1172 0 
L 2766 4134 
L 525 4134 
L 525 4666 
z
" transform="scale(0.015625)"/>
       </defs>
       <use xlink:href="#DejaVuSans-30"/>
       <use xlink:href="#DejaVuSans-2e" x="63.623047"/>
       <use xlink:href="#DejaVuSans-37" x="95.410156"/>
       <use xlink:href="#DejaVuSans-35" x="159.033203"/>
      </g>
     </g>
    </g>
    <g id="ytick_5">
     <g id="line2d_8">
      <g>
       <use xlink:href="#m32f2c1ce0c" x="52.4975" y="15.406123" style="stroke: #000000; stroke-width: 0.8"/>
      </g>
     </g>
     <g id="text_8">
      <!-- 1.00 -->
      <g transform="translate(18.77875 19.965186)scale(0.12 -0.12)">
       <use xlink:href="#DejaVuSans-31"/>
       <use xlink:href="#DejaVuSans-2e" x="63.623047"/>
       <use xlink:href="#DejaVuSans-30" x="95.410156"/>
       <use xlink:href="#DejaVuSans-30" x="159.033203"/>
      </g>
     </g>
    </g>
    <g id="text_9">
     <!-- R -->
     <g transform="translate(12.283125 66.255313)rotate(-90)scale(0.12 -0.12)">
      <defs>
       <path id="DejaVuSans-52" d="M 2841 2188 
Q 3044 2119 3236 1894 
Q 3428 1669 3622 1275 
L 4263 0 
L 3584 0 
L 2988 1197 
Q 2756 1666 2539 1819 
Q 2322 1972 1947 1972 
L 1259 1972 
L 1259 0 
L 628 0 
L 628 4666 
L 2053 4666 
Q 2853 4666 3247 4331 
Q 3641 3997 3641 3322 
Q 3641 2881 3436 2590 
Q 3231 2300 2841 2188 
z
M 1259 4147 
L 1259 2491 
L 2053 2491 
Q 2509 2491 2742 2702 
Q 2975 2913 2975 3322 
Q 2975 3731 2742 3939 
Q 2509 4147 2053 4147 
L 1259 4147 
z
" transform="scale(0.015625)"/>
      </defs>
      <use xlink:href="#DejaVuSans-52"/>
     </g>
    </g>
   </g>
   <g id="patch_3">
    <path d="M 52.4975 113.3725 
L 52.4975 10.8 
" style="fill: none; stroke: #000000; stroke-width: 0.8; stroke-linejoin: miter; stroke-linecap: square"/>
   </g>
   <g id="patch_4">
    <path d="M 131.75907 113.3725 
L 131.75907 10.8 
" style="fill: none; stroke: #000000; stroke-width: 0.8; stroke-linejoin: miter; stroke-linecap: square"/>
   </g>
   <g id="patch_5">
    <path d="M 52.4975 113.3725 
L 131.75907 113.3725 
" style="fill: none; stroke: #000000; stroke-width: 0.8; stroke-linejoin: miter; stroke-linecap: square"/>
   </g>
   <g id="patch_6">
    <path d="M 52.4975 10.8 
L 131.75907 10.8 
" style="fill: none; stroke: #000000; stroke-width: 0.8; stroke-linejoin: miter; stroke-linecap: square"/>
   </g>
  </g>
  <g id="axes_2">
   <g id="patch_7">
    <path d="M 191.0975 113.3725 
L 270.35907 113.3725 
L 270.35907 10.8 
L 191.0975 10.8 
z
" style="fill: #ffffff"/>
   </g>
   <g id="PolyCollection_1">
    <defs>
     <path id="md90cc74eb7" d="M 194.700299 -142.937614 
L 194.700299 -142.937614 
L 195.428137 -116.778236 
L 196.155975 -105.272099 
L 196.883813 -79.647555 
L 197.611651 -79.647555 
L 198.339489 -70.477229 
L 199.067327 -70.477229 
L 199.795165 -70.477229 
L 200.523004 -70.477229 
L 201.250842 -57.984388 
L 201.97868 -57.284756 
L 202.706518 -55.055198 
L 203.434356 -54.458939 
L 204.162194 -53.592886 
L 204.890032 -53.592886 
L 205.61787 -53.592886 
L 206.345708 -53.592886 
L 207.073547 -53.592886 
L 207.801385 -53.592886 
L 208.529223 -53.592886 
L 209.257061 -53.592886 
L 209.984899 -53.592886 
L 210.712737 -50.753198 
L 211.440575 -50.753198 
L 212.168413 -50.753198 
L 212.896251 -50.753198 
L 213.62409 -50.008768 
L 214.351928 -50.008768 
L 215.079766 -50.008768 
L 215.807604 -50.008768 
L 216.535442 -50.008768 
L 217.26328 -50.008768 
L 217.991118 -50.008768 
L 218.718956 -50.008768 
L 219.446794 -49.983871 
L 220.174633 -49.983871 
L 220.902471 -49.983871 
L 221.630309 -49.983871 
L 222.358147 -49.983871 
L 223.085985 -49.983871 
L 223.813823 -49.983871 
L 224.541661 -49.983871 
L 225.269499 -49.983871 
L 225.997337 -49.983871 
L 226.725176 -49.983871 
L 227.453014 -49.983871 
L 228.180852 -49.983871 
L 228.90869 -49.983871 
L 229.636528 -49.983871 
L 230.364366 -49.983871 
L 231.092204 -49.983871 
L 231.820042 -49.983871 
L 232.54788 -49.983871 
L 233.275719 -49.983871 
L 234.003557 -49.983871 
L 234.731395 -49.983871 
L 235.459233 -49.983871 
L 236.187071 -49.983871 
L 236.914909 -49.983871 
L 237.642747 -49.983871 
L 238.370585 -49.983871 
L 239.098423 -49.983871 
L 239.826262 -49.983871 
L 240.5541 -49.983871 
L 241.281938 -49.983871 
L 242.009776 -49.983871 
L 242.737614 -49.974653 
L 243.465452 -49.974653 
L 244.19329 -49.974653 
L 244.921128 -49.974653 
L 245.648966 -49.974653 
L 246.376805 -49.974653 
L 247.104643 -49.974653 
L 247.832481 -49.974653 
L 248.560319 -49.974653 
L 249.288157 -49.974653 
L 250.015995 -49.974653 
L 250.743833 -49.974653 
L 251.471671 -49.974653 
L 252.199509 -49.974653 
L 252.927347 -49.974653 
L 253.655186 -49.974653 
L 254.383024 -49.916936 
L 255.110862 -49.916936 
L 255.8387 -49.916936 
L 256.566538 -49.916936 
L 257.294376 -49.916936 
L 258.022214 -49.916936 
L 258.750052 -49.916936 
L 259.47789 -49.735519 
L 260.205729 -49.735519 
L 260.933567 -49.735519 
L 261.661405 -49.735519 
L 262.389243 -49.735519 
L 263.117081 -49.735519 
L 263.844919 -49.735519 
L 264.572757 -49.735519 
L 265.300595 -49.735519 
L 266.028433 -49.735519 
L 266.756272 -49.735519 
L 266.756272 -49.938654 
L 266.756272 -49.938654 
L 266.028433 -49.938654 
L 265.300595 -49.938654 
L 264.572757 -49.938654 
L 263.844919 -49.938654 
L 263.117081 -49.938654 
L 262.389243 -49.938654 
L 261.661405 -49.938654 
L 260.933567 -49.938654 
L 260.205729 -49.938654 
L 259.47789 -49.938654 
L 258.750052 -50.029457 
L 258.022214 -50.029457 
L 257.294376 -50.029457 
L 256.566538 -50.029457 
L 255.8387 -50.029457 
L 255.110862 -50.029457 
L 254.383024 -50.029457 
L 253.655186 -50.325681 
L 252.927347 -50.325681 
L 252.199509 -50.325681 
L 251.471671 -50.325681 
L 250.743833 -50.325681 
L 250.015995 -50.325681 
L 249.288157 -50.325681 
L 248.560319 -50.325681 
L 247.832481 -50.325681 
L 247.104643 -50.325681 
L 246.376805 -50.325681 
L 245.648966 -50.325681 
L 244.921128 -50.325681 
L 244.19329 -50.325681 
L 243.465452 -50.325681 
L 242.737614 -50.325681 
L 242.009776 -50.40297 
L 241.281938 -50.40297 
L 240.5541 -50.40297 
L 239.826262 -50.40297 
L 239.098423 -50.40297 
L 238.370585 -50.40297 
L 237.642747 -50.40297 
L 236.914909 -50.40297 
L 236.187071 -50.40297 
L 235.459233 -50.40297 
L 234.731395 -50.40297 
L 234.003557 -50.40297 
L 233.275719 -50.40297 
L 232.54788 -50.40297 
L 231.820042 -50.40297 
L 231.092204 -50.40297 
L 230.364366 -50.40297 
L 229.636528 -50.40297 
L 228.90869 -50.40297 
L 228.180852 -50.40297 
L 227.453014 -50.40297 
L 226.725176 -50.40297 
L 225.997337 -50.40297 
L 225.269499 -50.40297 
L 224.541661 -50.40297 
L 223.813823 -50.40297 
L 223.085985 -50.40297 
L 222.358147 -50.40297 
L 221.630309 -50.40297 
L 220.902471 -50.40297 
L 220.174633 -50.40297 
L 219.446794 -50.40297 
L 218.718956 -50.626787 
L 217.991118 -50.626787 
L 217.26328 -50.626787 
L 216.535442 -50.626787 
L 215.807604 -50.626787 
L 215.079766 -50.626787 
L 214.351928 -50.626787 
L 213.62409 -50.626787 
L 212.896251 -52.792243 
L 212.168413 -52.792243 
L 211.440575 -52.792243 
L 210.712737 -52.792243 
L 209.984899 -80.617279 
L 209.257061 -80.617279 
L 208.529223 -80.617279 
L 207.801385 -80.617279 
L 207.073547 -80.617279 
L 206.345708 -80.617279 
L 205.61787 -80.617279 
L 204.890032 -80.617279 
L 204.162194 -80.617279 
L 203.434356 -81.003036 
L 202.706518 -86.873782 
L 201.97868 -87.948921 
L 201.250842 -88.317395 
L 200.523004 -94.506737 
L 199.795165 -94.506737 
L 199.067327 -94.506737 
L 198.339489 -94.506737 
L 197.611651 -107.457957 
L 196.883813 -107.457957 
L 196.155975 -110.066206 
L 195.428137 -132.606007 
L 194.700299 -142.937614 
z
" style="stroke: #1f77b4; stroke-opacity: 0.5"/>
    </defs>
    <g clip-path="url(#pf98a568730)">
     <use xlink:href="#md90cc74eb7" x="0" y="158.4" style="fill: #1f77b4; fill-opacity: 0.5; stroke: #1f77b4; stroke-opacity: 0.5"/>
    </g>
   </g>
   <g id="PolyCollection_2">
    <defs>
     <path id="m6011719741" d="M 194.700299 -142.937614 
L 194.700299 -142.937614 
L 195.428137 -72.843726 
L 196.155975 -58.701242 
L 196.883813 -58.701242 
L 197.611651 -58.701242 
L 198.339489 -58.701242 
L 199.067327 -58.701242 
L 199.795165 -58.340821 
L 200.523004 -57.673501 
L 201.250842 -56.135735 
L 201.97868 -56.135735 
L 202.706518 -56.135735 
L 203.434356 -55.949764 
L 204.162194 -55.90073 
L 204.890032 -55.90073 
L 205.61787 -55.90073 
L 206.345708 -54.958908 
L 207.073547 -54.958908 
L 207.801385 -53.170116 
L 208.529223 -51.577005 
L 209.257061 -51.577005 
L 209.984899 -51.577005 
L 210.712737 -51.577005 
L 211.440575 -50.880274 
L 212.168413 -50.880274 
L 212.896251 -50.880274 
L 213.62409 -50.880274 
L 214.351928 -50.880274 
L 215.079766 -50.880274 
L 215.807604 -50.880274 
L 216.535442 -50.880274 
L 217.26328 -50.880274 
L 217.991118 -50.880274 
L 218.718956 -50.880274 
L 219.446794 -50.880274 
L 220.174633 -50.562689 
L 220.902471 -50.562689 
L 221.630309 -50.562689 
L 222.358147 -50.562689 
L 223.085985 -50.562689 
L 223.813823 -50.562689 
L 224.541661 -50.562689 
L 225.269499 -50.562689 
L 225.997337 -50.562689 
L 226.725176 -50.562689 
L 227.453014 -49.916234 
L 228.180852 -49.916234 
L 228.90869 -49.916234 
L 229.636528 -49.916234 
L 230.364366 -49.916234 
L 231.092204 -49.916234 
L 231.820042 -49.916234 
L 232.54788 -49.916234 
L 233.275719 -49.916234 
L 234.003557 -49.916234 
L 234.731395 -49.916234 
L 235.459233 -49.916234 
L 236.187071 -49.863755 
L 236.914909 -49.863755 
L 237.642747 -49.863755 
L 238.370585 -49.863755 
L 239.098423 -49.863755 
L 239.826262 -49.863755 
L 240.5541 -49.863755 
L 241.281938 -49.863755 
L 242.009776 -49.863755 
L 242.737614 -49.819274 
L 243.465452 -49.819274 
L 244.19329 -49.689886 
L 244.921128 -49.689886 
L 245.648966 -49.689886 
L 246.376805 -49.689886 
L 247.104643 -49.689886 
L 247.832481 -49.689886 
L 248.560319 -49.689886 
L 249.288157 -49.689886 
L 250.015995 -49.689886 
L 250.743833 -49.689886 
L 251.471671 -49.689886 
L 252.199509 -49.689886 
L 252.927347 -49.689886 
L 253.655186 -49.689886 
L 254.383024 -49.689886 
L 255.110862 -49.689886 
L 255.8387 -49.689886 
L 256.566538 -49.689886 
L 257.294376 -49.689886 
L 258.022214 -49.689886 
L 258.750052 -49.689886 
L 259.47789 -49.689886 
L 260.205729 -49.689886 
L 260.933567 -49.689886 
L 261.661405 -49.689886 
L 262.389243 -49.689886 
L 263.117081 -49.689886 
L 263.844919 -49.689886 
L 264.572757 -49.689886 
L 265.300595 -49.689886 
L 266.028433 -49.689886 
L 266.756272 -49.689886 
L 266.756272 -49.85404 
L 266.756272 -49.85404 
L 266.028433 -49.85404 
L 265.300595 -49.85404 
L 264.572757 -49.85404 
L 263.844919 -49.85404 
L 263.117081 -49.85404 
L 262.389243 -49.85404 
L 261.661405 -49.85404 
L 260.933567 -49.85404 
L 260.205729 -49.85404 
L 259.47789 -49.85404 
L 258.750052 -49.85404 
L 258.022214 -49.85404 
L 257.294376 -49.85404 
L 256.566538 -49.85404 
L 255.8387 -49.85404 
L 255.110862 -49.85404 
L 254.383024 -49.85404 
L 253.655186 -49.85404 
L 252.927347 -49.85404 
L 252.199509 -49.85404 
L 251.471671 -49.85404 
L 250.743833 -49.85404 
L 250.015995 -49.85404 
L 249.288157 -49.85404 
L 248.560319 -49.85404 
L 247.832481 -49.85404 
L 247.104643 -49.85404 
L 246.376805 -49.85404 
L 245.648966 -49.85404 
L 244.921128 -49.85404 
L 244.19329 -49.85404 
L 243.465452 -50.019755 
L 242.737614 -50.019755 
L 242.009776 -50.293061 
L 241.281938 -50.293061 
L 240.5541 -50.293061 
L 239.826262 -50.293061 
L 239.098423 -50.293061 
L 238.370585 -50.293061 
L 237.642747 -50.293061 
L 236.914909 -50.293061 
L 236.187071 -50.293061 
L 235.459233 -50.753323 
L 234.731395 -50.753323 
L 234.003557 -50.753323 
L 233.275719 -50.753323 
L 232.54788 -50.753323 
L 231.820042 -50.753323 
L 231.092204 -50.753323 
L 230.364366 -50.753323 
L 229.636528 -50.753323 
L 228.90869 -50.753323 
L 228.180852 -50.753323 
L 227.453014 -50.753323 
L 226.725176 -51.393635 
L 225.997337 -51.393635 
L 225.269499 -51.393635 
L 224.541661 -51.393635 
L 223.813823 -51.393635 
L 223.085985 -51.393635 
L 222.358147 -51.393635 
L 221.630309 -51.393635 
L 220.902471 -51.393635 
L 220.174633 -51.393635 
L 219.446794 -51.428545 
L 218.718956 -51.428545 
L 217.991118 -51.428545 
L 217.26328 -51.428545 
L 216.535442 -51.428545 
L 215.807604 -51.428545 
L 215.079766 -51.428545 
L 214.351928 -51.428545 
L 213.62409 -51.428545 
L 212.896251 -51.428545 
L 212.168413 -51.428545 
L 211.440575 -51.428545 
L 210.712737 -52.47972 
L 209.984899 -52.47972 
L 209.257061 -52.47972 
L 208.529223 -52.47972 
L 207.801385 -60.485245 
L 207.073547 -74.598697 
L 206.345708 -74.598697 
L 205.61787 -83.872697 
L 204.890032 -83.872697 
L 204.162194 -83.872697 
L 203.434356 -84.356313 
L 202.706518 -86.190989 
L 201.97868 -86.190989 
L 201.250842 -86.190989 
L 200.523004 -86.825593 
L 199.795165 -87.119237 
L 199.067327 -87.282888 
L 198.339489 -87.282888 
L 197.611651 -87.282888 
L 196.883813 -87.282888 
L 196.155975 -87.282888 
L 195.428137 -109.083719 
L 194.700299 -142.937614 
z
" style="stroke: #ff7f0e; stroke-opacity: 0.5"/>
    </defs>
    <g clip-path="url(#pf98a568730)">
     <use xlink:href="#m6011719741" x="0" y="158.4" style="fill: #ff7f0e; fill-opacity: 0.5; stroke: #ff7f0e; stroke-opacity: 0.5"/>
    </g>
   </g>
   <g id="PolyCollection_3">
    <defs>
     <path id="m210cf01eaa" d="M 194.700299 -142.937614 
L 194.700299 -142.937614 
L 195.428137 -83.589938 
L 196.155975 -82.020271 
L 196.883813 -64.386662 
L 197.611651 -59.435721 
L 198.339489 -59.435721 
L 199.067327 -59.435721 
L 199.795165 -59.435721 
L 200.523004 -59.435721 
L 201.250842 -59.435721 
L 201.97868 -59.435721 
L 202.706518 -59.435721 
L 203.434356 -59.435721 
L 204.162194 -59.435721 
L 204.890032 -59.435721 
L 205.61787 -59.435721 
L 206.345708 -59.435721 
L 207.073547 -59.435721 
L 207.801385 -59.435721 
L 208.529223 -59.435721 
L 209.257061 -59.435721 
L 209.984899 -59.435721 
L 210.712737 -59.435721 
L 211.440575 -59.435721 
L 212.168413 -57.341416 
L 212.896251 -55.810595 
L 213.62409 -55.810595 
L 214.351928 -52.945819 
L 215.079766 -52.945819 
L 215.807604 -52.580807 
L 216.535442 -52.580807 
L 217.26328 -52.580807 
L 217.991118 -52.580807 
L 218.718956 -52.580807 
L 219.446794 -52.580807 
L 220.174633 -52.580807 
L 220.902471 -52.580807 
L 221.630309 -52.580807 
L 222.358147 -52.580807 
L 223.085985 -52.580807 
L 223.813823 -52.580807 
L 224.541661 -52.580807 
L 225.269499 -52.580807 
L 225.997337 -52.580807 
L 226.725176 -52.580807 
L 227.453014 -50.763175 
L 228.180852 -50.762943 
L 228.90869 -50.762943 
L 229.636528 -50.762943 
L 230.364366 -50.762943 
L 231.092204 -50.762943 
L 231.820042 -50.762943 
L 232.54788 -50.762943 
L 233.275719 -50.762943 
L 234.003557 -50.762943 
L 234.731395 -50.762943 
L 235.459233 -50.762943 
L 236.187071 -50.762943 
L 236.914909 -50.762943 
L 237.642747 -50.762943 
L 238.370585 -50.762943 
L 239.098423 -50.762943 
L 239.826262 -50.487382 
L 240.5541 -50.487382 
L 241.281938 -50.487382 
L 242.009776 -50.487382 
L 242.737614 -50.487382 
L 243.465452 -50.487382 
L 244.19329 -50.487382 
L 244.921128 -50.487382 
L 245.648966 -50.487382 
L 246.376805 -50.487382 
L 247.104643 -50.487382 
L 247.832481 -50.487382 
L 248.560319 -50.487382 
L 249.288157 -50.487382 
L 250.015995 -50.253461 
L 250.743833 -50.253461 
L 251.471671 -50.253461 
L 252.199509 -50.253461 
L 252.927347 -50.253461 
L 253.655186 -50.253461 
L 254.383024 -50.253461 
L 255.110862 -50.253461 
L 255.8387 -50.253461 
L 256.566538 -50.253461 
L 257.294376 -50.253461 
L 258.022214 -50.253461 
L 258.750052 -50.253461 
L 259.47789 -50.253461 
L 260.205729 -50.253461 
L 260.933567 -50.253461 
L 261.661405 -50.253461 
L 262.389243 -50.253461 
L 263.117081 -50.253461 
L 263.844919 -50.253461 
L 264.572757 -50.007731 
L 265.300595 -50.007731 
L 266.028433 -50.007731 
L 266.756272 -50.007731 
L 266.756272 -50.345272 
L 266.756272 -50.345272 
L 266.028433 -50.345272 
L 265.300595 -50.345272 
L 264.572757 -50.345272 
L 263.844919 -51.623563 
L 263.117081 -51.623563 
L 262.389243 -51.623563 
L 261.661405 -51.623563 
L 260.933567 -51.623563 
L 260.205729 -51.623563 
L 259.47789 -51.623563 
L 258.750052 -51.623563 
L 258.022214 -51.623563 
L 257.294376 -51.623563 
L 256.566538 -51.623563 
L 255.8387 -51.623563 
L 255.110862 -51.623563 
L 254.383024 -51.623563 
L 253.655186 -51.623563 
L 252.927347 -51.623563 
L 252.199509 -51.623563 
L 251.471671 -51.623563 
L 250.743833 -51.623563 
L 250.015995 -51.623563 
L 249.288157 -53.811772 
L 248.560319 -53.811772 
L 247.832481 -53.811772 
L 247.104643 -53.811772 
L 246.376805 -53.811772 
L 245.648966 -53.811772 
L 244.921128 -53.811772 
L 244.19329 -53.811772 
L 243.465452 -53.811772 
L 242.737614 -53.811772 
L 242.009776 -53.811772 
L 241.281938 -53.811772 
L 240.5541 -53.811772 
L 239.826262 -53.811772 
L 239.098423 -56.502656 
L 238.370585 -56.502656 
L 237.642747 -56.502656 
L 236.914909 -56.502656 
L 236.187071 -56.502656 
L 235.459233 -56.502656 
L 234.731395 -56.502656 
L 234.003557 -56.502656 
L 233.275719 -56.502656 
L 232.54788 -56.502656 
L 231.820042 -56.502656 
L 231.092204 -56.502656 
L 230.364366 -56.502656 
L 229.636528 -56.502656 
L 228.90869 -56.502656 
L 228.180852 -56.502656 
L 227.453014 -56.502763 
L 226.725176 -60.594214 
L 225.997337 -60.594214 
L 225.269499 -60.594214 
L 224.541661 -60.594214 
L 223.813823 -60.594214 
L 223.085985 -60.594214 
L 222.358147 -60.594214 
L 221.630309 -60.594214 
L 220.902471 -60.594214 
L 220.174633 -60.594214 
L 219.446794 -60.594214 
L 218.718956 -60.594214 
L 217.991118 -60.594214 
L 217.26328 -60.594214 
L 216.535442 -60.594214 
L 215.807604 -60.594214 
L 215.079766 -63.859287 
L 214.351928 -63.859287 
L 213.62409 -66.088331 
L 212.896251 -66.088331 
L 212.168413 -76.809684 
L 211.440575 -95.494115 
L 210.712737 -95.494115 
L 209.984899 -95.494115 
L 209.257061 -95.494115 
L 208.529223 -95.494115 
L 207.801385 -95.494115 
L 207.073547 -95.494115 
L 206.345708 -95.494115 
L 205.61787 -95.494115 
L 204.890032 -95.494115 
L 204.162194 -95.494115 
L 203.434356 -95.494115 
L 202.706518 -95.494115 
L 201.97868 -95.494115 
L 201.250842 -95.494115 
L 200.523004 -95.494115 
L 199.795165 -95.494115 
L 199.067327 -95.494115 
L 198.339489 -95.494115 
L 197.611651 -95.494115 
L 196.883813 -97.277786 
L 196.155975 -113.106352 
L 195.428137 -118.449288 
L 194.700299 -142.937614 
z
" style="stroke: #2ca02c; stroke-opacity: 0.5"/>
    </defs>
    <g clip-path="url(#pf98a568730)">
     <use xlink:href="#m210cf01eaa" x="0" y="158.4" style="fill: #2ca02c; fill-opacity: 0.5; stroke: #2ca02c; stroke-opacity: 0.5"/>
    </g>
   </g>
   <g id="PolyCollection_4">
    <defs>
     <path id="m51c480f6bd" d="M 194.700299 -142.937614 
L 194.700299 -142.937614 
L 195.428137 -63.533529 
L 196.155975 -60.820525 
L 196.883813 -56.634296 
L 197.611651 -56.634296 
L 198.339489 -56.634296 
L 199.067327 -56.220624 
L 199.795165 -55.279857 
L 200.523004 -55.279857 
L 201.250842 -55.279857 
L 201.97868 -55.279857 
L 202.706518 -55.279857 
L 203.434356 -55.060258 
L 204.162194 -54.974222 
L 204.890032 -54.974222 
L 205.61787 -54.719942 
L 206.345708 -52.368304 
L 207.073547 -52.368304 
L 207.801385 -52.368304 
L 208.529223 -52.234413 
L 209.257061 -51.184746 
L 209.984899 -51.184746 
L 210.712737 -51.184746 
L 211.440575 -51.184746 
L 212.168413 -50.273274 
L 212.896251 -50.273274 
L 213.62409 -50.273274 
L 214.351928 -50.273274 
L 215.079766 -50.273274 
L 215.807604 -50.183243 
L 216.535442 -50.183243 
L 217.26328 -50.183243 
L 217.991118 -50.183243 
L 218.718956 -50.183243 
L 219.446794 -50.183243 
L 220.174633 -50.183243 
L 220.902471 -50.183243 
L 221.630309 -50.183243 
L 222.358147 -50.183243 
L 223.085985 -50.183243 
L 223.813823 -50.183243 
L 224.541661 -50.183243 
L 225.269499 -50.183243 
L 225.997337 -50.183243 
L 226.725176 -50.183243 
L 227.453014 -50.183243 
L 228.180852 -50.183243 
L 228.90869 -50.183243 
L 229.636528 -50.183243 
L 230.364366 -50.183243 
L 231.092204 -50.116007 
L 231.820042 -50.116007 
L 232.54788 -50.116007 
L 233.275719 -50.116007 
L 234.003557 -49.834377 
L 234.731395 -49.834377 
L 235.459233 -49.834377 
L 236.187071 -49.834377 
L 236.914909 -49.834377 
L 237.642747 -49.834377 
L 238.370585 -49.834377 
L 239.098423 -49.834377 
L 239.826262 -49.834377 
L 240.5541 -49.834377 
L 241.281938 -49.834377 
L 242.009776 -49.834377 
L 242.737614 -49.834377 
L 243.465452 -49.834377 
L 244.19329 -49.834377 
L 244.921128 -49.834377 
L 245.648966 -49.834377 
L 246.376805 -49.834377 
L 247.104643 -49.834377 
L 247.832481 -49.834377 
L 248.560319 -49.834377 
L 249.288157 -49.834377 
L 250.015995 -49.834377 
L 250.743833 -49.834377 
L 251.471671 -49.834377 
L 252.199509 -49.834377 
L 252.927347 -49.834377 
L 253.655186 -49.834377 
L 254.383024 -49.834377 
L 255.110862 -49.834377 
L 255.8387 -49.834377 
L 256.566538 -49.834377 
L 257.294376 -49.834377 
L 258.022214 -49.834377 
L 258.750052 -49.834377 
L 259.47789 -49.834377 
L 260.205729 -49.834377 
L 260.933567 -49.834377 
L 261.661405 -49.834377 
L 262.389243 -49.834377 
L 263.117081 -49.834377 
L 263.844919 -49.834377 
L 264.572757 -49.834377 
L 265.300595 -49.834377 
L 266.028433 -49.834377 
L 266.756272 -49.834377 
L 266.756272 -50.411733 
L 266.756272 -50.411733 
L 266.028433 -50.411733 
L 265.300595 -50.411733 
L 264.572757 -50.411733 
L 263.844919 -50.411733 
L 263.117081 -50.411733 
L 262.389243 -50.411733 
L 261.661405 -50.411733 
L 260.933567 -50.411733 
L 260.205729 -50.411733 
L 259.47789 -50.411733 
L 258.750052 -50.411733 
L 258.022214 -50.411733 
L 257.294376 -50.411733 
L 256.566538 -50.411733 
L 255.8387 -50.411733 
L 255.110862 -50.411733 
L 254.383024 -50.411733 
L 253.655186 -50.411733 
L 252.927347 -50.411733 
L 252.199509 -50.411733 
L 251.471671 -50.411733 
L 250.743833 -50.411733 
L 250.015995 -50.411733 
L 249.288157 -50.411733 
L 248.560319 -50.411733 
L 247.832481 -50.411733 
L 247.104643 -50.411733 
L 246.376805 -50.411733 
L 245.648966 -50.411733 
L 244.921128 -50.411733 
L 244.19329 -50.411733 
L 243.465452 -50.411733 
L 242.737614 -50.411733 
L 242.009776 -50.411733 
L 241.281938 -50.411733 
L 240.5541 -50.411733 
L 239.826262 -50.411733 
L 239.098423 -50.411733 
L 238.370585 -50.411733 
L 237.642747 -50.411733 
L 236.914909 -50.411733 
L 236.187071 -50.411733 
L 235.459233 -50.411733 
L 234.731395 -50.411733 
L 234.003557 -50.411733 
L 233.275719 -50.546194 
L 232.54788 -50.546194 
L 231.820042 -50.546194 
L 231.092204 -50.546194 
L 230.364366 -51.104684 
L 229.636528 -51.104684 
L 228.90869 -51.104684 
L 228.180852 -51.104684 
L 227.453014 -51.104684 
L 226.725176 -51.104684 
L 225.997337 -51.104684 
L 225.269499 -51.104684 
L 224.541661 -51.104684 
L 223.813823 -51.104684 
L 223.085985 -51.104684 
L 222.358147 -51.104684 
L 221.630309 -51.104684 
L 220.902471 -51.104684 
L 220.174633 -51.104684 
L 219.446794 -51.104684 
L 218.718956 -51.104684 
L 217.991118 -51.104684 
L 217.26328 -51.104684 
L 216.535442 -51.104684 
L 215.807604 -51.104684 
L 215.079766 -51.162285 
L 214.351928 -51.162285 
L 213.62409 -51.162285 
L 212.896251 -51.162285 
L 212.168413 -51.162285 
L 211.440575 -52.503529 
L 210.712737 -52.503529 
L 209.984899 -52.503529 
L 209.257061 -52.503529 
L 208.529223 -52.969884 
L 207.801385 -53.785163 
L 207.073547 -53.785163 
L 206.345708 -53.785163 
L 205.61787 -57.867695 
L 204.890032 -58.210942 
L 204.162194 -58.210942 
L 203.434356 -58.554958 
L 202.706518 -58.885209 
L 201.97868 -58.885209 
L 201.250842 -58.885209 
L 200.523004 -58.885209 
L 199.795165 -58.885209 
L 199.067327 -64.248103 
L 198.339489 -67.644013 
L 197.611651 -67.644013 
L 196.883813 -67.644013 
L 196.155975 -107.708086 
L 195.428137 -109.571724 
L 194.700299 -142.937614 
z
" style="stroke: #d62728; stroke-opacity: 0.5"/>
    </defs>
    <g clip-path="url(#pf98a568730)">
     <use xlink:href="#m51c480f6bd" x="0" y="158.4" style="fill: #d62728; fill-opacity: 0.5; stroke: #d62728; stroke-opacity: 0.5"/>
    </g>
   </g>
   <g id="matplotlib.axis_3">
    <g id="xtick_3">
     <g id="line2d_9">
      <g>
       <use xlink:href="#mb88e2a9c31" x="193.972461" y="113.3725" style="stroke: #000000; stroke-width: 0.8"/>
      </g>
     </g>
     <g id="text_10">
      <!-- 0 -->
      <g transform="translate(190.154961 129.490625)scale(0.12 -0.12)">
       <use xlink:href="#DejaVuSans-30"/>
      </g>
     </g>
    </g>
    <g id="xtick_4">
     <g id="line2d_10">
      <g>
       <use xlink:href="#mb88e2a9c31" x="266.756272" y="113.3725" style="stroke: #000000; stroke-width: 0.8"/>
      </g>
     </g>
     <g id="text_11">
      <!-- 100 -->
      <g transform="translate(255.303772 129.490625)scale(0.12 -0.12)">
       <use xlink:href="#DejaVuSans-31"/>
       <use xlink:href="#DejaVuSans-30" x="63.623047"/>
       <use xlink:href="#DejaVuSans-30" x="127.246094"/>
      </g>
     </g>
    </g>
    <g id="text_12">
     <!-- Epoch -->
     <g transform="translate(212.35516 145.104375)scale(0.12 -0.12)">
      <use xlink:href="#DejaVuSans-45"/>
      <use xlink:href="#DejaVuSans-70" x="63.183594"/>
      <use xlink:href="#DejaVuSans-6f" x="126.660156"/>
      <use xlink:href="#DejaVuSans-63" x="187.841797"/>
      <use xlink:href="#DejaVuSans-68" x="242.822266"/>
     </g>
    </g>
   </g>
   <g id="matplotlib.axis_4">
    <g id="ytick_6">
     <g id="line2d_11">
      <g>
       <use xlink:href="#m32f2c1ce0c" x="191.0975" y="108.798205" style="stroke: #000000; stroke-width: 0.8"/>
      </g>
     </g>
     <g id="text_13">
      <!-- 0.00 -->
      <g transform="translate(157.37875 113.357267)scale(0.12 -0.12)">
       <use xlink:href="#DejaVuSans-30"/>
       <use xlink:href="#DejaVuSans-2e" x="63.623047"/>
       <use xlink:href="#DejaVuSans-30" x="95.410156"/>
       <use xlink:href="#DejaVuSans-30" x="159.033203"/>
      </g>
     </g>
    </g>
    <g id="ytick_7">
     <g id="line2d_12">
      <g>
       <use xlink:href="#m32f2c1ce0c" x="191.0975" y="85.46425" style="stroke: #000000; stroke-width: 0.8"/>
      </g>
     </g>
     <g id="text_14">
      <!-- 0.25 -->
      <g transform="translate(157.37875 90.023313)scale(0.12 -0.12)">
       <use xlink:href="#DejaVuSans-30"/>
       <use xlink:href="#DejaVuSans-2e" x="63.623047"/>
       <use xlink:href="#DejaVuSans-32" x="95.410156"/>
       <use xlink:href="#DejaVuSans-35" x="159.033203"/>
      </g>
     </g>
    </g>
    <g id="ytick_8">
     <g id="line2d_13">
      <g>
       <use xlink:href="#m32f2c1ce0c" x="191.0975" y="62.130295" style="stroke: #000000; stroke-width: 0.8"/>
      </g>
     </g>
     <g id="text_15">
      <!-- 0.50 -->
      <g transform="translate(157.37875 66.689358)scale(0.12 -0.12)">
       <use xlink:href="#DejaVuSans-30"/>
       <use xlink:href="#DejaVuSans-2e" x="63.623047"/>
       <use xlink:href="#DejaVuSans-35" x="95.410156"/>
       <use xlink:href="#DejaVuSans-30" x="159.033203"/>
      </g>
     </g>
    </g>
    <g id="ytick_9">
     <g id="line2d_14">
      <g>
       <use xlink:href="#m32f2c1ce0c" x="191.0975" y="38.796341" style="stroke: #000000; stroke-width: 0.8"/>
      </g>
     </g>
     <g id="text_16">
      <!-- 0.75 -->
      <g transform="translate(157.37875 43.355403)scale(0.12 -0.12)">
       <use xlink:href="#DejaVuSans-30"/>
       <use xlink:href="#DejaVuSans-2e" x="63.623047"/>
       <use xlink:href="#DejaVuSans-37" x="95.410156"/>
       <use xlink:href="#DejaVuSans-35" x="159.033203"/>
      </g>
     </g>
    </g>
    <g id="ytick_10">
     <g id="line2d_15">
      <g>
       <use xlink:href="#m32f2c1ce0c" x="191.0975" y="15.462386" style="stroke: #000000; stroke-width: 0.8"/>
      </g>
     </g>
     <g id="text_17">
      <!-- 1.00 -->
      <g transform="translate(157.37875 20.021449)scale(0.12 -0.12)">
       <use xlink:href="#DejaVuSans-31"/>
       <use xlink:href="#DejaVuSans-2e" x="63.623047"/>
       <use xlink:href="#DejaVuSans-30" x="95.410156"/>
       <use xlink:href="#DejaVuSans-30" x="159.033203"/>
      </g>
     </g>
    </g>
    <g id="text_18">
     <!-- Loss (1-R) -->
     <g transform="translate(150.883125 91.986875)rotate(-90)scale(0.12 -0.12)">
      <defs>
       <path id="DejaVuSans-4c" d="M 628 4666 
L 1259 4666 
L 1259 531 
L 3531 531 
L 3531 0 
L 628 0 
L 628 4666 
z
" transform="scale(0.015625)"/>
       <path id="DejaVuSans-73" d="M 2834 3397 
L 2834 2853 
Q 2591 2978 2328 3040 
Q 2066 3103 1784 3103 
Q 1356 3103 1142 2972 
Q 928 2841 928 2578 
Q 928 2378 1081 2264 
Q 1234 2150 1697 2047 
L 1894 2003 
Q 2506 1872 2764 1633 
Q 3022 1394 3022 966 
Q 3022 478 2636 193 
Q 2250 -91 1575 -91 
Q 1294 -91 989 -36 
Q 684 19 347 128 
L 347 722 
Q 666 556 975 473 
Q 1284 391 1588 391 
Q 1994 391 2212 530 
Q 2431 669 2431 922 
Q 2431 1156 2273 1281 
Q 2116 1406 1581 1522 
L 1381 1569 
Q 847 1681 609 1914 
Q 372 2147 372 2553 
Q 372 3047 722 3315 
Q 1072 3584 1716 3584 
Q 2034 3584 2315 3537 
Q 2597 3491 2834 3397 
z
" transform="scale(0.015625)"/>
       <path id="DejaVuSans-20" transform="scale(0.015625)"/>
       <path id="DejaVuSans-28" d="M 1984 4856 
Q 1566 4138 1362 3434 
Q 1159 2731 1159 2009 
Q 1159 1288 1364 580 
Q 1569 -128 1984 -844 
L 1484 -844 
Q 1016 -109 783 600 
Q 550 1309 550 2009 
Q 550 2706 781 3412 
Q 1013 4119 1484 4856 
L 1984 4856 
z
" transform="scale(0.015625)"/>
       <path id="DejaVuSans-2d" d="M 313 2009 
L 1997 2009 
L 1997 1497 
L 313 1497 
L 313 2009 
z
" transform="scale(0.015625)"/>
       <path id="DejaVuSans-29" d="M 513 4856 
L 1013 4856 
Q 1481 4119 1714 3412 
Q 1947 2706 1947 2009 
Q 1947 1309 1714 600 
Q 1481 -109 1013 -844 
L 513 -844 
Q 928 -128 1133 580 
Q 1338 1288 1338 2009 
Q 1338 2731 1133 3434 
Q 928 4138 513 4856 
z
" transform="scale(0.015625)"/>
      </defs>
      <use xlink:href="#DejaVuSans-4c"/>
      <use xlink:href="#DejaVuSans-6f" x="53.962891"/>
      <use xlink:href="#DejaVuSans-73" x="115.144531"/>
      <use xlink:href="#DejaVuSans-73" x="167.244141"/>
      <use xlink:href="#DejaVuSans-20" x="219.34375"/>
      <use xlink:href="#DejaVuSans-28" x="251.130859"/>
      <use xlink:href="#DejaVuSans-31" x="290.144531"/>
      <use xlink:href="#DejaVuSans-2d" x="353.767578"/>
      <use xlink:href="#DejaVuSans-52" x="389.851562"/>
      <use xlink:href="#DejaVuSans-29" x="459.333984"/>
     </g>
    </g>
   </g>
   <g id="line2d_16">
    <path d="M 194.700299 15.462386 
L 195.428137 33.707879 
L 196.155975 50.730848 
L 196.883813 64.847244 
L 197.611651 64.847244 
L 198.339489 75.908017 
L 199.067327 75.908017 
L 199.795165 75.908017 
L 200.523004 75.908017 
L 201.250842 85.249108 
L 201.97868 85.783162 
L 202.706518 87.43551 
L 203.434356 90.669013 
L 204.162194 91.294917 
L 204.890032 91.294917 
L 205.61787 91.294917 
L 206.345708 91.294917 
L 207.073547 91.294917 
L 207.801385 91.294917 
L 208.529223 91.294917 
L 209.257061 91.294917 
L 209.984899 91.294917 
L 210.712737 106.627279 
L 211.440575 106.627279 
L 212.168413 106.627279 
L 212.896251 106.627279 
L 213.62409 108.082223 
L 214.351928 108.082223 
L 215.079766 108.082223 
L 215.807604 108.082223 
L 216.535442 108.082223 
L 217.26328 108.082223 
L 217.991118 108.082223 
L 218.718956 108.082223 
L 219.446794 108.206579 
L 220.174633 108.206579 
L 220.902471 108.206579 
L 221.630309 108.206579 
L 222.358147 108.206579 
L 223.085985 108.206579 
L 223.813823 108.206579 
L 224.541661 108.206579 
L 225.269499 108.206579 
L 225.997337 108.206579 
L 226.725176 108.206579 
L 227.453014 108.206579 
L 228.180852 108.206579 
L 228.90869 108.206579 
L 229.636528 108.206579 
L 230.364366 108.206579 
L 231.092204 108.206579 
L 231.820042 108.206579 
L 232.54788 108.206579 
L 233.275719 108.206579 
L 234.003557 108.206579 
L 234.731395 108.206579 
L 235.459233 108.206579 
L 236.187071 108.206579 
L 236.914909 108.206579 
L 237.642747 108.206579 
L 238.370585 108.206579 
L 239.098423 108.206579 
L 239.826262 108.206579 
L 240.5541 108.206579 
L 241.281938 108.206579 
L 242.009776 108.206579 
L 242.737614 108.249833 
L 243.465452 108.249833 
L 244.19329 108.249833 
L 244.921128 108.249833 
L 245.648966 108.249833 
L 246.376805 108.249833 
L 247.104643 108.249833 
L 247.832481 108.249833 
L 248.560319 108.249833 
L 249.288157 108.249833 
L 250.015995 108.249833 
L 250.743833 108.249833 
L 251.471671 108.249833 
L 252.199509 108.249833 
L 252.927347 108.249833 
L 253.655186 108.249833 
L 254.383024 108.426804 
L 255.110862 108.426804 
L 255.8387 108.426804 
L 256.566538 108.426804 
L 257.294376 108.426804 
L 258.022214 108.426804 
L 258.750052 108.426804 
L 259.47789 108.562914 
L 260.205729 108.562914 
L 260.933567 108.562914 
L 261.661405 108.562914 
L 262.389243 108.562914 
L 263.117081 108.562914 
L 263.844919 108.562914 
L 264.572757 108.562914 
L 265.300595 108.562914 
L 266.028433 108.562914 
L 266.756272 108.562914 
" clip-path="url(#pf98a568730)" style="fill: none; stroke: #1f77b4; stroke-width: 1.5; stroke-linecap: square"/>
   </g>
   <g id="line2d_17">
    <path d="M 194.700299 15.462386 
L 195.428137 67.436278 
L 196.155975 85.407935 
L 196.883813 85.407935 
L 197.611651 85.407935 
L 198.339489 85.407935 
L 199.067327 85.407935 
L 199.795165 85.669971 
L 200.523004 86.150453 
L 201.250842 87.236638 
L 201.97868 87.236638 
L 202.706518 87.236638 
L 203.434356 88.246961 
L 204.162194 88.513286 
L 204.890032 88.513286 
L 205.61787 88.513286 
L 206.345708 93.621197 
L 207.073547 93.621197 
L 207.801385 101.57232 
L 208.529223 106.371637 
L 209.257061 106.371637 
L 209.984899 106.371637 
L 210.712737 106.371637 
L 211.440575 107.24559 
L 212.168413 107.24559 
L 212.896251 107.24559 
L 213.62409 107.24559 
L 214.351928 107.24559 
L 215.079766 107.24559 
L 215.807604 107.24559 
L 216.535442 107.24559 
L 217.26328 107.24559 
L 217.991118 107.24559 
L 218.718956 107.24559 
L 219.446794 107.24559 
L 220.174633 107.421838 
L 220.902471 107.421838 
L 221.630309 107.421838 
L 222.358147 107.421838 
L 223.085985 107.421838 
L 223.813823 107.421838 
L 224.541661 107.421838 
L 225.269499 107.421838 
L 225.997337 107.421838 
L 226.725176 107.421838 
L 227.453014 108.065222 
L 228.180852 108.065222 
L 228.90869 108.065222 
L 229.636528 108.065222 
L 230.364366 108.065222 
L 231.092204 108.065222 
L 231.820042 108.065222 
L 232.54788 108.065222 
L 233.275719 108.065222 
L 234.003557 108.065222 
L 234.731395 108.065222 
L 235.459233 108.065222 
L 236.187071 108.321592 
L 236.914909 108.321592 
L 237.642747 108.321592 
L 238.370585 108.321592 
L 239.098423 108.321592 
L 239.826262 108.321592 
L 240.5541 108.321592 
L 241.281938 108.321592 
L 242.009776 108.321592 
L 242.737614 108.480486 
L 243.465452 108.480486 
L 244.19329 108.628037 
L 244.921128 108.628037 
L 245.648966 108.628037 
L 246.376805 108.628037 
L 247.104643 108.628037 
L 247.832481 108.628037 
L 248.560319 108.628037 
L 249.288157 108.628037 
L 250.015995 108.628037 
L 250.743833 108.628037 
L 251.471671 108.628037 
L 252.199509 108.628037 
L 252.927347 108.628037 
L 253.655186 108.628037 
L 254.383024 108.628037 
L 255.110862 108.628037 
L 255.8387 108.628037 
L 256.566538 108.628037 
L 257.294376 108.628037 
L 258.022214 108.628037 
L 258.750052 108.628037 
L 259.47789 108.628037 
L 260.205729 108.628037 
L 260.933567 108.628037 
L 261.661405 108.628037 
L 262.389243 108.628037 
L 263.117081 108.628037 
L 263.844919 108.628037 
L 264.572757 108.628037 
L 265.300595 108.628037 
L 266.028433 108.628037 
L 266.756272 108.628037 
" clip-path="url(#pf98a568730)" style="fill: none; stroke: #ff7f0e; stroke-width: 1.5; stroke-linecap: square"/>
   </g>
   <g id="line2d_18">
    <path d="M 194.700299 15.462386 
L 195.428137 57.380387 
L 196.155975 60.836689 
L 196.883813 77.567776 
L 197.611651 80.935082 
L 198.339489 80.935082 
L 199.067327 80.935082 
L 199.795165 80.935082 
L 200.523004 80.935082 
L 201.250842 80.935082 
L 201.97868 80.935082 
L 202.706518 80.935082 
L 203.434356 80.935082 
L 204.162194 80.935082 
L 204.890032 80.935082 
L 205.61787 80.935082 
L 206.345708 80.935082 
L 207.073547 80.935082 
L 207.801385 80.935082 
L 208.529223 80.935082 
L 209.257061 80.935082 
L 209.984899 80.935082 
L 210.712737 80.935082 
L 211.440575 80.935082 
L 212.168413 91.32445 
L 212.896251 97.450537 
L 213.62409 97.450537 
L 214.351928 99.997447 
L 215.079766 99.997447 
L 215.807604 101.812489 
L 216.535442 101.812489 
L 217.26328 101.812489 
L 217.991118 101.812489 
L 218.718956 101.812489 
L 219.446794 101.812489 
L 220.174633 101.812489 
L 220.902471 101.812489 
L 221.630309 101.812489 
L 222.358147 101.812489 
L 223.085985 101.812489 
L 223.813823 101.812489 
L 224.541661 101.812489 
L 225.269499 101.812489 
L 225.997337 101.812489 
L 226.725176 101.812489 
L 227.453014 104.767031 
L 228.180852 104.767201 
L 228.90869 104.767201 
L 229.636528 104.767201 
L 230.364366 104.767201 
L 231.092204 104.767201 
L 231.820042 104.767201 
L 232.54788 104.767201 
L 233.275719 104.767201 
L 234.003557 104.767201 
L 234.731395 104.767201 
L 235.459233 104.767201 
L 236.187071 104.767201 
L 236.914909 104.767201 
L 237.642747 104.767201 
L 238.370585 104.767201 
L 239.098423 104.767201 
L 239.826262 106.250423 
L 240.5541 106.250423 
L 241.281938 106.250423 
L 242.009776 106.250423 
L 242.737614 106.250423 
L 243.465452 106.250423 
L 244.19329 106.250423 
L 244.921128 106.250423 
L 245.648966 106.250423 
L 246.376805 106.250423 
L 247.104643 106.250423 
L 247.832481 106.250423 
L 248.560319 106.250423 
L 249.288157 106.250423 
L 250.015995 107.461488 
L 250.743833 107.461488 
L 251.471671 107.461488 
L 252.199509 107.461488 
L 252.927347 107.461488 
L 253.655186 107.461488 
L 254.383024 107.461488 
L 255.110862 107.461488 
L 255.8387 107.461488 
L 256.566538 107.461488 
L 257.294376 107.461488 
L 258.022214 107.461488 
L 258.750052 107.461488 
L 259.47789 107.461488 
L 260.205729 107.461488 
L 260.933567 107.461488 
L 261.661405 107.461488 
L 262.389243 107.461488 
L 263.117081 107.461488 
L 263.844919 107.461488 
L 264.572757 108.223498 
L 265.300595 108.223498 
L 266.028433 108.223498 
L 266.756272 108.223498 
" clip-path="url(#pf98a568730)" style="fill: none; stroke: #2ca02c; stroke-width: 1.5; stroke-linecap: square"/>
   </g>
   <g id="line2d_19">
    <path d="M 194.700299 15.462386 
L 195.428137 71.847373 
L 196.155975 74.135695 
L 196.883813 96.260845 
L 197.611651 96.260845 
L 198.339489 96.260845 
L 199.067327 98.165637 
L 199.795165 101.317467 
L 200.523004 101.317467 
L 201.250842 101.317467 
L 201.97868 101.317467 
L 202.706518 101.317467 
L 203.434356 101.592392 
L 204.162194 101.807418 
L 204.890032 101.807418 
L 205.61787 102.106182 
L 206.345708 105.323267 
L 207.073547 105.323267 
L 207.801385 105.323267 
L 208.529223 105.797851 
L 209.257061 106.555863 
L 209.984899 106.555863 
L 210.712737 106.555863 
L 211.440575 106.555863 
L 212.168413 107.682221 
L 212.896251 107.682221 
L 213.62409 107.682221 
L 214.351928 107.682221 
L 215.079766 107.682221 
L 215.807604 107.756036 
L 216.535442 107.756036 
L 217.26328 107.756036 
L 217.991118 107.756036 
L 218.718956 107.756036 
L 219.446794 107.756036 
L 220.174633 107.756036 
L 220.902471 107.756036 
L 221.630309 107.756036 
L 222.358147 107.756036 
L 223.085985 107.756036 
L 223.813823 107.756036 
L 224.541661 107.756036 
L 225.269499 107.756036 
L 225.997337 107.756036 
L 226.725176 107.756036 
L 227.453014 107.756036 
L 228.180852 107.756036 
L 228.90869 107.756036 
L 229.636528 107.756036 
L 230.364366 107.756036 
L 231.092204 108.0689 
L 231.820042 108.0689 
L 232.54788 108.0689 
L 233.275719 108.0689 
L 234.003557 108.276945 
L 234.731395 108.276945 
L 235.459233 108.276945 
L 236.187071 108.276945 
L 236.914909 108.276945 
L 237.642747 108.276945 
L 238.370585 108.276945 
L 239.098423 108.276945 
L 239.826262 108.276945 
L 240.5541 108.276945 
L 241.281938 108.276945 
L 242.009776 108.276945 
L 242.737614 108.276945 
L 243.465452 108.276945 
L 244.19329 108.276945 
L 244.921128 108.276945 
L 245.648966 108.276945 
L 246.376805 108.276945 
L 247.104643 108.276945 
L 247.832481 108.276945 
L 248.560319 108.276945 
L 249.288157 108.276945 
L 250.015995 108.276945 
L 250.743833 108.276945 
L 251.471671 108.276945 
L 252.199509 108.276945 
L 252.927347 108.276945 
L 253.655186 108.276945 
L 254.383024 108.276945 
L 255.110862 108.276945 
L 255.8387 108.276945 
L 256.566538 108.276945 
L 257.294376 108.276945 
L 258.022214 108.276945 
L 258.750052 108.276945 
L 259.47789 108.276945 
L 260.205729 108.276945 
L 260.933567 108.276945 
L 261.661405 108.276945 
L 262.389243 108.276945 
L 263.117081 108.276945 
L 263.844919 108.276945 
L 264.572757 108.276945 
L 265.300595 108.276945 
L 266.028433 108.276945 
L 266.756272 108.276945 
" clip-path="url(#pf98a568730)" style="fill: none; stroke: #d62728; stroke-width: 1.5; stroke-linecap: square"/>
   </g>
   <g id="patch_8">
    <path d="M 191.0975 113.3725 
L 191.0975 10.8 
" style="fill: none; stroke: #000000; stroke-width: 0.8; stroke-linejoin: miter; stroke-linecap: square"/>
   </g>
   <g id="patch_9">
    <path d="M 270.35907 113.3725 
L 270.35907 10.8 
" style="fill: none; stroke: #000000; stroke-width: 0.8; stroke-linejoin: miter; stroke-linecap: square"/>
   </g>
   <g id="patch_10">
    <path d="M 191.0975 113.3725 
L 270.35907 113.3725 
" style="fill: none; stroke: #000000; stroke-width: 0.8; stroke-linejoin: miter; stroke-linecap: square"/>
   </g>
   <g id="patch_11">
    <path d="M 191.0975 10.8 
L 270.35907 10.8 
" style="fill: none; stroke: #000000; stroke-width: 0.8; stroke-linejoin: miter; stroke-linecap: square"/>
   </g>
  </g>
 </g>
 <defs>
  <clipPath id="p7a209e71e2">
   <rect x="52.4975" y="10.8" width="79.26157" height="102.5725"/>
  </clipPath>
  <clipPath id="pf98a568730">
   <rect x="191.0975" y="10.8" width="79.26157" height="102.5725"/>
  </clipPath>
 </defs>
</svg>
