<?xml version="1.0" encoding="utf-8" standalone="no"?>
<!DOCTYPE svg PUBLIC "-//W3C//DTD SVG 1.1//EN"
  "http://www.w3.org/Graphics/SVG/1.1/DTD/svg11.dtd">
<svg xmlns:xlink="http://www.w3.org/1999/xlink" width="432pt" height="180pt" viewBox="0 0 432 180" xmlns="http://www.w3.org/2000/svg" version="1.1">
 <metadata>
  <rdf:RDF xmlns:dc="http://purl.org/dc/elements/1.1/" xmlns:cc="http://creativecommons.org/ns#" xmlns:rdf="http://www.w3.org/1999/02/22-rdf-syntax-ns#">
   <cc:Work>
    <dc:type rdf:resource="http://purl.org/dc/dcmitype/StillImage"/>
    <dc:date>2025-05-06T19:16:30.984977</dc:date>
    <dc:format>image/svg+xml</dc:format>
    <dc:creator>
     <cc:Agent>
      <dc:title>Matplotlib v3.5.2, https://matplotlib.org/</dc:title>
     </cc:Agent>
    </dc:creator>
   </cc:Work>
  </rdf:RDF>
 </metadata>
 <defs>
  <style type="text/css">*{stroke-linejoin: round; stroke-linecap: butt}</style>
 </defs>
 <g id="figure_1">
  <g id="patch_1">
   <path d="M 0 180 
L 432 180 
L 432 0 
L 0 0 
z
" style="fill: #ffffff"/>
  </g>
  <g id="axes_1">
   <g id="patch_2">
    <path d="M 60.1325 134.9725 
L 150.068021 134.9725 
L 150.068021 14.599219 
L 60.1325 14.599219 
z
" style="fill: #ffffff"/>
   </g>
   <g id="matplotlib.axis_1">
    <g id="xtick_1">
     <g id="line2d_1">
      <defs>
       <path id="m7380cb5adb" d="M 0 0 
L 0 3.5 
" style="stroke: #000000; stroke-width: 0.8"/>
      </defs>
      <g>
       <use xlink:href="#m7380cb5adb" x="64.220478" y="134.9725" style="stroke: #000000; stroke-width: 0.8"/>
      </g>
     </g>
     <g id="text_1">
      <!-- 0 -->
      <g transform="translate(60.402978 151.090625)scale(0.12 -0.12)">
       <defs>
        <path id="DejaVuSans-30" d="M 2034 4250 
Q 1547 4250 1301 3770 
Q 1056 3291 1056 2328 
Q 1056 1369 1301 889 
Q 1547 409 2034 409 
Q 2525 409 2770 889 
Q 3016 1369 3016 2328 
Q 3016 3291 2770 3770 
Q 2525 4250 2034 4250 
z
M 2034 4750 
Q 2819 4750 3233 4129 
Q 3647 3509 3647 2328 
Q 3647 1150 3233 529 
Q 2819 -91 2034 -91 
Q 1250 -91 836 529 
Q 422 1150 422 2328 
Q 422 3509 836 4129 
Q 1250 4750 2034 4750 
z
" transform="scale(0.015625)"/>
       </defs>
       <use xlink:href="#DejaVuSans-30"/>
      </g>
     </g>
    </g>
    <g id="xtick_2">
     <g id="line2d_2">
      <g>
       <use xlink:href="#m7380cb5adb" x="146.805897" y="134.9725" style="stroke: #000000; stroke-width: 0.8"/>
      </g>
     </g>
     <g id="text_2">
      <!-- 100 -->
      <g transform="translate(135.353397 151.090625)scale(0.12 -0.12)">
       <defs>
        <path id="DejaVuSans-31" d="M 794 531 
L 1825 531 
L 1825 4091 
L 703 3866 
L 703 4441 
L 1819 4666 
L 2450 4666 
L 2450 531 
L 3481 531 
L 3481 0 
L 794 0 
L 794 531 
z
" transform="scale(0.015625)"/>
       </defs>
       <use xlink:href="#DejaVuSans-31"/>
       <use xlink:href="#DejaVuSans-30" x="63.623047"/>
       <use xlink:href="#DejaVuSans-30" x="127.246094"/>
      </g>
     </g>
    </g>
    <g id="text_3">
     <!-- Epoch -->
     <g transform="translate(86.727135 166.704375)scale(0.12 -0.12)">
      <defs>
       <path id="DejaVuSans-45" d="M 628 4666 
L 3578 4666 
L 3578 4134 
L 1259 4134 
L 1259 2753 
L 3481 2753 
L 3481 2222 
L 1259 2222 
L 1259 531 
L 3634 531 
L 3634 0 
L 628 0 
L 628 4666 
z
" transform="scale(0.015625)"/>
       <path id="DejaVuSans-70" d="M 1159 525 
L 1159 -1331 
L 581 -1331 
L 581 3500 
L 1159 3500 
L 1159 2969 
Q 1341 3281 1617 3432 
Q 1894 3584 2278 3584 
Q 2916 3584 3314 3078 
Q 3713 2572 3713 1747 
Q 3713 922 3314 415 
Q 2916 -91 2278 -91 
Q 1894 -91 1617 61 
Q 1341 213 1159 525 
z
M 3116 1747 
Q 3116 2381 2855 2742 
Q 2594 3103 2138 3103 
Q 1681 3103 1420 2742 
Q 1159 2381 1159 1747 
Q 1159 1113 1420 752 
Q 1681 391 2138 391 
Q 2594 391 2855 752 
Q 3116 1113 3116 1747 
z
" transform="scale(0.015625)"/>
       <path id="DejaVuSans-6f" d="M 1959 3097 
Q 1497 3097 1228 2736 
Q 959 2375 959 1747 
Q 959 1119 1226 758 
Q 1494 397 1959 397 
Q 2419 397 2687 759 
Q 2956 1122 2956 1747 
Q 2956 2369 2687 2733 
Q 2419 3097 1959 3097 
z
M 1959 3584 
Q 2709 3584 3137 3096 
Q 3566 2609 3566 1747 
Q 3566 888 3137 398 
Q 2709 -91 1959 -91 
Q 1206 -91 779 398 
Q 353 888 353 1747 
Q 353 2609 779 3096 
Q 1206 3584 1959 3584 
z
" transform="scale(0.015625)"/>
       <path id="DejaVuSans-63" d="M 3122 3366 
L 3122 2828 
Q 2878 2963 2633 3030 
Q 2388 3097 2138 3097 
Q 1578 3097 1268 2742 
Q 959 2388 959 1747 
Q 959 1106 1268 751 
Q 1578 397 2138 397 
Q 2388 397 2633 464 
Q 2878 531 3122 666 
L 3122 134 
Q 2881 22 2623 -34 
Q 2366 -91 2075 -91 
Q 1284 -91 818 406 
Q 353 903 353 1747 
Q 353 2603 823 3093 
Q 1294 3584 2113 3584 
Q 2378 3584 2631 3529 
Q 2884 3475 3122 3366 
z
" transform="scale(0.015625)"/>
       <path id="DejaVuSans-68" d="M 3513 2113 
L 3513 0 
L 2938 0 
L 2938 2094 
Q 2938 2591 2744 2837 
Q 2550 3084 2163 3084 
Q 1697 3084 1428 2787 
Q 1159 2491 1159 1978 
L 1159 0 
L 581 0 
L 581 4863 
L 1159 4863 
L 1159 2956 
Q 1366 3272 1645 3428 
Q 1925 3584 2291 3584 
Q 2894 3584 3203 3211 
Q 3513 2838 3513 2113 
z
" transform="scale(0.015625)"/>
      </defs>
      <use xlink:href="#DejaVuSans-45"/>
      <use xlink:href="#DejaVuSans-70" x="63.183594"/>
      <use xlink:href="#DejaVuSans-6f" x="126.660156"/>
      <use xlink:href="#DejaVuSans-63" x="187.841797"/>
      <use xlink:href="#DejaVuSans-68" x="242.822266"/>
     </g>
    </g>
   </g>
   <g id="matplotlib.axis_2">
    <g id="ytick_1">
     <g id="line2d_3">
      <defs>
       <path id="m7741aed4bc" d="M 0 0 
L -3.5 0 
" style="stroke: #000000; stroke-width: 0.8"/>
      </defs>
      <g>
       <use xlink:href="#m7741aed4bc" x="60.1325" y="124.941393" style="stroke: #000000; stroke-width: 0.8"/>
      </g>
     </g>
     <g id="text_4">
      <!-- 0.00 -->
      <g transform="translate(26.41375 129.500456)scale(0.12 -0.12)">
       <defs>
        <path id="DejaVuSans-2e" d="M 684 794 
L 1344 794 
L 1344 0 
L 684 0 
L 684 794 
z
" transform="scale(0.015625)"/>
       </defs>
       <use xlink:href="#DejaVuSans-30"/>
       <use xlink:href="#DejaVuSans-2e" x="63.623047"/>
       <use xlink:href="#DejaVuSans-30" x="95.410156"/>
       <use xlink:href="#DejaVuSans-30" x="159.033203"/>
      </g>
     </g>
    </g>
    <g id="ytick_2">
     <g id="line2d_4">
      <g>
       <use xlink:href="#m7741aed4bc" x="60.1325" y="99.863626" style="stroke: #000000; stroke-width: 0.8"/>
      </g>
     </g>
     <g id="text_5">
      <!-- 0.25 -->
      <g transform="translate(26.41375 104.422689)scale(0.12 -0.12)">
       <defs>
        <path id="DejaVuSans-32" d="M 1228 531 
L 3431 531 
L 3431 0 
L 469 0 
L 469 531 
Q 828 903 1448 1529 
Q 2069 2156 2228 2338 
Q 2531 2678 2651 2914 
Q 2772 3150 2772 3378 
Q 2772 3750 2511 3984 
Q 2250 4219 1831 4219 
Q 1534 4219 1204 4116 
Q 875 4013 500 3803 
L 500 4441 
Q 881 4594 1212 4672 
Q 1544 4750 1819 4750 
Q 2544 4750 2975 4387 
Q 3406 4025 3406 3419 
Q 3406 3131 3298 2873 
Q 3191 2616 2906 2266 
Q 2828 2175 2409 1742 
Q 1991 1309 1228 531 
z
" transform="scale(0.015625)"/>
        <path id="DejaVuSans-35" d="M 691 4666 
L 3169 4666 
L 3169 4134 
L 1269 4134 
L 1269 2991 
Q 1406 3038 1543 3061 
Q 1681 3084 1819 3084 
Q 2600 3084 3056 2656 
Q 3513 2228 3513 1497 
Q 3513 744 3044 326 
Q 2575 -91 1722 -91 
Q 1428 -91 1123 -41 
Q 819 9 494 109 
L 494 744 
Q 775 591 1075 516 
Q 1375 441 1709 441 
Q 2250 441 2565 725 
Q 2881 1009 2881 1497 
Q 2881 1984 2565 2268 
Q 2250 2553 1709 2553 
Q 1456 2553 1204 2497 
Q 953 2441 691 2322 
L 691 4666 
z
" transform="scale(0.015625)"/>
       </defs>
       <use xlink:href="#DejaVuSans-30"/>
       <use xlink:href="#DejaVuSans-2e" x="63.623047"/>
       <use xlink:href="#DejaVuSans-32" x="95.410156"/>
       <use xlink:href="#DejaVuSans-35" x="159.033203"/>
      </g>
     </g>
    </g>
    <g id="ytick_3">
     <g id="line2d_5">
      <g>
       <use xlink:href="#m7741aed4bc" x="60.1325" y="74.785859" style="stroke: #000000; stroke-width: 0.8"/>
      </g>
     </g>
     <g id="text_6">
      <!-- 0.50 -->
      <g transform="translate(26.41375 79.344922)scale(0.12 -0.12)">
       <use xlink:href="#DejaVuSans-30"/>
       <use xlink:href="#DejaVuSans-2e" x="63.623047"/>
       <use xlink:href="#DejaVuSans-35" x="95.410156"/>
       <use xlink:href="#DejaVuSans-30" x="159.033203"/>
      </g>
     </g>
    </g>
    <g id="ytick_4">
     <g id="line2d_6">
      <g>
       <use xlink:href="#m7741aed4bc" x="60.1325" y="49.708092" style="stroke: #000000; stroke-width: 0.8"/>
      </g>
     </g>
     <g id="text_7">
      <!-- 0.75 -->
      <g transform="translate(26.41375 54.267155)scale(0.12 -0.12)">
       <defs>
        <path id="DejaVuSans-37" d="M 525 4666 
L 3525 4666 
L 3525 4397 
L 1831 0 
L 1172 0 
L 2766 4134 
L 525 4134 
L 525 4666 
z
" transform="scale(0.015625)"/>
       </defs>
       <use xlink:href="#DejaVuSans-30"/>
       <use xlink:href="#DejaVuSans-2e" x="63.623047"/>
       <use xlink:href="#DejaVuSans-37" x="95.410156"/>
       <use xlink:href="#DejaVuSans-35" x="159.033203"/>
      </g>
     </g>
    </g>
    <g id="ytick_5">
     <g id="line2d_7">
      <g>
       <use xlink:href="#m7741aed4bc" x="60.1325" y="24.630326" style="stroke: #000000; stroke-width: 0.8"/>
      </g>
     </g>
     <g id="text_8">
      <!-- 1.00 -->
      <g transform="translate(26.41375 29.189388)scale(0.12 -0.12)">
       <use xlink:href="#DejaVuSans-31"/>
       <use xlink:href="#DejaVuSans-2e" x="63.623047"/>
       <use xlink:href="#DejaVuSans-30" x="95.410156"/>
       <use xlink:href="#DejaVuSans-30" x="159.033203"/>
      </g>
     </g>
    </g>
    <g id="text_9">
     <!-- Loss -->
     <g transform="translate(19.918125 87.946484)rotate(-90)scale(0.12 -0.12)">
      <defs>
       <path id="DejaVuSans-4c" d="M 628 4666 
L 1259 4666 
L 1259 531 
L 3531 531 
L 3531 0 
L 628 0 
L 628 4666 
z
" transform="scale(0.015625)"/>
       <path id="DejaVuSans-73" d="M 2834 3397 
L 2834 2853 
Q 2591 2978 2328 3040 
Q 2066 3103 1784 3103 
Q 1356 3103 1142 2972 
Q 928 2841 928 2578 
Q 928 2378 1081 2264 
Q 1234 2150 1697 2047 
L 1894 2003 
Q 2506 1872 2764 1633 
Q 3022 1394 3022 966 
Q 3022 478 2636 193 
Q 2250 -91 1575 -91 
Q 1294 -91 989 -36 
Q 684 19 347 128 
L 347 722 
Q 666 556 975 473 
Q 1284 391 1588 391 
Q 1994 391 2212 530 
Q 2431 669 2431 922 
Q 2431 1156 2273 1281 
Q 2116 1406 1581 1522 
L 1381 1569 
Q 847 1681 609 1914 
Q 372 2147 372 2553 
Q 372 3047 722 3315 
Q 1072 3584 1716 3584 
Q 2034 3584 2315 3537 
Q 2597 3491 2834 3397 
z
" transform="scale(0.015625)"/>
      </defs>
      <use xlink:href="#DejaVuSans-4c"/>
      <use xlink:href="#DejaVuSans-6f" x="53.962891"/>
      <use xlink:href="#DejaVuSans-73" x="115.144531"/>
      <use xlink:href="#DejaVuSans-73" x="167.244141"/>
     </g>
    </g>
   </g>
   <g id="line2d_8">
    <path d="M 64.220478 25.188286 
L 65.046332 26.916518 
L 65.872187 28.637515 
L 66.698041 30.327834 
L 67.523895 32.001471 
L 68.349749 33.655431 
L 69.175603 35.328692 
L 70.001458 37.041438 
L 70.827312 38.738004 
L 71.653166 40.421537 
L 72.47902 42.050637 
L 73.304874 43.751975 
L 74.130728 45.408135 
L 74.956583 47.050401 
L 75.782437 48.704959 
L 76.608291 50.313945 
L 77.434145 51.961693 
L 78.259999 53.603205 
L 79.085854 55.260388 
L 79.911708 56.824215 
L 80.737562 58.37899 
L 81.563416 59.964114 
L 82.38927 61.552658 
L 83.215124 63.202869 
L 84.040979 64.829571 
L 84.866833 66.486222 
L 85.692687 68.175363 
L 86.518541 69.791076 
L 87.344395 71.413975 
L 88.17025 73.246624 
L 88.996104 75.118459 
L 89.821958 77.03135 
L 90.647812 78.768041 
L 91.473666 80.334891 
L 92.299521 81.932391 
L 93.125375 83.460177 
L 93.951229 84.999567 
L 94.777083 86.479784 
L 95.602937 87.869604 
L 96.428791 89.315447 
L 97.254646 90.638033 
L 98.0805 91.870371 
L 98.906354 93.128608 
L 99.732208 94.445798 
L 100.558062 95.773006 
L 101.383917 97.060322 
L 102.209771 98.392038 
L 103.035625 99.900735 
L 103.861479 101.288141 
L 104.687333 102.403343 
L 105.513188 103.419051 
L 106.339042 104.428624 
L 107.164896 105.46785 
L 107.99075 106.447169 
L 108.816604 107.368504 
L 109.642458 108.348152 
L 110.468313 109.234797 
L 111.294167 110.177762 
L 112.120021 111.191094 
L 112.945875 112.094371 
L 113.771729 112.916946 
L 114.597584 113.579767 
L 115.423438 114.154922 
L 116.249292 114.732246 
L 117.075146 115.408586 
L 117.901 116.203746 
L 118.726854 116.906024 
L 119.552709 117.413706 
L 120.378563 117.911768 
L 121.204417 118.399322 
L 122.030271 118.86459 
L 122.856125 119.300817 
L 123.68198 119.682457 
L 124.507834 120.073098 
L 125.333688 120.491919 
L 126.159542 120.887405 
L 126.985396 121.204972 
L 127.811251 121.490201 
L 128.637105 121.797333 
L 129.462959 122.107721 
L 130.288813 122.382069 
L 131.114667 122.640175 
L 131.940521 122.84663 
L 132.766376 123.046404 
L 133.59223 123.252515 
L 134.418084 123.438895 
L 135.243938 123.577233 
L 136.069792 123.681301 
L 136.895647 123.776476 
L 137.721501 123.866601 
L 138.547355 123.94828 
L 139.373209 124.019561 
L 140.199063 124.082074 
L 141.024917 124.138483 
L 141.850772 124.191702 
L 142.676626 124.244662 
L 143.50248 124.300578 
L 144.328334 124.362695 
L 145.154188 124.422873 
L 145.980043 124.477149 
" clip-path="url(#p82d6155e84)" style="fill: none; stroke: #ff0000; stroke-width: 1.5; stroke-linecap: square"/>
   </g>
   <g id="line2d_9">
    <path d="M 64.220478 124.94139 
L 65.046332 124.941391 
L 65.872187 124.941392 
L 66.698041 124.941392 
L 67.523895 124.941392 
L 68.349749 124.941392 
L 69.175603 124.941393 
L 70.001458 124.941393 
L 70.827312 124.941393 
L 71.653166 124.941393 
L 72.47902 124.941393 
L 73.304874 124.941393 
L 74.130728 124.941393 
L 74.956583 124.941393 
L 75.782437 124.941393 
L 76.608291 124.941393 
L 77.434145 124.941393 
L 78.259999 124.941393 
L 79.085854 124.941393 
L 79.911708 124.941393 
L 80.737562 124.941393 
L 81.563416 124.941393 
L 82.38927 124.941393 
L 83.215124 124.941393 
L 84.040979 124.941393 
L 84.866833 124.941393 
L 85.692687 124.941393 
L 86.518541 124.941393 
L 87.344395 124.941393 
L 88.17025 124.941393 
L 88.996104 124.941393 
L 89.821958 124.941393 
L 90.647812 124.941393 
L 91.473666 124.941393 
L 92.299521 124.941393 
L 93.125375 124.941393 
L 93.951229 124.941393 
L 94.777083 124.941393 
L 95.602937 124.941393 
L 96.428791 124.941393 
L 97.254646 124.941393 
L 98.0805 124.941393 
L 98.906354 124.941393 
L 99.732208 124.941393 
L 100.558062 124.941393 
L 101.383917 124.941393 
L 102.209771 124.941393 
L 103.035625 124.941393 
L 103.861479 124.941393 
L 104.687333 124.941393 
L 105.513188 124.941393 
L 106.339042 124.941393 
L 107.164896 124.941393 
L 107.99075 124.941393 
L 108.816604 124.941393 
L 109.642458 124.941393 
L 110.468313 124.941393 
L 111.294167 124.941393 
L 112.120021 124.941393 
L 112.945875 124.941393 
L 113.771729 124.941393 
L 114.597584 124.941393 
L 115.423438 124.941393 
L 116.249292 124.941393 
L 117.075146 124.941393 
L 117.901 124.941393 
L 118.726854 124.941393 
L 119.552709 124.941393 
L 120.378563 124.941393 
L 121.204417 124.941393 
L 122.030271 124.941393 
L 122.856125 124.941393 
L 123.68198 124.941393 
L 124.507834 124.941393 
L 125.333688 124.941393 
L 126.159542 124.941393 
L 126.985396 124.941393 
L 127.811251 124.941393 
L 128.637105 124.941393 
L 129.462959 124.941393 
L 130.288813 124.941393 
L 131.114667 124.941393 
L 131.940521 124.941393 
L 132.766376 124.941393 
L 133.59223 124.941393 
L 134.418084 124.941393 
L 135.243938 124.941393 
L 136.069792 124.941393 
L 136.895647 124.941393 
L 137.721501 124.941393 
L 138.547355 124.941393 
L 139.373209 124.941393 
L 140.199063 124.941393 
L 141.024917 124.941393 
L 141.850772 124.941393 
L 142.676626 124.941393 
L 143.50248 124.941393 
L 144.328334 124.941393 
L 145.154188 124.941393 
L 145.980043 124.941393 
" clip-path="url(#p82d6155e84)" style="fill: none; stroke-dasharray: 3.7,1.6; stroke-dashoffset: 0; stroke: #ff0000"/>
   </g>
   <g id="line2d_10">
    <path d="M 64.220478 24.630326 
L 65.046332 26.345559 
L 65.872187 28.057001 
L 66.698041 29.742567 
L 67.523895 31.399289 
L 68.349749 33.023791 
L 69.175603 34.646954 
L 70.001458 36.32486 
L 70.827312 38.017355 
L 71.653166 39.690502 
L 72.47902 41.308343 
L 73.304874 42.936474 
L 74.130728 44.614506 
L 74.956583 46.21551 
L 75.782437 47.835414 
L 76.608291 49.431647 
L 77.434145 50.974966 
L 78.259999 52.612502 
L 79.085854 54.260986 
L 79.911708 55.933834 
L 80.737562 57.425554 
L 81.563416 58.959348 
L 82.38927 60.490972 
L 83.215124 62.039158 
L 84.040979 63.707486 
L 84.866833 65.240999 
L 85.692687 66.819056 
L 86.518541 68.474062 
L 87.344395 70.052657 
L 88.17025 71.48778 
L 88.996104 73.151444 
L 89.821958 75.14057 
L 90.647812 77.145049 
L 91.473666 78.984096 
L 92.299521 80.542864 
L 93.125375 82.081298 
L 93.951229 83.68282 
L 94.777083 85.245131 
L 95.602937 86.770534 
L 96.428791 88.072654 
L 97.254646 89.449568 
L 98.0805 90.781774 
L 98.906354 91.993443 
L 99.732208 93.209199 
L 100.558062 94.467744 
L 101.383917 95.819487 
L 102.209771 97.041195 
L 103.035625 98.298131 
L 103.861479 99.608622 
L 104.687333 101.261723 
L 105.513188 102.514051 
L 106.339042 103.542278 
L 107.164896 104.590642 
L 107.99075 105.622978 
L 108.816604 106.599323 
L 109.642458 107.459226 
L 110.468313 108.476363 
L 111.294167 109.3671 
L 112.120021 110.301363 
L 112.945875 111.294645 
L 113.771729 112.258486 
L 114.597584 113.154818 
L 115.423438 113.783105 
L 116.249292 114.333296 
L 117.075146 114.900069 
L 117.901 115.611113 
L 118.726854 116.419783 
L 119.552709 117.086961 
L 120.378563 117.587765 
L 121.204417 118.105666 
L 122.030271 118.598167 
L 122.856125 119.068478 
L 123.68198 119.45975 
L 124.507834 119.836734 
L 125.333688 120.243161 
L 126.159542 120.694192 
L 126.985396 121.053181 
L 127.811251 121.332421 
L 128.637105 121.606673 
L 129.462959 121.90177 
L 130.288813 122.159876 
L 131.114667 122.375474 
L 131.940521 122.569437 
L 132.766376 122.785414 
L 133.59223 123.112122 
L 134.418084 123.354323 
L 135.243938 123.538804 
L 136.069792 123.65151 
L 136.895647 123.748139 
L 137.721501 123.839493 
L 138.547355 123.921627 
L 139.373209 123.993213 
L 140.199063 124.058092 
L 141.024917 124.122164 
L 141.850772 124.183733 
L 142.676626 124.238071 
L 143.50248 124.290718 
L 144.328334 124.346534 
L 145.154188 124.40774 
L 145.980043 124.460737 
" clip-path="url(#p82d6155e84)" style="fill: none; stroke: #000000; stroke-width: 1.5; stroke-linecap: square"/>
   </g>
   <g id="line2d_11">
    <path d="M 64.220478 124.941389 
L 65.046332 124.941391 
L 65.872187 124.941391 
L 66.698041 124.941392 
L 67.523895 124.941392 
L 68.349749 124.941393 
L 69.175603 124.941393 
L 70.001458 124.941393 
L 70.827312 124.941393 
L 71.653166 124.941393 
L 72.47902 124.941393 
L 73.304874 124.941393 
L 74.130728 124.941393 
L 74.956583 124.941393 
L 75.782437 124.941393 
L 76.608291 124.941393 
L 77.434145 124.941393 
L 78.259999 124.941393 
L 79.085854 124.941393 
L 79.911708 124.941393 
L 80.737562 124.941393 
L 81.563416 124.941393 
L 82.38927 124.941393 
L 83.215124 124.941393 
L 84.040979 124.941393 
L 84.866833 124.941393 
L 85.692687 124.941393 
L 86.518541 124.941393 
L 87.344395 124.941393 
L 88.17025 124.941393 
L 88.996104 124.941393 
L 89.821958 124.941393 
L 90.647812 124.941393 
L 91.473666 124.941393 
L 92.299521 124.941393 
L 93.125375 124.941393 
L 93.951229 124.941393 
L 94.777083 124.941393 
L 95.602937 124.941393 
L 96.428791 124.941393 
L 97.254646 124.941393 
L 98.0805 124.941393 
L 98.906354 124.941393 
L 99.732208 124.941393 
L 100.558062 124.941393 
L 101.383917 124.941393 
L 102.209771 124.941393 
L 103.035625 124.941393 
L 103.861479 124.941393 
L 104.687333 124.941393 
L 105.513188 124.941393 
L 106.339042 124.941393 
L 107.164896 124.941393 
L 107.99075 124.941393 
L 108.816604 124.941393 
L 109.642458 124.941393 
L 110.468313 124.941393 
L 111.294167 124.941393 
L 112.120021 124.941393 
L 112.945875 124.941393 
L 113.771729 124.941393 
L 114.597584 124.941393 
L 115.423438 124.941393 
L 116.249292 124.941393 
L 117.075146 124.941393 
L 117.901 124.941393 
L 118.726854 124.941393 
L 119.552709 124.941393 
L 120.378563 124.941393 
L 121.204417 124.941393 
L 122.030271 124.941393 
L 122.856125 124.941393 
L 123.68198 124.941393 
L 124.507834 124.941393 
L 125.333688 124.941393 
L 126.159542 124.941393 
L 126.985396 124.941393 
L 127.811251 124.941393 
L 128.637105 124.941393 
L 129.462959 124.941393 
L 130.288813 124.941393 
L 131.114667 124.941393 
L 131.940521 124.941393 
L 132.766376 124.941393 
L 133.59223 124.941393 
L 134.418084 124.941393 
L 135.243938 124.941393 
L 136.069792 124.941393 
L 136.895647 124.941393 
L 137.721501 124.941393 
L 138.547355 124.941393 
L 139.373209 124.941393 
L 140.199063 124.941393 
L 141.024917 124.941393 
L 141.850772 124.941393 
L 142.676626 124.941393 
L 143.50248 124.941393 
L 144.328334 124.941393 
L 145.154188 124.941393 
L 145.980043 124.941393 
" clip-path="url(#p82d6155e84)" style="fill: none; stroke-dasharray: 3.7,1.6; stroke-dashoffset: 0; stroke: #000000"/>
   </g>
   <g id="patch_3">
    <path d="M 60.1325 134.9725 
L 60.1325 14.599219 
" style="fill: none; stroke: #000000; stroke-width: 0.8; stroke-linejoin: miter; stroke-linecap: square"/>
   </g>
   <g id="patch_4">
    <path d="M 150.068021 134.9725 
L 150.068021 14.599219 
" style="fill: none; stroke: #000000; stroke-width: 0.8; stroke-linejoin: miter; stroke-linecap: square"/>
   </g>
   <g id="patch_5">
    <path d="M 60.1325 134.9725 
L 150.068021 134.9725 
" style="fill: none; stroke: #000000; stroke-width: 0.8; stroke-linejoin: miter; stroke-linecap: square"/>
   </g>
   <g id="patch_6">
    <path d="M 60.1325 14.599219 
L 150.068021 14.599219 
" style="fill: none; stroke: #000000; stroke-width: 0.8; stroke-linejoin: miter; stroke-linecap: square"/>
   </g>
  </g>
  <g id="axes_2">
   <g id="patch_7">
    <path d="M 191.722708 134.9725 
L 281.658229 134.9725 
L 281.658229 14.599219 
L 191.722708 14.599219 
z
" style="fill: #ffffff"/>
   </g>
   <g id="matplotlib.axis_3">
    <g id="xtick_3">
     <g id="line2d_12">
      <g>
       <use xlink:href="#m7380cb5adb" x="191.722708" y="134.9725" style="stroke: #000000; stroke-width: 0.8"/>
      </g>
     </g>
     <g id="text_10">
      <!-- 0.0 -->
      <g transform="translate(183.771146 149.570938)scale(0.1 -0.1)">
       <use xlink:href="#DejaVuSans-30"/>
       <use xlink:href="#DejaVuSans-2e" x="63.623047"/>
       <use xlink:href="#DejaVuSans-30" x="95.410156"/>
      </g>
     </g>
    </g>
    <g id="xtick_4">
     <g id="line2d_13">
      <g>
       <use xlink:href="#m7380cb5adb" x="236.690469" y="134.9725" style="stroke: #000000; stroke-width: 0.8"/>
      </g>
     </g>
     <g id="text_11">
      <!-- 0.5 -->
      <g transform="translate(228.738906 149.570938)scale(0.1 -0.1)">
       <use xlink:href="#DejaVuSans-30"/>
       <use xlink:href="#DejaVuSans-2e" x="63.623047"/>
       <use xlink:href="#DejaVuSans-35" x="95.410156"/>
      </g>
     </g>
    </g>
    <g id="xtick_5">
     <g id="line2d_14">
      <g>
       <use xlink:href="#m7380cb5adb" x="281.658229" y="134.9725" style="stroke: #000000; stroke-width: 0.8"/>
      </g>
     </g>
     <g id="text_12">
      <!-- 1.0 -->
      <g transform="translate(273.706667 149.570938)scale(0.1 -0.1)">
       <use xlink:href="#DejaVuSans-31"/>
       <use xlink:href="#DejaVuSans-2e" x="63.623047"/>
       <use xlink:href="#DejaVuSans-30" x="95.410156"/>
      </g>
     </g>
    </g>
   </g>
   <g id="matplotlib.axis_4">
    <g id="ytick_6">
     <g id="line2d_15">
      <g>
       <use xlink:href="#m7741aed4bc" x="191.722708" y="134.9725" style="stroke: #000000; stroke-width: 0.8"/>
      </g>
     </g>
     <g id="text_13">
      <!-- 0.0 -->
      <g transform="translate(168.819583 138.771719)scale(0.1 -0.1)">
       <use xlink:href="#DejaVuSans-30"/>
       <use xlink:href="#DejaVuSans-2e" x="63.623047"/>
       <use xlink:href="#DejaVuSans-30" x="95.410156"/>
      </g>
     </g>
    </g>
    <g id="ytick_7">
     <g id="line2d_16">
      <g>
       <use xlink:href="#m7741aed4bc" x="191.722708" y="110.897844" style="stroke: #000000; stroke-width: 0.8"/>
      </g>
     </g>
     <g id="text_14">
      <!-- 0.2 -->
      <g transform="translate(168.819583 114.697063)scale(0.1 -0.1)">
       <use xlink:href="#DejaVuSans-30"/>
       <use xlink:href="#DejaVuSans-2e" x="63.623047"/>
       <use xlink:href="#DejaVuSans-32" x="95.410156"/>
      </g>
     </g>
    </g>
    <g id="ytick_8">
     <g id="line2d_17">
      <g>
       <use xlink:href="#m7741aed4bc" x="191.722708" y="86.823188" style="stroke: #000000; stroke-width: 0.8"/>
      </g>
     </g>
     <g id="text_15">
      <!-- 0.4 -->
      <g transform="translate(168.819583 90.622406)scale(0.1 -0.1)">
       <defs>
        <path id="DejaVuSans-34" d="M 2419 4116 
L 825 1625 
L 2419 1625 
L 2419 4116 
z
M 2253 4666 
L 3047 4666 
L 3047 1625 
L 3713 1625 
L 3713 1100 
L 3047 1100 
L 3047 0 
L 2419 0 
L 2419 1100 
L 313 1100 
L 313 1709 
L 2253 4666 
z
" transform="scale(0.015625)"/>
       </defs>
       <use xlink:href="#DejaVuSans-30"/>
       <use xlink:href="#DejaVuSans-2e" x="63.623047"/>
       <use xlink:href="#DejaVuSans-34" x="95.410156"/>
      </g>
     </g>
    </g>
    <g id="ytick_9">
     <g id="line2d_18">
      <g>
       <use xlink:href="#m7741aed4bc" x="191.722708" y="62.748531" style="stroke: #000000; stroke-width: 0.8"/>
      </g>
     </g>
     <g id="text_16">
      <!-- 0.6 -->
      <g transform="translate(168.819583 66.54775)scale(0.1 -0.1)">
       <defs>
        <path id="DejaVuSans-36" d="M 2113 2584 
Q 1688 2584 1439 2293 
Q 1191 2003 1191 1497 
Q 1191 994 1439 701 
Q 1688 409 2113 409 
Q 2538 409 2786 701 
Q 3034 994 3034 1497 
Q 3034 2003 2786 2293 
Q 2538 2584 2113 2584 
z
M 3366 4563 
L 3366 3988 
Q 3128 4100 2886 4159 
Q 2644 4219 2406 4219 
Q 1781 4219 1451 3797 
Q 1122 3375 1075 2522 
Q 1259 2794 1537 2939 
Q 1816 3084 2150 3084 
Q 2853 3084 3261 2657 
Q 3669 2231 3669 1497 
Q 3669 778 3244 343 
Q 2819 -91 2113 -91 
Q 1303 -91 875 529 
Q 447 1150 447 2328 
Q 447 3434 972 4092 
Q 1497 4750 2381 4750 
Q 2619 4750 2861 4703 
Q 3103 4656 3366 4563 
z
" transform="scale(0.015625)"/>
       </defs>
       <use xlink:href="#DejaVuSans-30"/>
       <use xlink:href="#DejaVuSans-2e" x="63.623047"/>
       <use xlink:href="#DejaVuSans-36" x="95.410156"/>
      </g>
     </g>
    </g>
    <g id="ytick_10">
     <g id="line2d_19">
      <g>
       <use xlink:href="#m7741aed4bc" x="191.722708" y="38.673875" style="stroke: #000000; stroke-width: 0.8"/>
      </g>
     </g>
     <g id="text_17">
      <!-- 0.8 -->
      <g transform="translate(168.819583 42.473094)scale(0.1 -0.1)">
       <defs>
        <path id="DejaVuSans-38" d="M 2034 2216 
Q 1584 2216 1326 1975 
Q 1069 1734 1069 1313 
Q 1069 891 1326 650 
Q 1584 409 2034 409 
Q 2484 409 2743 651 
Q 3003 894 3003 1313 
Q 3003 1734 2745 1975 
Q 2488 2216 2034 2216 
z
M 1403 2484 
Q 997 2584 770 2862 
Q 544 3141 544 3541 
Q 544 4100 942 4425 
Q 1341 4750 2034 4750 
Q 2731 4750 3128 4425 
Q 3525 4100 3525 3541 
Q 3525 3141 3298 2862 
Q 3072 2584 2669 2484 
Q 3125 2378 3379 2068 
Q 3634 1759 3634 1313 
Q 3634 634 3220 271 
Q 2806 -91 2034 -91 
Q 1263 -91 848 271 
Q 434 634 434 1313 
Q 434 1759 690 2068 
Q 947 2378 1403 2484 
z
M 1172 3481 
Q 1172 3119 1398 2916 
Q 1625 2713 2034 2713 
Q 2441 2713 2670 2916 
Q 2900 3119 2900 3481 
Q 2900 3844 2670 4047 
Q 2441 4250 2034 4250 
Q 1625 4250 1398 4047 
Q 1172 3844 1172 3481 
z
" transform="scale(0.015625)"/>
       </defs>
       <use xlink:href="#DejaVuSans-30"/>
       <use xlink:href="#DejaVuSans-2e" x="63.623047"/>
       <use xlink:href="#DejaVuSans-38" x="95.410156"/>
      </g>
     </g>
    </g>
    <g id="ytick_11">
     <g id="line2d_20">
      <g>
       <use xlink:href="#m7741aed4bc" x="191.722708" y="14.599219" style="stroke: #000000; stroke-width: 0.8"/>
      </g>
     </g>
     <g id="text_18">
      <!-- 1.0 -->
      <g transform="translate(168.819583 18.398438)scale(0.1 -0.1)">
       <use xlink:href="#DejaVuSans-31"/>
       <use xlink:href="#DejaVuSans-2e" x="63.623047"/>
       <use xlink:href="#DejaVuSans-30" x="95.410156"/>
      </g>
     </g>
    </g>
   </g>
   <g id="patch_8">
    <path d="M 191.722708 134.9725 
L 191.722708 14.599219 
" style="fill: none; stroke: #000000; stroke-width: 0.8; stroke-linejoin: miter; stroke-linecap: square"/>
   </g>
   <g id="patch_9">
    <path d="M 281.658229 134.9725 
L 281.658229 14.599219 
" style="fill: none; stroke: #000000; stroke-width: 0.8; stroke-linejoin: miter; stroke-linecap: square"/>
   </g>
   <g id="patch_10">
    <path d="M 191.722708 134.9725 
L 281.658229 134.9725 
" style="fill: none; stroke: #000000; stroke-width: 0.8; stroke-linejoin: miter; stroke-linecap: square"/>
   </g>
   <g id="patch_11">
    <path d="M 191.722708 14.599219 
L 281.658229 14.599219 
" style="fill: none; stroke: #000000; stroke-width: 0.8; stroke-linejoin: miter; stroke-linecap: square"/>
   </g>
  </g>
  <g id="axes_3">
   <g id="patch_12">
    <path d="M 323.312917 134.9725 
L 413.248437 134.9725 
L 413.248437 14.599219 
L 323.312917 14.599219 
z
" style="fill: #ffffff"/>
   </g>
   <g id="matplotlib.axis_5">
    <g id="xtick_6">
     <g id="line2d_21">
      <g>
       <use xlink:href="#m7380cb5adb" x="323.312917" y="134.9725" style="stroke: #000000; stroke-width: 0.8"/>
      </g>
     </g>
     <g id="text_19">
      <!-- 0.0 -->
      <g transform="translate(315.361354 149.570938)scale(0.1 -0.1)">
       <use xlink:href="#DejaVuSans-30"/>
       <use xlink:href="#DejaVuSans-2e" x="63.623047"/>
       <use xlink:href="#DejaVuSans-30" x="95.410156"/>
      </g>
     </g>
    </g>
    <g id="xtick_7">
     <g id="line2d_22">
      <g>
       <use xlink:href="#m7380cb5adb" x="368.280677" y="134.9725" style="stroke: #000000; stroke-width: 0.8"/>
      </g>
     </g>
     <g id="text_20">
      <!-- 0.5 -->
      <g transform="translate(360.329115 149.570938)scale(0.1 -0.1)">
       <use xlink:href="#DejaVuSans-30"/>
       <use xlink:href="#DejaVuSans-2e" x="63.623047"/>
       <use xlink:href="#DejaVuSans-35" x="95.410156"/>
      </g>
     </g>
    </g>
    <g id="xtick_8">
     <g id="line2d_23">
      <g>
       <use xlink:href="#m7380cb5adb" x="413.248437" y="134.9725" style="stroke: #000000; stroke-width: 0.8"/>
      </g>
     </g>
     <g id="text_21">
      <!-- 1.0 -->
      <g transform="translate(405.296875 149.570938)scale(0.1 -0.1)">
       <use xlink:href="#DejaVuSans-31"/>
       <use xlink:href="#DejaVuSans-2e" x="63.623047"/>
       <use xlink:href="#DejaVuSans-30" x="95.410156"/>
      </g>
     </g>
    </g>
   </g>
   <g id="matplotlib.axis_6">
    <g id="ytick_12">
     <g id="line2d_24">
      <g>
       <use xlink:href="#m7741aed4bc" x="323.312917" y="134.9725" style="stroke: #000000; stroke-width: 0.8"/>
      </g>
     </g>
     <g id="text_22">
      <!-- 0.0 -->
      <g transform="translate(300.409792 138.771719)scale(0.1 -0.1)">
       <use xlink:href="#DejaVuSans-30"/>
       <use xlink:href="#DejaVuSans-2e" x="63.623047"/>
       <use xlink:href="#DejaVuSans-30" x="95.410156"/>
      </g>
     </g>
    </g>
    <g id="ytick_13">
     <g id="line2d_25">
      <g>
       <use xlink:href="#m7741aed4bc" x="323.312917" y="110.897844" style="stroke: #000000; stroke-width: 0.8"/>
      </g>
     </g>
     <g id="text_23">
      <!-- 0.2 -->
      <g transform="translate(300.409792 114.697063)scale(0.1 -0.1)">
       <use xlink:href="#DejaVuSans-30"/>
       <use xlink:href="#DejaVuSans-2e" x="63.623047"/>
       <use xlink:href="#DejaVuSans-32" x="95.410156"/>
      </g>
     </g>
    </g>
    <g id="ytick_14">
     <g id="line2d_26">
      <g>
       <use xlink:href="#m7741aed4bc" x="323.312917" y="86.823188" style="stroke: #000000; stroke-width: 0.8"/>
      </g>
     </g>
     <g id="text_24">
      <!-- 0.4 -->
      <g transform="translate(300.409792 90.622406)scale(0.1 -0.1)">
       <use xlink:href="#DejaVuSans-30"/>
       <use xlink:href="#DejaVuSans-2e" x="63.623047"/>
       <use xlink:href="#DejaVuSans-34" x="95.410156"/>
      </g>
     </g>
    </g>
    <g id="ytick_15">
     <g id="line2d_27">
      <g>
       <use xlink:href="#m7741aed4bc" x="323.312917" y="62.748531" style="stroke: #000000; stroke-width: 0.8"/>
      </g>
     </g>
     <g id="text_25">
      <!-- 0.6 -->
      <g transform="translate(300.409792 66.54775)scale(0.1 -0.1)">
       <use xlink:href="#DejaVuSans-30"/>
       <use xlink:href="#DejaVuSans-2e" x="63.623047"/>
       <use xlink:href="#DejaVuSans-36" x="95.410156"/>
      </g>
     </g>
    </g>
    <g id="ytick_16">
     <g id="line2d_28">
      <g>
       <use xlink:href="#m7741aed4bc" x="323.312917" y="38.673875" style="stroke: #000000; stroke-width: 0.8"/>
      </g>
     </g>
     <g id="text_26">
      <!-- 0.8 -->
      <g transform="translate(300.409792 42.473094)scale(0.1 -0.1)">
       <use xlink:href="#DejaVuSans-30"/>
       <use xlink:href="#DejaVuSans-2e" x="63.623047"/>
       <use xlink:href="#DejaVuSans-38" x="95.410156"/>
      </g>
     </g>
    </g>
    <g id="ytick_17">
     <g id="line2d_29">
      <g>
       <use xlink:href="#m7741aed4bc" x="323.312917" y="14.599219" style="stroke: #000000; stroke-width: 0.8"/>
      </g>
     </g>
     <g id="text_27">
      <!-- 1.0 -->
      <g transform="translate(300.409792 18.398438)scale(0.1 -0.1)">
       <use xlink:href="#DejaVuSans-31"/>
       <use xlink:href="#DejaVuSans-2e" x="63.623047"/>
       <use xlink:href="#DejaVuSans-30" x="95.410156"/>
      </g>
     </g>
    </g>
   </g>
   <g id="patch_13">
    <path d="M 323.312917 134.9725 
L 323.312917 14.599219 
" style="fill: none; stroke: #000000; stroke-width: 0.8; stroke-linejoin: miter; stroke-linecap: square"/>
   </g>
   <g id="patch_14">
    <path d="M 413.248437 134.9725 
L 413.248437 14.599219 
" style="fill: none; stroke: #000000; stroke-width: 0.8; stroke-linejoin: miter; stroke-linecap: square"/>
   </g>
   <g id="patch_15">
    <path d="M 323.312917 134.9725 
L 413.248437 134.9725 
" style="fill: none; stroke: #000000; stroke-width: 0.8; stroke-linejoin: miter; stroke-linecap: square"/>
   </g>
   <g id="patch_16">
    <path d="M 323.312917 14.599219 
L 413.248437 14.599219 
" style="fill: none; stroke: #000000; stroke-width: 0.8; stroke-linejoin: miter; stroke-linecap: square"/>
   </g>
  </g>
 </g>
 <defs>
  <clipPath id="p82d6155e84">
   <rect x="60.1325" y="14.599219" width="89.935521" height="120.373281"/>
  </clipPath>
 </defs>
</svg>
