<?xml version="1.0" encoding="utf-8" standalone="no"?>
<!DOCTYPE svg PUBLIC "-//W3C//DTD SVG 1.1//EN"
  "http://www.w3.org/Graphics/SVG/1.1/DTD/svg11.dtd">
<svg xmlns:xlink="http://www.w3.org/1999/xlink" width="504pt" height="180pt" viewBox="0 0 504 180" xmlns="http://www.w3.org/2000/svg" version="1.1">
 <metadata>
  <rdf:RDF xmlns:dc="http://purl.org/dc/elements/1.1/" xmlns:cc="http://creativecommons.org/ns#" xmlns:rdf="http://www.w3.org/1999/02/22-rdf-syntax-ns#">
   <cc:Work>
    <dc:type rdf:resource="http://purl.org/dc/dcmitype/StillImage"/>
    <dc:date>2025-05-08T15:09:24.020555</dc:date>
    <dc:format>image/svg+xml</dc:format>
    <dc:creator>
     <cc:Agent>
      <dc:title>Matplotlib v3.5.2, https://matplotlib.org/</dc:title>
     </cc:Agent>
    </dc:creator>
   </cc:Work>
  </rdf:RDF>
 </metadata>
 <defs>
  <style type="text/css">*{stroke-linejoin: round; stroke-linecap: butt}</style>
 </defs>
 <g id="figure_1">
  <g id="patch_1">
   <path d="M 0 180 
L 504 180 
L 504 0 
L 0 0 
z
" style="fill: #ffffff"/>
  </g>
  <g id="axes_1">
   <g id="patch_2">
    <path d="M 52.4975 134.9725 
L 147.863241 134.9725 
L 147.863241 10.8 
L 52.4975 10.8 
z
" style="fill: #ffffff"/>
   </g>
   <g id="matplotlib.axis_1">
    <g id="xtick_1">
     <g id="line2d_1">
      <defs>
       <path id="m60514a6545" d="M 0 0 
L 0 3.5 
" style="stroke: #000000; stroke-width: 0.8"/>
      </defs>
      <g>
       <use xlink:href="#m60514a6545" x="56.832306" y="134.9725" style="stroke: #000000; stroke-width: 0.8"/>
      </g>
     </g>
     <g id="text_1">
      <!-- 0 -->
      <g transform="translate(53.014806 151.090625)scale(0.12 -0.12)">
       <defs>
        <path id="DejaVuSans-30" d="M 2034 4250 
Q 1547 4250 1301 3770 
Q 1056 3291 1056 2328 
Q 1056 1369 1301 889 
Q 1547 409 2034 409 
Q 2525 409 2770 889 
Q 3016 1369 3016 2328 
Q 3016 3291 2770 3770 
Q 2525 4250 2034 4250 
z
M 2034 4750 
Q 2819 4750 3233 4129 
Q 3647 3509 3647 2328 
Q 3647 1150 3233 529 
Q 2819 -91 2034 -91 
Q 1250 -91 836 529 
Q 422 1150 422 2328 
Q 422 3509 836 4129 
Q 1250 4750 2034 4750 
z
" transform="scale(0.015625)"/>
       </defs>
       <use xlink:href="#DejaVuSans-30"/>
      </g>
     </g>
    </g>
    <g id="xtick_2">
     <g id="line2d_2">
      <g>
       <use xlink:href="#m60514a6545" x="100.61823" y="134.9725" style="stroke: #000000; stroke-width: 0.8"/>
      </g>
     </g>
     <g id="text_2">
      <!-- 50 -->
      <g transform="translate(92.98323 151.090625)scale(0.12 -0.12)">
       <defs>
        <path id="DejaVuSans-35" d="M 691 4666 
L 3169 4666 
L 3169 4134 
L 1269 4134 
L 1269 2991 
Q 1406 3038 1543 3061 
Q 1681 3084 1819 3084 
Q 2600 3084 3056 2656 
Q 3513 2228 3513 1497 
Q 3513 744 3044 326 
Q 2575 -91 1722 -91 
Q 1428 -91 1123 -41 
Q 819 9 494 109 
L 494 744 
Q 775 591 1075 516 
Q 1375 441 1709 441 
Q 2250 441 2565 725 
Q 2881 1009 2881 1497 
Q 2881 1984 2565 2268 
Q 2250 2553 1709 2553 
Q 1456 2553 1204 2497 
Q 953 2441 691 2322 
L 691 4666 
z
" transform="scale(0.015625)"/>
       </defs>
       <use xlink:href="#DejaVuSans-35"/>
       <use xlink:href="#DejaVuSans-30" x="63.623047"/>
      </g>
     </g>
    </g>
    <g id="xtick_3">
     <g id="line2d_3">
      <g>
       <use xlink:href="#m60514a6545" x="144.404153" y="134.9725" style="stroke: #000000; stroke-width: 0.8"/>
      </g>
     </g>
     <g id="text_3">
      <!-- 100 -->
      <g transform="translate(132.951653 151.090625)scale(0.12 -0.12)">
       <defs>
        <path id="DejaVuSans-31" d="M 794 531 
L 1825 531 
L 1825 4091 
L 703 3866 
L 703 4441 
L 1819 4666 
L 2450 4666 
L 2450 531 
L 3481 531 
L 3481 0 
L 794 0 
L 794 531 
z
" transform="scale(0.015625)"/>
       </defs>
       <use xlink:href="#DejaVuSans-31"/>
       <use xlink:href="#DejaVuSans-30" x="63.623047"/>
       <use xlink:href="#DejaVuSans-30" x="127.246094"/>
      </g>
     </g>
    </g>
    <g id="text_4">
     <!-- Epoch -->
     <g transform="translate(81.807245 166.704375)scale(0.12 -0.12)">
      <defs>
       <path id="DejaVuSans-45" d="M 628 4666 
L 3578 4666 
L 3578 4134 
L 1259 4134 
L 1259 2753 
L 3481 2753 
L 3481 2222 
L 1259 2222 
L 1259 531 
L 3634 531 
L 3634 0 
L 628 0 
L 628 4666 
z
" transform="scale(0.015625)"/>
       <path id="DejaVuSans-70" d="M 1159 525 
L 1159 -1331 
L 581 -1331 
L 581 3500 
L 1159 3500 
L 1159 2969 
Q 1341 3281 1617 3432 
Q 1894 3584 2278 3584 
Q 2916 3584 3314 3078 
Q 3713 2572 3713 1747 
Q 3713 922 3314 415 
Q 2916 -91 2278 -91 
Q 1894 -91 1617 61 
Q 1341 213 1159 525 
z
M 3116 1747 
Q 3116 2381 2855 2742 
Q 2594 3103 2138 3103 
Q 1681 3103 1420 2742 
Q 1159 2381 1159 1747 
Q 1159 1113 1420 752 
Q 1681 391 2138 391 
Q 2594 391 2855 752 
Q 3116 1113 3116 1747 
z
" transform="scale(0.015625)"/>
       <path id="DejaVuSans-6f" d="M 1959 3097 
Q 1497 3097 1228 2736 
Q 959 2375 959 1747 
Q 959 1119 1226 758 
Q 1494 397 1959 397 
Q 2419 397 2687 759 
Q 2956 1122 2956 1747 
Q 2956 2369 2687 2733 
Q 2419 3097 1959 3097 
z
M 1959 3584 
Q 2709 3584 3137 3096 
Q 3566 2609 3566 1747 
Q 3566 888 3137 398 
Q 2709 -91 1959 -91 
Q 1206 -91 779 398 
Q 353 888 353 1747 
Q 353 2609 779 3096 
Q 1206 3584 1959 3584 
z
" transform="scale(0.015625)"/>
       <path id="DejaVuSans-63" d="M 3122 3366 
L 3122 2828 
Q 2878 2963 2633 3030 
Q 2388 3097 2138 3097 
Q 1578 3097 1268 2742 
Q 959 2388 959 1747 
Q 959 1106 1268 751 
Q 1578 397 2138 397 
Q 2388 397 2633 464 
Q 2878 531 3122 666 
L 3122 134 
Q 2881 22 2623 -34 
Q 2366 -91 2075 -91 
Q 1284 -91 818 406 
Q 353 903 353 1747 
Q 353 2603 823 3093 
Q 1294 3584 2113 3584 
Q 2378 3584 2631 3529 
Q 2884 3475 3122 3366 
z
" transform="scale(0.015625)"/>
       <path id="DejaVuSans-68" d="M 3513 2113 
L 3513 0 
L 2938 0 
L 2938 2094 
Q 2938 2591 2744 2837 
Q 2550 3084 2163 3084 
Q 1697 3084 1428 2787 
Q 1159 2491 1159 1978 
L 1159 0 
L 581 0 
L 581 4863 
L 1159 4863 
L 1159 2956 
Q 1366 3272 1645 3428 
Q 1925 3584 2291 3584 
Q 2894 3584 3203 3211 
Q 3513 2838 3513 2113 
z
" transform="scale(0.015625)"/>
      </defs>
      <use xlink:href="#DejaVuSans-45"/>
      <use xlink:href="#DejaVuSans-70" x="63.183594"/>
      <use xlink:href="#DejaVuSans-6f" x="126.660156"/>
      <use xlink:href="#DejaVuSans-63" x="187.841797"/>
      <use xlink:href="#DejaVuSans-68" x="242.822266"/>
     </g>
    </g>
   </g>
   <g id="matplotlib.axis_2">
    <g id="ytick_1">
     <g id="line2d_4">
      <defs>
       <path id="m789995791b" d="M 0 0 
L -3.5 0 
" style="stroke: #000000; stroke-width: 0.8"/>
      </defs>
      <g>
       <use xlink:href="#m789995791b" x="52.4975" y="129.328295" style="stroke: #000000; stroke-width: 0.8"/>
      </g>
     </g>
     <g id="text_5">
      <!-- 0.0 -->
      <g transform="translate(26.41375 133.887358)scale(0.12 -0.12)">
       <defs>
        <path id="DejaVuSans-2e" d="M 684 794 
L 1344 794 
L 1344 0 
L 684 0 
L 684 794 
z
" transform="scale(0.015625)"/>
       </defs>
       <use xlink:href="#DejaVuSans-30"/>
       <use xlink:href="#DejaVuSans-2e" x="63.623047"/>
       <use xlink:href="#DejaVuSans-30" x="95.410156"/>
      </g>
     </g>
    </g>
    <g id="ytick_2">
     <g id="line2d_5">
      <g>
       <use xlink:href="#m789995791b" x="52.4975" y="101.107273" style="stroke: #000000; stroke-width: 0.8"/>
      </g>
     </g>
     <g id="text_6">
      <!-- 0.5 -->
      <g transform="translate(26.41375 105.666335)scale(0.12 -0.12)">
       <use xlink:href="#DejaVuSans-30"/>
       <use xlink:href="#DejaVuSans-2e" x="63.623047"/>
       <use xlink:href="#DejaVuSans-35" x="95.410156"/>
      </g>
     </g>
    </g>
    <g id="ytick_3">
     <g id="line2d_6">
      <g>
       <use xlink:href="#m789995791b" x="52.4975" y="72.88625" style="stroke: #000000; stroke-width: 0.8"/>
      </g>
     </g>
     <g id="text_7">
      <!-- 1.0 -->
      <g transform="translate(26.41375 77.445313)scale(0.12 -0.12)">
       <use xlink:href="#DejaVuSans-31"/>
       <use xlink:href="#DejaVuSans-2e" x="63.623047"/>
       <use xlink:href="#DejaVuSans-30" x="95.410156"/>
      </g>
     </g>
    </g>
    <g id="ytick_4">
     <g id="line2d_7">
      <g>
       <use xlink:href="#m789995791b" x="52.4975" y="44.665227" style="stroke: #000000; stroke-width: 0.8"/>
      </g>
     </g>
     <g id="text_8">
      <!-- 1.5 -->
      <g transform="translate(26.41375 49.22429)scale(0.12 -0.12)">
       <use xlink:href="#DejaVuSans-31"/>
       <use xlink:href="#DejaVuSans-2e" x="63.623047"/>
       <use xlink:href="#DejaVuSans-35" x="95.410156"/>
      </g>
     </g>
    </g>
    <g id="ytick_5">
     <g id="line2d_8">
      <g>
       <use xlink:href="#m789995791b" x="52.4975" y="16.444205" style="stroke: #000000; stroke-width: 0.8"/>
      </g>
     </g>
     <g id="text_9">
      <!-- 2.0 -->
      <g transform="translate(26.41375 21.003267)scale(0.12 -0.12)">
       <defs>
        <path id="DejaVuSans-32" d="M 1228 531 
L 3431 531 
L 3431 0 
L 469 0 
L 469 531 
Q 828 903 1448 1529 
Q 2069 2156 2228 2338 
Q 2531 2678 2651 2914 
Q 2772 3150 2772 3378 
Q 2772 3750 2511 3984 
Q 2250 4219 1831 4219 
Q 1534 4219 1204 4116 
Q 875 4013 500 3803 
L 500 4441 
Q 881 4594 1212 4672 
Q 1544 4750 1819 4750 
Q 2544 4750 2975 4387 
Q 3406 4025 3406 3419 
Q 3406 3131 3298 2873 
Q 3191 2616 2906 2266 
Q 2828 2175 2409 1742 
Q 1991 1309 1228 531 
z
" transform="scale(0.015625)"/>
       </defs>
       <use xlink:href="#DejaVuSans-32"/>
       <use xlink:href="#DejaVuSans-2e" x="63.623047"/>
       <use xlink:href="#DejaVuSans-30" x="95.410156"/>
      </g>
     </g>
    </g>
    <g id="text_10">
     <!-- Loss -->
     <g transform="translate(19.918125 86.046875)rotate(-90)scale(0.12 -0.12)">
      <defs>
       <path id="DejaVuSans-4c" d="M 628 4666 
L 1259 4666 
L 1259 531 
L 3531 531 
L 3531 0 
L 628 0 
L 628 4666 
z
" transform="scale(0.015625)"/>
       <path id="DejaVuSans-73" d="M 2834 3397 
L 2834 2853 
Q 2591 2978 2328 3040 
Q 2066 3103 1784 3103 
Q 1356 3103 1142 2972 
Q 928 2841 928 2578 
Q 928 2378 1081 2264 
Q 1234 2150 1697 2047 
L 1894 2003 
Q 2506 1872 2764 1633 
Q 3022 1394 3022 966 
Q 3022 478 2636 193 
Q 2250 -91 1575 -91 
Q 1294 -91 989 -36 
Q 684 19 347 128 
L 347 722 
Q 666 556 975 473 
Q 1284 391 1588 391 
Q 1994 391 2212 530 
Q 2431 669 2431 922 
Q 2431 1156 2273 1281 
Q 2116 1406 1581 1522 
L 1381 1569 
Q 847 1681 609 1914 
Q 372 2147 372 2553 
Q 372 3047 722 3315 
Q 1072 3584 1716 3584 
Q 2034 3584 2315 3537 
Q 2597 3491 2834 3397 
z
" transform="scale(0.015625)"/>
      </defs>
      <use xlink:href="#DejaVuSans-4c"/>
      <use xlink:href="#DejaVuSans-6f" x="53.962891"/>
      <use xlink:href="#DejaVuSans-73" x="115.144531"/>
      <use xlink:href="#DejaVuSans-73" x="167.244141"/>
     </g>
    </g>
   </g>
   <g id="line2d_9">
    <path d="M 56.832306 73.200198 
L 57.708025 74.172622 
L 58.583743 75.140976 
L 59.459462 76.092068 
L 60.33518 77.033774 
L 61.210899 77.964408 
L 62.086617 78.905902 
L 62.962336 79.869613 
L 63.838054 80.82422 
L 64.713773 81.771494 
L 65.589491 82.688139 
L 66.46521 83.645431 
L 67.340928 84.577304 
L 68.216646 85.501357 
L 69.092365 86.432328 
L 69.968083 87.337657 
L 70.843802 88.264795 
L 71.71952 89.188425 
L 72.595239 90.120873 
L 73.470957 91.000791 
L 74.346676 91.875617 
L 75.222394 92.767519 
L 76.098113 93.661345 
L 76.973831 94.58987 
L 77.84955 95.505167 
L 78.725268 96.437315 
L 79.600986 97.387744 
L 80.476705 98.296857 
L 81.352423 99.210014 
L 82.228142 100.241191 
L 83.10386 101.294417 
L 83.979579 102.370743 
L 84.855297 103.347928 
L 85.731016 104.229547 
L 86.606734 105.128413 
L 87.482453 105.988052 
L 88.358171 106.854222 
L 89.23389 107.687095 
L 90.109608 108.469105 
L 90.985327 109.282638 
L 91.861045 110.026818 
L 92.736763 110.720218 
L 93.612482 111.42819 
L 94.4882 112.169334 
L 95.363919 112.916114 
L 96.239637 113.640448 
L 97.115356 114.389765 
L 97.991074 115.238664 
L 98.866793 116.019316 
L 99.742511 116.646807 
L 100.61823 117.218315 
L 101.493948 117.786372 
L 102.369667 118.371114 
L 103.245385 118.922147 
L 104.121103 119.440555 
L 104.996822 119.991774 
L 105.87254 120.490662 
L 106.748259 121.021241 
L 107.623977 121.591413 
L 108.499696 122.099659 
L 109.375414 122.562497 
L 110.251133 122.935447 
L 111.126851 123.25907 
L 112.00257 123.583913 
L 112.878288 123.964469 
L 113.754007 124.411882 
L 114.629725 124.807033 
L 115.505444 125.092691 
L 116.381162 125.372935 
L 117.25688 125.647267 
L 118.132599 125.909059 
L 119.008317 126.154511 
L 119.884036 126.369249 
L 120.759754 126.589051 
L 121.635473 126.824709 
L 122.511191 127.047237 
L 123.38691 127.225923 
L 124.262628 127.386413 
L 125.138347 127.559227 
L 126.014065 127.733872 
L 126.889784 127.88824 
L 127.765502 128.033469 
L 128.64122 128.149635 
L 129.516939 128.262042 
L 130.392657 128.378014 
L 131.268376 128.482885 
L 132.144094 128.560723 
L 133.019813 128.619279 
L 133.895531 128.672831 
L 134.77125 128.723542 
L 135.646968 128.7695 
L 136.522687 128.809608 
L 137.398405 128.844782 
L 138.274124 128.876522 
L 139.149842 128.906467 
L 140.025561 128.936265 
L 140.901279 128.967728 
L 141.776997 129.002679 
L 142.652716 129.03654 
L 143.528434 129.067079 
" clip-path="url(#p9eec8fbe86)" style="fill: none; stroke: #ff00ff; stroke-width: 1.5; stroke-linecap: square"/>
   </g>
   <g id="line2d_10">
    <path d="M 56.832306 31.707892 
L 57.708025 41.273635 
L 58.583743 56.025122 
L 59.459462 74.580068 
L 60.33518 92.344436 
L 61.210899 107.585661 
L 62.086617 115.719885 
L 62.962336 119.737052 
L 63.838054 122.754709 
L 64.713773 124.806668 
L 65.589491 126.068685 
L 66.46521 126.936005 
L 67.340928 127.391324 
L 68.216646 127.736979 
L 69.092365 128.011727 
L 69.968083 128.255391 
L 70.843802 128.474979 
L 71.71952 128.722124 
L 72.595239 128.985196 
L 73.470957 129.091914 
L 74.346676 129.147448 
L 75.222394 129.187863 
L 76.098113 129.216118 
L 76.973831 129.239517 
L 77.84955 129.256134 
L 78.725268 129.27117 
L 79.600986 129.283376 
L 80.476705 129.292157 
L 81.352423 129.298849 
L 82.228142 129.304382 
L 83.10386 129.309133 
L 83.979579 129.313144 
L 84.855297 129.316341 
L 85.731016 129.318784 
L 86.606734 129.320656 
L 87.482453 129.322129 
L 88.358171 129.323319 
L 89.23389 129.324296 
L 90.109608 129.3251 
L 90.985327 129.325757 
L 91.861045 129.32629 
L 92.736763 129.326722 
L 93.612482 129.327069 
L 94.4882 129.327347 
L 95.363919 129.327565 
L 96.239637 129.327733 
L 97.115356 129.32786 
L 97.991074 129.327956 
L 98.866793 129.328029 
L 99.742511 129.328085 
L 100.61823 129.328128 
L 101.493948 129.328161 
L 102.369667 129.328188 
L 103.245385 129.328208 
L 104.121103 129.328225 
L 104.996822 129.328238 
L 105.87254 129.328249 
L 106.748259 129.328257 
L 107.623977 129.328264 
L 108.499696 129.32827 
L 109.375414 129.328274 
L 110.251133 129.328278 
L 111.126851 129.328281 
L 112.00257 129.328284 
L 112.878288 129.328286 
L 113.754007 129.328287 
L 114.629725 129.328289 
L 115.505444 129.32829 
L 116.381162 129.328291 
L 117.25688 129.328292 
L 118.132599 129.328292 
L 119.008317 129.328293 
L 119.884036 129.328293 
L 120.759754 129.328294 
L 121.635473 129.328294 
L 122.511191 129.328294 
L 123.38691 129.328294 
L 124.262628 129.328295 
L 125.138347 129.328295 
L 126.014065 129.328295 
L 126.889784 129.328295 
L 127.765502 129.328295 
L 128.64122 129.328295 
L 129.516939 129.328295 
L 130.392657 129.328295 
L 131.268376 129.328295 
L 132.144094 129.328295 
L 133.019813 129.328295 
L 133.895531 129.328295 
L 134.77125 129.328295 
L 135.646968 129.328295 
L 136.522687 129.328295 
L 137.398405 129.328295 
L 138.274124 129.328295 
L 139.149842 129.328295 
L 140.025561 129.328295 
L 140.901279 129.328295 
L 141.776997 129.328295 
L 142.652716 129.328295 
L 143.528434 129.328295 
" clip-path="url(#p9eec8fbe86)" style="fill: none; stroke: #ee11ff; stroke-width: 1.5; stroke-linecap: square"/>
   </g>
   <g id="line2d_11">
    <path d="M 56.832306 113.579743 
L 57.708025 128.063056 
L 58.583743 128.368453 
L 59.459462 128.627039 
L 60.33518 128.941871 
L 61.210899 129.107787 
L 62.086617 129.169868 
L 62.962336 129.209732 
L 63.838054 129.239749 
L 64.713773 129.261064 
L 65.589491 129.279161 
L 66.46521 129.290326 
L 67.340928 129.298691 
L 68.216646 129.305606 
L 69.092365 129.311384 
L 69.968083 129.315796 
L 70.843802 129.318906 
L 71.71952 129.321146 
L 72.595239 129.322842 
L 73.470957 129.324161 
L 74.346676 129.325187 
L 75.222394 129.325969 
L 76.098113 129.326563 
L 76.973831 129.327012 
L 77.84955 129.327351 
L 78.725268 129.327599 
L 79.600986 129.327778 
L 80.476705 129.327908 
L 81.352423 129.328002 
L 82.228142 129.328072 
L 83.10386 129.328124 
L 83.979579 129.328163 
L 84.855297 129.328192 
L 85.731016 129.328215 
L 86.606734 129.328232 
L 87.482453 129.328246 
L 88.358171 129.328256 
L 89.23389 129.328264 
L 90.109608 129.328271 
L 90.985327 129.328275 
L 91.861045 129.32828 
L 92.736763 129.328283 
L 93.612482 129.328285 
L 94.4882 129.328287 
L 95.363919 129.328289 
L 96.239637 129.32829 
L 97.115356 129.328291 
L 97.991074 129.328292 
L 98.866793 129.328293 
L 99.742511 129.328293 
L 100.61823 129.328294 
L 101.493948 129.328294 
L 102.369667 129.328294 
L 103.245385 129.328294 
L 104.121103 129.328295 
L 104.996822 129.328295 
L 105.87254 129.328295 
L 106.748259 129.328295 
L 107.623977 129.328295 
L 108.499696 129.328295 
L 109.375414 129.328295 
L 110.251133 129.328295 
L 111.126851 129.328295 
L 112.00257 129.328295 
L 112.878288 129.328295 
L 113.754007 129.328295 
L 114.629725 129.328295 
L 115.505444 129.328295 
L 116.381162 129.328295 
L 117.25688 129.328295 
L 118.132599 129.328295 
L 119.008317 129.328295 
L 119.884036 129.328295 
L 120.759754 129.328295 
L 121.635473 129.328295 
L 122.511191 129.328295 
L 123.38691 129.328295 
L 124.262628 129.328295 
L 125.138347 129.328295 
L 126.014065 129.328295 
L 126.889784 129.328295 
L 127.765502 129.328295 
L 128.64122 129.328295 
L 129.516939 129.328295 
L 130.392657 129.328295 
L 131.268376 129.328295 
L 132.144094 129.328295 
L 133.019813 129.328295 
L 133.895531 129.328295 
L 134.77125 129.328295 
L 135.646968 129.328295 
L 136.522687 129.328295 
L 137.398405 129.328295 
L 138.274124 129.328295 
L 139.149842 129.328295 
L 140.025561 129.328295 
L 140.901279 129.328295 
L 141.776997 129.328295 
L 142.652716 129.328295 
L 143.528434 129.328295 
" clip-path="url(#p9eec8fbe86)" style="fill: none; stroke: #dd22ff; stroke-width: 1.5; stroke-linecap: square"/>
   </g>
   <g id="line2d_12">
    <path d="M 56.832306 128.949959 
L 57.708025 129.191471 
L 58.583743 129.232984 
L 59.459462 129.260083 
L 60.33518 129.280288 
L 61.210899 129.291638 
L 62.086617 129.299991 
L 62.962336 129.307018 
L 63.838054 129.3128 
L 64.713773 129.316977 
L 65.589491 129.319857 
L 66.46521 129.321953 
L 67.340928 129.323546 
L 68.216646 129.32477 
L 69.092365 129.325692 
L 69.968083 129.326379 
L 70.843802 129.326891 
L 71.71952 129.327271 
L 72.595239 129.327548 
L 73.470957 129.327746 
L 74.346676 129.327887 
L 75.222394 129.327989 
L 76.098113 129.328064 
L 76.973831 129.328119 
L 77.84955 129.32816 
L 78.725268 129.328191 
L 79.600986 129.328214 
L 80.476705 129.328232 
L 81.352423 129.328246 
L 82.228142 129.328257 
L 83.10386 129.328265 
L 83.979579 129.328271 
L 84.855297 129.328276 
L 85.731016 129.32828 
L 86.606734 129.328283 
L 87.482453 129.328286 
L 88.358171 129.328288 
L 89.23389 129.328289 
L 90.109608 129.32829 
L 90.985327 129.328291 
L 91.861045 129.328292 
L 92.736763 129.328293 
L 93.612482 129.328293 
L 94.4882 129.328294 
L 95.363919 129.328294 
L 96.239637 129.328294 
L 97.115356 129.328295 
L 97.991074 129.328295 
L 98.866793 129.328295 
L 99.742511 129.328295 
L 100.61823 129.328295 
L 101.493948 129.328295 
L 102.369667 129.328295 
L 103.245385 129.328295 
L 104.121103 129.328295 
L 104.996822 129.328295 
L 105.87254 129.328295 
L 106.748259 129.328295 
L 107.623977 129.328295 
L 108.499696 129.328295 
L 109.375414 129.328295 
L 110.251133 129.328295 
L 111.126851 129.328295 
L 112.00257 129.328295 
L 112.878288 129.328295 
L 113.754007 129.328295 
L 114.629725 129.328295 
L 115.505444 129.328295 
L 116.381162 129.328295 
L 117.25688 129.328295 
L 118.132599 129.328295 
L 119.008317 129.328295 
L 119.884036 129.328295 
L 120.759754 129.328295 
L 121.635473 129.328295 
L 122.511191 129.328295 
L 123.38691 129.328295 
L 124.262628 129.328295 
L 125.138347 129.328295 
L 126.014065 129.328295 
L 126.889784 129.328295 
L 127.765502 129.328295 
L 128.64122 129.328295 
L 129.516939 129.328295 
L 130.392657 129.328295 
L 131.268376 129.328295 
L 132.144094 129.328295 
L 133.019813 129.328295 
L 133.895531 129.328295 
L 134.77125 129.328295 
L 135.646968 129.328295 
L 136.522687 129.328295 
L 137.398405 129.328295 
L 138.274124 129.328295 
L 139.149842 129.328295 
L 140.025561 129.328295 
L 140.901279 129.328295 
L 141.776997 129.328295 
L 142.652716 129.328295 
L 143.528434 129.328295 
" clip-path="url(#p9eec8fbe86)" style="fill: none; stroke: #cc33ff; stroke-width: 1.5; stroke-linecap: square"/>
   </g>
   <g id="line2d_13">
    <path d="M 56.832306 129.309904 
L 57.708025 129.317757 
L 58.583743 129.321871 
L 59.459462 129.323911 
L 60.33518 129.325213 
L 61.210899 129.3261 
L 62.086617 129.326712 
L 62.962336 129.327152 
L 63.838054 129.327468 
L 64.713773 129.327693 
L 65.589491 129.32785 
L 66.46521 129.327963 
L 67.340928 129.328045 
L 68.216646 129.328105 
L 69.092365 129.32815 
L 69.968083 129.328184 
L 70.843802 129.328209 
L 71.71952 129.328228 
L 72.595239 129.328243 
L 73.470957 129.328254 
L 74.346676 129.328263 
L 75.222394 129.32827 
L 76.098113 129.328275 
L 76.973831 129.328279 
L 77.84955 129.328283 
L 78.725268 129.328285 
L 79.600986 129.328287 
L 80.476705 129.328289 
L 81.352423 129.32829 
L 82.228142 129.328291 
L 83.10386 129.328292 
L 83.979579 129.328293 
L 84.855297 129.328293 
L 85.731016 129.328294 
L 86.606734 129.328294 
L 87.482453 129.328294 
L 88.358171 129.328295 
L 89.23389 129.328295 
L 90.109608 129.328295 
L 90.985327 129.328295 
L 91.861045 129.328295 
L 92.736763 129.328295 
L 93.612482 129.328295 
L 94.4882 129.328295 
L 95.363919 129.328295 
L 96.239637 129.328295 
L 97.115356 129.328295 
L 97.991074 129.328295 
L 98.866793 129.328295 
L 99.742511 129.328295 
L 100.61823 129.328295 
L 101.493948 129.328295 
L 102.369667 129.328295 
L 103.245385 129.328295 
L 104.121103 129.328295 
L 104.996822 129.328295 
L 105.87254 129.328295 
L 106.748259 129.328295 
L 107.623977 129.328295 
L 108.499696 129.328295 
L 109.375414 129.328295 
L 110.251133 129.328295 
L 111.126851 129.328295 
L 112.00257 129.328295 
L 112.878288 129.328295 
L 113.754007 129.328295 
L 114.629725 129.328295 
L 115.505444 129.328295 
L 116.381162 129.328295 
L 117.25688 129.328295 
L 118.132599 129.328295 
L 119.008317 129.328295 
L 119.884036 129.328295 
L 120.759754 129.328295 
L 121.635473 129.328295 
L 122.511191 129.328295 
L 123.38691 129.328295 
L 124.262628 129.328295 
L 125.138347 129.328295 
L 126.014065 129.328295 
L 126.889784 129.328295 
L 127.765502 129.328295 
L 128.64122 129.328295 
L 129.516939 129.328295 
L 130.392657 129.328295 
L 131.268376 129.328295 
L 132.144094 129.328295 
L 133.019813 129.328295 
L 133.895531 129.328295 
L 134.77125 129.328295 
L 135.646968 129.328295 
L 136.522687 129.328295 
L 137.398405 129.328295 
L 138.274124 129.328295 
L 139.149842 129.328295 
L 140.025561 129.328295 
L 140.901279 129.328295 
L 141.776997 129.328295 
L 142.652716 129.328295 
L 143.528434 129.328295 
" clip-path="url(#p9eec8fbe86)" style="fill: none; stroke: #bb44ff; stroke-width: 1.5; stroke-linecap: square"/>
   </g>
   <g id="line2d_14">
    <path d="M 56.832306 129.327241 
L 57.708025 129.327789 
L 58.583743 129.328024 
L 59.459462 129.328121 
L 60.33518 129.328171 
L 61.210899 129.328201 
L 62.086617 129.328223 
L 62.962336 129.328239 
L 63.838054 129.328252 
L 64.713773 129.328261 
L 65.589491 129.328268 
L 66.46521 129.328274 
L 67.340928 129.328278 
L 68.216646 129.328282 
L 69.092365 129.328285 
L 69.968083 129.328287 
L 70.843802 129.328289 
L 71.71952 129.32829 
L 72.595239 129.328291 
L 73.470957 129.328292 
L 74.346676 129.328293 
L 75.222394 129.328293 
L 76.098113 129.328294 
L 76.973831 129.328294 
L 77.84955 129.328294 
L 78.725268 129.328294 
L 79.600986 129.328295 
L 80.476705 129.328295 
L 81.352423 129.328295 
L 82.228142 129.328295 
L 83.10386 129.328295 
L 83.979579 129.328295 
L 84.855297 129.328295 
L 85.731016 129.328295 
L 86.606734 129.328295 
L 87.482453 129.328295 
L 88.358171 129.328295 
L 89.23389 129.328295 
L 90.109608 129.328295 
L 90.985327 129.328295 
L 91.861045 129.328295 
L 92.736763 129.328295 
L 93.612482 129.328295 
L 94.4882 129.328295 
L 95.363919 129.328295 
L 96.239637 129.328295 
L 97.115356 129.328295 
L 97.991074 129.328295 
L 98.866793 129.328295 
L 99.742511 129.328295 
L 100.61823 129.328295 
L 101.493948 129.328295 
L 102.369667 129.328295 
L 103.245385 129.328295 
L 104.121103 129.328295 
L 104.996822 129.328295 
L 105.87254 129.328295 
L 106.748259 129.328295 
L 107.623977 129.328295 
L 108.499696 129.328295 
L 109.375414 129.328295 
L 110.251133 129.328295 
L 111.126851 129.328295 
L 112.00257 129.328295 
L 112.878288 129.328295 
L 113.754007 129.328295 
L 114.629725 129.328295 
L 115.505444 129.328295 
L 116.381162 129.328295 
L 117.25688 129.328295 
L 118.132599 129.328295 
L 119.008317 129.328295 
L 119.884036 129.328295 
L 120.759754 129.328295 
L 121.635473 129.328295 
L 122.511191 129.328295 
L 123.38691 129.328295 
L 124.262628 129.328295 
L 125.138347 129.328295 
L 126.014065 129.328295 
L 126.889784 129.328295 
L 127.765502 129.328295 
L 128.64122 129.328295 
L 129.516939 129.328295 
L 130.392657 129.328295 
L 131.268376 129.328295 
L 132.144094 129.328295 
L 133.019813 129.328295 
L 133.895531 129.328295 
L 134.77125 129.328295 
L 135.646968 129.328295 
L 136.522687 129.328295 
L 137.398405 129.328295 
L 138.274124 129.328295 
L 139.149842 129.328295 
L 140.025561 129.328295 
L 140.901279 129.328295 
L 141.776997 129.328295 
L 142.652716 129.328295 
L 143.528434 129.328295 
" clip-path="url(#p9eec8fbe86)" style="fill: none; stroke: #aa55ff; stroke-width: 1.5; stroke-linecap: square"/>
   </g>
   <g id="line2d_15">
    <path d="M 56.832306 129.328254 
L 57.708025 129.328271 
L 58.583743 129.328279 
L 59.459462 129.328284 
L 60.33518 129.328286 
L 61.210899 129.328289 
L 62.086617 129.32829 
L 62.962336 129.328291 
L 63.838054 129.328292 
L 64.713773 129.328293 
L 65.589491 129.328293 
L 66.46521 129.328294 
L 67.340928 129.328294 
L 68.216646 129.328294 
L 69.092365 129.328295 
L 69.968083 129.328295 
L 70.843802 129.328295 
L 71.71952 129.328295 
L 72.595239 129.328295 
L 73.470957 129.328295 
L 74.346676 129.328295 
L 75.222394 129.328295 
L 76.098113 129.328295 
L 76.973831 129.328295 
L 77.84955 129.328295 
L 78.725268 129.328295 
L 79.600986 129.328295 
L 80.476705 129.328295 
L 81.352423 129.328295 
L 82.228142 129.328295 
L 83.10386 129.328295 
L 83.979579 129.328295 
L 84.855297 129.328295 
L 85.731016 129.328295 
L 86.606734 129.328295 
L 87.482453 129.328295 
L 88.358171 129.328295 
L 89.23389 129.328295 
L 90.109608 129.328295 
L 90.985327 129.328295 
L 91.861045 129.328295 
L 92.736763 129.328295 
L 93.612482 129.328295 
L 94.4882 129.328295 
L 95.363919 129.328295 
L 96.239637 129.328295 
L 97.115356 129.328295 
L 97.991074 129.328295 
L 98.866793 129.328295 
L 99.742511 129.328295 
L 100.61823 129.328295 
L 101.493948 129.328295 
L 102.369667 129.328295 
L 103.245385 129.328295 
L 104.121103 129.328295 
L 104.996822 129.328295 
L 105.87254 129.328295 
L 106.748259 129.328295 
L 107.623977 129.328295 
L 108.499696 129.328295 
L 109.375414 129.328295 
L 110.251133 129.328295 
L 111.126851 129.328295 
L 112.00257 129.328295 
L 112.878288 129.328295 
L 113.754007 129.328295 
L 114.629725 129.328295 
L 115.505444 129.328295 
L 116.381162 129.328295 
L 117.25688 129.328295 
L 118.132599 129.328295 
L 119.008317 129.328295 
L 119.884036 129.328295 
L 120.759754 129.328295 
L 121.635473 129.328295 
L 122.511191 129.328295 
L 123.38691 129.328295 
L 124.262628 129.328295 
L 125.138347 129.328295 
L 126.014065 129.328295 
L 126.889784 129.328295 
L 127.765502 129.328295 
L 128.64122 129.328295 
L 129.516939 129.328295 
L 130.392657 129.328295 
L 131.268376 129.328295 
L 132.144094 129.328295 
L 133.019813 129.328295 
L 133.895531 129.328295 
L 134.77125 129.328295 
L 135.646968 129.328295 
L 136.522687 129.328295 
L 137.398405 129.328295 
L 138.274124 129.328295 
L 139.149842 129.328295 
L 140.025561 129.328295 
L 140.901279 129.328295 
L 141.776997 129.328295 
L 142.652716 129.328295 
L 143.528434 129.328295 
" clip-path="url(#p9eec8fbe86)" style="fill: none; stroke: #9966ff; stroke-width: 1.5; stroke-linecap: square"/>
   </g>
   <g id="line2d_16">
    <path d="M 56.832306 129.328293 
L 57.708025 129.328294 
L 58.583743 129.328295 
L 59.459462 129.328295 
L 60.33518 129.328295 
L 61.210899 129.328295 
L 62.086617 129.328295 
L 62.962336 129.328295 
L 63.838054 129.328295 
L 64.713773 129.328295 
L 65.589491 129.328295 
L 66.46521 129.328295 
L 67.340928 129.328295 
L 68.216646 129.328295 
L 69.092365 129.328295 
L 69.968083 129.328295 
L 70.843802 129.328295 
L 71.71952 129.328295 
L 72.595239 129.328295 
L 73.470957 129.328295 
L 74.346676 129.328295 
L 75.222394 129.328295 
L 76.098113 129.328295 
L 76.973831 129.328295 
L 77.84955 129.328295 
L 78.725268 129.328295 
L 79.600986 129.328295 
L 80.476705 129.328295 
L 81.352423 129.328295 
L 82.228142 129.328295 
L 83.10386 129.328295 
L 83.979579 129.328295 
L 84.855297 129.328295 
L 85.731016 129.328295 
L 86.606734 129.328295 
L 87.482453 129.328295 
L 88.358171 129.328295 
L 89.23389 129.328295 
L 90.109608 129.328295 
L 90.985327 129.328295 
L 91.861045 129.328295 
L 92.736763 129.328295 
L 93.612482 129.328295 
L 94.4882 129.328295 
L 95.363919 129.328295 
L 96.239637 129.328295 
L 97.115356 129.328295 
L 97.991074 129.328295 
L 98.866793 129.328295 
L 99.742511 129.328295 
L 100.61823 129.328295 
L 101.493948 129.328295 
L 102.369667 129.328295 
L 103.245385 129.328295 
L 104.121103 129.328295 
L 104.996822 129.328295 
L 105.87254 129.328295 
L 106.748259 129.328295 
L 107.623977 129.328295 
L 108.499696 129.328295 
L 109.375414 129.328295 
L 110.251133 129.328295 
L 111.126851 129.328295 
L 112.00257 129.328295 
L 112.878288 129.328295 
L 113.754007 129.328295 
L 114.629725 129.328295 
L 115.505444 129.328295 
L 116.381162 129.328295 
L 117.25688 129.328295 
L 118.132599 129.328295 
L 119.008317 129.328295 
L 119.884036 129.328295 
L 120.759754 129.328295 
L 121.635473 129.328295 
L 122.511191 129.328295 
L 123.38691 129.328295 
L 124.262628 129.328295 
L 125.138347 129.328295 
L 126.014065 129.328295 
L 126.889784 129.328295 
L 127.765502 129.328295 
L 128.64122 129.328295 
L 129.516939 129.328295 
L 130.392657 129.328295 
L 131.268376 129.328295 
L 132.144094 129.328295 
L 133.019813 129.328295 
L 133.895531 129.328295 
L 134.77125 129.328295 
L 135.646968 129.328295 
L 136.522687 129.328295 
L 137.398405 129.328295 
L 138.274124 129.328295 
L 139.149842 129.328295 
L 140.025561 129.328295 
L 140.901279 129.328295 
L 141.776997 129.328295 
L 142.652716 129.328295 
L 143.528434 129.328295 
" clip-path="url(#p9eec8fbe86)" style="fill: none; stroke: #8877ff; stroke-width: 1.5; stroke-linecap: square"/>
   </g>
   <g id="patch_3">
    <path d="M 52.4975 134.9725 
L 52.4975 10.8 
" style="fill: none; stroke: #000000; stroke-width: 0.8; stroke-linejoin: miter; stroke-linecap: square"/>
   </g>
   <g id="patch_4">
    <path d="M 147.863241 134.9725 
L 147.863241 10.8 
" style="fill: none; stroke: #000000; stroke-width: 0.8; stroke-linejoin: miter; stroke-linecap: square"/>
   </g>
   <g id="patch_5">
    <path d="M 52.4975 134.9725 
L 147.863241 134.9725 
" style="fill: none; stroke: #000000; stroke-width: 0.8; stroke-linejoin: miter; stroke-linecap: square"/>
   </g>
   <g id="patch_6">
    <path d="M 52.4975 10.8 
L 147.863241 10.8 
" style="fill: none; stroke: #000000; stroke-width: 0.8; stroke-linejoin: miter; stroke-linecap: square"/>
   </g>
  </g>
  <g id="axes_2">
   <g id="patch_7">
    <path d="M 221.523125 134.9725 
L 316.888866 134.9725 
L 316.888866 10.8 
L 221.523125 10.8 
z
" style="fill: #ffffff"/>
   </g>
   <g id="matplotlib.axis_3">
    <g id="xtick_4">
     <g id="line2d_17">
      <g>
       <use xlink:href="#m60514a6545" x="225.857931" y="134.9725" style="stroke: #000000; stroke-width: 0.8"/>
      </g>
     </g>
     <g id="text_11">
      <!-- 1 -->
      <g transform="translate(222.040431 151.090625)scale(0.12 -0.12)">
       <use xlink:href="#DejaVuSans-31"/>
      </g>
     </g>
    </g>
    <g id="xtick_5">
     <g id="line2d_18">
      <g>
       <use xlink:href="#m60514a6545" x="238.243093" y="134.9725" style="stroke: #000000; stroke-width: 0.8"/>
      </g>
     </g>
     <g id="text_12">
      <!-- 2 -->
      <g transform="translate(234.425593 151.090625)scale(0.12 -0.12)">
       <use xlink:href="#DejaVuSans-32"/>
      </g>
     </g>
    </g>
    <g id="xtick_6">
     <g id="line2d_19">
      <g>
       <use xlink:href="#m60514a6545" x="263.013415" y="134.9725" style="stroke: #000000; stroke-width: 0.8"/>
      </g>
     </g>
     <g id="text_13">
      <!-- 4 -->
      <g transform="translate(259.195915 151.090625)scale(0.12 -0.12)">
       <defs>
        <path id="DejaVuSans-34" d="M 2419 4116 
L 825 1625 
L 2419 1625 
L 2419 4116 
z
M 2253 4666 
L 3047 4666 
L 3047 1625 
L 3713 1625 
L 3713 1100 
L 3047 1100 
L 3047 0 
L 2419 0 
L 2419 1100 
L 313 1100 
L 313 1709 
L 2253 4666 
z
" transform="scale(0.015625)"/>
       </defs>
       <use xlink:href="#DejaVuSans-34"/>
      </g>
     </g>
    </g>
    <g id="xtick_7">
     <g id="line2d_20">
      <g>
       <use xlink:href="#m60514a6545" x="287.783737" y="134.9725" style="stroke: #000000; stroke-width: 0.8"/>
      </g>
     </g>
     <g id="text_14">
      <!-- 6 -->
      <g transform="translate(283.966237 151.090625)scale(0.12 -0.12)">
       <defs>
        <path id="DejaVuSans-36" d="M 2113 2584 
Q 1688 2584 1439 2293 
Q 1191 2003 1191 1497 
Q 1191 994 1439 701 
Q 1688 409 2113 409 
Q 2538 409 2786 701 
Q 3034 994 3034 1497 
Q 3034 2003 2786 2293 
Q 2538 2584 2113 2584 
z
M 3366 4563 
L 3366 3988 
Q 3128 4100 2886 4159 
Q 2644 4219 2406 4219 
Q 1781 4219 1451 3797 
Q 1122 3375 1075 2522 
Q 1259 2794 1537 2939 
Q 1816 3084 2150 3084 
Q 2853 3084 3261 2657 
Q 3669 2231 3669 1497 
Q 3669 778 3244 343 
Q 2819 -91 2113 -91 
Q 1303 -91 875 529 
Q 447 1150 447 2328 
Q 447 3434 972 4092 
Q 1497 4750 2381 4750 
Q 2619 4750 2861 4703 
Q 3103 4656 3366 4563 
z
" transform="scale(0.015625)"/>
       </defs>
       <use xlink:href="#DejaVuSans-36"/>
      </g>
     </g>
    </g>
    <g id="xtick_8">
     <g id="line2d_21">
      <g>
       <use xlink:href="#m60514a6545" x="312.554059" y="134.9725" style="stroke: #000000; stroke-width: 0.8"/>
      </g>
     </g>
     <g id="text_15">
      <!-- 8 -->
      <g transform="translate(308.736559 151.090625)scale(0.12 -0.12)">
       <defs>
        <path id="DejaVuSans-38" d="M 2034 2216 
Q 1584 2216 1326 1975 
Q 1069 1734 1069 1313 
Q 1069 891 1326 650 
Q 1584 409 2034 409 
Q 2484 409 2743 651 
Q 3003 894 3003 1313 
Q 3003 1734 2745 1975 
Q 2488 2216 2034 2216 
z
M 1403 2484 
Q 997 2584 770 2862 
Q 544 3141 544 3541 
Q 544 4100 942 4425 
Q 1341 4750 2034 4750 
Q 2731 4750 3128 4425 
Q 3525 4100 3525 3541 
Q 3525 3141 3298 2862 
Q 3072 2584 2669 2484 
Q 3125 2378 3379 2068 
Q 3634 1759 3634 1313 
Q 3634 634 3220 271 
Q 2806 -91 2034 -91 
Q 1263 -91 848 271 
Q 434 634 434 1313 
Q 434 1759 690 2068 
Q 947 2378 1403 2484 
z
M 1172 3481 
Q 1172 3119 1398 2916 
Q 1625 2713 2034 2713 
Q 2441 2713 2670 2916 
Q 2900 3119 2900 3481 
Q 2900 3844 2670 4047 
Q 2441 4250 2034 4250 
Q 1625 4250 1398 4047 
Q 1172 3844 1172 3481 
z
" transform="scale(0.015625)"/>
       </defs>
       <use xlink:href="#DejaVuSans-38"/>
      </g>
     </g>
    </g>
    <g id="text_16">
     <!-- Training round -->
     <g transform="translate(226.211308 166.704375)scale(0.12 -0.12)">
      <defs>
       <path id="DejaVuSans-54" d="M -19 4666 
L 3928 4666 
L 3928 4134 
L 2272 4134 
L 2272 0 
L 1638 0 
L 1638 4134 
L -19 4134 
L -19 4666 
z
" transform="scale(0.015625)"/>
       <path id="DejaVuSans-72" d="M 2631 2963 
Q 2534 3019 2420 3045 
Q 2306 3072 2169 3072 
Q 1681 3072 1420 2755 
Q 1159 2438 1159 1844 
L 1159 0 
L 581 0 
L 581 3500 
L 1159 3500 
L 1159 2956 
Q 1341 3275 1631 3429 
Q 1922 3584 2338 3584 
Q 2397 3584 2469 3576 
Q 2541 3569 2628 3553 
L 2631 2963 
z
" transform="scale(0.015625)"/>
       <path id="DejaVuSans-61" d="M 2194 1759 
Q 1497 1759 1228 1600 
Q 959 1441 959 1056 
Q 959 750 1161 570 
Q 1363 391 1709 391 
Q 2188 391 2477 730 
Q 2766 1069 2766 1631 
L 2766 1759 
L 2194 1759 
z
M 3341 1997 
L 3341 0 
L 2766 0 
L 2766 531 
Q 2569 213 2275 61 
Q 1981 -91 1556 -91 
Q 1019 -91 701 211 
Q 384 513 384 1019 
Q 384 1609 779 1909 
Q 1175 2209 1959 2209 
L 2766 2209 
L 2766 2266 
Q 2766 2663 2505 2880 
Q 2244 3097 1772 3097 
Q 1472 3097 1187 3025 
Q 903 2953 641 2809 
L 641 3341 
Q 956 3463 1253 3523 
Q 1550 3584 1831 3584 
Q 2591 3584 2966 3190 
Q 3341 2797 3341 1997 
z
" transform="scale(0.015625)"/>
       <path id="DejaVuSans-69" d="M 603 3500 
L 1178 3500 
L 1178 0 
L 603 0 
L 603 3500 
z
M 603 4863 
L 1178 4863 
L 1178 4134 
L 603 4134 
L 603 4863 
z
" transform="scale(0.015625)"/>
       <path id="DejaVuSans-6e" d="M 3513 2113 
L 3513 0 
L 2938 0 
L 2938 2094 
Q 2938 2591 2744 2837 
Q 2550 3084 2163 3084 
Q 1697 3084 1428 2787 
Q 1159 2491 1159 1978 
L 1159 0 
L 581 0 
L 581 3500 
L 1159 3500 
L 1159 2956 
Q 1366 3272 1645 3428 
Q 1925 3584 2291 3584 
Q 2894 3584 3203 3211 
Q 3513 2838 3513 2113 
z
" transform="scale(0.015625)"/>
       <path id="DejaVuSans-67" d="M 2906 1791 
Q 2906 2416 2648 2759 
Q 2391 3103 1925 3103 
Q 1463 3103 1205 2759 
Q 947 2416 947 1791 
Q 947 1169 1205 825 
Q 1463 481 1925 481 
Q 2391 481 2648 825 
Q 2906 1169 2906 1791 
z
M 3481 434 
Q 3481 -459 3084 -895 
Q 2688 -1331 1869 -1331 
Q 1566 -1331 1297 -1286 
Q 1028 -1241 775 -1147 
L 775 -588 
Q 1028 -725 1275 -790 
Q 1522 -856 1778 -856 
Q 2344 -856 2625 -561 
Q 2906 -266 2906 331 
L 2906 616 
Q 2728 306 2450 153 
Q 2172 0 1784 0 
Q 1141 0 747 490 
Q 353 981 353 1791 
Q 353 2603 747 3093 
Q 1141 3584 1784 3584 
Q 2172 3584 2450 3431 
Q 2728 3278 2906 2969 
L 2906 3500 
L 3481 3500 
L 3481 434 
z
" transform="scale(0.015625)"/>
       <path id="DejaVuSans-20" transform="scale(0.015625)"/>
       <path id="DejaVuSans-75" d="M 544 1381 
L 544 3500 
L 1119 3500 
L 1119 1403 
Q 1119 906 1312 657 
Q 1506 409 1894 409 
Q 2359 409 2629 706 
Q 2900 1003 2900 1516 
L 2900 3500 
L 3475 3500 
L 3475 0 
L 2900 0 
L 2900 538 
Q 2691 219 2414 64 
Q 2138 -91 1772 -91 
Q 1169 -91 856 284 
Q 544 659 544 1381 
z
M 1991 3584 
L 1991 3584 
z
" transform="scale(0.015625)"/>
       <path id="DejaVuSans-64" d="M 2906 2969 
L 2906 4863 
L 3481 4863 
L 3481 0 
L 2906 0 
L 2906 525 
Q 2725 213 2448 61 
Q 2172 -91 1784 -91 
Q 1150 -91 751 415 
Q 353 922 353 1747 
Q 353 2572 751 3078 
Q 1150 3584 1784 3584 
Q 2172 3584 2448 3432 
Q 2725 3281 2906 2969 
z
M 947 1747 
Q 947 1113 1208 752 
Q 1469 391 1925 391 
Q 2381 391 2643 752 
Q 2906 1113 2906 1747 
Q 2906 2381 2643 2742 
Q 2381 3103 1925 3103 
Q 1469 3103 1208 2742 
Q 947 2381 947 1747 
z
" transform="scale(0.015625)"/>
      </defs>
      <use xlink:href="#DejaVuSans-54"/>
      <use xlink:href="#DejaVuSans-72" x="46.333984"/>
      <use xlink:href="#DejaVuSans-61" x="87.447266"/>
      <use xlink:href="#DejaVuSans-69" x="148.726562"/>
      <use xlink:href="#DejaVuSans-6e" x="176.509766"/>
      <use xlink:href="#DejaVuSans-69" x="239.888672"/>
      <use xlink:href="#DejaVuSans-6e" x="267.671875"/>
      <use xlink:href="#DejaVuSans-67" x="331.050781"/>
      <use xlink:href="#DejaVuSans-20" x="394.527344"/>
      <use xlink:href="#DejaVuSans-72" x="426.314453"/>
      <use xlink:href="#DejaVuSans-6f" x="465.177734"/>
      <use xlink:href="#DejaVuSans-75" x="526.359375"/>
      <use xlink:href="#DejaVuSans-6e" x="589.738281"/>
      <use xlink:href="#DejaVuSans-64" x="653.117188"/>
     </g>
    </g>
   </g>
   <g id="matplotlib.axis_4">
    <g id="ytick_6">
     <g id="line2d_22">
      <g>
       <use xlink:href="#m789995791b" x="221.523125" y="121.850765" style="stroke: #000000; stroke-width: 0.8"/>
      </g>
     </g>
     <g id="text_17">
      <!-- −200 -->
      <g transform="translate(181.5625 126.409827)scale(0.12 -0.12)">
       <defs>
        <path id="DejaVuSans-2212" d="M 678 2272 
L 4684 2272 
L 4684 1741 
L 678 1741 
L 678 2272 
z
" transform="scale(0.015625)"/>
       </defs>
       <use xlink:href="#DejaVuSans-2212"/>
       <use xlink:href="#DejaVuSans-32" x="83.789062"/>
       <use xlink:href="#DejaVuSans-30" x="147.412109"/>
       <use xlink:href="#DejaVuSans-30" x="211.035156"/>
      </g>
     </g>
    </g>
    <g id="ytick_7">
     <g id="line2d_23">
      <g>
       <use xlink:href="#m789995791b" x="221.523125" y="84.776947" style="stroke: #000000; stroke-width: 0.8"/>
      </g>
     </g>
     <g id="text_18">
      <!-- 0 -->
      <g transform="translate(206.888125 89.33601)scale(0.12 -0.12)">
       <use xlink:href="#DejaVuSans-30"/>
      </g>
     </g>
    </g>
    <g id="ytick_8">
     <g id="line2d_24">
      <g>
       <use xlink:href="#m789995791b" x="221.523125" y="47.70313" style="stroke: #000000; stroke-width: 0.8"/>
      </g>
     </g>
     <g id="text_19">
      <!-- 200 -->
      <g transform="translate(191.618125 52.262193)scale(0.12 -0.12)">
       <use xlink:href="#DejaVuSans-32"/>
       <use xlink:href="#DejaVuSans-30" x="63.623047"/>
       <use xlink:href="#DejaVuSans-30" x="127.246094"/>
      </g>
     </g>
    </g>
    <g id="text_20">
     <!-- L -->
     <g transform="translate(175.066875 76.229375)rotate(-90)scale(0.12 -0.12)">
      <use xlink:href="#DejaVuSans-4c"/>
     </g>
    </g>
   </g>
   <g id="line2d_25">
    <path d="M 225.857931 129.328295 
L 238.243093 120.461266 
L 250.628254 93.463926 
L 263.013415 86.799931 
L 275.398576 85.24804 
L 287.783737 84.886622 
L 300.168898 84.802456 
L 312.554059 84.782936 
" clip-path="url(#p8bbb469a5d)" style="fill: none; stroke: #1f77b4; stroke-width: 1.5; stroke-linecap: square"/>
   </g>
   <g id="line2d_26">
    <path d="M 225.857931 16.444205 
L 238.243093 66.784791 
L 250.628254 80.586228 
L 263.013415 83.801109 
L 275.398576 84.549714 
L 287.783737 84.724055 
L 300.168898 84.764618 
L 312.554059 84.774067 
" clip-path="url(#p8bbb469a5d)" style="fill: none; stroke: #ff7f0e; stroke-width: 1.5; stroke-linecap: square"/>
   </g>
   <g id="patch_8">
    <path d="M 221.523125 134.9725 
L 221.523125 10.8 
" style="fill: none; stroke: #000000; stroke-width: 0.8; stroke-linejoin: miter; stroke-linecap: square"/>
   </g>
   <g id="patch_9">
    <path d="M 316.888866 134.9725 
L 316.888866 10.8 
" style="fill: none; stroke: #000000; stroke-width: 0.8; stroke-linejoin: miter; stroke-linecap: square"/>
   </g>
   <g id="patch_10">
    <path d="M 221.523125 134.9725 
L 316.888866 134.9725 
" style="fill: none; stroke: #000000; stroke-width: 0.8; stroke-linejoin: miter; stroke-linecap: square"/>
   </g>
   <g id="patch_11">
    <path d="M 221.523125 10.8 
L 316.888866 10.8 
" style="fill: none; stroke: #000000; stroke-width: 0.8; stroke-linejoin: miter; stroke-linecap: square"/>
   </g>
  </g>
  <g id="axes_3">
   <g id="patch_12">
    <path d="M 390.54875 134.9725 
L 485.914491 134.9725 
L 485.914491 10.8 
L 390.54875 10.8 
z
" style="fill: #ffffff"/>
   </g>
   <g id="matplotlib.axis_5">
    <g id="xtick_9">
     <g id="line2d_27">
      <g>
       <use xlink:href="#m60514a6545" x="394.883556" y="134.9725" style="stroke: #000000; stroke-width: 0.8"/>
      </g>
     </g>
     <g id="text_21">
      <!-- 0 -->
      <g transform="translate(391.066056 151.090625)scale(0.12 -0.12)">
       <use xlink:href="#DejaVuSans-30"/>
      </g>
     </g>
    </g>
    <g id="xtick_10">
     <g id="line2d_28">
      <g>
       <use xlink:href="#m60514a6545" x="438.66948" y="134.9725" style="stroke: #000000; stroke-width: 0.8"/>
      </g>
     </g>
     <g id="text_22">
      <!-- 50 -->
      <g transform="translate(431.03448 151.090625)scale(0.12 -0.12)">
       <use xlink:href="#DejaVuSans-35"/>
       <use xlink:href="#DejaVuSans-30" x="63.623047"/>
      </g>
     </g>
    </g>
    <g id="xtick_11">
     <g id="line2d_29">
      <g>
       <use xlink:href="#m60514a6545" x="482.455403" y="134.9725" style="stroke: #000000; stroke-width: 0.8"/>
      </g>
     </g>
     <g id="text_23">
      <!-- 100 -->
      <g transform="translate(471.002903 151.090625)scale(0.12 -0.12)">
       <use xlink:href="#DejaVuSans-31"/>
       <use xlink:href="#DejaVuSans-30" x="63.623047"/>
       <use xlink:href="#DejaVuSans-30" x="127.246094"/>
      </g>
     </g>
    </g>
    <g id="text_24">
     <!-- Epoch -->
     <g transform="translate(419.858495 166.704375)scale(0.12 -0.12)">
      <use xlink:href="#DejaVuSans-45"/>
      <use xlink:href="#DejaVuSans-70" x="63.183594"/>
      <use xlink:href="#DejaVuSans-6f" x="126.660156"/>
      <use xlink:href="#DejaVuSans-63" x="187.841797"/>
      <use xlink:href="#DejaVuSans-68" x="242.822266"/>
     </g>
    </g>
   </g>
   <g id="matplotlib.axis_6">
    <g id="ytick_9">
     <g id="line2d_30">
      <g>
       <use xlink:href="#m789995791b" x="390.54875" y="124.624792" style="stroke: #000000; stroke-width: 0.8"/>
      </g>
     </g>
     <g id="text_25">
      <!-- 0.00 -->
      <g transform="translate(356.83 129.183854)scale(0.12 -0.12)">
       <use xlink:href="#DejaVuSans-30"/>
       <use xlink:href="#DejaVuSans-2e" x="63.623047"/>
       <use xlink:href="#DejaVuSans-30" x="95.410156"/>
       <use xlink:href="#DejaVuSans-30" x="159.033203"/>
      </g>
     </g>
    </g>
    <g id="ytick_10">
     <g id="line2d_31">
      <g>
       <use xlink:href="#m789995791b" x="390.54875" y="98.755521" style="stroke: #000000; stroke-width: 0.8"/>
      </g>
     </g>
     <g id="text_26">
      <!-- 0.25 -->
      <g transform="translate(356.83 103.314583)scale(0.12 -0.12)">
       <use xlink:href="#DejaVuSans-30"/>
       <use xlink:href="#DejaVuSans-2e" x="63.623047"/>
       <use xlink:href="#DejaVuSans-32" x="95.410156"/>
       <use xlink:href="#DejaVuSans-35" x="159.033203"/>
      </g>
     </g>
    </g>
    <g id="ytick_11">
     <g id="line2d_32">
      <g>
       <use xlink:href="#m789995791b" x="390.54875" y="72.88625" style="stroke: #000000; stroke-width: 0.8"/>
      </g>
     </g>
     <g id="text_27">
      <!-- 0.50 -->
      <g transform="translate(356.83 77.445313)scale(0.12 -0.12)">
       <use xlink:href="#DejaVuSans-30"/>
       <use xlink:href="#DejaVuSans-2e" x="63.623047"/>
       <use xlink:href="#DejaVuSans-35" x="95.410156"/>
       <use xlink:href="#DejaVuSans-30" x="159.033203"/>
      </g>
     </g>
    </g>
    <g id="ytick_12">
     <g id="line2d_33">
      <g>
       <use xlink:href="#m789995791b" x="390.54875" y="47.016979" style="stroke: #000000; stroke-width: 0.8"/>
      </g>
     </g>
     <g id="text_28">
      <!-- 0.75 -->
      <g transform="translate(356.83 51.576042)scale(0.12 -0.12)">
       <defs>
        <path id="DejaVuSans-37" d="M 525 4666 
L 3525 4666 
L 3525 4397 
L 1831 0 
L 1172 0 
L 2766 4134 
L 525 4134 
L 525 4666 
z
" transform="scale(0.015625)"/>
       </defs>
       <use xlink:href="#DejaVuSans-30"/>
       <use xlink:href="#DejaVuSans-2e" x="63.623047"/>
       <use xlink:href="#DejaVuSans-37" x="95.410156"/>
       <use xlink:href="#DejaVuSans-35" x="159.033203"/>
      </g>
     </g>
    </g>
    <g id="ytick_13">
     <g id="line2d_34">
      <g>
       <use xlink:href="#m789995791b" x="390.54875" y="21.147708" style="stroke: #000000; stroke-width: 0.8"/>
      </g>
     </g>
     <g id="text_29">
      <!-- 1.00 -->
      <g transform="translate(356.83 25.706771)scale(0.12 -0.12)">
       <use xlink:href="#DejaVuSans-31"/>
       <use xlink:href="#DejaVuSans-2e" x="63.623047"/>
       <use xlink:href="#DejaVuSans-30" x="95.410156"/>
       <use xlink:href="#DejaVuSans-30" x="159.033203"/>
      </g>
     </g>
    </g>
    <g id="text_30">
     <!-- Loss -->
     <g transform="translate(350.334375 86.046875)rotate(-90)scale(0.12 -0.12)">
      <use xlink:href="#DejaVuSans-4c"/>
      <use xlink:href="#DejaVuSans-6f" x="53.962891"/>
      <use xlink:href="#DejaVuSans-73" x="115.144531"/>
      <use xlink:href="#DejaVuSans-73" x="167.244141"/>
     </g>
    </g>
   </g>
   <g id="line2d_35">
    <path d="M 394.883556 21.723279 
L 395.759275 23.506057 
L 396.634993 25.281372 
L 397.510712 27.025041 
L 398.38643 28.751502 
L 399.262149 30.457664 
L 400.137867 32.183736 
L 401.013586 33.95054 
L 401.889304 35.700653 
L 402.765023 37.437322 
L 403.640741 39.117839 
L 404.51646 40.872874 
L 405.392178 42.581307 
L 406.267896 44.275405 
L 407.143615 45.982185 
L 408.019333 47.641954 
L 408.895052 49.341708 
L 409.77077 51.035029 
L 410.646489 52.744516 
L 411.522207 54.357701 
L 412.397926 55.961547 
L 413.273644 57.596701 
L 414.149363 59.235383 
L 415.025081 60.937678 
L 415.9008 62.615722 
L 416.776518 64.32466 
L 417.652236 66.067114 
L 418.527955 67.733821 
L 419.403673 69.407943 
L 420.279392 71.298434 
L 421.15511 73.229348 
L 422.030829 75.202612 
L 422.906547 76.994118 
L 423.782266 78.61042 
L 424.657984 80.258341 
L 425.533703 81.834346 
L 426.409421 83.422323 
L 427.28514 84.949258 
L 428.160858 86.382943 
L 429.036577 87.87442 
L 429.912295 89.238749 
L 430.788013 90.509983 
L 431.663732 91.807932 
L 432.53945 93.166695 
L 433.415169 94.535792 
L 434.290887 95.863738 
L 435.166606 97.237486 
L 436.042324 98.793801 
L 436.918043 100.224996 
L 437.793761 101.375396 
L 438.66948 102.423162 
L 439.545198 103.464599 
L 440.420917 104.536625 
L 441.296635 105.546853 
L 442.172353 106.497267 
L 443.048072 107.507835 
L 443.92379 108.422464 
L 444.799509 109.395191 
L 445.675227 110.440506 
L 446.550946 111.372292 
L 447.426664 112.220829 
L 448.302383 112.90457 
L 449.178101 113.497878 
L 450.05382 114.093423 
L 450.929538 114.791111 
L 451.805257 115.611367 
L 452.680975 116.33581 
L 453.556694 116.859516 
L 454.432412 117.373298 
L 455.30813 117.876239 
L 456.183849 118.356192 
L 457.059567 118.806187 
L 457.935286 119.199872 
L 458.811004 119.602844 
L 459.686723 120.034883 
L 460.562441 120.442852 
L 461.43816 120.770441 
L 462.313878 121.064673 
L 463.189597 121.381499 
L 464.065315 121.701683 
L 464.941034 121.98469 
L 465.816752 122.250943 
L 466.69247 122.463914 
L 467.568189 122.669993 
L 468.443907 122.882609 
L 469.319626 123.074872 
L 470.195344 123.217576 
L 471.071063 123.324929 
L 471.946781 123.423107 
L 472.8225 123.516077 
L 473.698218 123.600334 
L 474.573937 123.673865 
L 475.449655 123.73835 
L 476.325374 123.79654 
L 477.201092 123.851439 
L 478.076811 123.90607 
L 478.952529 123.963751 
L 479.828247 124.027829 
L 480.703966 124.089906 
L 481.579684 124.145895 
" clip-path="url(#pc6ccf15206)" style="fill: none; stroke: #ff0000; stroke-width: 1.5; stroke-linecap: square"/>
   </g>
   <g id="line2d_36">
    <path d="M 394.883556 124.624788 
L 395.759275 124.624789 
L 396.634993 124.62479 
L 397.510712 124.62479 
L 398.38643 124.624791 
L 399.262149 124.624791 
L 400.137867 124.624791 
L 401.013586 124.624791 
L 401.889304 124.624791 
L 402.765023 124.624791 
L 403.640741 124.624791 
L 404.51646 124.624791 
L 405.392178 124.624791 
L 406.267896 124.624792 
L 407.143615 124.624792 
L 408.019333 124.624792 
L 408.895052 124.624792 
L 409.77077 124.624792 
L 410.646489 124.624792 
L 411.522207 124.624792 
L 412.397926 124.624792 
L 413.273644 124.624792 
L 414.149363 124.624792 
L 415.025081 124.624792 
L 415.9008 124.624792 
L 416.776518 124.624792 
L 417.652236 124.624792 
L 418.527955 124.624792 
L 419.403673 124.624792 
L 420.279392 124.624792 
L 421.15511 124.624792 
L 422.030829 124.624792 
L 422.906547 124.624792 
L 423.782266 124.624792 
L 424.657984 124.624792 
L 425.533703 124.624792 
L 426.409421 124.624792 
L 427.28514 124.624792 
L 428.160858 124.624792 
L 429.036577 124.624792 
L 429.912295 124.624792 
L 430.788013 124.624792 
L 431.663732 124.624792 
L 432.53945 124.624792 
L 433.415169 124.624792 
L 434.290887 124.624792 
L 435.166606 124.624792 
L 436.042324 124.624792 
L 436.918043 124.624792 
L 437.793761 124.624792 
L 438.66948 124.624792 
L 439.545198 124.624792 
L 440.420917 124.624792 
L 441.296635 124.624792 
L 442.172353 124.624792 
L 443.048072 124.624792 
L 443.92379 124.624792 
L 444.799509 124.624792 
L 445.675227 124.624792 
L 446.550946 124.624792 
L 447.426664 124.624792 
L 448.302383 124.624792 
L 449.178101 124.624792 
L 450.05382 124.624792 
L 450.929538 124.624792 
L 451.805257 124.624792 
L 452.680975 124.624792 
L 453.556694 124.624792 
L 454.432412 124.624792 
L 455.30813 124.624792 
L 456.183849 124.624792 
L 457.059567 124.624792 
L 457.935286 124.624792 
L 458.811004 124.624792 
L 459.686723 124.624792 
L 460.562441 124.624792 
L 461.43816 124.624792 
L 462.313878 124.624792 
L 463.189597 124.624792 
L 464.065315 124.624792 
L 464.941034 124.624792 
L 465.816752 124.624792 
L 466.69247 124.624792 
L 467.568189 124.624792 
L 468.443907 124.624792 
L 469.319626 124.624792 
L 470.195344 124.624792 
L 471.071063 124.624792 
L 471.946781 124.624792 
L 472.8225 124.624792 
L 473.698218 124.624792 
L 474.573937 124.624792 
L 475.449655 124.624792 
L 476.325374 124.624792 
L 477.201092 124.624792 
L 478.076811 124.624792 
L 478.952529 124.624792 
L 479.828247 124.624792 
L 480.703966 124.624792 
L 481.579684 124.624792 
" clip-path="url(#pc6ccf15206)" style="fill: none; stroke: #000000; stroke-width: 1.5; stroke-linecap: square"/>
   </g>
   <g id="patch_13">
    <path d="M 390.54875 134.9725 
L 390.54875 10.8 
" style="fill: none; stroke: #000000; stroke-width: 0.8; stroke-linejoin: miter; stroke-linecap: square"/>
   </g>
   <g id="patch_14">
    <path d="M 485.914491 134.9725 
L 485.914491 10.8 
" style="fill: none; stroke: #000000; stroke-width: 0.8; stroke-linejoin: miter; stroke-linecap: square"/>
   </g>
   <g id="patch_15">
    <path d="M 390.54875 134.9725 
L 485.914491 134.9725 
" style="fill: none; stroke: #000000; stroke-width: 0.8; stroke-linejoin: miter; stroke-linecap: square"/>
   </g>
   <g id="patch_16">
    <path d="M 390.54875 10.8 
L 485.914491 10.8 
" style="fill: none; stroke: #000000; stroke-width: 0.8; stroke-linejoin: miter; stroke-linecap: square"/>
   </g>
  </g>
 </g>
 <defs>
  <clipPath id="p9eec8fbe86">
   <rect x="52.4975" y="10.8" width="95.365741" height="124.1725"/>
  </clipPath>
  <clipPath id="p8bbb469a5d">
   <rect x="221.523125" y="10.8" width="95.365741" height="124.1725"/>
  </clipPath>
  <clipPath id="pc6ccf15206">
   <rect x="390.54875" y="10.8" width="95.365741" height="124.1725"/>
  </clipPath>
 </defs>
</svg>
