<?xml version="1.0" encoding="utf-8" standalone="no"?>
<!DOCTYPE svg PUBLIC "-//W3C//DTD SVG 1.1//EN"
  "http://www.w3.org/Graphics/SVG/1.1/DTD/svg11.dtd">
<svg xmlns:xlink="http://www.w3.org/1999/xlink" width="612pt" height="118.8pt" viewBox="0 0 612 118.8" xmlns="http://www.w3.org/2000/svg" version="1.1">
 <metadata>
  <rdf:RDF xmlns:dc="http://purl.org/dc/elements/1.1/" xmlns:cc="http://creativecommons.org/ns#" xmlns:rdf="http://www.w3.org/1999/02/22-rdf-syntax-ns#">
   <cc:Work>
    <dc:type rdf:resource="http://purl.org/dc/dcmitype/StillImage"/>
    <dc:date>2025-05-08T15:09:24.079509</dc:date>
    <dc:format>image/svg+xml</dc:format>
    <dc:creator>
     <cc:Agent>
      <dc:title>Matplotlib v3.5.2, https://matplotlib.org/</dc:title>
     </cc:Agent>
    </dc:creator>
   </cc:Work>
  </rdf:RDF>
 </metadata>
 <defs>
  <style type="text/css">*{stroke-linejoin: round; stroke-linecap: butt}</style>
 </defs>
 <g id="figure_1">
  <g id="patch_1">
   <path d="M 0 118.8 
L 612 118.8 
L 612 0 
L 0 0 
z
" style="fill: #ffffff"/>
  </g>
  <g id="axes_1">
   <g id="patch_2">
    <path d="M 41.04875 73.7725 
L 177.123667 73.7725 
L 177.123667 11.201062 
L 41.04875 11.201062 
z
" style="fill: #ffffff"/>
   </g>
   <g id="matplotlib.axis_1">
    <g id="xtick_1">
     <g id="line2d_1">
      <defs>
       <path id="mb7351745a0" d="M 0 0 
L 0 3.5 
" style="stroke: #000000; stroke-width: 0.8"/>
      </defs>
      <g>
       <use xlink:href="#mb7351745a0" x="47.233974" y="73.7725" style="stroke: #000000; stroke-width: 0.8"/>
      </g>
     </g>
     <g id="text_1">
      <!-- 0 -->
      <g transform="translate(43.416474 89.890625)scale(0.12 -0.12)">
       <defs>
        <path id="DejaVuSans-30" d="M 2034 4250 
Q 1547 4250 1301 3770 
Q 1056 3291 1056 2328 
Q 1056 1369 1301 889 
Q 1547 409 2034 409 
Q 2525 409 2770 889 
Q 3016 1369 3016 2328 
Q 3016 3291 2770 3770 
Q 2525 4250 2034 4250 
z
M 2034 4750 
Q 2819 4750 3233 4129 
Q 3647 3509 3647 2328 
Q 3647 1150 3233 529 
Q 2819 -91 2034 -91 
Q 1250 -91 836 529 
Q 422 1150 422 2328 
Q 422 3509 836 4129 
Q 1250 4750 2034 4750 
z
" transform="scale(0.015625)"/>
       </defs>
       <use xlink:href="#DejaVuSans-30"/>
      </g>
     </g>
    </g>
    <g id="xtick_2">
     <g id="line2d_2">
      <g>
       <use xlink:href="#mb7351745a0" x="109.710979" y="73.7725" style="stroke: #000000; stroke-width: 0.8"/>
      </g>
     </g>
     <g id="text_2">
      <!-- 50 -->
      <g transform="translate(102.075979 89.890625)scale(0.12 -0.12)">
       <defs>
        <path id="DejaVuSans-35" d="M 691 4666 
L 3169 4666 
L 3169 4134 
L 1269 4134 
L 1269 2991 
Q 1406 3038 1543 3061 
Q 1681 3084 1819 3084 
Q 2600 3084 3056 2656 
Q 3513 2228 3513 1497 
Q 3513 744 3044 326 
Q 2575 -91 1722 -91 
Q 1428 -91 1123 -41 
Q 819 9 494 109 
L 494 744 
Q 775 591 1075 516 
Q 1375 441 1709 441 
Q 2250 441 2565 725 
Q 2881 1009 2881 1497 
Q 2881 1984 2565 2268 
Q 2250 2553 1709 2553 
Q 1456 2553 1204 2497 
Q 953 2441 691 2322 
L 691 4666 
z
" transform="scale(0.015625)"/>
       </defs>
       <use xlink:href="#DejaVuSans-35"/>
       <use xlink:href="#DejaVuSans-30" x="63.623047"/>
      </g>
     </g>
    </g>
    <g id="xtick_3">
     <g id="line2d_3">
      <g>
       <use xlink:href="#mb7351745a0" x="172.187984" y="73.7725" style="stroke: #000000; stroke-width: 0.8"/>
      </g>
     </g>
     <g id="text_3">
      <!-- 100 -->
      <g transform="translate(160.735484 89.890625)scale(0.12 -0.12)">
       <defs>
        <path id="DejaVuSans-31" d="M 794 531 
L 1825 531 
L 1825 4091 
L 703 3866 
L 703 4441 
L 1819 4666 
L 2450 4666 
L 2450 531 
L 3481 531 
L 3481 0 
L 794 0 
L 794 531 
z
" transform="scale(0.015625)"/>
       </defs>
       <use xlink:href="#DejaVuSans-31"/>
       <use xlink:href="#DejaVuSans-30" x="63.623047"/>
       <use xlink:href="#DejaVuSans-30" x="127.246094"/>
      </g>
     </g>
    </g>
    <g id="text_4">
     <!-- Epoch -->
     <g transform="translate(90.713084 105.504375)scale(0.12 -0.12)">
      <defs>
       <path id="DejaVuSans-45" d="M 628 4666 
L 3578 4666 
L 3578 4134 
L 1259 4134 
L 1259 2753 
L 3481 2753 
L 3481 2222 
L 1259 2222 
L 1259 531 
L 3634 531 
L 3634 0 
L 628 0 
L 628 4666 
z
" transform="scale(0.015625)"/>
       <path id="DejaVuSans-70" d="M 1159 525 
L 1159 -1331 
L 581 -1331 
L 581 3500 
L 1159 3500 
L 1159 2969 
Q 1341 3281 1617 3432 
Q 1894 3584 2278 3584 
Q 2916 3584 3314 3078 
Q 3713 2572 3713 1747 
Q 3713 922 3314 415 
Q 2916 -91 2278 -91 
Q 1894 -91 1617 61 
Q 1341 213 1159 525 
z
M 3116 1747 
Q 3116 2381 2855 2742 
Q 2594 3103 2138 3103 
Q 1681 3103 1420 2742 
Q 1159 2381 1159 1747 
Q 1159 1113 1420 752 
Q 1681 391 2138 391 
Q 2594 391 2855 752 
Q 3116 1113 3116 1747 
z
" transform="scale(0.015625)"/>
       <path id="DejaVuSans-6f" d="M 1959 3097 
Q 1497 3097 1228 2736 
Q 959 2375 959 1747 
Q 959 1119 1226 758 
Q 1494 397 1959 397 
Q 2419 397 2687 759 
Q 2956 1122 2956 1747 
Q 2956 2369 2687 2733 
Q 2419 3097 1959 3097 
z
M 1959 3584 
Q 2709 3584 3137 3096 
Q 3566 2609 3566 1747 
Q 3566 888 3137 398 
Q 2709 -91 1959 -91 
Q 1206 -91 779 398 
Q 353 888 353 1747 
Q 353 2609 779 3096 
Q 1206 3584 1959 3584 
z
" transform="scale(0.015625)"/>
       <path id="DejaVuSans-63" d="M 3122 3366 
L 3122 2828 
Q 2878 2963 2633 3030 
Q 2388 3097 2138 3097 
Q 1578 3097 1268 2742 
Q 959 2388 959 1747 
Q 959 1106 1268 751 
Q 1578 397 2138 397 
Q 2388 397 2633 464 
Q 2878 531 3122 666 
L 3122 134 
Q 2881 22 2623 -34 
Q 2366 -91 2075 -91 
Q 1284 -91 818 406 
Q 353 903 353 1747 
Q 353 2603 823 3093 
Q 1294 3584 2113 3584 
Q 2378 3584 2631 3529 
Q 2884 3475 3122 3366 
z
" transform="scale(0.015625)"/>
       <path id="DejaVuSans-68" d="M 3513 2113 
L 3513 0 
L 2938 0 
L 2938 2094 
Q 2938 2591 2744 2837 
Q 2550 3084 2163 3084 
Q 1697 3084 1428 2787 
Q 1159 2491 1159 1978 
L 1159 0 
L 581 0 
L 581 4863 
L 1159 4863 
L 1159 2956 
Q 1366 3272 1645 3428 
Q 1925 3584 2291 3584 
Q 2894 3584 3203 3211 
Q 3513 2838 3513 2113 
z
" transform="scale(0.015625)"/>
      </defs>
      <use xlink:href="#DejaVuSans-45"/>
      <use xlink:href="#DejaVuSans-70" x="63.183594"/>
      <use xlink:href="#DejaVuSans-6f" x="126.660156"/>
      <use xlink:href="#DejaVuSans-63" x="187.841797"/>
      <use xlink:href="#DejaVuSans-68" x="242.822266"/>
     </g>
    </g>
   </g>
   <g id="matplotlib.axis_2">
    <g id="ytick_1">
     <g id="line2d_4">
      <defs>
       <path id="md7c558a4bf" d="M 0 0 
L -3.5 0 
" style="stroke: #000000; stroke-width: 0.8"/>
      </defs>
      <g>
       <use xlink:href="#md7c558a4bf" x="41.04875" y="70.928344" style="stroke: #000000; stroke-width: 0.8"/>
      </g>
     </g>
     <g id="text_5">
      <!-- 0 -->
      <g transform="translate(26.41375 75.487406)scale(0.12 -0.12)">
       <use xlink:href="#DejaVuSans-30"/>
      </g>
     </g>
    </g>
    <g id="ytick_2">
     <g id="line2d_5">
      <g>
       <use xlink:href="#md7c558a4bf" x="41.04875" y="42.486781" style="stroke: #000000; stroke-width: 0.8"/>
      </g>
     </g>
     <g id="text_6">
      <!-- 1 -->
      <g transform="translate(26.41375 47.045844)scale(0.12 -0.12)">
       <use xlink:href="#DejaVuSans-31"/>
      </g>
     </g>
    </g>
    <g id="ytick_3">
     <g id="line2d_6">
      <g>
       <use xlink:href="#md7c558a4bf" x="41.04875" y="14.045219" style="stroke: #000000; stroke-width: 0.8"/>
      </g>
     </g>
     <g id="text_7">
      <!-- 2 -->
      <g transform="translate(26.41375 18.604281)scale(0.12 -0.12)">
       <defs>
        <path id="DejaVuSans-32" d="M 1228 531 
L 3431 531 
L 3431 0 
L 469 0 
L 469 531 
Q 828 903 1448 1529 
Q 2069 2156 2228 2338 
Q 2531 2678 2651 2914 
Q 2772 3150 2772 3378 
Q 2772 3750 2511 3984 
Q 2250 4219 1831 4219 
Q 1534 4219 1204 4116 
Q 875 4013 500 3803 
L 500 4441 
Q 881 4594 1212 4672 
Q 1544 4750 1819 4750 
Q 2544 4750 2975 4387 
Q 3406 4025 3406 3419 
Q 3406 3131 3298 2873 
Q 3191 2616 2906 2266 
Q 2828 2175 2409 1742 
Q 1991 1309 1228 531 
z
" transform="scale(0.015625)"/>
       </defs>
       <use xlink:href="#DejaVuSans-32"/>
      </g>
     </g>
    </g>
    <g id="text_8">
     <!-- Loss -->
     <g transform="translate(19.918125 55.647406)rotate(-90)scale(0.12 -0.12)">
      <defs>
       <path id="DejaVuSans-4c" d="M 628 4666 
L 1259 4666 
L 1259 531 
L 3531 531 
L 3531 0 
L 628 0 
L 628 4666 
z
" transform="scale(0.015625)"/>
       <path id="DejaVuSans-73" d="M 2834 3397 
L 2834 2853 
Q 2591 2978 2328 3040 
Q 2066 3103 1784 3103 
Q 1356 3103 1142 2972 
Q 928 2841 928 2578 
Q 928 2378 1081 2264 
Q 1234 2150 1697 2047 
L 1894 2003 
Q 2506 1872 2764 1633 
Q 3022 1394 3022 966 
Q 3022 478 2636 193 
Q 2250 -91 1575 -91 
Q 1294 -91 989 -36 
Q 684 19 347 128 
L 347 722 
Q 666 556 975 473 
Q 1284 391 1588 391 
Q 1994 391 2212 530 
Q 2431 669 2431 922 
Q 2431 1156 2273 1281 
Q 2116 1406 1581 1522 
L 1381 1569 
Q 847 1681 609 1914 
Q 372 2147 372 2553 
Q 372 3047 722 3315 
Q 1072 3584 1716 3584 
Q 2034 3584 2315 3537 
Q 2597 3491 2834 3397 
z
" transform="scale(0.015625)"/>
      </defs>
      <use xlink:href="#DejaVuSans-4c"/>
      <use xlink:href="#DejaVuSans-6f" x="53.962891"/>
      <use xlink:href="#DejaVuSans-73" x="115.144531"/>
      <use xlink:href="#DejaVuSans-73" x="167.244141"/>
     </g>
    </g>
   </g>
   <g id="line2d_7">
    <path d="M 47.233974 42.644982 
L 48.483514 43.134994 
L 49.733054 43.622954 
L 50.982594 44.102216 
L 52.232134 44.576749 
L 53.481674 45.045702 
L 54.731214 45.520128 
L 55.980754 46.005749 
L 57.230294 46.486783 
L 58.479834 46.964121 
L 59.729375 47.426026 
L 60.978915 47.908412 
L 62.228455 48.377989 
L 63.477995 48.843627 
L 64.727535 49.31275 
L 65.977075 49.768951 
L 67.226615 50.236144 
L 68.476155 50.701567 
L 69.725695 51.171435 
L 70.975235 51.614832 
L 72.224776 52.055663 
L 73.474316 52.505099 
L 74.723856 52.955505 
L 75.973396 53.423395 
L 77.222936 53.88462 
L 78.472476 54.354336 
L 79.722016 54.833264 
L 80.971556 55.291373 
L 82.221096 55.75152 
L 83.470637 56.271138 
L 84.720177 56.801866 
L 85.969717 57.344235 
L 87.219257 57.836645 
L 88.468797 58.2809 
L 89.718337 58.733845 
L 90.967877 59.167023 
L 92.217417 59.603492 
L 93.466957 60.023183 
L 94.716497 60.417244 
L 95.966038 60.827189 
L 97.215578 61.202187 
L 98.465118 61.551596 
L 99.714658 61.908349 
L 100.964198 62.281817 
L 102.213738 62.658125 
L 103.463278 63.023122 
L 104.712818 63.400708 
L 105.962358 63.828475 
L 107.211899 64.221851 
L 108.461439 64.538048 
L 109.710979 64.826036 
L 110.960519 65.112284 
L 112.210059 65.406939 
L 113.459599 65.684609 
L 114.709139 65.945838 
L 115.958679 66.223602 
L 117.208219 66.474995 
L 118.457759 66.742358 
L 119.7073 67.029671 
L 120.95684 67.285781 
L 122.20638 67.519008 
L 123.45592 67.70694 
L 124.70546 67.870016 
L 125.955 68.033707 
L 127.20454 68.225472 
L 128.45408 68.450927 
L 129.70362 68.650046 
L 130.953161 68.793991 
L 132.202701 68.935209 
L 133.452241 69.073446 
L 134.701781 69.205366 
L 135.951321 69.329051 
L 137.200861 69.437258 
L 138.450401 69.548018 
L 139.699941 69.666768 
L 140.949481 69.778902 
L 142.199021 69.868943 
L 143.448562 69.949815 
L 144.698102 70.036897 
L 145.947642 70.124902 
L 147.197182 70.202689 
L 148.446722 70.275871 
L 149.696262 70.334408 
L 150.945802 70.391051 
L 152.195342 70.44949 
L 153.444882 70.502335 
L 154.694422 70.541558 
L 155.943963 70.571065 
L 157.193503 70.598051 
L 158.443043 70.623604 
L 159.692583 70.646763 
L 160.942123 70.666973 
L 162.191663 70.684698 
L 163.441203 70.700692 
L 164.690743 70.715781 
L 165.940283 70.730797 
L 167.189824 70.746651 
L 168.439364 70.764263 
L 169.688904 70.781326 
L 170.938444 70.796715 
" clip-path="url(#pcdec05e9d5)" style="fill: none; stroke: #ff00ff; stroke-width: 1.5; stroke-linecap: square"/>
   </g>
   <g id="line2d_8">
    <path d="M 47.233974 21.736704 
L 48.483514 26.556951 
L 49.733054 33.990335 
L 50.982594 43.340309 
L 52.232134 52.291904 
L 53.481674 59.97207 
L 54.731214 64.070966 
L 55.980754 66.095245 
L 57.230294 67.615865 
L 58.479834 68.649862 
L 59.729375 69.285802 
L 60.978915 69.722851 
L 62.228455 69.952289 
L 63.477995 70.126468 
L 64.727535 70.264915 
L 65.977075 70.387699 
L 67.226615 70.498351 
L 68.476155 70.622889 
L 69.725695 70.755453 
L 70.975235 70.80923 
L 72.224776 70.837213 
L 73.474316 70.857579 
L 74.723856 70.871816 
L 75.973396 70.883608 
L 77.222936 70.891981 
L 78.472476 70.899558 
L 79.722016 70.905709 
L 80.971556 70.910134 
L 82.221096 70.913505 
L 83.470637 70.916293 
L 84.720177 70.918688 
L 85.969717 70.920709 
L 87.219257 70.92232 
L 88.468797 70.923551 
L 89.718337 70.924494 
L 90.967877 70.925236 
L 92.217417 70.925836 
L 93.466957 70.926328 
L 94.716497 70.926734 
L 95.966038 70.927065 
L 97.215578 70.927333 
L 98.465118 70.927551 
L 99.714658 70.927726 
L 100.964198 70.927866 
L 102.213738 70.927976 
L 103.463278 70.92806 
L 104.712818 70.928124 
L 105.962358 70.928173 
L 107.211899 70.92821 
L 108.461439 70.928237 
L 109.710979 70.928259 
L 110.960519 70.928276 
L 112.210059 70.928289 
L 113.459599 70.9283 
L 114.709139 70.928308 
L 115.958679 70.928315 
L 117.208219 70.92832 
L 118.457759 70.928325 
L 119.7073 70.928328 
L 120.95684 70.928331 
L 122.20638 70.928333 
L 123.45592 70.928335 
L 124.70546 70.928336 
L 125.955 70.928338 
L 127.20454 70.928339 
L 128.45408 70.92834 
L 129.70362 70.92834 
L 130.953161 70.928341 
L 132.202701 70.928341 
L 133.452241 70.928342 
L 134.701781 70.928342 
L 135.951321 70.928342 
L 137.200861 70.928343 
L 138.450401 70.928343 
L 139.699941 70.928343 
L 140.949481 70.928343 
L 142.199021 70.928343 
L 143.448562 70.928343 
L 144.698102 70.928343 
L 145.947642 70.928343 
L 147.197182 70.928343 
L 148.446722 70.928344 
L 149.696262 70.928344 
L 150.945802 70.928344 
L 152.195342 70.928344 
L 153.444882 70.928344 
L 154.694422 70.928344 
L 155.943963 70.928344 
L 157.193503 70.928344 
L 158.443043 70.928344 
L 159.692583 70.928344 
L 160.942123 70.928344 
L 162.191663 70.928344 
L 163.441203 70.928344 
L 164.690743 70.928344 
L 165.940283 70.928344 
L 167.189824 70.928344 
L 168.439364 70.928344 
L 169.688904 70.928344 
L 170.938444 70.928344 
" clip-path="url(#pcdec05e9d5)" style="fill: none; stroke: #ee11ff; stroke-width: 1.5; stroke-linecap: square"/>
   </g>
   <g id="line2d_9">
    <path d="M 47.233974 62.992532 
L 48.483514 70.29078 
L 49.733054 70.444672 
L 50.982594 70.574976 
L 52.232134 70.733621 
L 53.481674 70.817228 
L 54.731214 70.848511 
L 55.980754 70.868599 
L 57.230294 70.883725 
L 58.479834 70.894465 
L 59.729375 70.903584 
L 60.978915 70.90921 
L 62.228455 70.913426 
L 63.477995 70.91691 
L 64.727535 70.919822 
L 65.977075 70.922045 
L 67.226615 70.923612 
L 68.476155 70.924741 
L 69.725695 70.925596 
L 70.975235 70.926261 
L 72.224776 70.926777 
L 73.474316 70.927172 
L 74.723856 70.927471 
L 75.973396 70.927697 
L 77.222936 70.927868 
L 78.472476 70.927993 
L 79.722016 70.928083 
L 80.971556 70.928148 
L 82.221096 70.928196 
L 83.470637 70.928231 
L 84.720177 70.928257 
L 85.969717 70.928277 
L 87.219257 70.928292 
L 88.468797 70.928303 
L 89.718337 70.928312 
L 90.967877 70.928319 
L 92.217417 70.928324 
L 93.466957 70.928328 
L 94.716497 70.928331 
L 95.966038 70.928334 
L 97.215578 70.928336 
L 98.465118 70.928337 
L 99.714658 70.928339 
L 100.964198 70.92834 
L 102.213738 70.92834 
L 103.463278 70.928341 
L 104.712818 70.928342 
L 105.962358 70.928342 
L 107.211899 70.928342 
L 108.461439 70.928343 
L 109.710979 70.928343 
L 110.960519 70.928343 
L 112.210059 70.928343 
L 113.459599 70.928343 
L 114.709139 70.928343 
L 115.958679 70.928343 
L 117.208219 70.928343 
L 118.457759 70.928344 
L 119.7073 70.928344 
L 120.95684 70.928344 
L 122.20638 70.928344 
L 123.45592 70.928344 
L 124.70546 70.928344 
L 125.955 70.928344 
L 127.20454 70.928344 
L 128.45408 70.928344 
L 129.70362 70.928344 
L 130.953161 70.928344 
L 132.202701 70.928344 
L 133.452241 70.928344 
L 134.701781 70.928344 
L 135.951321 70.928344 
L 137.200861 70.928344 
L 138.450401 70.928344 
L 139.699941 70.928344 
L 140.949481 70.928344 
L 142.199021 70.928344 
L 143.448562 70.928344 
L 144.698102 70.928344 
L 145.947642 70.928344 
L 147.197182 70.928344 
L 148.446722 70.928344 
L 149.696262 70.928344 
L 150.945802 70.928344 
L 152.195342 70.928344 
L 153.444882 70.928344 
L 154.694422 70.928344 
L 155.943963 70.928344 
L 157.193503 70.928344 
L 158.443043 70.928344 
L 159.692583 70.928344 
L 160.942123 70.928344 
L 162.191663 70.928344 
L 163.441203 70.928344 
L 164.690743 70.928344 
L 165.940283 70.928344 
L 167.189824 70.928344 
L 168.439364 70.928344 
L 169.688904 70.928344 
L 170.938444 70.928344 
" clip-path="url(#pcdec05e9d5)" style="fill: none; stroke: #dd22ff; stroke-width: 1.5; stroke-linecap: square"/>
   </g>
   <g id="line2d_10">
    <path d="M 47.233974 70.737697 
L 48.483514 70.859397 
L 49.733054 70.880315 
L 50.982594 70.893971 
L 52.232134 70.904153 
L 53.481674 70.909872 
L 54.731214 70.914081 
L 55.980754 70.917622 
L 57.230294 70.920535 
L 58.479834 70.92264 
L 59.729375 70.924092 
L 60.978915 70.925148 
L 62.228455 70.925951 
L 63.477995 70.926567 
L 64.727535 70.927032 
L 65.977075 70.927378 
L 67.226615 70.927636 
L 68.476155 70.927828 
L 69.725695 70.927967 
L 70.975235 70.928067 
L 72.224776 70.928138 
L 73.474316 70.928189 
L 74.723856 70.928227 
L 75.973396 70.928255 
L 77.222936 70.928276 
L 78.472476 70.928291 
L 79.722016 70.928303 
L 80.971556 70.928312 
L 82.221096 70.928319 
L 83.470637 70.928324 
L 84.720177 70.928328 
L 85.969717 70.928332 
L 87.219257 70.928334 
L 88.468797 70.928336 
L 89.718337 70.928338 
L 90.967877 70.928339 
L 92.217417 70.92834 
L 93.466957 70.928341 
L 94.716497 70.928341 
L 95.966038 70.928342 
L 97.215578 70.928342 
L 98.465118 70.928342 
L 99.714658 70.928343 
L 100.964198 70.928343 
L 102.213738 70.928343 
L 103.463278 70.928343 
L 104.712818 70.928343 
L 105.962358 70.928343 
L 107.211899 70.928343 
L 108.461439 70.928344 
L 109.710979 70.928344 
L 110.960519 70.928344 
L 112.210059 70.928344 
L 113.459599 70.928344 
L 114.709139 70.928344 
L 115.958679 70.928344 
L 117.208219 70.928344 
L 118.457759 70.928344 
L 119.7073 70.928344 
L 120.95684 70.928344 
L 122.20638 70.928344 
L 123.45592 70.928344 
L 124.70546 70.928344 
L 125.955 70.928344 
L 127.20454 70.928344 
L 128.45408 70.928344 
L 129.70362 70.928344 
L 130.953161 70.928344 
L 132.202701 70.928344 
L 133.452241 70.928344 
L 134.701781 70.928344 
L 135.951321 70.928344 
L 137.200861 70.928344 
L 138.450401 70.928344 
L 139.699941 70.928344 
L 140.949481 70.928344 
L 142.199021 70.928344 
L 143.448562 70.928344 
L 144.698102 70.928344 
L 145.947642 70.928344 
L 147.197182 70.928344 
L 148.446722 70.928344 
L 149.696262 70.928344 
L 150.945802 70.928344 
L 152.195342 70.928344 
L 153.444882 70.928344 
L 154.694422 70.928344 
L 155.943963 70.928344 
L 157.193503 70.928344 
L 158.443043 70.928344 
L 159.692583 70.928344 
L 160.942123 70.928344 
L 162.191663 70.928344 
L 163.441203 70.928344 
L 164.690743 70.928344 
L 165.940283 70.928344 
L 167.189824 70.928344 
L 168.439364 70.928344 
L 169.688904 70.928344 
L 170.938444 70.928344 
" clip-path="url(#pcdec05e9d5)" style="fill: none; stroke: #cc33ff; stroke-width: 1.5; stroke-linecap: square"/>
   </g>
   <g id="line2d_11">
    <path d="M 47.233974 70.919076 
L 48.483514 70.923034 
L 49.733054 70.925106 
L 50.982594 70.926135 
L 52.232134 70.92679 
L 53.481674 70.927237 
L 54.731214 70.927546 
L 55.980754 70.927767 
L 57.230294 70.927927 
L 58.479834 70.92804 
L 59.729375 70.928119 
L 60.978915 70.928176 
L 62.228455 70.928218 
L 63.477995 70.928248 
L 64.727535 70.928271 
L 65.977075 70.928287 
L 67.226615 70.9283 
L 68.476155 70.92831 
L 69.725695 70.928317 
L 70.975235 70.928323 
L 72.224776 70.928327 
L 73.474316 70.928331 
L 74.723856 70.928334 
L 75.973396 70.928336 
L 77.222936 70.928337 
L 78.472476 70.928339 
L 79.722016 70.92834 
L 80.971556 70.92834 
L 82.221096 70.928341 
L 83.470637 70.928342 
L 84.720177 70.928342 
L 85.969717 70.928342 
L 87.219257 70.928343 
L 88.468797 70.928343 
L 89.718337 70.928343 
L 90.967877 70.928343 
L 92.217417 70.928343 
L 93.466957 70.928343 
L 94.716497 70.928343 
L 95.966038 70.928344 
L 97.215578 70.928344 
L 98.465118 70.928344 
L 99.714658 70.928344 
L 100.964198 70.928344 
L 102.213738 70.928344 
L 103.463278 70.928344 
L 104.712818 70.928344 
L 105.962358 70.928344 
L 107.211899 70.928344 
L 108.461439 70.928344 
L 109.710979 70.928344 
L 110.960519 70.928344 
L 112.210059 70.928344 
L 113.459599 70.928344 
L 114.709139 70.928344 
L 115.958679 70.928344 
L 117.208219 70.928344 
L 118.457759 70.928344 
L 119.7073 70.928344 
L 120.95684 70.928344 
L 122.20638 70.928344 
L 123.45592 70.928344 
L 124.70546 70.928344 
L 125.955 70.928344 
L 127.20454 70.928344 
L 128.45408 70.928344 
L 129.70362 70.928344 
L 130.953161 70.928344 
L 132.202701 70.928344 
L 133.452241 70.928344 
L 134.701781 70.928344 
L 135.951321 70.928344 
L 137.200861 70.928344 
L 138.450401 70.928344 
L 139.699941 70.928344 
L 140.949481 70.928344 
L 142.199021 70.928344 
L 143.448562 70.928344 
L 144.698102 70.928344 
L 145.947642 70.928344 
L 147.197182 70.928344 
L 148.446722 70.928344 
L 149.696262 70.928344 
L 150.945802 70.928344 
L 152.195342 70.928344 
L 153.444882 70.928344 
L 154.694422 70.928344 
L 155.943963 70.928344 
L 157.193503 70.928344 
L 158.443043 70.928344 
L 159.692583 70.928344 
L 160.942123 70.928344 
L 162.191663 70.928344 
L 163.441203 70.928344 
L 164.690743 70.928344 
L 165.940283 70.928344 
L 167.189824 70.928344 
L 168.439364 70.928344 
L 169.688904 70.928344 
L 170.938444 70.928344 
" clip-path="url(#pcdec05e9d5)" style="fill: none; stroke: #bb44ff; stroke-width: 1.5; stroke-linecap: square"/>
   </g>
   <g id="line2d_12">
    <path d="M 47.233974 70.927813 
L 48.483514 70.928088 
L 49.733054 70.928207 
L 50.982594 70.928256 
L 52.232134 70.928281 
L 53.481674 70.928296 
L 54.731214 70.928307 
L 55.980754 70.928315 
L 57.230294 70.928322 
L 58.479834 70.928326 
L 59.729375 70.92833 
L 60.978915 70.928333 
L 62.228455 70.928335 
L 63.477995 70.928337 
L 64.727535 70.928338 
L 65.977075 70.928339 
L 67.226615 70.92834 
L 68.476155 70.928341 
L 69.725695 70.928342 
L 70.975235 70.928342 
L 72.224776 70.928342 
L 73.474316 70.928343 
L 74.723856 70.928343 
L 75.973396 70.928343 
L 77.222936 70.928343 
L 78.472476 70.928343 
L 79.722016 70.928343 
L 80.971556 70.928343 
L 82.221096 70.928343 
L 83.470637 70.928344 
L 84.720177 70.928344 
L 85.969717 70.928344 
L 87.219257 70.928344 
L 88.468797 70.928344 
L 89.718337 70.928344 
L 90.967877 70.928344 
L 92.217417 70.928344 
L 93.466957 70.928344 
L 94.716497 70.928344 
L 95.966038 70.928344 
L 97.215578 70.928344 
L 98.465118 70.928344 
L 99.714658 70.928344 
L 100.964198 70.928344 
L 102.213738 70.928344 
L 103.463278 70.928344 
L 104.712818 70.928344 
L 105.962358 70.928344 
L 107.211899 70.928344 
L 108.461439 70.928344 
L 109.710979 70.928344 
L 110.960519 70.928344 
L 112.210059 70.928344 
L 113.459599 70.928344 
L 114.709139 70.928344 
L 115.958679 70.928344 
L 117.208219 70.928344 
L 118.457759 70.928344 
L 119.7073 70.928344 
L 120.95684 70.928344 
L 122.20638 70.928344 
L 123.45592 70.928344 
L 124.70546 70.928344 
L 125.955 70.928344 
L 127.20454 70.928344 
L 128.45408 70.928344 
L 129.70362 70.928344 
L 130.953161 70.928344 
L 132.202701 70.928344 
L 133.452241 70.928344 
L 134.701781 70.928344 
L 135.951321 70.928344 
L 137.200861 70.928344 
L 138.450401 70.928344 
L 139.699941 70.928344 
L 140.949481 70.928344 
L 142.199021 70.928344 
L 143.448562 70.928344 
L 144.698102 70.928344 
L 145.947642 70.928344 
L 147.197182 70.928344 
L 148.446722 70.928344 
L 149.696262 70.928344 
L 150.945802 70.928344 
L 152.195342 70.928344 
L 153.444882 70.928344 
L 154.694422 70.928344 
L 155.943963 70.928344 
L 157.193503 70.928344 
L 158.443043 70.928344 
L 159.692583 70.928344 
L 160.942123 70.928344 
L 162.191663 70.928344 
L 163.441203 70.928344 
L 164.690743 70.928344 
L 165.940283 70.928344 
L 167.189824 70.928344 
L 168.439364 70.928344 
L 169.688904 70.928344 
L 170.938444 70.928344 
" clip-path="url(#pcdec05e9d5)" style="fill: none; stroke: #aa55ff; stroke-width: 1.5; stroke-linecap: square"/>
   </g>
   <g id="line2d_13">
    <path d="M 47.233974 70.928323 
L 48.483514 70.928331 
L 49.733054 70.928335 
L 50.982594 70.928338 
L 52.232134 70.928339 
L 53.481674 70.92834 
L 54.731214 70.928341 
L 55.980754 70.928342 
L 57.230294 70.928342 
L 58.479834 70.928342 
L 59.729375 70.928343 
L 60.978915 70.928343 
L 62.228455 70.928343 
L 63.477995 70.928343 
L 64.727535 70.928343 
L 65.977075 70.928343 
L 67.226615 70.928343 
L 68.476155 70.928344 
L 69.725695 70.928344 
L 70.975235 70.928344 
L 72.224776 70.928344 
L 73.474316 70.928344 
L 74.723856 70.928344 
L 75.973396 70.928344 
L 77.222936 70.928344 
L 78.472476 70.928344 
L 79.722016 70.928344 
L 80.971556 70.928344 
L 82.221096 70.928344 
L 83.470637 70.928344 
L 84.720177 70.928344 
L 85.969717 70.928344 
L 87.219257 70.928344 
L 88.468797 70.928344 
L 89.718337 70.928344 
L 90.967877 70.928344 
L 92.217417 70.928344 
L 93.466957 70.928344 
L 94.716497 70.928344 
L 95.966038 70.928344 
L 97.215578 70.928344 
L 98.465118 70.928344 
L 99.714658 70.928344 
L 100.964198 70.928344 
L 102.213738 70.928344 
L 103.463278 70.928344 
L 104.712818 70.928344 
L 105.962358 70.928344 
L 107.211899 70.928344 
L 108.461439 70.928344 
L 109.710979 70.928344 
L 110.960519 70.928344 
L 112.210059 70.928344 
L 113.459599 70.928344 
L 114.709139 70.928344 
L 115.958679 70.928344 
L 117.208219 70.928344 
L 118.457759 70.928344 
L 119.7073 70.928344 
L 120.95684 70.928344 
L 122.20638 70.928344 
L 123.45592 70.928344 
L 124.70546 70.928344 
L 125.955 70.928344 
L 127.20454 70.928344 
L 128.45408 70.928344 
L 129.70362 70.928344 
L 130.953161 70.928344 
L 132.202701 70.928344 
L 133.452241 70.928344 
L 134.701781 70.928344 
L 135.951321 70.928344 
L 137.200861 70.928344 
L 138.450401 70.928344 
L 139.699941 70.928344 
L 140.949481 70.928344 
L 142.199021 70.928344 
L 143.448562 70.928344 
L 144.698102 70.928344 
L 145.947642 70.928344 
L 147.197182 70.928344 
L 148.446722 70.928344 
L 149.696262 70.928344 
L 150.945802 70.928344 
L 152.195342 70.928344 
L 153.444882 70.928344 
L 154.694422 70.928344 
L 155.943963 70.928344 
L 157.193503 70.928344 
L 158.443043 70.928344 
L 159.692583 70.928344 
L 160.942123 70.928344 
L 162.191663 70.928344 
L 163.441203 70.928344 
L 164.690743 70.928344 
L 165.940283 70.928344 
L 167.189824 70.928344 
L 168.439364 70.928344 
L 169.688904 70.928344 
L 170.938444 70.928344 
" clip-path="url(#pcdec05e9d5)" style="fill: none; stroke: #9966ff; stroke-width: 1.5; stroke-linecap: square"/>
   </g>
   <g id="line2d_14">
    <path d="M 47.233974 70.928343 
L 48.483514 70.928343 
L 49.733054 70.928343 
L 50.982594 70.928343 
L 52.232134 70.928343 
L 53.481674 70.928344 
L 54.731214 70.928344 
L 55.980754 70.928344 
L 57.230294 70.928344 
L 58.479834 70.928344 
L 59.729375 70.928344 
L 60.978915 70.928344 
L 62.228455 70.928344 
L 63.477995 70.928344 
L 64.727535 70.928344 
L 65.977075 70.928344 
L 67.226615 70.928344 
L 68.476155 70.928344 
L 69.725695 70.928344 
L 70.975235 70.928344 
L 72.224776 70.928344 
L 73.474316 70.928344 
L 74.723856 70.928344 
L 75.973396 70.928344 
L 77.222936 70.928344 
L 78.472476 70.928344 
L 79.722016 70.928344 
L 80.971556 70.928344 
L 82.221096 70.928344 
L 83.470637 70.928344 
L 84.720177 70.928344 
L 85.969717 70.928344 
L 87.219257 70.928344 
L 88.468797 70.928344 
L 89.718337 70.928344 
L 90.967877 70.928344 
L 92.217417 70.928344 
L 93.466957 70.928344 
L 94.716497 70.928344 
L 95.966038 70.928344 
L 97.215578 70.928344 
L 98.465118 70.928344 
L 99.714658 70.928344 
L 100.964198 70.928344 
L 102.213738 70.928344 
L 103.463278 70.928344 
L 104.712818 70.928344 
L 105.962358 70.928344 
L 107.211899 70.928344 
L 108.461439 70.928344 
L 109.710979 70.928344 
L 110.960519 70.928344 
L 112.210059 70.928344 
L 113.459599 70.928344 
L 114.709139 70.928344 
L 115.958679 70.928344 
L 117.208219 70.928344 
L 118.457759 70.928344 
L 119.7073 70.928344 
L 120.95684 70.928344 
L 122.20638 70.928344 
L 123.45592 70.928344 
L 124.70546 70.928344 
L 125.955 70.928344 
L 127.20454 70.928344 
L 128.45408 70.928344 
L 129.70362 70.928344 
L 130.953161 70.928344 
L 132.202701 70.928344 
L 133.452241 70.928344 
L 134.701781 70.928344 
L 135.951321 70.928344 
L 137.200861 70.928344 
L 138.450401 70.928344 
L 139.699941 70.928344 
L 140.949481 70.928344 
L 142.199021 70.928344 
L 143.448562 70.928344 
L 144.698102 70.928344 
L 145.947642 70.928344 
L 147.197182 70.928344 
L 148.446722 70.928344 
L 149.696262 70.928344 
L 150.945802 70.928344 
L 152.195342 70.928344 
L 153.444882 70.928344 
L 154.694422 70.928344 
L 155.943963 70.928344 
L 157.193503 70.928344 
L 158.443043 70.928344 
L 159.692583 70.928344 
L 160.942123 70.928344 
L 162.191663 70.928344 
L 163.441203 70.928344 
L 164.690743 70.928344 
L 165.940283 70.928344 
L 167.189824 70.928344 
L 168.439364 70.928344 
L 169.688904 70.928344 
L 170.938444 70.928344 
" clip-path="url(#pcdec05e9d5)" style="fill: none; stroke: #8877ff; stroke-width: 1.5; stroke-linecap: square"/>
   </g>
   <g id="patch_3">
    <path d="M 41.04875 73.7725 
L 41.04875 11.201062 
" style="fill: none; stroke: #000000; stroke-width: 0.8; stroke-linejoin: miter; stroke-linecap: square"/>
   </g>
   <g id="patch_4">
    <path d="M 177.123667 73.7725 
L 177.123667 11.201062 
" style="fill: none; stroke: #000000; stroke-width: 0.8; stroke-linejoin: miter; stroke-linecap: square"/>
   </g>
   <g id="patch_5">
    <path d="M 41.04875 73.7725 
L 177.123667 73.7725 
" style="fill: none; stroke: #000000; stroke-width: 0.8; stroke-linejoin: miter; stroke-linecap: square"/>
   </g>
   <g id="patch_6">
    <path d="M 41.04875 11.201062 
L 177.123667 11.201062 
" style="fill: none; stroke: #000000; stroke-width: 0.8; stroke-linejoin: miter; stroke-linecap: square"/>
   </g>
  </g>
  <g id="axes_2">
   <g id="patch_7">
    <path d="M 249.890625 73.7725 
L 385.965542 73.7725 
L 385.965542 11.201062 
L 249.890625 11.201062 
z
" style="fill: #ffffff"/>
   </g>
   <g id="matplotlib.axis_3">
    <g id="xtick_4">
     <g id="line2d_15">
      <g>
       <use xlink:href="#mb7351745a0" x="256.075849" y="73.7725" style="stroke: #000000; stroke-width: 0.8"/>
      </g>
     </g>
     <g id="text_9">
      <!-- 1 -->
      <g transform="translate(252.258349 89.890625)scale(0.12 -0.12)">
       <use xlink:href="#DejaVuSans-31"/>
      </g>
     </g>
    </g>
    <g id="xtick_5">
     <g id="line2d_16">
      <g>
       <use xlink:href="#mb7351745a0" x="273.747916" y="73.7725" style="stroke: #000000; stroke-width: 0.8"/>
      </g>
     </g>
     <g id="text_10">
      <!-- 2 -->
      <g transform="translate(269.930416 89.890625)scale(0.12 -0.12)">
       <use xlink:href="#DejaVuSans-32"/>
      </g>
     </g>
    </g>
    <g id="xtick_6">
     <g id="line2d_17">
      <g>
       <use xlink:href="#mb7351745a0" x="309.09205" y="73.7725" style="stroke: #000000; stroke-width: 0.8"/>
      </g>
     </g>
     <g id="text_11">
      <!-- 4 -->
      <g transform="translate(305.27455 89.890625)scale(0.12 -0.12)">
       <defs>
        <path id="DejaVuSans-34" d="M 2419 4116 
L 825 1625 
L 2419 1625 
L 2419 4116 
z
M 2253 4666 
L 3047 4666 
L 3047 1625 
L 3713 1625 
L 3713 1100 
L 3047 1100 
L 3047 0 
L 2419 0 
L 2419 1100 
L 313 1100 
L 313 1709 
L 2253 4666 
z
" transform="scale(0.015625)"/>
       </defs>
       <use xlink:href="#DejaVuSans-34"/>
      </g>
     </g>
    </g>
    <g id="xtick_7">
     <g id="line2d_18">
      <g>
       <use xlink:href="#mb7351745a0" x="344.436184" y="73.7725" style="stroke: #000000; stroke-width: 0.8"/>
      </g>
     </g>
     <g id="text_12">
      <!-- 6 -->
      <g transform="translate(340.618684 89.890625)scale(0.12 -0.12)">
       <defs>
        <path id="DejaVuSans-36" d="M 2113 2584 
Q 1688 2584 1439 2293 
Q 1191 2003 1191 1497 
Q 1191 994 1439 701 
Q 1688 409 2113 409 
Q 2538 409 2786 701 
Q 3034 994 3034 1497 
Q 3034 2003 2786 2293 
Q 2538 2584 2113 2584 
z
M 3366 4563 
L 3366 3988 
Q 3128 4100 2886 4159 
Q 2644 4219 2406 4219 
Q 1781 4219 1451 3797 
Q 1122 3375 1075 2522 
Q 1259 2794 1537 2939 
Q 1816 3084 2150 3084 
Q 2853 3084 3261 2657 
Q 3669 2231 3669 1497 
Q 3669 778 3244 343 
Q 2819 -91 2113 -91 
Q 1303 -91 875 529 
Q 447 1150 447 2328 
Q 447 3434 972 4092 
Q 1497 4750 2381 4750 
Q 2619 4750 2861 4703 
Q 3103 4656 3366 4563 
z
" transform="scale(0.015625)"/>
       </defs>
       <use xlink:href="#DejaVuSans-36"/>
      </g>
     </g>
    </g>
    <g id="xtick_8">
     <g id="line2d_19">
      <g>
       <use xlink:href="#mb7351745a0" x="379.780319" y="73.7725" style="stroke: #000000; stroke-width: 0.8"/>
      </g>
     </g>
     <g id="text_13">
      <!-- 8 -->
      <g transform="translate(375.962819 89.890625)scale(0.12 -0.12)">
       <defs>
        <path id="DejaVuSans-38" d="M 2034 2216 
Q 1584 2216 1326 1975 
Q 1069 1734 1069 1313 
Q 1069 891 1326 650 
Q 1584 409 2034 409 
Q 2484 409 2743 651 
Q 3003 894 3003 1313 
Q 3003 1734 2745 1975 
Q 2488 2216 2034 2216 
z
M 1403 2484 
Q 997 2584 770 2862 
Q 544 3141 544 3541 
Q 544 4100 942 4425 
Q 1341 4750 2034 4750 
Q 2731 4750 3128 4425 
Q 3525 4100 3525 3541 
Q 3525 3141 3298 2862 
Q 3072 2584 2669 2484 
Q 3125 2378 3379 2068 
Q 3634 1759 3634 1313 
Q 3634 634 3220 271 
Q 2806 -91 2034 -91 
Q 1263 -91 848 271 
Q 434 634 434 1313 
Q 434 1759 690 2068 
Q 947 2378 1403 2484 
z
M 1172 3481 
Q 1172 3119 1398 2916 
Q 1625 2713 2034 2713 
Q 2441 2713 2670 2916 
Q 2900 3119 2900 3481 
Q 2900 3844 2670 4047 
Q 2441 4250 2034 4250 
Q 1625 4250 1398 4047 
Q 1172 3844 1172 3481 
z
" transform="scale(0.015625)"/>
       </defs>
       <use xlink:href="#DejaVuSans-38"/>
      </g>
     </g>
    </g>
    <g id="text_14">
     <!-- Trial -->
     <g transform="translate(305.671209 105.504375)scale(0.12 -0.12)">
      <defs>
       <path id="DejaVuSans-54" d="M -19 4666 
L 3928 4666 
L 3928 4134 
L 2272 4134 
L 2272 0 
L 1638 0 
L 1638 4134 
L -19 4134 
L -19 4666 
z
" transform="scale(0.015625)"/>
       <path id="DejaVuSans-72" d="M 2631 2963 
Q 2534 3019 2420 3045 
Q 2306 3072 2169 3072 
Q 1681 3072 1420 2755 
Q 1159 2438 1159 1844 
L 1159 0 
L 581 0 
L 581 3500 
L 1159 3500 
L 1159 2956 
Q 1341 3275 1631 3429 
Q 1922 3584 2338 3584 
Q 2397 3584 2469 3576 
Q 2541 3569 2628 3553 
L 2631 2963 
z
" transform="scale(0.015625)"/>
       <path id="DejaVuSans-69" d="M 603 3500 
L 1178 3500 
L 1178 0 
L 603 0 
L 603 3500 
z
M 603 4863 
L 1178 4863 
L 1178 4134 
L 603 4134 
L 603 4863 
z
" transform="scale(0.015625)"/>
       <path id="DejaVuSans-61" d="M 2194 1759 
Q 1497 1759 1228 1600 
Q 959 1441 959 1056 
Q 959 750 1161 570 
Q 1363 391 1709 391 
Q 2188 391 2477 730 
Q 2766 1069 2766 1631 
L 2766 1759 
L 2194 1759 
z
M 3341 1997 
L 3341 0 
L 2766 0 
L 2766 531 
Q 2569 213 2275 61 
Q 1981 -91 1556 -91 
Q 1019 -91 701 211 
Q 384 513 384 1019 
Q 384 1609 779 1909 
Q 1175 2209 1959 2209 
L 2766 2209 
L 2766 2266 
Q 2766 2663 2505 2880 
Q 2244 3097 1772 3097 
Q 1472 3097 1187 3025 
Q 903 2953 641 2809 
L 641 3341 
Q 956 3463 1253 3523 
Q 1550 3584 1831 3584 
Q 2591 3584 2966 3190 
Q 3341 2797 3341 1997 
z
" transform="scale(0.015625)"/>
       <path id="DejaVuSans-6c" d="M 603 4863 
L 1178 4863 
L 1178 0 
L 603 0 
L 603 4863 
z
" transform="scale(0.015625)"/>
      </defs>
      <use xlink:href="#DejaVuSans-54"/>
      <use xlink:href="#DejaVuSans-72" x="46.333984"/>
      <use xlink:href="#DejaVuSans-69" x="87.447266"/>
      <use xlink:href="#DejaVuSans-61" x="115.230469"/>
      <use xlink:href="#DejaVuSans-6c" x="176.509766"/>
     </g>
    </g>
   </g>
   <g id="matplotlib.axis_4">
    <g id="ytick_4">
     <g id="line2d_20">
      <g>
       <use xlink:href="#md7c558a4bf" x="249.890625" y="71.830803" style="stroke: #000000; stroke-width: 0.8"/>
      </g>
     </g>
     <g id="text_15">
      <!-- −250 -->
      <g transform="translate(209.93 76.389866)scale(0.12 -0.12)">
       <defs>
        <path id="DejaVuSans-2212" d="M 678 2272 
L 4684 2272 
L 4684 1741 
L 678 1741 
L 678 2272 
z
" transform="scale(0.015625)"/>
       </defs>
       <use xlink:href="#DejaVuSans-2212"/>
       <use xlink:href="#DejaVuSans-32" x="83.789062"/>
       <use xlink:href="#DejaVuSans-35" x="147.412109"/>
       <use xlink:href="#DejaVuSans-30" x="211.035156"/>
      </g>
     </g>
    </g>
    <g id="ytick_5">
     <g id="line2d_21">
      <g>
       <use xlink:href="#md7c558a4bf" x="249.890625" y="48.478591" style="stroke: #000000; stroke-width: 0.8"/>
      </g>
     </g>
     <g id="text_16">
      <!-- 0 -->
      <g transform="translate(235.255625 53.037654)scale(0.12 -0.12)">
       <use xlink:href="#DejaVuSans-30"/>
      </g>
     </g>
    </g>
    <g id="ytick_6">
     <g id="line2d_22">
      <g>
       <use xlink:href="#md7c558a4bf" x="249.890625" y="25.126379" style="stroke: #000000; stroke-width: 0.8"/>
      </g>
     </g>
     <g id="text_17">
      <!-- 250 -->
      <g transform="translate(219.985625 29.685442)scale(0.12 -0.12)">
       <use xlink:href="#DejaVuSans-32"/>
       <use xlink:href="#DejaVuSans-35" x="63.623047"/>
       <use xlink:href="#DejaVuSans-30" x="127.246094"/>
      </g>
     </g>
    </g>
    <g id="text_18">
     <!-- L -->
     <g transform="translate(203.434375 45.829906)rotate(-90)scale(0.12 -0.12)">
      <use xlink:href="#DejaVuSans-4c"/>
     </g>
    </g>
   </g>
   <g id="line2d_23">
    <path d="M 256.075849 70.928344 
L 273.747916 66.460182 
L 291.419983 52.856024 
L 309.09205 49.497987 
L 326.764117 48.715978 
L 344.436184 48.533857 
L 362.108252 48.491445 
L 379.780319 48.481609 
" clip-path="url(#pec1c2e7c6d)" style="fill: none; stroke: #1f77b4; stroke-width: 1.5; stroke-linecap: square"/>
   </g>
   <g id="line2d_24">
    <path d="M 256.075849 14.045219 
L 273.747916 39.412211 
L 291.419983 46.366857 
L 309.09205 47.986859 
L 326.764117 48.364087 
L 344.436184 48.451939 
L 362.108252 48.472379 
L 379.780319 48.47714 
" clip-path="url(#pec1c2e7c6d)" style="fill: none; stroke: #ff7f0e; stroke-width: 1.5; stroke-linecap: square"/>
   </g>
   <g id="patch_8">
    <path d="M 249.890625 73.7725 
L 249.890625 11.201062 
" style="fill: none; stroke: #000000; stroke-width: 0.8; stroke-linejoin: miter; stroke-linecap: square"/>
   </g>
   <g id="patch_9">
    <path d="M 385.965542 73.7725 
L 385.965542 11.201062 
" style="fill: none; stroke: #000000; stroke-width: 0.8; stroke-linejoin: miter; stroke-linecap: square"/>
   </g>
   <g id="patch_10">
    <path d="M 249.890625 73.7725 
L 385.965542 73.7725 
" style="fill: none; stroke: #000000; stroke-width: 0.8; stroke-linejoin: miter; stroke-linecap: square"/>
   </g>
   <g id="patch_11">
    <path d="M 249.890625 11.201062 
L 385.965542 11.201062 
" style="fill: none; stroke: #000000; stroke-width: 0.8; stroke-linejoin: miter; stroke-linecap: square"/>
   </g>
  </g>
  <g id="axes_3">
   <g id="patch_12">
    <path d="M 458.7325 73.7725 
L 594.807417 73.7725 
L 594.807417 11.201062 
L 458.7325 11.201062 
z
" style="fill: #ffffff"/>
   </g>
   <g id="matplotlib.axis_5">
    <g id="xtick_9">
     <g id="line2d_25">
      <g>
       <use xlink:href="#mb7351745a0" x="464.917724" y="73.7725" style="stroke: #000000; stroke-width: 0.8"/>
      </g>
     </g>
     <g id="text_19">
      <!-- 0 -->
      <g transform="translate(461.100224 89.890625)scale(0.12 -0.12)">
       <use xlink:href="#DejaVuSans-30"/>
      </g>
     </g>
    </g>
    <g id="xtick_10">
     <g id="line2d_26">
      <g>
       <use xlink:href="#mb7351745a0" x="527.394729" y="73.7725" style="stroke: #000000; stroke-width: 0.8"/>
      </g>
     </g>
     <g id="text_20">
      <!-- 50 -->
      <g transform="translate(519.759729 89.890625)scale(0.12 -0.12)">
       <use xlink:href="#DejaVuSans-35"/>
       <use xlink:href="#DejaVuSans-30" x="63.623047"/>
      </g>
     </g>
    </g>
    <g id="xtick_11">
     <g id="line2d_27">
      <g>
       <use xlink:href="#mb7351745a0" x="589.871734" y="73.7725" style="stroke: #000000; stroke-width: 0.8"/>
      </g>
     </g>
     <g id="text_21">
      <!-- 100 -->
      <g transform="translate(578.419234 89.890625)scale(0.12 -0.12)">
       <use xlink:href="#DejaVuSans-31"/>
       <use xlink:href="#DejaVuSans-30" x="63.623047"/>
       <use xlink:href="#DejaVuSans-30" x="127.246094"/>
      </g>
     </g>
    </g>
    <g id="text_22">
     <!-- Epoch -->
     <g transform="translate(508.396834 105.504375)scale(0.12 -0.12)">
      <use xlink:href="#DejaVuSans-45"/>
      <use xlink:href="#DejaVuSans-70" x="63.183594"/>
      <use xlink:href="#DejaVuSans-6f" x="126.660156"/>
      <use xlink:href="#DejaVuSans-63" x="187.841797"/>
      <use xlink:href="#DejaVuSans-68" x="242.822266"/>
     </g>
    </g>
   </g>
   <g id="matplotlib.axis_6">
    <g id="ytick_7">
     <g id="line2d_28">
      <g>
       <use xlink:href="#md7c558a4bf" x="458.7325" y="68.558214" style="stroke: #000000; stroke-width: 0.8"/>
      </g>
     </g>
     <g id="text_23">
      <!-- 0.0 -->
      <g transform="translate(432.64875 73.117276)scale(0.12 -0.12)">
       <defs>
        <path id="DejaVuSans-2e" d="M 684 794 
L 1344 794 
L 1344 0 
L 684 0 
L 684 794 
z
" transform="scale(0.015625)"/>
       </defs>
       <use xlink:href="#DejaVuSans-30"/>
       <use xlink:href="#DejaVuSans-2e" x="63.623047"/>
       <use xlink:href="#DejaVuSans-30" x="95.410156"/>
      </g>
     </g>
    </g>
    <g id="ytick_8">
     <g id="line2d_29">
      <g>
       <use xlink:href="#md7c558a4bf" x="458.7325" y="42.486781" style="stroke: #000000; stroke-width: 0.8"/>
      </g>
     </g>
     <g id="text_24">
      <!-- 0.5 -->
      <g transform="translate(432.64875 47.045844)scale(0.12 -0.12)">
       <use xlink:href="#DejaVuSans-30"/>
       <use xlink:href="#DejaVuSans-2e" x="63.623047"/>
       <use xlink:href="#DejaVuSans-35" x="95.410156"/>
      </g>
     </g>
    </g>
    <g id="ytick_9">
     <g id="line2d_30">
      <g>
       <use xlink:href="#md7c558a4bf" x="458.7325" y="16.415349" style="stroke: #000000; stroke-width: 0.8"/>
      </g>
     </g>
     <g id="text_25">
      <!-- 1.0 -->
      <g transform="translate(432.64875 20.974411)scale(0.12 -0.12)">
       <use xlink:href="#DejaVuSans-31"/>
       <use xlink:href="#DejaVuSans-2e" x="63.623047"/>
       <use xlink:href="#DejaVuSans-30" x="95.410156"/>
      </g>
     </g>
    </g>
    <g id="text_26">
     <!-- Loss -->
     <g transform="translate(426.153125 55.647406)rotate(-90)scale(0.12 -0.12)">
      <use xlink:href="#DejaVuSans-4c"/>
      <use xlink:href="#DejaVuSans-6f" x="53.962891"/>
      <use xlink:href="#DejaVuSans-73" x="115.144531"/>
      <use xlink:href="#DejaVuSans-73" x="167.244141"/>
     </g>
    </g>
   </g>
   <g id="line2d_31">
    <path d="M 464.917724 16.705383 
L 466.167264 17.603738 
L 467.416804 18.498333 
L 468.666344 19.37698 
L 469.915884 20.246956 
L 471.165424 21.106704 
L 472.414964 21.976485 
L 473.664504 22.86679 
L 474.914044 23.748685 
L 476.163584 24.623805 
L 477.413125 25.47063 
L 478.662665 26.355005 
L 479.912205 27.215897 
L 481.161745 28.069566 
L 482.411285 28.929625 
L 483.660825 29.765994 
L 484.910365 30.622513 
L 486.159905 31.47579 
L 487.409445 32.337213 
L 488.658985 33.150109 
L 489.908526 33.958299 
L 491.158066 34.782265 
L 492.407606 35.608009 
L 493.657146 36.465808 
L 494.906686 37.311387 
L 496.156226 38.172533 
L 497.405766 39.050568 
L 498.655306 39.890434 
L 499.904846 40.734037 
L 501.154387 41.686669 
L 502.403927 42.659671 
L 503.653467 43.654013 
L 504.903007 44.556766 
L 506.152547 45.371233 
L 507.402087 46.201632 
L 508.651627 46.995793 
L 509.901167 47.795986 
L 511.150707 48.56542 
L 512.400247 49.287864 
L 513.649788 50.03943 
L 514.899328 50.726926 
L 516.148868 51.36751 
L 517.398408 52.021556 
L 518.647948 52.706247 
L 519.897488 53.396145 
L 521.147028 54.065307 
L 522.396568 54.757548 
L 523.646108 55.541787 
L 524.895649 56.262977 
L 526.145189 56.842672 
L 527.394729 57.370649 
L 528.644269 57.895436 
L 529.893809 58.435638 
L 531.143349 58.9447 
L 532.392889 59.42362 
L 533.642429 59.932853 
L 534.891969 60.393741 
L 536.141509 60.883906 
L 537.39105 61.410648 
L 538.64059 61.880181 
L 539.89013 62.307765 
L 541.13967 62.652308 
L 542.38921 62.95128 
L 543.63875 63.251379 
L 544.88829 63.602949 
L 546.13783 64.016283 
L 547.38737 64.381335 
L 548.636911 64.645234 
L 549.886451 64.904132 
L 551.135991 65.157568 
L 552.385531 65.39942 
L 553.635071 65.626176 
L 554.884611 65.824557 
L 556.134151 66.027617 
L 557.383691 66.245325 
L 558.633231 66.450903 
L 559.882771 66.615978 
L 561.132312 66.764244 
L 562.381852 66.923894 
L 563.631392 67.085237 
L 564.880932 67.227847 
L 566.130472 67.362013 
L 567.380012 67.469331 
L 568.629552 67.573176 
L 569.879092 67.680315 
L 571.128632 67.777198 
L 572.378172 67.849107 
L 573.627713 67.903203 
L 574.877253 67.952676 
L 576.126793 67.999524 
L 577.376333 68.041982 
L 578.625873 68.079034 
L 579.875413 68.111529 
L 581.124953 68.140851 
L 582.374493 68.168515 
L 583.624033 68.196044 
L 584.873574 68.22511 
L 586.123114 68.257399 
L 587.372654 68.288681 
L 588.622194 68.316894 
" clip-path="url(#p92424a0a09)" style="fill: none; stroke: #ff0000; stroke-width: 1.5; stroke-linecap: square"/>
   </g>
   <g id="line2d_32">
    <path d="M 464.917724 68.558212 
L 466.167264 68.558212 
L 467.416804 68.558213 
L 468.666344 68.558213 
L 469.915884 68.558213 
L 471.165424 68.558213 
L 472.414964 68.558213 
L 473.664504 68.558213 
L 474.914044 68.558213 
L 476.163584 68.558213 
L 477.413125 68.558213 
L 478.662665 68.558213 
L 479.912205 68.558213 
L 481.161745 68.558213 
L 482.411285 68.558213 
L 483.660825 68.558213 
L 484.910365 68.558214 
L 486.159905 68.558214 
L 487.409445 68.558214 
L 488.658985 68.558214 
L 489.908526 68.558214 
L 491.158066 68.558214 
L 492.407606 68.558214 
L 493.657146 68.558214 
L 494.906686 68.558214 
L 496.156226 68.558214 
L 497.405766 68.558214 
L 498.655306 68.558214 
L 499.904846 68.558214 
L 501.154387 68.558214 
L 502.403927 68.558214 
L 503.653467 68.558214 
L 504.903007 68.558214 
L 506.152547 68.558214 
L 507.402087 68.558214 
L 508.651627 68.558214 
L 509.901167 68.558214 
L 511.150707 68.558214 
L 512.400247 68.558214 
L 513.649788 68.558214 
L 514.899328 68.558214 
L 516.148868 68.558214 
L 517.398408 68.558214 
L 518.647948 68.558214 
L 519.897488 68.558214 
L 521.147028 68.558214 
L 522.396568 68.558214 
L 523.646108 68.558214 
L 524.895649 68.558214 
L 526.145189 68.558214 
L 527.394729 68.558214 
L 528.644269 68.558214 
L 529.893809 68.558214 
L 531.143349 68.558214 
L 532.392889 68.558214 
L 533.642429 68.558214 
L 534.891969 68.558214 
L 536.141509 68.558214 
L 537.39105 68.558214 
L 538.64059 68.558214 
L 539.89013 68.558214 
L 541.13967 68.558214 
L 542.38921 68.558214 
L 543.63875 68.558214 
L 544.88829 68.558214 
L 546.13783 68.558214 
L 547.38737 68.558214 
L 548.636911 68.558214 
L 549.886451 68.558214 
L 551.135991 68.558214 
L 552.385531 68.558214 
L 553.635071 68.558214 
L 554.884611 68.558214 
L 556.134151 68.558214 
L 557.383691 68.558214 
L 558.633231 68.558214 
L 559.882771 68.558214 
L 561.132312 68.558214 
L 562.381852 68.558214 
L 563.631392 68.558214 
L 564.880932 68.558214 
L 566.130472 68.558214 
L 567.380012 68.558214 
L 568.629552 68.558214 
L 569.879092 68.558214 
L 571.128632 68.558214 
L 572.378172 68.558214 
L 573.627713 68.558214 
L 574.877253 68.558214 
L 576.126793 68.558214 
L 577.376333 68.558214 
L 578.625873 68.558214 
L 579.875413 68.558214 
L 581.124953 68.558214 
L 582.374493 68.558214 
L 583.624033 68.558214 
L 584.873574 68.558214 
L 586.123114 68.558214 
L 587.372654 68.558214 
L 588.622194 68.558214 
" clip-path="url(#p92424a0a09)" style="fill: none; stroke: #000000; stroke-width: 1.5; stroke-linecap: square"/>
   </g>
   <g id="patch_13">
    <path d="M 458.7325 73.7725 
L 458.7325 11.201062 
" style="fill: none; stroke: #000000; stroke-width: 0.8; stroke-linejoin: miter; stroke-linecap: square"/>
   </g>
   <g id="patch_14">
    <path d="M 594.807417 73.7725 
L 594.807417 11.201062 
" style="fill: none; stroke: #000000; stroke-width: 0.8; stroke-linejoin: miter; stroke-linecap: square"/>
   </g>
   <g id="patch_15">
    <path d="M 458.7325 73.7725 
L 594.807417 73.7725 
" style="fill: none; stroke: #000000; stroke-width: 0.8; stroke-linejoin: miter; stroke-linecap: square"/>
   </g>
   <g id="patch_16">
    <path d="M 458.7325 11.201062 
L 594.807417 11.201062 
" style="fill: none; stroke: #000000; stroke-width: 0.8; stroke-linejoin: miter; stroke-linecap: square"/>
   </g>
  </g>
 </g>
 <defs>
  <clipPath id="pcdec05e9d5">
   <rect x="41.04875" y="11.201062" width="136.074917" height="62.571437"/>
  </clipPath>
  <clipPath id="pec1c2e7c6d">
   <rect x="249.890625" y="11.201062" width="136.074917" height="62.571437"/>
  </clipPath>
  <clipPath id="p92424a0a09">
   <rect x="458.7325" y="11.201062" width="136.074917" height="62.571437"/>
  </clipPath>
 </defs>
</svg>
