<?xml version="1.0" encoding="utf-8" standalone="no"?>
<!DOCTYPE svg PUBLIC "-//W3C//DTD SVG 1.1//EN"
  "http://www.w3.org/Graphics/SVG/1.1/DTD/svg11.dtd">
<svg xmlns:xlink="http://www.w3.org/1999/xlink" width="288pt" height="288pt" viewBox="0 0 288 288" xmlns="http://www.w3.org/2000/svg" version="1.1">
 <metadata>
  <rdf:RDF xmlns:dc="http://purl.org/dc/elements/1.1/" xmlns:cc="http://creativecommons.org/ns#" xmlns:rdf="http://www.w3.org/1999/02/22-rdf-syntax-ns#">
   <cc:Work>
    <dc:type rdf:resource="http://purl.org/dc/dcmitype/StillImage"/>
    <dc:date>2025-06-20T15:26:25.040081</dc:date>
    <dc:format>image/svg+xml</dc:format>
    <dc:creator>
     <cc:Agent>
      <dc:title>Matplotlib v3.5.2, https://matplotlib.org/</dc:title>
     </cc:Agent>
    </dc:creator>
   </cc:Work>
  </rdf:RDF>
 </metadata>
 <defs>
  <style type="text/css">*{stroke-linejoin: round; stroke-linecap: butt}</style>
 </defs>
 <g id="figure_1">
  <g id="patch_1">
   <path d="M 0 288 
L 288 288 
L 288 0 
L 0 0 
z
" style="fill: #ffffff"/>
  </g>
  <g id="axes_1">
   <g id="patch_2">
    <path d="M 62.553125 104.3725 
L 277.2 104.3725 
L 277.2 10.8 
L 62.553125 10.8 
z
" style="fill: #ffffff"/>
   </g>
   <g id="line2d_1">
    <path d="M 72.309801 26.369411 
L 72.70085 26.397867 
L 73.091899 22.939296 
L 73.482949 21.565384 
L 73.873998 21.290189 
L 74.265047 22.853218 
L 74.656096 22.094667 
L 75.047145 20.795678 
L 75.438194 22.304601 
L 75.829243 23.12364 
L 76.220293 23.325038 
L 76.611342 25.077826 
L 77.002391 22.116139 
L 77.39344 26.674766 
L 77.784489 28.159792 
L 78.175538 25.485237 
L 78.566587 21.146604 
L 78.957637 22.330026 
L 79.348686 19.31536 
L 79.739735 17.918197 
L 80.130784 20.145018 
L 80.521833 23.722729 
L 80.912882 25.951467 
L 81.303931 25.944178 
L 81.694981 22.769227 
L 82.08603 22.985102 
L 82.477079 22.805663 
L 82.868128 26.181193 
L 83.259177 28.109081 
L 84.041275 27.368345 
L 84.432325 29.755542 
L 84.823374 30.767718 
L 85.214423 29.795685 
L 85.996521 26.901911 
L 86.38757 27.074711 
L 86.778619 27.601152 
L 87.169669 28.51883 
L 87.560718 28.228393 
L 87.951767 28.507327 
L 88.342816 30.502295 
L 88.733865 30.698759 
L 89.124914 30.305333 
L 89.515963 31.500476 
L 89.907013 29.269255 
L 90.298062 28.762705 
L 90.689111 30.167601 
L 91.08016 30.453409 
L 91.471209 32.11424 
L 91.862258 31.299526 
L 92.253307 28.432299 
L 92.644357 28.390155 
L 93.035406 28.721231 
L 93.426455 27.779904 
L 94.208553 26.466868 
L 94.599602 21.270641 
L 94.990651 21.604186 
L 95.381701 21.146377 
L 95.77275 19.414283 
L 96.163799 21.207888 
L 96.554848 18.171144 
L 96.945897 18.028819 
L 97.336946 20.312345 
L 98.119045 20.559236 
L 98.510094 20.260213 
L 98.901143 22.220518 
L 99.292192 25.89501 
L 100.07429 26.28055 
L 100.465339 23.992013 
L 100.856389 25.648069 
L 101.247438 24.11797 
L 101.638487 21.290052 
L 102.029536 21.893769 
L 102.420585 17.632909 
L 102.811634 15.710036 
L 103.202683 19.139281 
L 103.593733 20.923355 
L 104.375831 26.085161 
L 104.76688 28.502165 
L 105.157929 28.815232 
L 105.548978 29.458747 
L 105.940027 30.626272 
L 106.331077 30.222549 
L 106.722126 30.094923 
L 107.113175 31.358839 
L 107.504224 33.086245 
L 107.895273 33.731392 
L 108.286322 35.098703 
L 108.677372 32.682997 
L 109.068421 32.455189 
L 109.45947 34.659065 
L 109.850519 34.658387 
L 110.241568 36.57762 
L 110.632617 35.072136 
L 111.414716 33.334206 
L 111.805765 31.871043 
L 112.196814 29.392799 
L 112.587863 29.962334 
L 112.978912 28.116902 
L 113.369961 28.083377 
L 113.76101 27.224865 
L 114.15206 27.768504 
L 114.543109 28.884101 
L 114.934158 31.005456 
L 115.325207 31.189102 
L 116.107305 34.711246 
L 116.498354 31.241262 
L 117.280453 36.840271 
L 117.671502 37.098587 
L 118.062551 38.888103 
L 118.4536 37.408161 
L 119.235698 37.971868 
L 119.626748 40.555585 
L 120.017797 40.968017 
L 120.408846 42.663736 
L 120.799895 43.665168 
L 121.190944 42.440234 
L 121.581993 42.1183 
L 121.973042 45.072316 
L 122.364092 46.542839 
L 122.755141 45.731657 
L 123.14619 47.79129 
L 123.537239 48.660222 
L 123.928288 51.185398 
L 124.319337 50.266852 
L 124.710386 49.826353 
L 125.101436 50.393313 
L 125.492485 55.606704 
L 125.883534 55.239531 
L 126.274583 54.467095 
L 127.056681 53.524574 
L 127.44773 54.56974 
L 127.83878 55.185977 
L 128.229829 53.517132 
L 128.620878 54.514802 
L 129.011927 53.729845 
L 129.402976 52.001247 
L 129.794025 52.10767 
L 130.185074 50.822913 
L 130.576124 48.777604 
L 130.967173 49.071191 
L 131.358222 45.354785 
L 131.749271 48.11186 
L 132.14032 47.056462 
L 132.531369 47.504809 
L 132.922418 51.134617 
L 133.313468 49.199695 
L 133.704517 46.175153 
L 134.095566 45.972236 
L 134.486615 48.437733 
L 134.877664 48.864189 
L 135.268713 49.711705 
L 135.659762 51.585351 
L 136.050812 52.566128 
L 136.83291 48.53244 
L 137.223959 49.066786 
L 137.615008 52.589317 
L 138.006057 53.043538 
L 138.397106 55.31811 
L 138.788156 55.823668 
L 139.179205 55.112371 
L 139.570254 56.404045 
L 139.961303 56.59459 
L 140.352352 55.795227 
L 140.743401 55.690704 
L 141.13445 53.93451 
L 141.5255 50.74168 
L 141.916549 51.234381 
L 142.307598 49.100707 
L 142.698647 48.848284 
L 143.089696 49.110103 
L 143.480745 48.358891 
L 143.871794 50.112016 
L 144.262844 50.586972 
L 144.653893 51.347349 
L 145.044942 49.747064 
L 145.435991 47.133342 
L 145.82704 46.215455 
L 146.218089 46.023532 
L 146.609138 47.259382 
L 147.000188 46.31441 
L 147.391237 45.992889 
L 147.782286 46.080746 
L 148.173335 45.310344 
L 148.564384 49.193299 
L 148.955433 48.812073 
L 149.346482 46.305241 
L 149.737532 45.066301 
L 150.128581 42.654872 
L 150.51963 43.169772 
L 150.910679 43.887717 
L 151.301728 42.786652 
L 152.083826 39.782552 
L 152.474876 41.333695 
L 153.256974 42.735963 
L 153.648023 44.166415 
L 154.039072 44.308312 
L 154.82117 47.916951 
L 155.21222 45.264468 
L 155.603269 48.002774 
L 155.994318 48.737822 
L 156.385367 50.494632 
L 157.167465 47.409962 
L 157.558514 47.853987 
L 157.949564 49.565459 
L 158.340613 50.233351 
L 158.731662 51.869919 
L 159.122711 49.76571 
L 159.51376 48.608055 
L 159.904809 45.074103 
L 160.295858 48.179137 
L 160.686908 48.108508 
L 161.469006 44.467295 
L 161.860055 45.214637 
L 162.251104 46.55926 
L 163.033202 47.123844 
L 163.424252 49.71636 
L 163.815301 48.701868 
L 164.20635 48.576606 
L 164.597399 45.964454 
L 164.988448 47.60306 
L 165.379497 47.245769 
L 165.770546 47.910915 
L 166.161596 45.681351 
L 166.552645 42.085886 
L 166.943694 43.674814 
L 167.334743 45.936373 
L 167.725792 48.963566 
L 168.116841 50.6958 
L 168.50789 50.488133 
L 169.289989 54.998361 
L 169.681038 54.662477 
L 170.463136 50.617334 
L 170.854185 52.988528 
L 171.245235 53.941482 
L 171.636284 55.202223 
L 172.418382 53.016161 
L 172.809431 53.125316 
L 173.20048 52.852692 
L 173.591529 54.877575 
L 173.982579 54.792524 
L 174.373628 57.075464 
L 174.764677 60.589658 
L 175.155726 59.630402 
L 175.546775 59.089366 
L 175.937824 62.734839 
L 176.328873 59.979574 
L 176.719923 60.082243 
L 177.110972 59.79321 
L 177.502021 59.760583 
L 177.89307 63.334339 
L 178.284119 64.884626 
L 178.675168 63.751679 
L 179.066217 64.382778 
L 179.457267 62.602695 
L 179.848316 64.295187 
L 180.630414 62.600836 
L 181.021463 62.808074 
L 181.412512 62.467224 
L 181.803561 59.934459 
L 182.194611 63.318877 
L 182.976709 63.211226 
L 183.367758 62.231604 
L 183.758807 59.916571 
L 184.149856 61.589678 
L 184.540905 61.456964 
L 184.931955 62.923991 
L 185.323004 63.408892 
L 185.714053 65.2402 
L 186.105102 64.223742 
L 186.496151 66.025055 
L 187.278249 67.498006 
L 187.669299 67.021828 
L 188.060348 71.511284 
L 188.451397 68.646675 
L 188.842446 67.657634 
L 189.233495 67.314773 
L 189.624544 68.797201 
L 190.797692 59.179545 
L 191.188741 60.277411 
L 191.970839 60.486515 
L 192.361888 57.293551 
L 192.752937 57.414109 
L 193.535036 51.849633 
L 194.317134 48.104854 
L 194.708183 48.025859 
L 195.490281 49.544344 
L 195.881331 50.969133 
L 196.27238 53.106056 
L 196.663429 54.560533 
L 197.054478 55.150023 
L 197.445527 52.689989 
L 197.836576 54.642374 
L 198.227625 55.358754 
L 198.618675 56.50253 
L 199.009724 56.408708 
L 199.400773 54.703624 
L 199.791822 58.659107 
L 200.182871 61.010211 
L 200.57392 61.233165 
L 200.964969 63.159861 
L 201.356019 60.744204 
L 201.747068 64.100232 
L 202.138117 65.758915 
L 202.529166 61.321827 
L 202.920215 61.62423 
L 203.311264 62.136239 
L 204.093363 60.76495 
L 204.484412 58.662276 
L 204.875461 57.611724 
L 205.26651 55.839399 
L 205.657559 57.120853 
L 206.048608 60.970005 
L 206.439657 60.411159 
L 206.830707 62.197219 
L 207.221756 64.696595 
L 207.612805 63.338211 
L 208.003854 62.95323 
L 208.394903 64.460589 
L 208.785952 64.602507 
L 209.177001 65.048795 
L 209.568051 64.560159 
L 209.9591 68.108564 
L 210.350149 65.179306 
L 211.132247 70.201618 
L 211.523296 69.305125 
L 211.914345 65.164578 
L 212.305395 68.22092 
L 212.696444 69.330231 
L 213.087493 69.568212 
L 213.478542 68.826845 
L 214.26064 74.196032 
L 214.651689 73.850545 
L 215.042739 74.635757 
L 215.433788 74.682458 
L 215.824837 75.941292 
L 216.215886 72.821499 
L 216.606935 71.315402 
L 217.389033 72.43024 
L 217.780083 70.033525 
L 218.171132 70.579454 
L 218.562181 73.138002 
L 218.95323 73.973942 
L 219.344279 75.383856 
L 219.735328 73.836337 
L 220.126377 75.692812 
L 220.517427 75.734735 
L 220.908476 74.9891 
L 221.299525 73.95779 
L 221.690574 74.660235 
L 222.081623 74.13758 
L 222.472672 75.902283 
L 222.863721 75.834217 
L 223.254771 80.399385 
L 223.64582 79.334007 
L 224.427918 85.582955 
L 224.818967 84.491482 
L 225.210016 86.353397 
L 225.601065 87.022352 
L 225.992115 86.031376 
L 226.383164 86.502259 
L 226.774213 84.064977 
L 227.165262 84.700576 
L 227.556311 83.815743 
L 227.94736 85.833833 
L 228.338409 83.565641 
L 228.729459 83.763921 
L 229.120508 77.820465 
L 229.511557 74.445007 
L 229.902606 76.037654 
L 230.293655 73.698926 
L 231.075753 73.949675 
L 231.466803 72.42043 
L 231.857852 76.308745 
L 232.248901 72.444959 
L 233.030999 76.772888 
L 234.204147 83.916374 
L 234.986245 81.279629 
L 235.377294 82.109747 
L 235.768343 83.686392 
L 236.159392 83.947364 
L 236.550442 85.840819 
L 236.941491 86.696852 
L 237.33254 88.723576 
L 237.723589 88.023624 
L 238.114638 86.156927 
L 238.505687 88.024858 
L 238.896736 88.651078 
L 239.287786 90.757717 
L 239.678835 88.941806 
L 240.069884 88.899794 
L 240.460933 86.015703 
L 241.243031 88.284945 
L 241.63408 85.402116 
L 242.02513 85.545757 
L 242.807228 80.801993 
L 243.198277 79.575095 
L 243.589326 79.545404 
L 243.980375 79.171478 
L 244.371424 76.638145 
L 245.153523 74.228823 
L 245.544572 74.310406 
L 245.935621 74.10939 
L 246.717719 75.399506 
L 247.108768 72.482371 
L 247.499818 73.062094 
L 247.890867 75.710289 
L 248.281916 75.175594 
L 249.064014 78.316271 
L 249.455063 75.410635 
L 249.846112 77.340255 
L 250.237162 80.564973 
L 250.628211 81.822086 
L 251.01926 84.522969 
L 251.410309 85.188992 
L 251.801358 87.653706 
L 252.583456 90.100551 
L 252.974506 92.431486 
L 253.365555 93.330727 
L 254.147653 89.459088 
L 254.538702 89.333396 
L 254.929751 87.961533 
L 255.3208 90.334461 
L 255.71185 87.119429 
L 256.102899 89.26726 
L 256.493948 90.059954 
L 256.884997 88.924796 
L 257.276046 87.400868 
L 257.667095 88.525098 
L 258.058144 88.240997 
L 258.449194 87.078269 
L 258.840243 87.276939 
L 259.231292 87.875145 
L 259.622341 91.118306 
L 260.01339 89.398185 
L 260.404439 88.746595 
L 260.795488 92.868821 
L 261.186538 90.702381 
L 261.577587 89.940579 
L 261.968636 94.877498 
L 262.359685 92.151781 
L 262.750734 92.573546 
L 263.141783 95.175808 
L 263.532832 95.558661 
L 263.923882 96.176247 
L 264.314931 97.29499 
L 264.70598 99.682633 
L 265.097029 99.211998 
L 265.488078 98.08063 
L 265.879127 97.476491 
L 266.270176 99.164087 
L 266.661226 100.119205 
L 267.052275 96.246347 
L 267.443324 96.934176 
L 267.443324 96.934176 
" clip-path="url(#p3d8560d66c)" style="fill: none; stroke: #00bfbf; stroke-width: 1.5; stroke-linecap: square"/>
   </g>
   <g id="matplotlib.axis_1">
    <g id="xtick_1">
     <g id="line2d_2">
      <defs>
       <path id="m1bb2b41a3f" d="M 0 0 
L 0 3.5 
" style="stroke: #000000; stroke-width: 0.8"/>
      </defs>
      <g>
       <use xlink:href="#m1bb2b41a3f" x="72.309801" y="104.3725" style="stroke: #000000; stroke-width: 0.8"/>
      </g>
     </g>
     <g id="text_1">
      <!-- 0.0 -->
      <g transform="translate(62.767926 120.490625)scale(0.12 -0.12)">
       <defs>
        <path id="DejaVuSans-30" d="M 2034 4250 
Q 1547 4250 1301 3770 
Q 1056 3291 1056 2328 
Q 1056 1369 1301 889 
Q 1547 409 2034 409 
Q 2525 409 2770 889 
Q 3016 1369 3016 2328 
Q 3016 3291 2770 3770 
Q 2525 4250 2034 4250 
z
M 2034 4750 
Q 2819 4750 3233 4129 
Q 3647 3509 3647 2328 
Q 3647 1150 3233 529 
Q 2819 -91 2034 -91 
Q 1250 -91 836 529 
Q 422 1150 422 2328 
Q 422 3509 836 4129 
Q 1250 4750 2034 4750 
z
" transform="scale(0.015625)"/>
        <path id="DejaVuSans-2e" d="M 684 794 
L 1344 794 
L 1344 0 
L 684 0 
L 684 794 
z
" transform="scale(0.015625)"/>
       </defs>
       <use xlink:href="#DejaVuSans-30"/>
       <use xlink:href="#DejaVuSans-2e" x="63.623047"/>
       <use xlink:href="#DejaVuSans-30" x="95.410156"/>
      </g>
     </g>
    </g>
    <g id="xtick_2">
     <g id="line2d_3">
      <g>
       <use xlink:href="#m1bb2b41a3f" x="111.414716" y="104.3725" style="stroke: #000000; stroke-width: 0.8"/>
      </g>
     </g>
     <g id="text_2">
      <!-- 0.1 -->
      <g transform="translate(101.872841 120.490625)scale(0.12 -0.12)">
       <defs>
        <path id="DejaVuSans-31" d="M 794 531 
L 1825 531 
L 1825 4091 
L 703 3866 
L 703 4441 
L 1819 4666 
L 2450 4666 
L 2450 531 
L 3481 531 
L 3481 0 
L 794 0 
L 794 531 
z
" transform="scale(0.015625)"/>
       </defs>
       <use xlink:href="#DejaVuSans-30"/>
       <use xlink:href="#DejaVuSans-2e" x="63.623047"/>
       <use xlink:href="#DejaVuSans-31" x="95.410156"/>
      </g>
     </g>
    </g>
    <g id="xtick_3">
     <g id="line2d_4">
      <g>
       <use xlink:href="#m1bb2b41a3f" x="150.51963" y="104.3725" style="stroke: #000000; stroke-width: 0.8"/>
      </g>
     </g>
     <g id="text_3">
      <!-- 0.2 -->
      <g transform="translate(140.977755 120.490625)scale(0.12 -0.12)">
       <defs>
        <path id="DejaVuSans-32" d="M 1228 531 
L 3431 531 
L 3431 0 
L 469 0 
L 469 531 
Q 828 903 1448 1529 
Q 2069 2156 2228 2338 
Q 2531 2678 2651 2914 
Q 2772 3150 2772 3378 
Q 2772 3750 2511 3984 
Q 2250 4219 1831 4219 
Q 1534 4219 1204 4116 
Q 875 4013 500 3803 
L 500 4441 
Q 881 4594 1212 4672 
Q 1544 4750 1819 4750 
Q 2544 4750 2975 4387 
Q 3406 4025 3406 3419 
Q 3406 3131 3298 2873 
Q 3191 2616 2906 2266 
Q 2828 2175 2409 1742 
Q 1991 1309 1228 531 
z
" transform="scale(0.015625)"/>
       </defs>
       <use xlink:href="#DejaVuSans-30"/>
       <use xlink:href="#DejaVuSans-2e" x="63.623047"/>
       <use xlink:href="#DejaVuSans-32" x="95.410156"/>
      </g>
     </g>
    </g>
    <g id="xtick_4">
     <g id="line2d_5">
      <g>
       <use xlink:href="#m1bb2b41a3f" x="189.624544" y="104.3725" style="stroke: #000000; stroke-width: 0.8"/>
      </g>
     </g>
     <g id="text_4">
      <!-- 0.3 -->
      <g transform="translate(180.082669 120.490625)scale(0.12 -0.12)">
       <defs>
        <path id="DejaVuSans-33" d="M 2597 2516 
Q 3050 2419 3304 2112 
Q 3559 1806 3559 1356 
Q 3559 666 3084 287 
Q 2609 -91 1734 -91 
Q 1441 -91 1130 -33 
Q 819 25 488 141 
L 488 750 
Q 750 597 1062 519 
Q 1375 441 1716 441 
Q 2309 441 2620 675 
Q 2931 909 2931 1356 
Q 2931 1769 2642 2001 
Q 2353 2234 1838 2234 
L 1294 2234 
L 1294 2753 
L 1863 2753 
Q 2328 2753 2575 2939 
Q 2822 3125 2822 3475 
Q 2822 3834 2567 4026 
Q 2313 4219 1838 4219 
Q 1578 4219 1281 4162 
Q 984 4106 628 3988 
L 628 4550 
Q 988 4650 1302 4700 
Q 1616 4750 1894 4750 
Q 2613 4750 3031 4423 
Q 3450 4097 3450 3541 
Q 3450 3153 3228 2886 
Q 3006 2619 2597 2516 
z
" transform="scale(0.015625)"/>
       </defs>
       <use xlink:href="#DejaVuSans-30"/>
       <use xlink:href="#DejaVuSans-2e" x="63.623047"/>
       <use xlink:href="#DejaVuSans-33" x="95.410156"/>
      </g>
     </g>
    </g>
    <g id="xtick_5">
     <g id="line2d_6">
      <g>
       <use xlink:href="#m1bb2b41a3f" x="228.729459" y="104.3725" style="stroke: #000000; stroke-width: 0.8"/>
      </g>
     </g>
     <g id="text_5">
      <!-- 0.4 -->
      <g transform="translate(219.187584 120.490625)scale(0.12 -0.12)">
       <defs>
        <path id="DejaVuSans-34" d="M 2419 4116 
L 825 1625 
L 2419 1625 
L 2419 4116 
z
M 2253 4666 
L 3047 4666 
L 3047 1625 
L 3713 1625 
L 3713 1100 
L 3047 1100 
L 3047 0 
L 2419 0 
L 2419 1100 
L 313 1100 
L 313 1709 
L 2253 4666 
z
" transform="scale(0.015625)"/>
       </defs>
       <use xlink:href="#DejaVuSans-30"/>
       <use xlink:href="#DejaVuSans-2e" x="63.623047"/>
       <use xlink:href="#DejaVuSans-34" x="95.410156"/>
      </g>
     </g>
    </g>
    <g id="xtick_6">
     <g id="line2d_7">
      <g>
       <use xlink:href="#m1bb2b41a3f" x="267.834373" y="104.3725" style="stroke: #000000; stroke-width: 0.8"/>
      </g>
     </g>
     <g id="text_6">
      <!-- 0.5 -->
      <g transform="translate(258.292498 120.490625)scale(0.12 -0.12)">
       <defs>
        <path id="DejaVuSans-35" d="M 691 4666 
L 3169 4666 
L 3169 4134 
L 1269 4134 
L 1269 2991 
Q 1406 3038 1543 3061 
Q 1681 3084 1819 3084 
Q 2600 3084 3056 2656 
Q 3513 2228 3513 1497 
Q 3513 744 3044 326 
Q 2575 -91 1722 -91 
Q 1428 -91 1123 -41 
Q 819 9 494 109 
L 494 744 
Q 775 591 1075 516 
Q 1375 441 1709 441 
Q 2250 441 2565 725 
Q 2881 1009 2881 1497 
Q 2881 1984 2565 2268 
Q 2250 2553 1709 2553 
Q 1456 2553 1204 2497 
Q 953 2441 691 2322 
L 691 4666 
z
" transform="scale(0.015625)"/>
       </defs>
       <use xlink:href="#DejaVuSans-30"/>
       <use xlink:href="#DejaVuSans-2e" x="63.623047"/>
       <use xlink:href="#DejaVuSans-35" x="95.410156"/>
      </g>
     </g>
    </g>
    <g id="text_7">
     <!-- Time (s) -->
     <g transform="translate(145.481875 136.104375)scale(0.12 -0.12)">
      <defs>
       <path id="DejaVuSans-54" d="M -19 4666 
L 3928 4666 
L 3928 4134 
L 2272 4134 
L 2272 0 
L 1638 0 
L 1638 4134 
L -19 4134 
L -19 4666 
z
" transform="scale(0.015625)"/>
       <path id="DejaVuSans-69" d="M 603 3500 
L 1178 3500 
L 1178 0 
L 603 0 
L 603 3500 
z
M 603 4863 
L 1178 4863 
L 1178 4134 
L 603 4134 
L 603 4863 
z
" transform="scale(0.015625)"/>
       <path id="DejaVuSans-6d" d="M 3328 2828 
Q 3544 3216 3844 3400 
Q 4144 3584 4550 3584 
Q 5097 3584 5394 3201 
Q 5691 2819 5691 2113 
L 5691 0 
L 5113 0 
L 5113 2094 
Q 5113 2597 4934 2840 
Q 4756 3084 4391 3084 
Q 3944 3084 3684 2787 
Q 3425 2491 3425 1978 
L 3425 0 
L 2847 0 
L 2847 2094 
Q 2847 2600 2669 2842 
Q 2491 3084 2119 3084 
Q 1678 3084 1418 2786 
Q 1159 2488 1159 1978 
L 1159 0 
L 581 0 
L 581 3500 
L 1159 3500 
L 1159 2956 
Q 1356 3278 1631 3431 
Q 1906 3584 2284 3584 
Q 2666 3584 2933 3390 
Q 3200 3197 3328 2828 
z
" transform="scale(0.015625)"/>
       <path id="DejaVuSans-65" d="M 3597 1894 
L 3597 1613 
L 953 1613 
Q 991 1019 1311 708 
Q 1631 397 2203 397 
Q 2534 397 2845 478 
Q 3156 559 3463 722 
L 3463 178 
Q 3153 47 2828 -22 
Q 2503 -91 2169 -91 
Q 1331 -91 842 396 
Q 353 884 353 1716 
Q 353 2575 817 3079 
Q 1281 3584 2069 3584 
Q 2775 3584 3186 3129 
Q 3597 2675 3597 1894 
z
M 3022 2063 
Q 3016 2534 2758 2815 
Q 2500 3097 2075 3097 
Q 1594 3097 1305 2825 
Q 1016 2553 972 2059 
L 3022 2063 
z
" transform="scale(0.015625)"/>
       <path id="DejaVuSans-20" transform="scale(0.015625)"/>
       <path id="DejaVuSans-28" d="M 1984 4856 
Q 1566 4138 1362 3434 
Q 1159 2731 1159 2009 
Q 1159 1288 1364 580 
Q 1569 -128 1984 -844 
L 1484 -844 
Q 1016 -109 783 600 
Q 550 1309 550 2009 
Q 550 2706 781 3412 
Q 1013 4119 1484 4856 
L 1984 4856 
z
" transform="scale(0.015625)"/>
       <path id="DejaVuSans-73" d="M 2834 3397 
L 2834 2853 
Q 2591 2978 2328 3040 
Q 2066 3103 1784 3103 
Q 1356 3103 1142 2972 
Q 928 2841 928 2578 
Q 928 2378 1081 2264 
Q 1234 2150 1697 2047 
L 1894 2003 
Q 2506 1872 2764 1633 
Q 3022 1394 3022 966 
Q 3022 478 2636 193 
Q 2250 -91 1575 -91 
Q 1294 -91 989 -36 
Q 684 19 347 128 
L 347 722 
Q 666 556 975 473 
Q 1284 391 1588 391 
Q 1994 391 2212 530 
Q 2431 669 2431 922 
Q 2431 1156 2273 1281 
Q 2116 1406 1581 1522 
L 1381 1569 
Q 847 1681 609 1914 
Q 372 2147 372 2553 
Q 372 3047 722 3315 
Q 1072 3584 1716 3584 
Q 2034 3584 2315 3537 
Q 2597 3491 2834 3397 
z
" transform="scale(0.015625)"/>
       <path id="DejaVuSans-29" d="M 513 4856 
L 1013 4856 
Q 1481 4119 1714 3412 
Q 1947 2706 1947 2009 
Q 1947 1309 1714 600 
Q 1481 -109 1013 -844 
L 513 -844 
Q 928 -128 1133 580 
Q 1338 1288 1338 2009 
Q 1338 2731 1133 3434 
Q 928 4138 513 4856 
z
" transform="scale(0.015625)"/>
      </defs>
      <use xlink:href="#DejaVuSans-54"/>
      <use xlink:href="#DejaVuSans-69" x="57.958984"/>
      <use xlink:href="#DejaVuSans-6d" x="85.742188"/>
      <use xlink:href="#DejaVuSans-65" x="183.154297"/>
      <use xlink:href="#DejaVuSans-20" x="244.677734"/>
      <use xlink:href="#DejaVuSans-28" x="276.464844"/>
      <use xlink:href="#DejaVuSans-73" x="315.478516"/>
      <use xlink:href="#DejaVuSans-29" x="367.578125"/>
     </g>
    </g>
   </g>
   <g id="matplotlib.axis_2">
    <g id="ytick_1">
     <g id="line2d_8">
      <defs>
       <path id="m9aa9588f20" d="M 0 0 
L -3.5 0 
" style="stroke: #000000; stroke-width: 0.8"/>
      </defs>
      <g>
       <use xlink:href="#m9aa9588f20" x="62.553125" y="101.907305" style="stroke: #000000; stroke-width: 0.8"/>
      </g>
     </g>
     <g id="text_8">
      <!-- −2 -->
      <g transform="translate(37.8625 106.466368)scale(0.12 -0.12)">
       <defs>
        <path id="DejaVuSans-2212" d="M 678 2272 
L 4684 2272 
L 4684 1741 
L 678 1741 
L 678 2272 
z
" transform="scale(0.015625)"/>
       </defs>
       <use xlink:href="#DejaVuSans-2212"/>
       <use xlink:href="#DejaVuSans-32" x="83.789062"/>
      </g>
     </g>
    </g>
    <g id="ytick_2">
     <g id="line2d_9">
      <g>
       <use xlink:href="#m9aa9588f20" x="62.553125" y="64.235184" style="stroke: #000000; stroke-width: 0.8"/>
      </g>
     </g>
     <g id="text_9">
      <!-- −1 -->
      <g transform="translate(37.8625 68.794247)scale(0.12 -0.12)">
       <use xlink:href="#DejaVuSans-2212"/>
       <use xlink:href="#DejaVuSans-31" x="83.789062"/>
      </g>
     </g>
    </g>
    <g id="ytick_3">
     <g id="line2d_10">
      <g>
       <use xlink:href="#m9aa9588f20" x="62.553125" y="26.563063" style="stroke: #000000; stroke-width: 0.8"/>
      </g>
     </g>
     <g id="text_10">
      <!-- 0 -->
      <g transform="translate(47.918125 31.122125)scale(0.12 -0.12)">
       <use xlink:href="#DejaVuSans-30"/>
      </g>
     </g>
    </g>
    <g id="text_11">
     <!-- x -->
     <g transform="translate(31.366875 61.1375)rotate(-90)scale(0.12 -0.12)">
      <defs>
       <path id="DejaVuSans-78" d="M 3513 3500 
L 2247 1797 
L 3578 0 
L 2900 0 
L 1881 1375 
L 863 0 
L 184 0 
L 1544 1831 
L 300 3500 
L 978 3500 
L 1906 2253 
L 2834 3500 
L 3513 3500 
z
" transform="scale(0.015625)"/>
      </defs>
      <use xlink:href="#DejaVuSans-78"/>
     </g>
    </g>
   </g>
   <g id="line2d_11">
    <path d="M 72.309801 26.563063 
L 72.70085 26.591518 
L 73.091899 23.130102 
L 73.482949 22.099486 
L 73.873998 22.270649 
L 74.265047 24.26292 
L 74.656096 23.734382 
L 75.047145 22.718261 
L 75.438194 24.611664 
L 75.829243 25.625843 
L 76.220293 25.920963 
L 76.611342 27.737962 
L 77.002391 24.658785 
L 77.39344 29.407839 
L 77.784489 30.608387 
L 78.175538 27.5293 
L 78.566587 23.094043 
L 78.957637 24.624368 
L 79.348686 21.803571 
L 79.739735 20.882357 
L 80.130784 23.677249 
L 80.521833 27.543542 
L 80.912882 29.674231 
L 81.303931 29.355825 
L 81.694981 25.901598 
L 82.08603 26.18362 
L 82.477079 26.042125 
L 82.868128 29.469748 
L 83.259177 31.106969 
L 84.041275 29.539201 
L 84.432325 31.628784 
L 84.823374 32.134388 
L 85.605472 28.833676 
L 85.996521 27.080171 
L 86.38757 27.201261 
L 86.778619 27.663882 
L 87.169669 28.471478 
L 87.560718 27.990199 
L 87.951767 28.12642 
L 88.342816 29.965052 
L 88.733865 29.821317 
L 89.124914 29.102066 
L 89.515963 30.043308 
L 89.907013 27.464063 
L 90.298062 26.867413 
L 90.689111 28.241874 
L 91.08016 28.359801 
L 91.471209 29.840958 
L 91.862258 28.698454 
L 92.253307 25.617689 
L 92.644357 25.670082 
L 93.035406 26.090456 
L 93.426455 25.196389 
L 94.208553 24.207154 
L 94.599602 19.246518 
L 94.990651 20.311717 
L 95.381701 20.479043 
L 95.77275 19.355351 
L 96.163799 21.869727 
L 96.554848 19.302316 
L 96.945897 19.886066 
L 97.336946 22.837292 
L 98.119045 23.784667 
L 98.510094 23.763483 
L 98.901143 26.003746 
L 99.292192 29.73417 
L 100.07429 29.493831 
L 100.465339 26.912216 
L 100.856389 28.533358 
L 101.247438 26.806229 
L 101.638487 23.953994 
L 102.029536 24.818618 
L 102.420585 20.732203 
L 102.811634 19.392416 
L 103.202683 23.538726 
L 103.593733 25.625233 
L 103.984782 28.615128 
L 104.76688 32.681364 
L 105.157929 32.382602 
L 105.548978 32.444162 
L 105.940027 33.023577 
L 106.331077 31.973803 
L 106.722126 31.305103 
L 107.113175 32.094815 
L 107.504224 33.269046 
L 107.895273 33.243594 
L 108.286322 33.942852 
L 108.677372 30.789168 
L 109.068421 30.138749 
L 109.45947 31.985057 
L 109.850519 31.442179 
L 110.241568 32.8735 
L 110.632617 30.736972 
L 111.805765 26.659146 
L 112.196814 24.171293 
L 112.587863 24.980006 
L 112.978912 23.292879 
L 113.369961 23.586372 
L 113.76101 23.02553 
L 114.15206 23.922922 
L 114.543109 25.302533 
L 114.934158 27.549941 
L 115.325207 27.6349 
L 116.107305 30.763008 
L 116.498354 26.87303 
L 117.280453 32.115248 
L 117.671502 31.818345 
L 118.062551 33.082333 
L 118.4536 30.950464 
L 119.235698 30.646371 
L 119.626748 32.821757 
L 120.017797 32.60832 
L 120.408846 33.699514 
L 120.799895 33.9873 
L 121.190944 32.019943 
L 121.581993 31.152321 
L 121.973042 33.647411 
L 122.364092 34.409498 
L 122.755141 32.813674 
L 123.14619 34.248245 
L 123.537239 34.348659 
L 123.928288 36.095276 
L 124.319337 34.223508 
L 124.710386 33.016964 
L 125.101436 32.938534 
L 125.492485 37.514378 
L 127.056681 31.959957 
L 127.44773 32.465434 
L 127.83878 32.491434 
L 128.229829 30.229751 
L 128.620878 30.860752 
L 129.011927 29.646027 
L 129.402976 27.609132 
L 129.794025 27.610948 
L 130.185074 26.221403 
L 130.576124 24.21026 
L 130.967173 24.739127 
L 131.358222 21.205114 
L 131.749271 24.497984 
L 132.14032 23.649095 
L 132.531369 24.388839 
L 132.922418 28.236069 
L 133.313468 26.133846 
L 133.704517 23.152226 
L 134.095566 23.290392 
L 134.486615 26.083156 
L 134.877664 26.557604 
L 135.268713 27.405665 
L 135.659762 29.195051 
L 136.050812 29.912629 
L 136.83291 25.461491 
L 137.223959 26.105994 
L 137.615008 29.674232 
L 138.006057 29.817336 
L 138.397106 31.76648 
L 138.788156 31.751697 
L 139.179205 30.521537 
L 139.570254 31.417363 
L 139.961303 31.122478 
L 140.352352 29.867174 
L 140.743401 29.43224 
L 141.13445 27.389128 
L 141.5255 24.113691 
L 141.916549 24.851329 
L 142.307598 22.888829 
L 142.698647 23.003829 
L 143.089696 23.621572 
L 143.480745 23.164509 
L 143.871794 25.257489 
L 144.262844 25.863003 
L 144.653893 26.693385 
L 145.044942 25.080068 
L 145.435991 22.614645 
L 145.82704 22.091601 
L 146.218089 22.346823 
L 146.609138 24.004298 
L 147.000188 23.315202 
L 147.391237 23.318467 
L 147.782286 23.730783 
L 148.173335 23.24361 
L 148.564384 27.45851 
L 148.955433 26.987739 
L 149.346482 24.438439 
L 149.737532 23.411962 
L 150.128581 21.315643 
L 150.910679 23.494008 
L 151.301728 22.699848 
L 151.692777 21.362069 
L 152.083826 20.602169 
L 152.474876 22.749402 
L 153.256974 24.811009 
L 153.648023 26.416666 
L 154.039072 26.573203 
L 154.82117 29.988119 
L 155.21222 26.99313 
L 155.603269 29.68843 
L 155.994318 30.110941 
L 156.385367 31.512963 
L 157.167465 27.651577 
L 157.558514 27.98675 
L 157.949564 29.555854 
L 158.340613 29.924467 
L 158.731662 31.224895 
L 159.122711 28.654502 
L 159.51376 27.287704 
L 159.904809 23.681287 
L 160.295858 27.074499 
L 160.686908 26.952726 
L 161.469006 23.410482 
L 161.860055 24.473082 
L 162.251104 26.026704 
L 163.033202 26.666988 
L 163.424252 29.249112 
L 163.815301 27.966015 
L 164.20635 27.700457 
L 164.597399 24.974566 
L 164.988448 26.772022 
L 165.379497 26.393835 
L 165.770546 27.075904 
L 166.161596 24.795056 
L 166.552645 21.376391 
L 167.334743 26.053453 
L 167.725792 29.131607 
L 168.116841 30.606987 
L 168.50789 29.994927 
L 169.289989 33.651465 
L 169.681038 32.606741 
L 170.463136 27.598904 
L 170.854185 29.866514 
L 171.245235 30.489123 
L 171.636284 31.357258 
L 172.027333 29.606308 
L 172.418382 28.387452 
L 172.809431 28.314168 
L 173.20048 27.866433 
L 173.591529 29.760979 
L 173.982579 29.356137 
L 174.373628 31.359769 
L 174.764677 34.394293 
L 175.155726 32.651914 
L 175.546775 31.501993 
L 175.937824 34.653573 
L 176.328873 31.089257 
L 176.719923 30.739306 
L 177.110972 30.032649 
L 177.502021 29.653064 
L 177.89307 32.917819 
L 178.284119 33.83263 
L 178.675168 31.972727 
L 179.066217 32.06286 
L 179.457267 29.732797 
L 179.848316 31.108316 
L 180.630414 28.638415 
L 181.021463 28.638117 
L 181.412512 28.089762 
L 181.803561 25.404327 
L 182.194611 28.904619 
L 182.976709 28.353681 
L 183.367758 27.194997 
L 183.758807 24.81677 
L 184.149856 26.664507 
L 184.540905 26.521649 
L 184.931955 27.992817 
L 185.323004 28.334742 
L 185.714053 29.988883 
L 186.105102 28.629842 
L 186.496151 30.224478 
L 187.278249 30.923976 
L 187.669299 30.011706 
L 188.060348 34.156298 
L 188.451397 30.532366 
L 188.842446 29.146395 
L 189.233495 28.545201 
L 189.624544 29.829414 
L 190.015593 26.109453 
L 190.406643 23.67416 
L 190.797692 20.219374 
L 191.188741 21.95161 
L 191.970839 23.030474 
L 192.361888 20.19077 
L 192.752937 20.948556 
L 193.143987 18.453237 
L 193.535036 16.756514 
L 194.317134 15.053295 
L 194.708183 16.125277 
L 196.663429 25.974664 
L 197.054478 26.622994 
L 197.445527 24.156967 
L 197.836576 26.349962 
L 198.227625 27.087652 
L 198.618675 28.178969 
L 199.009724 27.923556 
L 199.400773 26.082423 
L 199.791822 30.085969 
L 200.182871 32.084783 
L 200.57392 31.755565 
L 200.964969 33.163011 
L 201.356019 30.087359 
L 201.747068 33.090957 
L 202.138117 34.096851 
L 202.529166 28.906384 
L 202.920215 28.974455 
L 203.311264 29.245324 
L 204.093363 27.429644 
L 204.484412 25.240312 
L 204.875461 24.322036 
L 205.26651 22.773813 
L 205.657559 24.434192 
L 206.048608 28.496231 
L 206.439657 27.744069 
L 206.830707 29.412028 
L 207.221756 31.626508 
L 207.612805 29.761779 
L 208.003854 29.056927 
L 208.394903 30.314899 
L 208.785952 30.081633 
L 209.177001 30.176064 
L 209.568051 29.326128 
L 209.9591 32.598227 
L 210.350149 29.065453 
L 211.132247 33.379903 
L 211.523296 31.801727 
L 211.914345 27.137313 
L 212.305395 30.136229 
L 212.696444 30.888224 
L 213.087493 30.693689 
L 213.478542 29.53926 
L 214.26064 34.086236 
L 214.651689 32.988433 
L 215.042739 33.131108 
L 215.433788 32.521004 
L 215.824837 33.184044 
L 216.215886 29.402153 
L 216.606935 27.612147 
L 217.389033 28.467249 
L 217.780083 25.880116 
L 218.171132 26.494339 
L 218.562181 29.059759 
L 218.95323 29.64603 
L 219.344279 30.747647 
L 219.735328 28.78167 
L 220.126377 30.416284 
L 220.517427 30.072885 
L 221.299525 27.703638 
L 221.690574 28.292025 
L 222.081623 27.596474 
L 222.472672 29.257836 
L 222.863721 28.920292 
L 223.254771 33.249737 
L 223.64582 31.515692 
L 224.427918 36.525507 
L 224.818967 34.437789 
L 225.210016 35.512232 
L 225.601065 35.286271 
L 225.992115 33.422974 
L 226.383164 33.207865 
L 226.774213 30.106103 
L 227.165262 30.387398 
L 227.556311 29.120132 
L 227.94736 30.882515 
L 228.338409 28.182378 
L 228.729459 28.218726 
L 229.120508 22.109704 
L 229.511557 19.179581 
L 229.902606 21.510576 
L 230.293655 19.677097 
L 231.075753 21.223948 
L 231.466803 20.228615 
L 231.857852 24.750374 
L 232.248901 21.067857 
L 233.813098 30.933432 
L 234.204147 32.750993 
L 234.986245 29.070631 
L 235.377294 29.649993 
L 235.768343 30.917944 
L 236.159392 30.743428 
L 236.550442 32.218847 
L 236.941491 32.509302 
L 237.33254 33.941401 
L 237.723589 32.503615 
L 238.114638 30.042864 
L 238.505687 31.562814 
L 238.896736 31.689059 
L 239.287786 33.283099 
L 239.678835 30.795184 
L 240.069884 30.32996 
L 240.460933 27.069179 
L 241.243031 29.11779 
L 241.63408 25.979489 
L 242.02513 26.181487 
L 242.807228 21.735153 
L 243.198277 20.991047 
L 243.589326 21.518557 
L 243.980375 21.649082 
L 244.371424 19.607146 
L 245.153523 18.645479 
L 245.544572 19.518821 
L 245.935621 20.022229 
L 246.717719 22.495507 
L 247.108768 19.985127 
L 247.499818 21.222644 
L 247.890867 24.404881 
L 248.281916 24.086004 
L 249.064014 27.559912 
L 249.455063 24.554591 
L 249.846112 26.685058 
L 250.237162 29.897577 
L 250.628211 30.821239 
L 251.01926 33.096304 
L 251.410309 33.109002 
L 251.801358 34.919123 
L 252.583456 35.65474 
L 252.974506 37.076507 
L 253.365555 36.924403 
L 254.147653 31.297951 
L 254.538702 30.69877 
L 254.929751 28.913336 
L 255.3208 31.051237 
L 255.71185 27.387388 
L 256.102899 29.452786 
L 256.493948 29.956508 
L 257.276046 26.766183 
L 257.667095 27.870101 
L 258.058144 27.455296 
L 258.449194 26.203345 
L 258.840243 26.437987 
L 259.231292 27.0487 
L 259.622341 30.243297 
L 260.01339 28.155153 
L 260.404439 27.344354 
L 260.795488 31.388451 
L 261.186538 28.739472 
L 261.577587 27.760029 
L 261.968636 32.577252 
L 262.359685 29.250116 
L 262.750734 29.403176 
L 263.141783 31.721427 
L 263.532832 31.588443 
L 263.923882 31.70349 
L 264.314931 32.308191 
L 264.70598 34.121322 
L 265.097029 32.89486 
L 265.488078 31.130312 
L 265.879127 30.069449 
L 266.270176 31.406406 
L 266.661226 31.877189 
L 267.052275 27.472919 
L 267.443324 28.069763 
L 267.443324 28.069763 
" clip-path="url(#p3d8560d66c)" style="fill: none; stroke: #808080; stroke-width: 0.75; stroke-linecap: square"/>
   </g>
   <g id="line2d_12">
    <path d="M 72.309801 26.563063 
L 72.70085 26.554319 
L 73.091899 23.058725 
L 73.482949 21.660338 
L 73.873998 21.375969 
L 74.265047 22.93272 
L 74.656096 22.150949 
L 75.047145 20.840677 
L 75.438194 22.353129 
L 75.829243 23.159865 
L 76.220293 23.334513 
L 76.611342 25.053161 
L 77.002391 22.057838 
L 77.39344 26.60475 
L 77.784489 28.051781 
L 78.175538 25.385277 
L 78.566587 21.022545 
L 78.957637 22.203068 
L 79.348686 19.177306 
L 79.739735 17.807226 
L 80.130784 20.049923 
L 80.521833 23.627402 
L 80.912882 25.80853 
L 81.303931 25.782113 
L 81.694981 22.588606 
L 82.08603 22.786876 
L 82.477079 22.586047 
L 82.868128 25.944029 
L 83.259177 27.848805 
L 84.041275 27.086921 
L 84.432325 29.440102 
L 84.823374 30.486633 
L 85.214423 29.552329 
L 85.996521 26.703533 
L 86.38757 26.836785 
L 86.778619 27.32328 
L 87.169669 28.215186 
L 87.560718 27.937397 
L 87.951767 28.219617 
L 88.342816 30.227329 
L 88.733865 30.460461 
L 89.124914 30.105563 
L 89.515963 31.330607 
L 89.907013 29.131118 
L 90.298062 28.657364 
L 90.689111 30.083148 
L 91.08016 30.397914 
L 91.471209 32.098616 
L 91.862258 31.32122 
L 92.253307 28.485429 
L 92.644357 28.461504 
L 93.035406 28.81027 
L 93.817504 27.250303 
L 94.208553 26.550515 
L 94.599602 21.317342 
L 94.990651 21.644476 
L 95.381701 21.177733 
L 95.77275 19.439238 
L 96.163799 21.246487 
L 96.554848 18.203129 
L 96.945897 18.074593 
L 97.336946 20.372252 
L 98.119045 20.632179 
L 98.510094 20.33971 
L 98.901143 22.305958 
L 99.292192 25.968836 
L 100.07429 26.300108 
L 100.465339 23.979117 
L 100.856389 25.576939 
L 101.247438 24.02891 
L 101.638487 21.142351 
L 102.029536 21.74008 
L 102.420585 17.468951 
L 102.811634 15.565073 
L 103.202683 19.029162 
L 103.593733 20.845346 
L 104.375831 25.958299 
L 104.76688 28.351715 
L 105.157929 28.680137 
L 105.548978 29.344697 
L 105.940027 30.547323 
L 106.331077 30.179168 
L 106.722126 30.085465 
L 107.113175 31.378428 
L 107.504224 33.139164 
L 107.895273 33.85271 
L 108.286322 35.274788 
L 108.677372 32.877971 
L 109.068421 32.712638 
L 109.45947 34.971148 
L 109.850519 34.989571 
L 110.241568 36.927724 
L 110.632617 35.422957 
L 111.414716 33.733972 
L 111.805765 32.328916 
L 112.196814 29.889754 
L 112.587863 30.486814 
L 112.978912 28.679106 
L 113.369961 28.666619 
L 113.76101 27.829063 
L 114.15206 28.370463 
L 114.543109 29.501787 
L 114.934158 31.656444 
L 115.325207 31.880646 
L 116.107305 35.498338 
L 116.498354 32.046956 
L 117.280453 37.702415 
L 117.671502 37.985726 
L 118.062551 39.790038 
L 118.4536 38.279835 
L 119.235698 38.854514 
L 119.626748 41.442065 
L 120.017797 41.817719 
L 120.408846 43.485057 
L 120.799895 44.41464 
L 121.190944 43.150136 
L 121.581993 42.766378 
L 121.973042 45.661826 
L 122.364092 47.111103 
L 122.755141 46.29876 
L 123.14619 48.332273 
L 123.537239 49.218482 
L 123.928288 51.78641 
L 124.319337 50.885651 
L 124.710386 50.482026 
L 125.101436 51.095829 
L 125.492485 56.341941 
L 125.883534 55.987722 
L 126.274583 55.228567 
L 127.056681 54.28123 
L 127.44773 55.323057 
L 127.83878 55.943211 
L 128.229829 54.287521 
L 128.620878 55.281706 
L 129.011927 54.499349 
L 129.402976 52.763675 
L 129.794025 52.853632 
L 130.185074 51.550819 
L 130.576124 49.528449 
L 130.967173 49.87316 
L 131.358222 46.210631 
L 131.749271 48.938729 
L 132.14032 47.922633 
L 132.531369 48.384365 
L 132.922418 52.032133 
L 133.313468 50.107171 
L 133.704517 47.131388 
L 134.095566 46.927314 
L 134.486615 49.389293 
L 134.877664 49.862263 
L 135.268713 50.763818 
L 135.659762 52.677685 
L 136.050812 53.643858 
L 136.83291 49.624833 
L 137.223959 50.212903 
L 137.615008 53.782456 
L 138.006057 54.23312 
L 138.397106 56.505421 
L 138.788156 57.024716 
L 139.179205 56.337868 
L 139.570254 57.642481 
L 139.961303 57.856262 
L 140.352352 57.079947 
L 140.743401 57.000692 
L 141.13445 55.268496 
L 141.5255 52.077824 
L 141.916549 52.578638 
L 142.307598 50.433051 
L 142.698647 50.227809 
L 143.089696 50.536546 
L 143.480745 49.831461 
L 143.871794 51.639018 
L 144.262844 52.135025 
L 144.653893 52.901094 
L 145.044942 51.281995 
L 145.435991 48.697279 
L 145.82704 47.809179 
L 146.218089 47.630525 
L 146.609138 48.878954 
L 147.000188 47.971816 
L 147.391237 47.664091 
L 147.782286 47.7652 
L 148.173335 47.00828 
L 148.564384 50.889271 
L 148.955433 50.544831 
L 149.346482 48.083986 
L 149.737532 46.859985 
L 150.128581 44.443267 
L 150.51963 44.920175 
L 150.910679 45.619434 
L 151.301728 44.498141 
L 152.083826 41.400885 
L 152.474876 42.914195 
L 153.256974 44.184286 
L 153.648023 45.559566 
L 154.039072 45.682519 
L 154.82117 49.280067 
L 155.21222 46.671368 
L 155.603269 49.397748 
L 155.994318 50.179568 
L 156.385367 51.983773 
L 157.167465 48.95807 
L 157.558514 49.44176 
L 157.949564 51.201432 
L 158.340613 51.900043 
L 158.731662 53.551266 
L 159.122711 51.430845 
L 159.51376 50.298812 
L 159.904809 46.811763 
L 160.295858 49.910016 
L 160.686908 49.892641 
L 161.469006 46.321159 
L 161.860055 47.043195 
L 162.251104 48.386283 
L 163.033202 48.996952 
L 163.424252 51.62974 
L 163.815301 50.636495 
L 164.20635 50.555178 
L 164.597399 47.988827 
L 164.988448 49.641396 
L 165.379497 49.338142 
L 165.770546 50.048374 
L 166.161596 47.868969 
L 166.552645 44.28667 
L 166.943694 45.82791 
L 167.334743 48.063403 
L 167.725792 51.105328 
L 168.116841 52.870112 
L 168.50789 52.644121 
L 169.289989 57.134212 
L 169.681038 56.824092 
L 170.463136 52.794044 
L 170.854185 55.148203 
L 171.245235 56.099529 
L 171.636284 57.373347 
L 172.418382 55.225213 
L 172.809431 55.335074 
L 173.20048 55.066724 
L 173.591529 57.088235 
L 173.982579 57.028548 
L 174.373628 59.336003 
L 174.764677 62.82851 
L 175.155726 61.876517 
L 175.546775 61.352057 
L 175.937824 64.986212 
L 176.328873 62.244538 
L 176.719923 62.361255 
L 177.110972 62.084643 
L 177.502021 62.068241 
L 177.89307 65.658401 
L 178.284119 67.224379 
L 178.675168 66.11087 
L 179.066217 66.768022 
L 179.457267 65.011095 
L 179.848316 66.7172 
L 180.630414 65.067102 
L 181.021463 65.288147 
L 181.412512 64.961904 
L 181.803561 62.442758 
L 182.194611 65.838608 
L 182.976709 65.770723 
L 183.367758 64.809182 
L 183.758807 62.509307 
L 184.149856 64.193152 
L 184.540905 64.080344 
L 184.931955 65.565864 
L 185.323004 66.06536 
L 185.714053 67.921897 
L 186.105102 66.890603 
L 186.496151 68.713813 
L 187.278249 70.07436 
L 187.669299 69.561092 
L 188.060348 73.996927 
L 188.451397 71.134935 
L 188.842446 70.108437 
L 189.233495 69.730168 
L 189.624544 71.164742 
L 190.797692 61.520954 
L 191.188741 62.617155 
L 191.970839 62.845011 
L 192.361888 59.659085 
L 192.752937 59.752919 
L 193.535036 54.175782 
L 194.317134 50.424589 
L 194.708183 50.392803 
L 195.881331 53.423292 
L 196.27238 55.538287 
L 196.663429 57.000851 
L 197.054478 57.614342 
L 197.445527 55.177568 
L 197.836576 57.129152 
L 198.227625 57.871263 
L 198.618675 59.037976 
L 199.009724 58.932805 
L 199.400773 57.22041 
L 199.791822 61.201838 
L 200.182871 63.535203 
L 200.57392 63.769365 
L 200.964969 65.710507 
L 201.356019 63.311533 
L 201.747068 66.67505 
L 202.138117 68.358202 
L 202.529166 63.882836 
L 202.920215 64.200782 
L 203.311264 64.732781 
L 204.093363 63.396934 
L 204.484412 61.303064 
L 204.875461 60.239003 
L 205.26651 58.425468 
L 205.657559 59.716413 
L 206.048608 63.537964 
L 206.439657 62.990376 
L 206.830707 64.781915 
L 207.221756 67.296959 
L 207.612805 65.956712 
L 208.003854 65.594585 
L 208.394903 67.116785 
L 208.785952 67.279165 
L 209.177001 67.743972 
L 209.568051 67.251552 
L 209.9591 70.818985 
L 210.350149 67.85809 
L 211.132247 72.837259 
L 211.523296 71.922784 
L 211.914345 67.75344 
L 212.305395 70.805407 
L 212.696444 71.883466 
L 213.087493 72.092735 
L 213.478542 71.321321 
L 214.26064 76.65826 
L 214.651689 76.425945 
L 215.042739 77.316737 
L 215.433788 77.48248 
L 215.824837 78.859898 
L 216.215886 75.810436 
L 216.606935 74.355705 
L 217.389033 75.489862 
L 217.780083 73.126079 
L 218.171132 73.663513 
L 218.562181 76.226483 
L 218.95323 77.154121 
L 219.344279 78.681934 
L 219.735328 77.212863 
L 220.126377 79.187721 
L 220.517427 79.278799 
L 220.908476 78.575582 
L 221.299525 77.627119 
L 221.690574 78.445569 
L 222.081623 78.010762 
L 222.472672 79.878771 
L 222.863721 79.821475 
L 223.254771 84.400777 
L 223.64582 83.126226 
L 224.427918 88.904738 
L 224.818967 87.158028 
L 225.210016 88.539364 
L 225.601065 88.589635 
L 225.992115 86.974948 
L 226.383164 86.983543 
L 226.774213 84.083116 
L 227.165262 84.538846 
L 227.556311 83.431793 
L 227.94736 85.32446 
L 228.338409 82.757842 
L 228.729459 82.869252 
L 229.120508 76.8343 
L 229.511557 73.574308 
L 229.902606 75.16997 
L 230.293655 72.854853 
L 231.075753 73.07512 
L 231.466803 71.536054 
L 231.857852 75.391261 
L 232.248901 71.556609 
L 233.030999 75.853666 
L 234.204147 83.088699 
L 234.986245 80.281954 
L 235.377294 81.098463 
L 235.768343 82.61657 
L 236.159392 82.795425 
L 236.550442 84.600536 
L 236.941491 85.228472 
L 237.33254 86.966197 
L 237.723589 85.804832 
L 238.114638 83.592265 
L 238.505687 85.322425 
L 238.896736 85.650419 
L 239.287786 87.426475 
L 239.678835 85.103159 
L 240.069884 84.784419 
L 240.460933 81.654575 
L 241.243031 83.766884 
L 241.63408 80.731914 
L 242.02513 80.83397 
L 242.807228 76.127269 
L 243.198277 74.9825 
L 243.589326 74.971856 
L 243.980375 74.61671 
L 244.371424 72.093111 
L 245.153523 69.622562 
L 245.544572 69.653006 
L 245.935621 69.401918 
L 246.717719 70.58847 
L 247.108768 67.64589 
L 247.499818 68.227875 
L 247.890867 70.843995 
L 248.281916 70.276965 
L 249.064014 73.358816 
L 249.455063 70.450773 
L 249.846112 72.356374 
L 250.237162 75.550988 
L 250.628211 76.843872 
L 251.01926 79.660305 
L 251.410309 80.348591 
L 251.801358 82.795575 
L 252.583456 84.986707 
L 252.974506 87.052275 
L 253.365555 87.481504 
L 254.147653 82.846784 
L 254.538702 82.63059 
L 254.929751 81.176194 
L 255.3208 83.488521 
L 255.71185 80.143809 
L 256.102899 82.286411 
L 256.493948 83.00354 
L 257.276046 80.177238 
L 257.667095 81.294224 
L 258.058144 80.947392 
L 258.449194 79.731802 
L 258.840243 79.949446 
L 259.231292 80.554159 
L 259.622341 83.766632 
L 260.01339 81.894391 
L 260.404439 81.171471 
L 260.795488 85.233204 
L 261.186538 82.777301 
L 261.577587 81.927876 
L 261.968636 86.792957 
L 262.359685 83.623123 
L 262.750734 83.90464 
L 263.141783 86.342907 
L 263.532832 86.326476 
L 263.923882 86.546412 
L 264.314931 87.245618 
L 264.70598 89.14393 
L 265.097029 87.99411 
L 265.488078 86.298573 
L 265.879127 85.29956 
L 266.270176 86.691177 
L 266.661226 87.21233 
L 267.052275 82.853467 
L 267.443324 83.450503 
L 267.443324 83.450503 
" clip-path="url(#p3d8560d66c)" style="fill: none; stroke: #1f77b4; stroke-width: 1.5; stroke-linecap: square"/>
   </g>
   <g id="line2d_13">
    <path d="M 62.553125 26.563063 
L 277.2 26.563063 
" clip-path="url(#p3d8560d66c)" style="fill: none; stroke-dasharray: 2.775,1.2; stroke-dashoffset: 0; stroke: #808080; stroke-width: 0.75"/>
   </g>
   <g id="patch_3">
    <path d="M 62.553125 104.3725 
L 62.553125 10.8 
" style="fill: none; stroke: #000000; stroke-width: 0.8; stroke-linejoin: miter; stroke-linecap: square"/>
   </g>
   <g id="patch_4">
    <path d="M 277.2 104.3725 
L 277.2 10.8 
" style="fill: none; stroke: #000000; stroke-width: 0.8; stroke-linejoin: miter; stroke-linecap: square"/>
   </g>
   <g id="patch_5">
    <path d="M 62.553125 104.3725 
L 277.2 104.3725 
" style="fill: none; stroke: #000000; stroke-width: 0.8; stroke-linejoin: miter; stroke-linecap: square"/>
   </g>
   <g id="patch_6">
    <path d="M 62.553125 10.8 
L 277.2 10.8 
" style="fill: none; stroke: #000000; stroke-width: 0.8; stroke-linejoin: miter; stroke-linecap: square"/>
   </g>
  </g>
  <g id="axes_2">
   <g id="patch_7">
    <path d="M 62.553125 242.9725 
L 277.2 242.9725 
L 277.2 149.4 
L 62.553125 149.4 
z
" style="fill: #ffffff"/>
   </g>
   <g id="line2d_14">
    <path d="M 72.309801 164.969411 
L 72.70085 164.997867 
L 73.091899 161.539296 
L 73.482949 160.165384 
L 73.873998 159.890189 
L 74.265047 161.453218 
L 74.656096 160.694667 
L 75.047145 159.395678 
L 75.438194 160.904601 
L 75.829243 161.72364 
L 76.220293 161.925038 
L 76.611342 163.677826 
L 77.002391 160.716139 
L 77.39344 165.274766 
L 77.784489 166.759792 
L 78.175538 164.085237 
L 78.566587 159.746604 
L 78.957637 160.930026 
L 79.348686 157.91536 
L 79.739735 156.518197 
L 80.130784 158.745018 
L 80.521833 162.322729 
L 80.912882 164.551467 
L 81.303931 164.544178 
L 81.694981 161.369227 
L 82.08603 161.585102 
L 82.477079 161.405663 
L 82.868128 164.781193 
L 83.259177 166.709081 
L 84.041275 165.968345 
L 84.432325 168.355542 
L 84.823374 169.367718 
L 85.214423 168.395685 
L 85.996521 165.501911 
L 86.38757 165.674711 
L 86.778619 166.201152 
L 87.169669 167.11883 
L 87.560718 166.828393 
L 87.951767 167.107327 
L 88.342816 169.102295 
L 88.733865 169.298759 
L 89.124914 168.905333 
L 89.515963 170.100476 
L 89.907013 167.869255 
L 90.298062 167.362705 
L 90.689111 168.767601 
L 91.08016 169.053409 
L 91.471209 170.71424 
L 91.862258 169.899526 
L 92.253307 167.032299 
L 92.644357 166.990155 
L 93.035406 167.321231 
L 93.426455 166.379904 
L 94.208553 165.066868 
L 94.599602 159.870641 
L 94.990651 160.204186 
L 95.381701 159.746377 
L 95.77275 158.014283 
L 96.163799 159.807888 
L 96.554848 156.771144 
L 96.945897 156.628819 
L 97.336946 158.912345 
L 98.119045 159.159236 
L 98.510094 158.860213 
L 98.901143 160.820518 
L 99.292192 164.49501 
L 100.07429 164.88055 
L 100.465339 162.592013 
L 100.856389 164.248069 
L 101.247438 162.71797 
L 101.638487 159.890052 
L 102.029536 160.493769 
L 102.420585 156.232909 
L 102.811634 154.310036 
L 103.202683 157.739281 
L 103.593733 159.523355 
L 104.375831 164.685161 
L 104.76688 167.102165 
L 105.157929 167.415232 
L 105.548978 168.058747 
L 105.940027 169.226272 
L 106.331077 168.822549 
L 106.722126 168.694923 
L 107.113175 169.958839 
L 107.504224 171.686245 
L 107.895273 172.331392 
L 108.286322 173.698703 
L 108.677372 171.282997 
L 109.068421 171.055189 
L 109.45947 173.259065 
L 109.850519 173.258387 
L 110.241568 175.17762 
L 110.632617 173.672136 
L 111.414716 171.934206 
L 111.805765 170.471043 
L 112.196814 167.992799 
L 112.587863 168.562334 
L 112.978912 166.716902 
L 113.369961 166.683377 
L 113.76101 165.824865 
L 114.15206 166.368504 
L 114.543109 167.484101 
L 114.934158 169.605456 
L 115.325207 169.789102 
L 116.107305 173.311246 
L 116.498354 169.841262 
L 117.280453 175.440271 
L 117.671502 175.698587 
L 118.062551 177.488103 
L 118.4536 176.008161 
L 119.235698 176.571868 
L 119.626748 179.155585 
L 120.017797 179.568017 
L 120.408846 181.263736 
L 120.799895 182.265168 
L 121.190944 181.040234 
L 121.581993 180.7183 
L 121.973042 183.672316 
L 122.364092 185.142839 
L 122.755141 184.331657 
L 123.14619 186.39129 
L 123.537239 187.260222 
L 123.928288 189.785398 
L 124.319337 188.866852 
L 124.710386 188.426353 
L 125.101436 188.993313 
L 125.492485 194.206704 
L 125.883534 193.839531 
L 126.274583 193.067095 
L 127.056681 192.124574 
L 127.44773 193.16974 
L 127.83878 193.785977 
L 128.229829 192.117132 
L 128.620878 193.114802 
L 129.011927 192.329845 
L 129.402976 190.601247 
L 129.794025 190.70767 
L 130.185074 189.422913 
L 130.576124 187.377604 
L 130.967173 187.671191 
L 131.358222 183.954785 
L 131.749271 186.71186 
L 132.14032 185.656462 
L 132.531369 186.104809 
L 132.922418 189.734617 
L 133.313468 187.799695 
L 133.704517 184.775153 
L 134.095566 184.572236 
L 134.486615 187.037733 
L 134.877664 187.464189 
L 135.268713 188.311705 
L 135.659762 190.185351 
L 136.050812 191.166128 
L 136.83291 187.13244 
L 137.223959 187.666786 
L 137.615008 191.189317 
L 138.006057 191.643538 
L 138.397106 193.91811 
L 138.788156 194.423668 
L 139.179205 193.712371 
L 139.570254 195.004045 
L 139.961303 195.19459 
L 140.352352 194.395227 
L 140.743401 194.290704 
L 141.13445 192.53451 
L 141.5255 189.34168 
L 141.916549 189.834381 
L 142.307598 187.700707 
L 142.698647 187.448284 
L 143.089696 187.710103 
L 143.480745 186.958891 
L 143.871794 188.712016 
L 144.262844 189.186972 
L 144.653893 189.947349 
L 145.044942 188.347064 
L 145.435991 185.733342 
L 145.82704 184.815455 
L 146.218089 184.623532 
L 146.609138 185.859382 
L 147.000188 184.91441 
L 147.391237 184.592889 
L 147.782286 184.680746 
L 148.173335 183.910344 
L 148.564384 187.793299 
L 148.955433 187.412073 
L 149.346482 184.905241 
L 149.737532 183.666301 
L 150.128581 181.254872 
L 150.51963 181.769772 
L 150.910679 182.487717 
L 151.301728 181.386652 
L 152.083826 178.382552 
L 152.474876 179.933695 
L 153.256974 181.335963 
L 153.648023 182.766415 
L 154.039072 182.908312 
L 154.82117 186.516951 
L 155.21222 183.864468 
L 155.603269 186.602774 
L 155.994318 187.337822 
L 156.385367 189.094632 
L 157.167465 186.009962 
L 157.558514 186.453987 
L 157.949564 188.165459 
L 158.340613 188.833351 
L 158.731662 190.469919 
L 159.122711 188.36571 
L 159.51376 187.208055 
L 159.904809 183.674103 
L 160.295858 186.779137 
L 160.686908 186.708508 
L 161.469006 183.067295 
L 161.860055 183.814637 
L 162.251104 185.15926 
L 163.033202 185.723844 
L 163.424252 188.31636 
L 163.815301 187.301868 
L 164.20635 187.176606 
L 164.597399 184.564454 
L 164.988448 186.20306 
L 165.379497 185.845769 
L 165.770546 186.510915 
L 166.161596 184.281351 
L 166.552645 180.685886 
L 166.943694 182.274814 
L 167.334743 184.536373 
L 167.725792 187.563566 
L 168.116841 189.2958 
L 168.50789 189.088133 
L 169.289989 193.598361 
L 169.681038 193.262477 
L 170.463136 189.217334 
L 170.854185 191.588528 
L 171.245235 192.541482 
L 171.636284 193.802223 
L 172.418382 191.616161 
L 172.809431 191.725316 
L 173.20048 191.452692 
L 173.591529 193.477575 
L 173.982579 193.392524 
L 174.373628 195.675464 
L 174.764677 199.189658 
L 175.155726 198.230402 
L 175.546775 197.689366 
L 175.937824 201.334839 
L 176.328873 198.579574 
L 176.719923 198.682243 
L 177.110972 198.39321 
L 177.502021 198.360583 
L 177.89307 201.934339 
L 178.284119 203.484626 
L 178.675168 202.351679 
L 179.066217 202.982778 
L 179.457267 201.202695 
L 179.848316 202.895187 
L 180.630414 201.200836 
L 181.021463 201.408074 
L 181.412512 201.067224 
L 181.803561 198.534459 
L 182.194611 201.918877 
L 182.976709 201.811226 
L 183.367758 200.831604 
L 183.758807 198.516571 
L 184.149856 200.189678 
L 184.540905 200.056964 
L 184.931955 201.523991 
L 185.323004 202.008892 
L 185.714053 203.8402 
L 186.105102 202.823742 
L 186.496151 204.625055 
L 187.278249 206.098006 
L 187.669299 205.621828 
L 188.060348 210.111284 
L 188.451397 207.246675 
L 188.842446 206.257634 
L 189.233495 205.914773 
L 189.624544 207.397201 
L 190.797692 197.779545 
L 191.188741 198.877411 
L 191.970839 199.086515 
L 192.361888 195.893551 
L 192.752937 196.014109 
L 193.535036 190.449633 
L 194.317134 186.704854 
L 194.708183 186.625859 
L 195.490281 188.144344 
L 195.881331 189.569133 
L 196.27238 191.706056 
L 196.663429 193.160533 
L 197.054478 193.750023 
L 197.445527 191.289989 
L 197.836576 193.242374 
L 198.227625 193.958754 
L 198.618675 195.10253 
L 199.009724 195.008708 
L 199.400773 193.303624 
L 199.791822 197.259107 
L 200.182871 199.610211 
L 200.57392 199.833165 
L 200.964969 201.759861 
L 201.356019 199.344204 
L 201.747068 202.700232 
L 202.138117 204.358915 
L 202.529166 199.921827 
L 202.920215 200.22423 
L 203.311264 200.736239 
L 204.093363 199.36495 
L 204.484412 197.262276 
L 204.875461 196.211724 
L 205.26651 194.439399 
L 205.657559 195.720853 
L 206.048608 199.570005 
L 206.439657 199.011159 
L 206.830707 200.797219 
L 207.221756 203.296595 
L 207.612805 201.938211 
L 208.003854 201.55323 
L 208.394903 203.060589 
L 208.785952 203.202507 
L 209.177001 203.648795 
L 209.568051 203.160159 
L 209.9591 206.708564 
L 210.350149 203.779306 
L 211.132247 208.801618 
L 211.523296 207.905125 
L 211.914345 203.764578 
L 212.305395 206.82092 
L 212.696444 207.930231 
L 213.087493 208.168212 
L 213.478542 207.426845 
L 214.26064 212.796032 
L 214.651689 212.450545 
L 215.042739 213.235757 
L 215.433788 213.282458 
L 215.824837 214.541292 
L 216.215886 211.421499 
L 216.606935 209.915402 
L 217.389033 211.03024 
L 217.780083 208.633525 
L 218.171132 209.179454 
L 218.562181 211.738002 
L 218.95323 212.573942 
L 219.344279 213.983856 
L 219.735328 212.436337 
L 220.126377 214.292812 
L 220.517427 214.334735 
L 220.908476 213.5891 
L 221.299525 212.55779 
L 221.690574 213.260235 
L 222.081623 212.73758 
L 222.472672 214.502283 
L 222.863721 214.434217 
L 223.254771 218.999385 
L 223.64582 217.934007 
L 224.427918 224.182955 
L 224.818967 223.091482 
L 225.210016 224.953397 
L 225.601065 225.622352 
L 225.992115 224.631376 
L 226.383164 225.102259 
L 226.774213 222.664977 
L 227.165262 223.300576 
L 227.556311 222.415743 
L 227.94736 224.433833 
L 228.338409 222.165641 
L 228.729459 222.363921 
L 229.120508 216.420465 
L 229.511557 213.045007 
L 229.902606 214.637654 
L 230.293655 212.298926 
L 231.075753 212.549675 
L 231.466803 211.02043 
L 231.857852 214.908745 
L 232.248901 211.044959 
L 233.030999 215.372888 
L 234.204147 222.516374 
L 234.986245 219.879629 
L 235.377294 220.709747 
L 235.768343 222.286392 
L 236.159392 222.547364 
L 236.550442 224.440819 
L 236.941491 225.296852 
L 237.33254 227.323576 
L 237.723589 226.623624 
L 238.114638 224.756927 
L 238.505687 226.624858 
L 238.896736 227.251078 
L 239.287786 229.357717 
L 239.678835 227.541806 
L 240.069884 227.499794 
L 240.460933 224.615703 
L 241.243031 226.884945 
L 241.63408 224.002116 
L 242.02513 224.145757 
L 242.807228 219.401993 
L 243.198277 218.175095 
L 243.589326 218.145404 
L 243.980375 217.771478 
L 244.371424 215.238145 
L 245.153523 212.828823 
L 245.544572 212.910406 
L 245.935621 212.70939 
L 246.717719 213.999506 
L 247.108768 211.082371 
L 247.499818 211.662094 
L 247.890867 214.310289 
L 248.281916 213.775594 
L 249.064014 216.916271 
L 249.455063 214.010635 
L 249.846112 215.940255 
L 250.237162 219.164973 
L 250.628211 220.422086 
L 251.01926 223.122969 
L 251.410309 223.788992 
L 251.801358 226.253706 
L 252.583456 228.700551 
L 252.974506 231.031486 
L 253.365555 231.930727 
L 254.147653 228.059088 
L 254.538702 227.933396 
L 254.929751 226.561533 
L 255.3208 228.934461 
L 255.71185 225.719429 
L 256.102899 227.86726 
L 256.493948 228.659954 
L 256.884997 227.524796 
L 257.276046 226.000868 
L 257.667095 227.125098 
L 258.058144 226.840997 
L 258.449194 225.678269 
L 258.840243 225.876939 
L 259.231292 226.475145 
L 259.622341 229.718306 
L 260.01339 227.998185 
L 260.404439 227.346595 
L 260.795488 231.468821 
L 261.186538 229.302381 
L 261.577587 228.540579 
L 261.968636 233.477498 
L 262.359685 230.751781 
L 262.750734 231.173546 
L 263.141783 233.775808 
L 263.532832 234.158661 
L 263.923882 234.776247 
L 264.314931 235.89499 
L 264.70598 238.282633 
L 265.097029 237.811998 
L 265.488078 236.68063 
L 265.879127 236.076491 
L 266.270176 237.764087 
L 266.661226 238.719205 
L 267.052275 234.846347 
L 267.443324 235.534176 
L 267.443324 235.534176 
" clip-path="url(#p459c041977)" style="fill: none; stroke: #00bfbf; stroke-width: 1.5; stroke-linecap: square"/>
   </g>
   <g id="matplotlib.axis_3">
    <g id="xtick_7">
     <g id="line2d_15">
      <g>
       <use xlink:href="#m1bb2b41a3f" x="72.309801" y="242.9725" style="stroke: #000000; stroke-width: 0.8"/>
      </g>
     </g>
     <g id="text_12">
      <!-- 0.0 -->
      <g transform="translate(62.767926 259.090625)scale(0.12 -0.12)">
       <use xlink:href="#DejaVuSans-30"/>
       <use xlink:href="#DejaVuSans-2e" x="63.623047"/>
       <use xlink:href="#DejaVuSans-30" x="95.410156"/>
      </g>
     </g>
    </g>
    <g id="xtick_8">
     <g id="line2d_16">
      <g>
       <use xlink:href="#m1bb2b41a3f" x="111.414716" y="242.9725" style="stroke: #000000; stroke-width: 0.8"/>
      </g>
     </g>
     <g id="text_13">
      <!-- 0.1 -->
      <g transform="translate(101.872841 259.090625)scale(0.12 -0.12)">
       <use xlink:href="#DejaVuSans-30"/>
       <use xlink:href="#DejaVuSans-2e" x="63.623047"/>
       <use xlink:href="#DejaVuSans-31" x="95.410156"/>
      </g>
     </g>
    </g>
    <g id="xtick_9">
     <g id="line2d_17">
      <g>
       <use xlink:href="#m1bb2b41a3f" x="150.51963" y="242.9725" style="stroke: #000000; stroke-width: 0.8"/>
      </g>
     </g>
     <g id="text_14">
      <!-- 0.2 -->
      <g transform="translate(140.977755 259.090625)scale(0.12 -0.12)">
       <use xlink:href="#DejaVuSans-30"/>
       <use xlink:href="#DejaVuSans-2e" x="63.623047"/>
       <use xlink:href="#DejaVuSans-32" x="95.410156"/>
      </g>
     </g>
    </g>
    <g id="xtick_10">
     <g id="line2d_18">
      <g>
       <use xlink:href="#m1bb2b41a3f" x="189.624544" y="242.9725" style="stroke: #000000; stroke-width: 0.8"/>
      </g>
     </g>
     <g id="text_15">
      <!-- 0.3 -->
      <g transform="translate(180.082669 259.090625)scale(0.12 -0.12)">
       <use xlink:href="#DejaVuSans-30"/>
       <use xlink:href="#DejaVuSans-2e" x="63.623047"/>
       <use xlink:href="#DejaVuSans-33" x="95.410156"/>
      </g>
     </g>
    </g>
    <g id="xtick_11">
     <g id="line2d_19">
      <g>
       <use xlink:href="#m1bb2b41a3f" x="228.729459" y="242.9725" style="stroke: #000000; stroke-width: 0.8"/>
      </g>
     </g>
     <g id="text_16">
      <!-- 0.4 -->
      <g transform="translate(219.187584 259.090625)scale(0.12 -0.12)">
       <use xlink:href="#DejaVuSans-30"/>
       <use xlink:href="#DejaVuSans-2e" x="63.623047"/>
       <use xlink:href="#DejaVuSans-34" x="95.410156"/>
      </g>
     </g>
    </g>
    <g id="xtick_12">
     <g id="line2d_20">
      <g>
       <use xlink:href="#m1bb2b41a3f" x="267.834373" y="242.9725" style="stroke: #000000; stroke-width: 0.8"/>
      </g>
     </g>
     <g id="text_17">
      <!-- 0.5 -->
      <g transform="translate(258.292498 259.090625)scale(0.12 -0.12)">
       <use xlink:href="#DejaVuSans-30"/>
       <use xlink:href="#DejaVuSans-2e" x="63.623047"/>
       <use xlink:href="#DejaVuSans-35" x="95.410156"/>
      </g>
     </g>
    </g>
    <g id="text_18">
     <!-- Time (s) -->
     <g transform="translate(145.481875 274.704375)scale(0.12 -0.12)">
      <use xlink:href="#DejaVuSans-54"/>
      <use xlink:href="#DejaVuSans-69" x="57.958984"/>
      <use xlink:href="#DejaVuSans-6d" x="85.742188"/>
      <use xlink:href="#DejaVuSans-65" x="183.154297"/>
      <use xlink:href="#DejaVuSans-20" x="244.677734"/>
      <use xlink:href="#DejaVuSans-28" x="276.464844"/>
      <use xlink:href="#DejaVuSans-73" x="315.478516"/>
      <use xlink:href="#DejaVuSans-29" x="367.578125"/>
     </g>
    </g>
   </g>
   <g id="matplotlib.axis_4">
    <g id="ytick_4">
     <g id="line2d_21">
      <g>
       <use xlink:href="#m9aa9588f20" x="62.553125" y="240.507305" style="stroke: #000000; stroke-width: 0.8"/>
      </g>
     </g>
     <g id="text_19">
      <!-- −2 -->
      <g transform="translate(37.8625 245.066368)scale(0.12 -0.12)">
       <use xlink:href="#DejaVuSans-2212"/>
       <use xlink:href="#DejaVuSans-32" x="83.789062"/>
      </g>
     </g>
    </g>
    <g id="ytick_5">
     <g id="line2d_22">
      <g>
       <use xlink:href="#m9aa9588f20" x="62.553125" y="202.835184" style="stroke: #000000; stroke-width: 0.8"/>
      </g>
     </g>
     <g id="text_20">
      <!-- −1 -->
      <g transform="translate(37.8625 207.394247)scale(0.12 -0.12)">
       <use xlink:href="#DejaVuSans-2212"/>
       <use xlink:href="#DejaVuSans-31" x="83.789062"/>
      </g>
     </g>
    </g>
    <g id="ytick_6">
     <g id="line2d_23">
      <g>
       <use xlink:href="#m9aa9588f20" x="62.553125" y="165.163063" style="stroke: #000000; stroke-width: 0.8"/>
      </g>
     </g>
     <g id="text_21">
      <!-- 0 -->
      <g transform="translate(47.918125 169.722125)scale(0.12 -0.12)">
       <use xlink:href="#DejaVuSans-30"/>
      </g>
     </g>
    </g>
    <g id="text_22">
     <!-- x -->
     <g transform="translate(31.366875 199.7375)rotate(-90)scale(0.12 -0.12)">
      <use xlink:href="#DejaVuSans-78"/>
     </g>
    </g>
   </g>
   <g id="line2d_24">
    <path d="M 72.309801 165.163063 
L 72.70085 165.191518 
L 73.091899 161.730102 
L 73.482949 160.699486 
L 73.873998 160.870649 
L 74.265047 162.86292 
L 74.656096 162.334382 
L 75.047145 161.318261 
L 75.438194 163.211664 
L 75.829243 164.225843 
L 76.220293 164.520963 
L 76.611342 166.337962 
L 77.002391 163.258785 
L 77.39344 168.007839 
L 77.784489 169.208387 
L 78.175538 166.1293 
L 78.566587 161.694043 
L 78.957637 163.224368 
L 79.348686 160.403571 
L 79.739735 159.482357 
L 80.130784 162.277249 
L 80.521833 166.143542 
L 80.912882 168.274231 
L 81.303931 167.955825 
L 81.694981 164.501598 
L 82.08603 164.78362 
L 82.477079 164.642125 
L 82.868128 168.069748 
L 83.259177 169.706969 
L 84.041275 168.139201 
L 84.432325 170.228784 
L 84.823374 170.734388 
L 85.605472 167.433676 
L 85.996521 165.680171 
L 86.38757 165.801261 
L 86.778619 166.263882 
L 87.169669 167.071478 
L 87.560718 166.590199 
L 87.951767 166.72642 
L 88.342816 168.565052 
L 88.733865 168.421317 
L 89.124914 167.702066 
L 89.515963 168.643308 
L 89.907013 166.064063 
L 90.298062 165.467413 
L 90.689111 166.841874 
L 91.08016 166.959801 
L 91.471209 168.440958 
L 91.862258 167.298454 
L 92.253307 164.217689 
L 92.644357 164.270082 
L 93.035406 164.690456 
L 93.426455 163.796389 
L 94.208553 162.807154 
L 94.599602 157.846518 
L 94.990651 158.911717 
L 95.381701 159.079043 
L 95.77275 157.955351 
L 96.163799 160.469727 
L 96.554848 157.902316 
L 96.945897 158.486066 
L 97.336946 161.437292 
L 98.119045 162.384667 
L 98.510094 162.363483 
L 98.901143 164.603746 
L 99.292192 168.33417 
L 100.07429 168.093831 
L 100.465339 165.512216 
L 100.856389 167.133358 
L 101.247438 165.406229 
L 101.638487 162.553994 
L 102.029536 163.418618 
L 102.420585 159.332203 
L 102.811634 157.992416 
L 103.202683 162.138726 
L 103.593733 164.225233 
L 103.984782 167.215128 
L 104.76688 171.281364 
L 105.157929 170.982602 
L 105.548978 171.044162 
L 105.940027 171.623577 
L 106.331077 170.573803 
L 106.722126 169.905103 
L 107.113175 170.694815 
L 107.504224 171.869046 
L 107.895273 171.843594 
L 108.286322 172.542852 
L 108.677372 169.389168 
L 109.068421 168.738749 
L 109.45947 170.585057 
L 109.850519 170.042179 
L 110.241568 171.4735 
L 110.632617 169.336972 
L 111.805765 165.259146 
L 112.196814 162.771293 
L 112.587863 163.580006 
L 112.978912 161.892879 
L 113.369961 162.186372 
L 113.76101 161.62553 
L 114.15206 162.522922 
L 114.543109 163.902533 
L 114.934158 166.149941 
L 115.325207 166.2349 
L 116.107305 169.363008 
L 116.498354 165.47303 
L 117.280453 170.715248 
L 117.671502 170.418345 
L 118.062551 171.682333 
L 118.4536 169.550464 
L 119.235698 169.246371 
L 119.626748 171.421757 
L 120.017797 171.20832 
L 120.408846 172.299514 
L 120.799895 172.5873 
L 121.190944 170.619943 
L 121.581993 169.752321 
L 121.973042 172.247411 
L 122.364092 173.009498 
L 122.755141 171.413674 
L 123.14619 172.848245 
L 123.537239 172.948659 
L 123.928288 174.695276 
L 124.319337 172.823508 
L 124.710386 171.616964 
L 125.101436 171.538534 
L 125.492485 176.114378 
L 127.056681 170.559957 
L 127.44773 171.065434 
L 127.83878 171.091434 
L 128.229829 168.829751 
L 128.620878 169.460752 
L 129.011927 168.246027 
L 129.402976 166.209132 
L 129.794025 166.210948 
L 130.185074 164.821403 
L 130.576124 162.81026 
L 130.967173 163.339127 
L 131.358222 159.805114 
L 131.749271 163.097984 
L 132.14032 162.249095 
L 132.531369 162.988839 
L 132.922418 166.836069 
L 133.313468 164.733846 
L 133.704517 161.752226 
L 134.095566 161.890392 
L 134.486615 164.683156 
L 134.877664 165.157604 
L 135.268713 166.005665 
L 135.659762 167.795051 
L 136.050812 168.512629 
L 136.83291 164.061491 
L 137.223959 164.705994 
L 137.615008 168.274232 
L 138.006057 168.417336 
L 138.397106 170.36648 
L 138.788156 170.351697 
L 139.179205 169.121537 
L 139.570254 170.017363 
L 139.961303 169.722478 
L 140.352352 168.467174 
L 140.743401 168.03224 
L 141.13445 165.989128 
L 141.5255 162.713691 
L 141.916549 163.451329 
L 142.307598 161.488829 
L 142.698647 161.603829 
L 143.089696 162.221572 
L 143.480745 161.764509 
L 143.871794 163.857489 
L 144.262844 164.463003 
L 144.653893 165.293385 
L 145.044942 163.680068 
L 145.435991 161.214645 
L 145.82704 160.691601 
L 146.218089 160.946823 
L 146.609138 162.604298 
L 147.000188 161.915202 
L 147.391237 161.918467 
L 147.782286 162.330783 
L 148.173335 161.84361 
L 148.564384 166.05851 
L 148.955433 165.587739 
L 149.346482 163.038439 
L 149.737532 162.011962 
L 150.128581 159.915643 
L 150.910679 162.094008 
L 151.301728 161.299848 
L 151.692777 159.962069 
L 152.083826 159.202169 
L 152.474876 161.349402 
L 153.256974 163.411009 
L 153.648023 165.016666 
L 154.039072 165.173203 
L 154.82117 168.588119 
L 155.21222 165.59313 
L 155.603269 168.28843 
L 155.994318 168.710941 
L 156.385367 170.112963 
L 157.167465 166.251577 
L 157.558514 166.58675 
L 157.949564 168.155854 
L 158.340613 168.524467 
L 158.731662 169.824895 
L 159.122711 167.254502 
L 159.51376 165.887704 
L 159.904809 162.281287 
L 160.295858 165.674499 
L 160.686908 165.552726 
L 161.469006 162.010482 
L 161.860055 163.073082 
L 162.251104 164.626704 
L 163.033202 165.266988 
L 163.424252 167.849112 
L 163.815301 166.566015 
L 164.20635 166.300457 
L 164.597399 163.574566 
L 164.988448 165.372022 
L 165.379497 164.993835 
L 165.770546 165.675904 
L 166.161596 163.395056 
L 166.552645 159.976391 
L 167.334743 164.653453 
L 167.725792 167.731607 
L 168.116841 169.206987 
L 168.50789 168.594927 
L 169.289989 172.251465 
L 169.681038 171.206741 
L 170.463136 166.198904 
L 170.854185 168.466514 
L 171.245235 169.089123 
L 171.636284 169.957258 
L 172.027333 168.206308 
L 172.418382 166.987452 
L 172.809431 166.914168 
L 173.20048 166.466433 
L 173.591529 168.360979 
L 173.982579 167.956137 
L 174.373628 169.959769 
L 174.764677 172.994293 
L 175.155726 171.251914 
L 175.546775 170.101993 
L 175.937824 173.253573 
L 176.328873 169.689257 
L 176.719923 169.339306 
L 177.110972 168.632649 
L 177.502021 168.253064 
L 177.89307 171.517819 
L 178.284119 172.43263 
L 178.675168 170.572727 
L 179.066217 170.66286 
L 179.457267 168.332797 
L 179.848316 169.708316 
L 180.630414 167.238415 
L 181.021463 167.238117 
L 181.412512 166.689762 
L 181.803561 164.004327 
L 182.194611 167.504619 
L 182.976709 166.953681 
L 183.367758 165.794997 
L 183.758807 163.41677 
L 184.149856 165.264507 
L 184.540905 165.121649 
L 184.931955 166.592817 
L 185.323004 166.934742 
L 185.714053 168.588883 
L 186.105102 167.229842 
L 186.496151 168.824478 
L 187.278249 169.523976 
L 187.669299 168.611706 
L 188.060348 172.756298 
L 188.451397 169.132366 
L 188.842446 167.746395 
L 189.233495 167.145201 
L 189.624544 168.429414 
L 190.015593 164.709453 
L 190.406643 162.27416 
L 190.797692 158.819374 
L 191.188741 160.55161 
L 191.970839 161.630474 
L 192.361888 158.79077 
L 192.752937 159.548556 
L 193.143987 157.053237 
L 193.535036 155.356514 
L 194.317134 153.653295 
L 194.708183 154.725277 
L 196.663429 164.574664 
L 197.054478 165.222994 
L 197.445527 162.756967 
L 197.836576 164.949962 
L 198.227625 165.687652 
L 198.618675 166.778969 
L 199.009724 166.523556 
L 199.400773 164.682423 
L 199.791822 168.685969 
L 200.182871 170.684783 
L 200.57392 170.355565 
L 200.964969 171.763011 
L 201.356019 168.687359 
L 201.747068 171.690957 
L 202.138117 172.696851 
L 202.529166 167.506384 
L 202.920215 167.574455 
L 203.311264 167.845324 
L 204.093363 166.029644 
L 204.484412 163.840312 
L 204.875461 162.922036 
L 205.26651 161.373813 
L 205.657559 163.034192 
L 206.048608 167.096231 
L 206.439657 166.344069 
L 206.830707 168.012028 
L 207.221756 170.226508 
L 207.612805 168.361779 
L 208.003854 167.656927 
L 208.394903 168.914899 
L 208.785952 168.681633 
L 209.177001 168.776064 
L 209.568051 167.926128 
L 209.9591 171.198227 
L 210.350149 167.665453 
L 211.132247 171.979903 
L 211.523296 170.401727 
L 211.914345 165.737313 
L 212.305395 168.736229 
L 212.696444 169.488224 
L 213.087493 169.293689 
L 213.478542 168.13926 
L 214.26064 172.686236 
L 214.651689 171.588433 
L 215.042739 171.731108 
L 215.433788 171.121004 
L 215.824837 171.784044 
L 216.215886 168.002153 
L 216.606935 166.212147 
L 217.389033 167.067249 
L 217.780083 164.480116 
L 218.171132 165.094339 
L 218.562181 167.659759 
L 218.95323 168.24603 
L 219.344279 169.347647 
L 219.735328 167.38167 
L 220.126377 169.016284 
L 220.517427 168.672885 
L 221.299525 166.303638 
L 221.690574 166.892025 
L 222.081623 166.196474 
L 222.472672 167.857836 
L 222.863721 167.520292 
L 223.254771 171.849737 
L 223.64582 170.115692 
L 224.427918 175.125507 
L 224.818967 173.037789 
L 225.210016 174.112232 
L 225.601065 173.886271 
L 225.992115 172.022974 
L 226.383164 171.807865 
L 226.774213 168.706103 
L 227.165262 168.987398 
L 227.556311 167.720132 
L 227.94736 169.482515 
L 228.338409 166.782378 
L 228.729459 166.818726 
L 229.120508 160.709704 
L 229.511557 157.779581 
L 229.902606 160.110576 
L 230.293655 158.277097 
L 231.075753 159.823948 
L 231.466803 158.828615 
L 231.857852 163.350374 
L 232.248901 159.667857 
L 233.813098 169.533432 
L 234.204147 171.350993 
L 234.986245 167.670631 
L 235.377294 168.249993 
L 235.768343 169.517944 
L 236.159392 169.343428 
L 236.550442 170.818847 
L 236.941491 171.109302 
L 237.33254 172.541401 
L 237.723589 171.103615 
L 238.114638 168.642864 
L 238.505687 170.162814 
L 238.896736 170.289059 
L 239.287786 171.883099 
L 239.678835 169.395184 
L 240.069884 168.92996 
L 240.460933 165.669179 
L 241.243031 167.71779 
L 241.63408 164.579489 
L 242.02513 164.781487 
L 242.807228 160.335153 
L 243.198277 159.591047 
L 243.589326 160.118557 
L 243.980375 160.249082 
L 244.371424 158.207146 
L 245.153523 157.245479 
L 245.544572 158.118821 
L 245.935621 158.622229 
L 246.717719 161.095507 
L 247.108768 158.585127 
L 247.499818 159.822644 
L 247.890867 163.004881 
L 248.281916 162.686004 
L 249.064014 166.159912 
L 249.455063 163.154591 
L 249.846112 165.285058 
L 250.237162 168.497577 
L 250.628211 169.421239 
L 251.01926 171.696304 
L 251.410309 171.709002 
L 251.801358 173.519123 
L 252.583456 174.25474 
L 252.974506 175.676507 
L 253.365555 175.524403 
L 254.147653 169.897951 
L 254.538702 169.29877 
L 254.929751 167.513336 
L 255.3208 169.651237 
L 255.71185 165.987388 
L 256.102899 168.052786 
L 256.493948 168.556508 
L 257.276046 165.366183 
L 257.667095 166.470101 
L 258.058144 166.055296 
L 258.449194 164.803345 
L 258.840243 165.037987 
L 259.231292 165.6487 
L 259.622341 168.843297 
L 260.01339 166.755153 
L 260.404439 165.944354 
L 260.795488 169.988451 
L 261.186538 167.339472 
L 261.577587 166.360029 
L 261.968636 171.177252 
L 262.359685 167.850116 
L 262.750734 168.003176 
L 263.141783 170.321427 
L 263.532832 170.188443 
L 263.923882 170.30349 
L 264.314931 170.908191 
L 264.70598 172.721322 
L 265.097029 171.49486 
L 265.488078 169.730312 
L 265.879127 168.669449 
L 266.270176 170.006406 
L 266.661226 170.477189 
L 267.052275 166.072919 
L 267.443324 166.669763 
L 267.443324 166.669763 
" clip-path="url(#p459c041977)" style="fill: none; stroke: #808080; stroke-width: 0.75; stroke-linecap: square"/>
   </g>
   <g id="line2d_25">
    <path d="M 72.309801 165.163063 
L 72.70085 165.163825 
L 73.091899 161.677547 
L 73.482949 160.289231 
L 73.873998 160.014929 
L 74.265047 161.582146 
L 74.656096 160.810319 
L 75.047145 159.510688 
L 75.438194 161.031364 
L 75.829243 161.846963 
L 76.220293 162.028652 
L 76.611342 163.753064 
L 77.002391 160.769463 
L 77.39344 165.327342 
L 77.784489 166.782318 
L 78.175538 164.130891 
L 78.566587 159.783559 
L 78.957637 160.971063 
L 79.348686 157.954206 
L 79.739735 156.585969 
L 80.130784 158.838232 
L 80.521833 162.430487 
L 80.912882 164.614386 
L 81.303931 164.591513 
L 81.694981 161.401763 
L 82.08603 161.606416 
L 82.477079 161.413482 
L 82.868128 164.777613 
L 83.259177 166.684955 
L 84.041275 165.968911 
L 84.432325 168.342474 
L 84.823374 169.396338 
L 85.214423 168.462848 
L 85.996521 165.639067 
L 86.38757 165.786538 
L 86.778619 166.293152 
L 87.169669 167.21264 
L 87.560718 166.953984 
L 87.951767 167.259598 
L 88.342816 169.2868 
L 88.733865 169.524964 
L 89.124914 169.168582 
L 89.515963 170.409859 
L 89.907013 168.230616 
L 90.298062 167.766477 
L 90.689111 169.216548 
L 91.08016 169.546635 
L 91.471209 171.244518 
L 91.862258 170.492339 
L 92.253307 167.676275 
L 92.644357 167.675714 
L 93.035406 168.048341 
L 93.426455 167.152629 
L 94.208553 165.88515 
L 94.599602 160.672614 
L 94.990651 161.004951 
L 95.381701 160.544277 
L 95.77275 158.810909 
L 96.163799 160.61837 
L 96.554848 157.580292 
L 96.945897 157.48155 
L 97.336946 159.808351 
L 98.119045 160.063193 
L 98.510094 159.768103 
L 98.901143 161.732625 
L 99.292192 165.391515 
L 100.07429 165.720091 
L 100.465339 163.409146 
L 100.856389 165.038675 
L 101.247438 163.48341 
L 101.638487 160.629975 
L 102.029536 161.232373 
L 102.420585 156.963341 
L 102.811634 155.066534 
L 103.202683 158.529517 
L 103.593733 160.323241 
L 104.375831 165.454372 
L 104.76688 167.841612 
L 105.157929 168.200878 
L 105.548978 168.887185 
L 105.940027 170.105228 
L 106.331077 169.750398 
L 106.722126 169.661719 
L 107.113175 170.963501 
L 107.504224 172.742426 
L 107.895273 173.444619 
L 108.286322 174.844677 
L 108.677372 172.452063 
L 109.068421 172.290289 
L 109.45947 174.564667 
L 109.850519 174.592146 
L 110.241568 176.539049 
L 110.632617 175.059215 
L 111.414716 173.370474 
L 111.805765 171.94221 
L 112.196814 169.543431 
L 112.587863 170.150013 
L 112.978912 168.354676 
L 113.369961 168.362697 
L 113.76101 167.545624 
L 114.15206 168.124072 
L 114.543109 169.283906 
L 114.934158 171.447061 
L 115.325207 171.703251 
L 116.107305 175.334393 
L 116.498354 171.877845 
L 117.280453 177.578504 
L 117.671502 177.848613 
L 118.062551 179.640804 
L 118.4536 178.123732 
L 119.235698 178.654415 
L 119.626748 181.210143 
L 120.017797 181.577552 
L 120.408846 183.223004 
L 120.799895 184.205513 
L 121.190944 182.970219 
L 121.581993 182.615678 
L 121.973042 185.513456 
L 122.364092 186.989673 
L 122.755141 186.206031 
L 123.14619 188.287013 
L 123.537239 189.219904 
L 123.928288 191.798734 
L 124.319337 190.866075 
L 124.710386 190.434784 
L 125.101436 191.027538 
L 125.492485 196.243457 
L 125.883534 195.908244 
L 126.274583 195.170113 
L 127.056681 194.272748 
L 127.44773 195.336586 
L 127.83878 195.978804 
L 128.229829 194.343631 
L 128.620878 195.361009 
L 129.011927 194.602647 
L 129.402976 192.89632 
L 129.794025 193.008183 
L 130.185074 191.726476 
L 130.576124 189.667993 
L 130.967173 190.004066 
L 131.358222 186.323151 
L 131.749271 189.103364 
L 132.14032 188.103854 
L 132.531369 188.611827 
L 132.922418 192.301978 
L 133.313468 190.368879 
L 133.704517 187.37179 
L 134.095566 187.211977 
L 134.486615 189.712178 
L 134.877664 190.180327 
L 135.268713 191.059396 
L 135.659762 192.934368 
L 136.050812 193.919711 
L 136.83291 189.885478 
L 137.223959 190.458014 
L 137.615008 194.005697 
L 138.006057 194.475016 
L 138.397106 196.7712 
L 138.788156 197.30232 
L 139.179205 196.600319 
L 139.570254 197.921749 
L 139.961303 198.098902 
L 140.352352 197.282432 
L 140.743401 197.187865 
L 141.13445 195.444661 
L 141.5255 192.280733 
L 141.916549 192.774085 
L 142.307598 190.648442 
L 142.698647 190.414568 
L 143.089696 190.702714 
L 143.480745 189.967808 
L 143.871794 191.757258 
L 144.262844 192.218605 
L 144.653893 192.97595 
L 145.044942 191.37933 
L 145.435991 188.758051 
L 145.82704 187.897187 
L 146.218089 187.758735 
L 146.609138 189.04596 
L 147.000188 188.157392 
L 147.391237 187.897202 
L 147.782286 188.03853 
L 148.173335 187.32554 
L 148.564384 191.249258 
L 148.955433 190.863351 
L 149.346482 188.365845 
L 149.737532 187.191111 
L 150.128581 184.813371 
L 150.51963 185.308921 
L 150.910679 186.025944 
L 151.301728 184.936513 
L 152.083826 181.896962 
L 152.474876 183.391916 
L 153.256974 184.774874 
L 153.648023 186.185034 
L 154.039072 186.347442 
L 154.82117 190.043138 
L 155.21222 187.425254 
L 155.603269 190.208992 
L 155.994318 190.974979 
L 156.385367 192.736397 
L 157.167465 189.65999 
L 157.558514 190.146643 
L 157.949564 191.890399 
L 158.340613 192.543661 
L 158.731662 194.18967 
L 159.122711 192.103142 
L 159.51376 190.935893 
L 159.904809 187.408162 
L 160.295858 190.557936 
L 160.686908 190.509281 
L 161.469006 186.948075 
L 161.860055 187.722381 
L 162.251104 189.118009 
L 163.033202 189.785713 
L 163.424252 192.418528 
L 163.815301 191.41093 
L 164.20635 191.277538 
L 164.597399 188.659998 
L 164.988448 190.357771 
L 165.379497 190.028193 
L 165.770546 190.728278 
L 166.161596 188.513931 
L 166.552645 184.980942 
L 166.943694 186.556335 
L 167.334743 188.841068 
L 167.725792 191.924408 
L 168.116841 193.642135 
L 168.50789 193.439799 
L 169.289989 197.983248 
L 169.681038 197.632398 
L 170.463136 193.619063 
L 170.854185 195.995302 
L 171.636284 198.261835 
L 172.027333 196.970959 
L 172.418382 196.076086 
L 172.809431 196.21798 
L 173.20048 195.97734 
L 173.591529 198.03591 
L 173.982579 197.934798 
L 174.373628 200.203984 
L 174.764677 203.724072 
L 175.155726 202.780477 
L 175.546775 202.260789 
L 175.937824 205.921168 
L 176.328873 203.184954 
L 176.719923 203.309252 
L 177.110972 203.039034 
L 177.502021 203.029734 
L 177.89307 206.62683 
L 178.284119 208.157489 
L 178.675168 206.972033 
L 179.066217 207.565691 
L 179.457267 205.723705 
L 179.848316 207.438125 
L 180.630414 205.674716 
L 181.021463 205.904192 
L 181.412512 205.582817 
L 181.803561 203.072824 
L 182.194611 206.480419 
L 182.976709 206.352824 
L 183.367758 205.370355 
L 183.758807 203.07997 
L 184.149856 204.776203 
L 184.540905 204.672046 
L 184.931955 206.165963 
L 185.323004 206.659308 
L 185.714053 208.469111 
L 186.105102 207.409179 
L 186.496151 209.154698 
L 187.278249 210.564171 
L 187.669299 210.051357 
L 188.060348 214.502514 
L 188.451397 211.691069 
L 188.842446 210.685049 
L 189.233495 210.304109 
L 189.624544 211.750729 
L 190.797692 202.092429 
L 191.188741 203.202357 
L 191.970839 203.452054 
L 192.361888 200.275136 
L 192.752937 200.406279 
L 193.535036 194.865739 
L 194.317134 191.144701 
L 194.708183 191.064071 
L 195.490281 192.569329 
L 195.881331 194.003744 
L 196.27238 196.155723 
L 196.663429 197.642386 
L 197.054478 198.228539 
L 197.445527 195.749649 
L 197.836576 197.736706 
L 198.227625 198.446053 
L 198.618675 199.566358 
L 199.009724 199.446544 
L 199.400773 197.710882 
L 199.791822 201.660333 
L 200.182871 204.018383 
L 200.57392 204.257245 
L 200.964969 206.201155 
L 201.356019 203.791918 
L 201.747068 207.163934 
L 202.138117 208.777103 
L 202.529166 204.309068 
L 202.920215 204.629663 
L 203.311264 205.167712 
L 204.093363 203.848148 
L 204.484412 201.761609 
L 204.875461 200.718432 
L 205.26651 198.963704 
L 205.657559 200.208416 
L 206.048608 204.063765 
L 206.439657 203.520764 
L 206.830707 205.322177 
L 207.221756 207.846845 
L 207.612805 206.423743 
L 208.003854 206.03148 
L 208.394903 207.554056 
L 208.785952 207.63447 
L 209.177001 208.016822 
L 209.568051 207.469284 
L 209.9591 210.959405 
L 210.350149 207.991637 
L 211.132247 212.917811 
L 211.523296 212.015079 
L 211.914345 207.866504 
L 212.305395 210.858563 
L 212.696444 211.92873 
L 213.087493 212.156226 
L 213.478542 211.410504 
L 214.26064 216.774399 
L 214.651689 216.52059 
L 215.042739 217.406637 
L 215.433788 217.520711 
L 215.824837 218.84112 
L 216.215886 215.705482 
L 216.606935 214.311027 
L 217.389033 215.559911 
L 217.780083 213.273744 
L 218.171132 213.824925 
L 218.562181 216.402199 
L 218.95323 217.343135 
L 219.344279 218.823283 
L 219.735328 217.260987 
L 220.126377 219.191198 
L 220.517427 219.195709 
L 221.299525 217.390669 
L 221.690574 218.161225 
L 222.081623 217.65957 
L 222.472672 219.477207 
L 222.863721 219.355547 
L 223.254771 223.873547 
L 223.64582 222.512481 
L 224.427918 228.1576 
L 224.818967 226.341329 
L 225.210016 227.660433 
L 225.601065 227.654443 
L 225.992115 225.989123 
L 226.383164 225.952493 
L 226.774213 223.01137 
L 227.165262 223.436729 
L 227.556311 222.299682 
L 227.94736 224.174994 
L 228.338409 221.580992 
L 228.729459 221.688494 
L 229.120508 215.648531 
L 229.511557 212.384264 
L 229.902606 213.975094 
L 230.293655 211.658916 
L 231.075753 211.876757 
L 231.466803 210.335566 
L 231.857852 214.188223 
L 232.248901 210.356047 
L 233.030999 214.646396 
L 234.204147 221.868701 
L 234.986245 219.052049 
L 235.377294 219.853401 
L 235.768343 221.364495 
L 236.159392 221.543507 
L 236.550442 223.347973 
L 236.941491 223.960588 
L 237.33254 225.682934 
L 237.723589 224.506165 
L 238.114638 222.280516 
L 238.505687 224.00737 
L 238.896736 224.324539 
L 239.287786 226.090404 
L 239.678835 223.75683 
L 240.069884 223.43077 
L 240.460933 220.295056 
L 241.243031 222.408592 
L 241.63408 219.373145 
L 242.02513 219.468635 
L 242.807228 214.7493 
L 243.198277 213.600816 
L 243.589326 213.58448 
L 243.980375 213.223492 
L 244.371424 210.693837 
L 245.153523 208.215539 
L 245.544572 208.246972 
L 245.935621 207.996923 
L 246.717719 209.185578 
L 247.108768 206.243638 
L 247.499818 206.827254 
L 247.890867 209.444868 
L 248.281916 208.877847 
L 249.064014 211.95558 
L 249.455063 209.040222 
L 249.846112 210.946568 
L 250.237162 214.132645 
L 250.628211 215.418609 
L 251.01926 218.228933 
L 251.410309 218.913332 
L 251.801358 221.357836 
L 252.583456 223.560753 
L 252.974506 225.627157 
L 253.365555 226.055174 
L 254.147653 221.42057 
L 254.538702 221.210984 
L 254.929751 219.761256 
L 255.3208 222.07032 
L 255.71185 218.732058 
L 256.102899 220.870544 
L 256.493948 221.58918 
L 256.884997 220.362838 
L 257.276046 218.76804 
L 257.667095 219.880787 
L 258.058144 219.530768 
L 258.449194 218.311946 
L 258.840243 218.525433 
L 259.231292 219.12662 
L 259.622341 222.336368 
L 260.01339 220.470187 
L 260.404439 219.746321 
L 260.795488 223.805029 
L 261.186538 221.349735 
L 261.577587 220.506442 
L 261.968636 225.370699 
L 262.359685 222.199471 
L 262.750734 222.487229 
L 263.141783 224.929607 
L 263.532832 224.911129 
L 263.923882 225.129233 
L 264.314931 225.826659 
L 264.70598 227.723075 
L 265.097029 226.571216 
L 265.488078 224.873995 
L 265.879127 223.874092 
L 266.270176 225.265946 
L 266.661226 225.786051 
L 267.052275 221.426037 
L 267.443324 222.029771 
L 267.443324 222.029771 
" clip-path="url(#p459c041977)" style="fill: none; stroke: #ff7f0e; stroke-width: 1.5; stroke-linecap: square"/>
   </g>
   <g id="line2d_26">
    <path d="M 62.553125 165.163063 
L 277.2 165.163063 
" clip-path="url(#p459c041977)" style="fill: none; stroke-dasharray: 2.775,1.2; stroke-dashoffset: 0; stroke: #808080; stroke-width: 0.75"/>
   </g>
   <g id="patch_8">
    <path d="M 62.553125 242.9725 
L 62.553125 149.4 
" style="fill: none; stroke: #000000; stroke-width: 0.8; stroke-linejoin: miter; stroke-linecap: square"/>
   </g>
   <g id="patch_9">
    <path d="M 277.2 242.9725 
L 277.2 149.4 
" style="fill: none; stroke: #000000; stroke-width: 0.8; stroke-linejoin: miter; stroke-linecap: square"/>
   </g>
   <g id="patch_10">
    <path d="M 62.553125 242.9725 
L 277.2 242.9725 
" style="fill: none; stroke: #000000; stroke-width: 0.8; stroke-linejoin: miter; stroke-linecap: square"/>
   </g>
   <g id="patch_11">
    <path d="M 62.553125 149.4 
L 277.2 149.4 
" style="fill: none; stroke: #000000; stroke-width: 0.8; stroke-linejoin: miter; stroke-linecap: square"/>
   </g>
  </g>
 </g>
 <defs>
  <clipPath id="p3d8560d66c">
   <rect x="62.553125" y="10.8" width="214.646875" height="93.5725"/>
  </clipPath>
  <clipPath id="p459c041977">
   <rect x="62.553125" y="149.4" width="214.646875" height="93.5725"/>
  </clipPath>
 </defs>
</svg>
