<?xml version="1.0" encoding="utf-8" standalone="no"?>
<!DOCTYPE svg PUBLIC "-//W3C//DTD SVG 1.1//EN"
  "http://www.w3.org/Graphics/SVG/1.1/DTD/svg11.dtd">
<!-- Created with matplotlib (https://matplotlib.org/) -->
<svg height="288pt" version="1.1" viewBox="0 0 288 288" width="288pt" xmlns="http://www.w3.org/2000/svg" xmlns:xlink="http://www.w3.org/1999/xlink">
 <metadata>
  <rdf:RDF xmlns:cc="http://creativecommons.org/ns#" xmlns:dc="http://purl.org/dc/elements/1.1/" xmlns:rdf="http://www.w3.org/1999/02/22-rdf-syntax-ns#">
   <cc:Work>
    <dc:type rdf:resource="http://purl.org/dc/dcmitype/StillImage"/>
    <dc:date>2025-11-04T17:30:41.690652</dc:date>
    <dc:format>image/svg+xml</dc:format>
    <dc:creator>
     <cc:Agent>
      <dc:title>Matplotlib v3.3.4, https://matplotlib.org/</dc:title>
     </cc:Agent>
    </dc:creator>
   </cc:Work>
  </rdf:RDF>
 </metadata>
 <defs>
  <style type="text/css">*{stroke-linecap:butt;stroke-linejoin:round;}</style>
 </defs>
 <g id="figure_1">
  <g id="patch_1">
   <path d="M 0 288 
L 288 288 
L 288 0 
L 0 0 
z
" style="fill:none;"/>
  </g>
  <g id="axes_1">
   <g id="patch_2">
    <path d="M 41.04875 104.3725 
L 277.2 104.3725 
L 277.2 10.8 
L 41.04875 10.8 
z
" style="fill:#ffffff;"/>
   </g>
   <g id="line2d_1">
    <path clip-path="url(#p3f985d95ad)" d="M 51.782898 80.727039 
L 52.64335 83.104432 
L 53.073577 85.342176 
L 53.503803 83.537314 
L 53.93403 88.337319 
L 54.364256 84.698403 
L 54.794482 86.285948 
L 55.224709 85.620572 
L 55.654935 86.14065 
L 56.085161 83.091331 
L 56.515388 87.387885 
L 57.37584 88.861277 
L 57.806067 86.496728 
L 58.236293 88.790622 
L 58.66652 89.150232 
L 59.096746 90.981061 
L 59.526972 90.893022 
L 59.957199 89.677524 
L 60.387425 91.972935 
L 61.247878 87.705216 
L 61.678104 86.657232 
L 62.10833 84.77844 
L 62.538557 86.204398 
L 62.968783 86.460693 
L 63.399009 88.4123 
L 63.829236 88.970997 
L 64.259462 87.864907 
L 64.689689 89.30741 
L 65.119915 90.134864 
L 66.410594 94.730663 
L 66.84082 94.757076 
L 67.271047 97.087298 
L 67.701273 96.598409 
L 68.131499 93.136786 
L 68.561726 91.589206 
L 68.991952 91.989291 
L 69.852405 95.398744 
L 70.282631 91.869022 
L 70.712858 91.763059 
L 71.143084 93.091554 
L 71.57331 92.693388 
L 72.003537 88.313172 
L 72.433763 88.062573 
L 72.863989 86.775357 
L 73.294216 86.149333 
L 73.724442 86.883972 
L 74.154669 89.266766 
L 74.584895 89.995343 
L 75.015121 90.431005 
L 75.445348 89.207565 
L 76.3058 85.515939 
L 76.736027 84.920329 
L 77.166253 83.07431 
L 77.596479 84.647655 
L 78.026706 82.034719 
L 78.456932 80.964971 
L 78.887159 81.586663 
L 79.317385 80.567827 
L 79.747611 80.725437 
L 80.177838 78.365352 
L 80.608064 75.195677 
L 81.03829 70.63752 
L 81.898743 76.561794 
L 82.328969 77.613889 
L 82.759196 77.280122 
L 83.189422 75.452816 
L 83.619649 74.794539 
L 84.049875 79.011968 
L 84.480101 79.650576 
L 84.910328 77.923782 
L 85.340554 77.443905 
L 85.77078 75.854682 
L 86.631233 76.737056 
L 87.061459 76.34797 
L 87.491686 75.492781 
L 87.921912 75.079215 
L 88.352138 74.831014 
L 88.782365 76.229723 
L 89.212591 75.44229 
L 89.642818 75.188224 
L 90.50327 70.332194 
L 90.933497 69.946038 
L 91.363723 70.728719 
L 91.793949 72.060832 
L 92.224176 71.177608 
L 92.654402 71.01631 
L 93.084628 71.733439 
L 93.514855 71.642515 
L 93.945081 72.935566 
L 94.375308 71.479776 
L 94.805534 72.412291 
L 95.23576 69.858502 
L 95.665987 69.016994 
L 96.096213 67.779049 
L 96.526439 70.062557 
L 96.956666 69.709299 
L 97.386892 68.164822 
L 97.817118 70.153825 
L 98.247345 70.70904 
L 98.677571 70.641021 
L 99.107798 73.504744 
L 99.538024 72.847459 
L 99.96825 71.082737 
L 100.398477 72.875313 
L 100.828703 72.144227 
L 101.258929 74.881077 
L 101.689156 74.961779 
L 102.119382 78.331575 
L 102.549608 75.992787 
L 102.979835 75.139999 
L 103.410061 75.191339 
L 103.840288 76.807988 
L 104.270514 74.151489 
L 104.70074 70.048973 
L 105.130967 73.923913 
L 105.561193 71.345814 
L 105.991419 67.951245 
L 106.421646 67.2463 
L 106.851872 69.74745 
L 107.282098 67.946888 
L 107.712325 68.324209 
L 108.142551 69.583724 
L 108.572777 72.149088 
L 109.003004 71.000907 
L 109.43323 69.347458 
L 109.863457 70.647871 
L 110.293683 69.562176 
L 110.723909 71.948773 
L 111.154136 70.276441 
L 111.584362 70.179322 
L 112.014588 70.568425 
L 112.444815 70.780622 
L 113.305267 67.403474 
L 113.735494 66.29924 
L 114.595947 65.849755 
L 115.026173 64.560083 
L 115.456399 64.075201 
L 115.886626 62.651697 
L 116.316852 63.298465 
L 116.747078 68.376474 
L 117.177305 66.209939 
L 117.607531 61.648854 
L 118.037757 60.72836 
L 119.328437 61.4701 
L 119.758663 61.433791 
L 120.188889 63.773833 
L 120.619116 64.852266 
L 121.049342 66.931629 
L 121.479568 66.412742 
L 121.909795 67.031406 
L 122.340021 65.998612 
L 122.770247 66.362966 
L 123.200474 64.305902 
L 123.6307 63.860563 
L 124.060927 59.291719 
L 124.491153 63.246701 
L 124.921379 64.595887 
L 125.351606 62.715778 
L 125.781832 57.442794 
L 126.212058 57.961338 
L 126.642285 57.870263 
L 127.072511 58.342256 
L 127.502737 55.565418 
L 127.932964 56.164616 
L 128.36319 54.746288 
L 128.793416 55.413254 
L 129.223643 58.067256 
L 129.653869 57.413333 
L 130.084096 56.363909 
L 130.514322 53.666804 
L 130.944548 53.897148 
L 131.374775 55.184696 
L 131.805001 54.011022 
L 132.665454 52.923605 
L 133.09568 53.076086 
L 133.525906 50.656126 
L 133.956133 49.885525 
L 134.386359 45.913238 
L 134.816586 43.596059 
L 135.246812 42.221569 
L 135.677038 45.615695 
L 136.107265 44.35952 
L 136.537491 43.482994 
L 136.967717 41.791703 
L 137.397944 39.613453 
L 137.82817 40.44951 
L 138.258396 38.730993 
L 138.688623 39.903717 
L 139.118849 35.826695 
L 139.549076 38.604565 
L 140.409528 45.719277 
L 141.269981 49.910573 
L 141.700207 45.831046 
L 142.130434 46.511982 
L 142.56066 49.312218 
L 142.990886 46.988101 
L 143.421113 48.211334 
L 143.851339 50.790871 
L 144.281566 48.964253 
L 144.711792 47.664191 
L 145.142018 48.571321 
L 145.572245 45.635807 
L 146.002471 45.366557 
L 146.432697 41.994306 
L 146.862924 40.945808 
L 147.29315 37.69482 
L 147.723376 37.466654 
L 148.153603 40.010508 
L 148.583829 34.902194 
L 149.014055 36.040441 
L 149.444282 36.45513 
L 149.874508 37.915855 
L 150.304735 38.340047 
L 151.165187 37.413015 
L 151.595414 36.034415 
L 152.02564 32.296755 
L 152.455866 32.547992 
L 153.316319 37.585543 
L 153.746545 38.974017 
L 154.176772 42.465659 
L 154.606998 40.745006 
L 155.037225 41.784062 
L 155.467451 42.432641 
L 155.897677 42.436586 
L 156.327904 45.349327 
L 156.75813 47.145657 
L 157.618583 44.448501 
L 158.048809 45.372764 
L 158.479035 41.596778 
L 158.909262 44.319955 
L 159.339488 45.039447 
L 159.769715 45.520878 
L 160.199941 51.346035 
L 160.630167 47.305195 
L 161.060394 46.541186 
L 161.49062 48.719744 
L 161.920846 44.441891 
L 162.781299 42.324652 
L 163.211525 43.590586 
L 163.641752 43.369051 
L 164.071978 46.550955 
L 164.502205 44.892877 
L 164.932431 45.673792 
L 165.362657 45.394226 
L 165.792884 42.887264 
L 167.083563 41.169355 
L 167.513789 42.698639 
L 167.944015 40.955098 
L 168.374242 37.736325 
L 169.234695 34.308253 
L 170.095147 37.947705 
L 170.525374 40.952744 
L 170.9556 38.382802 
L 171.385826 38.91291 
L 171.816053 35.993446 
L 172.246279 37.624173 
L 172.676505 38.536626 
L 173.106732 38.337611 
L 173.536958 36.415868 
L 173.967184 36.28917 
L 174.397411 35.848855 
L 174.827637 35.814386 
L 175.257864 35.44485 
L 175.68809 37.773319 
L 176.118316 37.604541 
L 176.548543 37.993663 
L 176.978769 38.112174 
L 177.408995 37.085375 
L 177.839222 38.504972 
L 178.269448 38.681219 
L 178.699674 39.301386 
L 179.129901 38.431076 
L 179.560127 36.794387 
L 179.990354 38.786987 
L 180.42058 37.565034 
L 180.850806 33.256711 
L 181.281033 36.324903 
L 182.141485 39.89278 
L 182.571712 40.474856 
L 183.001938 37.090301 
L 183.432164 37.062453 
L 183.862391 38.511281 
L 184.292617 37.21447 
L 184.722844 38.4654 
L 185.15307 36.122453 
L 185.583296 35.485799 
L 186.013523 32.589411 
L 186.443749 33.968687 
L 186.873975 27.647641 
L 187.734428 24.562749 
L 188.164654 24.669506 
L 189.025107 27.992572 
L 189.455334 28.276161 
L 189.88556 29.938918 
L 190.315786 29.34938 
L 190.746013 31.072258 
L 191.176239 29.776951 
L 191.606465 27.782898 
L 192.036692 29.254974 
L 192.466918 26.767551 
L 192.897144 27.263794 
L 193.327371 24.854368 
L 193.757597 23.940544 
L 194.187823 21.599857 
L 194.61805 23.679205 
L 195.048276 23.90193 
L 195.478503 20.874882 
L 195.908729 22.163838 
L 197.629634 40.100509 
L 198.059861 40.959008 
L 198.490087 38.292557 
L 198.920313 39.214854 
L 199.35054 38.540117 
L 199.780766 38.769511 
L 200.210993 38.751682 
L 201.071445 39.465735 
L 201.501672 38.503948 
L 201.931898 40.956535 
L 202.792351 36.931095 
L 203.222577 37.337899 
L 203.652803 35.6582 
L 204.513256 38.241311 
L 204.943483 37.915413 
L 205.373709 38.312131 
L 205.803935 39.248003 
L 206.664388 41.813126 
L 207.094614 39.85443 
L 207.524841 43.907355 
L 207.955067 43.172205 
L 208.385293 43.66531 
L 208.81552 42.147408 
L 209.245746 41.07319 
L 209.675973 46.876342 
L 210.106199 45.657025 
L 210.536425 44.98073 
L 210.966652 44.935134 
L 211.396878 45.912583 
L 211.827104 44.13301 
L 212.257331 44.994409 
L 212.687557 41.167989 
L 213.117783 39.990933 
L 213.54801 35.532356 
L 213.978236 37.170637 
L 214.408462 40.832732 
L 215.268915 37.563624 
L 215.699142 37.489879 
L 216.129368 40.69913 
L 216.559594 41.633244 
L 216.989821 40.344396 
L 217.850273 40.970401 
L 218.2805 41.336332 
L 218.710726 43.284071 
L 219.140952 44.395719 
L 219.571179 47.370891 
L 220.001405 43.683698 
L 220.431632 44.675118 
L 220.861858 43.679032 
L 221.292084 45.81024 
L 221.722311 44.153201 
L 222.152537 48.059797 
L 222.582763 46.139796 
L 223.01299 46.213558 
L 223.443216 41.811756 
L 223.873442 44.536616 
L 224.303669 44.37732 
L 224.733895 43.611435 
L 225.164122 41.040145 
L 225.594348 41.92204 
L 226.024574 41.741713 
L 226.454801 46.209964 
L 226.885027 47.941334 
L 227.315253 46.99946 
L 227.74548 44.696634 
L 228.175706 45.284213 
L 229.036159 37.324441 
L 229.466385 37.450936 
L 229.896612 42.48445 
L 230.326838 46.191678 
L 230.757064 47.813952 
L 231.187291 45.486794 
L 231.617517 44.839701 
L 232.047743 49.207388 
L 232.47797 49.684494 
L 232.908196 46.319726 
L 233.338422 47.101405 
L 233.768649 48.665515 
L 234.198875 44.380465 
L 234.629101 44.269076 
L 235.059328 45.268389 
L 235.489554 44.538093 
L 235.919781 44.502295 
L 236.350007 45.397299 
L 237.21046 40.550119 
L 237.640686 38.796449 
L 238.070912 39.011026 
L 238.501139 36.619093 
L 238.931365 36.722751 
L 239.361591 35.749536 
L 240.222044 31.90682 
L 240.652271 28.174173 
L 241.082497 27.232992 
L 241.512723 30.745206 
L 241.94295 33.164814 
L 242.373176 30.349081 
L 242.803402 31.039993 
L 243.233629 30.233841 
L 243.663855 32.009606 
L 244.094081 29.922204 
L 244.524308 30.724796 
L 244.954534 27.683819 
L 245.384761 28.793826 
L 245.814987 26.461888 
L 246.245213 25.055392 
L 246.67544 26.561986 
L 247.105666 24.26996 
L 247.966119 27.865683 
L 248.396345 26.360509 
L 249.256798 28.903197 
L 249.687024 29.620423 
L 250.117251 31.70634 
L 250.547477 29.526938 
L 250.977703 28.257841 
L 251.838156 28.628489 
L 252.268382 27.689661 
L 252.698609 24.007943 
L 253.128835 22.19148 
L 253.559061 23.2519 
L 253.989288 21.630542 
L 254.419514 21.878247 
L 254.849741 22.293271 
L 255.279967 18.400626 
L 256.14042 20.273718 
L 256.570646 24.344958 
L 257.000872 27.269604 
L 257.431099 26.328759 
L 257.861325 27.778061 
L 258.291551 26.703132 
L 258.721778 29.028267 
L 259.152004 30.62854 
L 259.58223 29.22168 
L 260.012457 26.174896 
L 260.442683 24.939256 
L 260.87291 22.441104 
L 261.303136 18.886064 
L 261.733362 16.716892 
L 262.163589 18.632357 
L 262.593815 18.852061 
L 263.024041 17.537747 
L 263.454268 18.402937 
L 263.884494 17.460375 
L 264.31472 20.753806 
L 264.744947 22.481962 
L 265.175173 21.37895 
L 265.6054 26.044536 
L 266.035626 28.354741 
L 266.465852 28.391694 
L 266.465852 28.391694 
" style="fill:none;stroke:#00bfbf;stroke-linecap:square;stroke-width:1.5;"/>
   </g>
   <g id="matplotlib.axis_1">
    <g id="xtick_1">
     <g id="line2d_2">
      <defs>
       <path d="M 0 0 
L 0 3.5 
" id="m26310e8bac" style="stroke:#000000;stroke-width:0.8;"/>
      </defs>
      <g>
       <use style="stroke:#000000;stroke-width:0.8;" x="51.782898" xlink:href="#m26310e8bac" y="104.3725"/>
      </g>
     </g>
     <g id="text_1">
      <!-- 0.0 -->
      <g transform="translate(42.241023 120.490625)scale(0.12 -0.12)">
       <defs>
        <path d="M 31.78125 66.40625 
Q 24.171875 66.40625 20.328125 58.90625 
Q 16.5 51.421875 16.5 36.375 
Q 16.5 21.390625 20.328125 13.890625 
Q 24.171875 6.390625 31.78125 6.390625 
Q 39.453125 6.390625 43.28125 13.890625 
Q 47.125 21.390625 47.125 36.375 
Q 47.125 51.421875 43.28125 58.90625 
Q 39.453125 66.40625 31.78125 66.40625 
z
M 31.78125 74.21875 
Q 44.046875 74.21875 50.515625 64.515625 
Q 56.984375 54.828125 56.984375 36.375 
Q 56.984375 17.96875 50.515625 8.265625 
Q 44.046875 -1.421875 31.78125 -1.421875 
Q 19.53125 -1.421875 13.0625 8.265625 
Q 6.59375 17.96875 6.59375 36.375 
Q 6.59375 54.828125 13.0625 64.515625 
Q 19.53125 74.21875 31.78125 74.21875 
z
" id="DejaVuSans-48"/>
        <path d="M 10.6875 12.40625 
L 21 12.40625 
L 21 0 
L 10.6875 0 
z
" id="DejaVuSans-46"/>
       </defs>
       <use xlink:href="#DejaVuSans-48"/>
       <use x="63.623047" xlink:href="#DejaVuSans-46"/>
       <use x="95.410156" xlink:href="#DejaVuSans-48"/>
      </g>
     </g>
    </g>
    <g id="xtick_2">
     <g id="line2d_3">
      <g>
       <use style="stroke:#000000;stroke-width:0.8;" x="94.805534" xlink:href="#m26310e8bac" y="104.3725"/>
      </g>
     </g>
     <g id="text_2">
      <!-- 0.1 -->
      <g transform="translate(85.263659 120.490625)scale(0.12 -0.12)">
       <defs>
        <path d="M 12.40625 8.296875 
L 28.515625 8.296875 
L 28.515625 63.921875 
L 10.984375 60.40625 
L 10.984375 69.390625 
L 28.421875 72.90625 
L 38.28125 72.90625 
L 38.28125 8.296875 
L 54.390625 8.296875 
L 54.390625 0 
L 12.40625 0 
z
" id="DejaVuSans-49"/>
       </defs>
       <use xlink:href="#DejaVuSans-48"/>
       <use x="63.623047" xlink:href="#DejaVuSans-46"/>
       <use x="95.410156" xlink:href="#DejaVuSans-49"/>
      </g>
     </g>
    </g>
    <g id="xtick_3">
     <g id="line2d_4">
      <g>
       <use style="stroke:#000000;stroke-width:0.8;" x="137.82817" xlink:href="#m26310e8bac" y="104.3725"/>
      </g>
     </g>
     <g id="text_3">
      <!-- 0.2 -->
      <g transform="translate(128.286295 120.490625)scale(0.12 -0.12)">
       <defs>
        <path d="M 19.1875 8.296875 
L 53.609375 8.296875 
L 53.609375 0 
L 7.328125 0 
L 7.328125 8.296875 
Q 12.9375 14.109375 22.625 23.890625 
Q 32.328125 33.6875 34.8125 36.53125 
Q 39.546875 41.84375 41.421875 45.53125 
Q 43.3125 49.21875 43.3125 52.78125 
Q 43.3125 58.59375 39.234375 62.25 
Q 35.15625 65.921875 28.609375 65.921875 
Q 23.96875 65.921875 18.8125 64.3125 
Q 13.671875 62.703125 7.8125 59.421875 
L 7.8125 69.390625 
Q 13.765625 71.78125 18.9375 73 
Q 24.125 74.21875 28.421875 74.21875 
Q 39.75 74.21875 46.484375 68.546875 
Q 53.21875 62.890625 53.21875 53.421875 
Q 53.21875 48.921875 51.53125 44.890625 
Q 49.859375 40.875 45.40625 35.40625 
Q 44.1875 33.984375 37.640625 27.21875 
Q 31.109375 20.453125 19.1875 8.296875 
z
" id="DejaVuSans-50"/>
       </defs>
       <use xlink:href="#DejaVuSans-48"/>
       <use x="63.623047" xlink:href="#DejaVuSans-46"/>
       <use x="95.410156" xlink:href="#DejaVuSans-50"/>
      </g>
     </g>
    </g>
    <g id="xtick_4">
     <g id="line2d_5">
      <g>
       <use style="stroke:#000000;stroke-width:0.8;" x="180.850806" xlink:href="#m26310e8bac" y="104.3725"/>
      </g>
     </g>
     <g id="text_4">
      <!-- 0.3 -->
      <g transform="translate(171.308931 120.490625)scale(0.12 -0.12)">
       <defs>
        <path d="M 40.578125 39.3125 
Q 47.65625 37.796875 51.625 33 
Q 55.609375 28.21875 55.609375 21.1875 
Q 55.609375 10.40625 48.1875 4.484375 
Q 40.765625 -1.421875 27.09375 -1.421875 
Q 22.515625 -1.421875 17.65625 -0.515625 
Q 12.796875 0.390625 7.625 2.203125 
L 7.625 11.71875 
Q 11.71875 9.328125 16.59375 8.109375 
Q 21.484375 6.890625 26.8125 6.890625 
Q 36.078125 6.890625 40.9375 10.546875 
Q 45.796875 14.203125 45.796875 21.1875 
Q 45.796875 27.640625 41.28125 31.265625 
Q 36.765625 34.90625 28.71875 34.90625 
L 20.21875 34.90625 
L 20.21875 43.015625 
L 29.109375 43.015625 
Q 36.375 43.015625 40.234375 45.921875 
Q 44.09375 48.828125 44.09375 54.296875 
Q 44.09375 59.90625 40.109375 62.90625 
Q 36.140625 65.921875 28.71875 65.921875 
Q 24.65625 65.921875 20.015625 65.03125 
Q 15.375 64.15625 9.8125 62.3125 
L 9.8125 71.09375 
Q 15.4375 72.65625 20.34375 73.4375 
Q 25.25 74.21875 29.59375 74.21875 
Q 40.828125 74.21875 47.359375 69.109375 
Q 53.90625 64.015625 53.90625 55.328125 
Q 53.90625 49.265625 50.4375 45.09375 
Q 46.96875 40.921875 40.578125 39.3125 
z
" id="DejaVuSans-51"/>
       </defs>
       <use xlink:href="#DejaVuSans-48"/>
       <use x="63.623047" xlink:href="#DejaVuSans-46"/>
       <use x="95.410156" xlink:href="#DejaVuSans-51"/>
      </g>
     </g>
    </g>
    <g id="xtick_5">
     <g id="line2d_6">
      <g>
       <use style="stroke:#000000;stroke-width:0.8;" x="223.873442" xlink:href="#m26310e8bac" y="104.3725"/>
      </g>
     </g>
     <g id="text_5">
      <!-- 0.4 -->
      <g transform="translate(214.331567 120.490625)scale(0.12 -0.12)">
       <defs>
        <path d="M 37.796875 64.3125 
L 12.890625 25.390625 
L 37.796875 25.390625 
z
M 35.203125 72.90625 
L 47.609375 72.90625 
L 47.609375 25.390625 
L 58.015625 25.390625 
L 58.015625 17.1875 
L 47.609375 17.1875 
L 47.609375 0 
L 37.796875 0 
L 37.796875 17.1875 
L 4.890625 17.1875 
L 4.890625 26.703125 
z
" id="DejaVuSans-52"/>
       </defs>
       <use xlink:href="#DejaVuSans-48"/>
       <use x="63.623047" xlink:href="#DejaVuSans-46"/>
       <use x="95.410156" xlink:href="#DejaVuSans-52"/>
      </g>
     </g>
    </g>
    <g id="xtick_6">
     <g id="line2d_7">
      <g>
       <use style="stroke:#000000;stroke-width:0.8;" x="266.896079" xlink:href="#m26310e8bac" y="104.3725"/>
      </g>
     </g>
     <g id="text_6">
      <!-- 0.5 -->
      <g transform="translate(257.354204 120.490625)scale(0.12 -0.12)">
       <defs>
        <path d="M 10.796875 72.90625 
L 49.515625 72.90625 
L 49.515625 64.59375 
L 19.828125 64.59375 
L 19.828125 46.734375 
Q 21.96875 47.46875 24.109375 47.828125 
Q 26.265625 48.1875 28.421875 48.1875 
Q 40.625 48.1875 47.75 41.5 
Q 54.890625 34.8125 54.890625 23.390625 
Q 54.890625 11.625 47.5625 5.09375 
Q 40.234375 -1.421875 26.90625 -1.421875 
Q 22.3125 -1.421875 17.546875 -0.640625 
Q 12.796875 0.140625 7.71875 1.703125 
L 7.71875 11.625 
Q 12.109375 9.234375 16.796875 8.0625 
Q 21.484375 6.890625 26.703125 6.890625 
Q 35.15625 6.890625 40.078125 11.328125 
Q 45.015625 15.765625 45.015625 23.390625 
Q 45.015625 31 40.078125 35.4375 
Q 35.15625 39.890625 26.703125 39.890625 
Q 22.75 39.890625 18.8125 39.015625 
Q 14.890625 38.140625 10.796875 36.28125 
z
" id="DejaVuSans-53"/>
       </defs>
       <use xlink:href="#DejaVuSans-48"/>
       <use x="63.623047" xlink:href="#DejaVuSans-46"/>
       <use x="95.410156" xlink:href="#DejaVuSans-53"/>
      </g>
     </g>
    </g>
    <g id="text_7">
     <!-- Time (s) -->
     <g transform="translate(134.729687 136.104375)scale(0.12 -0.12)">
      <defs>
       <path d="M -0.296875 72.90625 
L 61.375 72.90625 
L 61.375 64.59375 
L 35.5 64.59375 
L 35.5 0 
L 25.59375 0 
L 25.59375 64.59375 
L -0.296875 64.59375 
z
" id="DejaVuSans-84"/>
       <path d="M 9.421875 54.6875 
L 18.40625 54.6875 
L 18.40625 0 
L 9.421875 0 
z
M 9.421875 75.984375 
L 18.40625 75.984375 
L 18.40625 64.59375 
L 9.421875 64.59375 
z
" id="DejaVuSans-105"/>
       <path d="M 52 44.1875 
Q 55.375 50.25 60.0625 53.125 
Q 64.75 56 71.09375 56 
Q 79.640625 56 84.28125 50.015625 
Q 88.921875 44.046875 88.921875 33.015625 
L 88.921875 0 
L 79.890625 0 
L 79.890625 32.71875 
Q 79.890625 40.578125 77.09375 44.375 
Q 74.3125 48.1875 68.609375 48.1875 
Q 61.625 48.1875 57.5625 43.546875 
Q 53.515625 38.921875 53.515625 30.90625 
L 53.515625 0 
L 44.484375 0 
L 44.484375 32.71875 
Q 44.484375 40.625 41.703125 44.40625 
Q 38.921875 48.1875 33.109375 48.1875 
Q 26.21875 48.1875 22.15625 43.53125 
Q 18.109375 38.875 18.109375 30.90625 
L 18.109375 0 
L 9.078125 0 
L 9.078125 54.6875 
L 18.109375 54.6875 
L 18.109375 46.1875 
Q 21.1875 51.21875 25.484375 53.609375 
Q 29.78125 56 35.6875 56 
Q 41.65625 56 45.828125 52.96875 
Q 50 49.953125 52 44.1875 
z
" id="DejaVuSans-109"/>
       <path d="M 56.203125 29.59375 
L 56.203125 25.203125 
L 14.890625 25.203125 
Q 15.484375 15.921875 20.484375 11.0625 
Q 25.484375 6.203125 34.421875 6.203125 
Q 39.59375 6.203125 44.453125 7.46875 
Q 49.3125 8.734375 54.109375 11.28125 
L 54.109375 2.78125 
Q 49.265625 0.734375 44.1875 -0.34375 
Q 39.109375 -1.421875 33.890625 -1.421875 
Q 20.796875 -1.421875 13.15625 6.1875 
Q 5.515625 13.8125 5.515625 26.8125 
Q 5.515625 40.234375 12.765625 48.109375 
Q 20.015625 56 32.328125 56 
Q 43.359375 56 49.78125 48.890625 
Q 56.203125 41.796875 56.203125 29.59375 
z
M 47.21875 32.234375 
Q 47.125 39.59375 43.09375 43.984375 
Q 39.0625 48.390625 32.421875 48.390625 
Q 24.90625 48.390625 20.390625 44.140625 
Q 15.875 39.890625 15.1875 32.171875 
z
" id="DejaVuSans-101"/>
       <path id="DejaVuSans-32"/>
       <path d="M 31 75.875 
Q 24.46875 64.65625 21.28125 53.65625 
Q 18.109375 42.671875 18.109375 31.390625 
Q 18.109375 20.125 21.3125 9.0625 
Q 24.515625 -2 31 -13.1875 
L 23.1875 -13.1875 
Q 15.875 -1.703125 12.234375 9.375 
Q 8.59375 20.453125 8.59375 31.390625 
Q 8.59375 42.28125 12.203125 53.3125 
Q 15.828125 64.359375 23.1875 75.875 
z
" id="DejaVuSans-40"/>
       <path d="M 44.28125 53.078125 
L 44.28125 44.578125 
Q 40.484375 46.53125 36.375 47.5 
Q 32.28125 48.484375 27.875 48.484375 
Q 21.1875 48.484375 17.84375 46.4375 
Q 14.5 44.390625 14.5 40.28125 
Q 14.5 37.15625 16.890625 35.375 
Q 19.28125 33.59375 26.515625 31.984375 
L 29.59375 31.296875 
Q 39.15625 29.25 43.1875 25.515625 
Q 47.21875 21.78125 47.21875 15.09375 
Q 47.21875 7.46875 41.1875 3.015625 
Q 35.15625 -1.421875 24.609375 -1.421875 
Q 20.21875 -1.421875 15.453125 -0.5625 
Q 10.6875 0.296875 5.421875 2 
L 5.421875 11.28125 
Q 10.40625 8.6875 15.234375 7.390625 
Q 20.0625 6.109375 24.8125 6.109375 
Q 31.15625 6.109375 34.5625 8.28125 
Q 37.984375 10.453125 37.984375 14.40625 
Q 37.984375 18.0625 35.515625 20.015625 
Q 33.0625 21.96875 24.703125 23.78125 
L 21.578125 24.515625 
Q 13.234375 26.265625 9.515625 29.90625 
Q 5.8125 33.546875 5.8125 39.890625 
Q 5.8125 47.609375 11.28125 51.796875 
Q 16.75 56 26.8125 56 
Q 31.78125 56 36.171875 55.265625 
Q 40.578125 54.546875 44.28125 53.078125 
z
" id="DejaVuSans-115"/>
       <path d="M 8.015625 75.875 
L 15.828125 75.875 
Q 23.140625 64.359375 26.78125 53.3125 
Q 30.421875 42.28125 30.421875 31.390625 
Q 30.421875 20.453125 26.78125 9.375 
Q 23.140625 -1.703125 15.828125 -13.1875 
L 8.015625 -13.1875 
Q 14.5 -2 17.703125 9.0625 
Q 20.90625 20.125 20.90625 31.390625 
Q 20.90625 42.671875 17.703125 53.65625 
Q 14.5 64.65625 8.015625 75.875 
z
" id="DejaVuSans-41"/>
      </defs>
      <use xlink:href="#DejaVuSans-84"/>
      <use x="57.958984" xlink:href="#DejaVuSans-105"/>
      <use x="85.742188" xlink:href="#DejaVuSans-109"/>
      <use x="183.154297" xlink:href="#DejaVuSans-101"/>
      <use x="244.677734" xlink:href="#DejaVuSans-32"/>
      <use x="276.464844" xlink:href="#DejaVuSans-40"/>
      <use x="315.478516" xlink:href="#DejaVuSans-115"/>
      <use x="367.578125" xlink:href="#DejaVuSans-41"/>
     </g>
    </g>
   </g>
   <g id="matplotlib.axis_2">
    <g id="ytick_1">
     <g id="line2d_8">
      <defs>
       <path d="M 0 0 
L -3.5 0 
" id="m5fde4c7c2b" style="stroke:#000000;stroke-width:0.8;"/>
      </defs>
      <g>
       <use style="stroke:#000000;stroke-width:0.8;" x="41.04875" xlink:href="#m5fde4c7c2b" y="84.114715"/>
      </g>
     </g>
     <g id="text_8">
      <!-- 0 -->
      <g transform="translate(26.41375 88.673777)scale(0.12 -0.12)">
       <use xlink:href="#DejaVuSans-48"/>
      </g>
     </g>
    </g>
    <g id="ytick_2">
     <g id="line2d_9">
      <g>
       <use style="stroke:#000000;stroke-width:0.8;" x="41.04875" xlink:href="#m5fde4c7c2b" y="42.403442"/>
      </g>
     </g>
     <g id="text_9">
      <!-- 1 -->
      <g transform="translate(26.41375 46.962505)scale(0.12 -0.12)">
       <use xlink:href="#DejaVuSans-49"/>
      </g>
     </g>
    </g>
    <g id="text_10">
     <!-- x -->
     <g transform="translate(19.918125 61.1375)rotate(-90)scale(0.12 -0.12)">
      <defs>
       <path d="M 54.890625 54.6875 
L 35.109375 28.078125 
L 55.90625 0 
L 45.3125 0 
L 29.390625 21.484375 
L 13.484375 0 
L 2.875 0 
L 24.125 28.609375 
L 4.6875 54.6875 
L 15.28125 54.6875 
L 29.78125 35.203125 
L 44.28125 54.6875 
z
" id="DejaVuSans-120"/>
      </defs>
      <use xlink:href="#DejaVuSans-120"/>
     </g>
    </g>
   </g>
   <g id="line2d_10">
    <path clip-path="url(#p3f985d95ad)" d="M 51.782898 84.114715 
L 52.64335 86.364522 
L 53.073577 88.377286 
L 53.503803 86.146166 
L 53.93403 90.743026 
L 54.364256 86.441279 
L 54.794482 87.796168 
L 55.224709 86.762646 
L 55.654935 87.017931 
L 56.085161 83.67829 
L 56.515388 88.018487 
L 57.37584 88.68292 
L 57.806067 85.861551 
L 58.236293 87.980761 
L 58.66652 87.953766 
L 59.096746 89.40069 
L 59.526972 88.784053 
L 59.957199 87.101621 
L 60.387425 89.098342 
L 60.817651 86.212585 
L 61.247878 84.122473 
L 61.678104 83.073714 
L 62.10833 81.299021 
L 62.538557 83.006549 
L 62.968783 83.373661 
L 63.399009 85.399373 
L 63.829236 85.829605 
L 64.259462 84.552026 
L 64.689689 85.950797 
L 65.119915 86.594643 
L 66.410594 90.069812 
L 66.84082 89.500715 
L 67.271047 91.292337 
L 67.701273 90.085686 
L 68.131499 86.026966 
L 68.561726 84.28816 
L 68.991952 84.670901 
L 69.852405 87.789558 
L 70.282631 83.892352 
L 70.712858 83.808625 
L 71.143084 85.167729 
L 71.57331 84.664261 
L 72.003537 80.229091 
L 72.433763 80.367054 
L 72.863989 79.454604 
L 73.294216 79.294591 
L 73.724442 80.511243 
L 74.154669 83.254384 
L 74.584895 84.068994 
L 75.015121 84.509228 
L 75.445348 83.246337 
L 76.3058 79.894678 
L 76.736027 79.721071 
L 77.166253 78.314417 
L 77.596479 80.467792 
L 78.026706 78.219548 
L 78.456932 77.739317 
L 78.887159 78.998548 
L 79.317385 78.491329 
L 79.747611 79.211277 
L 80.177838 77.341536 
L 80.608064 74.849179 
L 81.03829 71.217576 
L 81.898743 79.301058 
L 82.328969 80.834519 
L 82.759196 80.828771 
L 83.189422 79.330059 
L 83.619649 79.150248 
L 84.049875 83.864124 
L 84.480101 84.527791 
L 84.910328 82.75969 
L 85.340554 82.415315 
L 85.77078 80.996032 
L 86.631233 82.424587 
L 87.061459 82.204514 
L 87.491686 81.540346 
L 87.921912 81.384216 
L 88.352138 81.409066 
L 88.782365 83.078339 
L 89.212591 82.394544 
L 89.642818 82.312495 
L 90.50327 78.034448 
L 90.933497 78.256319 
L 91.363723 79.624839 
L 91.793949 81.40594 
L 92.224176 80.793593 
L 92.654402 80.964407 
L 93.084628 81.996567 
L 93.514855 82.117458 
L 93.945081 83.610234 
L 94.375308 82.204892 
L 94.805534 83.32839 
L 95.23576 80.853233 
L 95.665987 80.337874 
L 96.096213 79.477612 
L 96.526439 82.224831 
L 96.956666 82.060561 
L 97.386892 80.721499 
L 97.817118 83.049824 
L 98.247345 83.711529 
L 98.677571 83.683828 
L 99.107798 86.59064 
L 99.538024 85.685762 
L 99.96825 83.763936 
L 100.398477 85.591589 
L 100.828703 84.712816 
L 101.258929 87.389856 
L 101.689156 87.143044 
L 102.119382 90.210007 
L 102.549608 87.26169 
L 102.979835 86.094204 
L 103.410061 85.947596 
L 103.840288 87.380956 
L 104.270514 84.397833 
L 104.70074 80.267005 
L 105.130967 84.526716 
L 105.991419 78.733578 
L 106.421646 78.566746 
L 106.851872 81.622693 
L 107.282098 80.071334 
L 107.712325 80.852993 
L 108.142551 82.43868 
L 108.572777 85.171648 
L 109.003004 83.917773 
L 109.43323 82.284018 
L 109.863457 83.767501 
L 110.293683 82.716527 
L 110.723909 85.242943 
L 111.154136 83.457788 
L 111.584362 83.426362 
L 112.014588 83.8843 
L 112.444815 84.119539 
L 113.305267 80.922686 
L 113.735494 80.137655 
L 114.595947 80.472529 
L 115.026173 79.547076 
L 115.456399 79.518958 
L 115.886626 78.555029 
L 116.316852 79.757766 
L 116.747078 85.27147 
L 117.177305 82.98926 
L 117.607531 78.54072 
L 118.037757 78.177626 
L 119.328437 80.460173 
L 119.758663 80.789319 
L 120.188889 83.4619 
L 120.619116 84.605615 
L 121.049342 86.635887 
L 121.479568 85.864884 
L 121.909795 86.308531 
L 122.340021 85.056355 
L 122.770247 85.326545 
L 123.200474 83.148297 
L 123.6307 82.799601 
L 124.060927 78.362268 
L 124.491153 82.892494 
L 124.921379 84.363902 
L 125.351606 82.458875 
L 125.781832 77.351475 
L 126.212058 78.546343 
L 126.642285 79.012105 
L 127.072511 79.994359 
L 127.502737 77.629556 
L 127.932964 78.877271 
L 128.36319 77.982686 
L 128.793416 79.262856 
L 129.223643 82.402044 
L 129.653869 81.919387 
L 130.084096 81.089496 
L 130.514322 78.694913 
L 130.944548 79.467238 
L 131.374775 81.219533 
L 131.805001 80.335377 
L 132.665454 80.016241 
L 133.09568 80.57857 
L 133.525906 78.512224 
L 133.956133 78.301873 
L 134.386359 74.91087 
L 134.816586 73.514075 
L 135.246812 73.199649 
L 135.677038 77.685282 
L 136.107265 77.07205 
L 136.537491 76.899791 
L 136.967717 75.929992 
L 137.397944 74.570214 
L 137.82817 76.360721 
L 138.258396 75.417604 
L 138.688623 77.460039 
L 139.118849 74.048484 
L 140.409528 85.774017 
L 141.269981 89.464315 
L 141.700207 84.849828 
L 142.130434 85.457252 
L 142.56066 88.123234 
L 142.990886 85.398266 
L 143.421113 86.493144 
L 143.851339 88.834837 
L 144.281566 86.536207 
L 144.711792 84.993996 
L 145.142018 85.813198 
L 145.572245 82.707836 
L 146.002471 82.579274 
L 146.432697 79.360567 
L 146.862924 78.787483 
L 147.29315 76.069218 
L 147.723376 76.645602 
L 148.153603 79.936368 
L 148.583829 75.245888 
L 149.014055 77.271018 
L 149.444282 78.370076 
L 149.874508 80.405266 
L 150.304735 81.200403 
L 151.165187 80.8777 
L 151.595414 79.822802 
L 152.02564 76.514333 
L 152.455866 77.525608 
L 153.316319 83.557914 
L 153.746545 85.002068 
L 154.176772 88.404974 
L 154.606998 86.255296 
L 155.037225 87.080294 
L 155.467451 87.432315 
L 155.897677 87.1045 
L 156.327904 89.718262 
L 156.75813 90.954238 
L 157.618583 87.098287 
L 158.048809 87.724193 
L 158.479035 83.58726 
L 158.909262 86.363182 
L 159.339488 86.857828 
L 159.769715 87.064947 
L 160.199941 92.595081 
L 160.630167 87.706204 
L 161.060394 86.583047 
L 161.49062 88.514771 
L 161.920846 83.796913 
L 162.351073 82.607258 
L 162.781299 81.862199 
L 163.211525 83.353385 
L 163.641752 83.207983 
L 164.071978 86.48056 
L 164.502205 84.585898 
L 164.932431 85.319695 
L 165.362657 84.919631 
L 165.792884 82.332177 
L 166.653336 81.588992 
L 167.083563 81.264908 
L 167.513789 83.079173 
L 167.944015 81.439186 
L 168.374242 78.487965 
L 169.234695 76.28723 
L 170.525374 84.524358 
L 170.9556 81.913451 
L 171.385826 82.663686 
L 171.816053 79.889325 
L 172.246279 81.942591 
L 172.676505 83.072256 
L 173.106732 82.977487 
L 173.536958 81.169467 
L 173.967184 81.337293 
L 174.397411 81.174721 
L 174.827637 81.434251 
L 175.257864 81.332761 
L 175.68809 83.939426 
L 176.118316 83.788176 
L 176.548543 84.209953 
L 176.978769 84.31894 
L 177.408995 83.271718 
L 177.839222 84.775615 
L 178.269448 84.885772 
L 178.699674 85.428834 
L 179.129901 84.427112 
L 179.560127 82.759183 
L 179.990354 84.887336 
L 180.42058 83.588121 
L 180.850806 79.332458 
L 181.281033 82.878875 
L 182.141485 86.508424 
L 182.571712 86.851129 
L 183.001938 83.192932 
L 183.432164 83.257263 
L 183.862391 84.791836 
L 184.292617 83.427313 
L 184.722844 84.746984 
L 185.15307 82.340809 
L 185.583296 81.881546 
L 186.013523 79.208475 
L 186.443749 81.078374 
L 186.873975 75.060963 
L 187.304202 74.246615 
L 187.734428 73.868256 
L 188.164654 74.999659 
L 189.025107 79.903257 
L 189.455334 80.607992 
L 189.88556 82.621421 
L 190.315786 82.181213 
L 190.746013 84.097442 
L 191.176239 82.803861 
L 191.606465 80.940894 
L 192.036692 82.730352 
L 192.466918 80.381365 
L 192.897144 81.250943 
L 193.327371 79.127894 
L 193.757597 78.712752 
L 194.187823 76.912261 
L 194.61805 79.711855 
L 195.048276 80.374867 
L 195.478503 77.721803 
L 195.908729 79.65005 
L 197.199408 93.175027 
L 197.629634 96.678219 
L 198.059861 96.280368 
L 198.490087 92.397351 
L 198.920313 92.491385 
L 199.35054 90.978981 
L 199.780766 90.521949 
L 200.210993 89.863396 
L 201.071445 89.450121 
L 201.501672 87.954793 
L 201.931898 90.023372 
L 202.792351 85.085955 
L 203.222577 85.395636 
L 203.652803 83.587844 
L 204.08303 85.10323 
L 204.513256 86.124791 
L 204.943483 85.597885 
L 205.373709 85.846286 
L 205.803935 86.609001 
L 206.234162 87.762006 
L 206.664388 88.559967 
L 207.094614 86.156746 
L 207.524841 90.005467 
L 207.955067 88.681243 
L 208.385293 88.717694 
L 208.81552 86.739495 
L 209.245746 85.402798 
L 209.675973 91.077142 
L 210.106199 89.161582 
L 210.536425 87.980601 
L 210.966652 87.548416 
L 211.396878 88.182495 
L 211.827104 85.996144 
L 212.257331 86.6694 
L 212.687557 82.587512 
L 213.117783 81.563175 
L 213.54801 77.359753 
L 213.978236 79.67353 
L 214.408462 83.779743 
L 215.268915 80.723354 
L 215.699142 80.988744 
L 216.129368 84.510593 
L 216.559594 85.405119 
L 216.989821 83.98723 
L 217.420047 84.38409 
L 218.2805 84.916545 
L 218.710726 86.7841 
L 219.140952 87.628809 
L 219.571179 90.252572 
L 220.001405 85.951593 
L 220.431632 86.759326 
L 220.861858 85.498778 
L 221.292084 87.49158 
L 221.722311 85.496854 
L 222.152537 89.265237 
L 222.582763 86.830183 
L 223.01299 86.632399 
L 223.443216 81.978829 
L 223.873442 84.917278 
L 224.303669 84.677725 
L 224.733895 83.855539 
L 225.164122 81.310167 
L 225.594348 82.472516 
L 226.024574 82.456409 
L 226.454801 87.090491 
L 226.885027 88.524283 
L 227.315253 87.141452 
L 227.74548 84.535953 
L 228.175706 85.081408 
L 229.036159 77.36683 
L 229.466385 78.168113 
L 229.896612 83.796288 
L 230.326838 87.535358 
L 230.757064 88.815568 
L 231.187291 86.018325 
L 231.617517 85.180871 
L 232.047743 89.441943 
L 232.47797 89.386326 
L 232.908196 85.494397 
L 233.338422 86.138108 
L 233.768649 87.499878 
L 234.198875 82.876312 
L 234.629101 82.888763 
L 235.059328 84.010671 
L 235.489554 83.29078 
L 235.919781 83.337375 
L 236.350007 84.310113 
L 237.21046 79.677839 
L 237.640686 78.367856 
L 238.070912 79.15712 
L 238.501139 77.260945 
L 238.931365 78.04998 
L 239.361591 77.68324 
L 239.791818 76.170567 
L 240.222044 75.278086 
L 240.652271 72.429101 
L 241.082497 72.656481 
L 241.512723 77.314519 
L 241.94295 80.414147 
L 242.373176 77.96847 
L 242.803402 79.274007 
L 243.233629 78.951926 
L 243.663855 81.243969 
L 244.094081 79.443642 
L 244.524308 80.713341 
L 244.954534 78.012501 
L 245.384761 79.732731 
L 245.814987 77.838991 
L 246.245213 77.060067 
L 246.67544 79.272126 
L 247.105666 77.464358 
L 247.966119 82.135608 
L 248.396345 80.828344 
L 249.256798 83.865023 
L 249.687024 84.607219 
L 250.117251 86.643885 
L 250.547477 84.211566 
L 250.977703 82.932785 
L 251.838156 83.513541 
L 252.268382 82.63483 
L 252.698609 79.1011 
L 253.128835 77.785998 
L 253.559061 79.47929 
L 253.989288 78.321475 
L 254.849741 80.060148 
L 255.279967 76.57296 
L 256.14042 79.791614 
L 256.570646 84.295164 
L 257.000872 87.201765 
L 257.431099 85.952215 
L 257.861325 87.217766 
L 258.291551 85.832533 
L 258.721778 87.985886 
L 259.152004 89.199042 
L 259.58223 87.283749 
L 260.012457 83.920062 
L 260.442683 82.703887 
L 260.87291 80.346818 
L 261.303136 77.168568 
L 261.733362 75.69401 
L 262.163589 78.451546 
L 262.593815 79.237566 
L 263.024041 78.410968 
L 263.454268 79.846532 
L 263.884494 79.330788 
L 264.31472 83.102612 
L 264.744947 84.931978 
L 265.175173 83.74724 
L 265.6054 88.449573 
L 266.035626 90.326292 
L 266.465852 89.742087 
L 266.465852 89.742087 
" style="fill:none;stroke:#808080;stroke-linecap:square;stroke-width:0.75;"/>
   </g>
   <g id="line2d_11">
    <path clip-path="url(#p3f985d95ad)" d="M 51.782898 84.114715 
L 52.64335 86.526367 
L 53.073577 88.777066 
L 53.503803 86.981516 
L 53.93403 91.786679 
L 54.364256 88.109628 
L 54.794482 89.708283 
L 55.224709 89.022411 
L 55.654935 89.54156 
L 56.085161 86.474244 
L 56.515388 90.783933 
L 57.37584 92.177972 
L 57.806067 89.784971 
L 58.236293 92.0577 
L 58.66652 92.384038 
L 59.096746 94.195012 
L 59.526972 94.12524 
L 59.957199 92.925498 
L 60.387425 95.2046 
L 61.247878 90.920616 
L 61.678104 89.830731 
L 62.10833 87.930411 
L 62.538557 89.366195 
L 62.968783 89.609285 
L 63.399009 91.541643 
L 63.829236 92.0619 
L 64.259462 90.922684 
L 64.689689 92.323294 
L 65.119915 93.128555 
L 66.410594 97.698954 
L 66.84082 97.757278 
L 67.271047 100.119205 
L 67.701273 99.648804 
L 68.131499 96.223036 
L 68.561726 94.65585 
L 68.991952 95.067277 
L 69.852405 98.475383 
L 70.282631 94.965956 
L 70.712858 94.861577 
L 71.143084 96.194387 
L 71.57331 95.777523 
L 72.003537 91.389069 
L 72.433763 91.100694 
L 72.863989 89.773913 
L 73.294216 89.126813 
L 73.724442 89.856608 
L 74.154669 92.217664 
L 74.584895 92.919539 
L 75.015121 93.338973 
L 75.445348 92.100123 
L 76.3058 88.347165 
L 76.736027 87.765153 
L 77.166253 85.928963 
L 77.596479 87.520956 
L 78.026706 84.91822 
L 78.456932 83.869242 
L 78.887159 84.498422 
L 79.317385 83.498673 
L 79.747611 83.660726 
L 80.177838 81.304788 
L 80.608064 78.138706 
L 81.03829 73.572432 
L 81.898743 79.526197 
L 82.328969 80.571565 
L 82.759196 80.242751 
L 83.189422 78.41866 
L 83.619649 77.74618 
L 84.049875 81.967422 
L 84.480101 82.58084 
L 84.910328 80.839366 
L 85.340554 80.372162 
L 85.77078 78.786099 
L 86.631233 79.631535 
L 87.061459 79.23854 
L 87.491686 78.367687 
L 87.921912 77.941071 
L 88.352138 77.690586 
L 88.782365 79.094604 
L 89.212591 78.288429 
L 89.642818 78.022971 
L 90.50327 73.145437 
L 90.933497 72.791291 
L 91.363723 73.608867 
L 91.793949 74.969586 
L 92.224176 74.075764 
L 92.654402 73.925555 
L 93.084628 74.660773 
L 93.514855 74.56148 
L 93.945081 75.848012 
L 94.375308 74.381098 
L 94.805534 75.312909 
L 95.23576 72.743178 
L 95.665987 71.937036 
L 96.096213 70.713794 
L 96.526439 73.007708 
L 96.956666 72.68719 
L 97.386892 71.178504 
L 97.817118 73.178569 
L 98.247345 73.765709 
L 98.677571 73.722088 
L 99.107798 76.611568 
L 99.538024 75.954693 
L 99.96825 74.184179 
L 100.398477 75.983111 
L 100.828703 75.247647 
L 101.258929 77.969746 
L 101.689156 78.047238 
L 102.119382 81.411419 
L 102.549608 79.071414 
L 102.979835 78.199544 
L 103.410061 78.241344 
L 103.840288 79.847563 
L 104.270514 77.191688 
L 104.70074 73.098019 
L 105.130967 77.005149 
L 105.561193 74.433256 
L 105.991419 71.036192 
L 106.421646 70.34188 
L 106.851872 72.852761 
L 107.282098 71.086432 
L 107.712325 71.474379 
L 108.142551 72.749647 
L 108.572777 75.350318 
L 109.003004 74.185502 
L 109.43323 72.538356 
L 109.863457 73.874519 
L 110.293683 72.809134 
L 110.723909 75.230438 
L 111.154136 73.54365 
L 111.584362 73.4764 
L 112.014588 73.89637 
L 112.444815 74.127946 
L 113.305267 70.790502 
L 113.735494 69.696953 
L 114.595947 69.243905 
L 115.026173 67.946297 
L 115.456399 67.444253 
L 115.886626 65.985847 
L 116.316852 66.62295 
L 116.747078 71.662354 
L 117.177305 69.511197 
L 117.607531 64.946797 
L 118.037757 64.036158 
L 118.89821 64.537932 
L 119.328437 64.799378 
L 119.758663 64.773201 
L 120.188889 67.123706 
L 120.619116 68.16145 
L 121.049342 70.23013 
L 121.479568 69.721357 
L 121.909795 70.342757 
L 122.340021 69.319692 
L 122.770247 69.677056 
L 123.200474 67.621328 
L 123.6307 67.145816 
L 124.060927 62.536752 
L 124.491153 66.477796 
L 124.921379 67.793859 
L 125.351606 65.890373 
L 125.781832 60.611812 
L 126.212058 61.175042 
L 126.642285 61.111756 
L 127.072511 61.61373 
L 127.502737 58.849817 
L 127.932964 59.498337 
L 128.36319 58.139611 
L 128.793416 58.79998 
L 129.223643 61.49995 
L 129.653869 60.861918 
L 130.084096 59.849807 
L 130.514322 57.213398 
L 130.944548 57.444135 
L 131.374775 58.729801 
L 131.805001 57.595962 
L 132.665454 56.503161 
L 133.09568 56.677878 
L 133.525906 54.27547 
L 133.956133 53.508955 
L 134.386359 49.514923 
L 134.816586 47.142625 
L 135.246812 45.824416 
L 135.677038 49.285431 
L 136.107265 47.976605 
L 136.537491 47.123328 
L 136.967717 45.489259 
L 137.397944 43.365646 
L 137.82817 44.233116 
L 138.258396 42.542563 
L 138.688623 43.730628 
L 139.118849 39.689399 
L 139.549076 42.473668 
L 140.409528 49.684881 
L 141.269981 53.749091 
L 141.700207 49.663851 
L 142.130434 50.29189 
L 142.56066 53.054855 
L 142.990886 50.667197 
L 143.421113 51.84493 
L 143.851339 54.338007 
L 144.711792 51.125423 
L 145.142018 51.970824 
L 145.572245 48.945831 
L 146.002471 48.636145 
L 146.432697 45.242189 
L 146.862924 44.241311 
L 147.29315 41.018122 
L 147.723376 40.757741 
L 148.153603 43.267224 
L 148.583829 38.185416 
L 149.014055 39.331054 
L 149.444282 39.758237 
L 149.874508 41.224038 
L 150.304735 41.61337 
L 151.165187 40.627588 
L 151.595414 39.217392 
L 152.02564 35.494635 
L 152.455866 35.743605 
L 153.316319 40.793889 
L 153.746545 42.147975 
L 154.176772 45.643741 
L 154.606998 43.982006 
L 155.037225 45.053796 
L 155.467451 45.740843 
L 155.897677 45.807598 
L 156.327904 48.78637 
L 156.75813 50.551048 
L 157.618583 47.76466 
L 158.048809 48.722141 
L 158.479035 44.918587 
L 158.909262 47.673577 
L 159.339488 48.429361 
L 159.769715 48.904164 
L 160.199941 54.690984 
L 160.630167 50.643482 
L 161.060394 49.834715 
L 161.49062 51.966709 
L 161.920846 47.599464 
L 162.351073 46.416432 
L 162.781299 45.603476 
L 163.211525 46.92702 
L 163.641752 46.771737 
L 164.071978 50.025746 
L 164.502205 48.328677 
L 164.932431 49.110289 
L 165.362657 48.783302 
L 165.792884 46.244876 
L 167.083563 44.721284 
L 167.513789 46.275421 
L 167.944015 44.615978 
L 168.374242 41.420585 
L 169.234695 37.961851 
L 170.095147 41.604293 
L 170.525374 44.582675 
L 170.9556 42.036004 
L 171.385826 42.564413 
L 171.816053 39.660564 
L 172.246279 41.298186 
L 172.676505 42.174999 
L 173.106732 41.981423 
L 173.536958 40.05513 
L 173.967184 39.924365 
L 174.397411 39.484774 
L 174.827637 39.459996 
L 175.257864 39.100563 
L 175.68809 41.44647 
L 176.118316 41.243608 
L 176.548543 41.597601 
L 176.978769 41.689048 
L 177.408995 40.64103 
L 177.839222 42.028568 
L 178.269448 42.202725 
L 178.699674 42.829607 
L 179.129901 41.976984 
L 179.560127 40.335514 
L 179.990354 42.31064 
L 180.42058 41.099441 
L 180.850806 36.758236 
L 181.281033 39.805172 
L 182.141485 43.346807 
L 182.571712 43.959435 
L 183.001938 40.607973 
L 183.432164 40.549258 
L 183.862391 41.969725 
L 184.292617 40.667758 
L 184.722844 41.885815 
L 185.15307 39.533351 
L 185.583296 38.90561 
L 186.013523 36.030059 
L 186.443749 37.405082 
L 186.873975 31.07346 
L 187.734428 27.975195 
L 188.164654 28.111635 
L 189.025107 31.440462 
L 189.455334 31.734827 
L 189.88556 33.414649 
L 190.315786 32.8138 
L 190.746013 34.549288 
L 191.176239 33.226107 
L 191.606465 31.228016 
L 192.036692 32.702214 
L 192.466918 30.230209 
L 192.897144 30.680849 
L 193.327371 28.243116 
L 193.757597 27.35935 
L 194.187823 25.047434 
L 194.61805 27.145465 
L 195.048276 27.393124 
L 195.478503 24.395249 
L 195.908729 25.67567 
L 197.629634 43.586161 
L 198.059861 44.480873 
L 198.490087 41.838219 
L 198.920313 42.748421 
L 199.35054 42.090947 
L 199.780766 42.321536 
L 200.210993 42.314783 
L 201.071445 43.056464 
L 201.501672 42.114031 
L 201.931898 44.569015 
L 202.792351 40.581384 
L 203.222577 40.958404 
L 203.652803 39.246281 
L 204.513256 41.809623 
L 204.943483 41.470008 
L 205.373709 41.833391 
L 205.803935 42.756898 
L 206.664388 45.368434 
L 207.094614 43.461507 
L 207.524841 47.549086 
L 207.955067 46.853732 
L 208.385293 47.416004 
L 208.81552 45.942141 
L 209.245746 44.940926 
L 209.675973 50.776921 
L 210.106199 49.508413 
L 210.536425 48.776979 
L 210.966652 48.70031 
L 211.396878 49.651641 
L 211.827104 47.818861 
L 212.257331 48.711294 
L 212.687557 44.858023 
L 213.117783 43.710186 
L 213.54801 39.28755 
L 213.978236 40.939223 
L 214.408462 44.568701 
L 215.268915 41.34305 
L 215.699142 41.233611 
L 216.129368 44.407866 
L 216.559594 45.366736 
L 216.989821 44.129611 
L 217.850273 44.808988 
L 218.2805 45.202298 
L 218.710726 47.195952 
L 219.140952 48.361284 
L 219.571179 51.334805 
L 220.001405 47.578465 
L 220.431632 48.608866 
L 220.861858 47.593008 
L 221.292084 49.762797 
L 221.722311 48.056159 
L 222.152537 51.98144 
L 222.582763 49.971742 
L 223.01299 50.004748 
L 223.443216 45.563324 
L 223.873442 48.344648 
L 224.303669 48.184902 
L 224.733895 47.429617 
L 225.164122 44.901873 
L 225.594348 45.814835 
L 226.024574 45.700906 
L 226.454801 50.230239 
L 226.885027 51.92481 
L 227.315253 50.894472 
L 227.74548 48.538233 
L 228.175706 49.111158 
L 229.036159 41.130207 
L 229.466385 41.223365 
L 230.326838 50.012784 
L 230.757064 51.595686 
L 231.187291 49.189941 
L 231.617517 48.492757 
L 232.047743 52.849137 
L 232.47797 53.249157 
L 232.908196 49.839308 
L 233.338422 50.574626 
L 233.768649 52.095981 
L 234.198875 47.719311 
L 234.629101 47.642757 
L 235.059328 48.679265 
L 235.489554 47.924275 
L 235.919781 47.914517 
L 236.350007 48.836061 
L 237.21046 44.038399 
L 237.640686 42.316498 
L 238.070912 42.542005 
L 238.501139 40.165405 
L 238.931365 40.260121 
L 239.361591 39.273321 
L 240.222044 35.424098 
L 240.652271 31.688622 
L 241.082497 30.763851 
L 241.512723 34.25269 
L 241.94295 36.639307 
L 242.373176 33.804879 
L 242.803402 34.472009 
L 243.233629 33.634951 
L 243.663855 35.39197 
L 244.094081 33.301573 
L 244.524308 34.097094 
L 244.954534 31.025353 
L 245.384761 32.126829 
L 245.814987 29.814851 
L 246.245213 28.375184 
L 246.67544 29.910408 
L 247.105666 27.580721 
L 247.966119 31.189989 
L 248.396345 29.685051 
L 249.256798 32.189381 
L 249.687024 32.926548 
L 250.117251 35.021129 
L 250.547477 32.836859 
L 250.977703 31.579649 
L 251.838156 31.981863 
L 252.268382 31.062467 
L 252.698609 27.374246 
L 253.128835 25.586749 
L 253.559061 26.672471 
L 253.989288 25.070481 
L 254.419514 25.337562 
L 254.849741 25.777111 
L 255.279967 21.908201 
L 256.14042 23.74125 
L 256.570646 27.798656 
L 257.000872 30.751469 
L 257.431099 29.786516 
L 257.861325 31.204076 
L 258.291551 30.130092 
L 258.721778 32.410482 
L 259.152004 34.029603 
L 259.58223 32.593375 
L 260.012457 29.563737 
L 260.442683 28.308466 
L 260.87291 25.839763 
L 261.303136 22.307621 
L 261.733362 20.114444 
L 262.163589 22.124667 
L 262.593815 22.322108 
L 263.024041 20.983729 
L 263.454268 21.876278 
L 263.884494 20.917387 
L 264.31472 24.242521 
L 264.744947 25.958816 
L 265.175173 24.876815 
L 265.6054 29.554572 
L 266.035626 31.845662 
L 266.465852 31.900949 
L 266.465852 31.900949 
" style="fill:none;stroke:#1f77b4;stroke-linecap:square;stroke-width:1.5;"/>
   </g>
   <g id="line2d_12">
    <path clip-path="url(#p3f985d95ad)" d="M 41.04875 84.114715 
L 277.2 84.114715 
" style="fill:none;stroke:#808080;stroke-dasharray:2.775,1.2;stroke-dashoffset:0;stroke-width:0.75;"/>
   </g>
   <g id="patch_3">
    <path d="M 41.04875 104.3725 
L 41.04875 10.8 
" style="fill:none;stroke:#000000;stroke-linecap:square;stroke-linejoin:miter;stroke-width:0.8;"/>
   </g>
   <g id="patch_4">
    <path d="M 277.2 104.3725 
L 277.2 10.8 
" style="fill:none;stroke:#000000;stroke-linecap:square;stroke-linejoin:miter;stroke-width:0.8;"/>
   </g>
   <g id="patch_5">
    <path d="M 41.04875 104.3725 
L 277.2 104.3725 
" style="fill:none;stroke:#000000;stroke-linecap:square;stroke-linejoin:miter;stroke-width:0.8;"/>
   </g>
   <g id="patch_6">
    <path d="M 41.04875 10.8 
L 277.2 10.8 
" style="fill:none;stroke:#000000;stroke-linecap:square;stroke-linejoin:miter;stroke-width:0.8;"/>
   </g>
  </g>
  <g id="axes_2">
   <g id="patch_7">
    <path d="M 41.04875 242.9725 
L 277.2 242.9725 
L 277.2 149.4 
L 41.04875 149.4 
z
" style="fill:#ffffff;"/>
   </g>
   <g id="line2d_13">
    <path clip-path="url(#pca54fa8265)" d="M 51.782898 219.327039 
L 52.64335 221.704432 
L 53.073577 223.942176 
L 53.503803 222.137314 
L 53.93403 226.937319 
L 54.364256 223.298403 
L 54.794482 224.885948 
L 55.224709 224.220572 
L 55.654935 224.74065 
L 56.085161 221.691331 
L 56.515388 225.987885 
L 57.37584 227.461277 
L 57.806067 225.096728 
L 58.236293 227.390622 
L 58.66652 227.750232 
L 59.096746 229.581061 
L 59.526972 229.493022 
L 59.957199 228.277524 
L 60.387425 230.572935 
L 61.247878 226.305216 
L 61.678104 225.257232 
L 62.10833 223.37844 
L 62.538557 224.804398 
L 62.968783 225.060693 
L 63.399009 227.0123 
L 63.829236 227.570997 
L 64.259462 226.464907 
L 64.689689 227.90741 
L 65.119915 228.734864 
L 66.410594 233.330663 
L 66.84082 233.357076 
L 67.271047 235.687298 
L 67.701273 235.198409 
L 68.131499 231.736786 
L 68.561726 230.189206 
L 68.991952 230.589291 
L 69.852405 233.998744 
L 70.282631 230.469022 
L 70.712858 230.363059 
L 71.143084 231.691554 
L 71.57331 231.293388 
L 72.003537 226.913172 
L 72.433763 226.662573 
L 72.863989 225.375357 
L 73.294216 224.749333 
L 73.724442 225.483972 
L 74.154669 227.866766 
L 74.584895 228.595343 
L 75.015121 229.031005 
L 75.445348 227.807565 
L 76.3058 224.115939 
L 76.736027 223.520329 
L 77.166253 221.67431 
L 77.596479 223.247655 
L 78.026706 220.634719 
L 78.456932 219.564971 
L 78.887159 220.186663 
L 79.317385 219.167827 
L 79.747611 219.325437 
L 80.177838 216.965352 
L 80.608064 213.795677 
L 81.03829 209.23752 
L 81.898743 215.161794 
L 82.328969 216.213889 
L 82.759196 215.880122 
L 83.189422 214.052816 
L 83.619649 213.394539 
L 84.049875 217.611968 
L 84.480101 218.250576 
L 84.910328 216.523782 
L 85.340554 216.043905 
L 85.77078 214.454682 
L 86.631233 215.337056 
L 87.061459 214.94797 
L 87.491686 214.092781 
L 87.921912 213.679215 
L 88.352138 213.431014 
L 88.782365 214.829723 
L 89.212591 214.04229 
L 89.642818 213.788224 
L 90.50327 208.932194 
L 90.933497 208.546038 
L 91.363723 209.328719 
L 91.793949 210.660832 
L 92.224176 209.777608 
L 92.654402 209.61631 
L 93.084628 210.333439 
L 93.514855 210.242515 
L 93.945081 211.535566 
L 94.375308 210.079776 
L 94.805534 211.012291 
L 95.23576 208.458502 
L 95.665987 207.616994 
L 96.096213 206.379049 
L 96.526439 208.662557 
L 96.956666 208.309299 
L 97.386892 206.764822 
L 97.817118 208.753825 
L 98.247345 209.30904 
L 98.677571 209.241021 
L 99.107798 212.104744 
L 99.538024 211.447459 
L 99.96825 209.682737 
L 100.398477 211.475313 
L 100.828703 210.744227 
L 101.258929 213.481077 
L 101.689156 213.561779 
L 102.119382 216.931575 
L 102.549608 214.592787 
L 102.979835 213.739999 
L 103.410061 213.791339 
L 103.840288 215.407988 
L 104.270514 212.751489 
L 104.70074 208.648973 
L 105.130967 212.523913 
L 105.561193 209.945814 
L 105.991419 206.551245 
L 106.421646 205.8463 
L 106.851872 208.34745 
L 107.282098 206.546888 
L 107.712325 206.924209 
L 108.142551 208.183724 
L 108.572777 210.749088 
L 109.003004 209.600907 
L 109.43323 207.947458 
L 109.863457 209.247871 
L 110.293683 208.162176 
L 110.723909 210.548773 
L 111.154136 208.876441 
L 111.584362 208.779322 
L 112.014588 209.168425 
L 112.444815 209.380622 
L 113.305267 206.003474 
L 113.735494 204.89924 
L 114.595947 204.449755 
L 115.026173 203.160083 
L 115.456399 202.675201 
L 115.886626 201.251697 
L 116.316852 201.898465 
L 116.747078 206.976474 
L 117.177305 204.809939 
L 117.607531 200.248854 
L 118.037757 199.32836 
L 119.328437 200.0701 
L 119.758663 200.033791 
L 120.188889 202.373833 
L 120.619116 203.452266 
L 121.049342 205.531629 
L 121.479568 205.012742 
L 121.909795 205.631406 
L 122.340021 204.598612 
L 122.770247 204.962966 
L 123.200474 202.905902 
L 123.6307 202.460563 
L 124.060927 197.891719 
L 124.491153 201.846701 
L 124.921379 203.195887 
L 125.351606 201.315778 
L 125.781832 196.042794 
L 126.212058 196.561338 
L 126.642285 196.470263 
L 127.072511 196.942256 
L 127.502737 194.165418 
L 127.932964 194.764616 
L 128.36319 193.346288 
L 128.793416 194.013254 
L 129.223643 196.667256 
L 129.653869 196.013333 
L 130.084096 194.963909 
L 130.514322 192.266804 
L 130.944548 192.497148 
L 131.374775 193.784696 
L 131.805001 192.611022 
L 132.665454 191.523605 
L 133.09568 191.676086 
L 133.525906 189.256126 
L 133.956133 188.485525 
L 134.386359 184.513238 
L 134.816586 182.196059 
L 135.246812 180.821569 
L 135.677038 184.215695 
L 136.107265 182.95952 
L 136.537491 182.082994 
L 136.967717 180.391703 
L 137.397944 178.213453 
L 137.82817 179.04951 
L 138.258396 177.330993 
L 138.688623 178.503717 
L 139.118849 174.426695 
L 139.549076 177.204565 
L 140.409528 184.319277 
L 141.269981 188.510573 
L 141.700207 184.431046 
L 142.130434 185.111982 
L 142.56066 187.912218 
L 142.990886 185.588101 
L 143.421113 186.811334 
L 143.851339 189.390871 
L 144.281566 187.564253 
L 144.711792 186.264191 
L 145.142018 187.171321 
L 145.572245 184.235807 
L 146.002471 183.966557 
L 146.432697 180.594306 
L 146.862924 179.545808 
L 147.29315 176.29482 
L 147.723376 176.066654 
L 148.153603 178.610508 
L 148.583829 173.502194 
L 149.014055 174.640441 
L 149.444282 175.05513 
L 149.874508 176.515855 
L 150.304735 176.940047 
L 151.165187 176.013015 
L 151.595414 174.634415 
L 152.02564 170.896755 
L 152.455866 171.147992 
L 153.316319 176.185543 
L 153.746545 177.574017 
L 154.176772 181.065659 
L 154.606998 179.345006 
L 155.037225 180.384062 
L 155.467451 181.032641 
L 155.897677 181.036586 
L 156.327904 183.949327 
L 156.75813 185.745657 
L 157.618583 183.048501 
L 158.048809 183.972764 
L 158.479035 180.196778 
L 158.909262 182.919955 
L 159.339488 183.639447 
L 159.769715 184.120878 
L 160.199941 189.946035 
L 160.630167 185.905195 
L 161.060394 185.141186 
L 161.49062 187.319744 
L 161.920846 183.041891 
L 162.781299 180.924652 
L 163.211525 182.190586 
L 163.641752 181.969051 
L 164.071978 185.150955 
L 164.502205 183.492877 
L 164.932431 184.273792 
L 165.362657 183.994226 
L 165.792884 181.487264 
L 167.083563 179.769355 
L 167.513789 181.298639 
L 167.944015 179.555098 
L 168.374242 176.336325 
L 169.234695 172.908253 
L 170.095147 176.547705 
L 170.525374 179.552744 
L 170.9556 176.982802 
L 171.385826 177.51291 
L 171.816053 174.593446 
L 172.246279 176.224173 
L 172.676505 177.136626 
L 173.106732 176.937611 
L 173.536958 175.015868 
L 173.967184 174.88917 
L 174.397411 174.448855 
L 174.827637 174.414386 
L 175.257864 174.04485 
L 175.68809 176.373319 
L 176.118316 176.204541 
L 176.548543 176.593663 
L 176.978769 176.712174 
L 177.408995 175.685375 
L 177.839222 177.104972 
L 178.269448 177.281219 
L 178.699674 177.901386 
L 179.129901 177.031076 
L 179.560127 175.394387 
L 179.990354 177.386987 
L 180.42058 176.165034 
L 180.850806 171.856711 
L 181.281033 174.924903 
L 182.141485 178.49278 
L 182.571712 179.074856 
L 183.001938 175.690301 
L 183.432164 175.662453 
L 183.862391 177.111281 
L 184.292617 175.81447 
L 184.722844 177.0654 
L 185.15307 174.722453 
L 185.583296 174.085799 
L 186.013523 171.189411 
L 186.443749 172.568687 
L 186.873975 166.247641 
L 187.734428 163.162749 
L 188.164654 163.269506 
L 189.025107 166.592572 
L 189.455334 166.876161 
L 189.88556 168.538918 
L 190.315786 167.94938 
L 190.746013 169.672258 
L 191.176239 168.376951 
L 191.606465 166.382898 
L 192.036692 167.854974 
L 192.466918 165.367551 
L 192.897144 165.863794 
L 193.327371 163.454368 
L 193.757597 162.540544 
L 194.187823 160.199857 
L 194.61805 162.279205 
L 195.048276 162.50193 
L 195.478503 159.474882 
L 195.908729 160.763838 
L 197.629634 178.700509 
L 198.059861 179.559008 
L 198.490087 176.892557 
L 198.920313 177.814854 
L 199.35054 177.140117 
L 199.780766 177.369511 
L 200.210993 177.351682 
L 201.071445 178.065735 
L 201.501672 177.103948 
L 201.931898 179.556535 
L 202.792351 175.531095 
L 203.222577 175.937899 
L 203.652803 174.2582 
L 204.513256 176.841311 
L 204.943483 176.515413 
L 205.373709 176.912131 
L 205.803935 177.848003 
L 206.664388 180.413126 
L 207.094614 178.45443 
L 207.524841 182.507355 
L 207.955067 181.772205 
L 208.385293 182.26531 
L 208.81552 180.747408 
L 209.245746 179.67319 
L 209.675973 185.476342 
L 210.106199 184.257025 
L 210.536425 183.58073 
L 210.966652 183.535134 
L 211.396878 184.512583 
L 211.827104 182.73301 
L 212.257331 183.594409 
L 212.687557 179.767989 
L 213.117783 178.590933 
L 213.54801 174.132356 
L 213.978236 175.770637 
L 214.408462 179.432732 
L 215.268915 176.163624 
L 215.699142 176.089879 
L 216.129368 179.29913 
L 216.559594 180.233244 
L 216.989821 178.944396 
L 217.850273 179.570401 
L 218.2805 179.936332 
L 218.710726 181.884071 
L 219.140952 182.995719 
L 219.571179 185.970891 
L 220.001405 182.283698 
L 220.431632 183.275118 
L 220.861858 182.279032 
L 221.292084 184.41024 
L 221.722311 182.753201 
L 222.152537 186.659797 
L 222.582763 184.739796 
L 223.01299 184.813558 
L 223.443216 180.411756 
L 223.873442 183.136616 
L 224.303669 182.97732 
L 224.733895 182.211435 
L 225.164122 179.640145 
L 225.594348 180.52204 
L 226.024574 180.341713 
L 226.454801 184.809964 
L 226.885027 186.541334 
L 227.315253 185.59946 
L 227.74548 183.296634 
L 228.175706 183.884213 
L 229.036159 175.924441 
L 229.466385 176.050936 
L 229.896612 181.08445 
L 230.326838 184.791678 
L 230.757064 186.413952 
L 231.187291 184.086794 
L 231.617517 183.439701 
L 232.047743 187.807388 
L 232.47797 188.284494 
L 232.908196 184.919726 
L 233.338422 185.701405 
L 233.768649 187.265515 
L 234.198875 182.980465 
L 234.629101 182.869076 
L 235.059328 183.868389 
L 235.489554 183.138093 
L 235.919781 183.102295 
L 236.350007 183.997299 
L 237.21046 179.150119 
L 237.640686 177.396449 
L 238.070912 177.611026 
L 238.501139 175.219093 
L 238.931365 175.322751 
L 239.361591 174.349536 
L 240.222044 170.50682 
L 240.652271 166.774173 
L 241.082497 165.832992 
L 241.512723 169.345206 
L 241.94295 171.764814 
L 242.373176 168.949081 
L 242.803402 169.639993 
L 243.233629 168.833841 
L 243.663855 170.609606 
L 244.094081 168.522204 
L 244.524308 169.324796 
L 244.954534 166.283819 
L 245.384761 167.393826 
L 245.814987 165.061888 
L 246.245213 163.655392 
L 246.67544 165.161986 
L 247.105666 162.86996 
L 247.966119 166.465683 
L 248.396345 164.960509 
L 249.256798 167.503197 
L 249.687024 168.220423 
L 250.117251 170.30634 
L 250.547477 168.126938 
L 250.977703 166.857841 
L 251.838156 167.228489 
L 252.268382 166.289661 
L 252.698609 162.607943 
L 253.128835 160.79148 
L 253.559061 161.8519 
L 253.989288 160.230542 
L 254.419514 160.478247 
L 254.849741 160.893271 
L 255.279967 157.000626 
L 256.14042 158.873718 
L 256.570646 162.944958 
L 257.000872 165.869604 
L 257.431099 164.928759 
L 257.861325 166.378061 
L 258.291551 165.303132 
L 258.721778 167.628267 
L 259.152004 169.22854 
L 259.58223 167.82168 
L 260.012457 164.774896 
L 260.442683 163.539256 
L 260.87291 161.041104 
L 261.303136 157.486064 
L 261.733362 155.316892 
L 262.163589 157.232357 
L 262.593815 157.452061 
L 263.024041 156.137747 
L 263.454268 157.002937 
L 263.884494 156.060375 
L 264.31472 159.353806 
L 264.744947 161.081962 
L 265.175173 159.97895 
L 265.6054 164.644536 
L 266.035626 166.954741 
L 266.465852 166.991694 
L 266.465852 166.991694 
" style="fill:none;stroke:#00bfbf;stroke-linecap:square;stroke-width:1.5;"/>
   </g>
   <g id="matplotlib.axis_3">
    <g id="xtick_7">
     <g id="line2d_14">
      <g>
       <use style="stroke:#000000;stroke-width:0.8;" x="51.782898" xlink:href="#m26310e8bac" y="242.9725"/>
      </g>
     </g>
     <g id="text_11">
      <!-- 0.0 -->
      <g transform="translate(42.241023 259.090625)scale(0.12 -0.12)">
       <use xlink:href="#DejaVuSans-48"/>
       <use x="63.623047" xlink:href="#DejaVuSans-46"/>
       <use x="95.410156" xlink:href="#DejaVuSans-48"/>
      </g>
     </g>
    </g>
    <g id="xtick_8">
     <g id="line2d_15">
      <g>
       <use style="stroke:#000000;stroke-width:0.8;" x="94.805534" xlink:href="#m26310e8bac" y="242.9725"/>
      </g>
     </g>
     <g id="text_12">
      <!-- 0.1 -->
      <g transform="translate(85.263659 259.090625)scale(0.12 -0.12)">
       <use xlink:href="#DejaVuSans-48"/>
       <use x="63.623047" xlink:href="#DejaVuSans-46"/>
       <use x="95.410156" xlink:href="#DejaVuSans-49"/>
      </g>
     </g>
    </g>
    <g id="xtick_9">
     <g id="line2d_16">
      <g>
       <use style="stroke:#000000;stroke-width:0.8;" x="137.82817" xlink:href="#m26310e8bac" y="242.9725"/>
      </g>
     </g>
     <g id="text_13">
      <!-- 0.2 -->
      <g transform="translate(128.286295 259.090625)scale(0.12 -0.12)">
       <use xlink:href="#DejaVuSans-48"/>
       <use x="63.623047" xlink:href="#DejaVuSans-46"/>
       <use x="95.410156" xlink:href="#DejaVuSans-50"/>
      </g>
     </g>
    </g>
    <g id="xtick_10">
     <g id="line2d_17">
      <g>
       <use style="stroke:#000000;stroke-width:0.8;" x="180.850806" xlink:href="#m26310e8bac" y="242.9725"/>
      </g>
     </g>
     <g id="text_14">
      <!-- 0.3 -->
      <g transform="translate(171.308931 259.090625)scale(0.12 -0.12)">
       <use xlink:href="#DejaVuSans-48"/>
       <use x="63.623047" xlink:href="#DejaVuSans-46"/>
       <use x="95.410156" xlink:href="#DejaVuSans-51"/>
      </g>
     </g>
    </g>
    <g id="xtick_11">
     <g id="line2d_18">
      <g>
       <use style="stroke:#000000;stroke-width:0.8;" x="223.873442" xlink:href="#m26310e8bac" y="242.9725"/>
      </g>
     </g>
     <g id="text_15">
      <!-- 0.4 -->
      <g transform="translate(214.331567 259.090625)scale(0.12 -0.12)">
       <use xlink:href="#DejaVuSans-48"/>
       <use x="63.623047" xlink:href="#DejaVuSans-46"/>
       <use x="95.410156" xlink:href="#DejaVuSans-52"/>
      </g>
     </g>
    </g>
    <g id="xtick_12">
     <g id="line2d_19">
      <g>
       <use style="stroke:#000000;stroke-width:0.8;" x="266.896079" xlink:href="#m26310e8bac" y="242.9725"/>
      </g>
     </g>
     <g id="text_16">
      <!-- 0.5 -->
      <g transform="translate(257.354204 259.090625)scale(0.12 -0.12)">
       <use xlink:href="#DejaVuSans-48"/>
       <use x="63.623047" xlink:href="#DejaVuSans-46"/>
       <use x="95.410156" xlink:href="#DejaVuSans-53"/>
      </g>
     </g>
    </g>
    <g id="text_17">
     <!-- Time (s) -->
     <g transform="translate(134.729687 274.704375)scale(0.12 -0.12)">
      <use xlink:href="#DejaVuSans-84"/>
      <use x="57.958984" xlink:href="#DejaVuSans-105"/>
      <use x="85.742188" xlink:href="#DejaVuSans-109"/>
      <use x="183.154297" xlink:href="#DejaVuSans-101"/>
      <use x="244.677734" xlink:href="#DejaVuSans-32"/>
      <use x="276.464844" xlink:href="#DejaVuSans-40"/>
      <use x="315.478516" xlink:href="#DejaVuSans-115"/>
      <use x="367.578125" xlink:href="#DejaVuSans-41"/>
     </g>
    </g>
   </g>
   <g id="matplotlib.axis_4">
    <g id="ytick_3">
     <g id="line2d_20">
      <g>
       <use style="stroke:#000000;stroke-width:0.8;" x="41.04875" xlink:href="#m5fde4c7c2b" y="222.714715"/>
      </g>
     </g>
     <g id="text_18">
      <!-- 0 -->
      <g transform="translate(26.41375 227.273777)scale(0.12 -0.12)">
       <use xlink:href="#DejaVuSans-48"/>
      </g>
     </g>
    </g>
    <g id="ytick_4">
     <g id="line2d_21">
      <g>
       <use style="stroke:#000000;stroke-width:0.8;" x="41.04875" xlink:href="#m5fde4c7c2b" y="181.003442"/>
      </g>
     </g>
     <g id="text_19">
      <!-- 1 -->
      <g transform="translate(26.41375 185.562505)scale(0.12 -0.12)">
       <use xlink:href="#DejaVuSans-49"/>
      </g>
     </g>
    </g>
    <g id="text_20">
     <!-- x -->
     <g transform="translate(19.918125 199.7375)rotate(-90)scale(0.12 -0.12)">
      <use xlink:href="#DejaVuSans-120"/>
     </g>
    </g>
   </g>
   <g id="line2d_22">
    <path clip-path="url(#pca54fa8265)" d="M 51.782898 222.714715 
L 52.64335 224.964522 
L 53.073577 226.977286 
L 53.503803 224.746166 
L 53.93403 229.343026 
L 54.364256 225.041279 
L 54.794482 226.396168 
L 55.224709 225.362646 
L 55.654935 225.617931 
L 56.085161 222.27829 
L 56.515388 226.618487 
L 57.37584 227.28292 
L 57.806067 224.461551 
L 58.236293 226.580761 
L 58.66652 226.553766 
L 59.096746 228.00069 
L 59.526972 227.384053 
L 59.957199 225.701621 
L 60.387425 227.698342 
L 60.817651 224.812585 
L 61.247878 222.722473 
L 61.678104 221.673714 
L 62.10833 219.899021 
L 62.538557 221.606549 
L 62.968783 221.973661 
L 63.399009 223.999373 
L 63.829236 224.429605 
L 64.259462 223.152026 
L 64.689689 224.550797 
L 65.119915 225.194643 
L 66.410594 228.669812 
L 66.84082 228.100715 
L 67.271047 229.892337 
L 67.701273 228.685686 
L 68.131499 224.626966 
L 68.561726 222.88816 
L 68.991952 223.270901 
L 69.852405 226.389558 
L 70.282631 222.492352 
L 70.712858 222.408625 
L 71.143084 223.767729 
L 71.57331 223.264261 
L 72.003537 218.829091 
L 72.433763 218.967054 
L 72.863989 218.054604 
L 73.294216 217.894591 
L 73.724442 219.111243 
L 74.154669 221.854384 
L 74.584895 222.668994 
L 75.015121 223.109228 
L 75.445348 221.846337 
L 76.3058 218.494678 
L 76.736027 218.321071 
L 77.166253 216.914417 
L 77.596479 219.067792 
L 78.026706 216.819548 
L 78.456932 216.339317 
L 78.887159 217.598548 
L 79.317385 217.091329 
L 79.747611 217.811277 
L 80.177838 215.941536 
L 80.608064 213.449179 
L 81.03829 209.817576 
L 81.898743 217.901058 
L 82.328969 219.434519 
L 82.759196 219.428771 
L 83.189422 217.930059 
L 83.619649 217.750248 
L 84.049875 222.464124 
L 84.480101 223.127791 
L 84.910328 221.35969 
L 85.340554 221.015315 
L 85.77078 219.596032 
L 86.631233 221.024587 
L 87.061459 220.804514 
L 87.491686 220.140346 
L 87.921912 219.984216 
L 88.352138 220.009066 
L 88.782365 221.678339 
L 89.212591 220.994544 
L 89.642818 220.912495 
L 90.50327 216.634448 
L 90.933497 216.856319 
L 91.363723 218.224839 
L 91.793949 220.00594 
L 92.224176 219.393593 
L 92.654402 219.564407 
L 93.084628 220.596567 
L 93.514855 220.717458 
L 93.945081 222.210234 
L 94.375308 220.804892 
L 94.805534 221.92839 
L 95.23576 219.453233 
L 95.665987 218.937874 
L 96.096213 218.077612 
L 96.526439 220.824831 
L 96.956666 220.660561 
L 97.386892 219.321499 
L 97.817118 221.649824 
L 98.247345 222.311529 
L 98.677571 222.283828 
L 99.107798 225.19064 
L 99.538024 224.285762 
L 99.96825 222.363936 
L 100.398477 224.191589 
L 100.828703 223.312816 
L 101.258929 225.989856 
L 101.689156 225.743044 
L 102.119382 228.810007 
L 102.549608 225.86169 
L 102.979835 224.694204 
L 103.410061 224.547596 
L 103.840288 225.980956 
L 104.270514 222.997833 
L 104.70074 218.867005 
L 105.130967 223.126716 
L 105.991419 217.333578 
L 106.421646 217.166746 
L 106.851872 220.222693 
L 107.282098 218.671334 
L 107.712325 219.452993 
L 108.142551 221.03868 
L 108.572777 223.771648 
L 109.003004 222.517773 
L 109.43323 220.884018 
L 109.863457 222.367501 
L 110.293683 221.316527 
L 110.723909 223.842943 
L 111.154136 222.057788 
L 111.584362 222.026362 
L 112.014588 222.4843 
L 112.444815 222.719539 
L 113.305267 219.522686 
L 113.735494 218.737655 
L 114.595947 219.072529 
L 115.026173 218.147076 
L 115.456399 218.118958 
L 115.886626 217.155029 
L 116.316852 218.357766 
L 116.747078 223.87147 
L 117.177305 221.58926 
L 117.607531 217.14072 
L 118.037757 216.777626 
L 119.328437 219.060173 
L 119.758663 219.389319 
L 120.188889 222.0619 
L 120.619116 223.205615 
L 121.049342 225.235887 
L 121.479568 224.464884 
L 121.909795 224.908531 
L 122.340021 223.656355 
L 122.770247 223.926545 
L 123.200474 221.748297 
L 123.6307 221.399601 
L 124.060927 216.962268 
L 124.491153 221.492494 
L 124.921379 222.963902 
L 125.351606 221.058875 
L 125.781832 215.951475 
L 126.212058 217.146343 
L 126.642285 217.612105 
L 127.072511 218.594359 
L 127.502737 216.229556 
L 127.932964 217.477271 
L 128.36319 216.582686 
L 128.793416 217.862856 
L 129.223643 221.002044 
L 129.653869 220.519387 
L 130.084096 219.689496 
L 130.514322 217.294913 
L 130.944548 218.067238 
L 131.374775 219.819533 
L 131.805001 218.935377 
L 132.665454 218.616241 
L 133.09568 219.17857 
L 133.525906 217.112224 
L 133.956133 216.901873 
L 134.386359 213.51087 
L 134.816586 212.114075 
L 135.246812 211.799649 
L 135.677038 216.285282 
L 136.107265 215.67205 
L 136.537491 215.499791 
L 136.967717 214.529992 
L 137.397944 213.170214 
L 137.82817 214.960721 
L 138.258396 214.017604 
L 138.688623 216.060039 
L 139.118849 212.648484 
L 140.409528 224.374017 
L 141.269981 228.064315 
L 141.700207 223.449828 
L 142.130434 224.057252 
L 142.56066 226.723234 
L 142.990886 223.998266 
L 143.421113 225.093144 
L 143.851339 227.434837 
L 144.281566 225.136207 
L 144.711792 223.593996 
L 145.142018 224.413198 
L 145.572245 221.307836 
L 146.002471 221.179274 
L 146.432697 217.960567 
L 146.862924 217.387483 
L 147.29315 214.669218 
L 147.723376 215.245602 
L 148.153603 218.536368 
L 148.583829 213.845888 
L 149.014055 215.871018 
L 149.444282 216.970076 
L 149.874508 219.005266 
L 150.304735 219.800403 
L 151.165187 219.4777 
L 151.595414 218.422802 
L 152.02564 215.114333 
L 152.455866 216.125608 
L 153.316319 222.157914 
L 153.746545 223.602068 
L 154.176772 227.004974 
L 154.606998 224.855296 
L 155.037225 225.680294 
L 155.467451 226.032315 
L 155.897677 225.7045 
L 156.327904 228.318262 
L 156.75813 229.554238 
L 157.618583 225.698287 
L 158.048809 226.324193 
L 158.479035 222.18726 
L 158.909262 224.963182 
L 159.339488 225.457828 
L 159.769715 225.664947 
L 160.199941 231.195081 
L 160.630167 226.306204 
L 161.060394 225.183047 
L 161.49062 227.114771 
L 161.920846 222.396913 
L 162.351073 221.207258 
L 162.781299 220.462199 
L 163.211525 221.953385 
L 163.641752 221.807983 
L 164.071978 225.08056 
L 164.502205 223.185898 
L 164.932431 223.919695 
L 165.362657 223.519631 
L 165.792884 220.932177 
L 166.653336 220.188992 
L 167.083563 219.864908 
L 167.513789 221.679173 
L 167.944015 220.039186 
L 168.374242 217.087965 
L 169.234695 214.88723 
L 170.525374 223.124358 
L 170.9556 220.513451 
L 171.385826 221.263686 
L 171.816053 218.489325 
L 172.246279 220.542591 
L 172.676505 221.672256 
L 173.106732 221.577487 
L 173.536958 219.769467 
L 173.967184 219.937293 
L 174.397411 219.774721 
L 174.827637 220.034251 
L 175.257864 219.932761 
L 175.68809 222.539426 
L 176.118316 222.388176 
L 176.548543 222.809953 
L 176.978769 222.91894 
L 177.408995 221.871718 
L 177.839222 223.375615 
L 178.269448 223.485772 
L 178.699674 224.028834 
L 179.129901 223.027112 
L 179.560127 221.359183 
L 179.990354 223.487336 
L 180.42058 222.188121 
L 180.850806 217.932458 
L 181.281033 221.478875 
L 182.141485 225.108424 
L 182.571712 225.451129 
L 183.001938 221.792932 
L 183.432164 221.857263 
L 183.862391 223.391836 
L 184.292617 222.027313 
L 184.722844 223.346984 
L 185.15307 220.940809 
L 185.583296 220.481546 
L 186.013523 217.808475 
L 186.443749 219.678374 
L 186.873975 213.660963 
L 187.304202 212.846615 
L 187.734428 212.468256 
L 188.164654 213.599659 
L 189.025107 218.503257 
L 189.455334 219.207992 
L 189.88556 221.221421 
L 190.315786 220.781213 
L 190.746013 222.697442 
L 191.176239 221.403861 
L 191.606465 219.540894 
L 192.036692 221.330352 
L 192.466918 218.981365 
L 192.897144 219.850943 
L 193.327371 217.727894 
L 193.757597 217.312752 
L 194.187823 215.512261 
L 194.61805 218.311855 
L 195.048276 218.974867 
L 195.478503 216.321803 
L 195.908729 218.25005 
L 197.199408 231.775027 
L 197.629634 235.278219 
L 198.059861 234.880368 
L 198.490087 230.997351 
L 198.920313 231.091385 
L 199.35054 229.578981 
L 199.780766 229.121949 
L 200.210993 228.463396 
L 201.071445 228.050121 
L 201.501672 226.554793 
L 201.931898 228.623372 
L 202.792351 223.685955 
L 203.222577 223.995636 
L 203.652803 222.187844 
L 204.08303 223.70323 
L 204.513256 224.724791 
L 204.943483 224.197885 
L 205.373709 224.446286 
L 205.803935 225.209001 
L 206.234162 226.362006 
L 206.664388 227.159967 
L 207.094614 224.756746 
L 207.524841 228.605467 
L 207.955067 227.281243 
L 208.385293 227.317694 
L 208.81552 225.339495 
L 209.245746 224.002798 
L 209.675973 229.677142 
L 210.106199 227.761582 
L 210.536425 226.580601 
L 210.966652 226.148416 
L 211.396878 226.782495 
L 211.827104 224.596144 
L 212.257331 225.2694 
L 212.687557 221.187512 
L 213.117783 220.163175 
L 213.54801 215.959753 
L 213.978236 218.27353 
L 214.408462 222.379743 
L 215.268915 219.323354 
L 215.699142 219.588744 
L 216.129368 223.110593 
L 216.559594 224.005119 
L 216.989821 222.58723 
L 217.420047 222.98409 
L 218.2805 223.516545 
L 218.710726 225.3841 
L 219.140952 226.228809 
L 219.571179 228.852572 
L 220.001405 224.551593 
L 220.431632 225.359326 
L 220.861858 224.098778 
L 221.292084 226.09158 
L 221.722311 224.096854 
L 222.152537 227.865237 
L 222.582763 225.430183 
L 223.01299 225.232399 
L 223.443216 220.578829 
L 223.873442 223.517278 
L 224.303669 223.277725 
L 224.733895 222.455539 
L 225.164122 219.910167 
L 225.594348 221.072516 
L 226.024574 221.056409 
L 226.454801 225.690491 
L 226.885027 227.124283 
L 227.315253 225.741452 
L 227.74548 223.135953 
L 228.175706 223.681408 
L 229.036159 215.96683 
L 229.466385 216.768113 
L 229.896612 222.396288 
L 230.326838 226.135358 
L 230.757064 227.415568 
L 231.187291 224.618325 
L 231.617517 223.780871 
L 232.047743 228.041943 
L 232.47797 227.986326 
L 232.908196 224.094397 
L 233.338422 224.738108 
L 233.768649 226.099878 
L 234.198875 221.476312 
L 234.629101 221.488763 
L 235.059328 222.610671 
L 235.489554 221.89078 
L 235.919781 221.937375 
L 236.350007 222.910113 
L 237.21046 218.277839 
L 237.640686 216.967856 
L 238.070912 217.75712 
L 238.501139 215.860945 
L 238.931365 216.64998 
L 239.361591 216.28324 
L 239.791818 214.770567 
L 240.222044 213.878086 
L 240.652271 211.029101 
L 241.082497 211.256481 
L 241.512723 215.914519 
L 241.94295 219.014147 
L 242.373176 216.56847 
L 242.803402 217.874007 
L 243.233629 217.551926 
L 243.663855 219.843969 
L 244.094081 218.043642 
L 244.524308 219.313341 
L 244.954534 216.612501 
L 245.384761 218.332731 
L 245.814987 216.438991 
L 246.245213 215.660067 
L 246.67544 217.872126 
L 247.105666 216.064358 
L 247.966119 220.735608 
L 248.396345 219.428344 
L 249.256798 222.465023 
L 249.687024 223.207219 
L 250.117251 225.243885 
L 250.547477 222.811566 
L 250.977703 221.532785 
L 251.838156 222.113541 
L 252.268382 221.23483 
L 252.698609 217.7011 
L 253.128835 216.385998 
L 253.559061 218.07929 
L 253.989288 216.921475 
L 254.849741 218.660148 
L 255.279967 215.17296 
L 256.14042 218.391614 
L 256.570646 222.895164 
L 257.000872 225.801765 
L 257.431099 224.552215 
L 257.861325 225.817766 
L 258.291551 224.432533 
L 258.721778 226.585886 
L 259.152004 227.799042 
L 259.58223 225.883749 
L 260.012457 222.520062 
L 260.442683 221.303887 
L 260.87291 218.946818 
L 261.303136 215.768568 
L 261.733362 214.29401 
L 262.163589 217.051546 
L 262.593815 217.837566 
L 263.024041 217.010968 
L 263.454268 218.446532 
L 263.884494 217.930788 
L 264.31472 221.702612 
L 264.744947 223.531978 
L 265.175173 222.34724 
L 265.6054 227.049573 
L 266.035626 228.926292 
L 266.465852 228.342087 
L 266.465852 228.342087 
" style="fill:none;stroke:#808080;stroke-linecap:square;stroke-width:0.75;"/>
   </g>
   <g id="line2d_23">
    <path clip-path="url(#pca54fa8265)" d="M 51.782898 222.714715 
L 52.64335 225.07674 
L 53.073577 227.302717 
L 53.503803 225.484984 
L 53.93403 230.267244 
L 54.364256 226.56499 
L 54.794482 228.13764 
L 55.224709 227.429418 
L 55.654935 227.931725 
L 56.085161 224.845408 
L 56.515388 229.132162 
L 57.37584 230.481056 
L 57.806067 228.054034 
L 58.236293 230.307144 
L 58.66652 230.603462 
L 59.096746 232.374284 
L 59.526972 232.262922 
L 59.957199 231.01824 
L 60.387425 233.269936 
L 61.247878 228.938072 
L 61.678104 227.834988 
L 62.10833 225.922548 
L 62.538557 227.331153 
L 62.968783 227.573598 
L 63.399009 229.501306 
L 63.829236 229.993071 
L 64.259462 228.824178 
L 64.689689 230.214451 
L 65.119915 230.978494 
L 66.410594 235.476149 
L 66.84082 235.473057 
L 67.271047 237.773436 
L 67.701273 237.275311 
L 68.131499 233.807866 
L 68.561726 232.233255 
L 68.991952 232.602643 
L 69.852405 235.962522 
L 70.282631 232.437502 
L 70.712858 232.31112 
L 71.143084 233.613001 
L 71.57331 233.189911 
L 72.003537 228.797897 
L 72.433763 228.495658 
L 72.863989 227.161419 
L 73.294216 226.525586 
L 73.724442 227.245129 
L 74.154669 229.616709 
L 74.584895 230.279306 
L 75.015121 230.651645 
L 75.445348 229.369689 
L 76.3058 225.588773 
L 76.736027 224.973307 
L 77.166253 223.11596 
L 77.596479 224.683579 
L 78.026706 222.063726 
L 78.456932 220.973697 
L 78.887159 221.550794 
L 79.317385 220.502502 
L 79.747611 220.611538 
L 80.177838 218.200712 
L 80.608064 215.00147 
L 81.03829 210.419179 
L 81.898743 216.299286 
L 82.328969 217.33159 
L 82.759196 216.9521 
L 83.189422 215.087199 
L 83.619649 214.404268 
L 84.049875 218.583896 
L 84.480101 219.200201 
L 84.910328 217.454074 
L 85.340554 216.928523 
L 85.77078 215.302203 
L 86.631233 216.14434 
L 87.061459 215.738753 
L 87.491686 214.866844 
L 88.352138 214.14517 
L 88.782365 215.500924 
L 89.212591 214.693168 
L 89.642818 214.414194 
L 90.50327 209.527415 
L 90.933497 209.129093 
L 91.363723 209.898581 
L 91.793949 211.220253 
L 92.224176 210.348492 
L 92.654402 210.177381 
L 93.084628 210.88706 
L 93.514855 210.801305 
L 93.945081 212.095975 
L 94.375308 210.646045 
L 94.805534 211.573046 
L 95.23576 209.027609 
L 95.665987 208.17266 
L 96.096213 206.909502 
L 96.526439 209.160404 
L 96.956666 208.79403 
L 97.386892 207.236552 
L 97.817118 209.191636 
L 98.247345 209.733811 
L 98.677571 209.653554 
L 99.107798 212.504897 
L 99.538024 211.841833 
L 99.96825 210.084238 
L 100.398477 211.869246 
L 100.828703 211.145269 
L 101.258929 213.893383 
L 101.689156 213.933661 
L 102.119382 217.262282 
L 102.549608 214.878652 
L 102.979835 214.002669 
L 103.410061 214.011653 
L 103.840288 215.585817 
L 104.270514 212.910358 
L 104.70074 208.784742 
L 105.130967 212.646718 
L 105.561193 210.056266 
L 105.991419 206.653845 
L 106.421646 205.911716 
L 106.851872 208.351882 
L 107.282098 206.531593 
L 107.712325 206.86739 
L 108.142551 208.093987 
L 108.572777 210.632077 
L 109.003004 209.47778 
L 109.43323 207.812176 
L 109.863457 209.080665 
L 110.293683 207.981652 
L 110.723909 210.338624 
L 111.154136 208.656629 
L 111.584362 208.546629 
L 112.014588 208.92158 
L 112.444815 209.120315 
L 113.305267 205.69562 
L 113.735494 204.526278 
L 114.595947 204.025466 
L 115.026173 202.720084 
L 115.456399 202.215161 
L 115.886626 200.736637 
L 116.316852 201.358989 
L 116.747078 206.393703 
L 117.177305 204.179983 
L 117.607531 199.599232 
L 118.037757 198.68884 
L 119.328437 199.518473 
L 119.758663 199.494622 
L 120.188889 201.847819 
L 120.619116 202.868999 
L 121.049342 204.932719 
L 121.479568 204.363521 
L 121.909795 204.957332 
L 122.340021 203.873044 
L 122.770247 204.224571 
L 123.200474 202.14665 
L 123.6307 201.643367 
L 124.060927 197.022765 
L 124.491153 200.968352 
L 124.921379 202.2844 
L 125.351606 200.353995 
L 125.781832 195.067414 
L 126.212058 195.588647 
L 126.642285 195.481899 
L 127.072511 195.942757 
L 127.502737 193.146368 
L 127.932964 193.722816 
L 128.36319 192.272616 
L 128.793416 192.909233 
L 129.223643 195.546476 
L 129.653869 194.878573 
L 130.084096 193.833234 
L 130.514322 191.104969 
L 130.944548 191.225215 
L 131.374775 192.406059 
L 131.805001 191.208431 
L 132.665454 189.90315 
L 133.09568 189.967069 
L 133.525906 187.456247 
L 133.956133 186.629585 
L 134.386359 182.657468 
L 134.816586 180.353706 
L 135.246812 178.94403 
L 135.677038 182.302243 
L 136.107265 181.064007 
L 136.537491 180.183557 
L 137.397944 176.253095 
L 137.82817 177.065355 
L 138.258396 175.347287 
L 138.688623 176.482146 
L 139.118849 172.384279 
L 139.549076 175.131981 
L 140.409528 182.186511 
L 141.269981 186.432322 
L 141.700207 182.363263 
L 142.130434 183.061673 
L 142.56066 185.867989 
L 142.990886 183.574616 
L 143.421113 184.814493 
L 143.851339 187.460077 
L 144.281566 185.577183 
L 144.711792 184.322196 
L 145.142018 185.273776 
L 145.572245 182.395479 
L 146.002471 182.143395 
L 146.432697 178.789024 
L 146.862924 177.712486 
L 147.29315 174.460917 
L 147.723376 174.215699 
L 148.153603 176.742864 
L 148.583829 171.622594 
L 149.014055 172.7598 
L 149.444282 173.133357 
L 149.874508 174.553956 
L 150.304735 174.959405 
L 151.165187 173.986789 
L 151.595414 172.589893 
L 152.02564 168.815603 
L 152.455866 169.015553 
L 153.316319 174.007856 
L 153.746545 175.378081 
L 154.176772 178.831222 
L 154.606998 177.080457 
L 155.037225 178.12036 
L 155.467451 178.7602 
L 155.897677 178.737478 
L 156.327904 181.624608 
L 156.75813 183.42176 
L 157.618583 180.750151 
L 158.048809 181.660527 
L 158.479035 177.885857 
L 158.909262 180.604653 
L 159.339488 181.302688 
L 159.769715 181.782958 
L 160.199941 187.612657 
L 160.630167 183.507959 
L 161.060394 182.757457 
L 161.49062 184.947509 
L 161.920846 180.736182 
L 162.781299 178.553163 
L 163.211525 179.800931 
L 163.641752 179.526812 
L 164.071978 182.65789 
L 164.502205 181.013222 
L 164.932431 181.789294 
L 165.362657 181.514518 
L 165.792884 179.007524 
L 167.083563 177.234374 
L 167.513789 178.767298 
L 167.944015 176.996756 
L 168.374242 173.776349 
L 169.234695 170.307217 
L 170.095147 173.935734 
L 170.525374 176.922458 
L 170.9556 174.348187 
L 171.385826 174.862164 
L 171.816053 171.916131 
L 172.246279 173.533384 
L 172.676505 174.424937 
L 173.106732 174.209314 
L 173.536958 172.270826 
L 173.967184 172.117782 
L 174.397411 171.656483 
L 174.827637 171.619502 
L 175.257864 171.249058 
L 175.68809 173.588219 
L 176.118316 173.399886 
L 176.548543 173.762758 
L 176.978769 173.86325 
L 177.408995 172.818272 
L 177.839222 174.195571 
L 178.269448 174.354948 
L 178.699674 174.958968 
L 179.129901 174.059686 
L 179.560127 172.404976 
L 179.990354 174.366728 
L 180.42058 173.128589 
L 180.850806 168.77996 
L 181.281033 171.797048 
L 182.141485 175.335004 
L 182.571712 175.879479 
L 183.001938 172.463436 
L 183.432164 172.402851 
L 183.862391 173.8209 
L 184.292617 172.506011 
L 184.722844 173.722861 
L 185.15307 171.361825 
L 185.583296 170.733538 
L 186.013523 167.85152 
L 186.443749 169.222577 
L 186.873975 162.864183 
L 187.734428 159.705142 
L 188.164654 159.813452 
L 189.025107 163.084772 
L 189.455334 163.348551 
L 189.88556 165.004106 
L 190.315786 164.421315 
L 190.746013 166.15709 
L 191.176239 164.883625 
L 191.606465 162.896469 
L 192.036692 164.342878 
L 192.466918 161.869143 
L 192.897144 162.330627 
L 193.327371 159.890406 
L 193.757597 158.964791 
L 194.187823 156.687439 
L 194.61805 159.046671 
L 195.048276 159.325448 
L 195.478503 156.330341 
L 195.908729 157.93406 
L 197.629634 176.019763 
L 198.059861 176.850861 
L 198.490087 174.177147 
L 198.920313 175.082402 
L 199.35054 174.375795 
L 199.780766 174.588962 
L 200.210993 174.5516 
L 201.071445 175.219846 
L 201.501672 174.223043 
L 201.931898 176.659003 
L 202.792351 172.599749 
L 203.222577 172.969634 
L 203.652803 171.24643 
L 204.513256 173.800083 
L 204.943483 173.456143 
L 205.373709 173.829209 
L 205.803935 174.746984 
L 206.664388 177.263219 
L 207.094614 175.308423 
L 207.524841 179.324328 
L 207.955067 178.537082 
L 208.385293 179.012562 
L 208.81552 177.455142 
L 209.245746 176.384601 
L 209.675973 182.165279 
L 210.106199 180.964008 
L 210.536425 180.281794 
L 210.966652 180.196399 
L 211.396878 181.128608 
L 211.827104 179.346075 
L 212.257331 180.155138 
L 212.687557 176.281111 
L 213.117783 175.080514 
L 213.54801 170.590111 
L 213.978236 172.242293 
L 214.408462 175.879025 
L 215.268915 172.562261 
L 215.699142 172.45271 
L 216.129368 175.629567 
L 216.559594 176.523603 
L 216.989821 175.214888 
L 217.420047 175.564098 
L 217.850273 175.765325 
L 218.2805 176.095328 
L 218.710726 178.01723 
L 219.140952 179.121891 
L 219.571179 182.051975 
L 220.001405 178.381128 
L 220.431632 179.359223 
L 220.861858 178.310716 
L 221.292084 180.430041 
L 221.722311 178.742338 
L 222.152537 182.623099 
L 222.582763 180.717128 
L 223.01299 180.775329 
L 223.443216 176.360864 
L 223.873442 179.062966 
L 224.303669 178.861529 
L 224.733895 178.064004 
L 225.164122 175.484904 
L 225.594348 176.326551 
L 226.024574 176.123106 
L 226.454801 180.565991 
L 226.885027 182.273897 
L 227.315253 181.350111 
L 227.74548 179.046444 
L 228.175706 179.592735 
L 229.036159 171.546883 
L 229.466385 171.67551 
L 229.896612 176.70568 
L 230.326838 180.399368 
L 230.757064 181.989218 
L 231.187291 179.676374 
L 231.617517 178.978612 
L 232.047743 183.308566 
L 232.47797 183.792374 
L 232.908196 180.455324 
L 233.338422 181.207737 
L 233.768649 182.769833 
L 234.198875 178.496032 
L 234.629101 178.368316 
L 235.059328 179.354586 
L 235.489554 178.571894 
L 235.919781 178.517276 
L 236.350007 179.395296 
L 237.21046 174.48721 
L 237.640686 172.716083 
L 238.070912 172.890562 
L 238.501139 170.455356 
L 238.931365 170.571874 
L 239.361591 169.612449 
L 240.222044 165.76575 
L 240.652271 162.050504 
L 241.082497 161.076911 
L 241.512723 164.541002 
L 241.94295 166.971931 
L 242.373176 164.178294 
L 242.803402 164.88369 
L 243.233629 164.084434 
L 243.663855 165.874518 
L 244.094081 163.806702 
L 244.524308 164.620079 
L 244.954534 161.589242 
L 245.384761 162.658897 
L 245.814987 160.297593 
L 246.245213 158.855315 
L 246.67544 160.4351 
L 247.105666 158.101554 
L 247.966119 161.81397 
L 248.396345 160.273085 
L 249.256798 162.739817 
L 249.687024 163.428549 
L 250.117251 165.511431 
L 250.547477 163.346784 
L 250.977703 162.070393 
L 251.838156 162.377407 
L 252.268382 161.407919 
L 252.698609 157.682248 
L 253.128835 156.049306 
L 253.559061 157.45195 
L 253.989288 156.03631 
L 254.849741 157.328264 
L 255.279967 153.653295 
L 256.14042 156.540243 
L 256.570646 160.905735 
L 257.000872 163.781337 
L 257.431099 162.850704 
L 257.861325 164.273337 
L 258.291551 163.21259 
L 258.721778 165.523526 
L 259.152004 167.138673 
L 259.58223 165.751208 
L 260.012457 162.721586 
L 260.442683 161.457224 
L 260.87291 158.916016 
L 261.303136 155.428688 
L 261.733362 153.662712 
L 262.163589 156.156087 
L 262.593815 156.707572 
L 263.024041 155.67118 
L 263.454268 156.915707 
L 263.884494 156.230827 
L 264.31472 159.848739 
L 264.744947 161.568 
L 265.175173 160.424179 
L 265.6054 165.048646 
L 266.035626 167.365881 
L 266.465852 167.416309 
L 266.465852 167.416309 
" style="fill:none;stroke:#ff7f0e;stroke-linecap:square;stroke-width:1.5;"/>
   </g>
   <g id="line2d_24">
    <path clip-path="url(#pca54fa8265)" d="M 41.04875 222.714715 
L 277.2 222.714715 
" style="fill:none;stroke:#808080;stroke-dasharray:2.775,1.2;stroke-dashoffset:0;stroke-width:0.75;"/>
   </g>
   <g id="patch_8">
    <path d="M 41.04875 242.9725 
L 41.04875 149.4 
" style="fill:none;stroke:#000000;stroke-linecap:square;stroke-linejoin:miter;stroke-width:0.8;"/>
   </g>
   <g id="patch_9">
    <path d="M 277.2 242.9725 
L 277.2 149.4 
" style="fill:none;stroke:#000000;stroke-linecap:square;stroke-linejoin:miter;stroke-width:0.8;"/>
   </g>
   <g id="patch_10">
    <path d="M 41.04875 242.9725 
L 277.2 242.9725 
" style="fill:none;stroke:#000000;stroke-linecap:square;stroke-linejoin:miter;stroke-width:0.8;"/>
   </g>
   <g id="patch_11">
    <path d="M 41.04875 149.4 
L 277.2 149.4 
" style="fill:none;stroke:#000000;stroke-linecap:square;stroke-linejoin:miter;stroke-width:0.8;"/>
   </g>
  </g>
 </g>
 <defs>
  <clipPath id="p3f985d95ad">
   <rect height="93.5725" width="236.15125" x="41.04875" y="10.8"/>
  </clipPath>
  <clipPath id="pca54fa8265">
   <rect height="93.5725" width="236.15125" x="41.04875" y="149.4"/>
  </clipPath>
 </defs>
</svg>
