<?xml version="1.0" encoding="utf-8" standalone="no"?>
<!DOCTYPE svg PUBLIC "-//W3C//DTD SVG 1.1//EN"
  "http://www.w3.org/Graphics/SVG/1.1/DTD/svg11.dtd">
<svg xmlns:xlink="http://www.w3.org/1999/xlink" width="576pt" height="154.8pt" viewBox="0 0 576 154.8" xmlns="http://www.w3.org/2000/svg" version="1.1">
 <metadata>
  <rdf:RDF xmlns:dc="http://purl.org/dc/elements/1.1/" xmlns:cc="http://creativecommons.org/ns#" xmlns:rdf="http://www.w3.org/1999/02/22-rdf-syntax-ns#">
   <cc:Work>
    <dc:type rdf:resource="http://purl.org/dc/dcmitype/StillImage"/>
    <dc:date>2025-06-20T15:22:38.531095</dc:date>
    <dc:format>image/svg+xml</dc:format>
    <dc:creator>
     <cc:Agent>
      <dc:title>Matplotlib v3.5.2, https://matplotlib.org/</dc:title>
     </cc:Agent>
    </dc:creator>
   </cc:Work>
  </rdf:RDF>
 </metadata>
 <defs>
  <style type="text/css">*{stroke-linejoin: round; stroke-linecap: butt}</style>
 </defs>
 <g id="figure_1">
  <g id="patch_1">
   <path d="M 0 154.8 
L 576 154.8 
L 576 0 
L 0 0 
z
" style="fill: #ffffff"/>
  </g>
  <g id="axes_1">
   <g id="patch_2">
    <path d="M 51.104375 109.7725 
L 282.6 109.7725 
L 282.6 15.359062 
L 51.104375 15.359062 
z
" style="fill: #ffffff"/>
   </g>
   <g id="matplotlib.axis_1">
    <g id="xtick_1">
     <g id="line2d_1">
      <defs>
       <path id="mc5430e4868" d="M 0 0 
L 0 3.5 
" style="stroke: #000000; stroke-width: 0.8"/>
      </defs>
      <g>
       <use xlink:href="#mc5430e4868" x="61.626903" y="109.7725" style="stroke: #000000; stroke-width: 0.8"/>
      </g>
     </g>
     <g id="text_1">
      <!-- 0.0 -->
      <g transform="translate(52.085028 125.890625)scale(0.12 -0.12)">
       <defs>
        <path id="DejaVuSans-30" d="M 2034 4250 
Q 1547 4250 1301 3770 
Q 1056 3291 1056 2328 
Q 1056 1369 1301 889 
Q 1547 409 2034 409 
Q 2525 409 2770 889 
Q 3016 1369 3016 2328 
Q 3016 3291 2770 3770 
Q 2525 4250 2034 4250 
z
M 2034 4750 
Q 2819 4750 3233 4129 
Q 3647 3509 3647 2328 
Q 3647 1150 3233 529 
Q 2819 -91 2034 -91 
Q 1250 -91 836 529 
Q 422 1150 422 2328 
Q 422 3509 836 4129 
Q 1250 4750 2034 4750 
z
" transform="scale(0.015625)"/>
        <path id="DejaVuSans-2e" d="M 684 794 
L 1344 794 
L 1344 0 
L 684 0 
L 684 794 
z
" transform="scale(0.015625)"/>
       </defs>
       <use xlink:href="#DejaVuSans-30"/>
       <use xlink:href="#DejaVuSans-2e" x="63.623047"/>
       <use xlink:href="#DejaVuSans-30" x="95.410156"/>
      </g>
     </g>
    </g>
    <g id="xtick_2">
     <g id="line2d_2">
      <g>
       <use xlink:href="#mc5430e4868" x="117.821982" y="109.7725" style="stroke: #000000; stroke-width: 0.8"/>
      </g>
     </g>
     <g id="text_2">
      <!-- 0.2 -->
      <g transform="translate(108.280107 125.890625)scale(0.12 -0.12)">
       <defs>
        <path id="DejaVuSans-32" d="M 1228 531 
L 3431 531 
L 3431 0 
L 469 0 
L 469 531 
Q 828 903 1448 1529 
Q 2069 2156 2228 2338 
Q 2531 2678 2651 2914 
Q 2772 3150 2772 3378 
Q 2772 3750 2511 3984 
Q 2250 4219 1831 4219 
Q 1534 4219 1204 4116 
Q 875 4013 500 3803 
L 500 4441 
Q 881 4594 1212 4672 
Q 1544 4750 1819 4750 
Q 2544 4750 2975 4387 
Q 3406 4025 3406 3419 
Q 3406 3131 3298 2873 
Q 3191 2616 2906 2266 
Q 2828 2175 2409 1742 
Q 1991 1309 1228 531 
z
" transform="scale(0.015625)"/>
       </defs>
       <use xlink:href="#DejaVuSans-30"/>
       <use xlink:href="#DejaVuSans-2e" x="63.623047"/>
       <use xlink:href="#DejaVuSans-32" x="95.410156"/>
      </g>
     </g>
    </g>
    <g id="xtick_3">
     <g id="line2d_3">
      <g>
       <use xlink:href="#mc5430e4868" x="174.01706" y="109.7725" style="stroke: #000000; stroke-width: 0.8"/>
      </g>
     </g>
     <g id="text_3">
      <!-- 0.4 -->
      <g transform="translate(164.475185 125.890625)scale(0.12 -0.12)">
       <defs>
        <path id="DejaVuSans-34" d="M 2419 4116 
L 825 1625 
L 2419 1625 
L 2419 4116 
z
M 2253 4666 
L 3047 4666 
L 3047 1625 
L 3713 1625 
L 3713 1100 
L 3047 1100 
L 3047 0 
L 2419 0 
L 2419 1100 
L 313 1100 
L 313 1709 
L 2253 4666 
z
" transform="scale(0.015625)"/>
       </defs>
       <use xlink:href="#DejaVuSans-30"/>
       <use xlink:href="#DejaVuSans-2e" x="63.623047"/>
       <use xlink:href="#DejaVuSans-34" x="95.410156"/>
      </g>
     </g>
    </g>
    <g id="xtick_4">
     <g id="line2d_4">
      <g>
       <use xlink:href="#mc5430e4868" x="230.212138" y="109.7725" style="stroke: #000000; stroke-width: 0.8"/>
      </g>
     </g>
     <g id="text_4">
      <!-- 0.6 -->
      <g transform="translate(220.670263 125.890625)scale(0.12 -0.12)">
       <defs>
        <path id="DejaVuSans-36" d="M 2113 2584 
Q 1688 2584 1439 2293 
Q 1191 2003 1191 1497 
Q 1191 994 1439 701 
Q 1688 409 2113 409 
Q 2538 409 2786 701 
Q 3034 994 3034 1497 
Q 3034 2003 2786 2293 
Q 2538 2584 2113 2584 
z
M 3366 4563 
L 3366 3988 
Q 3128 4100 2886 4159 
Q 2644 4219 2406 4219 
Q 1781 4219 1451 3797 
Q 1122 3375 1075 2522 
Q 1259 2794 1537 2939 
Q 1816 3084 2150 3084 
Q 2853 3084 3261 2657 
Q 3669 2231 3669 1497 
Q 3669 778 3244 343 
Q 2819 -91 2113 -91 
Q 1303 -91 875 529 
Q 447 1150 447 2328 
Q 447 3434 972 4092 
Q 1497 4750 2381 4750 
Q 2619 4750 2861 4703 
Q 3103 4656 3366 4563 
z
" transform="scale(0.015625)"/>
       </defs>
       <use xlink:href="#DejaVuSans-30"/>
       <use xlink:href="#DejaVuSans-2e" x="63.623047"/>
       <use xlink:href="#DejaVuSans-36" x="95.410156"/>
      </g>
     </g>
    </g>
    <g id="text_5">
     <!-- Time (s) -->
     <g transform="translate(142.4575 141.504375)scale(0.12 -0.12)">
      <defs>
       <path id="DejaVuSans-54" d="M -19 4666 
L 3928 4666 
L 3928 4134 
L 2272 4134 
L 2272 0 
L 1638 0 
L 1638 4134 
L -19 4134 
L -19 4666 
z
" transform="scale(0.015625)"/>
       <path id="DejaVuSans-69" d="M 603 3500 
L 1178 3500 
L 1178 0 
L 603 0 
L 603 3500 
z
M 603 4863 
L 1178 4863 
L 1178 4134 
L 603 4134 
L 603 4863 
z
" transform="scale(0.015625)"/>
       <path id="DejaVuSans-6d" d="M 3328 2828 
Q 3544 3216 3844 3400 
Q 4144 3584 4550 3584 
Q 5097 3584 5394 3201 
Q 5691 2819 5691 2113 
L 5691 0 
L 5113 0 
L 5113 2094 
Q 5113 2597 4934 2840 
Q 4756 3084 4391 3084 
Q 3944 3084 3684 2787 
Q 3425 2491 3425 1978 
L 3425 0 
L 2847 0 
L 2847 2094 
Q 2847 2600 2669 2842 
Q 2491 3084 2119 3084 
Q 1678 3084 1418 2786 
Q 1159 2488 1159 1978 
L 1159 0 
L 581 0 
L 581 3500 
L 1159 3500 
L 1159 2956 
Q 1356 3278 1631 3431 
Q 1906 3584 2284 3584 
Q 2666 3584 2933 3390 
Q 3200 3197 3328 2828 
z
" transform="scale(0.015625)"/>
       <path id="DejaVuSans-65" d="M 3597 1894 
L 3597 1613 
L 953 1613 
Q 991 1019 1311 708 
Q 1631 397 2203 397 
Q 2534 397 2845 478 
Q 3156 559 3463 722 
L 3463 178 
Q 3153 47 2828 -22 
Q 2503 -91 2169 -91 
Q 1331 -91 842 396 
Q 353 884 353 1716 
Q 353 2575 817 3079 
Q 1281 3584 2069 3584 
Q 2775 3584 3186 3129 
Q 3597 2675 3597 1894 
z
M 3022 2063 
Q 3016 2534 2758 2815 
Q 2500 3097 2075 3097 
Q 1594 3097 1305 2825 
Q 1016 2553 972 2059 
L 3022 2063 
z
" transform="scale(0.015625)"/>
       <path id="DejaVuSans-20" transform="scale(0.015625)"/>
       <path id="DejaVuSans-28" d="M 1984 4856 
Q 1566 4138 1362 3434 
Q 1159 2731 1159 2009 
Q 1159 1288 1364 580 
Q 1569 -128 1984 -844 
L 1484 -844 
Q 1016 -109 783 600 
Q 550 1309 550 2009 
Q 550 2706 781 3412 
Q 1013 4119 1484 4856 
L 1984 4856 
z
" transform="scale(0.015625)"/>
       <path id="DejaVuSans-73" d="M 2834 3397 
L 2834 2853 
Q 2591 2978 2328 3040 
Q 2066 3103 1784 3103 
Q 1356 3103 1142 2972 
Q 928 2841 928 2578 
Q 928 2378 1081 2264 
Q 1234 2150 1697 2047 
L 1894 2003 
Q 2506 1872 2764 1633 
Q 3022 1394 3022 966 
Q 3022 478 2636 193 
Q 2250 -91 1575 -91 
Q 1294 -91 989 -36 
Q 684 19 347 128 
L 347 722 
Q 666 556 975 473 
Q 1284 391 1588 391 
Q 1994 391 2212 530 
Q 2431 669 2431 922 
Q 2431 1156 2273 1281 
Q 2116 1406 1581 1522 
L 1381 1569 
Q 847 1681 609 1914 
Q 372 2147 372 2553 
Q 372 3047 722 3315 
Q 1072 3584 1716 3584 
Q 2034 3584 2315 3537 
Q 2597 3491 2834 3397 
z
" transform="scale(0.015625)"/>
       <path id="DejaVuSans-29" d="M 513 4856 
L 1013 4856 
Q 1481 4119 1714 3412 
Q 1947 2706 1947 2009 
Q 1947 1309 1714 600 
Q 1481 -109 1013 -844 
L 513 -844 
Q 928 -128 1133 580 
Q 1338 1288 1338 2009 
Q 1338 2731 1133 3434 
Q 928 4138 513 4856 
z
" transform="scale(0.015625)"/>
      </defs>
      <use xlink:href="#DejaVuSans-54"/>
      <use xlink:href="#DejaVuSans-69" x="57.958984"/>
      <use xlink:href="#DejaVuSans-6d" x="85.742188"/>
      <use xlink:href="#DejaVuSans-65" x="183.154297"/>
      <use xlink:href="#DejaVuSans-20" x="244.677734"/>
      <use xlink:href="#DejaVuSans-28" x="276.464844"/>
      <use xlink:href="#DejaVuSans-73" x="315.478516"/>
      <use xlink:href="#DejaVuSans-29" x="367.578125"/>
     </g>
    </g>
   </g>
   <g id="matplotlib.axis_2">
    <g id="ytick_1">
     <g id="line2d_5">
      <defs>
       <path id="m868f52267a" d="M 0 0 
L -3.5 0 
" style="stroke: #000000; stroke-width: 0.8"/>
      </defs>
      <g>
       <use xlink:href="#m868f52267a" x="51.104375" y="109.7725" style="stroke: #000000; stroke-width: 0.8"/>
      </g>
     </g>
     <g id="text_6">
      <!-- −2 -->
      <g transform="translate(26.41375 114.331562)scale(0.12 -0.12)">
       <defs>
        <path id="DejaVuSans-2212" d="M 678 2272 
L 4684 2272 
L 4684 1741 
L 678 1741 
L 678 2272 
z
" transform="scale(0.015625)"/>
       </defs>
       <use xlink:href="#DejaVuSans-2212"/>
       <use xlink:href="#DejaVuSans-32" x="83.789062"/>
      </g>
     </g>
    </g>
    <g id="ytick_2">
     <g id="line2d_6">
      <g>
       <use xlink:href="#m868f52267a" x="51.104375" y="86.169141" style="stroke: #000000; stroke-width: 0.8"/>
      </g>
     </g>
     <g id="text_7">
      <!-- −1 -->
      <g transform="translate(26.41375 90.728203)scale(0.12 -0.12)">
       <defs>
        <path id="DejaVuSans-31" d="M 794 531 
L 1825 531 
L 1825 4091 
L 703 3866 
L 703 4441 
L 1819 4666 
L 2450 4666 
L 2450 531 
L 3481 531 
L 3481 0 
L 794 0 
L 794 531 
z
" transform="scale(0.015625)"/>
       </defs>
       <use xlink:href="#DejaVuSans-2212"/>
       <use xlink:href="#DejaVuSans-31" x="83.789062"/>
      </g>
     </g>
    </g>
    <g id="ytick_3">
     <g id="line2d_7">
      <g>
       <use xlink:href="#m868f52267a" x="51.104375" y="62.565781" style="stroke: #000000; stroke-width: 0.8"/>
      </g>
     </g>
     <g id="text_8">
      <!-- 0 -->
      <g transform="translate(36.469375 67.124844)scale(0.12 -0.12)">
       <use xlink:href="#DejaVuSans-30"/>
      </g>
     </g>
    </g>
    <g id="ytick_4">
     <g id="line2d_8">
      <g>
       <use xlink:href="#m868f52267a" x="51.104375" y="38.962422" style="stroke: #000000; stroke-width: 0.8"/>
      </g>
     </g>
     <g id="text_9">
      <!-- 1 -->
      <g transform="translate(36.469375 43.521484)scale(0.12 -0.12)">
       <use xlink:href="#DejaVuSans-31"/>
      </g>
     </g>
    </g>
    <g id="ytick_5">
     <g id="line2d_9">
      <g>
       <use xlink:href="#m868f52267a" x="51.104375" y="15.359062" style="stroke: #000000; stroke-width: 0.8"/>
      </g>
     </g>
     <g id="text_10">
      <!-- 2 -->
      <g transform="translate(36.469375 19.918125)scale(0.12 -0.12)">
       <use xlink:href="#DejaVuSans-32"/>
      </g>
     </g>
    </g>
    <g id="text_11">
     <!-- x -->
     <g transform="translate(19.918125 66.117031)rotate(-90)scale(0.12 -0.12)">
      <defs>
       <path id="DejaVuSans-78" d="M 3513 3500 
L 2247 1797 
L 3578 0 
L 2900 0 
L 1881 1375 
L 863 0 
L 184 0 
L 1544 1831 
L 300 3500 
L 978 3500 
L 1906 2253 
L 2834 3500 
L 3513 3500 
z
" transform="scale(0.015625)"/>
      </defs>
      <use xlink:href="#DejaVuSans-78"/>
     </g>
    </g>
   </g>
   <g id="line2d_10">
    <path d="M 61.626903 31.881414 
L 62.188854 31.712454 
L 62.750805 31.722842 
L 63.312756 31.885921 
L 64.155682 32.435104 
L 65.279583 33.485916 
L 66.68446 35.162601 
L 68.370313 37.542376 
L 69.77519 39.724775 
L 71.461042 42.921312 
L 73.146894 46.640277 
L 76.518599 54.953808 
L 79.609328 63.31178 
L 83.823959 75.20318 
L 85.509812 79.039557 
L 88.319566 84.599445 
L 90.848344 89.164297 
L 91.972246 90.571806 
L 93.096147 91.57035 
L 94.220049 92.304243 
L 95.905901 93.096041 
L 97.310778 93.58025 
L 97.872729 93.569615 
L 98.715655 93.282172 
L 99.558581 92.664947 
L 100.682483 91.549498 
L 102.08736 89.816234 
L 104.054188 87.004781 
L 105.459064 84.679356 
L 106.863941 81.954974 
L 108.549794 78.199515 
L 111.078572 72.010378 
L 114.169302 63.920373 
L 119.226859 49.629613 
L 121.193686 45.249431 
L 124.284416 39.259359 
L 126.532219 35.39022 
L 127.65612 34.148163 
L 128.780022 33.257397 
L 130.184899 32.464192 
L 132.151727 31.654498 
L 132.713677 31.530307 
L 133.275628 31.576613 
L 133.837579 31.768054 
L 134.680505 32.349038 
L 135.804407 33.427785 
L 137.209284 35.125613 
L 138.895136 37.518063 
L 140.300013 39.70379 
L 141.985865 42.901624 
L 143.671718 46.620256 
L 147.043422 54.933871 
L 150.134152 63.28914 
L 154.348783 75.18554 
L 156.034635 79.023949 
L 158.844389 84.585934 
L 161.654143 89.552651 
L 162.778044 90.846441 
L 163.901946 91.769882 
L 165.306823 92.593109 
L 167.273651 93.418095 
L 168.116577 93.599062 
L 168.959503 93.41809 
L 169.521454 93.112437 
L 170.645355 92.157188 
L 172.050232 90.563252 
L 174.01706 87.824824 
L 175.421937 85.682809 
L 177.107789 82.562258 
L 179.074617 78.220693 
L 181.884371 71.322736 
L 184.694125 63.946712 
L 189.751682 49.652998 
L 191.71851 45.269708 
L 194.809239 39.275937 
L 197.057042 35.401504 
L 198.180944 34.156092 
L 199.304845 33.263196 
L 200.709722 32.468206 
L 202.67655 31.657444 
L 203.238501 31.530853 
L 203.800451 31.574869 
L 204.362402 31.764441 
L 205.205328 32.342793 
L 206.32923 33.419568 
L 207.734107 35.116859 
L 209.419959 37.508255 
L 210.824836 39.691661 
L 212.510689 42.887348 
L 214.196541 46.604273 
L 217.568246 54.917019 
L 220.658975 63.269747 
L 224.873606 75.170482 
L 226.559458 79.01069 
L 229.369212 84.574491 
L 232.178966 89.543725 
L 233.302868 90.840092 
L 234.426769 91.76525 
L 235.831646 92.589895 
L 237.798474 93.415829 
L 238.6414 93.598949 
L 239.484326 93.420675 
L 240.046277 93.117105 
L 241.170179 92.163694 
L 242.575055 90.572024 
L 244.541883 87.834922 
L 245.94676 85.694847 
L 247.351637 83.153235 
L 249.318465 78.902962 
L 252.409194 71.342342 
L 255.218948 63.968077 
L 260.276505 49.671544 
L 262.243333 45.285672 
L 265.334062 39.288943 
L 267.581865 35.410396 
L 268.705767 34.162341 
L 269.829668 33.267772 
L 271.234545 32.471358 
L 272.077472 32.093816 
L 272.077472 32.093816 
" clip-path="url(#p43cd3552c7)" style="fill: none; stroke: #1f77b4; stroke-width: 1.5; stroke-linecap: square"/>
   </g>
   <g id="line2d_11">
    <path d="M 61.626903 62.565781 
L 63.593731 57.14216 
L 65.841534 51.337572 
L 69.494214 42.465832 
L 70.899091 39.915597 
L 72.584944 37.342722 
L 75.113722 33.905569 
L 76.237624 32.542549 
L 77.08055 31.921055 
L 77.923476 31.623373 
L 78.766402 31.593358 
L 79.609328 31.792632 
L 80.73323 32.259342 
L 82.700058 33.403293 
L 83.542984 34.077841 
L 84.38591 35.034993 
L 85.790787 37.059913 
L 87.195664 39.454333 
L 90.286393 45.401805 
L 91.972246 49.365604 
L 95.34395 58.029392 
L 100.682483 72.727637 
L 104.616138 82.354394 
L 106.021015 84.955056 
L 107.706868 87.553955 
L 110.235646 91.010233 
L 111.640523 92.697149 
L 112.483449 93.264567 
L 113.326375 93.522396 
L 114.169302 93.516327 
L 115.293203 93.193454 
L 116.417105 92.648709 
L 118.102957 91.641866 
L 118.945883 90.921926 
L 119.788809 89.932589 
L 121.193686 87.863428 
L 122.598563 85.428064 
L 125.127342 80.657097 
L 126.813194 76.820079 
L 130.465874 67.4969 
L 136.085382 52.028699 
L 140.019038 42.473321 
L 141.423915 39.922775 
L 143.109767 37.350934 
L 145.638545 33.914235 
L 147.043422 32.295035 
L 147.886349 31.794107 
L 148.729275 31.582483 
L 149.572201 31.635851 
L 150.696102 31.993762 
L 152.100979 32.716146 
L 153.786832 33.816731 
L 154.629758 34.67408 
L 155.75366 36.19423 
L 157.439512 38.915192 
L 160.811217 45.384438 
L 162.497069 49.346108 
L 165.868774 58.007258 
L 171.207306 72.708176 
L 175.140962 82.336875 
L 176.545839 84.940541 
L 178.512666 87.944954 
L 180.760469 90.999076 
L 182.165346 92.688776 
L 183.008273 93.260211 
L 183.851199 93.52103 
L 184.694125 93.517774 
L 185.818026 93.196543 
L 186.941928 92.653845 
L 188.62778 91.648632 
L 189.470707 90.932095 
L 190.313633 89.944297 
L 191.71851 87.879169 
L 193.123387 85.447059 
L 195.652165 80.674819 
L 197.338017 76.84092 
L 200.990698 67.519382 
L 206.610205 52.048335 
L 210.543861 42.487371 
L 211.948738 39.933665 
L 213.63459 37.360596 
L 216.163369 33.922736 
L 217.568246 32.300079 
L 218.411172 31.796564 
L 219.254098 31.58283 
L 220.097024 31.634328 
L 221.220926 31.990888 
L 222.625803 32.71236 
L 224.311655 33.811855 
L 225.154581 34.666717 
L 226.278483 36.184297 
L 227.964335 38.904531 
L 231.33604 45.369786 
L 233.021892 49.329872 
L 236.393597 57.988835 
L 241.732129 72.692271 
L 245.665785 82.322192 
L 247.070662 84.928507 
L 249.037489 87.934617 
L 251.285293 90.990025 
L 252.69017 92.681947 
L 253.533096 93.256622 
L 254.376022 93.519904 
L 255.218948 93.518912 
L 256.34285 93.19896 
L 257.466751 92.657927 
L 259.152604 91.653916 
L 259.99553 90.940126 
L 260.838456 89.953579 
L 262.243333 87.891519 
L 263.64821 85.461904 
L 266.176988 80.688669 
L 267.862841 76.857299 
L 271.515521 67.537033 
L 272.077472 65.943713 
L 272.077472 65.943713 
" clip-path="url(#p43cd3552c7)" style="fill: none; stroke: #ff7f0e; stroke-width: 1.5; stroke-linecap: square"/>
   </g>
   <g id="line2d_12">
    <path d="M 61.626903 31.881414 
L 62.35861 31.947112 
L 63.090317 32.143923 
L 63.822024 32.471006 
L 64.55373 32.926959 
L 65.285437 33.509829 
L 66.017144 34.217122 
L 66.748851 35.045809 
L 67.480557 35.99234 
L 68.212264 37.052662 
L 68.943971 38.222236 
L 69.675678 39.496053 
L 70.407384 40.868657 
L 71.139091 42.334172 
L 71.870798 43.886322 
L 72.602505 45.51846 
L 73.334211 47.223598 
L 74.065918 48.994433 
L 74.797625 50.823382 
L 75.529332 52.702615 
L 76.261038 54.624083 
L 76.992745 56.579558 
L 77.724452 58.560668 
L 78.456159 60.558928 
L 79.187865 62.565781 
L 79.919572 64.572635 
L 80.651279 66.570895 
L 81.382986 68.552004 
L 82.114692 70.50748 
L 82.846399 72.428948 
L 83.578106 74.30818 
L 84.309813 76.13713 
L 85.041519 77.907965 
L 85.773226 79.613102 
L 86.504933 81.24524 
L 87.23664 82.79739 
L 87.968346 84.262905 
L 88.700053 85.63551 
L 89.43176 86.909326 
L 90.163467 88.0789 
L 90.895173 89.139223 
L 91.62688 90.085754 
L 92.358587 90.91444 
L 93.090294 91.621733 
L 93.822 92.204604 
L 94.553707 92.660557 
L 95.285414 92.987639 
L 96.017121 93.184451 
L 96.748827 93.250148 
L 97.480534 93.184451 
L 98.212241 92.987639 
L 98.943948 92.660557 
L 99.675654 92.204604 
L 100.407361 91.621733 
L 101.139068 90.91444 
L 101.870775 90.085754 
L 102.602481 89.139223 
L 103.334188 88.0789 
L 104.065895 86.909326 
L 104.797602 85.63551 
L 105.529308 84.262905 
L 106.261015 82.79739 
L 106.992722 81.24524 
L 107.724429 79.613102 
L 108.456135 77.907965 
L 109.187842 76.13713 
L 109.919549 74.30818 
L 110.651256 72.428948 
L 111.382962 70.50748 
L 112.114669 68.552004 
L 112.846376 66.570895 
L 113.578083 64.572635 
L 114.309789 62.565781 
L 115.041496 60.558928 
L 115.773203 58.560668 
L 116.50491 56.579558 
L 117.236616 54.624083 
L 117.968323 52.702615 
L 118.70003 50.823382 
L 119.431737 48.994433 
L 120.163443 47.223598 
L 120.89515 45.51846 
L 121.626857 43.886322 
L 122.358564 42.334172 
L 123.09027 40.868657 
L 123.821977 39.496053 
L 124.553684 38.222236 
L 125.285391 37.052662 
L 126.017097 35.99234 
L 126.748804 35.045809 
L 127.480511 34.217122 
L 128.212218 33.509829 
L 128.943924 32.926959 
L 129.675631 32.471006 
L 130.407338 32.143923 
L 131.139045 31.947112 
" clip-path="url(#p43cd3552c7)" style="fill: none; stroke-dasharray: 5.55,2.4; stroke-dashoffset: 0; stroke: #000000; stroke-width: 1.5"/>
   </g>
   <g id="line2d_13">
    <path d="M 61.626903 62.565781 
L 62.35861 60.558928 
L 63.090317 58.560668 
L 63.822024 56.579558 
L 64.55373 54.624083 
L 65.285437 52.702615 
L 66.017144 50.823382 
L 66.748851 48.994433 
L 67.480557 47.223598 
L 68.212264 45.51846 
L 68.943971 43.886322 
L 69.675678 42.334172 
L 70.407384 40.868657 
L 71.139091 39.496053 
L 71.870798 38.222236 
L 72.602505 37.052662 
L 73.334211 35.99234 
L 74.065918 35.045809 
L 74.797625 34.217122 
L 75.529332 33.509829 
L 76.261038 32.926959 
L 76.992745 32.471006 
L 77.724452 32.143923 
L 78.456159 31.947112 
L 79.187865 31.881414 
L 79.919572 31.947112 
L 80.651279 32.143923 
L 81.382986 32.471006 
L 82.114692 32.926959 
L 82.846399 33.509829 
L 83.578106 34.217122 
L 84.309813 35.045809 
L 85.041519 35.99234 
L 85.773226 37.052662 
L 86.504933 38.222236 
L 87.23664 39.496053 
L 87.968346 40.868657 
L 88.700053 42.334172 
L 89.43176 43.886322 
L 90.163467 45.51846 
L 90.895173 47.223598 
L 91.62688 48.994433 
L 92.358587 50.823382 
L 93.090294 52.702615 
L 93.822 54.624083 
L 94.553707 56.579558 
L 95.285414 58.560668 
L 96.017121 60.558928 
L 96.748827 62.565781 
L 97.480534 64.572635 
L 98.212241 66.570895 
L 98.943948 68.552004 
L 99.675654 70.50748 
L 100.407361 72.428948 
L 101.139068 74.30818 
L 101.870775 76.13713 
L 102.602481 77.907965 
L 103.334188 79.613102 
L 104.065895 81.24524 
L 104.797602 82.79739 
L 105.529308 84.262905 
L 106.261015 85.63551 
L 106.992722 86.909326 
L 107.724429 88.0789 
L 108.456135 89.139223 
L 109.187842 90.085754 
L 109.919549 90.91444 
L 110.651256 91.621733 
L 111.382962 92.204604 
L 112.114669 92.660557 
L 112.846376 92.987639 
L 113.578083 93.184451 
L 114.309789 93.250148 
L 115.041496 93.184451 
L 115.773203 92.987639 
L 116.50491 92.660557 
L 117.236616 92.204604 
L 117.968323 91.621733 
L 118.70003 90.91444 
L 119.431737 90.085754 
L 120.163443 89.139223 
L 120.89515 88.0789 
L 121.626857 86.909326 
L 122.358564 85.63551 
L 123.09027 84.262905 
L 123.821977 82.79739 
L 124.553684 81.24524 
L 125.285391 79.613102 
L 126.017097 77.907965 
L 126.748804 76.13713 
L 127.480511 74.30818 
L 128.212218 72.428948 
L 128.943924 70.50748 
L 129.675631 68.552004 
L 130.407338 66.570895 
L 131.139045 64.572635 
" clip-path="url(#p43cd3552c7)" style="fill: none; stroke-dasharray: 5.55,2.4; stroke-dashoffset: 0; stroke: #000000; stroke-width: 1.5"/>
   </g>
   <g id="patch_3">
    <path d="M 51.104375 109.7725 
L 51.104375 15.359062 
" style="fill: none; stroke: #000000; stroke-width: 0.8; stroke-linejoin: miter; stroke-linecap: square"/>
   </g>
   <g id="patch_4">
    <path d="M 282.6 109.7725 
L 282.6 15.359062 
" style="fill: none; stroke: #000000; stroke-width: 0.8; stroke-linejoin: miter; stroke-linecap: square"/>
   </g>
   <g id="patch_5">
    <path d="M 51.104375 109.7725 
L 282.6 109.7725 
" style="fill: none; stroke: #000000; stroke-width: 0.8; stroke-linejoin: miter; stroke-linecap: square"/>
   </g>
   <g id="patch_6">
    <path d="M 51.104375 15.359062 
L 282.6 15.359062 
" style="fill: none; stroke: #000000; stroke-width: 0.8; stroke-linejoin: miter; stroke-linecap: square"/>
   </g>
  </g>
  <g id="axes_2">
   <g id="patch_7">
    <path d="M 333.704375 109.7725 
L 565.2 109.7725 
L 565.2 15.359062 
L 333.704375 15.359062 
z
" style="fill: #ffffff"/>
   </g>
   <g id="PathCollection_1">
    <defs>
     <path id="mf74b847892" d="M -0 3 
L 3 -3 
L -3 -3 
z
" style="stroke: #000000"/>
    </defs>
    <g clip-path="url(#p1e5c719d19)">
     <use xlink:href="#mf74b847892" x="396.909789" y="24.800406" style="stroke: #000000"/>
    </g>
   </g>
   <g id="matplotlib.axis_3">
    <g id="xtick_5">
     <g id="line2d_14">
      <g>
       <use xlink:href="#mc5430e4868" x="344.226903" y="109.7725" style="stroke: #000000; stroke-width: 0.8"/>
      </g>
     </g>
     <g id="text_12">
      <!-- 0.0 -->
      <g transform="translate(334.685028 125.890625)scale(0.12 -0.12)">
       <use xlink:href="#DejaVuSans-30"/>
       <use xlink:href="#DejaVuSans-2e" x="63.623047"/>
       <use xlink:href="#DejaVuSans-30" x="95.410156"/>
      </g>
     </g>
    </g>
    <g id="xtick_6">
     <g id="line2d_15">
      <g>
       <use xlink:href="#mc5430e4868" x="400.421982" y="109.7725" style="stroke: #000000; stroke-width: 0.8"/>
      </g>
     </g>
     <g id="text_13">
      <!-- 0.2 -->
      <g transform="translate(390.880107 125.890625)scale(0.12 -0.12)">
       <use xlink:href="#DejaVuSans-30"/>
       <use xlink:href="#DejaVuSans-2e" x="63.623047"/>
       <use xlink:href="#DejaVuSans-32" x="95.410156"/>
      </g>
     </g>
    </g>
    <g id="xtick_7">
     <g id="line2d_16">
      <g>
       <use xlink:href="#mc5430e4868" x="456.61706" y="109.7725" style="stroke: #000000; stroke-width: 0.8"/>
      </g>
     </g>
     <g id="text_14">
      <!-- 0.4 -->
      <g transform="translate(447.075185 125.890625)scale(0.12 -0.12)">
       <use xlink:href="#DejaVuSans-30"/>
       <use xlink:href="#DejaVuSans-2e" x="63.623047"/>
       <use xlink:href="#DejaVuSans-34" x="95.410156"/>
      </g>
     </g>
    </g>
    <g id="xtick_8">
     <g id="line2d_17">
      <g>
       <use xlink:href="#mc5430e4868" x="512.812138" y="109.7725" style="stroke: #000000; stroke-width: 0.8"/>
      </g>
     </g>
     <g id="text_15">
      <!-- 0.6 -->
      <g transform="translate(503.270263 125.890625)scale(0.12 -0.12)">
       <use xlink:href="#DejaVuSans-30"/>
       <use xlink:href="#DejaVuSans-2e" x="63.623047"/>
       <use xlink:href="#DejaVuSans-36" x="95.410156"/>
      </g>
     </g>
    </g>
    <g id="text_16">
     <!-- Time (s) -->
     <g transform="translate(425.0575 141.504375)scale(0.12 -0.12)">
      <use xlink:href="#DejaVuSans-54"/>
      <use xlink:href="#DejaVuSans-69" x="57.958984"/>
      <use xlink:href="#DejaVuSans-6d" x="85.742188"/>
      <use xlink:href="#DejaVuSans-65" x="183.154297"/>
      <use xlink:href="#DejaVuSans-20" x="244.677734"/>
      <use xlink:href="#DejaVuSans-28" x="276.464844"/>
      <use xlink:href="#DejaVuSans-73" x="315.478516"/>
      <use xlink:href="#DejaVuSans-29" x="367.578125"/>
     </g>
    </g>
   </g>
   <g id="matplotlib.axis_4">
    <g id="ytick_6">
     <g id="line2d_18">
      <g>
       <use xlink:href="#m868f52267a" x="333.704375" y="109.7725" style="stroke: #000000; stroke-width: 0.8"/>
      </g>
     </g>
     <g id="text_17">
      <!-- −2 -->
      <g transform="translate(309.01375 114.331562)scale(0.12 -0.12)">
       <use xlink:href="#DejaVuSans-2212"/>
       <use xlink:href="#DejaVuSans-32" x="83.789062"/>
      </g>
     </g>
    </g>
    <g id="ytick_7">
     <g id="line2d_19">
      <g>
       <use xlink:href="#m868f52267a" x="333.704375" y="86.169141" style="stroke: #000000; stroke-width: 0.8"/>
      </g>
     </g>
     <g id="text_18">
      <!-- −1 -->
      <g transform="translate(309.01375 90.728203)scale(0.12 -0.12)">
       <use xlink:href="#DejaVuSans-2212"/>
       <use xlink:href="#DejaVuSans-31" x="83.789062"/>
      </g>
     </g>
    </g>
    <g id="ytick_8">
     <g id="line2d_20">
      <g>
       <use xlink:href="#m868f52267a" x="333.704375" y="62.565781" style="stroke: #000000; stroke-width: 0.8"/>
      </g>
     </g>
     <g id="text_19">
      <!-- 0 -->
      <g transform="translate(319.069375 67.124844)scale(0.12 -0.12)">
       <use xlink:href="#DejaVuSans-30"/>
      </g>
     </g>
    </g>
    <g id="ytick_9">
     <g id="line2d_21">
      <g>
       <use xlink:href="#m868f52267a" x="333.704375" y="38.962422" style="stroke: #000000; stroke-width: 0.8"/>
      </g>
     </g>
     <g id="text_20">
      <!-- 1 -->
      <g transform="translate(319.069375 43.521484)scale(0.12 -0.12)">
       <use xlink:href="#DejaVuSans-31"/>
      </g>
     </g>
    </g>
    <g id="ytick_10">
     <g id="line2d_22">
      <g>
       <use xlink:href="#m868f52267a" x="333.704375" y="15.359062" style="stroke: #000000; stroke-width: 0.8"/>
      </g>
     </g>
     <g id="text_21">
      <!-- 2 -->
      <g transform="translate(319.069375 19.918125)scale(0.12 -0.12)">
       <use xlink:href="#DejaVuSans-32"/>
      </g>
     </g>
    </g>
    <g id="text_22">
     <!-- x -->
     <g transform="translate(302.518125 66.117031)rotate(-90)scale(0.12 -0.12)">
      <use xlink:href="#DejaVuSans-78"/>
     </g>
    </g>
   </g>
   <g id="line2d_23">
    <path d="M 344.226903 31.881414 
L 344.788854 31.712454 
L 345.350805 31.722842 
L 345.912756 31.885921 
L 346.755682 32.435104 
L 347.879583 33.485916 
L 349.28446 35.162601 
L 350.970313 37.542376 
L 352.37519 39.724775 
L 354.061042 42.921312 
L 355.746894 46.640277 
L 359.118599 54.953808 
L 362.209328 63.31178 
L 366.423959 75.20318 
L 368.109812 79.039557 
L 370.919566 84.599445 
L 373.448344 89.164297 
L 374.572246 90.571806 
L 375.696147 91.57035 
L 376.820049 92.304243 
L 378.505901 93.096041 
L 379.910778 93.58025 
L 380.472729 93.569615 
L 381.315655 93.282172 
L 382.158581 92.664947 
L 383.282483 91.549498 
L 384.68736 89.816234 
L 386.654188 87.004781 
L 388.059064 84.679356 
L 389.463941 81.954974 
L 391.149794 78.199515 
L 393.678572 72.010378 
L 396.769302 63.920373 
L 397.050277 74.91212 
L 398.455154 69.8982 
L 400.702957 63.323479 
L 403.793686 54.466911 
L 405.760514 49.366487 
L 407.727342 45.114832 
L 410.818071 39.224867 
L 413.065874 35.381453 
L 414.189776 34.143341 
L 415.313677 33.255355 
L 416.718554 32.46411 
L 418.685382 31.656556 
L 419.247333 31.52825 
L 419.809284 31.570563 
L 420.371234 31.758702 
L 421.214161 32.334759 
L 422.338062 33.409945 
L 423.742939 35.106986 
L 425.428792 37.497445 
L 426.833668 39.678502 
L 428.519521 42.871659 
L 430.205373 46.586625 
L 433.577078 54.898146 
L 436.667807 63.247848 
L 440.882438 75.15354 
L 442.56829 78.995841 
L 445.378044 84.561703 
L 448.187798 89.533708 
L 449.3117 90.832992 
L 450.435601 91.760088 
L 451.840478 92.586299 
L 453.807306 93.413315 
L 454.650232 93.598792 
L 455.493158 93.423483 
L 456.055109 93.122107 
L 457.179011 92.17063 
L 458.583888 90.581465 
L 460.550715 87.846022 
L 462.236568 85.226502 
L 463.92242 82.005236 
L 465.608273 78.256636 
L 468.418026 71.363434 
L 471.22778 63.990771 
L 476.285337 49.690904 
L 478.252165 45.302223 
L 481.342894 39.302417 
L 483.590698 35.419693 
L 484.714599 34.168877 
L 485.838501 33.272567 
L 487.243378 32.474646 
L 489.210205 31.662302 
L 489.772156 31.531768 
L 490.334107 31.572138 
L 490.896058 31.758666 
L 491.738984 32.332449 
L 492.862885 33.405919 
L 494.267762 35.102187 
L 495.953615 37.491722 
L 497.358492 39.671348 
L 499.044344 42.86285 
L 500.730196 46.576603 
L 504.101901 54.887254 
L 507.19263 63.23512 
L 511.407261 75.143733 
L 513.093114 78.987278 
L 515.902868 84.554338 
L 518.712621 89.527927 
L 519.836523 90.828907 
L 520.960425 91.757125 
L 522.365302 92.584229 
L 524.332129 93.411873 
L 525.175055 93.598685 
L 526.017982 93.425072 
L 526.579932 93.124905 
L 527.703834 92.174486 
L 529.108711 90.586749 
L 531.075539 87.852359 
L 532.761391 85.234464 
L 534.447243 82.014508 
L 536.133096 78.267085 
L 538.94285 71.375194 
L 541.752604 64.003266 
L 546.810161 49.701453 
L 548.776988 45.311198 
L 551.867718 39.309737 
L 554.115521 35.424789 
L 554.677472 34.744283 
L 554.677472 34.744283 
" clip-path="url(#p1e5c719d19)" style="fill: none; stroke: #1f77b4; stroke-width: 1.5; stroke-linecap: square"/>
   </g>
   <g id="line2d_24">
    <path d="M 344.226903 62.565781 
L 346.193731 57.14216 
L 348.441534 51.337572 
L 352.094214 42.465832 
L 353.499091 39.915597 
L 355.184944 37.342722 
L 357.713722 33.905569 
L 358.837624 32.542549 
L 359.68055 31.921055 
L 360.523476 31.623373 
L 361.366402 31.593358 
L 362.209328 31.792632 
L 363.33323 32.259342 
L 365.300058 33.403293 
L 366.142984 34.077841 
L 366.98591 35.034993 
L 368.390787 37.059913 
L 369.795664 39.454333 
L 372.886393 45.401805 
L 374.572246 49.365604 
L 377.94395 58.029392 
L 383.282483 72.727637 
L 387.216138 82.354394 
L 388.621015 84.955056 
L 390.306868 87.553955 
L 392.835646 91.010233 
L 394.240523 92.697149 
L 395.083449 93.264567 
L 395.926375 93.522396 
L 396.769302 93.516327 
L 397.050277 105.261963 
L 397.893203 102.494152 
L 398.736129 100.347016 
L 399.860031 98.158107 
L 401.264908 96.021672 
L 402.669785 94.308424 
L 404.355637 92.595625 
L 405.479539 91.403758 
L 406.60344 89.852268 
L 408.289293 87.117236 
L 410.818071 82.385453 
L 412.222948 79.494952 
L 413.627825 76.171234 
L 417.280505 66.75575 
L 421.495136 54.932835 
L 425.709767 44.367065 
L 426.833668 41.943292 
L 428.238545 39.485937 
L 429.924398 36.967595 
L 432.453176 33.572239 
L 433.577078 32.305577 
L 434.420004 31.799165 
L 435.26293 31.583114 
L 436.105856 31.632516 
L 437.229758 31.987588 
L 438.634635 32.708077 
L 440.320487 33.806403 
L 441.163413 34.65847 
L 442.287315 36.173227 
L 443.973167 38.892663 
L 447.344872 45.353512 
L 449.030724 49.312085 
L 452.402429 57.968606 
L 458.021937 73.380155 
L 462.236568 83.423092 
L 463.641445 85.831132 
L 465.327297 88.324816 
L 467.5751 91.341367 
L 468.699002 92.674589 
L 469.541928 93.252705 
L 470.384854 93.518644 
L 471.22778 93.520054 
L 472.351682 93.201441 
L 473.475583 92.662168 
L 475.161436 91.659332 
L 476.004362 90.948494 
L 476.847288 89.963318 
L 478.252165 87.9043 
L 479.657042 85.477162 
L 482.185821 80.703048 
L 483.871673 76.874455 
L 487.524353 67.555498 
L 493.143861 52.081197 
L 497.077516 42.511026 
L 498.482393 39.952232 
L 500.168246 37.377122 
L 502.697024 33.937534 
L 504.101901 32.308719 
L 504.944827 31.800624 
L 505.787753 31.583255 
L 506.63068 31.631437 
L 507.754581 31.985658 
L 509.159458 32.705599 
L 510.845311 33.803269 
L 511.688237 34.653718 
L 512.812138 36.166874 
L 514.497991 38.885843 
L 517.869695 45.344204 
L 519.555548 49.302024 
L 522.927252 57.957117 
L 528.54676 73.370277 
L 532.761391 83.414602 
L 534.166268 85.824001 
L 535.85212 88.318567 
L 538.099923 91.335844 
L 539.223825 92.670465 
L 540.066751 93.250484 
L 540.909677 93.517906 
L 541.752604 93.52064 
L 542.876505 93.20277 
L 544.000407 92.66446 
L 545.686259 91.662231 
L 546.529185 90.953062 
L 547.372111 89.96867 
L 548.776988 87.911232 
L 550.181865 85.485386 
L 552.710644 80.710897 
L 554.396496 76.883894 
L 554.677472 76.18763 
L 554.677472 76.18763 
" clip-path="url(#p1e5c719d19)" style="fill: none; stroke: #ff7f0e; stroke-width: 1.5; stroke-linecap: square"/>
   </g>
   <g id="patch_8">
    <path d="M 333.704375 109.7725 
L 333.704375 15.359062 
" style="fill: none; stroke: #000000; stroke-width: 0.8; stroke-linejoin: miter; stroke-linecap: square"/>
   </g>
   <g id="patch_9">
    <path d="M 565.2 109.7725 
L 565.2 15.359062 
" style="fill: none; stroke: #000000; stroke-width: 0.8; stroke-linejoin: miter; stroke-linecap: square"/>
   </g>
   <g id="patch_10">
    <path d="M 333.704375 109.7725 
L 565.2 109.7725 
" style="fill: none; stroke: #000000; stroke-width: 0.8; stroke-linejoin: miter; stroke-linecap: square"/>
   </g>
   <g id="patch_11">
    <path d="M 333.704375 15.359062 
L 565.2 15.359062 
" style="fill: none; stroke: #000000; stroke-width: 0.8; stroke-linejoin: miter; stroke-linecap: square"/>
   </g>
  </g>
 </g>
 <defs>
  <clipPath id="p43cd3552c7">
   <rect x="51.104375" y="15.359062" width="231.495625" height="94.413437"/>
  </clipPath>
  <clipPath id="p1e5c719d19">
   <rect x="333.704375" y="15.359062" width="231.495625" height="94.413437"/>
  </clipPath>
 </defs>
</svg>
