<?xml version="1.0" encoding="utf-8" standalone="no"?>
<!DOCTYPE svg PUBLIC "-//W3C//DTD SVG 1.1//EN"
  "http://www.w3.org/Graphics/SVG/1.1/DTD/svg11.dtd">
<svg xmlns:xlink="http://www.w3.org/1999/xlink" width="230.4pt" height="288pt" viewBox="0 0 230.4 288" xmlns="http://www.w3.org/2000/svg" version="1.1">
 <metadata>
  <rdf:RDF xmlns:dc="http://purl.org/dc/elements/1.1/" xmlns:cc="http://creativecommons.org/ns#" xmlns:rdf="http://www.w3.org/1999/02/22-rdf-syntax-ns#">
   <cc:Work>
    <dc:type rdf:resource="http://purl.org/dc/dcmitype/StillImage"/>
    <dc:date>2025-06-20T15:26:31.256417</dc:date>
    <dc:format>image/svg+xml</dc:format>
    <dc:creator>
     <cc:Agent>
      <dc:title>Matplotlib v3.5.2, https://matplotlib.org/</dc:title>
     </cc:Agent>
    </dc:creator>
   </cc:Work>
  </rdf:RDF>
 </metadata>
 <defs>
  <style type="text/css">*{stroke-linejoin: round; stroke-linecap: butt}</style>
 </defs>
 <g id="figure_1">
  <g id="patch_1">
   <path d="M 0 288 
L 230.4 288 
L 230.4 0 
L 0 0 
z
" style="fill: #ffffff"/>
  </g>
  <g id="axes_1">
   <g id="patch_2">
    <path d="M 62.553125 104.3725 
L 219.6 104.3725 
L 219.6 11.444617 
L 62.553125 11.444617 
z
" style="fill: #ffffff"/>
   </g>
   <g id="line2d_1">
    <path d="M 69.691619 56.322216 
L 69.977731 58.576996 
L 70.263843 59.356122 
L 70.549955 61.612655 
L 70.836067 65.450258 
L 71.122179 66.730274 
L 71.694403 66.018734 
L 71.980515 67.378555 
L 72.266627 65.29224 
L 73.124963 63.142334 
L 73.411075 65.339653 
L 73.983299 63.251247 
L 74.269411 63.370499 
L 74.555523 62.503279 
L 75.127747 67.934536 
L 75.413859 68.272934 
L 75.699971 68.381168 
L 75.986083 66.311492 
L 76.272195 67.65176 
L 76.558307 70.00023 
L 76.844419 69.81667 
L 77.130531 71.455126 
L 77.702755 70.40567 
L 77.988867 73.054198 
L 78.274979 73.752953 
L 78.561091 72.16478 
L 79.133315 67.745514 
L 79.419427 69.464062 
L 79.705539 68.952057 
L 79.991651 69.068865 
L 80.277763 74.12796 
L 80.563875 74.829158 
L 80.849987 77.61736 
L 81.136099 77.213191 
L 81.422211 79.73502 
L 81.708323 80.893987 
L 81.994435 81.079029 
L 82.566659 85.745525 
L 82.852771 85.990475 
L 83.711107 90.611708 
L 84.283331 96.10424 
L 84.569443 97.031188 
L 84.855555 97.286256 
L 86.286115 88.581467 
L 86.572227 89.056722 
L 86.858339 90.824727 
L 87.144451 90.708219 
L 87.716675 93.780111 
L 88.002787 93.640313 
L 88.288899 95.550342 
L 88.575011 94.27608 
L 88.861123 94.498961 
L 89.147235 92.962762 
L 89.433347 95.027074 
L 90.005571 91.481025 
L 90.291683 91.941497 
L 90.863907 88.802742 
L 91.150019 87.578105 
L 91.436131 85.31684 
L 91.722243 89.475088 
L 92.008355 90.780346 
L 92.294467 89.851181 
L 92.580579 89.573491 
L 92.866691 89.934765 
L 93.438915 93.046869 
L 93.725027 93.736318 
L 94.011139 93.655266 
L 94.297251 94.065411 
L 94.583363 94.755548 
L 94.869475 95.115183 
L 95.155587 96.87091 
L 95.441699 99.983263 
L 95.727811 98.643555 
L 96.300035 100.148505 
L 96.872259 95.740388 
L 97.158371 96.837401 
L 97.444483 97.255387 
L 97.730595 98.304401 
L 98.016707 97.827858 
L 98.302819 97.814194 
L 98.588931 98.407431 
L 98.875043 95.017392 
L 99.161155 94.026721 
L 99.447267 92.625935 
L 99.733379 92.051684 
L 100.019491 91.838912 
L 100.305603 89.229658 
L 100.591715 92.245192 
L 100.877827 91.98609 
L 101.163939 92.404012 
L 101.450051 92.237914 
L 101.736163 92.919865 
L 102.022275 95.39007 
L 102.308387 94.635146 
L 102.594499 94.873217 
L 102.880611 94.22038 
L 103.166723 95.028823 
L 103.452835 93.759036 
L 103.738947 93.248206 
L 104.025059 93.768143 
L 104.311171 93.530205 
L 104.597283 96.517611 
L 104.883395 92.836493 
L 105.169507 94.800424 
L 105.455619 93.0699 
L 105.741731 93.491172 
L 106.313955 94.911657 
L 106.600067 93.343724 
L 106.886179 92.693052 
L 107.172291 98.247731 
L 107.458403 97.852661 
L 107.744515 95.708445 
L 108.030627 97.38904 
L 108.316739 98.009211 
L 109.175075 93.300004 
L 109.461187 94.235738 
L 109.747299 94.400387 
L 110.033411 95.744533 
L 110.891747 93.179628 
L 111.177859 89.731359 
L 111.463971 89.464591 
L 111.750083 90.668948 
L 112.036195 90.484792 
L 112.322307 87.992294 
L 112.608419 89.414671 
L 112.894531 88.464274 
L 113.180643 92.342458 
L 113.752867 91.149047 
L 114.038979 91.879952 
L 114.897315 88.566888 
L 115.183427 85.173785 
L 115.469539 84.390073 
L 115.755651 84.966674 
L 116.041763 84.742581 
L 116.327875 86.315121 
L 116.613987 85.727042 
L 116.900099 85.397563 
L 117.186211 85.988745 
L 117.472323 88.264281 
L 118.044547 86.42658 
L 118.330659 86.80456 
L 118.616771 84.497691 
L 118.902883 84.272238 
L 119.188995 85.19315 
L 119.761219 84.832514 
L 120.047331 82.014933 
L 120.333443 80.91166 
L 120.619555 78.566119 
L 120.905667 77.682687 
L 121.191779 77.380325 
L 121.477891 78.984456 
L 122.050115 71.124165 
L 122.336227 70.121644 
L 122.622339 70.169228 
L 122.908451 70.983481 
L 123.194563 72.36733 
L 123.480675 72.793272 
L 124.052899 71.097669 
L 124.625123 69.552724 
L 124.911235 70.48052 
L 125.197347 67.773456 
L 125.483459 70.093096 
L 125.769571 67.928979 
L 126.055683 67.134424 
L 126.341795 68.922644 
L 126.627907 68.907629 
L 126.914019 69.545604 
L 127.200131 68.82294 
L 127.486243 67.532569 
L 127.772355 67.340226 
L 128.058467 67.456721 
L 128.344579 66.703983 
L 128.630691 67.392779 
L 128.916803 65.511477 
L 129.202915 64.563917 
L 129.489027 64.318108 
L 129.775139 64.236623 
L 130.061251 64.846275 
L 130.347363 66.789714 
L 130.633475 65.188971 
L 130.919587 64.914972 
L 131.491811 64.88377 
L 131.777923 63.596003 
L 132.064035 65.352578 
L 132.350147 65.092459 
L 132.636259 66.659791 
L 132.922371 68.85184 
L 133.208483 66.963812 
L 133.494595 66.560727 
L 133.780707 66.588701 
L 134.066819 64.080517 
L 134.639043 62.555525 
L 134.925155 62.5899 
L 135.211267 62.832602 
L 135.497379 61.911181 
L 135.783491 61.724604 
L 136.069603 59.218567 
L 136.355715 59.864328 
L 136.641827 62.529833 
L 136.927939 62.798989 
L 137.214051 64.036545 
L 137.500163 64.441396 
L 137.786275 63.91066 
L 138.358499 63.682289 
L 138.930723 59.516484 
L 139.216835 58.973586 
L 139.502947 60.951443 
L 139.789059 62.05078 
L 140.075171 62.232906 
L 140.361283 62.962023 
L 140.647395 59.559629 
L 140.933507 61.868875 
L 141.791842 63.695189 
L 142.077954 61.770393 
L 142.364066 61.654699 
L 142.650178 62.253548 
L 142.93629 60.14039 
L 143.222402 61.131642 
L 143.508514 59.609066 
L 143.794626 61.535853 
L 144.36685 60.334847 
L 144.652962 60.587523 
L 144.939074 57.919919 
L 145.225186 58.351097 
L 145.511298 60.11453 
L 145.79741 59.660263 
L 146.083522 57.802687 
L 146.369634 58.597468 
L 146.655746 58.198336 
L 146.941858 55.923283 
L 147.22797 61.933535 
L 147.514082 59.829613 
L 147.800194 61.91179 
L 148.086306 60.889834 
L 148.372418 61.977736 
L 148.65853 61.556406 
L 148.944642 63.54121 
L 149.230754 64.391576 
L 149.516866 67.388766 
L 149.802978 67.715813 
L 150.08909 69.762136 
L 150.375202 69.629641 
L 150.661314 71.651286 
L 151.51965 66.041121 
L 151.805762 66.281587 
L 152.091874 63.981899 
L 152.377986 64.151045 
L 152.95021 66.000834 
L 153.522434 60.163688 
L 153.808546 60.267241 
L 154.094658 59.980556 
L 154.38077 60.152839 
L 154.666882 59.473103 
L 154.952994 57.273025 
L 155.525218 54.753345 
L 155.81133 54.518581 
L 156.097442 54.963685 
L 156.383554 56.698654 
L 156.669666 56.415413 
L 156.955778 54.909055 
L 157.24189 56.380518 
L 157.528002 56.396561 
L 157.814114 54.538047 
L 158.100226 54.77406 
L 158.386338 56.013991 
L 158.67245 55.898407 
L 158.958562 57.880691 
L 159.244674 58.829401 
L 159.530786 58.311669 
L 159.816898 54.829735 
L 160.10301 55.20749 
L 160.389122 56.372738 
L 160.675234 56.17662 
L 160.961346 54.782853 
L 161.247458 54.390536 
L 161.53357 54.753938 
L 161.819682 53.184394 
L 162.105794 49.367839 
L 162.391906 48.626063 
L 162.678018 51.884158 
L 162.96413 51.078735 
L 163.250242 48.83588 
L 163.536354 45.073857 
L 163.822466 45.396358 
L 164.108578 44.632341 
L 164.39469 43.517662 
L 164.680802 43.528869 
L 164.966914 40.842176 
L 165.539138 43.531161 
L 165.82525 44.187584 
L 166.397474 47.138013 
L 166.683586 44.578522 
L 166.969698 45.122588 
L 167.541922 42.571835 
L 167.828034 45.176336 
L 168.114146 46.042552 
L 168.400258 45.233923 
L 168.68637 45.685999 
L 168.972482 44.302828 
L 169.258594 45.378036 
L 169.544706 45.878123 
L 169.830818 44.718619 
L 170.11693 45.139393 
L 170.403042 44.816272 
L 170.689154 41.519751 
L 170.975266 40.979259 
L 171.261378 40.016669 
L 171.54749 40.80331 
L 171.833602 37.377108 
L 172.405826 41.733389 
L 172.691938 43.171199 
L 172.97805 43.769584 
L 173.264162 42.117332 
L 173.550274 43.156625 
L 173.836386 40.236119 
L 174.122498 41.082772 
L 174.40861 40.541356 
L 174.694722 37.580364 
L 174.980834 37.419894 
L 175.266946 35.08273 
L 175.553058 34.917839 
L 175.83917 32.943838 
L 176.125282 32.048415 
L 176.411394 33.517396 
L 176.697506 34.328538 
L 176.983618 33.931248 
L 177.26973 36.552148 
L 177.841954 35.408275 
L 178.128066 36.681321 
L 178.414178 35.055013 
L 178.70029 35.000552 
L 178.986402 34.294893 
L 179.272514 33.164283 
L 179.558626 33.728326 
L 179.844738 32.547287 
L 180.13085 32.744287 
L 180.416962 35.172873 
L 180.703074 35.065902 
L 181.275298 33.798636 
L 181.56141 34.429293 
L 182.133634 36.496142 
L 182.419746 36.214225 
L 182.705858 37.706465 
L 182.99197 35.953717 
L 183.278082 36.961394 
L 183.564194 35.309031 
L 183.850306 35.819383 
L 184.136418 34.891935 
L 184.42253 35.016198 
L 184.708642 35.96133 
L 184.994754 35.778494 
L 185.280866 36.341016 
L 185.566978 36.248888 
L 185.85309 36.583828 
L 186.139202 35.399618 
L 186.425314 35.810289 
L 186.711426 36.435154 
L 186.997538 38.065022 
L 187.28365 35.418158 
L 187.569762 35.512037 
L 187.855874 35.883861 
L 188.428098 39.702751 
L 188.71421 37.039023 
L 189.000322 36.600285 
L 189.572546 37.320605 
L 190.14477 33.582945 
L 190.430882 33.713417 
L 190.716994 30.627125 
L 191.003106 30.803008 
L 191.289218 31.804627 
L 191.57533 31.828937 
L 191.861442 33.561635 
L 192.147554 33.920403 
L 192.433666 32.631046 
L 192.719778 33.778114 
L 193.00589 34.094031 
L 193.292002 39.160018 
L 193.578114 38.910146 
L 193.864226 39.142938 
L 194.43645 41.28453 
L 194.722562 40.395361 
L 195.008674 40.424933 
L 195.294786 41.17601 
L 195.580898 40.343291 
L 195.86701 41.650586 
L 196.153122 42.091119 
L 196.439234 38.964691 
L 196.725346 39.449086 
L 197.011458 37.517407 
L 197.583682 40.9268 
L 197.869794 39.433235 
L 198.72813 43.139807 
L 199.014242 43.172193 
L 199.300354 41.291174 
L 199.586466 40.270551 
L 200.15869 39.737836 
L 200.444802 40.390068 
L 201.017026 37.619546 
L 201.58925 35.031992 
L 201.875362 32.842548 
L 202.161474 34.612117 
L 202.447586 31.935851 
L 202.733698 33.388887 
L 203.01981 33.877672 
L 203.592034 28.264911 
L 203.878146 27.492169 
L 204.164258 26.096128 
L 204.45037 26.708355 
L 204.736482 26.250189 
L 205.022594 29.764661 
L 205.308706 26.963441 
L 205.594818 27.64706 
L 205.88093 29.407053 
L 206.453154 24.162775 
L 206.739266 24.133819 
L 207.025378 23.480144 
L 207.31149 22.284598 
L 207.597602 22.34627 
L 207.883714 22.584513 
L 208.74205 25.150585 
L 209.886498 17.959243 
L 210.17261 17.67241 
L 210.458722 17.571628 
L 210.744834 19.141798 
L 211.030946 18.830698 
L 211.317058 15.668612 
L 211.60317 17.014469 
L 211.889282 16.646903 
L 212.175394 18.098236 
L 212.461506 18.338489 
L 212.461506 18.338489 
" clip-path="url(#p9559f00cf8)" style="fill: none; stroke: #00bfbf; stroke-width: 1.5; stroke-linecap: square"/>
   </g>
   <g id="matplotlib.axis_1">
    <g id="xtick_1">
     <g id="line2d_2">
      <defs>
       <path id="m2f9eb388ba" d="M 0 0 
L 0 3.5 
" style="stroke: #000000; stroke-width: 0.8"/>
      </defs>
      <g>
       <use xlink:href="#m2f9eb388ba" x="69.691619" y="104.3725" style="stroke: #000000; stroke-width: 0.8"/>
      </g>
     </g>
     <g id="text_1">
      <!-- 0.0 -->
      <g transform="translate(60.149744 120.490625)scale(0.12 -0.12)">
       <defs>
        <path id="DejaVuSans-30" d="M 2034 4250 
Q 1547 4250 1301 3770 
Q 1056 3291 1056 2328 
Q 1056 1369 1301 889 
Q 1547 409 2034 409 
Q 2525 409 2770 889 
Q 3016 1369 3016 2328 
Q 3016 3291 2770 3770 
Q 2525 4250 2034 4250 
z
M 2034 4750 
Q 2819 4750 3233 4129 
Q 3647 3509 3647 2328 
Q 3647 1150 3233 529 
Q 2819 -91 2034 -91 
Q 1250 -91 836 529 
Q 422 1150 422 2328 
Q 422 3509 836 4129 
Q 1250 4750 2034 4750 
z
" transform="scale(0.015625)"/>
        <path id="DejaVuSans-2e" d="M 684 794 
L 1344 794 
L 1344 0 
L 684 0 
L 684 794 
z
" transform="scale(0.015625)"/>
       </defs>
       <use xlink:href="#DejaVuSans-30"/>
       <use xlink:href="#DejaVuSans-2e" x="63.623047"/>
       <use xlink:href="#DejaVuSans-30" x="95.410156"/>
      </g>
     </g>
    </g>
    <g id="xtick_2">
     <g id="line2d_3">
      <g>
       <use xlink:href="#m2f9eb388ba" x="126.914019" y="104.3725" style="stroke: #000000; stroke-width: 0.8"/>
      </g>
     </g>
     <g id="text_2">
      <!-- 0.2 -->
      <g transform="translate(117.372144 120.490625)scale(0.12 -0.12)">
       <defs>
        <path id="DejaVuSans-32" d="M 1228 531 
L 3431 531 
L 3431 0 
L 469 0 
L 469 531 
Q 828 903 1448 1529 
Q 2069 2156 2228 2338 
Q 2531 2678 2651 2914 
Q 2772 3150 2772 3378 
Q 2772 3750 2511 3984 
Q 2250 4219 1831 4219 
Q 1534 4219 1204 4116 
Q 875 4013 500 3803 
L 500 4441 
Q 881 4594 1212 4672 
Q 1544 4750 1819 4750 
Q 2544 4750 2975 4387 
Q 3406 4025 3406 3419 
Q 3406 3131 3298 2873 
Q 3191 2616 2906 2266 
Q 2828 2175 2409 1742 
Q 1991 1309 1228 531 
z
" transform="scale(0.015625)"/>
       </defs>
       <use xlink:href="#DejaVuSans-30"/>
       <use xlink:href="#DejaVuSans-2e" x="63.623047"/>
       <use xlink:href="#DejaVuSans-32" x="95.410156"/>
      </g>
     </g>
    </g>
    <g id="xtick_3">
     <g id="line2d_4">
      <g>
       <use xlink:href="#m2f9eb388ba" x="184.136418" y="104.3725" style="stroke: #000000; stroke-width: 0.8"/>
      </g>
     </g>
     <g id="text_3">
      <!-- 0.4 -->
      <g transform="translate(174.594543 120.490625)scale(0.12 -0.12)">
       <defs>
        <path id="DejaVuSans-34" d="M 2419 4116 
L 825 1625 
L 2419 1625 
L 2419 4116 
z
M 2253 4666 
L 3047 4666 
L 3047 1625 
L 3713 1625 
L 3713 1100 
L 3047 1100 
L 3047 0 
L 2419 0 
L 2419 1100 
L 313 1100 
L 313 1709 
L 2253 4666 
z
" transform="scale(0.015625)"/>
       </defs>
       <use xlink:href="#DejaVuSans-30"/>
       <use xlink:href="#DejaVuSans-2e" x="63.623047"/>
       <use xlink:href="#DejaVuSans-34" x="95.410156"/>
      </g>
     </g>
    </g>
    <g id="text_4">
     <!-- Time (s) -->
     <g transform="translate(116.681875 136.104375)scale(0.12 -0.12)">
      <defs>
       <path id="DejaVuSans-54" d="M -19 4666 
L 3928 4666 
L 3928 4134 
L 2272 4134 
L 2272 0 
L 1638 0 
L 1638 4134 
L -19 4134 
L -19 4666 
z
" transform="scale(0.015625)"/>
       <path id="DejaVuSans-69" d="M 603 3500 
L 1178 3500 
L 1178 0 
L 603 0 
L 603 3500 
z
M 603 4863 
L 1178 4863 
L 1178 4134 
L 603 4134 
L 603 4863 
z
" transform="scale(0.015625)"/>
       <path id="DejaVuSans-6d" d="M 3328 2828 
Q 3544 3216 3844 3400 
Q 4144 3584 4550 3584 
Q 5097 3584 5394 3201 
Q 5691 2819 5691 2113 
L 5691 0 
L 5113 0 
L 5113 2094 
Q 5113 2597 4934 2840 
Q 4756 3084 4391 3084 
Q 3944 3084 3684 2787 
Q 3425 2491 3425 1978 
L 3425 0 
L 2847 0 
L 2847 2094 
Q 2847 2600 2669 2842 
Q 2491 3084 2119 3084 
Q 1678 3084 1418 2786 
Q 1159 2488 1159 1978 
L 1159 0 
L 581 0 
L 581 3500 
L 1159 3500 
L 1159 2956 
Q 1356 3278 1631 3431 
Q 1906 3584 2284 3584 
Q 2666 3584 2933 3390 
Q 3200 3197 3328 2828 
z
" transform="scale(0.015625)"/>
       <path id="DejaVuSans-65" d="M 3597 1894 
L 3597 1613 
L 953 1613 
Q 991 1019 1311 708 
Q 1631 397 2203 397 
Q 2534 397 2845 478 
Q 3156 559 3463 722 
L 3463 178 
Q 3153 47 2828 -22 
Q 2503 -91 2169 -91 
Q 1331 -91 842 396 
Q 353 884 353 1716 
Q 353 2575 817 3079 
Q 1281 3584 2069 3584 
Q 2775 3584 3186 3129 
Q 3597 2675 3597 1894 
z
M 3022 2063 
Q 3016 2534 2758 2815 
Q 2500 3097 2075 3097 
Q 1594 3097 1305 2825 
Q 1016 2553 972 2059 
L 3022 2063 
z
" transform="scale(0.015625)"/>
       <path id="DejaVuSans-20" transform="scale(0.015625)"/>
       <path id="DejaVuSans-28" d="M 1984 4856 
Q 1566 4138 1362 3434 
Q 1159 2731 1159 2009 
Q 1159 1288 1364 580 
Q 1569 -128 1984 -844 
L 1484 -844 
Q 1016 -109 783 600 
Q 550 1309 550 2009 
Q 550 2706 781 3412 
Q 1013 4119 1484 4856 
L 1984 4856 
z
" transform="scale(0.015625)"/>
       <path id="DejaVuSans-73" d="M 2834 3397 
L 2834 2853 
Q 2591 2978 2328 3040 
Q 2066 3103 1784 3103 
Q 1356 3103 1142 2972 
Q 928 2841 928 2578 
Q 928 2378 1081 2264 
Q 1234 2150 1697 2047 
L 1894 2003 
Q 2506 1872 2764 1633 
Q 3022 1394 3022 966 
Q 3022 478 2636 193 
Q 2250 -91 1575 -91 
Q 1294 -91 989 -36 
Q 684 19 347 128 
L 347 722 
Q 666 556 975 473 
Q 1284 391 1588 391 
Q 1994 391 2212 530 
Q 2431 669 2431 922 
Q 2431 1156 2273 1281 
Q 2116 1406 1581 1522 
L 1381 1569 
Q 847 1681 609 1914 
Q 372 2147 372 2553 
Q 372 3047 722 3315 
Q 1072 3584 1716 3584 
Q 2034 3584 2315 3537 
Q 2597 3491 2834 3397 
z
" transform="scale(0.015625)"/>
       <path id="DejaVuSans-29" d="M 513 4856 
L 1013 4856 
Q 1481 4119 1714 3412 
Q 1947 2706 1947 2009 
Q 1947 1309 1714 600 
Q 1481 -109 1013 -844 
L 513 -844 
Q 928 -128 1133 580 
Q 1338 1288 1338 2009 
Q 1338 2731 1133 3434 
Q 928 4138 513 4856 
z
" transform="scale(0.015625)"/>
      </defs>
      <use xlink:href="#DejaVuSans-54"/>
      <use xlink:href="#DejaVuSans-69" x="57.958984"/>
      <use xlink:href="#DejaVuSans-6d" x="85.742188"/>
      <use xlink:href="#DejaVuSans-65" x="183.154297"/>
      <use xlink:href="#DejaVuSans-20" x="244.677734"/>
      <use xlink:href="#DejaVuSans-28" x="276.464844"/>
      <use xlink:href="#DejaVuSans-73" x="315.478516"/>
      <use xlink:href="#DejaVuSans-29" x="367.578125"/>
     </g>
    </g>
   </g>
   <g id="matplotlib.axis_2">
    <g id="ytick_1">
     <g id="line2d_5">
      <defs>
       <path id="mfb9a31ae0f" d="M 0 0 
L -3.5 0 
" style="stroke: #000000; stroke-width: 0.8"/>
      </defs>
      <g>
       <use xlink:href="#mfb9a31ae0f" x="62.553125" y="96.511423" style="stroke: #000000; stroke-width: 0.8"/>
      </g>
     </g>
     <g id="text_5">
      <!-- −5 -->
      <g transform="translate(37.8625 101.070485)scale(0.12 -0.12)">
       <defs>
        <path id="DejaVuSans-2212" d="M 678 2272 
L 4684 2272 
L 4684 1741 
L 678 1741 
L 678 2272 
z
" transform="scale(0.015625)"/>
        <path id="DejaVuSans-35" d="M 691 4666 
L 3169 4666 
L 3169 4134 
L 1269 4134 
L 1269 2991 
Q 1406 3038 1543 3061 
Q 1681 3084 1819 3084 
Q 2600 3084 3056 2656 
Q 3513 2228 3513 1497 
Q 3513 744 3044 326 
Q 2575 -91 1722 -91 
Q 1428 -91 1123 -41 
Q 819 9 494 109 
L 494 744 
Q 775 591 1075 516 
Q 1375 441 1709 441 
Q 2250 441 2565 725 
Q 2881 1009 2881 1497 
Q 2881 1984 2565 2268 
Q 2250 2553 1709 2553 
Q 1456 2553 1204 2497 
Q 953 2441 691 2322 
L 691 4666 
z
" transform="scale(0.015625)"/>
       </defs>
       <use xlink:href="#DejaVuSans-2212"/>
       <use xlink:href="#DejaVuSans-35" x="83.789062"/>
      </g>
     </g>
    </g>
    <g id="ytick_2">
     <g id="line2d_6">
      <g>
       <use xlink:href="#mfb9a31ae0f" x="62.553125" y="55.782391" style="stroke: #000000; stroke-width: 0.8"/>
      </g>
     </g>
     <g id="text_6">
      <!-- 0 -->
      <g transform="translate(47.918125 60.341453)scale(0.12 -0.12)">
       <use xlink:href="#DejaVuSans-30"/>
      </g>
     </g>
    </g>
    <g id="ytick_3">
     <g id="line2d_7">
      <g>
       <use xlink:href="#mfb9a31ae0f" x="62.553125" y="15.053358" style="stroke: #000000; stroke-width: 0.8"/>
      </g>
     </g>
     <g id="text_7">
      <!-- 5 -->
      <g transform="translate(47.918125 19.612421)scale(0.12 -0.12)">
       <use xlink:href="#DejaVuSans-35"/>
      </g>
     </g>
    </g>
    <g id="text_8">
     <!-- x -->
     <g transform="translate(31.366875 61.459808)rotate(-90)scale(0.12 -0.12)">
      <defs>
       <path id="DejaVuSans-78" d="M 3513 3500 
L 2247 1797 
L 3578 0 
L 2900 0 
L 1881 1375 
L 863 0 
L 184 0 
L 1544 1831 
L 300 3500 
L 978 3500 
L 1906 2253 
L 2834 3500 
L 3513 3500 
z
" transform="scale(0.015625)"/>
      </defs>
      <use xlink:href="#DejaVuSans-78"/>
     </g>
    </g>
   </g>
   <g id="line2d_8">
    <path d="M 69.691619 55.782391 
L 69.977731 58.037171 
L 70.263843 58.590819 
L 70.549955 60.56651 
L 70.836067 63.9257 
L 71.122179 64.391385 
L 71.694403 62.090173 
L 71.980515 62.819216 
L 72.266627 60.029219 
L 72.838851 57.477223 
L 73.124963 56.982171 
L 73.411075 59.059512 
L 73.983299 56.467539 
L 74.269411 56.518276 
L 74.555523 55.577468 
L 75.127747 60.738195 
L 75.413859 60.581014 
L 75.699971 60.209385 
L 75.986083 57.697009 
L 76.272195 58.845815 
L 76.558307 60.887944 
L 76.844419 60.193828 
L 77.130531 61.39114 
L 77.702755 59.336917 
L 77.988867 61.629994 
L 78.274979 61.743988 
L 78.561091 59.559655 
L 78.847203 56.514946 
L 79.133315 54.689407 
L 79.419427 56.517254 
L 79.705539 55.931762 
L 79.991651 56.033633 
L 80.277763 61.067603 
L 80.563875 61.240281 
L 80.849987 63.482693 
L 81.136099 62.308494 
L 81.422211 64.177713 
L 81.708323 64.497148 
L 81.994435 63.810714 
L 82.280547 64.961666 
L 82.566659 66.75645 
L 82.852771 65.903994 
L 83.424995 67.405126 
L 83.711107 67.262769 
L 83.997219 69.2902 
L 84.283331 70.256483 
L 84.569443 69.736021 
L 84.855555 68.595726 
L 85.427779 62.178212 
L 85.713891 60.620557 
L 86.286115 56.275147 
L 86.572227 56.701127 
L 86.858339 58.377258 
L 87.144451 58.001263 
L 87.716675 60.496499 
L 88.002787 59.885291 
L 88.288899 61.385029 
L 88.575011 59.550503 
L 88.861123 59.396573 
L 89.147235 57.498956 
L 89.433347 59.391611 
L 90.005571 55.347651 
L 90.291683 55.851597 
L 90.863907 52.878914 
L 91.150019 51.944624 
L 91.436131 50.067136 
L 91.722243 54.79691 
L 92.008355 56.200716 
L 92.294467 55.229718 
L 92.580579 55.007296 
L 92.866691 55.446079 
L 93.438915 58.445501 
L 93.725027 58.868639 
L 94.011139 58.478961 
L 94.297251 58.61945 
L 94.583363 59.02588 
L 94.869475 59.061167 
L 95.155587 60.489016 
L 95.441699 63.130707 
L 95.727811 61.056167 
L 96.300035 61.481232 
L 96.872259 56.175513 
L 97.158371 57.233214 
L 97.444483 57.506117 
L 97.730595 58.382759 
L 98.016707 57.646179 
L 98.302819 57.446136 
L 98.588931 57.872998 
L 98.875043 54.273899 
L 99.733379 52.045298 
L 100.019491 52.206235 
L 100.305603 49.954597 
L 100.591715 53.552911 
L 100.877827 53.516757 
L 101.163939 54.161241 
L 101.450051 54.157258 
L 101.736163 55.001723 
L 102.022275 57.549995 
L 102.308387 56.61831 
L 102.594499 56.772789 
L 102.880611 56.020913 
L 103.166723 56.805503 
L 103.452835 55.433405 
L 103.738947 54.957473 
L 104.025059 55.559903 
L 104.311171 55.344213 
L 104.597283 58.375437 
L 104.883395 54.435014 
L 105.169507 56.533683 
L 105.455619 54.72803 
L 106.027843 55.9279 
L 106.313955 56.713438 
L 106.600067 55.0524 
L 106.886179 54.474727 
L 107.172291 60.160172 
L 107.458403 59.327324 
L 107.744515 56.828615 
L 108.030627 58.404588 
L 108.316739 58.762539 
L 109.175075 53.695428 
L 109.461187 54.839858 
L 109.747299 55.09876 
L 110.033411 56.511269 
L 110.891747 53.996183 
L 111.177859 50.726535 
L 111.463971 50.965352 
L 111.750083 52.651413 
L 112.036195 52.780354 
L 112.322307 50.58806 
L 112.608419 52.52987 
L 112.894531 51.904726 
L 113.180643 56.170676 
L 113.466755 55.383654 
L 113.752867 54.97831 
L 114.038979 55.789623 
L 114.611203 53.726465 
L 114.897315 52.807443 
L 115.183427 49.711834 
L 115.469539 49.535178 
L 115.755651 50.7365 
L 116.041763 51.016997 
L 116.327875 53.066076 
L 116.613987 52.749628 
L 116.900099 52.723425 
L 117.186211 53.620504 
L 117.472323 56.112229 
L 117.758435 54.931913 
L 118.044547 54.326591 
L 118.330659 54.850151 
L 118.616771 52.636506 
L 118.902883 52.725642 
L 119.188995 53.952228 
L 119.761219 53.960578 
L 120.047331 51.325179 
L 120.333443 50.667627 
L 120.619555 48.833562 
L 120.905667 48.645013 
L 121.191779 49.056389 
L 121.477891 51.33312 
L 122.050115 44.739189 
L 122.336227 44.840988 
L 122.622339 45.982712 
L 123.480675 50.969376 
L 123.766787 50.730313 
L 124.339011 49.95901 
L 124.625123 49.849886 
L 124.911235 51.370933 
L 125.197347 49.105014 
L 125.483459 52.092392 
L 125.769571 50.297274 
L 126.055683 50.051231 
L 126.341795 52.412567 
L 126.627907 52.734535 
L 126.914019 53.677296 
L 127.200131 53.165141 
L 127.486243 52.136494 
L 127.772355 52.308741 
L 128.058467 52.772601 
L 128.344579 52.320842 
L 128.630691 53.355793 
L 128.916803 51.717151 
L 129.202915 51.176115 
L 129.489027 51.390933 
L 129.775139 51.748594 
L 130.061251 52.761626 
L 130.347363 55.007141 
L 130.633475 53.483923 
L 130.919587 53.439771 
L 131.491811 53.856622 
L 131.777923 52.761432 
L 132.064035 54.820103 
L 132.350147 54.656212 
L 132.922371 58.472834 
L 133.208483 56.315762 
L 133.494595 55.85934 
L 133.780707 55.879619 
L 134.066819 53.361713 
L 134.639043 52.374258 
L 135.211267 53.295443 
L 135.497379 52.622716 
L 135.783491 52.752107 
L 136.069603 50.549098 
L 136.355715 51.718188 
L 136.641827 54.790114 
L 136.927939 55.158497 
L 137.214051 56.458443 
L 137.500163 56.795688 
L 137.786275 56.163622 
L 138.358499 55.870759 
L 138.930723 51.899148 
L 139.216835 51.744574 
L 139.502947 54.126213 
L 139.789059 55.391168 
L 140.075171 55.612416 
L 140.361283 56.35853 
L 140.647395 52.898523 
L 140.933507 55.496155 
L 141.791842 57.202866 
L 142.077954 55.136023 
L 142.364066 55.084965 
L 142.650178 55.753557 
L 142.93629 53.643282 
L 143.222402 54.848445 
L 143.508514 53.419264 
L 143.794626 55.582364 
L 144.36685 54.473395 
L 144.652962 54.856971 
L 144.939074 52.281909 
L 145.225186 53.063135 
L 145.511298 55.098494 
L 145.79741 54.712616 
L 146.083522 52.962017 
L 146.369634 54.038836 
L 146.655746 53.81406 
L 146.941858 51.73584 
L 147.22797 58.150746 
L 147.514082 55.809989 
L 147.800194 57.889406 
L 148.086306 56.656749 
L 148.372418 57.657215 
L 148.65853 57.048402 
L 148.944642 58.906605 
L 149.230754 59.44455 
L 149.516866 62.075524 
L 149.802978 61.773258 
L 150.08909 63.220494 
L 150.375202 62.344188 
L 150.661314 63.709654 
L 151.51965 56.50503 
L 151.805762 56.673233 
L 152.091874 54.28446 
L 152.377986 54.603399 
L 152.95021 56.571666 
L 153.522434 50.867294 
L 153.808546 51.462357 
L 154.094658 51.607675 
L 154.38077 52.19743 
L 154.666882 51.87619 
L 154.952994 50.066732 
L 155.525218 48.759421 
L 155.81133 49.226953 
L 156.097442 50.327601 
L 156.383554 52.608049 
L 156.669666 52.642242 
L 156.955778 51.449899 
L 157.24189 53.354611 
L 157.528002 53.613432 
L 157.814114 51.971814 
L 158.100226 52.588885 
L 158.386338 54.148166 
L 158.67245 54.196005 
L 158.958562 56.336928 
L 159.244674 57.230184 
L 159.530786 56.567672 
L 159.816898 53.00721 
L 160.10301 53.662483 
L 160.389122 55.039722 
L 160.675234 54.91787 
L 160.961346 53.610556 
L 161.247458 53.435422 
L 161.53357 54.033522 
L 161.819682 52.638864 
L 162.105794 49.136662 
L 162.391906 49.059459 
L 162.678018 52.989847 
L 162.96413 52.463679 
L 163.250242 50.552695 
L 163.536354 47.313642 
L 163.822466 48.483017 
L 164.108578 48.448937 
L 164.39469 48.067603 
L 164.680802 48.850289 
L 164.966914 46.856807 
L 165.539138 51.110912 
L 165.82525 52.234483 
L 166.397474 55.680251 
L 166.683586 53.130973 
L 166.969698 53.940182 
L 167.541922 51.883368 
L 167.828034 54.877771 
L 168.114146 55.834449 
L 168.400258 55.020614 
L 168.68637 55.548867 
L 168.972482 54.189048 
L 169.258594 55.423591 
L 169.544706 55.959558 
L 169.830818 54.782337 
L 170.11693 55.303117 
L 170.403042 55.027923 
L 170.689154 51.806848 
L 170.975266 51.663911 
L 171.261378 51.113169 
L 171.54749 52.366732 
L 171.833602 49.282096 
L 172.405826 54.622472 
L 172.691938 56.176275 
L 172.97805 56.735271 
L 173.264162 54.987731 
L 173.550274 56.10649 
L 173.836386 53.153574 
L 174.122498 54.263109 
L 174.40861 53.87362 
L 174.694722 51.103506 
L 174.980834 51.410924 
L 175.266946 49.510907 
L 175.553058 49.973164 
L 175.83917 48.580086 
L 176.125282 48.404894 
L 176.411394 50.611624 
L 176.697506 51.939843 
L 176.983618 51.926807 
L 177.26973 54.933266 
L 177.841954 54.01289 
L 178.128066 55.462886 
L 178.414178 53.868529 
L 178.70029 54.005454 
L 178.986402 53.477488 
L 179.272514 52.577369 
L 179.558626 53.461914 
L 179.844738 52.512923 
L 180.13085 53.036869 
L 180.416962 55.740007 
L 180.703074 55.637275 
L 181.275298 54.468182 
L 181.847522 56.206665 
L 182.133634 57.309894 
L 182.419746 56.875227 
L 182.705858 58.258183 
L 182.99197 56.257856 
L 183.278082 57.217987 
L 183.564194 55.422064 
L 183.850306 55.968449 
L 184.136418 55.022395 
L 184.42253 55.222657 
L 184.708642 56.223763 
L 184.994754 55.99679 
L 185.280866 56.537872 
L 185.566978 56.370196 
L 185.85309 56.646355 
L 186.139202 55.375749 
L 186.711426 56.447479 
L 186.997538 58.010838 
L 187.28365 55.14113 
L 187.569762 55.299135 
L 187.855874 55.719284 
L 188.428098 59.375677 
L 188.71421 56.35262 
L 189.000322 55.856859 
L 189.572546 56.53328 
L 189.858658 54.15999 
L 190.14477 52.882771 
L 190.430882 53.303205 
L 190.716994 50.464831 
L 191.003106 51.172471 
L 191.289218 52.635082 
L 191.57533 52.974122 
L 191.861442 54.987647 
L 192.147554 55.425889 
L 192.433666 54.172183 
L 192.719778 55.480271 
L 193.00589 55.826401 
L 193.292002 60.887986 
L 193.578114 60.127554 
L 193.864226 59.92583 
L 194.43645 61.175951 
L 194.722562 59.747425 
L 195.008674 59.380494 
L 195.294786 59.771761 
L 195.580898 58.540105 
L 195.86701 59.571628 
L 196.153122 59.633238 
L 196.439234 56.121725 
L 196.725346 56.572186 
L 197.011458 54.561528 
L 197.583682 58.051312 
L 197.869794 56.330856 
L 198.72813 59.529149 
L 199.014242 59.186858 
L 199.300354 56.965393 
L 199.586466 55.82647 
L 200.15869 55.314186 
L 200.444802 56.013238 
L 200.730914 54.354514 
L 201.58925 51.356641 
L 201.875362 49.609772 
L 202.161474 51.996604 
L 202.447586 49.698916 
L 202.733698 51.760299 
L 203.01981 52.651294 
L 203.305922 49.662689 
L 203.592034 47.963612 
L 203.878146 47.972748 
L 204.164258 47.357671 
L 204.45037 48.812371 
L 204.736482 49.051206 
L 205.022594 53.238797 
L 205.308706 50.691936 
L 205.594818 51.884601 
L 205.88093 54.034372 
L 206.453154 49.395591 
L 206.739266 50.005315 
L 207.025378 49.929348 
L 207.31149 49.319106 
L 207.883714 50.840878 
L 208.74205 54.519605 
L 209.314274 50.829259 
L 209.886498 48.853784 
L 210.458722 49.811287 
L 210.744834 51.978568 
L 211.030946 52.04785 
L 211.317058 49.259218 
L 211.60317 51.257392 
L 211.889282 51.342326 
L 212.175394 53.237666 
L 212.461506 53.732392 
L 212.461506 53.732392 
" clip-path="url(#p9559f00cf8)" style="fill: none; stroke: #808080; stroke-width: 0.75; stroke-linecap: square"/>
   </g>
   <g id="line2d_9">
    <path d="M 69.691619 55.782391 
L 69.977731 58.029127 
L 70.263843 58.808425 
L 70.549955 61.053676 
L 70.836067 64.898978 
L 71.122179 66.167397 
L 71.694403 65.451589 
L 71.980515 66.80336 
L 72.266627 64.742545 
L 73.124963 62.587448 
L 73.411075 64.789179 
L 73.983299 62.695934 
L 74.269411 62.816512 
L 74.555523 61.946371 
L 75.127747 67.363535 
L 75.413859 67.701078 
L 75.699971 67.794703 
L 75.986083 65.709039 
L 76.272195 67.043129 
L 76.558307 69.408936 
L 76.844419 69.069023 
L 77.130531 70.585143 
L 77.702755 69.075846 
L 77.988867 71.601357 
L 78.274979 71.924105 
L 78.561091 69.927582 
L 78.847203 67.052335 
L 79.133315 65.317001 
L 79.419427 67.029696 
L 79.705539 66.535577 
L 79.991651 66.673413 
L 80.277763 71.757636 
L 80.563875 72.067159 
L 80.849987 74.43269 
L 81.136099 73.368941 
L 81.422211 75.337701 
L 81.708323 75.74652 
L 81.994435 75.140496 
L 82.280547 76.363866 
L 82.566659 78.223751 
L 82.852771 77.42972 
L 83.424995 79.030843 
L 83.711107 78.930993 
L 83.997219 80.996687 
L 84.283331 81.997161 
L 84.569443 81.507415 
L 84.855555 80.394795 
L 85.427779 74.02513 
L 85.713891 72.488282 
L 86.286115 68.179395 
L 86.572227 68.619356 
L 86.858339 70.30988 
L 87.144451 69.946794 
L 87.716675 72.463978 
L 88.002787 71.861764 
L 88.288899 73.369685 
L 88.575011 71.54228 
L 88.861123 71.395073 
L 89.147235 69.503539 
L 89.433347 71.402019 
L 90.005571 67.36775 
L 90.291683 67.827112 
L 90.863907 64.672938 
L 91.150019 63.448348 
L 91.436131 61.19073 
L 91.722243 65.353825 
L 92.008355 66.652185 
L 92.294467 65.747985 
L 92.580579 65.464905 
L 92.866691 65.818269 
L 93.438915 68.914774 
L 93.725027 69.49731 
L 94.011139 69.25105 
L 94.297251 69.520657 
L 94.583363 70.043248 
L 94.869475 70.183032 
L 95.155587 71.704883 
L 95.441699 74.430852 
L 95.727811 72.431748 
L 96.300035 72.986304 
L 96.872259 67.785821 
L 97.158371 68.866927 
L 97.444483 69.182782 
L 97.730595 70.098087 
L 98.016707 69.396189 
L 98.302819 69.22745 
L 98.588931 69.68251 
L 98.875043 66.108726 
L 99.161155 65.118099 
L 99.447267 63.707009 
L 99.733379 63.134098 
L 100.019491 62.912869 
L 100.305603 60.298144 
L 100.591715 63.314366 
L 100.877827 63.053289 
L 101.163939 63.462464 
L 101.450051 63.299883 
L 101.736163 63.979163 
L 102.022275 66.454042 
L 102.308387 65.712189 
L 102.594499 65.944133 
L 102.880611 65.291877 
L 103.166723 66.094992 
L 103.452835 64.825144 
L 103.738947 64.305796 
L 104.025059 64.830802 
L 104.311171 64.5841 
L 104.597283 67.575555 
L 104.883395 63.881748 
L 105.169507 65.84948 
L 105.455619 64.117089 
L 105.741731 64.541393 
L 106.313955 65.957305 
L 106.600067 64.390198 
L 106.886179 63.745598 
L 107.172291 69.302158 
L 107.458403 68.761434 
L 107.744515 66.525615 
L 108.030627 68.226434 
L 108.316739 68.807121 
L 109.175075 64.007078 
L 109.461187 64.947083 
L 109.747299 65.098184 
L 110.033411 66.431452 
L 110.605635 64.643539 
L 110.891747 63.872963 
L 111.177859 60.428354 
L 111.463971 60.16474 
L 111.750083 61.367759 
L 112.036195 61.18244 
L 112.322307 58.694969 
L 112.608419 60.109306 
L 112.894531 59.155501 
L 113.180643 63.025579 
L 113.466755 62.269341 
L 113.752867 61.827192 
L 114.038979 62.556558 
L 114.897315 59.253232 
L 115.183427 55.848296 
L 115.469539 55.056027 
L 115.755651 55.626511 
L 116.041763 55.398099 
L 116.327875 56.962618 
L 116.613987 56.382787 
L 116.900099 56.060899 
L 117.186211 56.651847 
L 117.472323 58.93477 
L 117.758435 57.778147 
L 118.044547 57.091953 
L 118.330659 57.480759 
L 118.616771 55.181425 
L 118.902883 54.944377 
L 119.188995 55.861031 
L 119.761219 55.487343 
L 120.047331 52.663046 
L 120.333443 51.556037 
L 120.619555 49.202917 
L 120.905667 48.319866 
L 121.191779 48.024185 
L 121.477891 49.625152 
L 122.050115 41.773787 
L 122.336227 40.951864 
L 122.622339 41.261996 
L 122.908451 42.307845 
L 123.194563 43.81905 
L 123.480675 44.246139 
L 124.625123 41.296392 
L 124.911235 42.452353 
L 125.197347 39.858288 
L 125.483459 42.549556 
L 125.769571 40.488785 
L 126.055683 40.002983 
L 126.341795 42.148392 
L 126.627907 42.276612 
L 126.914019 43.04505 
L 127.200131 42.376932 
L 127.486243 41.20705 
L 127.772355 41.251784 
L 128.058467 41.600894 
L 128.344579 41.045988 
L 128.630691 41.987933 
L 128.916803 40.265867 
L 129.202915 39.649287 
L 129.489027 39.795974 
L 129.775139 40.092339 
L 130.061251 41.050267 
L 130.347363 43.246428 
L 130.633475 41.680893 
L 130.919587 41.596751 
L 131.491811 41.945225 
L 131.777923 40.820953 
L 132.064035 42.853139 
L 132.350147 42.666342 
L 132.922371 46.518027 
L 133.208483 44.630254 
L 133.494595 44.212637 
L 133.780707 44.240643 
L 134.066819 41.732698 
L 134.639043 40.636036 
L 134.925155 40.964468 
L 135.211267 41.46846 
L 135.497379 40.758051 
L 135.783491 40.853358 
L 136.069603 38.619699 
L 136.355715 39.760716 
L 136.641827 42.807593 
L 136.927939 43.154559 
L 137.214051 44.436071 
L 137.500163 44.836559 
L 137.786275 44.297612 
L 138.358499 44.070027 
L 138.930723 40.064041 
L 139.216835 39.87224 
L 139.502947 42.220332 
L 139.789059 43.455736 
L 140.075171 43.65453 
L 140.361283 44.388444 
L 140.647395 40.98441 
L 140.933507 43.552954 
L 141.791842 45.387324 
L 142.077954 43.466958 
L 142.364066 43.367067 
L 142.650178 43.990023 
L 142.93629 41.87613 
L 143.222402 43.03777 
L 143.508514 41.570449 
L 143.794626 43.698102 
L 144.36685 42.543972 
L 144.652962 42.90055 
L 144.939074 40.30161 
L 145.225186 41.060205 
L 145.511298 43.075368 
L 145.79741 42.672703 
L 146.083522 40.906266 
L 146.369634 41.968147 
L 146.655746 41.730224 
L 146.941858 39.640112 
L 147.22797 46.043776 
L 147.514082 43.946901 
L 147.800194 46.029066 
L 148.086306 45.013428 
L 148.372418 46.101871 
L 148.65853 45.689723 
L 148.944642 47.683611 
L 149.230754 48.521759 
L 149.516866 51.520063 
L 149.802978 51.839994 
L 150.08909 53.880562 
L 150.375202 53.75158 
L 150.661314 55.777162 
L 151.51965 50.15528 
L 151.805762 50.400231 
L 152.091874 48.10802 
L 152.377986 48.278728 
L 152.95021 50.133749 
L 153.522434 44.291386 
L 153.808546 44.395616 
L 154.094658 44.106922 
L 154.38077 44.276762 
L 154.666882 43.597592 
L 154.952994 41.404727 
L 155.525218 39.424187 
L 155.81133 39.604374 
L 156.097442 40.446456 
L 156.383554 42.494401 
L 156.669666 42.319983 
L 156.955778 40.939773 
L 157.24189 42.674992 
L 157.528002 42.781947 
L 157.814114 41.003774 
L 158.100226 41.497152 
L 158.386338 42.945241 
L 158.67245 42.893943 
L 158.958562 44.94554 
L 159.244674 45.891176 
L 159.530786 45.377556 
L 159.816898 41.899585 
L 160.10301 42.445388 
L 160.389122 43.724328 
L 160.675234 43.531122 
L 160.961346 42.14857 
L 161.247458 41.899471 
L 161.53357 42.430933 
L 161.819682 40.976516 
L 162.105794 37.420048 
L 162.391906 37.293267 
L 162.678018 41.179002 
L 162.96413 40.613454 
L 163.250242 38.666909 
L 163.536354 35.395426 
L 163.822466 36.53507 
L 164.108578 36.474366 
L 164.39469 36.069061 
L 164.680802 36.830098 
L 164.966914 34.817253 
L 165.539138 39.038123 
L 165.82525 40.148013 
L 166.111362 42.278378 
L 166.397474 43.571454 
L 166.683586 41.020632 
L 166.969698 41.82038 
L 167.541922 39.747509 
L 167.828034 42.734701 
L 168.114146 43.685925 
L 168.400258 42.881184 
L 168.68637 43.403825 
L 168.972482 42.041559 
L 169.258594 43.270654 
L 169.544706 43.803674 
L 169.830818 42.645506 
L 170.11693 43.160112 
L 170.403042 42.880415 
L 170.689154 39.654535 
L 170.975266 39.506016 
L 171.261378 38.950217 
L 171.54749 40.199099 
L 171.833602 37.11053 
L 172.405826 42.443655 
L 172.691938 43.995329 
L 172.97805 44.592867 
L 173.264162 42.927797 
L 173.550274 44.033084 
L 173.836386 41.110858 
L 174.122498 42.204186 
L 174.40861 41.800444 
L 174.694722 39.017393 
L 174.980834 39.312458 
L 175.266946 37.401384 
L 175.553058 37.853349 
L 175.83917 36.45115 
L 176.125282 36.267418 
L 176.411394 38.466432 
L 176.697506 39.788141 
L 176.983618 39.769484 
L 177.26973 42.77088 
L 177.841954 41.843477 
L 178.128066 43.29017 
L 178.414178 41.694975 
L 178.70029 41.828967 
L 178.986402 41.298402 
L 179.272514 40.395757 
L 179.558626 41.277831 
L 179.844738 40.326808 
L 180.13085 40.848713 
L 180.416962 43.550141 
L 180.703074 43.453146 
L 181.275298 42.284862 
L 181.847522 44.020888 
L 182.133634 45.165112 
L 182.419746 44.88602 
L 182.705858 46.372205 
L 182.99197 44.625002 
L 183.278082 45.618397 
L 183.564194 43.975667 
L 183.850306 44.485563 
L 184.136418 43.550555 
L 184.42253 43.684768 
L 184.708642 44.633818 
L 184.994754 44.436281 
L 185.280866 44.994427 
L 185.566978 44.901788 
L 185.85309 45.231449 
L 186.139202 44.049046 
L 186.425314 44.457645 
L 186.711426 45.076766 
L 186.997538 46.70979 
L 187.28365 44.061224 
L 187.569762 44.152805 
L 187.855874 44.523399 
L 188.428098 48.340289 
L 188.71421 45.683732 
L 189.000322 45.254217 
L 189.572546 45.985219 
L 190.14477 42.255858 
L 190.430882 42.518859 
L 190.716994 39.53896 
L 191.003106 40.118349 
L 191.289218 41.465649 
L 191.57533 41.70125 
L 191.861442 43.621776 
L 192.147554 43.986592 
L 192.433666 42.69657 
L 192.719778 43.932416 
L 193.00589 44.248493 
L 193.292002 49.314778 
L 193.578114 49.064997 
L 193.864226 49.301789 
L 194.43645 51.451749 
L 194.722562 50.557705 
L 195.008674 50.591005 
L 195.294786 51.345347 
L 195.580898 50.511053 
L 195.86701 51.822966 
L 196.153122 52.257898 
L 196.439234 49.122122 
L 196.725346 49.609156 
L 197.011458 47.68011 
L 197.583682 51.078068 
L 197.869794 49.585674 
L 198.72813 53.284951 
L 199.014242 53.324436 
L 199.300354 51.450455 
L 199.586466 50.425004 
L 200.15869 49.903455 
L 200.444802 50.563997 
L 201.017026 47.805095 
L 201.58925 45.207681 
L 201.875362 43.020377 
L 202.161474 44.846894 
L 202.447586 42.162831 
L 202.733698 43.757663 
L 203.01981 44.248585 
L 203.592034 38.899141 
L 203.878146 38.593739 
L 204.164258 37.695546 
L 204.45037 38.895315 
L 204.736482 38.904871 
L 205.022594 42.886112 
L 205.308706 40.154973 
L 205.594818 41.180623 
L 205.88093 43.180329 
L 206.453154 38.28636 
L 206.739266 38.78597 
L 207.025378 38.610941 
L 207.31149 37.911524 
L 207.883714 39.280734 
L 208.74205 42.784454 
L 209.314274 39.005539 
L 209.886498 36.956638 
L 210.458722 37.854124 
L 210.744834 39.996019 
L 211.030946 40.042801 
L 211.317058 37.233931 
L 211.60317 39.213348 
L 211.889282 39.28176 
L 212.175394 41.162244 
L 212.461506 41.644044 
L 212.461506 41.644044 
" clip-path="url(#p9559f00cf8)" style="fill: none; stroke: #1f77b4; stroke-width: 1.5; stroke-linecap: square"/>
   </g>
   <g id="line2d_10">
    <path d="M 62.553125 55.782391 
L 219.6 55.782391 
" clip-path="url(#p9559f00cf8)" style="fill: none; stroke-dasharray: 2.775,1.2; stroke-dashoffset: 0; stroke: #808080; stroke-width: 0.75"/>
   </g>
   <g id="patch_3">
    <path d="M 62.553125 104.3725 
L 62.553125 11.444617 
" style="fill: none; stroke: #000000; stroke-width: 0.8; stroke-linejoin: miter; stroke-linecap: square"/>
   </g>
   <g id="patch_4">
    <path d="M 219.6 104.3725 
L 219.6 11.444617 
" style="fill: none; stroke: #000000; stroke-width: 0.8; stroke-linejoin: miter; stroke-linecap: square"/>
   </g>
   <g id="patch_5">
    <path d="M 62.553125 104.3725 
L 219.6 104.3725 
" style="fill: none; stroke: #000000; stroke-width: 0.8; stroke-linejoin: miter; stroke-linecap: square"/>
   </g>
   <g id="patch_6">
    <path d="M 62.553125 11.444617 
L 219.6 11.444617 
" style="fill: none; stroke: #000000; stroke-width: 0.8; stroke-linejoin: miter; stroke-linecap: square"/>
   </g>
  </g>
  <g id="axes_2">
   <g id="patch_7">
    <path d="M 62.553125 242.9725 
L 219.6 242.9725 
L 219.6 150.044617 
L 62.553125 150.044617 
z
" style="fill: #ffffff"/>
   </g>
   <g id="line2d_11">
    <path d="M 69.691619 194.922216 
L 69.977731 197.176996 
L 70.263843 197.956122 
L 70.549955 200.212655 
L 70.836067 204.050258 
L 71.122179 205.330274 
L 71.694403 204.618734 
L 71.980515 205.978555 
L 72.266627 203.89224 
L 73.124963 201.742334 
L 73.411075 203.939653 
L 73.983299 201.851247 
L 74.269411 201.970499 
L 74.555523 201.103279 
L 75.127747 206.534536 
L 75.413859 206.872934 
L 75.699971 206.981168 
L 75.986083 204.911492 
L 76.272195 206.25176 
L 76.558307 208.60023 
L 76.844419 208.41667 
L 77.130531 210.055126 
L 77.702755 209.00567 
L 77.988867 211.654198 
L 78.274979 212.352953 
L 78.561091 210.76478 
L 79.133315 206.345514 
L 79.419427 208.064062 
L 79.705539 207.552057 
L 79.991651 207.668865 
L 80.277763 212.72796 
L 80.563875 213.429158 
L 80.849987 216.21736 
L 81.136099 215.813191 
L 81.422211 218.33502 
L 81.708323 219.493987 
L 81.994435 219.679029 
L 82.566659 224.345525 
L 82.852771 224.590475 
L 83.711107 229.211708 
L 84.283331 234.70424 
L 84.569443 235.631188 
L 84.855555 235.886256 
L 86.286115 227.181467 
L 86.572227 227.656722 
L 86.858339 229.424727 
L 87.144451 229.308219 
L 87.716675 232.380111 
L 88.002787 232.240313 
L 88.288899 234.150342 
L 88.575011 232.87608 
L 88.861123 233.098961 
L 89.147235 231.562762 
L 89.433347 233.627074 
L 90.005571 230.081025 
L 90.291683 230.541497 
L 90.863907 227.402742 
L 91.150019 226.178105 
L 91.436131 223.91684 
L 91.722243 228.075088 
L 92.008355 229.380346 
L 92.294467 228.451181 
L 92.580579 228.173491 
L 92.866691 228.534765 
L 93.438915 231.646869 
L 93.725027 232.336318 
L 94.011139 232.255266 
L 94.297251 232.665411 
L 94.583363 233.355548 
L 94.869475 233.715183 
L 95.155587 235.47091 
L 95.441699 238.583263 
L 95.727811 237.243555 
L 96.300035 238.748505 
L 96.872259 234.340388 
L 97.158371 235.437401 
L 97.444483 235.855387 
L 97.730595 236.904401 
L 98.016707 236.427858 
L 98.302819 236.414194 
L 98.588931 237.007431 
L 98.875043 233.617392 
L 99.161155 232.626721 
L 99.447267 231.225935 
L 99.733379 230.651684 
L 100.019491 230.438912 
L 100.305603 227.829658 
L 100.591715 230.845192 
L 100.877827 230.58609 
L 101.163939 231.004012 
L 101.450051 230.837914 
L 101.736163 231.519865 
L 102.022275 233.99007 
L 102.308387 233.235146 
L 102.594499 233.473217 
L 102.880611 232.82038 
L 103.166723 233.628823 
L 103.452835 232.359036 
L 103.738947 231.848206 
L 104.025059 232.368143 
L 104.311171 232.130205 
L 104.597283 235.117611 
L 104.883395 231.436493 
L 105.169507 233.400424 
L 105.455619 231.6699 
L 105.741731 232.091172 
L 106.313955 233.511657 
L 106.600067 231.943724 
L 106.886179 231.293052 
L 107.172291 236.847731 
L 107.458403 236.452661 
L 107.744515 234.308445 
L 108.030627 235.98904 
L 108.316739 236.609211 
L 109.175075 231.900004 
L 109.461187 232.835738 
L 109.747299 233.000387 
L 110.033411 234.344533 
L 110.891747 231.779628 
L 111.177859 228.331359 
L 111.463971 228.064591 
L 111.750083 229.268948 
L 112.036195 229.084792 
L 112.322307 226.592294 
L 112.608419 228.014671 
L 112.894531 227.064274 
L 113.180643 230.942458 
L 113.752867 229.749047 
L 114.038979 230.479952 
L 114.897315 227.166888 
L 115.183427 223.773785 
L 115.469539 222.990073 
L 115.755651 223.566674 
L 116.041763 223.342581 
L 116.327875 224.915121 
L 116.613987 224.327042 
L 116.900099 223.997563 
L 117.186211 224.588745 
L 117.472323 226.864281 
L 118.044547 225.02658 
L 118.330659 225.40456 
L 118.616771 223.097691 
L 118.902883 222.872238 
L 119.188995 223.79315 
L 119.761219 223.432514 
L 120.047331 220.614933 
L 120.333443 219.51166 
L 120.619555 217.166119 
L 120.905667 216.282687 
L 121.191779 215.980325 
L 121.477891 217.584456 
L 122.050115 209.724165 
L 122.336227 208.721644 
L 122.622339 208.769228 
L 122.908451 209.583481 
L 123.194563 210.96733 
L 123.480675 211.393272 
L 124.052899 209.697669 
L 124.625123 208.152724 
L 124.911235 209.08052 
L 125.197347 206.373456 
L 125.483459 208.693096 
L 125.769571 206.528979 
L 126.055683 205.734424 
L 126.341795 207.522644 
L 126.627907 207.507629 
L 126.914019 208.145604 
L 127.200131 207.42294 
L 127.486243 206.132569 
L 127.772355 205.940226 
L 128.058467 206.056721 
L 128.344579 205.303983 
L 128.630691 205.992779 
L 128.916803 204.111477 
L 129.202915 203.163917 
L 129.489027 202.918108 
L 129.775139 202.836623 
L 130.061251 203.446275 
L 130.347363 205.389714 
L 130.633475 203.788971 
L 130.919587 203.514972 
L 131.491811 203.48377 
L 131.777923 202.196003 
L 132.064035 203.952578 
L 132.350147 203.692459 
L 132.636259 205.259791 
L 132.922371 207.45184 
L 133.208483 205.563812 
L 133.494595 205.160727 
L 133.780707 205.188701 
L 134.066819 202.680517 
L 134.639043 201.155525 
L 134.925155 201.1899 
L 135.211267 201.432602 
L 135.497379 200.511181 
L 135.783491 200.324604 
L 136.069603 197.818567 
L 136.355715 198.464328 
L 136.641827 201.129833 
L 136.927939 201.398989 
L 137.214051 202.636545 
L 137.500163 203.041396 
L 137.786275 202.51066 
L 138.358499 202.282289 
L 138.930723 198.116484 
L 139.216835 197.573586 
L 139.502947 199.551443 
L 139.789059 200.65078 
L 140.075171 200.832906 
L 140.361283 201.562023 
L 140.647395 198.159629 
L 140.933507 200.468875 
L 141.791842 202.295189 
L 142.077954 200.370393 
L 142.364066 200.254699 
L 142.650178 200.853548 
L 142.93629 198.74039 
L 143.222402 199.731642 
L 143.508514 198.209066 
L 143.794626 200.135853 
L 144.36685 198.934847 
L 144.652962 199.187523 
L 144.939074 196.519919 
L 145.225186 196.951097 
L 145.511298 198.71453 
L 145.79741 198.260263 
L 146.083522 196.402687 
L 146.369634 197.197468 
L 146.655746 196.798336 
L 146.941858 194.523283 
L 147.22797 200.533535 
L 147.514082 198.429613 
L 147.800194 200.51179 
L 148.086306 199.489834 
L 148.372418 200.577736 
L 148.65853 200.156406 
L 148.944642 202.14121 
L 149.230754 202.991576 
L 149.516866 205.988766 
L 149.802978 206.315813 
L 150.08909 208.362136 
L 150.375202 208.229641 
L 150.661314 210.251286 
L 151.51965 204.641121 
L 151.805762 204.881587 
L 152.091874 202.581899 
L 152.377986 202.751045 
L 152.95021 204.600834 
L 153.522434 198.763688 
L 153.808546 198.867241 
L 154.094658 198.580556 
L 154.38077 198.752839 
L 154.666882 198.073103 
L 154.952994 195.873025 
L 155.525218 193.353345 
L 155.81133 193.118581 
L 156.097442 193.563685 
L 156.383554 195.298654 
L 156.669666 195.015413 
L 156.955778 193.509055 
L 157.24189 194.980518 
L 157.528002 194.996561 
L 157.814114 193.138047 
L 158.100226 193.37406 
L 158.386338 194.613991 
L 158.67245 194.498407 
L 158.958562 196.480691 
L 159.244674 197.429401 
L 159.530786 196.911669 
L 159.816898 193.429735 
L 160.10301 193.80749 
L 160.389122 194.972738 
L 160.675234 194.77662 
L 160.961346 193.382853 
L 161.247458 192.990536 
L 161.53357 193.353938 
L 161.819682 191.784394 
L 162.105794 187.967839 
L 162.391906 187.226063 
L 162.678018 190.484158 
L 162.96413 189.678735 
L 163.250242 187.43588 
L 163.536354 183.673857 
L 163.822466 183.996358 
L 164.108578 183.232341 
L 164.39469 182.117662 
L 164.680802 182.128869 
L 164.966914 179.442176 
L 165.539138 182.131161 
L 165.82525 182.787584 
L 166.397474 185.738013 
L 166.683586 183.178522 
L 166.969698 183.722588 
L 167.541922 181.171835 
L 167.828034 183.776336 
L 168.114146 184.642552 
L 168.400258 183.833923 
L 168.68637 184.285999 
L 168.972482 182.902828 
L 169.258594 183.978036 
L 169.544706 184.478123 
L 169.830818 183.318619 
L 170.11693 183.739393 
L 170.403042 183.416272 
L 170.689154 180.119751 
L 170.975266 179.579259 
L 171.261378 178.616669 
L 171.54749 179.40331 
L 171.833602 175.977108 
L 172.405826 180.333389 
L 172.691938 181.771199 
L 172.97805 182.369584 
L 173.264162 180.717332 
L 173.550274 181.756625 
L 173.836386 178.836119 
L 174.122498 179.682772 
L 174.40861 179.141356 
L 174.694722 176.180364 
L 174.980834 176.019894 
L 175.266946 173.68273 
L 175.553058 173.517839 
L 175.83917 171.543838 
L 176.125282 170.648415 
L 176.411394 172.117396 
L 176.697506 172.928538 
L 176.983618 172.531248 
L 177.26973 175.152148 
L 177.841954 174.008275 
L 178.128066 175.281321 
L 178.414178 173.655013 
L 178.70029 173.600552 
L 178.986402 172.894893 
L 179.272514 171.764283 
L 179.558626 172.328326 
L 179.844738 171.147287 
L 180.13085 171.344287 
L 180.416962 173.772873 
L 180.703074 173.665902 
L 181.275298 172.398636 
L 181.56141 173.029293 
L 182.133634 175.096142 
L 182.419746 174.814225 
L 182.705858 176.306465 
L 182.99197 174.553717 
L 183.278082 175.561394 
L 183.564194 173.909031 
L 183.850306 174.419383 
L 184.136418 173.491935 
L 184.42253 173.616198 
L 184.708642 174.56133 
L 184.994754 174.378494 
L 185.280866 174.941016 
L 185.566978 174.848888 
L 185.85309 175.183828 
L 186.139202 173.999618 
L 186.425314 174.410289 
L 186.711426 175.035154 
L 186.997538 176.665022 
L 187.28365 174.018158 
L 187.569762 174.112037 
L 187.855874 174.483861 
L 188.428098 178.302751 
L 188.71421 175.639023 
L 189.000322 175.200285 
L 189.572546 175.920605 
L 190.14477 172.182945 
L 190.430882 172.313417 
L 190.716994 169.227125 
L 191.003106 169.403008 
L 191.289218 170.404627 
L 191.57533 170.428937 
L 191.861442 172.161635 
L 192.147554 172.520403 
L 192.433666 171.231046 
L 192.719778 172.378114 
L 193.00589 172.694031 
L 193.292002 177.760018 
L 193.578114 177.510146 
L 193.864226 177.742938 
L 194.43645 179.88453 
L 194.722562 178.995361 
L 195.008674 179.024933 
L 195.294786 179.77601 
L 195.580898 178.943291 
L 195.86701 180.250586 
L 196.153122 180.691119 
L 196.439234 177.564691 
L 196.725346 178.049086 
L 197.011458 176.117407 
L 197.583682 179.5268 
L 197.869794 178.033235 
L 198.72813 181.739807 
L 199.014242 181.772193 
L 199.300354 179.891174 
L 199.586466 178.870551 
L 200.15869 178.337836 
L 200.444802 178.990068 
L 201.017026 176.219546 
L 201.58925 173.631992 
L 201.875362 171.442548 
L 202.161474 173.212117 
L 202.447586 170.535851 
L 202.733698 171.988887 
L 203.01981 172.477672 
L 203.592034 166.864911 
L 203.878146 166.092169 
L 204.164258 164.696128 
L 204.45037 165.308355 
L 204.736482 164.850189 
L 205.022594 168.364661 
L 205.308706 165.563441 
L 205.594818 166.24706 
L 205.88093 168.007053 
L 206.453154 162.762775 
L 206.739266 162.733819 
L 207.025378 162.080144 
L 207.31149 160.884598 
L 207.597602 160.94627 
L 207.883714 161.184513 
L 208.74205 163.750585 
L 209.886498 156.559243 
L 210.17261 156.27241 
L 210.458722 156.171628 
L 210.744834 157.741798 
L 211.030946 157.430698 
L 211.317058 154.268612 
L 211.60317 155.614469 
L 211.889282 155.246903 
L 212.175394 156.698236 
L 212.461506 156.938489 
L 212.461506 156.938489 
" clip-path="url(#p907c0c97d9)" style="fill: none; stroke: #00bfbf; stroke-width: 1.5; stroke-linecap: square"/>
   </g>
   <g id="matplotlib.axis_3">
    <g id="xtick_4">
     <g id="line2d_12">
      <g>
       <use xlink:href="#m2f9eb388ba" x="69.691619" y="242.9725" style="stroke: #000000; stroke-width: 0.8"/>
      </g>
     </g>
     <g id="text_9">
      <!-- 0.0 -->
      <g transform="translate(60.149744 259.090625)scale(0.12 -0.12)">
       <use xlink:href="#DejaVuSans-30"/>
       <use xlink:href="#DejaVuSans-2e" x="63.623047"/>
       <use xlink:href="#DejaVuSans-30" x="95.410156"/>
      </g>
     </g>
    </g>
    <g id="xtick_5">
     <g id="line2d_13">
      <g>
       <use xlink:href="#m2f9eb388ba" x="126.914019" y="242.9725" style="stroke: #000000; stroke-width: 0.8"/>
      </g>
     </g>
     <g id="text_10">
      <!-- 0.2 -->
      <g transform="translate(117.372144 259.090625)scale(0.12 -0.12)">
       <use xlink:href="#DejaVuSans-30"/>
       <use xlink:href="#DejaVuSans-2e" x="63.623047"/>
       <use xlink:href="#DejaVuSans-32" x="95.410156"/>
      </g>
     </g>
    </g>
    <g id="xtick_6">
     <g id="line2d_14">
      <g>
       <use xlink:href="#m2f9eb388ba" x="184.136418" y="242.9725" style="stroke: #000000; stroke-width: 0.8"/>
      </g>
     </g>
     <g id="text_11">
      <!-- 0.4 -->
      <g transform="translate(174.594543 259.090625)scale(0.12 -0.12)">
       <use xlink:href="#DejaVuSans-30"/>
       <use xlink:href="#DejaVuSans-2e" x="63.623047"/>
       <use xlink:href="#DejaVuSans-34" x="95.410156"/>
      </g>
     </g>
    </g>
    <g id="text_12">
     <!-- Time (s) -->
     <g transform="translate(116.681875 274.704375)scale(0.12 -0.12)">
      <use xlink:href="#DejaVuSans-54"/>
      <use xlink:href="#DejaVuSans-69" x="57.958984"/>
      <use xlink:href="#DejaVuSans-6d" x="85.742188"/>
      <use xlink:href="#DejaVuSans-65" x="183.154297"/>
      <use xlink:href="#DejaVuSans-20" x="244.677734"/>
      <use xlink:href="#DejaVuSans-28" x="276.464844"/>
      <use xlink:href="#DejaVuSans-73" x="315.478516"/>
      <use xlink:href="#DejaVuSans-29" x="367.578125"/>
     </g>
    </g>
   </g>
   <g id="matplotlib.axis_4">
    <g id="ytick_4">
     <g id="line2d_15">
      <g>
       <use xlink:href="#mfb9a31ae0f" x="62.553125" y="235.111423" style="stroke: #000000; stroke-width: 0.8"/>
      </g>
     </g>
     <g id="text_13">
      <!-- −5 -->
      <g transform="translate(37.8625 239.670485)scale(0.12 -0.12)">
       <use xlink:href="#DejaVuSans-2212"/>
       <use xlink:href="#DejaVuSans-35" x="83.789062"/>
      </g>
     </g>
    </g>
    <g id="ytick_5">
     <g id="line2d_16">
      <g>
       <use xlink:href="#mfb9a31ae0f" x="62.553125" y="194.382391" style="stroke: #000000; stroke-width: 0.8"/>
      </g>
     </g>
     <g id="text_14">
      <!-- 0 -->
      <g transform="translate(47.918125 198.941453)scale(0.12 -0.12)">
       <use xlink:href="#DejaVuSans-30"/>
      </g>
     </g>
    </g>
    <g id="ytick_6">
     <g id="line2d_17">
      <g>
       <use xlink:href="#mfb9a31ae0f" x="62.553125" y="153.653358" style="stroke: #000000; stroke-width: 0.8"/>
      </g>
     </g>
     <g id="text_15">
      <!-- 5 -->
      <g transform="translate(47.918125 158.212421)scale(0.12 -0.12)">
       <use xlink:href="#DejaVuSans-35"/>
      </g>
     </g>
    </g>
    <g id="text_16">
     <!-- x -->
     <g transform="translate(31.366875 200.059808)rotate(-90)scale(0.12 -0.12)">
      <use xlink:href="#DejaVuSans-78"/>
     </g>
    </g>
   </g>
   <g id="line2d_18">
    <path d="M 69.691619 194.382391 
L 69.977731 196.637171 
L 70.263843 197.190819 
L 70.549955 199.16651 
L 70.836067 202.5257 
L 71.122179 202.991385 
L 71.694403 200.690173 
L 71.980515 201.419216 
L 72.266627 198.629219 
L 72.838851 196.077223 
L 73.124963 195.582171 
L 73.411075 197.659512 
L 73.983299 195.067539 
L 74.269411 195.118276 
L 74.555523 194.177468 
L 75.127747 199.338195 
L 75.413859 199.181014 
L 75.699971 198.809385 
L 75.986083 196.297009 
L 76.272195 197.445815 
L 76.558307 199.487944 
L 76.844419 198.793828 
L 77.130531 199.99114 
L 77.702755 197.936917 
L 77.988867 200.229994 
L 78.274979 200.343988 
L 78.561091 198.159655 
L 78.847203 195.114946 
L 79.133315 193.289407 
L 79.419427 195.117254 
L 79.705539 194.531762 
L 79.991651 194.633633 
L 80.277763 199.667603 
L 80.563875 199.840281 
L 80.849987 202.082693 
L 81.136099 200.908494 
L 81.422211 202.777713 
L 81.708323 203.097148 
L 81.994435 202.410714 
L 82.280547 203.561666 
L 82.566659 205.35645 
L 82.852771 204.503994 
L 83.424995 206.005126 
L 83.711107 205.862769 
L 83.997219 207.8902 
L 84.283331 208.856483 
L 84.569443 208.336021 
L 84.855555 207.195726 
L 85.427779 200.778212 
L 85.713891 199.220557 
L 86.286115 194.875147 
L 86.572227 195.301127 
L 86.858339 196.977258 
L 87.144451 196.601263 
L 87.716675 199.096499 
L 88.002787 198.485291 
L 88.288899 199.985029 
L 88.575011 198.150503 
L 88.861123 197.996573 
L 89.147235 196.098956 
L 89.433347 197.991611 
L 90.005571 193.947651 
L 90.291683 194.451597 
L 90.863907 191.478914 
L 91.150019 190.544624 
L 91.436131 188.667136 
L 91.722243 193.39691 
L 92.008355 194.800716 
L 92.294467 193.829718 
L 92.580579 193.607296 
L 92.866691 194.046079 
L 93.438915 197.045501 
L 93.725027 197.468639 
L 94.011139 197.078961 
L 94.297251 197.21945 
L 94.583363 197.62588 
L 94.869475 197.661167 
L 95.155587 199.089016 
L 95.441699 201.730707 
L 95.727811 199.656167 
L 96.300035 200.081232 
L 96.872259 194.775513 
L 97.158371 195.833214 
L 97.444483 196.106117 
L 97.730595 196.982759 
L 98.016707 196.246179 
L 98.302819 196.046136 
L 98.588931 196.472998 
L 98.875043 192.873899 
L 99.733379 190.645298 
L 100.019491 190.806235 
L 100.305603 188.554597 
L 100.591715 192.152911 
L 100.877827 192.116757 
L 101.163939 192.761241 
L 101.450051 192.757258 
L 101.736163 193.601723 
L 102.022275 196.149995 
L 102.308387 195.21831 
L 102.594499 195.372789 
L 102.880611 194.620913 
L 103.166723 195.405503 
L 103.452835 194.033405 
L 103.738947 193.557473 
L 104.025059 194.159903 
L 104.311171 193.944213 
L 104.597283 196.975437 
L 104.883395 193.035014 
L 105.169507 195.133683 
L 105.455619 193.32803 
L 106.027843 194.5279 
L 106.313955 195.313438 
L 106.600067 193.6524 
L 106.886179 193.074727 
L 107.172291 198.760172 
L 107.458403 197.927324 
L 107.744515 195.428615 
L 108.030627 197.004588 
L 108.316739 197.362539 
L 109.175075 192.295428 
L 109.461187 193.439858 
L 109.747299 193.69876 
L 110.033411 195.111269 
L 110.891747 192.596183 
L 111.177859 189.326535 
L 111.463971 189.565352 
L 111.750083 191.251413 
L 112.036195 191.380354 
L 112.322307 189.18806 
L 112.608419 191.12987 
L 112.894531 190.504726 
L 113.180643 194.770676 
L 113.466755 193.983654 
L 113.752867 193.57831 
L 114.038979 194.389623 
L 114.611203 192.326465 
L 114.897315 191.407443 
L 115.183427 188.311834 
L 115.469539 188.135178 
L 115.755651 189.3365 
L 116.041763 189.616997 
L 116.327875 191.666076 
L 116.613987 191.349628 
L 116.900099 191.323425 
L 117.186211 192.220504 
L 117.472323 194.712229 
L 117.758435 193.531913 
L 118.044547 192.926591 
L 118.330659 193.450151 
L 118.616771 191.236506 
L 118.902883 191.325642 
L 119.188995 192.552228 
L 119.761219 192.560578 
L 120.047331 189.925179 
L 120.333443 189.267627 
L 120.619555 187.433562 
L 120.905667 187.245013 
L 121.191779 187.656389 
L 121.477891 189.93312 
L 122.050115 183.339189 
L 122.336227 183.440988 
L 122.622339 184.582712 
L 123.480675 189.569376 
L 123.766787 189.330313 
L 124.339011 188.55901 
L 124.625123 188.449886 
L 124.911235 189.970933 
L 125.197347 187.705014 
L 125.483459 190.692392 
L 125.769571 188.897274 
L 126.055683 188.651231 
L 126.341795 191.012567 
L 126.627907 191.334535 
L 126.914019 192.277296 
L 127.200131 191.765141 
L 127.486243 190.736494 
L 127.772355 190.908741 
L 128.058467 191.372601 
L 128.344579 190.920842 
L 128.630691 191.955793 
L 128.916803 190.317151 
L 129.202915 189.776115 
L 129.489027 189.990933 
L 129.775139 190.348594 
L 130.061251 191.361626 
L 130.347363 193.607141 
L 130.633475 192.083923 
L 130.919587 192.039771 
L 131.491811 192.456622 
L 131.777923 191.361432 
L 132.064035 193.420103 
L 132.350147 193.256212 
L 132.922371 197.072834 
L 133.208483 194.915762 
L 133.494595 194.45934 
L 133.780707 194.479619 
L 134.066819 191.961713 
L 134.639043 190.974258 
L 135.211267 191.895443 
L 135.497379 191.222716 
L 135.783491 191.352107 
L 136.069603 189.149098 
L 136.355715 190.318188 
L 136.641827 193.390114 
L 136.927939 193.758497 
L 137.214051 195.058443 
L 137.500163 195.395688 
L 137.786275 194.763622 
L 138.358499 194.470759 
L 138.930723 190.499148 
L 139.216835 190.344574 
L 139.502947 192.726213 
L 139.789059 193.991168 
L 140.075171 194.212416 
L 140.361283 194.95853 
L 140.647395 191.498523 
L 140.933507 194.096155 
L 141.791842 195.802866 
L 142.077954 193.736023 
L 142.364066 193.684965 
L 142.650178 194.353557 
L 142.93629 192.243282 
L 143.222402 193.448445 
L 143.508514 192.019264 
L 143.794626 194.182364 
L 144.36685 193.073395 
L 144.652962 193.456971 
L 144.939074 190.881909 
L 145.225186 191.663135 
L 145.511298 193.698494 
L 145.79741 193.312616 
L 146.083522 191.562017 
L 146.369634 192.638836 
L 146.655746 192.41406 
L 146.941858 190.33584 
L 147.22797 196.750746 
L 147.514082 194.409989 
L 147.800194 196.489406 
L 148.086306 195.256749 
L 148.372418 196.257215 
L 148.65853 195.648402 
L 148.944642 197.506605 
L 149.230754 198.04455 
L 149.516866 200.675524 
L 149.802978 200.373258 
L 150.08909 201.820494 
L 150.375202 200.944188 
L 150.661314 202.309654 
L 151.51965 195.10503 
L 151.805762 195.273233 
L 152.091874 192.88446 
L 152.377986 193.203399 
L 152.95021 195.171666 
L 153.522434 189.467294 
L 153.808546 190.062357 
L 154.094658 190.207675 
L 154.38077 190.79743 
L 154.666882 190.47619 
L 154.952994 188.666732 
L 155.525218 187.359421 
L 155.81133 187.826953 
L 156.097442 188.927601 
L 156.383554 191.208049 
L 156.669666 191.242242 
L 156.955778 190.049899 
L 157.24189 191.954611 
L 157.528002 192.213432 
L 157.814114 190.571814 
L 158.100226 191.188885 
L 158.386338 192.748166 
L 158.67245 192.796005 
L 158.958562 194.936928 
L 159.244674 195.830184 
L 159.530786 195.167672 
L 159.816898 191.60721 
L 160.10301 192.262483 
L 160.389122 193.639722 
L 160.675234 193.51787 
L 160.961346 192.210556 
L 161.247458 192.035422 
L 161.53357 192.633522 
L 161.819682 191.238864 
L 162.105794 187.736662 
L 162.391906 187.659459 
L 162.678018 191.589847 
L 162.96413 191.063679 
L 163.250242 189.152695 
L 163.536354 185.913642 
L 163.822466 187.083017 
L 164.108578 187.048937 
L 164.39469 186.667603 
L 164.680802 187.450289 
L 164.966914 185.456807 
L 165.539138 189.710912 
L 165.82525 190.834483 
L 166.397474 194.280251 
L 166.683586 191.730973 
L 166.969698 192.540182 
L 167.541922 190.483368 
L 167.828034 193.477771 
L 168.114146 194.434449 
L 168.400258 193.620614 
L 168.68637 194.148867 
L 168.972482 192.789048 
L 169.258594 194.023591 
L 169.544706 194.559558 
L 169.830818 193.382337 
L 170.11693 193.903117 
L 170.403042 193.627923 
L 170.689154 190.406848 
L 170.975266 190.263911 
L 171.261378 189.713169 
L 171.54749 190.966732 
L 171.833602 187.882096 
L 172.405826 193.222472 
L 172.691938 194.776275 
L 172.97805 195.335271 
L 173.264162 193.587731 
L 173.550274 194.70649 
L 173.836386 191.753574 
L 174.122498 192.863109 
L 174.40861 192.47362 
L 174.694722 189.703506 
L 174.980834 190.010924 
L 175.266946 188.110907 
L 175.553058 188.573164 
L 175.83917 187.180086 
L 176.125282 187.004894 
L 176.411394 189.211624 
L 176.697506 190.539843 
L 176.983618 190.526807 
L 177.26973 193.533266 
L 177.841954 192.61289 
L 178.128066 194.062886 
L 178.414178 192.468529 
L 178.70029 192.605454 
L 178.986402 192.077488 
L 179.272514 191.177369 
L 179.558626 192.061914 
L 179.844738 191.112923 
L 180.13085 191.636869 
L 180.416962 194.340007 
L 180.703074 194.237275 
L 181.275298 193.068182 
L 181.847522 194.806665 
L 182.133634 195.909894 
L 182.419746 195.475227 
L 182.705858 196.858183 
L 182.99197 194.857856 
L 183.278082 195.817987 
L 183.564194 194.022064 
L 183.850306 194.568449 
L 184.136418 193.622395 
L 184.42253 193.822657 
L 184.708642 194.823763 
L 184.994754 194.59679 
L 185.280866 195.137872 
L 185.566978 194.970196 
L 185.85309 195.246355 
L 186.139202 193.975749 
L 186.711426 195.047479 
L 186.997538 196.610838 
L 187.28365 193.74113 
L 187.569762 193.899135 
L 187.855874 194.319284 
L 188.428098 197.975677 
L 188.71421 194.95262 
L 189.000322 194.456859 
L 189.572546 195.13328 
L 189.858658 192.75999 
L 190.14477 191.482771 
L 190.430882 191.903205 
L 190.716994 189.064831 
L 191.003106 189.772471 
L 191.289218 191.235082 
L 191.57533 191.574122 
L 191.861442 193.587647 
L 192.147554 194.025889 
L 192.433666 192.772183 
L 192.719778 194.080271 
L 193.00589 194.426401 
L 193.292002 199.487986 
L 193.578114 198.727554 
L 193.864226 198.52583 
L 194.43645 199.775951 
L 194.722562 198.347425 
L 195.008674 197.980494 
L 195.294786 198.371761 
L 195.580898 197.140105 
L 195.86701 198.171628 
L 196.153122 198.233238 
L 196.439234 194.721725 
L 196.725346 195.172186 
L 197.011458 193.161528 
L 197.583682 196.651312 
L 197.869794 194.930856 
L 198.72813 198.129149 
L 199.014242 197.786858 
L 199.300354 195.565393 
L 199.586466 194.42647 
L 200.15869 193.914186 
L 200.444802 194.613238 
L 200.730914 192.954514 
L 201.58925 189.956641 
L 201.875362 188.209772 
L 202.161474 190.596604 
L 202.447586 188.298916 
L 202.733698 190.360299 
L 203.01981 191.251294 
L 203.305922 188.262689 
L 203.592034 186.563612 
L 203.878146 186.572748 
L 204.164258 185.957671 
L 204.45037 187.412371 
L 204.736482 187.651206 
L 205.022594 191.838797 
L 205.308706 189.291936 
L 205.594818 190.484601 
L 205.88093 192.634372 
L 206.453154 187.995591 
L 206.739266 188.605315 
L 207.025378 188.529348 
L 207.31149 187.919106 
L 207.883714 189.440878 
L 208.74205 193.119605 
L 209.314274 189.429259 
L 209.886498 187.453784 
L 210.458722 188.411287 
L 210.744834 190.578568 
L 211.030946 190.64785 
L 211.317058 187.859218 
L 211.60317 189.857392 
L 211.889282 189.942326 
L 212.175394 191.837666 
L 212.461506 192.332392 
L 212.461506 192.332392 
" clip-path="url(#p907c0c97d9)" style="fill: none; stroke: #808080; stroke-width: 0.75; stroke-linecap: square"/>
   </g>
   <g id="line2d_19">
    <path d="M 69.691619 194.382391 
L 69.977731 196.631183 
L 70.263843 197.412778 
L 70.549955 199.66 
L 70.836067 203.507178 
L 71.122179 204.775556 
L 71.694403 204.056973 
L 71.980515 205.408301 
L 72.266627 203.346147 
L 73.124963 201.193117 
L 73.411075 203.396583 
L 73.983299 201.303572 
L 74.269411 201.425743 
L 74.555523 200.557002 
L 75.127747 205.977176 
L 75.413859 206.312864 
L 75.699971 206.405849 
L 75.986083 204.320206 
L 76.272195 205.652673 
L 76.558307 208.01687 
L 76.844419 207.67526 
L 77.130531 209.189895 
L 77.702755 207.677936 
L 77.988867 210.202376 
L 78.274979 210.524079 
L 78.561091 208.526613 
L 78.847203 205.650539 
L 79.133315 203.914072 
L 79.419427 205.626947 
L 79.705539 205.131722 
L 79.991651 205.267974 
L 80.277763 210.350888 
L 80.563875 210.660144 
L 80.849987 213.02543 
L 81.136099 211.961447 
L 81.422211 213.930003 
L 81.708323 214.338623 
L 81.994435 213.732416 
L 82.280547 214.955627 
L 82.566659 216.815359 
L 82.852771 216.021179 
L 83.424995 217.622049 
L 83.711107 217.522087 
L 83.997219 219.58768 
L 84.283331 220.588061 
L 84.569443 220.098229 
L 84.855555 218.985532 
L 85.427779 212.615748 
L 85.713891 211.078881 
L 86.286115 206.770006 
L 86.572227 207.211389 
L 86.858339 208.902048 
L 87.144451 208.538816 
L 87.716675 211.055748 
L 88.002787 210.453411 
L 88.288899 211.961223 
L 88.575011 210.13371 
L 88.861123 209.986419 
L 89.147235 208.094812 
L 89.433347 209.993259 
L 90.005571 205.958935 
L 90.291683 206.417779 
L 90.863907 203.262557 
L 91.150019 202.03892 
L 91.436131 199.781737 
L 91.722243 203.947028 
L 92.008355 205.245616 
L 92.294467 204.340082 
L 92.580579 204.055015 
L 92.866691 204.40779 
L 93.438915 207.501805 
L 93.725027 208.084817 
L 94.011139 207.838901 
L 94.297251 208.108839 
L 94.583363 208.631705 
L 94.869475 208.771722 
L 95.155587 210.293777 
L 95.441699 213.019916 
L 95.727811 211.020946 
L 96.300035 211.575753 
L 96.872259 206.375488 
L 97.158371 207.456606 
L 97.444483 207.772687 
L 97.730595 208.688124 
L 98.016707 207.9863 
L 98.302819 207.817653 
L 98.588931 208.27281 
L 98.875043 204.699081 
L 99.161155 203.70697 
L 99.447267 202.29585 
L 99.733379 201.723191 
L 100.019491 201.502572 
L 100.305603 198.889641 
L 100.591715 201.907517 
L 100.877827 201.646508 
L 101.163939 202.05713 
L 101.450051 201.894993 
L 101.736163 202.57447 
L 102.022275 205.049712 
L 102.308387 204.306165 
L 102.594499 204.536197 
L 102.880611 203.882243 
L 103.166723 204.685614 
L 103.452835 203.414377 
L 103.738947 202.895827 
L 104.025059 203.420926 
L 104.311171 203.174971 
L 104.597283 206.1669 
L 104.883395 202.472551 
L 105.169507 204.440479 
L 105.455619 202.706212 
L 105.741731 203.130796 
L 106.313955 204.547013 
L 106.600067 202.978211 
L 106.886179 202.333945 
L 107.172291 207.890679 
L 107.458403 207.350213 
L 107.744515 205.114757 
L 108.030627 206.813318 
L 108.316739 207.395542 
L 109.175075 202.593827 
L 109.461187 203.534414 
L 109.747299 203.686293 
L 110.033411 205.019389 
L 110.605635 203.227362 
L 110.891747 202.457942 
L 111.177859 199.013455 
L 111.463971 198.751747 
L 111.750083 199.956395 
L 112.036195 199.773534 
L 112.322307 197.288261 
L 112.608419 198.704765 
L 112.894531 197.752847 
L 113.180643 201.625081 
L 113.466755 200.870252 
L 113.752867 200.43004 
L 114.038979 201.161377 
L 114.897315 197.863626 
L 115.183427 194.460429 
L 115.469539 193.670561 
L 115.755651 194.242667 
L 116.041763 194.015921 
L 116.327875 195.582903 
L 116.613987 195.005319 
L 116.900099 194.685717 
L 117.186211 195.280309 
L 117.472323 197.564654 
L 117.758435 196.410687 
L 118.044547 195.726483 
L 118.330659 196.119468 
L 118.616771 193.821235 
L 118.902883 193.58544 
L 119.188995 194.503701 
L 119.761219 194.134151 
L 120.047331 191.31383 
L 120.333443 190.210581 
L 120.619555 187.86126 
L 120.905667 186.978777 
L 121.191779 186.68469 
L 121.477891 188.290382 
L 122.050115 180.444013 
L 122.336227 179.616233 
L 122.622339 179.921198 
L 122.908451 180.962371 
L 123.194563 182.469168 
L 123.480675 182.893948 
L 124.625123 179.932519 
L 124.911235 181.086106 
L 125.197347 178.489655 
L 125.483459 181.179097 
L 125.769571 179.11632 
L 126.055683 178.629059 
L 126.341795 180.77317 
L 126.627907 180.89999 
L 126.914019 181.667133 
L 127.200131 180.99736 
L 127.486243 179.826449 
L 127.772355 179.870489 
L 128.058467 180.218969 
L 128.344579 179.66345 
L 128.630691 180.604908 
L 128.916803 178.882261 
L 129.202915 178.265344 
L 129.489027 178.411738 
L 129.775139 178.707836 
L 130.061251 179.66552 
L 130.347363 181.861414 
L 130.633475 180.294573 
L 130.919587 180.210244 
L 131.491811 180.558394 
L 131.777923 179.433932 
L 132.064035 181.466096 
L 132.350147 181.278763 
L 132.922371 185.128712 
L 133.208483 183.241706 
L 133.494595 182.82248 
L 133.780707 182.84935 
L 134.066819 180.340278 
L 134.639043 179.24448 
L 134.925155 179.573352 
L 135.211267 180.07772 
L 135.497379 179.3676 
L 135.783491 179.463232 
L 136.069603 177.229859 
L 136.355715 178.371177 
L 136.641827 181.418317 
L 136.927939 181.765005 
L 137.214051 183.045831 
L 137.500163 183.444591 
L 137.786275 182.904905 
L 138.358499 182.674992 
L 138.930723 178.668351 
L 139.216835 178.477423 
L 139.502947 180.826304 
L 139.789059 182.062167 
L 140.075171 182.259661 
L 140.361283 182.990992 
L 140.647395 179.585703 
L 140.933507 182.15538 
L 141.791842 183.985499 
L 142.077954 182.064091 
L 142.364066 181.963599 
L 142.650178 182.586667 
L 142.93629 180.471314 
L 143.222402 181.634578 
L 143.508514 180.168107 
L 143.794626 182.29719 
L 144.36685 181.141324 
L 144.652962 181.499107 
L 144.939074 178.901015 
L 145.225186 179.660966 
L 145.511298 181.677309 
L 145.79741 181.274929 
L 146.083522 179.509148 
L 146.369634 180.57201 
L 146.655746 180.334821 
L 146.941858 178.245421 
L 147.22797 184.649864 
L 147.514082 182.554735 
L 147.800194 184.635191 
L 148.086306 183.621261 
L 148.372418 184.709086 
L 148.65853 184.298362 
L 148.944642 186.291379 
L 149.230754 187.131013 
L 149.516866 190.130002 
L 149.802978 190.452727 
L 150.08909 192.496089 
L 150.375202 192.369311 
L 150.661314 194.39717 
L 151.51965 188.781735 
L 151.805762 189.028159 
L 152.091874 186.736255 
L 152.377986 186.908939 
L 152.95021 188.767691 
L 153.522434 182.927348 
L 153.808546 183.030253 
L 154.094658 182.738453 
L 154.38077 182.907749 
L 154.666882 182.227548 
L 154.952994 180.030938 
L 155.525218 178.047823 
L 155.81133 178.226965 
L 156.097442 179.068103 
L 156.383554 181.11518 
L 156.669666 180.939652 
L 156.955778 179.558506 
L 157.24189 181.293118 
L 157.528002 181.399146 
L 157.814114 179.62007 
L 158.100226 180.11308 
L 158.386338 181.560791 
L 158.67245 181.508609 
L 158.958562 183.559464 
L 159.244674 184.504757 
L 159.530786 183.991115 
L 159.816898 180.512845 
L 160.10301 181.058458 
L 160.389122 182.337077 
L 160.675234 182.141248 
L 160.961346 180.756407 
L 161.247458 180.5076 
L 161.53357 181.039386 
L 161.819682 179.585113 
L 162.105794 176.029048 
L 162.391906 175.902688 
L 162.678018 179.788802 
L 162.96413 179.223521 
L 163.250242 177.277256 
L 163.536354 174.006056 
L 163.822466 175.145956 
L 164.108578 175.085484 
L 164.39469 174.680388 
L 164.680802 175.441613 
L 164.966914 173.428938 
L 165.539138 177.650098 
L 165.82525 178.760107 
L 166.111362 180.890568 
L 166.397474 182.183465 
L 166.683586 179.629914 
L 166.969698 180.429994 
L 167.541922 178.357623 
L 167.828034 181.345113 
L 168.114146 182.296141 
L 168.400258 181.488727 
L 168.68637 182.011344 
L 168.972482 180.648022 
L 169.258594 181.877575 
L 169.544706 182.41001 
L 169.830818 181.249695 
L 170.11693 181.764777 
L 170.403042 181.484948 
L 170.689154 178.259343 
L 170.975266 178.111654 
L 171.261378 177.556604 
L 171.54749 178.806163 
L 171.833602 175.71819 
L 172.405826 181.052347 
L 172.691938 182.604137 
L 172.97805 183.199989 
L 173.264162 181.533532 
L 173.550274 182.638926 
L 173.836386 179.71514 
L 174.122498 180.809292 
L 174.40861 180.406101 
L 174.694722 177.62364 
L 174.980834 177.919397 
L 175.266946 176.008944 
L 175.553058 176.461474 
L 175.83917 175.059782 
L 176.125282 174.876508 
L 176.411394 177.075933 
L 176.697506 178.39801 
L 176.983618 178.379674 
L 177.26973 181.381361 
L 177.841954 180.453759 
L 178.128066 181.900572 
L 178.414178 180.304415 
L 178.70029 180.438641 
L 178.986402 179.90826 
L 179.272514 179.005863 
L 179.558626 179.888223 
L 179.844738 178.937398 
L 180.13085 179.459542 
L 180.416962 182.161161 
L 180.703074 182.061651 
L 181.275298 180.892028 
L 181.847522 182.628161 
L 182.133634 183.770767 
L 182.419746 183.490558 
L 182.705858 184.975907 
L 182.99197 183.229705 
L 183.278082 184.2218 
L 183.564194 182.578338 
L 183.850306 183.086638 
L 184.136418 182.150462 
L 184.42253 182.282962 
L 184.708642 183.229638 
L 184.994754 183.031223 
L 185.280866 183.588571 
L 185.566978 183.494561 
L 185.85309 183.822806 
L 186.139202 182.6395 
L 186.425314 183.046879 
L 186.711426 183.665587 
L 186.997538 185.297307 
L 187.28365 182.649787 
L 187.569762 182.740171 
L 187.855874 183.109064 
L 188.428098 186.926889 
L 188.71421 184.271157 
L 189.000322 183.841192 
L 189.572546 184.570343 
L 190.14477 180.83941 
L 190.430882 181.105099 
L 190.716994 178.127524 
L 191.003106 178.709365 
L 191.289218 180.058863 
L 191.57533 180.296353 
L 191.861442 182.218542 
L 192.147554 182.581215 
L 192.433666 181.289759 
L 192.719778 182.527146 
L 193.00589 182.8416 
L 193.292002 187.906631 
L 193.578114 187.657943 
L 193.864226 187.896024 
L 194.43645 190.048242 
L 194.722562 189.157341 
L 195.008674 189.191924 
L 195.294786 189.947561 
L 195.580898 189.116238 
L 195.86701 190.429321 
L 196.153122 190.86718 
L 196.439234 187.734336 
L 196.725346 188.222176 
L 197.011458 186.294523 
L 197.583682 189.694906 
L 197.869794 188.205648 
L 198.72813 191.910942 
L 199.014242 191.953536 
L 199.300354 190.08261 
L 199.586466 189.059016 
L 200.15869 188.538963 
L 200.444802 189.200504 
L 201.017026 186.442585 
L 201.58925 183.847175 
L 201.875362 181.65836 
L 202.161474 183.481686 
L 202.447586 180.798099 
L 202.733698 182.390479 
L 203.01981 182.878656 
L 203.592034 177.526668 
L 203.878146 177.219833 
L 204.164258 176.32035 
L 204.45037 177.518965 
L 204.736482 177.527474 
L 205.022594 181.507773 
L 205.308706 178.775207 
L 205.594818 179.80014 
L 205.88093 181.799142 
L 206.453154 176.903189 
L 206.739266 177.402434 
L 207.025378 177.227076 
L 207.31149 176.527365 
L 207.883714 177.896074 
L 208.74205 181.399062 
L 209.314274 177.619375 
L 209.886498 175.570351 
L 210.458722 176.467745 
L 210.744834 178.609599 
L 211.030946 178.65633 
L 211.317058 175.847414 
L 211.60317 177.826804 
L 211.889282 177.895186 
L 212.175394 179.775645 
L 212.461506 180.257354 
L 212.461506 180.257354 
" clip-path="url(#p907c0c97d9)" style="fill: none; stroke: #ff7f0e; stroke-width: 1.5; stroke-linecap: square"/>
   </g>
   <g id="line2d_20">
    <path d="M 62.553125 194.382391 
L 219.6 194.382391 
" clip-path="url(#p907c0c97d9)" style="fill: none; stroke-dasharray: 2.775,1.2; stroke-dashoffset: 0; stroke: #808080; stroke-width: 0.75"/>
   </g>
   <g id="patch_8">
    <path d="M 62.553125 242.9725 
L 62.553125 150.044617 
" style="fill: none; stroke: #000000; stroke-width: 0.8; stroke-linejoin: miter; stroke-linecap: square"/>
   </g>
   <g id="patch_9">
    <path d="M 219.6 242.9725 
L 219.6 150.044617 
" style="fill: none; stroke: #000000; stroke-width: 0.8; stroke-linejoin: miter; stroke-linecap: square"/>
   </g>
   <g id="patch_10">
    <path d="M 62.553125 242.9725 
L 219.6 242.9725 
" style="fill: none; stroke: #000000; stroke-width: 0.8; stroke-linejoin: miter; stroke-linecap: square"/>
   </g>
   <g id="patch_11">
    <path d="M 62.553125 150.044617 
L 219.6 150.044617 
" style="fill: none; stroke: #000000; stroke-width: 0.8; stroke-linejoin: miter; stroke-linecap: square"/>
   </g>
  </g>
 </g>
 <defs>
  <clipPath id="p9559f00cf8">
   <rect x="62.553125" y="11.444617" width="157.046875" height="92.927883"/>
  </clipPath>
  <clipPath id="p907c0c97d9">
   <rect x="62.553125" y="150.044617" width="157.046875" height="92.927883"/>
  </clipPath>
 </defs>
</svg>
