<?xml version="1.0" encoding="utf-8" standalone="no"?>
<!DOCTYPE svg PUBLIC "-//W3C//DTD SVG 1.1//EN"
  "http://www.w3.org/Graphics/SVG/1.1/DTD/svg11.dtd">
<!-- Created with matplotlib (https://matplotlib.org/) -->
<svg height="288pt" version="1.1" viewBox="0 0 230.4 288" width="230.4pt" xmlns="http://www.w3.org/2000/svg" xmlns:xlink="http://www.w3.org/1999/xlink">
 <metadata>
  <rdf:RDF xmlns:cc="http://creativecommons.org/ns#" xmlns:dc="http://purl.org/dc/elements/1.1/" xmlns:rdf="http://www.w3.org/1999/02/22-rdf-syntax-ns#">
   <cc:Work>
    <dc:type rdf:resource="http://purl.org/dc/dcmitype/StillImage"/>
    <dc:date>2025-11-04T17:30:45.312486</dc:date>
    <dc:format>image/svg+xml</dc:format>
    <dc:creator>
     <cc:Agent>
      <dc:title>Matplotlib v3.3.4, https://matplotlib.org/</dc:title>
     </cc:Agent>
    </dc:creator>
   </cc:Work>
  </rdf:RDF>
 </metadata>
 <defs>
  <style type="text/css">*{stroke-linecap:butt;stroke-linejoin:round;}</style>
 </defs>
 <g id="figure_1">
  <g id="patch_1">
   <path d="M 0 288 
L 230.4 288 
L 230.4 0 
L 0 0 
z
" style="fill:none;"/>
  </g>
  <g id="axes_1">
   <g id="patch_2">
    <path d="M 41.04875 104.3725 
L 219.6 104.3725 
L 219.6 10.8 
L 41.04875 10.8 
z
" style="fill:#ffffff;"/>
   </g>
   <g id="line2d_1">
    <path clip-path="url(#pa83ae3ed8e)" d="M 49.164716 85.018472 
L 49.490005 89.171402 
L 49.815294 88.30414 
L 50.140584 88.857348 
L 50.465873 91.437152 
L 51.116451 94.40139 
L 51.76703 92.403232 
L 52.092319 89.817156 
L 52.417608 88.710978 
L 53.068186 93.424488 
L 53.393476 91.494043 
L 53.718765 88.819299 
L 54.044054 89.225197 
L 54.369343 88.271174 
L 55.345211 96.163569 
L 55.6705 96.773382 
L 55.995789 97.663508 
L 56.321079 98.056373 
L 56.646368 98.894664 
L 56.971657 97.734918 
L 57.296946 95.297721 
L 57.622235 95.235923 
L 57.947525 91.770184 
L 58.598103 93.749769 
L 58.923392 93.087804 
L 59.248682 93.693539 
L 59.573971 91.684002 
L 59.89926 92.778541 
L 60.224549 90.520355 
L 60.549838 90.188848 
L 60.875128 85.808947 
L 61.200417 86.601313 
L 61.525706 86.947364 
L 61.850995 86.698699 
L 62.176285 90.422285 
L 62.826863 88.57313 
L 63.152152 88.386495 
L 63.802731 93.663569 
L 64.12802 92.662058 
L 64.453309 90.655719 
L 64.778598 87.93355 
L 65.429177 91.222146 
L 65.754466 91.686417 
L 66.079755 95.059507 
L 66.405044 96.064967 
L 66.730334 94.610738 
L 67.055623 91.820043 
L 67.380912 91.343451 
L 67.706201 88.542596 
L 68.03149 87.841128 
L 68.35678 87.51442 
L 68.682069 87.807115 
L 69.007358 87.487964 
L 69.332647 87.923065 
L 69.657936 88.163637 
L 69.983226 89.29366 
L 70.308515 88.851424 
L 70.633804 88.826757 
L 70.959093 91.352788 
L 71.284383 91.763727 
L 71.609672 93.224583 
L 71.934961 96.721398 
L 72.26025 95.895282 
L 72.585539 93.234192 
L 73.236118 86.520981 
L 73.561407 88.007668 
L 74.211985 84.089255 
L 74.537275 87.483001 
L 75.187853 84.9418 
L 75.513142 84.663844 
L 75.838432 84.171099 
L 76.163721 84.071553 
L 76.48901 81.285411 
L 76.814299 81.97137 
L 77.139588 82.312719 
L 77.464878 82.300104 
L 77.790167 81.829473 
L 78.115456 84.839803 
L 78.440745 82.470168 
L 78.766034 82.083985 
L 79.091324 81.11234 
L 79.416613 80.77547 
L 79.741902 81.093774 
L 80.067191 81.700265 
L 80.71777 81.276579 
L 81.043059 79.304245 
L 81.368348 78.713433 
L 81.693637 78.941333 
L 82.018927 75.549746 
L 82.669505 80.02215 
L 82.994794 79.416752 
L 83.320083 79.779328 
L 83.645373 82.809029 
L 83.970662 83.342087 
L 84.295951 84.555363 
L 84.62124 82.62423 
L 84.94653 83.68487 
L 85.271819 81.891195 
L 85.597108 81.106227 
L 85.922397 81.458488 
L 86.247686 81.422342 
L 86.572976 80.690509 
L 86.898265 84.630936 
L 87.223554 84.072545 
L 87.548843 84.719801 
L 87.874132 81.650281 
L 88.199422 82.830459 
L 88.524711 80.879802 
L 88.85 85.173438 
L 89.175289 83.78266 
L 89.500579 83.31128 
L 89.825868 83.733002 
L 90.151157 83.939392 
L 90.476446 84.384237 
L 90.801735 83.66206 
L 91.127025 83.891257 
L 91.452314 86.943394 
L 91.777603 87.260622 
L 92.102892 83.445366 
L 92.428181 83.365387 
L 92.753471 82.868936 
L 93.07876 83.61681 
L 93.729338 83.015853 
L 94.054628 83.461794 
L 94.379917 81.987977 
L 94.705206 83.563913 
L 95.030495 83.78619 
L 95.355784 82.923931 
L 95.681074 83.379777 
L 96.006363 85.469261 
L 96.331652 84.516157 
L 96.656941 86.192964 
L 96.98223 86.956636 
L 97.30752 88.370501 
L 97.632809 88.559544 
L 98.283387 90.102868 
L 98.608677 88.940258 
L 98.933966 85.931022 
L 99.259255 86.541393 
L 99.584544 85.649083 
L 99.909833 86.255867 
L 100.235123 86.086947 
L 100.560412 84.16158 
L 100.885701 84.075716 
L 101.861569 87.767193 
L 102.186858 87.789907 
L 102.512147 86.325056 
L 103.162726 90.415804 
L 103.488015 91.994238 
L 103.813304 94.980932 
L 104.138593 92.717234 
L 104.463882 92.779342 
L 104.789172 89.534213 
L 105.114461 91.965924 
L 105.43975 89.756416 
L 105.765039 90.954314 
L 106.090328 91.649801 
L 107.066196 97.21987 
L 107.391485 96.850533 
L 107.716775 99.094219 
L 108.042064 99.507038 
L 108.367353 99.522747 
L 108.692642 98.384668 
L 109.017931 98.213273 
L 109.343221 97.664685 
L 109.66851 96.78645 
L 109.993799 96.815902 
L 110.319088 96.195572 
L 110.969667 99.192142 
L 111.294956 95.952594 
L 111.620245 95.972627 
L 111.945534 97.185638 
L 112.270824 94.829821 
L 112.596113 95.097593 
L 112.921402 96.201322 
L 113.246691 98.675131 
L 113.57198 97.344334 
L 113.89727 99.198935 
L 114.222559 100.119205 
L 114.547848 99.019557 
L 114.873137 98.706046 
L 115.198427 98.8536 
L 115.523716 99.218933 
L 115.849005 97.262534 
L 116.174294 93.454871 
L 116.499583 94.39175 
L 116.824873 93.420481 
L 117.150162 90.127513 
L 117.475451 88.28528 
L 117.80074 89.457882 
L 118.126029 90.193166 
L 118.451319 91.214056 
L 119.101897 93.838713 
L 119.427186 93.391623 
L 119.752476 94.393835 
L 120.077765 92.897932 
L 120.403054 92.687503 
L 120.728343 93.365501 
L 121.053632 91.852713 
L 121.704211 90.855946 
L 122.0295 89.080327 
L 122.354789 88.101613 
L 122.680078 88.287531 
L 123.005368 86.686879 
L 123.330657 86.158792 
L 123.655946 81.178181 
L 124.631814 75.129531 
L 124.957103 74.993223 
L 125.282392 72.751767 
L 125.607681 72.71189 
L 126.25826 75.093794 
L 126.583549 74.192444 
L 126.908838 76.857685 
L 127.234127 76.501972 
L 127.559417 77.745457 
L 127.884706 76.519273 
L 128.209995 77.793187 
L 128.535284 74.596674 
L 128.860574 73.285807 
L 129.185863 75.452082 
L 129.511152 72.449419 
L 129.836441 72.837398 
L 130.16173 74.079391 
L 130.48702 75.827285 
L 130.812309 74.857962 
L 131.137598 72.289348 
L 131.462887 73.276875 
L 132.113466 76.925842 
L 132.764044 71.518713 
L 133.089333 72.113644 
L 133.414623 71.195641 
L 134.065201 71.304113 
L 134.39049 69.658273 
L 135.041069 68.34292 
L 135.366358 68.842429 
L 135.691647 67.449985 
L 136.016936 67.931443 
L 136.342225 67.846213 
L 136.667515 67.471507 
L 136.992804 69.522195 
L 137.643382 70.566524 
L 137.968672 70.393743 
L 138.61925 74.317664 
L 139.269828 69.571635 
L 139.595118 68.053812 
L 139.920407 64.938368 
L 140.245696 64.222008 
L 140.570985 64.377504 
L 140.896274 63.554303 
L 141.221564 66.762739 
L 141.546853 68.637455 
L 141.872142 67.342263 
L 142.197431 67.286579 
L 142.522721 69.46784 
L 142.84801 68.343545 
L 143.498588 65.497912 
L 143.823877 65.549636 
L 144.149167 66.976992 
L 144.474456 66.793299 
L 144.799745 66.064428 
L 145.125034 66.676633 
L 145.450323 65.647092 
L 146.100902 64.541561 
L 146.426191 68.011639 
L 146.75148 66.16593 
L 147.07677 63.221941 
L 147.402059 63.909059 
L 147.727348 66.430513 
L 148.052637 65.339693 
L 148.377926 66.134696 
L 148.703216 67.78564 
L 149.028505 65.706679 
L 149.353794 68.06847 
L 149.679083 66.843631 
L 150.004372 68.973841 
L 150.329662 66.477366 
L 150.654951 65.595475 
L 150.98024 66.034916 
L 151.305529 65.779902 
L 151.630819 64.786126 
L 152.606686 61.02261 
L 152.931975 61.837626 
L 153.257265 60.703868 
L 153.582554 62.942642 
L 154.558422 57.35788 
L 154.883711 58.363081 
L 155.209 58.045169 
L 155.534289 56.57985 
L 155.859578 56.037183 
L 156.184868 56.765616 
L 156.510157 56.240921 
L 156.835446 56.124773 
L 157.160735 54.424845 
L 157.486024 55.497795 
L 158.136603 54.41809 
L 158.461892 53.125132 
L 158.787181 53.249579 
L 159.112471 53.032219 
L 159.43776 53.153349 
L 160.088338 53.080918 
L 160.413627 53.638757 
L 160.738917 48.811814 
L 161.064206 50.252593 
L 161.714784 53.614255 
L 162.040073 54.826501 
L 162.365363 54.806975 
L 163.015941 49.481484 
L 163.34123 49.076309 
L 163.66652 53.341413 
L 163.991809 52.685211 
L 164.317098 54.922842 
L 164.642387 55.777671 
L 164.967676 57.740549 
L 165.292966 57.0139 
L 165.618255 58.083683 
L 165.943544 56.765472 
L 166.268833 55.950592 
L 166.594122 56.360454 
L 166.919412 56.222916 
L 167.244701 54.65664 
L 167.56999 55.291967 
L 167.895279 53.728765 
L 168.220569 53.761743 
L 168.545858 53.30181 
L 168.871147 51.937297 
L 169.196436 49.664021 
L 169.521725 48.774858 
L 169.847015 48.675202 
L 170.172304 47.444802 
L 170.497593 50.083287 
L 170.822882 47.285149 
L 171.148171 49.548111 
L 171.473461 48.005242 
L 171.79875 48.968417 
L 172.124039 48.102406 
L 172.449328 48.301417 
L 172.774618 47.78311 
L 173.099907 49.150263 
L 173.425196 52.839022 
L 173.750485 52.144754 
L 174.726353 55.515681 
L 175.051642 52.12777 
L 175.376931 53.121725 
L 175.70222 52.56377 
L 176.02751 54.544951 
L 176.352799 51.944625 
L 176.678088 52.894321 
L 177.003377 57.334298 
L 177.328667 52.704289 
L 177.653956 54.579116 
L 177.979245 52.344425 
L 178.629823 49.979437 
L 178.955113 50.374642 
L 179.280402 50.05163 
L 179.605691 47.96205 
L 179.93098 48.475818 
L 180.256269 48.046766 
L 180.581559 46.461932 
L 180.906848 46.319565 
L 181.232137 47.045123 
L 181.557426 44.566726 
L 181.882716 43.983374 
L 182.208005 44.197077 
L 182.858583 47.238551 
L 183.509162 44.091977 
L 183.834451 47.79795 
L 184.15974 48.848756 
L 184.485029 47.201439 
L 185.135608 39.391294 
L 185.460897 37.783281 
L 185.786186 35.438642 
L 186.111475 36.339086 
L 186.436765 35.016752 
L 186.762054 37.128917 
L 187.087343 38.088187 
L 187.412632 37.540205 
L 187.737921 33.838968 
L 188.063211 32.561998 
L 188.3885 32.094504 
L 188.713789 32.384881 
L 189.039078 34.642638 
L 189.364367 33.613393 
L 189.689657 34.209387 
L 190.014946 33.801275 
L 190.340235 35.319596 
L 190.665524 35.112582 
L 190.990814 37.736694 
L 191.316103 36.876394 
L 192.29197 29.45407 
L 192.61726 28.899972 
L 193.267838 27.158175 
L 193.593127 28.660104 
L 193.918416 24.98397 
L 194.243706 23.296208 
L 194.568995 23.710776 
L 194.894284 25.252147 
L 195.219573 24.259358 
L 195.544863 22.795299 
L 196.195441 22.242216 
L 196.52073 22.56338 
L 196.846019 22.568071 
L 197.496598 17.897412 
L 197.821887 20.458608 
L 198.147176 20.221505 
L 198.797755 24.557604 
L 199.123044 23.557229 
L 199.448333 24.994009 
L 199.773622 30.377617 
L 200.098912 29.276172 
L 200.424201 27.08722 
L 200.74949 23.606493 
L 201.074779 24.283069 
L 201.400068 21.815315 
L 201.725358 26.290069 
L 202.050647 28.071426 
L 202.701225 26.380377 
L 203.351804 22.492757 
L 203.677093 22.632018 
L 204.002382 20.021191 
L 204.327671 18.849185 
L 204.652961 15.917664 
L 204.97825 17.290776 
L 205.303539 16.778164 
L 205.628828 17.511597 
L 205.954117 16.135691 
L 206.604696 16.940502 
L 206.929985 19.205168 
L 207.255274 18.678983 
L 207.905853 15.053295 
L 208.231142 20.202453 
L 208.556431 22.967613 
L 208.88172 19.544312 
L 209.532299 20.118922 
L 209.857588 18.129388 
L 210.182877 17.793663 
L 210.508166 18.87366 
L 210.833456 19.231924 
L 211.158745 15.992973 
L 211.484034 18.35137 
L 211.484034 18.35137 
" style="fill:none;stroke:#00bfbf;stroke-linecap:square;stroke-width:1.5;"/>
   </g>
   <g id="matplotlib.axis_1">
    <g id="xtick_1">
     <g id="line2d_2">
      <defs>
       <path d="M 0 0 
L 0 3.5 
" id="m0d08021e30" style="stroke:#000000;stroke-width:0.8;"/>
      </defs>
      <g>
       <use style="stroke:#000000;stroke-width:0.8;" x="49.164716" xlink:href="#m0d08021e30" y="104.3725"/>
      </g>
     </g>
     <g id="text_1">
      <!-- 0.0 -->
      <g transform="translate(39.622841 120.490625)scale(0.12 -0.12)">
       <defs>
        <path d="M 31.78125 66.40625 
Q 24.171875 66.40625 20.328125 58.90625 
Q 16.5 51.421875 16.5 36.375 
Q 16.5 21.390625 20.328125 13.890625 
Q 24.171875 6.390625 31.78125 6.390625 
Q 39.453125 6.390625 43.28125 13.890625 
Q 47.125 21.390625 47.125 36.375 
Q 47.125 51.421875 43.28125 58.90625 
Q 39.453125 66.40625 31.78125 66.40625 
z
M 31.78125 74.21875 
Q 44.046875 74.21875 50.515625 64.515625 
Q 56.984375 54.828125 56.984375 36.375 
Q 56.984375 17.96875 50.515625 8.265625 
Q 44.046875 -1.421875 31.78125 -1.421875 
Q 19.53125 -1.421875 13.0625 8.265625 
Q 6.59375 17.96875 6.59375 36.375 
Q 6.59375 54.828125 13.0625 64.515625 
Q 19.53125 74.21875 31.78125 74.21875 
z
" id="DejaVuSans-48"/>
        <path d="M 10.6875 12.40625 
L 21 12.40625 
L 21 0 
L 10.6875 0 
z
" id="DejaVuSans-46"/>
       </defs>
       <use xlink:href="#DejaVuSans-48"/>
       <use x="63.623047" xlink:href="#DejaVuSans-46"/>
       <use x="95.410156" xlink:href="#DejaVuSans-48"/>
      </g>
     </g>
    </g>
    <g id="xtick_2">
     <g id="line2d_3">
      <g>
       <use style="stroke:#000000;stroke-width:0.8;" x="114.222559" xlink:href="#m0d08021e30" y="104.3725"/>
      </g>
     </g>
     <g id="text_2">
      <!-- 0.2 -->
      <g transform="translate(104.680684 120.490625)scale(0.12 -0.12)">
       <defs>
        <path d="M 19.1875 8.296875 
L 53.609375 8.296875 
L 53.609375 0 
L 7.328125 0 
L 7.328125 8.296875 
Q 12.9375 14.109375 22.625 23.890625 
Q 32.328125 33.6875 34.8125 36.53125 
Q 39.546875 41.84375 41.421875 45.53125 
Q 43.3125 49.21875 43.3125 52.78125 
Q 43.3125 58.59375 39.234375 62.25 
Q 35.15625 65.921875 28.609375 65.921875 
Q 23.96875 65.921875 18.8125 64.3125 
Q 13.671875 62.703125 7.8125 59.421875 
L 7.8125 69.390625 
Q 13.765625 71.78125 18.9375 73 
Q 24.125 74.21875 28.421875 74.21875 
Q 39.75 74.21875 46.484375 68.546875 
Q 53.21875 62.890625 53.21875 53.421875 
Q 53.21875 48.921875 51.53125 44.890625 
Q 49.859375 40.875 45.40625 35.40625 
Q 44.1875 33.984375 37.640625 27.21875 
Q 31.109375 20.453125 19.1875 8.296875 
z
" id="DejaVuSans-50"/>
       </defs>
       <use xlink:href="#DejaVuSans-48"/>
       <use x="63.623047" xlink:href="#DejaVuSans-46"/>
       <use x="95.410156" xlink:href="#DejaVuSans-50"/>
      </g>
     </g>
    </g>
    <g id="xtick_3">
     <g id="line2d_4">
      <g>
       <use style="stroke:#000000;stroke-width:0.8;" x="179.280402" xlink:href="#m0d08021e30" y="104.3725"/>
      </g>
     </g>
     <g id="text_3">
      <!-- 0.4 -->
      <g transform="translate(169.738527 120.490625)scale(0.12 -0.12)">
       <defs>
        <path d="M 37.796875 64.3125 
L 12.890625 25.390625 
L 37.796875 25.390625 
z
M 35.203125 72.90625 
L 47.609375 72.90625 
L 47.609375 25.390625 
L 58.015625 25.390625 
L 58.015625 17.1875 
L 47.609375 17.1875 
L 47.609375 0 
L 37.796875 0 
L 37.796875 17.1875 
L 4.890625 17.1875 
L 4.890625 26.703125 
z
" id="DejaVuSans-52"/>
       </defs>
       <use xlink:href="#DejaVuSans-48"/>
       <use x="63.623047" xlink:href="#DejaVuSans-46"/>
       <use x="95.410156" xlink:href="#DejaVuSans-52"/>
      </g>
     </g>
    </g>
    <g id="text_4">
     <!-- Time (s) -->
     <g transform="translate(105.929687 136.104375)scale(0.12 -0.12)">
      <defs>
       <path d="M -0.296875 72.90625 
L 61.375 72.90625 
L 61.375 64.59375 
L 35.5 64.59375 
L 35.5 0 
L 25.59375 0 
L 25.59375 64.59375 
L -0.296875 64.59375 
z
" id="DejaVuSans-84"/>
       <path d="M 9.421875 54.6875 
L 18.40625 54.6875 
L 18.40625 0 
L 9.421875 0 
z
M 9.421875 75.984375 
L 18.40625 75.984375 
L 18.40625 64.59375 
L 9.421875 64.59375 
z
" id="DejaVuSans-105"/>
       <path d="M 52 44.1875 
Q 55.375 50.25 60.0625 53.125 
Q 64.75 56 71.09375 56 
Q 79.640625 56 84.28125 50.015625 
Q 88.921875 44.046875 88.921875 33.015625 
L 88.921875 0 
L 79.890625 0 
L 79.890625 32.71875 
Q 79.890625 40.578125 77.09375 44.375 
Q 74.3125 48.1875 68.609375 48.1875 
Q 61.625 48.1875 57.5625 43.546875 
Q 53.515625 38.921875 53.515625 30.90625 
L 53.515625 0 
L 44.484375 0 
L 44.484375 32.71875 
Q 44.484375 40.625 41.703125 44.40625 
Q 38.921875 48.1875 33.109375 48.1875 
Q 26.21875 48.1875 22.15625 43.53125 
Q 18.109375 38.875 18.109375 30.90625 
L 18.109375 0 
L 9.078125 0 
L 9.078125 54.6875 
L 18.109375 54.6875 
L 18.109375 46.1875 
Q 21.1875 51.21875 25.484375 53.609375 
Q 29.78125 56 35.6875 56 
Q 41.65625 56 45.828125 52.96875 
Q 50 49.953125 52 44.1875 
z
" id="DejaVuSans-109"/>
       <path d="M 56.203125 29.59375 
L 56.203125 25.203125 
L 14.890625 25.203125 
Q 15.484375 15.921875 20.484375 11.0625 
Q 25.484375 6.203125 34.421875 6.203125 
Q 39.59375 6.203125 44.453125 7.46875 
Q 49.3125 8.734375 54.109375 11.28125 
L 54.109375 2.78125 
Q 49.265625 0.734375 44.1875 -0.34375 
Q 39.109375 -1.421875 33.890625 -1.421875 
Q 20.796875 -1.421875 13.15625 6.1875 
Q 5.515625 13.8125 5.515625 26.8125 
Q 5.515625 40.234375 12.765625 48.109375 
Q 20.015625 56 32.328125 56 
Q 43.359375 56 49.78125 48.890625 
Q 56.203125 41.796875 56.203125 29.59375 
z
M 47.21875 32.234375 
Q 47.125 39.59375 43.09375 43.984375 
Q 39.0625 48.390625 32.421875 48.390625 
Q 24.90625 48.390625 20.390625 44.140625 
Q 15.875 39.890625 15.1875 32.171875 
z
" id="DejaVuSans-101"/>
       <path id="DejaVuSans-32"/>
       <path d="M 31 75.875 
Q 24.46875 64.65625 21.28125 53.65625 
Q 18.109375 42.671875 18.109375 31.390625 
Q 18.109375 20.125 21.3125 9.0625 
Q 24.515625 -2 31 -13.1875 
L 23.1875 -13.1875 
Q 15.875 -1.703125 12.234375 9.375 
Q 8.59375 20.453125 8.59375 31.390625 
Q 8.59375 42.28125 12.203125 53.3125 
Q 15.828125 64.359375 23.1875 75.875 
z
" id="DejaVuSans-40"/>
       <path d="M 44.28125 53.078125 
L 44.28125 44.578125 
Q 40.484375 46.53125 36.375 47.5 
Q 32.28125 48.484375 27.875 48.484375 
Q 21.1875 48.484375 17.84375 46.4375 
Q 14.5 44.390625 14.5 40.28125 
Q 14.5 37.15625 16.890625 35.375 
Q 19.28125 33.59375 26.515625 31.984375 
L 29.59375 31.296875 
Q 39.15625 29.25 43.1875 25.515625 
Q 47.21875 21.78125 47.21875 15.09375 
Q 47.21875 7.46875 41.1875 3.015625 
Q 35.15625 -1.421875 24.609375 -1.421875 
Q 20.21875 -1.421875 15.453125 -0.5625 
Q 10.6875 0.296875 5.421875 2 
L 5.421875 11.28125 
Q 10.40625 8.6875 15.234375 7.390625 
Q 20.0625 6.109375 24.8125 6.109375 
Q 31.15625 6.109375 34.5625 8.28125 
Q 37.984375 10.453125 37.984375 14.40625 
Q 37.984375 18.0625 35.515625 20.015625 
Q 33.0625 21.96875 24.703125 23.78125 
L 21.578125 24.515625 
Q 13.234375 26.265625 9.515625 29.90625 
Q 5.8125 33.546875 5.8125 39.890625 
Q 5.8125 47.609375 11.28125 51.796875 
Q 16.75 56 26.8125 56 
Q 31.78125 56 36.171875 55.265625 
Q 40.578125 54.546875 44.28125 53.078125 
z
" id="DejaVuSans-115"/>
       <path d="M 8.015625 75.875 
L 15.828125 75.875 
Q 23.140625 64.359375 26.78125 53.3125 
Q 30.421875 42.28125 30.421875 31.390625 
Q 30.421875 20.453125 26.78125 9.375 
Q 23.140625 -1.703125 15.828125 -13.1875 
L 8.015625 -13.1875 
Q 14.5 -2 17.703125 9.0625 
Q 20.90625 20.125 20.90625 31.390625 
Q 20.90625 42.671875 17.703125 53.65625 
Q 14.5 64.65625 8.015625 75.875 
z
" id="DejaVuSans-41"/>
      </defs>
      <use xlink:href="#DejaVuSans-84"/>
      <use x="57.958984" xlink:href="#DejaVuSans-105"/>
      <use x="85.742188" xlink:href="#DejaVuSans-109"/>
      <use x="183.154297" xlink:href="#DejaVuSans-101"/>
      <use x="244.677734" xlink:href="#DejaVuSans-32"/>
      <use x="276.464844" xlink:href="#DejaVuSans-40"/>
      <use x="315.478516" xlink:href="#DejaVuSans-115"/>
      <use x="367.578125" xlink:href="#DejaVuSans-41"/>
     </g>
    </g>
   </g>
   <g id="matplotlib.axis_2">
    <g id="ytick_1">
     <g id="line2d_5">
      <defs>
       <path d="M 0 0 
L -3.5 0 
" id="m4c6c4e242d" style="stroke:#000000;stroke-width:0.8;"/>
      </defs>
      <g>
       <use style="stroke:#000000;stroke-width:0.8;" x="41.04875" xlink:href="#m4c6c4e242d" y="84.756858"/>
      </g>
     </g>
     <g id="text_5">
      <!-- 0 -->
      <g transform="translate(26.41375 89.315921)scale(0.12 -0.12)">
       <use xlink:href="#DejaVuSans-48"/>
      </g>
     </g>
    </g>
    <g id="ytick_2">
     <g id="line2d_6">
      <g>
       <use style="stroke:#000000;stroke-width:0.8;" x="41.04875" xlink:href="#m4c6c4e242d" y="42.0753"/>
      </g>
     </g>
     <g id="text_6">
      <!-- 5 -->
      <g transform="translate(26.41375 46.634363)scale(0.12 -0.12)">
       <defs>
        <path d="M 10.796875 72.90625 
L 49.515625 72.90625 
L 49.515625 64.59375 
L 19.828125 64.59375 
L 19.828125 46.734375 
Q 21.96875 47.46875 24.109375 47.828125 
Q 26.265625 48.1875 28.421875 48.1875 
Q 40.625 48.1875 47.75 41.5 
Q 54.890625 34.8125 54.890625 23.390625 
Q 54.890625 11.625 47.5625 5.09375 
Q 40.234375 -1.421875 26.90625 -1.421875 
Q 22.3125 -1.421875 17.546875 -0.640625 
Q 12.796875 0.140625 7.71875 1.703125 
L 7.71875 11.625 
Q 12.109375 9.234375 16.796875 8.0625 
Q 21.484375 6.890625 26.703125 6.890625 
Q 35.15625 6.890625 40.078125 11.328125 
Q 45.015625 15.765625 45.015625 23.390625 
Q 45.015625 31 40.078125 35.4375 
Q 35.15625 39.890625 26.703125 39.890625 
Q 22.75 39.890625 18.8125 39.015625 
Q 14.890625 38.140625 10.796875 36.28125 
z
" id="DejaVuSans-53"/>
       </defs>
       <use xlink:href="#DejaVuSans-53"/>
      </g>
     </g>
    </g>
    <g id="text_7">
     <!-- x -->
     <g transform="translate(19.918125 61.1375)rotate(-90)scale(0.12 -0.12)">
      <defs>
       <path d="M 54.890625 54.6875 
L 35.109375 28.078125 
L 55.90625 0 
L 45.3125 0 
L 29.390625 21.484375 
L 13.484375 0 
L 2.875 0 
L 24.125 28.609375 
L 4.6875 54.6875 
L 15.28125 54.6875 
L 29.78125 35.203125 
L 44.28125 54.6875 
z
" id="DejaVuSans-120"/>
      </defs>
      <use xlink:href="#DejaVuSans-120"/>
     </g>
    </g>
   </g>
   <g id="line2d_7">
    <path clip-path="url(#pa83ae3ed8e)" d="M 49.164716 84.756858 
L 49.490005 88.909788 
L 49.815294 87.627233 
L 50.140584 87.893403 
L 50.465873 90.159553 
L 51.116451 91.948504 
L 51.76703 88.687863 
L 52.092319 85.708686 
L 52.417608 84.507326 
L 53.068186 89.037485 
L 53.718765 83.812021 
L 54.044054 84.312403 
L 54.369343 83.402825 
L 55.345211 90.842128 
L 55.6705 90.843414 
L 55.995789 91.124885 
L 56.321079 90.880947 
L 56.646368 91.106829 
L 56.971657 89.312086 
L 57.296946 86.419366 
L 57.622235 86.191317 
L 57.947525 82.582133 
L 58.598103 84.866606 
L 58.923392 84.193666 
L 59.248682 84.85572 
L 59.573971 82.836297 
L 59.89926 84.122892 
L 60.224549 81.928103 
L 60.549838 81.879471 
L 60.875128 77.787309 
L 61.200417 79.27663 
L 61.525706 80.170704 
L 61.850995 80.380654 
L 62.176285 84.541861 
L 62.826863 82.836378 
L 63.152152 82.841791 
L 63.802731 88.219059 
L 64.12802 86.871327 
L 64.778598 81.941704 
L 65.429177 85.612304 
L 65.754466 85.99103 
L 66.079755 89.240703 
L 66.405044 89.797778 
L 66.730334 87.839458 
L 67.055623 84.740503 
L 67.380912 84.265547 
L 67.706201 81.513822 
L 68.03149 81.136658 
L 68.35678 81.17197 
L 68.682069 81.823154 
L 69.007358 81.797373 
L 69.657936 82.991838 
L 69.983226 84.298363 
L 70.308515 83.901977 
L 70.633804 83.962798 
L 70.959093 86.568235 
L 71.284383 86.798036 
L 71.609672 88.054774 
L 71.934961 91.221798 
L 72.26025 89.749188 
L 73.236118 79.932148 
L 73.561407 81.901305 
L 74.211985 78.726093 
L 74.537275 82.722916 
L 74.862564 81.455865 
L 75.187853 80.715208 
L 75.513142 80.841417 
L 75.838432 80.740216 
L 76.163721 81.042335 
L 76.48901 78.627644 
L 76.814299 79.926525 
L 77.139588 80.750907 
L 77.464878 81.138887 
L 77.790167 81.030053 
L 78.115456 84.413064 
L 78.440745 82.077808 
L 78.766034 81.959531 
L 79.091324 81.267618 
L 79.416613 81.279672 
L 80.067191 82.833302 
L 80.71777 82.791501 
L 81.043059 81.015702 
L 81.368348 80.799006 
L 81.693637 81.422692 
L 82.018927 78.364521 
L 82.669505 83.833038 
L 82.994794 83.320021 
L 83.320083 83.826282 
L 83.645373 86.94904 
L 83.970662 87.26288 
L 84.295951 88.225554 
L 84.62124 85.947551 
L 84.94653 86.889121 
L 85.271819 84.88222 
L 85.597108 84.084716 
L 85.922397 84.504191 
L 86.247686 84.493312 
L 86.572976 83.787834 
L 86.898265 87.825163 
L 87.223554 86.959941 
L 87.548843 87.38689 
L 87.874132 84.054366 
L 88.199422 85.304793 
L 88.524711 83.299343 
L 88.85 87.738731 
L 89.175289 86.049765 
L 89.500579 85.449094 
L 89.825868 85.801593 
L 90.151157 85.903509 
L 90.476446 86.233689 
L 90.801735 85.363829 
L 91.127025 85.532329 
L 91.452314 88.506919 
L 91.777603 88.449141 
L 92.102892 84.264656 
L 92.428181 84.233898 
L 92.753471 83.789743 
L 93.07876 84.634328 
L 93.729338 84.086368 
L 94.054628 84.599357 
L 94.379917 83.14129 
L 94.705206 84.878783 
L 95.030495 85.088868 
L 95.355784 84.193408 
L 95.681074 84.705599 
L 96.006363 86.800209 
L 96.331652 85.64277 
L 96.656941 87.230985 
L 96.98223 87.747245 
L 97.30752 88.862071 
L 97.632809 88.640592 
L 98.283387 89.372699 
L 98.608677 87.748506 
L 98.933966 84.440105 
L 99.259255 85.082151 
L 99.584544 84.157312 
L 99.909833 84.824051 
L 100.235123 84.648411 
L 100.560412 82.733888 
L 100.885701 82.850322 
L 101.536279 85.711858 
L 101.861569 86.669306 
L 102.186858 86.500775 
L 102.512147 84.861532 
L 103.162726 88.700409 
L 103.488015 89.884489 
L 103.813304 92.35842 
L 104.138593 89.334566 
L 104.463882 88.938903 
L 104.789172 85.275569 
L 105.114461 87.655409 
L 105.43975 85.156046 
L 105.765039 86.314025 
L 106.090328 86.853795 
L 107.066196 91.372628 
L 107.391485 90.341714 
L 107.716775 92.026914 
L 108.042064 91.712727 
L 108.367353 91.03285 
L 108.692642 89.267171 
L 109.017931 88.644745 
L 109.66851 86.534082 
L 109.993799 86.385812 
L 110.319088 85.602586 
L 110.969667 88.271205 
L 111.294956 84.680221 
L 111.620245 84.707918 
L 111.945534 85.925823 
L 112.270824 83.45311 
L 112.596113 83.851256 
L 112.921402 85.045546 
L 113.246691 87.490486 
L 113.57198 85.886326 
L 113.89727 87.62798 
L 114.222559 88.261138 
L 114.547848 86.811062 
L 114.873137 86.292131 
L 115.198427 86.286157 
L 115.523716 86.49856 
L 115.849005 84.367992 
L 116.174294 80.599215 
L 116.499583 81.951858 
L 116.824873 81.26109 
L 117.150162 78.317698 
L 117.475451 77.119381 
L 118.126029 80.361128 
L 119.101897 84.848 
L 119.427186 84.391795 
L 119.752476 85.430514 
L 120.077765 83.867245 
L 120.403054 83.745777 
L 120.728343 84.524883 
L 121.053632 83.035293 
L 121.704211 82.42008 
L 122.0295 80.878139 
L 122.354789 80.287297 
L 122.680078 80.920171 
L 123.005368 79.703188 
L 123.330657 79.680468 
L 123.655946 75.207496 
L 124.631814 72.299999 
L 124.957103 73.409378 
L 125.282392 72.302669 
L 125.607681 73.508211 
L 126.25826 77.885455 
L 126.583549 77.671245 
L 126.908838 81.045047 
L 127.234127 81.060515 
L 127.559417 82.673634 
L 127.884706 81.655773 
L 128.209995 83.239796 
L 128.535284 80.194989 
L 128.860574 79.340309 
L 129.185863 82.048239 
L 129.511152 79.316437 
L 129.836441 80.248459 
L 130.48702 83.970742 
L 130.812309 83.08003 
L 131.137598 80.6791 
L 131.462887 82.074402 
L 132.113466 86.062716 
L 132.764044 80.662949 
L 133.089333 81.667272 
L 133.414623 81.058227 
L 134.065201 81.868943 
L 134.39049 80.511895 
L 134.715779 80.183564 
L 135.041069 80.078367 
L 135.366358 81.045725 
L 135.691647 80.024395 
L 136.016936 80.979099 
L 136.342225 81.271644 
L 136.667515 81.24546 
L 136.992804 83.647288 
L 137.643382 84.851372 
L 137.968672 84.66914 
L 138.61925 88.41991 
L 138.944539 85.281929 
L 139.920407 79.058924 
L 140.245696 78.912358 
L 140.570985 79.652303 
L 140.896274 79.339558 
L 141.221564 83.089724 
L 141.546853 85.131154 
L 141.872142 83.798532 
L 142.197431 83.838681 
L 142.522721 86.111759 
L 142.84801 84.851974 
L 143.173299 83.137075 
L 143.498588 82.158808 
L 143.823877 82.470337 
L 144.149167 84.126345 
L 144.474456 84.005704 
L 144.799745 83.351947 
L 145.125034 84.104644 
L 145.450323 83.140325 
L 146.100902 82.395616 
L 146.426191 86.101819 
L 146.75148 84.121613 
L 147.07677 81.241149 
L 147.402059 82.279838 
L 147.727348 85.048994 
L 148.052637 83.92896 
L 148.377926 84.806753 
L 148.703216 86.452707 
L 149.028505 84.204161 
L 149.353794 86.621223 
L 149.679083 85.209947 
L 150.004372 87.294848 
L 150.329662 84.544574 
L 150.654951 83.683912 
L 150.98024 84.230647 
L 151.305529 84.028254 
L 151.956108 81.855443 
L 152.281397 80.732328 
L 152.606686 80.201369 
L 152.931975 81.471934 
L 153.257265 80.666668 
L 153.582554 83.314462 
L 154.558422 78.595341 
L 154.883711 80.216694 
L 155.209 80.352798 
L 155.534289 79.327885 
L 155.859578 79.328116 
L 156.184868 80.599423 
L 156.510157 80.490472 
L 156.835446 80.800962 
L 157.160735 79.496624 
L 157.486024 81.095597 
L 158.136603 80.769491 
L 158.461892 79.87527 
L 158.787181 80.487875 
L 159.112471 80.697414 
L 159.43776 81.224488 
L 160.088338 81.829024 
L 160.413627 82.679646 
L 160.738917 78.060425 
L 161.714784 84.203519 
L 162.040073 85.471098 
L 162.365363 85.380149 
L 163.015941 80.18053 
L 163.34123 80.232988 
L 163.66652 84.950479 
L 163.991809 84.274915 
L 164.317098 86.56074 
L 164.642387 87.235181 
L 164.967676 88.950227 
L 165.292966 87.804241 
L 165.618255 88.569286 
L 165.943544 86.869832 
L 166.268833 85.843654 
L 166.594122 86.144837 
L 166.919412 85.868501 
L 167.244701 84.191061 
L 167.56999 84.882967 
L 167.895279 83.307155 
L 168.220569 83.485102 
L 168.545858 83.152346 
L 168.871147 81.948283 
L 169.196436 79.955865 
L 169.521725 79.546802 
L 169.847015 79.968151 
L 170.172304 79.216622 
L 170.497593 82.40913 
L 170.822882 79.845765 
L 171.148171 82.599836 
L 171.473461 81.272669 
L 171.79875 82.584264 
L 172.124039 81.935512 
L 172.449328 82.416658 
L 172.774618 82.13237 
L 173.099907 83.761973 
L 173.425196 87.55022 
L 173.750485 86.576616 
L 174.726353 89.148858 
L 175.051642 85.321747 
L 175.376931 86.259213 
L 175.70222 85.551022 
L 176.02751 87.452787 
L 176.352799 84.582868 
L 176.678088 85.549963 
L 177.003377 89.91063 
L 177.328667 84.765243 
L 177.653956 86.639232 
L 177.979245 84.216304 
L 178.629823 82.079175 
L 178.955113 82.742149 
L 179.280402 82.620608 
L 179.605691 80.744653 
L 179.93098 81.659641 
L 180.256269 81.540311 
L 180.581559 80.277131 
L 180.906848 80.582737 
L 181.232137 81.725707 
L 181.557426 79.550426 
L 181.882716 79.487717 
L 182.208005 80.228333 
L 182.858583 83.997762 
L 183.509162 81.148009 
L 183.834451 85.214867 
L 184.15974 86.219872 
L 184.485029 84.426253 
L 185.135608 77.092816 
L 185.460897 76.251207 
L 185.786186 74.757134 
L 186.111475 76.657549 
L 186.436765 76.145147 
L 186.762054 79.118482 
L 187.087343 80.64159 
L 187.412632 80.505135 
L 187.737921 77.22907 
L 188.063211 76.704879 
L 188.3885 77.042583 
L 188.713789 78.104387 
L 189.039078 81.027392 
L 189.364367 80.371093 
L 189.689657 81.405664 
L 190.014946 81.332671 
L 190.340235 83.193411 
L 190.665524 83.142742 
L 190.990814 85.928265 
L 191.316103 84.950824 
L 191.641392 82.678309 
L 191.966681 81.32581 
L 192.29197 78.060063 
L 192.61726 78.175645 
L 193.267838 77.770557 
L 193.593127 79.971117 
L 193.918416 76.773556 
L 194.243706 75.884124 
L 194.568995 77.185966 
L 194.894284 79.484426 
L 195.219573 79.01888 
L 195.544863 78.128619 
L 196.195441 78.858442 
L 196.52073 79.769448 
L 196.846019 80.27288 
L 197.496598 76.682121 
L 197.821887 80.05079 
L 198.147176 80.284294 
L 198.797755 85.264609 
L 199.123044 84.213459 
L 199.448333 85.704578 
L 199.773622 90.993415 
L 200.098912 89.268314 
L 200.424201 86.628216 
L 200.74949 82.960353 
L 201.074779 83.81658 
L 201.400068 81.442853 
L 201.725358 86.249008 
L 202.050647 87.88115 
L 202.701225 85.685087 
L 203.026515 83.337964 
L 203.351804 81.846534 
L 203.677093 82.276828 
L 204.002382 79.914003 
L 204.327671 79.226283 
L 204.652961 76.84782 
L 204.97825 79.011835 
L 205.303539 79.073726 
L 205.628828 80.375471 
L 205.954117 79.437705 
L 206.604696 81.215671 
L 206.929985 83.834456 
L 207.255274 83.400511 
L 207.905853 80.222973 
L 208.231142 85.825519 
L 208.556431 88.483813 
L 208.88172 84.687817 
L 209.532299 85.243511 
L 209.857588 83.205312 
L 210.182877 83.024742 
L 210.508166 84.277951 
L 210.833456 84.684105 
L 211.158745 81.45243 
L 211.484034 84.141269 
L 211.484034 84.141269 
" style="fill:none;stroke:#808080;stroke-linecap:square;stroke-width:0.75;"/>
   </g>
   <g id="line2d_8">
    <path clip-path="url(#pa83ae3ed8e)" d="M 49.164716 84.756858 
L 49.490005 88.91238 
L 49.815294 88.041661 
L 50.140584 88.598173 
L 50.465873 91.179633 
L 51.116451 94.13179 
L 51.76703 92.155563 
L 52.092319 89.561481 
L 52.417608 88.459411 
L 53.068186 93.167283 
L 53.393476 91.247852 
L 53.718765 88.568985 
L 54.044054 88.976213 
L 54.369343 88.021337 
L 55.345211 95.931702 
L 55.6705 96.534833 
L 55.995789 97.431708 
L 56.321079 97.828493 
L 56.646368 98.643722 
L 56.971657 97.381679 
L 57.296946 94.950207 
L 57.622235 94.87592 
L 57.947525 91.40125 
L 58.598103 93.372356 
L 58.923392 92.719126 
L 59.248682 93.323873 
L 59.573971 91.323795 
L 59.89926 92.418524 
L 60.224549 90.148127 
L 60.549838 89.815753 
L 60.875128 85.440517 
L 61.200417 86.234874 
L 61.525706 86.573259 
L 61.850995 86.321081 
L 62.176285 90.036849 
L 62.826863 88.186322 
L 63.152152 88.003069 
L 63.802731 93.282518 
L 64.12802 92.290825 
L 64.453309 90.272509 
L 64.778598 87.552738 
L 65.429177 90.84753 
L 65.754466 91.305826 
L 66.079755 94.678091 
L 66.405044 95.683117 
L 66.730334 94.223344 
L 67.055623 91.442503 
L 67.380912 90.970471 
L 67.706201 88.162755 
L 68.03149 87.463846 
L 68.35678 87.142476 
L 68.682069 87.433501 
L 69.007358 87.118285 
L 69.332647 87.552078 
L 69.657936 87.799117 
L 69.983226 88.930989 
L 70.308515 88.486077 
L 70.633804 88.461678 
L 70.959093 90.988723 
L 71.284383 91.392257 
L 71.609672 92.85666 
L 71.934961 96.357953 
L 72.26025 95.540954 
L 72.585539 92.872962 
L 73.236118 86.161376 
L 73.561407 87.639572 
L 74.211985 83.729243 
L 74.537275 87.11915 
L 75.187853 84.579728 
L 75.513142 84.302623 
L 75.838432 83.805083 
L 76.163721 83.703767 
L 76.48901 80.913509 
L 76.814299 81.601527 
L 77.139588 81.9407 
L 77.464878 81.930073 
L 77.790167 81.461452 
L 78.115456 84.468763 
L 78.440745 82.09651 
L 78.766034 81.712516 
L 79.091324 80.739235 
L 79.416613 80.405015 
L 79.741902 80.718801 
L 80.067191 81.32762 
L 80.71777 80.889345 
L 81.043059 78.919378 
L 81.368348 78.328835 
L 81.693637 78.539689 
L 82.018927 75.146801 
L 82.669505 79.621696 
L 82.994794 79.027816 
L 83.320083 79.395276 
L 83.645373 82.422538 
L 83.970662 82.962891 
L 84.295951 84.172768 
L 84.62124 82.242746 
L 84.94653 83.306132 
L 85.271819 81.513791 
L 85.597108 80.72695 
L 85.922397 81.081705 
L 86.247686 81.041918 
L 86.572976 80.308322 
L 86.898265 84.246772 
L 87.223554 83.685985 
L 87.548843 84.329018 
L 87.874132 81.254193 
L 88.199422 82.425587 
L 88.524711 80.482203 
L 88.85 84.769088 
L 89.175289 83.381116 
L 89.500579 82.911778 
L 89.825868 83.330954 
L 90.151157 83.539036 
L 90.476446 83.982094 
L 90.801735 83.260562 
L 91.127025 83.490342 
L 91.452314 86.542111 
L 91.777603 86.856236 
L 92.102892 83.044929 
L 92.428181 82.961934 
L 92.753471 82.462102 
L 93.07876 83.216874 
L 93.729338 82.613314 
L 94.054628 83.064963 
L 94.379917 81.588865 
L 94.705206 83.162716 
L 95.030495 83.385273 
L 95.355784 82.525035 
L 95.681074 82.987404 
L 96.006363 85.073163 
L 96.331652 84.123707 
L 96.656941 85.803178 
L 96.98223 86.56512 
L 97.30752 87.975578 
L 97.632809 88.171072 
L 98.283387 89.713641 
L 98.608677 88.557234 
L 98.933966 85.549075 
L 99.259255 86.161521 
L 99.584544 85.260722 
L 99.909833 85.870099 
L 100.235123 85.697441 
L 100.560412 83.774484 
L 100.885701 83.685862 
L 101.861569 87.368941 
L 102.186858 87.390603 
L 102.512147 85.926756 
L 103.162726 90.01788 
L 103.488015 91.5955 
L 103.813304 94.585704 
L 104.138593 92.325959 
L 104.463882 92.375969 
L 104.789172 89.118766 
L 105.114461 91.549967 
L 105.43975 89.344764 
L 105.765039 90.53929 
L 106.090328 91.235735 
L 107.066196 96.812964 
L 107.391485 96.442235 
L 107.716775 98.695841 
L 108.042064 99.001154 
L 108.367353 98.878787 
L 108.692642 97.614902 
L 109.017931 97.436722 
L 109.343221 96.891818 
L 109.66851 96.011081 
L 109.993799 96.033635 
L 110.319088 95.406711 
L 110.969667 98.391029 
L 111.294956 95.074355 
L 111.620245 95.077438 
L 111.945534 96.273438 
L 112.270824 93.923486 
L 112.596113 94.205508 
L 112.921402 95.319346 
L 113.246691 97.775137 
L 113.57198 96.425876 
L 113.89727 98.290553 
L 114.222559 99.143659 
L 114.547848 97.891676 
L 114.873137 97.549425 
L 115.198427 97.694112 
L 115.523716 98.047404 
L 115.849005 96.047617 
L 116.174294 92.23372 
L 116.499583 93.159701 
L 116.824873 92.199364 
L 117.150162 88.896909 
L 117.475451 87.050895 
L 117.80074 88.223174 
L 118.126029 88.962903 
L 118.451319 89.982535 
L 119.101897 92.61116 
L 119.427186 92.157312 
L 119.752476 93.151466 
L 120.077765 91.666382 
L 120.403054 91.458091 
L 120.728343 92.140768 
L 121.053632 90.620434 
L 121.704211 89.62095 
L 122.0295 87.852119 
L 122.354789 86.876299 
L 122.680078 87.065738 
L 123.005368 85.464691 
L 123.330657 84.938725 
L 123.655946 79.962504 
L 124.631814 73.904513 
L 124.957103 73.767143 
L 125.282392 71.517084 
L 125.607681 71.509528 
L 126.25826 73.927787 
L 126.583549 73.026591 
L 126.908838 75.696253 
L 127.234127 75.34118 
L 127.559417 76.585475 
L 127.884706 75.365206 
L 128.209995 76.64098 
L 128.535284 73.449391 
L 128.860574 72.141857 
L 129.185863 74.303174 
L 129.511152 71.301367 
L 129.836441 71.742306 
L 130.16173 72.996734 
L 130.48702 74.748505 
L 130.812309 73.778514 
L 131.137598 71.201767 
L 131.462887 72.251929 
L 132.113466 75.898166 
L 132.764044 70.490073 
L 133.089333 71.217831 
L 133.414623 70.360896 
L 134.065201 70.745701 
L 134.39049 69.207343 
L 134.715779 68.714659 
L 135.041069 68.461309 
L 135.366358 69.295162 
L 135.691647 68.154142 
L 136.016936 69.000508 
L 136.342225 69.195993 
L 136.667515 69.082558 
L 136.992804 71.405792 
L 137.643382 72.492046 
L 137.968672 72.316674 
L 138.61925 76.241032 
L 139.269828 71.500407 
L 139.595118 70.016472 
L 139.920407 67.080833 
L 140.245696 66.836241 
L 140.570985 67.487823 
L 140.896274 67.095859 
L 141.221564 70.774567 
L 141.546853 72.753907 
L 141.872142 71.463905 
L 142.197431 71.445564 
L 142.522721 73.665913 
L 142.84801 72.53382 
L 143.173299 70.82665 
L 143.498588 69.785877 
L 143.823877 70.040302 
L 144.149167 71.645096 
L 144.474456 71.48202 
L 144.799745 70.788774 
L 145.125034 71.504197 
L 145.450323 70.508189 
L 146.100902 69.704955 
L 146.426191 73.385782 
L 146.75148 71.545306 
L 147.07677 68.631002 
L 147.402059 69.635608 
L 147.727348 72.374706 
L 148.052637 71.281068 
L 148.377926 72.130995 
L 148.703216 73.776974 
L 149.028505 71.68981 
L 149.353794 74.068348 
L 149.679083 72.84734 
L 150.004372 74.981979 
L 150.329662 72.483002 
L 150.654951 71.598423 
L 150.98024 72.062663 
L 151.305529 71.803222 
L 151.956108 69.500864 
L 152.281397 68.318613 
L 152.606686 67.733736 
L 152.931975 68.955485 
L 153.257265 68.106928 
L 153.582554 70.715312 
L 154.558422 65.901805 
L 154.883711 67.496229 
L 155.209 67.608716 
L 155.534289 66.562587 
L 155.859578 66.543283 
L 156.184868 67.797003 
L 156.510157 67.67274 
L 156.835446 67.969402 
L 157.160735 66.652761 
L 157.486024 68.240083 
L 158.136603 67.895302 
L 158.461892 66.992994 
L 158.787181 67.597941 
L 159.112471 67.800846 
L 159.43776 68.322024 
L 160.088338 68.91716 
L 160.413627 69.764018 
L 160.738917 65.14195 
L 161.714784 71.275146 
L 162.040073 72.542889 
L 162.365363 72.521846 
L 163.015941 67.368086 
L 163.34123 67.406077 
L 163.66652 72.110563 
L 163.991809 71.449437 
L 164.317098 73.725787 
L 164.642387 74.571286 
L 164.967676 76.527383 
L 165.292966 75.807676 
L 165.618255 76.873341 
L 165.943544 75.566857 
L 166.268833 74.755063 
L 166.594122 75.164264 
L 166.919412 75.0235 
L 167.244701 73.453784 
L 167.56999 74.092271 
L 167.895279 72.533072 
L 168.220569 72.564247 
L 168.545858 72.103554 
L 168.871147 70.734149 
L 169.196436 68.5695 
L 169.521725 68.003936 
L 169.847015 68.284135 
L 170.172304 67.405701 
L 170.497593 70.483605 
L 170.822882 67.818936 
L 171.148171 70.480145 
L 171.473461 69.071087 
L 171.79875 70.307951 
L 172.124039 69.592806 
L 172.449328 70.013713 
L 172.774618 69.675486 
L 173.099907 71.256319 
L 173.425196 75.0024 
L 173.750485 74.305163 
L 174.726353 77.684396 
L 175.051642 74.285261 
L 175.376931 75.280824 
L 175.70222 74.721896 
L 176.02751 76.702265 
L 176.352799 74.10721 
L 176.678088 75.060971 
L 177.003377 79.496687 
L 177.328667 74.868479 
L 177.653956 76.743235 
L 177.979245 74.515426 
L 178.629823 72.150216 
L 178.955113 72.540479 
L 179.280402 72.215876 
L 179.605691 70.121803 
L 179.93098 70.804911 
L 180.256269 70.477482 
L 180.581559 69.026722 
L 180.906848 69.16246 
L 181.232137 70.15262 
L 181.557426 67.840501 
L 181.882716 67.65325 
L 182.208005 68.281706 
L 182.858583 71.860942 
L 183.509162 68.866266 
L 183.834451 72.866329 
L 184.15974 73.921242 
L 184.485029 72.273747 
L 185.135608 64.827168 
L 185.460897 63.915472 
L 185.786186 62.357892 
L 186.111475 64.200633 
L 186.436765 63.637003 
L 186.762054 66.563936 
L 187.087343 68.046435 
L 187.412632 67.874081 
L 187.737921 64.565604 
L 188.063211 64.010989 
L 188.3885 64.321065 
L 188.713789 65.358153 
L 189.039078 68.259353 
L 189.364367 67.584541 
L 189.689657 68.602135 
L 190.014946 68.514379 
L 190.340235 70.361773 
L 190.665524 70.300303 
L 190.990814 73.076038 
L 191.316103 72.220618 
L 191.641392 69.963065 
L 191.966681 68.587819 
L 192.29197 65.300747 
L 192.61726 65.395809 
L 193.267838 64.955611 
L 193.593127 67.141069 
L 193.918416 63.930708 
L 194.243706 63.028491 
L 194.568995 64.318469 
L 194.894284 66.606809 
L 195.219573 66.132973 
L 195.544863 65.235105 
L 196.195441 65.951519 
L 196.52073 66.856952 
L 196.846019 67.355667 
L 197.496598 63.756659 
L 197.821887 67.120705 
L 198.147176 67.351402 
L 198.797755 72.328464 
L 199.123044 71.325101 
L 199.448333 72.812544 
L 199.773622 78.201074 
L 200.098912 77.08092 
L 200.424201 74.907811 
L 200.74949 71.426409 
L 201.074779 72.143902 
L 201.400068 69.671193 
L 201.725358 74.360054 
L 202.050647 76.139877 
L 202.701225 74.446908 
L 203.351804 70.550055 
L 203.677093 70.816194 
L 204.002382 68.305873 
L 204.327671 67.48367 
L 204.652961 64.9838 
L 204.97825 67.037633 
L 205.303539 67.001084 
L 205.628828 68.214213 
L 205.954117 67.197235 
L 206.604696 68.839268 
L 206.929985 71.400713 
L 207.255274 70.917906 
L 207.905853 67.653103 
L 208.231142 73.217028 
L 208.556431 75.987942 
L 208.88172 72.557397 
L 209.532299 73.134911 
L 209.857588 71.151159 
L 210.182877 70.883005 
L 210.508166 72.056909 
L 210.833456 72.410854 
L 211.158745 69.16906 
L 211.484034 71.791403 
L 211.484034 71.791403 
" style="fill:none;stroke:#1f77b4;stroke-linecap:square;stroke-width:1.5;"/>
   </g>
   <g id="line2d_9">
    <path clip-path="url(#pa83ae3ed8e)" d="M 41.04875 84.756858 
L 219.6 84.756858 
" style="fill:none;stroke:#808080;stroke-dasharray:2.775,1.2;stroke-dashoffset:0;stroke-width:0.75;"/>
   </g>
   <g id="patch_3">
    <path d="M 41.04875 104.3725 
L 41.04875 10.8 
" style="fill:none;stroke:#000000;stroke-linecap:square;stroke-linejoin:miter;stroke-width:0.8;"/>
   </g>
   <g id="patch_4">
    <path d="M 219.6 104.3725 
L 219.6 10.8 
" style="fill:none;stroke:#000000;stroke-linecap:square;stroke-linejoin:miter;stroke-width:0.8;"/>
   </g>
   <g id="patch_5">
    <path d="M 41.04875 104.3725 
L 219.6 104.3725 
" style="fill:none;stroke:#000000;stroke-linecap:square;stroke-linejoin:miter;stroke-width:0.8;"/>
   </g>
   <g id="patch_6">
    <path d="M 41.04875 10.8 
L 219.6 10.8 
" style="fill:none;stroke:#000000;stroke-linecap:square;stroke-linejoin:miter;stroke-width:0.8;"/>
   </g>
  </g>
  <g id="axes_2">
   <g id="patch_7">
    <path d="M 41.04875 242.9725 
L 219.6 242.9725 
L 219.6 149.4 
L 41.04875 149.4 
z
" style="fill:#ffffff;"/>
   </g>
   <g id="line2d_10">
    <path clip-path="url(#pdaf1fcf611)" d="M 49.164716 223.618472 
L 49.490005 227.771402 
L 49.815294 226.90414 
L 50.140584 227.457348 
L 50.465873 230.037152 
L 51.116451 233.00139 
L 51.76703 231.003232 
L 52.092319 228.417156 
L 52.417608 227.310978 
L 53.068186 232.024488 
L 53.393476 230.094043 
L 53.718765 227.419299 
L 54.044054 227.825197 
L 54.369343 226.871174 
L 55.345211 234.763569 
L 55.6705 235.373382 
L 55.995789 236.263508 
L 56.321079 236.656373 
L 56.646368 237.494664 
L 56.971657 236.334918 
L 57.296946 233.897721 
L 57.622235 233.835923 
L 57.947525 230.370184 
L 58.598103 232.349769 
L 58.923392 231.687804 
L 59.248682 232.293539 
L 59.573971 230.284002 
L 59.89926 231.378541 
L 60.224549 229.120355 
L 60.549838 228.788848 
L 60.875128 224.408947 
L 61.200417 225.201313 
L 61.525706 225.547364 
L 61.850995 225.298699 
L 62.176285 229.022285 
L 62.826863 227.17313 
L 63.152152 226.986495 
L 63.802731 232.263569 
L 64.12802 231.262058 
L 64.453309 229.255719 
L 64.778598 226.53355 
L 65.429177 229.822146 
L 65.754466 230.286417 
L 66.079755 233.659507 
L 66.405044 234.664967 
L 66.730334 233.210738 
L 67.055623 230.420043 
L 67.380912 229.943451 
L 67.706201 227.142596 
L 68.03149 226.441128 
L 68.35678 226.11442 
L 68.682069 226.407115 
L 69.007358 226.087964 
L 69.332647 226.523065 
L 69.657936 226.763637 
L 69.983226 227.89366 
L 70.308515 227.451424 
L 70.633804 227.426757 
L 70.959093 229.952788 
L 71.284383 230.363727 
L 71.609672 231.824583 
L 71.934961 235.321398 
L 72.26025 234.495282 
L 72.585539 231.834192 
L 73.236118 225.120981 
L 73.561407 226.607668 
L 74.211985 222.689255 
L 74.537275 226.083001 
L 75.187853 223.5418 
L 75.513142 223.263844 
L 75.838432 222.771099 
L 76.163721 222.671553 
L 76.48901 219.885411 
L 76.814299 220.57137 
L 77.139588 220.912719 
L 77.464878 220.900104 
L 77.790167 220.429473 
L 78.115456 223.439803 
L 78.440745 221.070168 
L 78.766034 220.683985 
L 79.091324 219.71234 
L 79.416613 219.37547 
L 79.741902 219.693774 
L 80.067191 220.300265 
L 80.71777 219.876579 
L 81.043059 217.904245 
L 81.368348 217.313433 
L 81.693637 217.541333 
L 82.018927 214.149746 
L 82.669505 218.62215 
L 82.994794 218.016752 
L 83.320083 218.379328 
L 83.645373 221.409029 
L 83.970662 221.942087 
L 84.295951 223.155363 
L 84.62124 221.22423 
L 84.94653 222.28487 
L 85.271819 220.491195 
L 85.597108 219.706227 
L 85.922397 220.058488 
L 86.247686 220.022342 
L 86.572976 219.290509 
L 86.898265 223.230936 
L 87.223554 222.672545 
L 87.548843 223.319801 
L 87.874132 220.250281 
L 88.199422 221.430459 
L 88.524711 219.479802 
L 88.85 223.773438 
L 89.175289 222.38266 
L 89.500579 221.91128 
L 89.825868 222.333002 
L 90.151157 222.539392 
L 90.476446 222.984237 
L 90.801735 222.26206 
L 91.127025 222.491257 
L 91.452314 225.543394 
L 91.777603 225.860622 
L 92.102892 222.045366 
L 92.428181 221.965387 
L 92.753471 221.468936 
L 93.07876 222.21681 
L 93.729338 221.615853 
L 94.054628 222.061794 
L 94.379917 220.587977 
L 94.705206 222.163913 
L 95.030495 222.38619 
L 95.355784 221.523931 
L 95.681074 221.979777 
L 96.006363 224.069261 
L 96.331652 223.116157 
L 96.656941 224.792964 
L 96.98223 225.556636 
L 97.30752 226.970501 
L 97.632809 227.159544 
L 98.283387 228.702868 
L 98.608677 227.540258 
L 98.933966 224.531022 
L 99.259255 225.141393 
L 99.584544 224.249083 
L 99.909833 224.855867 
L 100.235123 224.686947 
L 100.560412 222.76158 
L 100.885701 222.675716 
L 101.861569 226.367193 
L 102.186858 226.389907 
L 102.512147 224.925056 
L 103.162726 229.015804 
L 103.488015 230.594238 
L 103.813304 233.580932 
L 104.138593 231.317234 
L 104.463882 231.379342 
L 104.789172 228.134213 
L 105.114461 230.565924 
L 105.43975 228.356416 
L 105.765039 229.554314 
L 106.090328 230.249801 
L 107.066196 235.81987 
L 107.391485 235.450533 
L 107.716775 237.694219 
L 108.042064 238.107038 
L 108.367353 238.122747 
L 108.692642 236.984668 
L 109.017931 236.813273 
L 109.343221 236.264685 
L 109.66851 235.38645 
L 109.993799 235.415902 
L 110.319088 234.795572 
L 110.969667 237.792142 
L 111.294956 234.552594 
L 111.620245 234.572627 
L 111.945534 235.785638 
L 112.270824 233.429821 
L 112.596113 233.697593 
L 112.921402 234.801322 
L 113.246691 237.275131 
L 113.57198 235.944334 
L 113.89727 237.798935 
L 114.222559 238.719205 
L 114.547848 237.619557 
L 114.873137 237.306046 
L 115.198427 237.4536 
L 115.523716 237.818933 
L 115.849005 235.862534 
L 116.174294 232.054871 
L 116.499583 232.99175 
L 116.824873 232.020481 
L 117.150162 228.727513 
L 117.475451 226.88528 
L 117.80074 228.057882 
L 118.126029 228.793166 
L 118.451319 229.814056 
L 119.101897 232.438713 
L 119.427186 231.991623 
L 119.752476 232.993835 
L 120.077765 231.497932 
L 120.403054 231.287503 
L 120.728343 231.965501 
L 121.053632 230.452713 
L 121.704211 229.455946 
L 122.0295 227.680327 
L 122.354789 226.701613 
L 122.680078 226.887531 
L 123.005368 225.286879 
L 123.330657 224.758792 
L 123.655946 219.778181 
L 124.631814 213.729531 
L 124.957103 213.593223 
L 125.282392 211.351767 
L 125.607681 211.31189 
L 126.25826 213.693794 
L 126.583549 212.792444 
L 126.908838 215.457685 
L 127.234127 215.101972 
L 127.559417 216.345457 
L 127.884706 215.119273 
L 128.209995 216.393187 
L 128.535284 213.196674 
L 128.860574 211.885807 
L 129.185863 214.052082 
L 129.511152 211.049419 
L 129.836441 211.437398 
L 130.16173 212.679391 
L 130.48702 214.427285 
L 130.812309 213.457962 
L 131.137598 210.889348 
L 131.462887 211.876875 
L 132.113466 215.525842 
L 132.764044 210.118713 
L 133.089333 210.713644 
L 133.414623 209.795641 
L 134.065201 209.904113 
L 134.39049 208.258273 
L 135.041069 206.94292 
L 135.366358 207.442429 
L 135.691647 206.049985 
L 136.016936 206.531443 
L 136.342225 206.446213 
L 136.667515 206.071507 
L 136.992804 208.122195 
L 137.643382 209.166524 
L 137.968672 208.993743 
L 138.61925 212.917664 
L 139.269828 208.171635 
L 139.595118 206.653812 
L 139.920407 203.538368 
L 140.245696 202.822008 
L 140.570985 202.977504 
L 140.896274 202.154303 
L 141.221564 205.362739 
L 141.546853 207.237455 
L 141.872142 205.942263 
L 142.197431 205.886579 
L 142.522721 208.06784 
L 142.84801 206.943545 
L 143.498588 204.097912 
L 143.823877 204.149636 
L 144.149167 205.576992 
L 144.474456 205.393299 
L 144.799745 204.664428 
L 145.125034 205.276633 
L 145.450323 204.247092 
L 146.100902 203.141561 
L 146.426191 206.611639 
L 146.75148 204.76593 
L 147.07677 201.821941 
L 147.402059 202.509059 
L 147.727348 205.030513 
L 148.052637 203.939693 
L 148.377926 204.734696 
L 148.703216 206.38564 
L 149.028505 204.306679 
L 149.353794 206.66847 
L 149.679083 205.443631 
L 150.004372 207.573841 
L 150.329662 205.077366 
L 150.654951 204.195475 
L 150.98024 204.634916 
L 151.305529 204.379902 
L 151.630819 203.386126 
L 152.606686 199.62261 
L 152.931975 200.437626 
L 153.257265 199.303868 
L 153.582554 201.542642 
L 154.558422 195.95788 
L 154.883711 196.963081 
L 155.209 196.645169 
L 155.534289 195.17985 
L 155.859578 194.637183 
L 156.184868 195.365616 
L 156.510157 194.840921 
L 156.835446 194.724773 
L 157.160735 193.024845 
L 157.486024 194.097795 
L 158.136603 193.01809 
L 158.461892 191.725132 
L 158.787181 191.849579 
L 159.112471 191.632219 
L 159.43776 191.753349 
L 160.088338 191.680918 
L 160.413627 192.238757 
L 160.738917 187.411814 
L 161.064206 188.852593 
L 161.714784 192.214255 
L 162.040073 193.426501 
L 162.365363 193.406975 
L 163.015941 188.081484 
L 163.34123 187.676309 
L 163.66652 191.941413 
L 163.991809 191.285211 
L 164.317098 193.522842 
L 164.642387 194.377671 
L 164.967676 196.340549 
L 165.292966 195.6139 
L 165.618255 196.683683 
L 165.943544 195.365472 
L 166.268833 194.550592 
L 166.594122 194.960454 
L 166.919412 194.822916 
L 167.244701 193.25664 
L 167.56999 193.891967 
L 167.895279 192.328765 
L 168.220569 192.361743 
L 168.545858 191.90181 
L 168.871147 190.537297 
L 169.196436 188.264021 
L 169.521725 187.374858 
L 169.847015 187.275202 
L 170.172304 186.044802 
L 170.497593 188.683287 
L 170.822882 185.885149 
L 171.148171 188.148111 
L 171.473461 186.605242 
L 171.79875 187.568417 
L 172.124039 186.702406 
L 172.449328 186.901417 
L 172.774618 186.38311 
L 173.099907 187.750263 
L 173.425196 191.439022 
L 173.750485 190.744754 
L 174.726353 194.115681 
L 175.051642 190.72777 
L 175.376931 191.721725 
L 175.70222 191.16377 
L 176.02751 193.144951 
L 176.352799 190.544625 
L 176.678088 191.494321 
L 177.003377 195.934298 
L 177.328667 191.304289 
L 177.653956 193.179116 
L 177.979245 190.944425 
L 178.629823 188.579437 
L 178.955113 188.974642 
L 179.280402 188.65163 
L 179.605691 186.56205 
L 179.93098 187.075818 
L 180.256269 186.646766 
L 180.581559 185.061932 
L 180.906848 184.919565 
L 181.232137 185.645123 
L 181.557426 183.166726 
L 181.882716 182.583374 
L 182.208005 182.797077 
L 182.858583 185.838551 
L 183.509162 182.691977 
L 183.834451 186.39795 
L 184.15974 187.448756 
L 184.485029 185.801439 
L 185.135608 177.991294 
L 185.460897 176.383281 
L 185.786186 174.038642 
L 186.111475 174.939086 
L 186.436765 173.616752 
L 186.762054 175.728917 
L 187.087343 176.688187 
L 187.412632 176.140205 
L 187.737921 172.438968 
L 188.063211 171.161998 
L 188.3885 170.694504 
L 188.713789 170.984881 
L 189.039078 173.242638 
L 189.364367 172.213393 
L 189.689657 172.809387 
L 190.014946 172.401275 
L 190.340235 173.919596 
L 190.665524 173.712582 
L 190.990814 176.336694 
L 191.316103 175.476394 
L 192.29197 168.05407 
L 192.61726 167.499972 
L 193.267838 165.758175 
L 193.593127 167.260104 
L 193.918416 163.58397 
L 194.243706 161.896208 
L 194.568995 162.310776 
L 194.894284 163.852147 
L 195.219573 162.859358 
L 195.544863 161.395299 
L 196.195441 160.842216 
L 196.52073 161.16338 
L 196.846019 161.168071 
L 197.496598 156.497412 
L 197.821887 159.058608 
L 198.147176 158.821505 
L 198.797755 163.157604 
L 199.123044 162.157229 
L 199.448333 163.594009 
L 199.773622 168.977617 
L 200.098912 167.876172 
L 200.424201 165.68722 
L 200.74949 162.206493 
L 201.074779 162.883069 
L 201.400068 160.415315 
L 201.725358 164.890069 
L 202.050647 166.671426 
L 202.701225 164.980377 
L 203.351804 161.092757 
L 203.677093 161.232018 
L 204.002382 158.621191 
L 204.327671 157.449185 
L 204.652961 154.517664 
L 204.97825 155.890776 
L 205.303539 155.378164 
L 205.628828 156.111597 
L 205.954117 154.735691 
L 206.604696 155.540502 
L 206.929985 157.805168 
L 207.255274 157.278983 
L 207.905853 153.653295 
L 208.231142 158.802453 
L 208.556431 161.567613 
L 208.88172 158.144312 
L 209.532299 158.718922 
L 209.857588 156.729388 
L 210.182877 156.393663 
L 210.508166 157.47366 
L 210.833456 157.831924 
L 211.158745 154.592973 
L 211.484034 156.95137 
L 211.484034 156.95137 
" style="fill:none;stroke:#00bfbf;stroke-linecap:square;stroke-width:1.5;"/>
   </g>
   <g id="matplotlib.axis_3">
    <g id="xtick_4">
     <g id="line2d_11">
      <g>
       <use style="stroke:#000000;stroke-width:0.8;" x="49.164716" xlink:href="#m0d08021e30" y="242.9725"/>
      </g>
     </g>
     <g id="text_8">
      <!-- 0.0 -->
      <g transform="translate(39.622841 259.090625)scale(0.12 -0.12)">
       <use xlink:href="#DejaVuSans-48"/>
       <use x="63.623047" xlink:href="#DejaVuSans-46"/>
       <use x="95.410156" xlink:href="#DejaVuSans-48"/>
      </g>
     </g>
    </g>
    <g id="xtick_5">
     <g id="line2d_12">
      <g>
       <use style="stroke:#000000;stroke-width:0.8;" x="114.222559" xlink:href="#m0d08021e30" y="242.9725"/>
      </g>
     </g>
     <g id="text_9">
      <!-- 0.2 -->
      <g transform="translate(104.680684 259.090625)scale(0.12 -0.12)">
       <use xlink:href="#DejaVuSans-48"/>
       <use x="63.623047" xlink:href="#DejaVuSans-46"/>
       <use x="95.410156" xlink:href="#DejaVuSans-50"/>
      </g>
     </g>
    </g>
    <g id="xtick_6">
     <g id="line2d_13">
      <g>
       <use style="stroke:#000000;stroke-width:0.8;" x="179.280402" xlink:href="#m0d08021e30" y="242.9725"/>
      </g>
     </g>
     <g id="text_10">
      <!-- 0.4 -->
      <g transform="translate(169.738527 259.090625)scale(0.12 -0.12)">
       <use xlink:href="#DejaVuSans-48"/>
       <use x="63.623047" xlink:href="#DejaVuSans-46"/>
       <use x="95.410156" xlink:href="#DejaVuSans-52"/>
      </g>
     </g>
    </g>
    <g id="text_11">
     <!-- Time (s) -->
     <g transform="translate(105.929687 274.704375)scale(0.12 -0.12)">
      <use xlink:href="#DejaVuSans-84"/>
      <use x="57.958984" xlink:href="#DejaVuSans-105"/>
      <use x="85.742188" xlink:href="#DejaVuSans-109"/>
      <use x="183.154297" xlink:href="#DejaVuSans-101"/>
      <use x="244.677734" xlink:href="#DejaVuSans-32"/>
      <use x="276.464844" xlink:href="#DejaVuSans-40"/>
      <use x="315.478516" xlink:href="#DejaVuSans-115"/>
      <use x="367.578125" xlink:href="#DejaVuSans-41"/>
     </g>
    </g>
   </g>
   <g id="matplotlib.axis_4">
    <g id="ytick_3">
     <g id="line2d_14">
      <g>
       <use style="stroke:#000000;stroke-width:0.8;" x="41.04875" xlink:href="#m4c6c4e242d" y="223.356858"/>
      </g>
     </g>
     <g id="text_12">
      <!-- 0 -->
      <g transform="translate(26.41375 227.915921)scale(0.12 -0.12)">
       <use xlink:href="#DejaVuSans-48"/>
      </g>
     </g>
    </g>
    <g id="ytick_4">
     <g id="line2d_15">
      <g>
       <use style="stroke:#000000;stroke-width:0.8;" x="41.04875" xlink:href="#m4c6c4e242d" y="180.6753"/>
      </g>
     </g>
     <g id="text_13">
      <!-- 5 -->
      <g transform="translate(26.41375 185.234363)scale(0.12 -0.12)">
       <use xlink:href="#DejaVuSans-53"/>
      </g>
     </g>
    </g>
    <g id="text_14">
     <!-- x -->
     <g transform="translate(19.918125 199.7375)rotate(-90)scale(0.12 -0.12)">
      <use xlink:href="#DejaVuSans-120"/>
     </g>
    </g>
   </g>
   <g id="line2d_16">
    <path clip-path="url(#pdaf1fcf611)" d="M 49.164716 223.356858 
L 49.490005 227.509788 
L 49.815294 226.227233 
L 50.140584 226.493403 
L 50.465873 228.759553 
L 51.116451 230.548504 
L 51.76703 227.287863 
L 52.092319 224.308686 
L 52.417608 223.107326 
L 53.068186 227.637485 
L 53.718765 222.412021 
L 54.044054 222.912403 
L 54.369343 222.002825 
L 55.345211 229.442128 
L 55.6705 229.443414 
L 55.995789 229.724885 
L 56.321079 229.480947 
L 56.646368 229.706829 
L 56.971657 227.912086 
L 57.296946 225.019366 
L 57.622235 224.791317 
L 57.947525 221.182133 
L 58.598103 223.466606 
L 58.923392 222.793666 
L 59.248682 223.45572 
L 59.573971 221.436297 
L 59.89926 222.722892 
L 60.224549 220.528103 
L 60.549838 220.479471 
L 60.875128 216.387309 
L 61.200417 217.87663 
L 61.525706 218.770704 
L 61.850995 218.980654 
L 62.176285 223.141861 
L 62.826863 221.436378 
L 63.152152 221.441791 
L 63.802731 226.819059 
L 64.12802 225.471327 
L 64.778598 220.541704 
L 65.429177 224.212304 
L 65.754466 224.59103 
L 66.079755 227.840703 
L 66.405044 228.397778 
L 66.730334 226.439458 
L 67.055623 223.340503 
L 67.380912 222.865547 
L 67.706201 220.113822 
L 68.03149 219.736658 
L 68.35678 219.77197 
L 68.682069 220.423154 
L 69.007358 220.397373 
L 69.657936 221.591838 
L 69.983226 222.898363 
L 70.308515 222.501977 
L 70.633804 222.562798 
L 70.959093 225.168235 
L 71.284383 225.398036 
L 71.609672 226.654774 
L 71.934961 229.821798 
L 72.26025 228.349188 
L 73.236118 218.532148 
L 73.561407 220.501305 
L 74.211985 217.326093 
L 74.537275 221.322916 
L 74.862564 220.055865 
L 75.187853 219.315208 
L 75.513142 219.441417 
L 75.838432 219.340216 
L 76.163721 219.642335 
L 76.48901 217.227644 
L 76.814299 218.526525 
L 77.139588 219.350907 
L 77.464878 219.738887 
L 77.790167 219.630053 
L 78.115456 223.013064 
L 78.440745 220.677808 
L 78.766034 220.559531 
L 79.091324 219.867618 
L 79.416613 219.879672 
L 80.067191 221.433302 
L 80.71777 221.391501 
L 81.043059 219.615702 
L 81.368348 219.399006 
L 81.693637 220.022692 
L 82.018927 216.964521 
L 82.669505 222.433038 
L 82.994794 221.920021 
L 83.320083 222.426282 
L 83.645373 225.54904 
L 83.970662 225.86288 
L 84.295951 226.825554 
L 84.62124 224.547551 
L 84.94653 225.489121 
L 85.271819 223.48222 
L 85.597108 222.684716 
L 85.922397 223.104191 
L 86.247686 223.093312 
L 86.572976 222.387834 
L 86.898265 226.425163 
L 87.223554 225.559941 
L 87.548843 225.98689 
L 87.874132 222.654366 
L 88.199422 223.904793 
L 88.524711 221.899343 
L 88.85 226.338731 
L 89.175289 224.649765 
L 89.500579 224.049094 
L 89.825868 224.401593 
L 90.151157 224.503509 
L 90.476446 224.833689 
L 90.801735 223.963829 
L 91.127025 224.132329 
L 91.452314 227.106919 
L 91.777603 227.049141 
L 92.102892 222.864656 
L 92.428181 222.833898 
L 92.753471 222.389743 
L 93.07876 223.234328 
L 93.729338 222.686368 
L 94.054628 223.199357 
L 94.379917 221.74129 
L 94.705206 223.478783 
L 95.030495 223.688868 
L 95.355784 222.793408 
L 95.681074 223.305599 
L 96.006363 225.400209 
L 96.331652 224.24277 
L 96.656941 225.830985 
L 96.98223 226.347245 
L 97.30752 227.462071 
L 97.632809 227.240592 
L 98.283387 227.972699 
L 98.608677 226.348506 
L 98.933966 223.040105 
L 99.259255 223.682151 
L 99.584544 222.757312 
L 99.909833 223.424051 
L 100.235123 223.248411 
L 100.560412 221.333888 
L 100.885701 221.450322 
L 101.536279 224.311858 
L 101.861569 225.269306 
L 102.186858 225.100775 
L 102.512147 223.461532 
L 103.162726 227.300409 
L 103.488015 228.484489 
L 103.813304 230.95842 
L 104.138593 227.934566 
L 104.463882 227.538903 
L 104.789172 223.875569 
L 105.114461 226.255409 
L 105.43975 223.756046 
L 105.765039 224.914025 
L 106.090328 225.453795 
L 107.066196 229.972628 
L 107.391485 228.941714 
L 107.716775 230.626914 
L 108.042064 230.312727 
L 108.367353 229.63285 
L 108.692642 227.867171 
L 109.017931 227.244745 
L 109.66851 225.134082 
L 109.993799 224.985812 
L 110.319088 224.202586 
L 110.969667 226.871205 
L 111.294956 223.280221 
L 111.620245 223.307918 
L 111.945534 224.525823 
L 112.270824 222.05311 
L 112.596113 222.451256 
L 112.921402 223.645546 
L 113.246691 226.090486 
L 113.57198 224.486326 
L 113.89727 226.22798 
L 114.222559 226.861138 
L 114.547848 225.411062 
L 114.873137 224.892131 
L 115.198427 224.886157 
L 115.523716 225.09856 
L 115.849005 222.967992 
L 116.174294 219.199215 
L 116.499583 220.551858 
L 116.824873 219.86109 
L 117.150162 216.917698 
L 117.475451 215.719381 
L 118.126029 218.961128 
L 119.101897 223.448 
L 119.427186 222.991795 
L 119.752476 224.030514 
L 120.077765 222.467245 
L 120.403054 222.345777 
L 120.728343 223.124883 
L 121.053632 221.635293 
L 121.704211 221.02008 
L 122.0295 219.478139 
L 122.354789 218.887297 
L 122.680078 219.520171 
L 123.005368 218.303188 
L 123.330657 218.280468 
L 123.655946 213.807496 
L 124.631814 210.899999 
L 124.957103 212.009378 
L 125.282392 210.902669 
L 125.607681 212.108211 
L 126.25826 216.485455 
L 126.583549 216.271245 
L 126.908838 219.645047 
L 127.234127 219.660515 
L 127.559417 221.273634 
L 127.884706 220.255773 
L 128.209995 221.839796 
L 128.535284 218.794989 
L 128.860574 217.940309 
L 129.185863 220.648239 
L 129.511152 217.916437 
L 129.836441 218.848459 
L 130.48702 222.570742 
L 130.812309 221.68003 
L 131.137598 219.2791 
L 131.462887 220.674402 
L 132.113466 224.662716 
L 132.764044 219.262949 
L 133.089333 220.267272 
L 133.414623 219.658227 
L 134.065201 220.468943 
L 134.39049 219.111895 
L 134.715779 218.783564 
L 135.041069 218.678367 
L 135.366358 219.645725 
L 135.691647 218.624395 
L 136.016936 219.579099 
L 136.342225 219.871644 
L 136.667515 219.84546 
L 136.992804 222.247288 
L 137.643382 223.451372 
L 137.968672 223.26914 
L 138.61925 227.01991 
L 138.944539 223.881929 
L 139.920407 217.658924 
L 140.245696 217.512358 
L 140.570985 218.252303 
L 140.896274 217.939558 
L 141.221564 221.689724 
L 141.546853 223.731154 
L 141.872142 222.398532 
L 142.197431 222.438681 
L 142.522721 224.711759 
L 142.84801 223.451974 
L 143.173299 221.737075 
L 143.498588 220.758808 
L 143.823877 221.070337 
L 144.149167 222.726345 
L 144.474456 222.605704 
L 144.799745 221.951947 
L 145.125034 222.704644 
L 145.450323 221.740325 
L 146.100902 220.995616 
L 146.426191 224.701819 
L 146.75148 222.721613 
L 147.07677 219.841149 
L 147.402059 220.879838 
L 147.727348 223.648994 
L 148.052637 222.52896 
L 148.377926 223.406753 
L 148.703216 225.052707 
L 149.028505 222.804161 
L 149.353794 225.221223 
L 149.679083 223.809947 
L 150.004372 225.894848 
L 150.329662 223.144574 
L 150.654951 222.283912 
L 150.98024 222.830647 
L 151.305529 222.628254 
L 151.956108 220.455443 
L 152.281397 219.332328 
L 152.606686 218.801369 
L 152.931975 220.071934 
L 153.257265 219.266668 
L 153.582554 221.914462 
L 154.558422 217.195341 
L 154.883711 218.816694 
L 155.209 218.952798 
L 155.534289 217.927885 
L 155.859578 217.928116 
L 156.184868 219.199423 
L 156.510157 219.090472 
L 156.835446 219.400962 
L 157.160735 218.096624 
L 157.486024 219.695597 
L 158.136603 219.369491 
L 158.461892 218.47527 
L 158.787181 219.087875 
L 159.112471 219.297414 
L 159.43776 219.824488 
L 160.088338 220.429024 
L 160.413627 221.279646 
L 160.738917 216.660425 
L 161.714784 222.803519 
L 162.040073 224.071098 
L 162.365363 223.980149 
L 163.015941 218.78053 
L 163.34123 218.832988 
L 163.66652 223.550479 
L 163.991809 222.874915 
L 164.317098 225.16074 
L 164.642387 225.835181 
L 164.967676 227.550227 
L 165.292966 226.404241 
L 165.618255 227.169286 
L 165.943544 225.469832 
L 166.268833 224.443654 
L 166.594122 224.744837 
L 166.919412 224.468501 
L 167.244701 222.791061 
L 167.56999 223.482967 
L 167.895279 221.907155 
L 168.220569 222.085102 
L 168.545858 221.752346 
L 168.871147 220.548283 
L 169.196436 218.555865 
L 169.521725 218.146802 
L 169.847015 218.568151 
L 170.172304 217.816622 
L 170.497593 221.00913 
L 170.822882 218.445765 
L 171.148171 221.199836 
L 171.473461 219.872669 
L 171.79875 221.184264 
L 172.124039 220.535512 
L 172.449328 221.016658 
L 172.774618 220.73237 
L 173.099907 222.361973 
L 173.425196 226.15022 
L 173.750485 225.176616 
L 174.726353 227.748858 
L 175.051642 223.921747 
L 175.376931 224.859213 
L 175.70222 224.151022 
L 176.02751 226.052787 
L 176.352799 223.182868 
L 176.678088 224.149963 
L 177.003377 228.51063 
L 177.328667 223.365243 
L 177.653956 225.239232 
L 177.979245 222.816304 
L 178.629823 220.679175 
L 178.955113 221.342149 
L 179.280402 221.220608 
L 179.605691 219.344653 
L 179.93098 220.259641 
L 180.256269 220.140311 
L 180.581559 218.877131 
L 180.906848 219.182737 
L 181.232137 220.325707 
L 181.557426 218.150426 
L 181.882716 218.087717 
L 182.208005 218.828333 
L 182.858583 222.597762 
L 183.509162 219.748009 
L 183.834451 223.814867 
L 184.15974 224.819872 
L 184.485029 223.026253 
L 185.135608 215.692816 
L 185.460897 214.851207 
L 185.786186 213.357134 
L 186.111475 215.257549 
L 186.436765 214.745147 
L 186.762054 217.718482 
L 187.087343 219.24159 
L 187.412632 219.105135 
L 187.737921 215.82907 
L 188.063211 215.304879 
L 188.3885 215.642583 
L 188.713789 216.704387 
L 189.039078 219.627392 
L 189.364367 218.971093 
L 189.689657 220.005664 
L 190.014946 219.932671 
L 190.340235 221.793411 
L 190.665524 221.742742 
L 190.990814 224.528265 
L 191.316103 223.550824 
L 191.641392 221.278309 
L 191.966681 219.92581 
L 192.29197 216.660063 
L 192.61726 216.775645 
L 193.267838 216.370557 
L 193.593127 218.571117 
L 193.918416 215.373556 
L 194.243706 214.484124 
L 194.568995 215.785966 
L 194.894284 218.084426 
L 195.219573 217.61888 
L 195.544863 216.728619 
L 196.195441 217.458442 
L 196.52073 218.369448 
L 196.846019 218.87288 
L 197.496598 215.282121 
L 197.821887 218.65079 
L 198.147176 218.884294 
L 198.797755 223.864609 
L 199.123044 222.813459 
L 199.448333 224.304578 
L 199.773622 229.593415 
L 200.098912 227.868314 
L 200.424201 225.228216 
L 200.74949 221.560353 
L 201.074779 222.41658 
L 201.400068 220.042853 
L 201.725358 224.849008 
L 202.050647 226.48115 
L 202.701225 224.285087 
L 203.026515 221.937964 
L 203.351804 220.446534 
L 203.677093 220.876828 
L 204.002382 218.514003 
L 204.327671 217.826283 
L 204.652961 215.44782 
L 204.97825 217.611835 
L 205.303539 217.673726 
L 205.628828 218.975471 
L 205.954117 218.037705 
L 206.604696 219.815671 
L 206.929985 222.434456 
L 207.255274 222.000511 
L 207.905853 218.822973 
L 208.231142 224.425519 
L 208.556431 227.083813 
L 208.88172 223.287817 
L 209.532299 223.843511 
L 209.857588 221.805312 
L 210.182877 221.624742 
L 210.508166 222.877951 
L 210.833456 223.284105 
L 211.158745 220.05243 
L 211.484034 222.741269 
L 211.484034 222.741269 
" style="fill:none;stroke:#808080;stroke-linecap:square;stroke-width:0.75;"/>
   </g>
   <g id="line2d_17">
    <path clip-path="url(#pdaf1fcf611)" d="M 49.164716 223.356858 
L 49.490005 227.507243 
L 49.815294 226.632149 
L 50.140584 227.184888 
L 50.465873 229.762012 
L 51.116451 232.705572 
L 51.76703 230.723396 
L 52.092319 228.126473 
L 52.417608 227.017831 
L 53.068186 231.719357 
L 53.393476 229.796091 
L 53.718765 227.110562 
L 54.044054 227.512229 
L 54.369343 226.550514 
L 55.345211 234.454077 
L 55.6705 235.05518 
L 55.995789 235.952355 
L 56.321079 236.351215 
L 56.646368 237.167148 
L 56.971657 235.905649 
L 57.296946 233.47466 
L 57.622235 233.400665 
L 57.947525 229.925878 
L 58.598103 231.885816 
L 58.923392 231.230613 
L 59.248682 231.827033 
L 59.573971 229.825141 
L 59.89926 230.910298 
L 60.224549 228.636126 
L 60.549838 228.299503 
L 60.875128 223.921739 
L 61.200417 224.710521 
L 61.525706 225.043146 
L 61.850995 224.785061 
L 62.176285 228.49541 
L 62.826863 226.635574 
L 63.152152 226.448294 
L 63.802731 231.720914 
L 64.12802 230.726612 
L 64.453309 228.709315 
L 64.778598 225.982064 
L 65.429177 229.258188 
L 65.754466 229.714955 
L 66.079755 233.075345 
L 66.405044 234.085749 
L 66.730334 232.620304 
L 67.055623 229.840359 
L 67.380912 229.355326 
L 67.706201 226.543802 
L 68.03149 225.845342 
L 68.35678 225.508907 
L 68.682069 225.798903 
L 69.007358 225.471547 
L 69.332647 225.905099 
L 69.657936 226.135003 
L 69.983226 227.267134 
L 70.308515 226.822034 
L 70.633804 226.797541 
L 70.959093 229.323073 
L 71.284383 229.723739 
L 71.609672 231.172072 
L 71.934961 234.656659 
L 72.26025 233.821683 
L 72.585539 231.138062 
L 73.236118 224.406884 
L 73.561407 225.886608 
L 74.211985 221.955004 
L 74.537275 225.345632 
L 75.187853 222.797613 
L 75.513142 222.51459 
L 75.838432 222.017307 
L 76.163721 221.914297 
L 76.48901 219.124519 
L 76.814299 219.79829 
L 77.139588 220.126282 
L 77.464878 220.107012 
L 77.790167 219.629572 
L 78.115456 222.633783 
L 78.440745 220.260107 
L 78.766034 219.866882 
L 79.091324 218.881776 
L 79.416613 218.538982 
L 79.741902 218.861996 
L 80.067191 219.463368 
L 80.71777 219.033983 
L 81.043059 217.051379 
L 81.368348 216.448179 
L 81.693637 216.664087 
L 82.018927 213.253574 
L 82.669505 217.727125 
L 82.994794 217.121686 
L 83.320083 217.477731 
L 83.645373 220.501687 
L 83.970662 221.032108 
L 84.295951 222.247562 
L 84.62124 220.30715 
L 84.94653 221.361258 
L 85.271819 219.562484 
L 85.597108 218.773523 
L 85.922397 219.123146 
L 86.247686 219.074811 
L 86.572976 218.331534 
L 86.898265 222.28006 
L 87.223554 221.71232 
L 87.548843 222.354392 
L 87.874132 219.276455 
L 88.199422 220.452868 
L 88.524711 218.499223 
L 88.85 222.798886 
L 89.175289 221.402981 
L 89.500579 220.925156 
L 89.825868 221.347487 
L 90.151157 221.549249 
L 90.476446 221.985864 
L 90.801735 221.260613 
L 91.127025 221.488919 
L 91.452314 224.533753 
L 91.777603 224.841413 
L 92.102892 221.013336 
L 92.428181 220.935676 
L 92.753471 220.440259 
L 93.07876 221.184821 
L 93.729338 220.584003 
L 94.054628 221.027262 
L 94.379917 219.555667 
L 94.705206 221.12779 
L 95.030495 221.35153 
L 95.355784 220.484503 
L 95.681074 220.937729 
L 96.006363 223.028325 
L 96.331652 222.066777 
L 96.656941 223.738879 
L 96.98223 224.501315 
L 97.30752 225.905885 
L 97.632809 226.084267 
L 98.283387 227.629169 
L 98.608677 226.462028 
L 98.933966 223.451915 
L 99.259255 224.061212 
L 99.584544 223.16592 
L 99.909833 223.768122 
L 100.235123 223.59765 
L 100.560412 221.671918 
L 100.885701 221.579017 
L 101.861569 225.24901 
L 102.186858 225.26352 
L 102.512147 223.790826 
L 103.162726 227.881551 
L 103.488015 229.452732 
L 103.813304 232.429602 
L 104.138593 230.177034 
L 104.463882 230.239162 
L 104.789172 226.992909 
L 105.114461 229.423595 
L 105.43975 227.204098 
L 105.765039 228.399443 
L 106.090328 229.095687 
L 107.066196 234.661492 
L 107.391485 234.283477 
L 107.716775 236.518537 
L 108.042064 236.893317 
L 108.367353 236.834483 
L 108.692642 235.627667 
L 109.017931 235.452958 
L 109.343221 234.900583 
L 109.66851 234.026691 
L 109.993799 234.042195 
L 110.319088 233.408972 
L 110.969667 236.402774 
L 111.294956 233.136101 
L 111.620245 233.159087 
L 111.945534 234.374113 
L 112.270824 232.009755 
L 112.596113 232.282468 
L 112.921402 233.395245 
L 113.246691 235.860229 
L 113.57198 234.535676 
L 113.89727 236.3806 
L 114.222559 237.275804 
L 114.547848 236.063551 
L 114.873137 235.751707 
L 115.198427 235.90552 
L 115.523716 236.277061 
L 115.849005 234.305019 
L 116.174294 230.488733 
L 116.499583 231.420027 
L 116.824873 230.449391 
L 117.150162 227.150977 
L 117.475451 225.30542 
L 117.80074 226.471768 
L 118.126029 227.206785 
L 118.451319 228.225128 
L 119.101897 230.8413 
L 119.427186 230.379121 
L 119.752476 231.376863 
L 120.077765 229.880195 
L 120.403054 229.663689 
L 120.728343 230.328712 
L 121.053632 228.812906 
L 121.704211 227.814894 
L 122.0295 226.033449 
L 122.354789 225.054045 
L 122.680078 225.230943 
L 123.005368 223.621723 
L 123.330657 223.092937 
L 123.655946 218.105096 
L 124.631814 212.038081 
L 124.957103 211.904244 
L 125.282392 209.667645 
L 125.607681 209.702315 
L 125.932971 211.19249 
L 126.25826 212.153105 
L 126.583549 211.248757 
L 126.908838 213.914546 
L 127.234127 213.555077 
L 127.559417 214.793346 
L 127.884706 213.565385 
L 128.209995 214.83382 
L 128.535284 211.636518 
L 128.860574 210.32851 
L 129.185863 212.506127 
L 129.511152 209.501348 
L 129.836441 209.980247 
L 130.16173 211.266315 
L 130.48702 213.015436 
L 130.812309 212.041345 
L 131.137598 209.475086 
L 131.462887 210.556126 
L 132.113466 214.190735 
L 132.764044 208.785374 
L 133.089333 209.542222 
L 133.414623 208.711107 
L 134.065201 209.140865 
L 134.39049 207.621668 
L 134.715779 207.146537 
L 135.041069 206.909079 
L 135.366358 207.75731 
L 135.691647 206.629041 
L 136.016936 207.487156 
L 136.342225 207.69305 
L 136.667515 207.588921 
L 136.992804 209.920574 
L 137.643382 211.013661 
L 137.968672 210.83462 
L 138.61925 214.752952 
L 139.269828 210.007344 
L 139.595118 208.530977 
L 139.920407 205.60275 
L 140.245696 205.365418 
L 140.570985 206.02359 
L 140.896274 205.637446 
L 141.221564 209.321454 
L 141.546853 211.304891 
L 141.872142 210.011984 
L 142.197431 209.99731 
L 142.522721 212.220996 
L 142.84801 211.089929 
L 143.173299 209.378809 
L 143.498588 208.341601 
L 143.823877 208.599385 
L 144.149167 210.207159 
L 144.474456 210.045883 
L 144.799745 209.354754 
L 145.125034 210.07238 
L 145.450323 209.078038 
L 146.100902 208.278372 
L 146.426191 211.960809 
L 146.75148 210.119457 
L 147.07677 207.206167 
L 147.402059 208.212416 
L 147.727348 210.952796 
L 148.052637 209.855439 
L 148.377926 210.706628 
L 148.703216 212.347534 
L 149.028505 210.25826 
L 149.353794 212.637732 
L 149.679083 211.415254 
L 150.004372 213.548226 
L 150.329662 211.046715 
L 150.654951 210.158681 
L 150.98024 210.625097 
L 151.305529 210.361123 
L 151.956108 208.062325 
L 152.281397 206.882896 
L 152.606686 206.300818 
L 152.931975 207.525212 
L 153.257265 206.67878 
L 153.582554 209.289253 
L 154.558422 204.480324 
L 154.883711 206.076546 
L 155.209 206.190404 
L 155.534289 205.145488 
L 155.859578 205.127457 
L 156.184868 206.382326 
L 156.510157 206.258874 
L 156.835446 206.556292 
L 157.160735 205.240267 
L 157.486024 206.828389 
L 158.136603 206.484452 
L 158.461892 205.582551 
L 158.787181 206.188035 
L 159.112471 206.391314 
L 159.43776 206.91279 
L 160.088338 207.50816 
L 160.413627 208.355026 
L 160.738917 203.732806 
L 161.714784 209.866725 
L 162.040073 211.134058 
L 162.365363 211.109802 
L 163.015941 205.953186 
L 163.34123 205.992095 
L 163.66652 210.6974 
L 163.991809 210.031158 
L 164.317098 212.307949 
L 164.642387 213.152466 
L 164.967676 215.106578 
L 165.292966 214.38343 
L 165.618255 215.446675 
L 165.943544 214.135911 
L 166.268833 213.321144 
L 166.594122 213.727252 
L 166.919412 213.581645 
L 167.244701 212.009485 
L 167.56999 212.648167 
L 167.895279 211.087454 
L 168.220569 211.114663 
L 168.545858 210.649472 
L 168.871147 209.275388 
L 169.196436 207.115404 
L 169.521725 206.554406 
L 169.847015 206.838841 
L 170.172304 205.96417 
L 170.497593 209.045642 
L 170.822882 206.383601 
L 171.148171 209.047677 
L 171.473461 207.640702 
L 171.79875 208.879675 
L 172.124039 208.166211 
L 172.449328 208.588741 
L 172.774618 208.251911 
L 173.099907 209.834059 
L 173.425196 213.581087 
L 173.750485 212.880949 
L 174.726353 216.250883 
L 175.051642 212.847635 
L 175.376931 213.843295 
L 175.70222 213.280421 
L 176.02751 215.256941 
L 176.352799 212.657731 
L 176.678088 213.610017 
L 177.003377 218.043445 
L 177.328667 213.40824 
L 177.653956 215.279442 
L 177.979245 213.045923 
L 178.629823 210.679547 
L 178.955113 211.064784 
L 179.280402 210.735749 
L 179.605691 208.636267 
L 179.93098 209.326785 
L 180.256269 209.005927 
L 180.581559 207.561129 
L 180.906848 207.702502 
L 181.232137 208.697694 
L 181.557426 206.389936 
L 181.882716 206.207067 
L 182.208005 206.839509 
L 182.858583 210.42497 
L 183.509162 207.431886 
L 183.834451 211.434501 
L 184.15974 212.487855 
L 184.485029 210.837424 
L 185.135608 203.389385 
L 185.460897 202.481212 
L 185.786186 200.926863 
L 186.111475 202.772605 
L 186.436765 202.211574 
L 186.762054 205.140884 
L 187.087343 206.62525 
L 187.412632 206.454303 
L 187.737921 203.147128 
L 188.063211 202.594134 
L 188.3885 202.905705 
L 188.713789 203.944122 
L 189.039078 206.846434 
L 189.364367 206.17216 
L 189.689657 207.190378 
L 190.014946 207.10297 
L 190.340235 208.950694 
L 190.665524 208.889192 
L 190.990814 211.664907 
L 191.316103 210.807757 
L 191.641392 208.5456 
L 191.966681 207.171011 
L 192.29197 203.884791 
L 192.61726 203.981163 
L 193.267838 203.543208 
L 193.593127 205.729652 
L 193.918416 202.5199 
L 194.243706 201.618582 
L 194.568995 202.909421 
L 194.894284 205.19846 
L 195.219573 204.725018 
L 195.544863 203.827569 
L 196.195441 204.544846 
L 196.52073 205.450593 
L 196.846019 205.949463 
L 197.496598 202.350816 
L 197.821887 205.715279 
L 198.147176 205.945992 
L 198.797755 210.922506 
L 199.123044 209.91528 
L 199.448333 211.402432 
L 199.773622 216.788907 
L 200.098912 215.664737 
L 200.424201 213.488514 
L 200.74949 210.004188 
L 201.074779 210.722526 
L 201.400068 208.244787 
L 201.725358 212.935245 
L 202.050647 214.71489 
L 202.701225 213.013033 
L 203.351804 209.110985 
L 203.677093 209.379855 
L 204.002382 206.871961 
L 204.327671 206.05238 
L 204.652961 203.555042 
L 204.97825 205.611489 
L 205.303539 205.577034 
L 205.628828 206.792053 
L 205.954117 205.776545 
L 206.604696 207.42131 
L 206.929985 209.983673 
L 207.255274 209.501232 
L 207.905853 206.237583 
L 208.231142 211.802433 
L 208.556431 214.571934 
L 208.88172 211.137912 
L 209.532299 211.710198 
L 209.857588 209.724375 
L 210.182877 209.457635 
L 210.508166 210.63287 
L 210.833456 210.981951 
L 211.158745 207.736636 
L 211.484034 210.361267 
L 211.484034 210.361267 
" style="fill:none;stroke:#ff7f0e;stroke-linecap:square;stroke-width:1.5;"/>
   </g>
   <g id="line2d_18">
    <path clip-path="url(#pdaf1fcf611)" d="M 41.04875 223.356858 
L 219.6 223.356858 
" style="fill:none;stroke:#808080;stroke-dasharray:2.775,1.2;stroke-dashoffset:0;stroke-width:0.75;"/>
   </g>
   <g id="patch_8">
    <path d="M 41.04875 242.9725 
L 41.04875 149.4 
" style="fill:none;stroke:#000000;stroke-linecap:square;stroke-linejoin:miter;stroke-width:0.8;"/>
   </g>
   <g id="patch_9">
    <path d="M 219.6 242.9725 
L 219.6 149.4 
" style="fill:none;stroke:#000000;stroke-linecap:square;stroke-linejoin:miter;stroke-width:0.8;"/>
   </g>
   <g id="patch_10">
    <path d="M 41.04875 242.9725 
L 219.6 242.9725 
" style="fill:none;stroke:#000000;stroke-linecap:square;stroke-linejoin:miter;stroke-width:0.8;"/>
   </g>
   <g id="patch_11">
    <path d="M 41.04875 149.4 
L 219.6 149.4 
" style="fill:none;stroke:#000000;stroke-linecap:square;stroke-linejoin:miter;stroke-width:0.8;"/>
   </g>
  </g>
 </g>
 <defs>
  <clipPath id="pa83ae3ed8e">
   <rect height="93.5725" width="178.55125" x="41.04875" y="10.8"/>
  </clipPath>
  <clipPath id="pdaf1fcf611">
   <rect height="93.5725" width="178.55125" x="41.04875" y="149.4"/>
  </clipPath>
 </defs>
</svg>
