<?xml version="1.0" encoding="utf-8" standalone="no"?>
<!DOCTYPE svg PUBLIC "-//W3C//DTD SVG 1.1//EN"
  "http://www.w3.org/Graphics/SVG/1.1/DTD/svg11.dtd">
<!-- Created with matplotlib (https://matplotlib.org/) -->
<svg height="288pt" version="1.1" viewBox="0 0 230.4 288" width="230.4pt" xmlns="http://www.w3.org/2000/svg" xmlns:xlink="http://www.w3.org/1999/xlink">
 <metadata>
  <rdf:RDF xmlns:cc="http://creativecommons.org/ns#" xmlns:dc="http://purl.org/dc/elements/1.1/" xmlns:rdf="http://www.w3.org/1999/02/22-rdf-syntax-ns#">
   <cc:Work>
    <dc:type rdf:resource="http://purl.org/dc/dcmitype/StillImage"/>
    <dc:date>2025-11-04T17:30:43.327842</dc:date>
    <dc:format>image/svg+xml</dc:format>
    <dc:creator>
     <cc:Agent>
      <dc:title>Matplotlib v3.3.4, https://matplotlib.org/</dc:title>
     </cc:Agent>
    </dc:creator>
   </cc:Work>
  </rdf:RDF>
 </metadata>
 <defs>
  <style type="text/css">*{stroke-linecap:butt;stroke-linejoin:round;}</style>
 </defs>
 <g id="figure_1">
  <g id="patch_1">
   <path d="M 0 288 
L 230.4 288 
L 230.4 0 
L 0 0 
z
" style="fill:none;"/>
  </g>
  <g id="axes_1">
   <g id="patch_2">
    <path d="M 52.4975 104.3725 
L 219.6 104.3725 
L 219.6 10.8 
L 52.4975 10.8 
z
" style="fill:#ffffff;"/>
   </g>
   <g id="line2d_1">
    <path clip-path="url(#p49cb4fef4e)" d="M 60.093068 97.014345 
L 60.3975 96.949382 
L 60.701931 97.858695 
L 61.310795 98.484858 
L 61.615226 98.269578 
L 61.919658 98.910766 
L 62.224089 98.808767 
L 62.528521 99.492453 
L 62.832952 98.860039 
L 63.137384 96.933697 
L 63.746247 96.51661 
L 64.050679 97.840418 
L 64.35511 97.051864 
L 64.963974 98.833891 
L 65.268405 98.199924 
L 65.572837 97.994031 
L 66.1817 95.093897 
L 66.486132 95.707668 
L 66.790563 95.561667 
L 67.094995 93.559574 
L 68.00829 90.163877 
L 68.312721 90.851482 
L 68.617153 90.127506 
L 69.226016 86.681346 
L 69.530447 87.598207 
L 69.834879 87.884432 
L 70.139311 87.449176 
L 70.748174 88.223455 
L 71.052605 87.445551 
L 71.357037 87.847479 
L 71.661469 89.880844 
L 71.9659 89.469321 
L 72.270332 89.95209 
L 72.574763 90.784049 
L 72.879195 92.564738 
L 73.183627 91.411734 
L 73.79249 95.87722 
L 74.096921 96.190935 
L 74.705785 93.303755 
L 75.010216 94.617299 
L 75.314648 94.819317 
L 75.619079 96.537136 
L 75.923511 95.387106 
L 76.227942 97.066377 
L 76.532374 97.229232 
L 76.836806 96.054435 
L 77.141237 96.307383 
L 77.445669 94.635393 
L 77.7501 95.62484 
L 78.054532 95.204965 
L 78.358964 94.23454 
L 78.663395 94.393432 
L 78.967827 92.816799 
L 79.272258 92.19342 
L 79.57669 94.055666 
L 79.881122 89.553608 
L 80.185553 88.815916 
L 80.489985 88.693836 
L 80.794416 90.284684 
L 81.098848 90.191691 
L 81.40328 90.714777 
L 81.707711 89.981963 
L 82.012143 89.559269 
L 82.316574 87.45187 
L 82.621006 87.29009 
L 83.229869 86.282498 
L 83.838732 86.659952 
L 84.447595 84.520689 
L 84.752027 85.236543 
L 85.056459 86.502836 
L 85.36089 86.579501 
L 85.665322 85.258613 
L 85.969753 85.289922 
L 86.274185 83.303728 
L 86.578617 84.185204 
L 86.883048 84.024118 
L 87.18748 86.885871 
L 87.491911 87.563315 
L 87.796343 87.914874 
L 88.100775 87.333792 
L 88.405206 85.388283 
L 88.709638 85.348543 
L 89.014069 83.695025 
L 89.318501 82.942505 
L 89.622932 81.820742 
L 89.927364 82.350893 
L 90.231796 80.775764 
L 90.536227 81.996029 
L 90.840659 81.432893 
L 91.14509 82.515659 
L 91.449522 83.104937 
L 91.753954 84.766969 
L 92.058385 85.354203 
L 92.362817 84.954884 
L 92.667248 85.033095 
L 92.97168 86.565887 
L 93.276112 84.893238 
L 93.580543 84.509722 
L 94.189406 82.470238 
L 94.493838 83.226382 
L 94.798269 85.438454 
L 95.102701 86.479551 
L 95.407133 85.086201 
L 95.711564 86.284382 
L 96.015996 85.356309 
L 96.320427 86.052789 
L 96.624859 85.605712 
L 96.929291 87.680028 
L 97.233722 86.352732 
L 97.538154 86.397846 
L 97.842585 85.39041 
L 98.147017 85.174484 
L 98.451449 84.266858 
L 98.75588 84.382784 
L 99.060312 83.537376 
L 99.669175 86.483265 
L 99.973607 85.658195 
L 100.278038 85.702752 
L 100.886901 86.16718 
L 101.191333 85.596576 
L 101.495764 86.271377 
L 101.800196 85.691012 
L 102.104628 86.732528 
L 102.409059 87.195689 
L 103.017922 84.8572 
L 103.322354 86.104977 
L 103.626786 85.151211 
L 103.931217 86.333056 
L 104.235649 85.499401 
L 104.54008 87.65889 
L 104.844512 88.929362 
L 105.148944 89.508209 
L 105.453375 89.697551 
L 106.36667 85.258637 
L 106.671102 83.88638 
L 107.279965 84.510966 
L 107.584396 83.295241 
L 107.888828 83.249328 
L 108.193259 83.427874 
L 108.497691 84.946379 
L 108.802123 85.067455 
L 109.106554 88.241611 
L 109.410986 88.760347 
L 109.715417 89.874761 
L 110.019849 89.087107 
L 110.628712 90.005719 
L 110.933144 88.473676 
L 111.237575 89.666765 
L 111.542007 89.306634 
L 111.846439 91.462091 
L 112.15087 91.360044 
L 112.455302 90.893455 
L 112.759733 89.915537 
L 113.064165 90.937595 
L 113.673028 90.212223 
L 113.97746 90.234095 
L 114.281891 90.063483 
L 114.890754 89.08381 
L 115.499618 91.576592 
L 116.108481 86.54323 
L 116.412912 88.125982 
L 117.021776 86.900382 
L 117.326207 86.045898 
L 117.630639 85.886228 
L 117.93507 86.940345 
L 118.239502 87.147809 
L 118.543934 87.706358 
L 118.848365 87.553537 
L 119.457228 88.008505 
L 120.066092 85.450626 
L 120.370523 86.793876 
L 120.674955 87.316948 
L 120.979386 88.216312 
L 121.283818 86.824592 
L 121.588249 86.89211 
L 121.892681 85.244197 
L 122.197113 85.787342 
L 122.501544 85.757773 
L 122.805976 87.291624 
L 123.110407 85.810271 
L 123.414839 86.222664 
L 123.719271 87.911709 
L 124.023702 88.585506 
L 124.328134 91.206842 
L 124.632565 91.243027 
L 124.936997 91.115097 
L 125.241429 90.78747 
L 125.54586 89.083695 
L 125.850292 89.42599 
L 126.154723 88.507683 
L 126.459155 88.152579 
L 126.763586 88.372441 
L 127.068018 90.734355 
L 127.37245 89.656777 
L 127.676881 90.229939 
L 127.981313 90.209518 
L 128.285744 91.654393 
L 128.590176 91.332547 
L 129.199039 91.176229 
L 129.503471 91.329527 
L 130.112334 89.037399 
L 130.416766 88.211825 
L 130.721197 84.434814 
L 131.634492 86.703181 
L 131.938924 86.207341 
L 132.243355 86.989209 
L 132.547787 90.058014 
L 132.852218 91.437925 
L 133.15665 91.355754 
L 133.461081 90.207338 
L 133.765513 91.978024 
L 134.069945 92.674545 
L 134.374376 92.833027 
L 134.678808 93.661582 
L 134.983239 93.057497 
L 135.287671 93.052947 
L 135.592103 92.687576 
L 135.896534 93.512352 
L 136.200966 91.764873 
L 136.505397 91.7653 
L 136.809829 90.294166 
L 137.114261 90.793431 
L 137.418692 90.122388 
L 137.723124 90.895041 
L 138.331987 92.777542 
L 138.636419 92.829705 
L 138.94085 93.078468 
L 139.245282 91.327951 
L 139.854145 93.87438 
L 140.158576 91.940782 
L 140.463008 91.248422 
L 140.76744 93.388121 
L 141.071871 92.822585 
L 141.376303 92.55267 
L 141.680734 94.991513 
L 141.985166 95.41181 
L 142.289598 95.431662 
L 142.898461 93.514316 
L 143.202892 93.405425 
L 143.507324 92.230097 
L 143.811756 92.396451 
L 144.420619 94.4341 
L 144.72505 93.816958 
L 145.029482 96.043953 
L 145.333914 95.273093 
L 145.638345 96.531581 
L 145.942777 96.940121 
L 146.247208 96.365358 
L 146.55164 94.980213 
L 146.856071 97.187319 
L 147.160503 98.104173 
L 147.464935 98.048376 
L 147.769366 98.726296 
L 148.073798 97.746385 
L 148.378229 100.119205 
L 148.987093 99.223341 
L 149.291524 99.167522 
L 149.595956 97.913966 
L 149.900387 99.312341 
L 150.204819 98.051529 
L 150.509251 98.850949 
L 150.813682 98.025792 
L 151.118114 98.394504 
L 151.726977 96.580748 
L 152.031408 98.245794 
L 152.944703 98.797148 
L 153.249135 99.656551 
L 153.553566 97.55094 
L 153.857998 97.313137 
L 154.16243 95.544642 
L 154.466861 96.191926 
L 154.771293 97.399491 
L 155.075724 97.249087 
L 155.380156 97.889648 
L 155.684588 95.171372 
L 155.989019 94.892256 
L 156.293451 93.581423 
L 157.206746 94.242423 
L 157.511177 93.837871 
L 157.815609 92.871649 
L 158.12004 93.010573 
L 158.424472 93.784895 
L 158.728903 94.999374 
L 159.033335 95.08658 
L 159.642198 93.914143 
L 159.94663 93.934406 
L 160.251061 94.616935 
L 160.555493 94.450021 
L 160.859925 93.799716 
L 161.164356 93.841588 
L 161.468788 93.713794 
L 161.773219 93.88496 
L 162.077651 92.843777 
L 162.382083 93.342135 
L 162.686514 93.131128 
L 162.990946 92.682551 
L 163.295377 91.857426 
L 163.599809 90.156179 
L 164.208672 88.706521 
L 164.513104 90.378598 
L 164.817535 89.688945 
L 165.121967 87.080335 
L 165.73083 89.183778 
L 166.035262 89.4279 
L 166.339693 88.266451 
L 166.644125 87.66966 
L 166.948556 88.212286 
L 167.252988 88.253217 
L 167.861851 86.308849 
L 168.166283 83.546525 
L 168.470714 82.402773 
L 168.775146 82.000667 
L 169.079578 81.301548 
L 169.384009 81.698442 
L 169.688441 82.810448 
L 169.992872 82.614884 
L 170.297304 82.056977 
L 170.601736 83.64381 
L 171.210599 84.657827 
L 171.51503 84.355716 
L 171.819462 84.65194 
L 172.123893 84.145739 
L 172.428325 84.034157 
L 172.732757 82.828263 
L 173.037188 84.774348 
L 173.646051 81.277427 
L 173.950483 81.220202 
L 174.559346 79.790782 
L 174.863778 80.62929 
L 175.168209 80.442019 
L 175.472641 79.557013 
L 175.777073 79.204664 
L 176.081504 78.009013 
L 176.690367 77.809138 
L 176.994799 78.68235 
L 177.603662 79.619763 
L 177.908094 77.680143 
L 178.212525 77.40662 
L 178.516957 78.543252 
L 178.821388 78.089932 
L 179.12582 78.308295 
L 179.430252 81.781294 
L 179.734683 81.235565 
L 180.039115 83.001425 
L 180.343546 82.343547 
L 180.647978 83.436777 
L 180.95241 85.095306 
L 181.256841 84.533099 
L 181.561273 86.232423 
L 181.865704 86.740447 
L 182.170136 86.508011 
L 182.778999 84.964583 
L 183.083431 85.005846 
L 183.387862 85.952516 
L 183.692294 83.76459 
L 183.996725 84.453764 
L 184.301157 82.40257 
L 184.605589 82.91722 
L 185.214452 80.379652 
L 185.518883 81.568722 
L 185.823315 81.164663 
L 186.432178 79.508351 
L 186.73661 79.734599 
L 187.041041 79.391185 
L 187.345473 79.840059 
L 187.649905 81.172744 
L 187.954336 80.053643 
L 188.258768 80.69016 
L 188.563199 79.120982 
L 188.867631 78.435824 
L 189.172063 79.451017 
L 189.476494 79.634346 
L 189.780926 79.960047 
L 190.085357 80.950494 
L 190.389789 80.380226 
L 190.69422 80.924546 
L 190.998652 79.068849 
L 191.303084 78.08977 
L 191.607515 79.090796 
L 191.911947 79.112405 
L 192.216378 79.370296 
L 192.52081 81.149586 
L 193.434105 77.957723 
L 193.738536 78.477448 
L 194.042968 77.261707 
L 194.3474 77.500255 
L 194.651831 76.436726 
L 194.956263 74.375367 
L 195.260694 74.216022 
L 195.565126 75.829998 
L 195.869558 76.190405 
L 196.173989 75.461421 
L 196.478421 74.074077 
L 196.782852 75.363521 
L 197.087284 75.580229 
L 197.391715 75.314856 
L 197.696147 74.820139 
L 198.000579 73.784729 
L 198.30501 74.863374 
L 198.609442 75.344989 
L 198.913873 74.198645 
L 199.522737 73.242512 
L 199.827168 71.962699 
L 200.1316 71.844361 
L 200.436031 71.243871 
L 200.740463 71.60162 
L 201.349326 74.604355 
L 201.653758 74.519831 
L 201.958189 74.746789 
L 202.262621 75.491259 
L 202.567053 75.129586 
L 202.871484 76.142078 
L 203.175916 76.015456 
L 203.480347 76.037659 
L 203.784779 76.992965 
L 204.08921 79.606679 
L 204.393642 77.950193 
L 204.698074 77.590086 
L 205.002505 80.619955 
L 205.306937 81.104926 
L 205.611368 80.657077 
L 205.9158 80.916538 
L 206.220232 80.256537 
L 206.524663 81.363419 
L 206.829095 81.164204 
L 207.133526 81.22503 
L 207.74239 81.684596 
L 208.046821 81.457413 
L 208.351253 80.396643 
L 208.960116 81.462688 
L 209.264548 81.28008 
L 209.568979 81.416725 
L 209.873411 80.978185 
L 210.177842 80.161284 
L 210.482274 78.692835 
L 210.786705 78.825265 
L 211.091137 81.415201 
L 211.395569 81.494384 
L 211.7 81.091933 
L 212.004432 81.304554 
L 212.004432 81.304554 
" style="fill:none;stroke:#00bfbf;stroke-linecap:square;stroke-width:1.5;"/>
   </g>
   <g id="matplotlib.axis_1">
    <g id="xtick_1">
     <g id="line2d_2">
      <defs>
       <path d="M 0 0 
L 0 3.5 
" id="mb6c29c299b" style="stroke:#000000;stroke-width:0.8;"/>
      </defs>
      <g>
       <use style="stroke:#000000;stroke-width:0.8;" x="60.093068" xlink:href="#mb6c29c299b" y="104.3725"/>
      </g>
     </g>
     <g id="text_1">
      <!-- 0.0 -->
      <g transform="translate(50.551193 120.490625)scale(0.12 -0.12)">
       <defs>
        <path d="M 31.78125 66.40625 
Q 24.171875 66.40625 20.328125 58.90625 
Q 16.5 51.421875 16.5 36.375 
Q 16.5 21.390625 20.328125 13.890625 
Q 24.171875 6.390625 31.78125 6.390625 
Q 39.453125 6.390625 43.28125 13.890625 
Q 47.125 21.390625 47.125 36.375 
Q 47.125 51.421875 43.28125 58.90625 
Q 39.453125 66.40625 31.78125 66.40625 
z
M 31.78125 74.21875 
Q 44.046875 74.21875 50.515625 64.515625 
Q 56.984375 54.828125 56.984375 36.375 
Q 56.984375 17.96875 50.515625 8.265625 
Q 44.046875 -1.421875 31.78125 -1.421875 
Q 19.53125 -1.421875 13.0625 8.265625 
Q 6.59375 17.96875 6.59375 36.375 
Q 6.59375 54.828125 13.0625 64.515625 
Q 19.53125 74.21875 31.78125 74.21875 
z
" id="DejaVuSans-48"/>
        <path d="M 10.6875 12.40625 
L 21 12.40625 
L 21 0 
L 10.6875 0 
z
" id="DejaVuSans-46"/>
       </defs>
       <use xlink:href="#DejaVuSans-48"/>
       <use x="63.623047" xlink:href="#DejaVuSans-46"/>
       <use x="95.410156" xlink:href="#DejaVuSans-48"/>
      </g>
     </g>
    </g>
    <g id="xtick_2">
     <g id="line2d_3">
      <g>
       <use style="stroke:#000000;stroke-width:0.8;" x="120.979386" xlink:href="#mb6c29c299b" y="104.3725"/>
      </g>
     </g>
     <g id="text_2">
      <!-- 0.2 -->
      <g transform="translate(111.437511 120.490625)scale(0.12 -0.12)">
       <defs>
        <path d="M 19.1875 8.296875 
L 53.609375 8.296875 
L 53.609375 0 
L 7.328125 0 
L 7.328125 8.296875 
Q 12.9375 14.109375 22.625 23.890625 
Q 32.328125 33.6875 34.8125 36.53125 
Q 39.546875 41.84375 41.421875 45.53125 
Q 43.3125 49.21875 43.3125 52.78125 
Q 43.3125 58.59375 39.234375 62.25 
Q 35.15625 65.921875 28.609375 65.921875 
Q 23.96875 65.921875 18.8125 64.3125 
Q 13.671875 62.703125 7.8125 59.421875 
L 7.8125 69.390625 
Q 13.765625 71.78125 18.9375 73 
Q 24.125 74.21875 28.421875 74.21875 
Q 39.75 74.21875 46.484375 68.546875 
Q 53.21875 62.890625 53.21875 53.421875 
Q 53.21875 48.921875 51.53125 44.890625 
Q 49.859375 40.875 45.40625 35.40625 
Q 44.1875 33.984375 37.640625 27.21875 
Q 31.109375 20.453125 19.1875 8.296875 
z
" id="DejaVuSans-50"/>
       </defs>
       <use xlink:href="#DejaVuSans-48"/>
       <use x="63.623047" xlink:href="#DejaVuSans-46"/>
       <use x="95.410156" xlink:href="#DejaVuSans-50"/>
      </g>
     </g>
    </g>
    <g id="xtick_3">
     <g id="line2d_4">
      <g>
       <use style="stroke:#000000;stroke-width:0.8;" x="181.865704" xlink:href="#mb6c29c299b" y="104.3725"/>
      </g>
     </g>
     <g id="text_3">
      <!-- 0.4 -->
      <g transform="translate(172.323829 120.490625)scale(0.12 -0.12)">
       <defs>
        <path d="M 37.796875 64.3125 
L 12.890625 25.390625 
L 37.796875 25.390625 
z
M 35.203125 72.90625 
L 47.609375 72.90625 
L 47.609375 25.390625 
L 58.015625 25.390625 
L 58.015625 17.1875 
L 47.609375 17.1875 
L 47.609375 0 
L 37.796875 0 
L 37.796875 17.1875 
L 4.890625 17.1875 
L 4.890625 26.703125 
z
" id="DejaVuSans-52"/>
       </defs>
       <use xlink:href="#DejaVuSans-48"/>
       <use x="63.623047" xlink:href="#DejaVuSans-46"/>
       <use x="95.410156" xlink:href="#DejaVuSans-52"/>
      </g>
     </g>
    </g>
    <g id="text_4">
     <!-- Time (s) -->
     <g transform="translate(111.654062 136.104375)scale(0.12 -0.12)">
      <defs>
       <path d="M -0.296875 72.90625 
L 61.375 72.90625 
L 61.375 64.59375 
L 35.5 64.59375 
L 35.5 0 
L 25.59375 0 
L 25.59375 64.59375 
L -0.296875 64.59375 
z
" id="DejaVuSans-84"/>
       <path d="M 9.421875 54.6875 
L 18.40625 54.6875 
L 18.40625 0 
L 9.421875 0 
z
M 9.421875 75.984375 
L 18.40625 75.984375 
L 18.40625 64.59375 
L 9.421875 64.59375 
z
" id="DejaVuSans-105"/>
       <path d="M 52 44.1875 
Q 55.375 50.25 60.0625 53.125 
Q 64.75 56 71.09375 56 
Q 79.640625 56 84.28125 50.015625 
Q 88.921875 44.046875 88.921875 33.015625 
L 88.921875 0 
L 79.890625 0 
L 79.890625 32.71875 
Q 79.890625 40.578125 77.09375 44.375 
Q 74.3125 48.1875 68.609375 48.1875 
Q 61.625 48.1875 57.5625 43.546875 
Q 53.515625 38.921875 53.515625 30.90625 
L 53.515625 0 
L 44.484375 0 
L 44.484375 32.71875 
Q 44.484375 40.625 41.703125 44.40625 
Q 38.921875 48.1875 33.109375 48.1875 
Q 26.21875 48.1875 22.15625 43.53125 
Q 18.109375 38.875 18.109375 30.90625 
L 18.109375 0 
L 9.078125 0 
L 9.078125 54.6875 
L 18.109375 54.6875 
L 18.109375 46.1875 
Q 21.1875 51.21875 25.484375 53.609375 
Q 29.78125 56 35.6875 56 
Q 41.65625 56 45.828125 52.96875 
Q 50 49.953125 52 44.1875 
z
" id="DejaVuSans-109"/>
       <path d="M 56.203125 29.59375 
L 56.203125 25.203125 
L 14.890625 25.203125 
Q 15.484375 15.921875 20.484375 11.0625 
Q 25.484375 6.203125 34.421875 6.203125 
Q 39.59375 6.203125 44.453125 7.46875 
Q 49.3125 8.734375 54.109375 11.28125 
L 54.109375 2.78125 
Q 49.265625 0.734375 44.1875 -0.34375 
Q 39.109375 -1.421875 33.890625 -1.421875 
Q 20.796875 -1.421875 13.15625 6.1875 
Q 5.515625 13.8125 5.515625 26.8125 
Q 5.515625 40.234375 12.765625 48.109375 
Q 20.015625 56 32.328125 56 
Q 43.359375 56 49.78125 48.890625 
Q 56.203125 41.796875 56.203125 29.59375 
z
M 47.21875 32.234375 
Q 47.125 39.59375 43.09375 43.984375 
Q 39.0625 48.390625 32.421875 48.390625 
Q 24.90625 48.390625 20.390625 44.140625 
Q 15.875 39.890625 15.1875 32.171875 
z
" id="DejaVuSans-101"/>
       <path id="DejaVuSans-32"/>
       <path d="M 31 75.875 
Q 24.46875 64.65625 21.28125 53.65625 
Q 18.109375 42.671875 18.109375 31.390625 
Q 18.109375 20.125 21.3125 9.0625 
Q 24.515625 -2 31 -13.1875 
L 23.1875 -13.1875 
Q 15.875 -1.703125 12.234375 9.375 
Q 8.59375 20.453125 8.59375 31.390625 
Q 8.59375 42.28125 12.203125 53.3125 
Q 15.828125 64.359375 23.1875 75.875 
z
" id="DejaVuSans-40"/>
       <path d="M 44.28125 53.078125 
L 44.28125 44.578125 
Q 40.484375 46.53125 36.375 47.5 
Q 32.28125 48.484375 27.875 48.484375 
Q 21.1875 48.484375 17.84375 46.4375 
Q 14.5 44.390625 14.5 40.28125 
Q 14.5 37.15625 16.890625 35.375 
Q 19.28125 33.59375 26.515625 31.984375 
L 29.59375 31.296875 
Q 39.15625 29.25 43.1875 25.515625 
Q 47.21875 21.78125 47.21875 15.09375 
Q 47.21875 7.46875 41.1875 3.015625 
Q 35.15625 -1.421875 24.609375 -1.421875 
Q 20.21875 -1.421875 15.453125 -0.5625 
Q 10.6875 0.296875 5.421875 2 
L 5.421875 11.28125 
Q 10.40625 8.6875 15.234375 7.390625 
Q 20.0625 6.109375 24.8125 6.109375 
Q 31.15625 6.109375 34.5625 8.28125 
Q 37.984375 10.453125 37.984375 14.40625 
Q 37.984375 18.0625 35.515625 20.015625 
Q 33.0625 21.96875 24.703125 23.78125 
L 21.578125 24.515625 
Q 13.234375 26.265625 9.515625 29.90625 
Q 5.8125 33.546875 5.8125 39.890625 
Q 5.8125 47.609375 11.28125 51.796875 
Q 16.75 56 26.8125 56 
Q 31.78125 56 36.171875 55.265625 
Q 40.578125 54.546875 44.28125 53.078125 
z
" id="DejaVuSans-115"/>
       <path d="M 8.015625 75.875 
L 15.828125 75.875 
Q 23.140625 64.359375 26.78125 53.3125 
Q 30.421875 42.28125 30.421875 31.390625 
Q 30.421875 20.453125 26.78125 9.375 
Q 23.140625 -1.703125 15.828125 -13.1875 
L 8.015625 -13.1875 
Q 14.5 -2 17.703125 9.0625 
Q 20.90625 20.125 20.90625 31.390625 
Q 20.90625 42.671875 17.703125 53.65625 
Q 14.5 64.65625 8.015625 75.875 
z
" id="DejaVuSans-41"/>
      </defs>
      <use xlink:href="#DejaVuSans-84"/>
      <use x="57.958984" xlink:href="#DejaVuSans-105"/>
      <use x="85.742188" xlink:href="#DejaVuSans-109"/>
      <use x="183.154297" xlink:href="#DejaVuSans-101"/>
      <use x="244.677734" xlink:href="#DejaVuSans-32"/>
      <use x="276.464844" xlink:href="#DejaVuSans-40"/>
      <use x="315.478516" xlink:href="#DejaVuSans-115"/>
      <use x="367.578125" xlink:href="#DejaVuSans-41"/>
     </g>
    </g>
   </g>
   <g id="matplotlib.axis_2">
    <g id="ytick_1">
     <g id="line2d_5">
      <defs>
       <path d="M 0 0 
L -3.5 0 
" id="mfb3c26b99c" style="stroke:#000000;stroke-width:0.8;"/>
      </defs>
      <g>
       <use style="stroke:#000000;stroke-width:0.8;" x="52.4975" xlink:href="#mfb3c26b99c" y="95.058904"/>
      </g>
     </g>
     <g id="text_5">
      <!-- 0.0 -->
      <g transform="translate(26.41375 99.617967)scale(0.12 -0.12)">
       <use xlink:href="#DejaVuSans-48"/>
       <use x="63.623047" xlink:href="#DejaVuSans-46"/>
       <use x="95.410156" xlink:href="#DejaVuSans-48"/>
      </g>
     </g>
    </g>
    <g id="ytick_2">
     <g id="line2d_6">
      <g>
       <use style="stroke:#000000;stroke-width:0.8;" x="52.4975" xlink:href="#mfb3c26b99c" y="49.567528"/>
      </g>
     </g>
     <g id="text_6">
      <!-- 0.2 -->
      <g transform="translate(26.41375 54.126591)scale(0.12 -0.12)">
       <use xlink:href="#DejaVuSans-48"/>
       <use x="63.623047" xlink:href="#DejaVuSans-46"/>
       <use x="95.410156" xlink:href="#DejaVuSans-50"/>
      </g>
     </g>
    </g>
    <g id="text_7">
     <!-- x -->
     <g transform="translate(19.918125 61.1375)rotate(-90)scale(0.12 -0.12)">
      <defs>
       <path d="M 54.890625 54.6875 
L 35.109375 28.078125 
L 55.90625 0 
L 45.3125 0 
L 29.390625 21.484375 
L 13.484375 0 
L 2.875 0 
L 24.125 28.609375 
L 4.6875 54.6875 
L 15.28125 54.6875 
L 29.78125 35.203125 
L 44.28125 54.6875 
z
" id="DejaVuSans-120"/>
      </defs>
      <use xlink:href="#DejaVuSans-120"/>
     </g>
    </g>
   </g>
   <g id="line2d_7">
    <path clip-path="url(#p49cb4fef4e)" d="M 60.093068 95.058904 
L 60.3975 94.993941 
L 60.701931 95.909751 
L 61.310795 96.34109 
L 61.615226 95.997591 
L 61.919658 96.544911 
L 62.224089 96.294311 
L 62.528521 96.854457 
L 62.832952 96.042488 
L 63.137384 94.017787 
L 63.746247 93.820902 
L 64.050679 95.268511 
L 64.35511 94.458995 
L 64.963974 96.268792 
L 65.268405 95.513836 
L 65.572837 95.26245 
L 66.1817 92.449559 
L 66.486132 93.324265 
L 66.790563 93.351728 
L 67.094995 91.520353 
L 67.399426 90.774978 
L 67.703858 90.392431 
L 68.00829 89.37355 
L 68.312721 90.629691 
L 68.617153 90.348636 
L 69.226016 87.957699 
L 69.530447 89.584681 
L 69.834879 90.418329 
L 70.139311 90.44713 
L 70.748174 92.064779 
L 71.052605 91.586287 
L 71.357037 92.335476 
L 71.661469 94.641185 
L 71.9659 94.271433 
L 72.270332 94.832949 
L 72.574763 95.687504 
L 72.879195 97.405333 
L 73.183627 96.017686 
L 73.79249 100.047717 
L 74.096921 99.862552 
L 74.705785 96.202446 
L 75.010216 97.401635 
L 75.314648 97.36938 
L 75.619079 98.856151 
L 75.923511 97.326397 
L 76.227942 98.778919 
L 76.532374 98.569772 
L 76.836806 97.043889 
L 77.141237 97.098338 
L 77.445669 95.222404 
L 77.7501 96.195501 
L 78.054532 95.661967 
L 78.358964 94.631236 
L 78.663395 94.832895 
L 78.967827 93.278862 
L 79.272258 92.833487 
L 79.57669 94.918275 
L 79.881122 90.430281 
L 80.185553 90.155451 
L 80.489985 90.523716 
L 80.794416 92.568083 
L 81.098848 92.724172 
L 81.40328 93.480731 
L 81.707711 92.905735 
L 82.012143 92.698357 
L 82.316574 90.827013 
L 82.621006 91.088422 
L 82.925437 90.901468 
L 83.229869 90.893622 
L 83.838732 92.045592 
L 84.143164 91.094773 
L 84.447595 90.604073 
L 85.056459 93.361053 
L 85.36089 93.607503 
L 85.665322 92.431755 
L 85.969753 92.725779 
L 86.274185 90.972898 
L 86.578617 92.262974 
L 86.883048 92.381481 
L 87.18748 95.510977 
L 87.491911 96.143213 
L 87.796343 96.386341 
L 88.100775 95.672516 
L 88.405206 93.665646 
L 88.709638 93.765231 
L 89.014069 92.24108 
L 89.318501 91.770343 
L 89.622932 90.977436 
L 89.927364 91.915734 
L 90.231796 90.654922 
L 90.536227 92.315586 
L 90.840659 92.026781 
L 91.14509 93.412759 
L 91.449522 94.166652 
L 91.753954 95.917909 
L 92.058385 96.419243 
L 92.362817 95.883889 
L 92.667248 95.879602 
L 92.97168 97.330325 
L 93.276112 95.430533 
L 93.580543 95.009854 
L 94.189406 93.094336 
L 94.493838 94.046936 
L 94.798269 96.360205 
L 95.102701 97.271173 
L 95.407133 95.656595 
L 95.711564 96.795008 
L 96.015996 95.693323 
L 96.320427 96.326362 
L 96.624859 95.75254 
L 96.929291 97.757492 
L 97.233722 96.160337 
L 97.538154 96.095308 
L 97.842585 94.984232 
L 98.147017 94.775772 
L 98.451449 93.89646 
L 98.75588 94.12863 
L 99.060312 93.37625 
L 99.669175 96.470162 
L 99.973607 95.503966 
L 100.278038 95.504016 
L 100.886901 95.857858 
L 101.191333 95.207358 
L 101.495764 95.867314 
L 101.800196 95.206108 
L 102.104628 96.232903 
L 102.409059 96.578665 
L 103.017922 94.063438 
L 103.322354 95.410762 
L 103.626786 94.42181 
L 103.931217 95.667365 
L 104.235649 94.772863 
L 104.54008 96.960956 
L 104.844512 98.041224 
L 105.148944 98.321838 
L 105.453375 98.184887 
L 105.757807 96.253234 
L 106.062238 95.105697 
L 106.671102 92.11197 
L 107.279965 93.264304 
L 107.584396 92.228039 
L 107.888828 92.465212 
L 108.193259 92.903127 
L 108.497691 94.63721 
L 108.802123 94.800455 
L 109.106554 98.000457 
L 109.410986 98.225037 
L 109.715417 99.022838 
L 110.019849 97.83879 
L 110.324281 98.105188 
L 110.628712 98.174785 
L 110.933144 96.331155 
L 111.237575 97.397018 
L 111.542007 96.803076 
L 111.846439 98.784116 
L 112.15087 98.309547 
L 112.455302 97.517894 
L 112.759733 96.294077 
L 113.064165 97.192618 
L 113.673028 96.098194 
L 113.97746 96.016137 
L 114.281891 95.749803 
L 114.890754 94.691575 
L 115.499618 97.140875 
L 116.108481 91.99694 
L 116.412912 93.885888 
L 117.021776 92.934364 
L 117.326207 92.292334 
L 117.630639 92.409321 
L 117.93507 93.728396 
L 118.239502 94.068911 
L 118.543934 94.726459 
L 118.848365 94.606883 
L 119.152797 94.9573 
L 119.457228 95.117213 
L 120.066092 92.664094 
L 120.370523 94.246825 
L 120.674955 94.851105 
L 120.979386 95.771249 
L 121.283818 94.308294 
L 121.588249 94.450874 
L 121.892681 92.863764 
L 122.197113 93.626423 
L 122.501544 93.740102 
L 122.805976 95.405833 
L 123.110407 93.889787 
L 123.414839 94.419092 
L 123.719271 96.172118 
L 124.023702 96.734594 
L 124.328134 99.188361 
L 124.936997 98.3084 
L 125.241429 97.655824 
L 125.54586 95.692357 
L 125.850292 95.971307 
L 126.154723 94.96176 
L 126.459155 94.61637 
L 126.763586 94.880485 
L 127.068018 97.260242 
L 127.37245 95.962529 
L 127.676881 96.445329 
L 127.981313 96.286265 
L 128.285744 97.608404 
L 128.590176 97.031608 
L 129.199039 96.512762 
L 129.503471 96.520675 
L 130.112334 94.070137 
L 130.416766 93.34344 
L 130.721197 89.737975 
L 131.634492 93.275452 
L 131.938924 92.957957 
L 132.243355 93.949921 
L 132.547787 97.129624 
L 132.852218 98.302462 
L 133.15665 97.895936 
L 133.461081 96.463817 
L 133.765513 98.094011 
L 134.069945 98.487021 
L 134.374376 98.302692 
L 134.678808 98.806868 
L 134.983239 97.827987 
L 135.287671 97.546529 
L 135.592103 96.932396 
L 135.896534 97.569822 
L 136.200966 95.571251 
L 136.505397 95.520443 
L 136.809829 94.003156 
L 137.114261 94.607996 
L 137.418692 93.982044 
L 138.331987 96.674077 
L 138.636419 96.564723 
L 138.94085 96.662903 
L 139.245282 94.751987 
L 139.854145 97.226089 
L 140.158576 95.075773 
L 140.463008 94.381726 
L 140.76744 96.589143 
L 141.071871 95.870583 
L 141.376303 95.5195 
L 141.680734 97.912284 
L 141.985166 98.047243 
L 142.289598 97.768261 
L 142.898461 95.419318 
L 143.202892 95.274386 
L 143.507324 94.07751 
L 143.811756 94.342004 
L 144.420619 96.418341 
L 144.72505 95.665256 
L 145.029482 97.831616 
L 145.333914 96.783484 
L 145.638345 97.869515 
L 145.942777 97.996994 
L 146.247208 97.128422 
L 146.55164 95.536325 
L 146.856071 97.695689 
L 147.160503 98.348864 
L 147.464935 97.964071 
L 147.769366 98.351474 
L 148.073798 97.042307 
L 148.378229 99.216786 
L 148.987093 97.572072 
L 149.291524 97.264937 
L 149.595956 95.790777 
L 149.900387 97.115965 
L 150.204819 95.649447 
L 150.509251 96.389813 
L 150.813682 95.431565 
L 151.118114 95.763011 
L 151.726977 93.908089 
L 152.031408 95.688215 
L 152.944703 96.025131 
L 153.249135 96.787912 
L 153.553566 94.5094 
L 153.857998 94.326548 
L 154.16243 92.631288 
L 154.466861 93.521333 
L 154.771293 94.882655 
L 155.075724 94.749877 
L 155.380156 95.42134 
L 155.684588 92.666821 
L 155.989019 92.626913 
L 156.293451 91.559279 
L 156.902314 92.82455 
L 157.206746 93.083141 
L 157.511177 92.876166 
L 157.815609 92.128218 
L 158.12004 92.56021 
L 158.728903 94.946331 
L 159.033335 95.044795 
L 159.642198 93.9402 
L 159.94663 94.072334 
L 160.251061 94.853519 
L 160.555493 94.707144 
L 160.859925 94.092015 
L 161.164356 94.230576 
L 161.468788 94.185614 
L 161.773219 94.444109 
L 162.077651 93.464406 
L 162.382083 94.122214 
L 162.686514 94.004876 
L 162.990946 93.661702 
L 163.295377 92.976297 
L 163.599809 91.483311 
L 164.208672 90.789833 
L 164.513104 92.888818 
L 164.817535 92.416173 
L 165.121967 90.071837 
L 165.73083 93.028426 
L 166.035262 93.475597 
L 166.339693 92.472478 
L 166.644125 92.13433 
L 166.948556 92.969413 
L 167.252988 93.219293 
L 167.55742 92.223846 
L 167.861851 91.742392 
L 168.166283 89.311719 
L 168.470714 88.742686 
L 168.775146 88.972201 
L 169.079578 88.881753 
L 169.384009 89.896362 
L 169.688441 91.524623 
L 169.992872 91.682487 
L 170.297304 91.462221 
L 170.601736 93.408723 
L 171.210599 94.676867 
L 171.51503 94.41296 
L 171.819462 94.773779 
L 172.123893 94.29609 
L 172.428325 94.260789 
L 172.732757 93.134707 
L 173.037188 95.273211 
L 173.646051 91.924034 
L 173.950483 92.180297 
L 174.559346 91.371772 
L 174.863778 92.578993 
L 175.168209 92.639713 
L 175.472641 91.996627 
L 175.777073 91.950505 
L 176.081504 91.065694 
L 176.690367 91.635333 
L 176.994799 92.850902 
L 177.603662 94.166377 
L 177.908094 92.31601 
L 178.212525 92.316776 
L 178.516957 93.727621 
L 178.821388 93.40743 
L 179.12582 93.79094 
L 179.430252 97.390735 
L 179.734683 96.611823 
L 180.039115 98.222391 
L 180.343546 97.248164 
L 180.647978 98.122468 
L 180.95241 99.474642 
L 181.256841 98.470861 
L 181.561273 99.828988 
L 181.865704 99.860004 
L 182.170136 99.147459 
L 182.778999 96.896834 
L 183.083431 96.754303 
L 183.387862 97.531433 
L 183.692294 95.096255 
L 183.996725 95.781693 
L 184.301157 93.658221 
L 184.605589 94.312938 
L 185.214452 92.049176 
L 185.518883 93.539219 
L 185.823315 93.287128 
L 186.432178 92.053363 
L 186.73661 92.580166 
L 187.041041 92.484625 
L 187.345473 93.190927 
L 187.649905 94.71041 
L 187.954336 93.626158 
L 188.258768 94.405949 
L 188.563199 92.902067 
L 188.867631 92.432593 
L 189.172063 93.710417 
L 189.780926 94.457326 
L 190.085357 95.507931 
L 190.389789 94.89276 
L 190.69422 95.453695 
L 190.998652 93.558519 
L 191.303084 92.729479 
L 191.607515 93.963447 
L 191.911947 94.094602 
L 192.216378 94.448923 
L 192.52081 96.289211 
L 193.434105 93.073184 
L 193.738536 93.791482 
L 194.042968 92.702483 
L 194.3474 93.176674 
L 194.651831 92.301368 
L 194.956263 90.515762 
L 195.260694 90.810731 
L 195.565126 92.849524 
L 195.869558 93.430869 
L 196.173989 92.864689 
L 196.478421 91.696767 
L 196.782852 93.322424 
L 197.087284 93.71278 
L 197.391715 93.58202 
L 197.696147 93.234991 
L 198.000579 92.381972 
L 198.30501 93.728311 
L 198.609442 94.342985 
L 198.913873 93.268233 
L 199.522737 92.696947 
L 199.827168 91.65333 
L 200.1316 91.875549 
L 200.436031 91.593395 
L 200.740463 92.297694 
L 201.349326 95.672094 
L 201.653758 95.526251 
L 201.958189 95.706474 
L 202.262621 96.386187 
L 202.567053 95.891786 
L 202.871484 96.82099 
L 203.175916 96.518159 
L 203.480347 96.394436 
L 203.784779 97.216189 
L 204.08921 99.614174 
L 204.393642 97.502162 
L 204.698074 96.897729 
L 205.002505 99.743716 
L 205.306937 99.760205 
L 205.611368 98.842226 
L 205.9158 98.723355 
L 206.220232 97.69691 
L 206.524663 98.539991 
L 206.829095 97.992667 
L 207.133526 97.760117 
L 207.74239 97.685633 
L 208.046821 97.195777 
L 208.351253 95.92132 
L 208.960116 96.763216 
L 209.264548 96.410177 
L 209.568979 96.411694 
L 209.873411 95.837876 
L 210.177842 94.943078 
L 210.482274 93.486211 
L 210.786705 93.775911 
L 211.091137 96.494146 
L 211.395569 96.429804 
L 211.7 95.890263 
L 212.004432 96.019748 
L 212.004432 96.019748 
" style="fill:none;stroke:#808080;stroke-linecap:square;stroke-width:0.75;"/>
   </g>
   <g id="line2d_8">
    <path clip-path="url(#p49cb4fef4e)" d="M 60.093068 95.058904 
L 60.3975 95.063 
L 60.701931 96.041449 
L 61.310795 96.84348 
L 61.615226 96.727115 
L 61.919658 97.464928 
L 62.224089 97.470101 
L 62.528521 98.260991 
L 62.832952 97.736871 
L 63.137384 95.918739 
L 63.746247 95.665136 
L 64.050679 97.068058 
L 64.35511 96.382374 
L 64.963974 98.360558 
L 65.268405 97.834893 
L 65.572837 97.737337 
L 66.1817 95.039238 
L 66.486132 95.721699 
L 66.790563 95.655634 
L 67.094995 93.732515 
L 68.00829 90.424184 
L 68.312721 91.136259 
L 68.617153 90.440828 
L 69.226016 87.002228 
L 69.530447 87.844357 
L 69.834879 88.068789 
L 70.139311 87.578416 
L 70.748174 88.223802 
L 71.052605 87.396911 
L 71.357037 87.72928 
L 71.661469 89.698311 
L 71.9659 89.294923 
L 72.270332 89.77629 
L 72.574763 90.618041 
L 72.879195 92.426347 
L 73.183627 91.295309 
L 73.79249 95.832021 
L 74.096921 96.227249 
L 74.705785 93.493767 
L 75.010216 94.843289 
L 75.314648 95.11019 
L 75.619079 96.898019 
L 75.923511 95.847937 
L 76.227942 97.608948 
L 76.532374 97.879675 
L 76.836806 96.813242 
L 77.141237 97.164519 
L 77.445669 95.596791 
L 77.7501 96.664339 
L 78.054532 96.339835 
L 78.358964 95.45865 
L 78.663395 95.693516 
L 78.967827 94.19641 
L 79.272258 93.624296 
L 79.57669 95.525293 
L 79.881122 91.100251 
L 80.185553 90.391308 
L 80.489985 90.29303 
L 80.794416 91.905525 
L 81.098848 91.835458 
L 81.40328 92.381869 
L 81.707711 91.67093 
L 82.012143 91.27267 
L 82.316574 89.192875 
L 82.621006 89.02663 
L 83.229869 87.969688 
L 83.838732 88.234058 
L 84.447595 85.970477 
L 84.752027 86.588981 
L 85.056459 87.773009 
L 85.36089 87.786245 
L 85.665322 86.402217 
L 85.969753 86.346936 
L 86.274185 84.2728 
L 86.578617 85.015249 
L 86.883048 84.732442 
L 87.18748 87.464763 
L 87.491911 88.073551 
L 87.796343 88.370163 
L 88.100775 87.746926 
L 88.405206 85.73744 
L 88.709638 85.594686 
L 89.014069 83.834703 
L 89.318501 82.940086 
L 89.622932 81.690998 
L 89.927364 82.146162 
L 90.231796 80.474417 
L 90.536227 81.680543 
L 90.840659 81.042936 
L 91.14509 82.083338 
L 91.449522 82.578866 
L 91.753954 84.126065 
L 92.058385 84.572491 
L 92.362817 84.039827 
L 92.667248 83.976528 
L 92.97168 85.367465 
L 93.276112 83.58266 
L 93.580543 83.058451 
L 94.189406 80.808827 
L 94.493838 81.534382 
L 94.798269 83.679253 
L 95.102701 84.578844 
L 95.407133 83.052294 
L 95.711564 84.119915 
L 96.015996 83.050974 
L 96.320427 83.616931 
L 96.624859 83.028833 
L 96.929291 84.973237 
L 97.233722 83.523045 
L 97.538154 83.428137 
L 97.842585 82.282003 
L 98.147017 81.963434 
L 98.451449 80.967648 
L 98.75588 81.045012 
L 99.060312 80.157136 
L 99.669175 83.019943 
L 99.973607 82.065211 
L 100.278038 82.016853 
L 100.886901 82.292189 
L 101.191333 81.618501 
L 101.495764 82.221904 
L 101.800196 81.541533 
L 102.104628 82.51549 
L 102.409059 82.866294 
L 103.017922 80.33126 
L 103.322354 81.571748 
L 103.626786 80.548913 
L 103.931217 81.713004 
L 104.235649 80.803278 
L 104.54008 82.932455 
L 104.844512 84.075835 
L 105.148944 84.513433 
L 105.453375 84.568119 
L 106.36667 79.798742 
L 106.671102 78.443379 
L 107.279965 79.1875 
L 107.584396 78.013381 
L 107.888828 78.041128 
L 108.193259 78.292981 
L 108.497691 79.880397 
L 108.802123 80.014804 
L 109.106554 83.196309 
L 109.410986 83.58085 
L 109.715417 84.554589 
L 110.019849 83.633184 
L 110.628712 84.269103 
L 110.933144 82.597981 
L 111.237575 83.675505 
L 111.542007 83.173893 
L 111.846439 85.195681 
L 112.15087 84.976909 
L 112.455302 84.387527 
L 112.759733 83.272459 
L 113.064165 84.158652 
L 113.673028 83.151473 
L 113.97746 83.040216 
L 114.281891 82.739376 
L 114.890754 81.544835 
L 115.499618 83.853878 
L 116.108481 78.645171 
L 116.412912 80.287807 
L 117.021776 79.07508 
L 117.326207 78.266323 
L 117.630639 78.176122 
L 117.93507 79.301441 
L 118.239502 79.546187 
L 118.543934 80.132274 
L 118.848365 79.981456 
L 119.152797 80.295517 
L 119.457228 80.439671 
L 120.066092 77.907862 
L 120.370523 79.325849 
L 120.674955 79.885257 
L 120.979386 80.797739 
L 121.283818 79.375984 
L 121.588249 79.47788 
L 121.892681 77.860283 
L 122.197113 78.478505 
L 122.501544 78.513445 
L 122.805976 80.110885 
L 123.110407 78.632515 
L 123.414839 79.105163 
L 123.719271 80.838847 
L 124.023702 81.480554 
L 124.328134 84.037389 
L 124.632565 83.932049 
L 124.936997 83.662107 
L 125.241429 83.193093 
L 125.54586 81.355198 
L 125.850292 81.639314 
L 126.154723 80.648576 
L 126.459155 80.270834 
L 126.763586 80.486258 
L 127.068018 82.833461 
L 127.37245 81.631933 
L 127.676881 82.133031 
L 127.981313 82.016589 
L 128.285744 83.370807 
L 128.590176 82.911213 
L 129.199039 82.510498 
L 129.503471 82.551637 
L 130.112334 80.093151 
L 130.416766 79.271372 
L 130.721197 75.532797 
L 131.634492 77.918417 
L 131.938924 77.497226 
L 132.243355 78.353421 
L 132.547787 81.4898 
L 132.852218 82.804745 
L 133.15665 82.599582 
L 133.461081 81.335541 
L 133.765513 83.049041 
L 134.069945 83.61509 
L 134.374376 83.632569 
L 134.678808 84.319968 
L 134.983239 83.577579 
L 135.287671 83.432389 
L 135.592103 82.928254 
L 135.896534 83.626065 
L 136.200966 81.737486 
L 136.505397 81.660639 
L 136.809829 80.116018 
L 137.114261 80.618032 
L 137.418692 79.925854 
L 138.331987 82.488018 
L 138.636419 82.42892 
L 138.94085 82.568822 
L 139.245282 80.70386 
L 139.854145 83.135749 
L 140.158576 81.069411 
L 140.463008 80.333348 
L 140.76744 82.46566 
L 141.071871 81.789763 
L 141.376303 81.440021 
L 141.680734 83.816403 
L 141.985166 84.094627 
L 142.289598 83.973384 
L 142.898461 81.785083 
L 143.202892 81.596593 
L 143.507324 80.350958 
L 143.811756 80.509089 
L 144.420619 82.467025 
L 144.72505 81.739468 
L 145.029482 83.889093 
L 145.333914 82.976141 
L 145.638345 84.106228 
L 145.942777 84.373775 
L 146.247208 83.661616 
L 146.55164 82.135087 
L 146.856071 84.24608 
L 147.160503 85.023529 
L 147.464935 84.846242 
L 147.769366 85.397757 
L 148.073798 84.306471 
L 148.378229 86.540773 
L 148.987093 85.466094 
L 149.291524 85.300634 
L 149.595956 83.933173 
L 149.900387 85.189541 
L 150.204819 83.811837 
L 150.509251 84.469191 
L 150.813682 83.508454 
L 151.118114 83.737326 
L 151.726977 81.663507 
L 152.031408 83.254924 
L 152.944703 83.398768 
L 153.249135 84.119946 
L 153.553566 81.873468 
L 153.857998 81.551791 
L 154.16243 79.715224 
L 154.466861 80.382984 
L 154.771293 81.5808 
L 155.075724 81.360876 
L 155.380156 81.94297 
L 155.684588 79.137502 
L 155.989019 78.901843 
L 156.293451 77.642774 
L 157.206746 78.519297 
L 157.511177 78.178177 
L 157.815609 77.28312 
L 158.12004 77.493031 
L 158.424472 78.341635 
L 158.728903 79.623956 
L 159.033335 79.735484 
L 159.642198 78.627359 
L 159.94663 78.708027 
L 160.251061 79.448553 
L 160.555493 79.313135 
L 160.859925 78.69966 
L 161.164356 78.799785 
L 161.468788 78.727111 
L 161.773219 78.955689 
L 162.077651 77.964436 
L 162.382083 78.537008 
L 162.686514 78.388953 
L 162.990946 78.007118 
L 163.295377 77.255729 
L 163.599809 75.624896 
L 164.208672 74.217801 
L 164.513104 75.907207 
L 164.817535 75.24824 
L 165.121967 72.659493 
L 165.73083 74.795795 
L 166.035262 75.057357 
L 166.339693 73.914341 
L 166.644125 73.335106 
L 166.948556 73.895318 
L 167.252988 73.953817 
L 167.861851 72.043004 
L 168.166283 69.288529 
L 168.470714 68.084237 
L 168.775146 67.587411 
L 169.079578 66.784658 
L 169.384009 67.070517 
L 169.688441 68.073392 
L 169.992872 67.782875 
L 170.297304 67.124396 
L 170.601736 68.602524 
L 171.210599 69.468597 
L 171.51503 69.111862 
L 171.819462 69.341801 
L 172.123893 68.776807 
L 172.428325 68.58852 
L 172.732757 67.300479 
L 173.037188 69.139458 
L 173.646051 65.468986 
L 173.950483 65.300671 
L 174.559346 63.674252 
L 174.863778 64.442586 
L 175.168209 64.166948 
L 175.472641 63.200435 
L 175.777073 62.78773 
L 176.081504 61.540386 
L 176.690367 61.310132 
L 176.994799 62.173589 
L 177.603662 63.028341 
L 177.908094 61.031893 
L 178.212525 60.757658 
L 178.516957 61.90231 
L 178.821388 61.420463 
L 179.12582 61.625485 
L 179.430252 65.078552 
L 179.734683 64.428925 
L 180.039115 66.106763 
L 180.343546 65.334444 
L 180.647978 66.318701 
L 180.95241 67.863608 
L 181.256841 67.202264 
L 181.561273 68.793546 
L 181.865704 69.225364 
L 182.170136 68.930323 
L 182.778999 67.221869 
L 183.083431 67.155267 
L 183.387862 67.993487 
L 183.692294 65.708939 
L 183.996725 66.284449 
L 184.301157 64.11947 
L 184.605589 64.553763 
L 185.214452 61.865852 
L 185.518883 63.027499 
L 185.823315 62.566628 
L 186.432178 60.842655 
L 186.73661 61.07425 
L 187.041041 60.728754 
L 187.345473 61.186549 
L 187.649905 62.513505 
L 187.954336 61.349086 
L 188.258768 61.97458 
L 188.563199 60.374715 
L 188.867631 59.70909 
L 189.172063 60.760783 
L 189.476494 60.952034 
L 189.780926 61.279594 
L 190.085357 62.261281 
L 190.389789 61.652194 
L 190.69422 62.175735 
L 190.998652 60.283565 
L 191.303084 59.326598 
L 191.607515 60.371663 
L 191.911947 60.412892 
L 192.216378 60.689215 
L 192.52081 62.478652 
L 193.434105 59.25259 
L 193.738536 59.817611 
L 194.042968 58.635921 
L 194.3474 58.927459 
L 194.651831 57.913929 
L 194.956263 55.90659 
L 195.260694 55.775125 
L 195.565126 57.414812 
L 195.869558 57.82476 
L 196.173989 57.149244 
L 196.478421 55.808127 
L 196.782852 57.123834 
L 197.087284 57.386432 
L 197.391715 57.170267 
L 197.696147 56.722054 
L 198.000579 55.726893 
L 198.30501 56.830437 
L 198.609442 57.353869 
L 198.913873 56.256343 
L 199.522737 55.360395 
L 199.827168 54.099089 
L 200.1316 53.982708 
L 200.436031 53.383572 
L 200.740463 53.7428 
L 201.349326 56.763268 
L 201.653758 56.719593 
L 201.958189 56.986764 
L 202.262621 57.77526 
L 202.567053 57.466692 
L 202.871484 58.529318 
L 203.175916 58.456447 
L 203.480347 58.53281 
L 203.784779 59.541846 
L 204.08921 62.195569 
L 204.393642 60.50206 
L 204.698074 60.15777 
L 205.002505 63.213187 
L 205.306937 63.637544 
L 205.611368 63.12031 
L 205.9158 63.321049 
L 206.220232 62.598242 
L 206.524663 63.657764 
L 206.829095 63.38873 
L 207.133526 63.385367 
L 207.74239 63.713716 
L 208.046821 63.415502 
L 208.351253 62.289995 
L 208.960116 63.263321 
L 209.264548 63.01908 
L 209.568979 63.099088 
L 209.873411 62.602261 
L 210.177842 61.737906 
L 210.482274 60.245981 
L 210.786705 60.401564 
L 211.091137 63.01026 
L 211.395569 63.03299 
L 211.7 62.573613 
L 212.004432 62.739461 
L 212.004432 62.739461 
" style="fill:none;stroke:#1f77b4;stroke-linecap:square;stroke-width:1.5;"/>
   </g>
   <g id="line2d_9">
    <path clip-path="url(#p49cb4fef4e)" d="M 52.4975 95.058904 
L 219.6 95.058904 
" style="fill:none;stroke:#808080;stroke-dasharray:2.775,1.2;stroke-dashoffset:0;stroke-width:0.75;"/>
   </g>
   <g id="patch_3">
    <path d="M 52.4975 104.3725 
L 52.4975 10.8 
" style="fill:none;stroke:#000000;stroke-linecap:square;stroke-linejoin:miter;stroke-width:0.8;"/>
   </g>
   <g id="patch_4">
    <path d="M 219.6 104.3725 
L 219.6 10.8 
" style="fill:none;stroke:#000000;stroke-linecap:square;stroke-linejoin:miter;stroke-width:0.8;"/>
   </g>
   <g id="patch_5">
    <path d="M 52.4975 104.3725 
L 219.6 104.3725 
" style="fill:none;stroke:#000000;stroke-linecap:square;stroke-linejoin:miter;stroke-width:0.8;"/>
   </g>
   <g id="patch_6">
    <path d="M 52.4975 10.8 
L 219.6 10.8 
" style="fill:none;stroke:#000000;stroke-linecap:square;stroke-linejoin:miter;stroke-width:0.8;"/>
   </g>
  </g>
  <g id="axes_2">
   <g id="patch_7">
    <path d="M 52.4975 242.9725 
L 219.6 242.9725 
L 219.6 149.4 
L 52.4975 149.4 
z
" style="fill:#ffffff;"/>
   </g>
   <g id="line2d_10">
    <path clip-path="url(#pce38071910)" d="M 60.093068 235.614345 
L 60.3975 235.549382 
L 60.701931 236.458695 
L 61.310795 237.084858 
L 61.615226 236.869578 
L 61.919658 237.510766 
L 62.224089 237.408767 
L 62.528521 238.092453 
L 62.832952 237.460039 
L 63.137384 235.533697 
L 63.746247 235.11661 
L 64.050679 236.440418 
L 64.35511 235.651864 
L 64.963974 237.433891 
L 65.268405 236.799924 
L 65.572837 236.594031 
L 66.1817 233.693897 
L 66.486132 234.307668 
L 66.790563 234.161667 
L 67.094995 232.159574 
L 68.00829 228.763877 
L 68.312721 229.451482 
L 68.617153 228.727506 
L 69.226016 225.281346 
L 69.530447 226.198207 
L 69.834879 226.484432 
L 70.139311 226.049176 
L 70.748174 226.823455 
L 71.052605 226.045551 
L 71.357037 226.447479 
L 71.661469 228.480844 
L 71.9659 228.069321 
L 72.270332 228.55209 
L 72.574763 229.384049 
L 72.879195 231.164738 
L 73.183627 230.011734 
L 73.79249 234.47722 
L 74.096921 234.790935 
L 74.705785 231.903755 
L 75.010216 233.217299 
L 75.314648 233.419317 
L 75.619079 235.137136 
L 75.923511 233.987106 
L 76.227942 235.666377 
L 76.532374 235.829232 
L 76.836806 234.654435 
L 77.141237 234.907383 
L 77.445669 233.235393 
L 77.7501 234.22484 
L 78.054532 233.804965 
L 78.358964 232.83454 
L 78.663395 232.993432 
L 78.967827 231.416799 
L 79.272258 230.79342 
L 79.57669 232.655666 
L 79.881122 228.153608 
L 80.185553 227.415916 
L 80.489985 227.293836 
L 80.794416 228.884684 
L 81.098848 228.791691 
L 81.40328 229.314777 
L 81.707711 228.581963 
L 82.012143 228.159269 
L 82.316574 226.05187 
L 82.621006 225.89009 
L 83.229869 224.882498 
L 83.838732 225.259952 
L 84.447595 223.120689 
L 84.752027 223.836543 
L 85.056459 225.102836 
L 85.36089 225.179501 
L 85.665322 223.858613 
L 85.969753 223.889922 
L 86.274185 221.903728 
L 86.578617 222.785204 
L 86.883048 222.624118 
L 87.18748 225.485871 
L 87.491911 226.163315 
L 87.796343 226.514874 
L 88.100775 225.933792 
L 88.405206 223.988283 
L 88.709638 223.948543 
L 89.014069 222.295025 
L 89.318501 221.542505 
L 89.622932 220.420742 
L 89.927364 220.950893 
L 90.231796 219.375764 
L 90.536227 220.596029 
L 90.840659 220.032893 
L 91.14509 221.115659 
L 91.449522 221.704937 
L 91.753954 223.366969 
L 92.058385 223.954203 
L 92.362817 223.554884 
L 92.667248 223.633095 
L 92.97168 225.165887 
L 93.276112 223.493238 
L 93.580543 223.109722 
L 94.189406 221.070238 
L 94.493838 221.826382 
L 94.798269 224.038454 
L 95.102701 225.079551 
L 95.407133 223.686201 
L 95.711564 224.884382 
L 96.015996 223.956309 
L 96.320427 224.652789 
L 96.624859 224.205712 
L 96.929291 226.280028 
L 97.233722 224.952732 
L 97.538154 224.997846 
L 97.842585 223.99041 
L 98.147017 223.774484 
L 98.451449 222.866858 
L 98.75588 222.982784 
L 99.060312 222.137376 
L 99.669175 225.083265 
L 99.973607 224.258195 
L 100.278038 224.302752 
L 100.886901 224.76718 
L 101.191333 224.196576 
L 101.495764 224.871377 
L 101.800196 224.291012 
L 102.104628 225.332528 
L 102.409059 225.795689 
L 103.017922 223.4572 
L 103.322354 224.704977 
L 103.626786 223.751211 
L 103.931217 224.933056 
L 104.235649 224.099401 
L 104.54008 226.25889 
L 104.844512 227.529362 
L 105.148944 228.108209 
L 105.453375 228.297551 
L 106.36667 223.858637 
L 106.671102 222.48638 
L 107.279965 223.110966 
L 107.584396 221.895241 
L 107.888828 221.849328 
L 108.193259 222.027874 
L 108.497691 223.546379 
L 108.802123 223.667455 
L 109.106554 226.841611 
L 109.410986 227.360347 
L 109.715417 228.474761 
L 110.019849 227.687107 
L 110.628712 228.605719 
L 110.933144 227.073676 
L 111.237575 228.266765 
L 111.542007 227.906634 
L 111.846439 230.062091 
L 112.15087 229.960044 
L 112.455302 229.493455 
L 112.759733 228.515537 
L 113.064165 229.537595 
L 113.673028 228.812223 
L 113.97746 228.834095 
L 114.281891 228.663483 
L 114.890754 227.68381 
L 115.499618 230.176592 
L 116.108481 225.14323 
L 116.412912 226.725982 
L 117.021776 225.500382 
L 117.326207 224.645898 
L 117.630639 224.486228 
L 117.93507 225.540345 
L 118.239502 225.747809 
L 118.543934 226.306358 
L 118.848365 226.153537 
L 119.457228 226.608505 
L 120.066092 224.050626 
L 120.370523 225.393876 
L 120.674955 225.916948 
L 120.979386 226.816312 
L 121.283818 225.424592 
L 121.588249 225.49211 
L 121.892681 223.844197 
L 122.197113 224.387342 
L 122.501544 224.357773 
L 122.805976 225.891624 
L 123.110407 224.410271 
L 123.414839 224.822664 
L 123.719271 226.511709 
L 124.023702 227.185506 
L 124.328134 229.806842 
L 124.632565 229.843027 
L 124.936997 229.715097 
L 125.241429 229.38747 
L 125.54586 227.683695 
L 125.850292 228.02599 
L 126.154723 227.107683 
L 126.459155 226.752579 
L 126.763586 226.972441 
L 127.068018 229.334355 
L 127.37245 228.256777 
L 127.676881 228.829939 
L 127.981313 228.809518 
L 128.285744 230.254393 
L 128.590176 229.932547 
L 129.199039 229.776229 
L 129.503471 229.929527 
L 130.112334 227.637399 
L 130.416766 226.811825 
L 130.721197 223.034814 
L 131.634492 225.303181 
L 131.938924 224.807341 
L 132.243355 225.589209 
L 132.547787 228.658014 
L 132.852218 230.037925 
L 133.15665 229.955754 
L 133.461081 228.807338 
L 133.765513 230.578024 
L 134.069945 231.274545 
L 134.374376 231.433027 
L 134.678808 232.261582 
L 134.983239 231.657497 
L 135.287671 231.652947 
L 135.592103 231.287576 
L 135.896534 232.112352 
L 136.200966 230.364873 
L 136.505397 230.3653 
L 136.809829 228.894166 
L 137.114261 229.393431 
L 137.418692 228.722388 
L 137.723124 229.495041 
L 138.331987 231.377542 
L 138.636419 231.429705 
L 138.94085 231.678468 
L 139.245282 229.927951 
L 139.854145 232.47438 
L 140.158576 230.540782 
L 140.463008 229.848422 
L 140.76744 231.988121 
L 141.071871 231.422585 
L 141.376303 231.15267 
L 141.680734 233.591513 
L 141.985166 234.01181 
L 142.289598 234.031662 
L 142.898461 232.114316 
L 143.202892 232.005425 
L 143.507324 230.830097 
L 143.811756 230.996451 
L 144.420619 233.0341 
L 144.72505 232.416958 
L 145.029482 234.643953 
L 145.333914 233.873093 
L 145.638345 235.131581 
L 145.942777 235.540121 
L 146.247208 234.965358 
L 146.55164 233.580213 
L 146.856071 235.787319 
L 147.160503 236.704173 
L 147.464935 236.648376 
L 147.769366 237.326296 
L 148.073798 236.346385 
L 148.378229 238.719205 
L 148.987093 237.823341 
L 149.291524 237.767522 
L 149.595956 236.513966 
L 149.900387 237.912341 
L 150.204819 236.651529 
L 150.509251 237.450949 
L 150.813682 236.625792 
L 151.118114 236.994504 
L 151.726977 235.180748 
L 152.031408 236.845794 
L 152.944703 237.397148 
L 153.249135 238.256551 
L 153.553566 236.15094 
L 153.857998 235.913137 
L 154.16243 234.144642 
L 154.466861 234.791926 
L 154.771293 235.999491 
L 155.075724 235.849087 
L 155.380156 236.489648 
L 155.684588 233.771372 
L 155.989019 233.492256 
L 156.293451 232.181423 
L 157.206746 232.842423 
L 157.511177 232.437871 
L 157.815609 231.471649 
L 158.12004 231.610573 
L 158.424472 232.384895 
L 158.728903 233.599374 
L 159.033335 233.68658 
L 159.642198 232.514143 
L 159.94663 232.534406 
L 160.251061 233.216935 
L 160.555493 233.050021 
L 160.859925 232.399716 
L 161.164356 232.441588 
L 161.468788 232.313794 
L 161.773219 232.48496 
L 162.077651 231.443777 
L 162.382083 231.942135 
L 162.686514 231.731128 
L 162.990946 231.282551 
L 163.295377 230.457426 
L 163.599809 228.756179 
L 164.208672 227.306521 
L 164.513104 228.978598 
L 164.817535 228.288945 
L 165.121967 225.680335 
L 165.73083 227.783778 
L 166.035262 228.0279 
L 166.339693 226.866451 
L 166.644125 226.26966 
L 166.948556 226.812286 
L 167.252988 226.853217 
L 167.861851 224.908849 
L 168.166283 222.146525 
L 168.470714 221.002773 
L 168.775146 220.600667 
L 169.079578 219.901548 
L 169.384009 220.298442 
L 169.688441 221.410448 
L 169.992872 221.214884 
L 170.297304 220.656977 
L 170.601736 222.24381 
L 171.210599 223.257827 
L 171.51503 222.955716 
L 171.819462 223.25194 
L 172.123893 222.745739 
L 172.428325 222.634157 
L 172.732757 221.428263 
L 173.037188 223.374348 
L 173.646051 219.877427 
L 173.950483 219.820202 
L 174.559346 218.390782 
L 174.863778 219.22929 
L 175.168209 219.042019 
L 175.472641 218.157013 
L 175.777073 217.804664 
L 176.081504 216.609013 
L 176.690367 216.409138 
L 176.994799 217.28235 
L 177.603662 218.219763 
L 177.908094 216.280143 
L 178.212525 216.00662 
L 178.516957 217.143252 
L 178.821388 216.689932 
L 179.12582 216.908295 
L 179.430252 220.381294 
L 179.734683 219.835565 
L 180.039115 221.601425 
L 180.343546 220.943547 
L 180.647978 222.036777 
L 180.95241 223.695306 
L 181.256841 223.133099 
L 181.561273 224.832423 
L 181.865704 225.340447 
L 182.170136 225.108011 
L 182.778999 223.564583 
L 183.083431 223.605846 
L 183.387862 224.552516 
L 183.692294 222.36459 
L 183.996725 223.053764 
L 184.301157 221.00257 
L 184.605589 221.51722 
L 185.214452 218.979652 
L 185.518883 220.168722 
L 185.823315 219.764663 
L 186.432178 218.108351 
L 186.73661 218.334599 
L 187.041041 217.991185 
L 187.345473 218.440059 
L 187.649905 219.772744 
L 187.954336 218.653643 
L 188.258768 219.29016 
L 188.563199 217.720982 
L 188.867631 217.035824 
L 189.172063 218.051017 
L 189.476494 218.234346 
L 189.780926 218.560047 
L 190.085357 219.550494 
L 190.389789 218.980226 
L 190.69422 219.524546 
L 190.998652 217.668849 
L 191.303084 216.68977 
L 191.607515 217.690796 
L 191.911947 217.712405 
L 192.216378 217.970296 
L 192.52081 219.749586 
L 193.434105 216.557723 
L 193.738536 217.077448 
L 194.042968 215.861707 
L 194.3474 216.100255 
L 194.651831 215.036726 
L 194.956263 212.975367 
L 195.260694 212.816022 
L 195.565126 214.429998 
L 195.869558 214.790405 
L 196.173989 214.061421 
L 196.478421 212.674077 
L 196.782852 213.963521 
L 197.087284 214.180229 
L 197.391715 213.914856 
L 197.696147 213.420139 
L 198.000579 212.384729 
L 198.30501 213.463374 
L 198.609442 213.944989 
L 198.913873 212.798645 
L 199.522737 211.842512 
L 199.827168 210.562699 
L 200.1316 210.444361 
L 200.436031 209.843871 
L 200.740463 210.20162 
L 201.349326 213.204355 
L 201.653758 213.119831 
L 201.958189 213.346789 
L 202.262621 214.091259 
L 202.567053 213.729586 
L 202.871484 214.742078 
L 203.175916 214.615456 
L 203.480347 214.637659 
L 203.784779 215.592965 
L 204.08921 218.206679 
L 204.393642 216.550193 
L 204.698074 216.190086 
L 205.002505 219.219955 
L 205.306937 219.704926 
L 205.611368 219.257077 
L 205.9158 219.516538 
L 206.220232 218.856537 
L 206.524663 219.963419 
L 206.829095 219.764204 
L 207.133526 219.82503 
L 207.74239 220.284596 
L 208.046821 220.057413 
L 208.351253 218.996643 
L 208.960116 220.062688 
L 209.264548 219.88008 
L 209.568979 220.016725 
L 209.873411 219.578185 
L 210.177842 218.761284 
L 210.482274 217.292835 
L 210.786705 217.425265 
L 211.091137 220.015201 
L 211.395569 220.094384 
L 211.7 219.691933 
L 212.004432 219.904554 
L 212.004432 219.904554 
" style="fill:none;stroke:#00bfbf;stroke-linecap:square;stroke-width:1.5;"/>
   </g>
   <g id="matplotlib.axis_3">
    <g id="xtick_4">
     <g id="line2d_11">
      <g>
       <use style="stroke:#000000;stroke-width:0.8;" x="60.093068" xlink:href="#mb6c29c299b" y="242.9725"/>
      </g>
     </g>
     <g id="text_8">
      <!-- 0.0 -->
      <g transform="translate(50.551193 259.090625)scale(0.12 -0.12)">
       <use xlink:href="#DejaVuSans-48"/>
       <use x="63.623047" xlink:href="#DejaVuSans-46"/>
       <use x="95.410156" xlink:href="#DejaVuSans-48"/>
      </g>
     </g>
    </g>
    <g id="xtick_5">
     <g id="line2d_12">
      <g>
       <use style="stroke:#000000;stroke-width:0.8;" x="120.979386" xlink:href="#mb6c29c299b" y="242.9725"/>
      </g>
     </g>
     <g id="text_9">
      <!-- 0.2 -->
      <g transform="translate(111.437511 259.090625)scale(0.12 -0.12)">
       <use xlink:href="#DejaVuSans-48"/>
       <use x="63.623047" xlink:href="#DejaVuSans-46"/>
       <use x="95.410156" xlink:href="#DejaVuSans-50"/>
      </g>
     </g>
    </g>
    <g id="xtick_6">
     <g id="line2d_13">
      <g>
       <use style="stroke:#000000;stroke-width:0.8;" x="181.865704" xlink:href="#mb6c29c299b" y="242.9725"/>
      </g>
     </g>
     <g id="text_10">
      <!-- 0.4 -->
      <g transform="translate(172.323829 259.090625)scale(0.12 -0.12)">
       <use xlink:href="#DejaVuSans-48"/>
       <use x="63.623047" xlink:href="#DejaVuSans-46"/>
       <use x="95.410156" xlink:href="#DejaVuSans-52"/>
      </g>
     </g>
    </g>
    <g id="text_11">
     <!-- Time (s) -->
     <g transform="translate(111.654062 274.704375)scale(0.12 -0.12)">
      <use xlink:href="#DejaVuSans-84"/>
      <use x="57.958984" xlink:href="#DejaVuSans-105"/>
      <use x="85.742188" xlink:href="#DejaVuSans-109"/>
      <use x="183.154297" xlink:href="#DejaVuSans-101"/>
      <use x="244.677734" xlink:href="#DejaVuSans-32"/>
      <use x="276.464844" xlink:href="#DejaVuSans-40"/>
      <use x="315.478516" xlink:href="#DejaVuSans-115"/>
      <use x="367.578125" xlink:href="#DejaVuSans-41"/>
     </g>
    </g>
   </g>
   <g id="matplotlib.axis_4">
    <g id="ytick_3">
     <g id="line2d_14">
      <g>
       <use style="stroke:#000000;stroke-width:0.8;" x="52.4975" xlink:href="#mfb3c26b99c" y="233.658904"/>
      </g>
     </g>
     <g id="text_12">
      <!-- 0.0 -->
      <g transform="translate(26.41375 238.217967)scale(0.12 -0.12)">
       <use xlink:href="#DejaVuSans-48"/>
       <use x="63.623047" xlink:href="#DejaVuSans-46"/>
       <use x="95.410156" xlink:href="#DejaVuSans-48"/>
      </g>
     </g>
    </g>
    <g id="ytick_4">
     <g id="line2d_15">
      <g>
       <use style="stroke:#000000;stroke-width:0.8;" x="52.4975" xlink:href="#mfb3c26b99c" y="188.167528"/>
      </g>
     </g>
     <g id="text_13">
      <!-- 0.2 -->
      <g transform="translate(26.41375 192.726591)scale(0.12 -0.12)">
       <use xlink:href="#DejaVuSans-48"/>
       <use x="63.623047" xlink:href="#DejaVuSans-46"/>
       <use x="95.410156" xlink:href="#DejaVuSans-50"/>
      </g>
     </g>
    </g>
    <g id="text_14">
     <!-- x -->
     <g transform="translate(19.918125 199.7375)rotate(-90)scale(0.12 -0.12)">
      <use xlink:href="#DejaVuSans-120"/>
     </g>
    </g>
   </g>
   <g id="line2d_16">
    <path clip-path="url(#pce38071910)" d="M 60.093068 233.658904 
L 60.3975 233.593941 
L 60.701931 234.509751 
L 61.310795 234.94109 
L 61.615226 234.597591 
L 61.919658 235.144911 
L 62.224089 234.894311 
L 62.528521 235.454457 
L 62.832952 234.642488 
L 63.137384 232.617787 
L 63.746247 232.420902 
L 64.050679 233.868511 
L 64.35511 233.058995 
L 64.963974 234.868792 
L 65.268405 234.113836 
L 65.572837 233.86245 
L 66.1817 231.049559 
L 66.486132 231.924265 
L 66.790563 231.951728 
L 67.094995 230.120353 
L 67.399426 229.374978 
L 67.703858 228.992431 
L 68.00829 227.97355 
L 68.312721 229.229691 
L 68.617153 228.948636 
L 69.226016 226.557699 
L 69.530447 228.184681 
L 69.834879 229.018329 
L 70.139311 229.04713 
L 70.748174 230.664779 
L 71.052605 230.186287 
L 71.357037 230.935476 
L 71.661469 233.241185 
L 71.9659 232.871433 
L 72.270332 233.432949 
L 72.574763 234.287504 
L 72.879195 236.005333 
L 73.183627 234.617686 
L 73.79249 238.647717 
L 74.096921 238.462552 
L 74.705785 234.802446 
L 75.010216 236.001635 
L 75.314648 235.96938 
L 75.619079 237.456151 
L 75.923511 235.926397 
L 76.227942 237.378919 
L 76.532374 237.169772 
L 76.836806 235.643889 
L 77.141237 235.698338 
L 77.445669 233.822404 
L 77.7501 234.795501 
L 78.054532 234.261967 
L 78.358964 233.231236 
L 78.663395 233.432895 
L 78.967827 231.878862 
L 79.272258 231.433487 
L 79.57669 233.518275 
L 79.881122 229.030281 
L 80.185553 228.755451 
L 80.489985 229.123716 
L 80.794416 231.168083 
L 81.098848 231.324172 
L 81.40328 232.080731 
L 81.707711 231.505735 
L 82.012143 231.298357 
L 82.316574 229.427013 
L 82.621006 229.688422 
L 82.925437 229.501468 
L 83.229869 229.493622 
L 83.838732 230.645592 
L 84.143164 229.694773 
L 84.447595 229.204073 
L 85.056459 231.961053 
L 85.36089 232.207503 
L 85.665322 231.031755 
L 85.969753 231.325779 
L 86.274185 229.572898 
L 86.578617 230.862974 
L 86.883048 230.981481 
L 87.18748 234.110977 
L 87.491911 234.743213 
L 87.796343 234.986341 
L 88.100775 234.272516 
L 88.405206 232.265646 
L 88.709638 232.365231 
L 89.014069 230.84108 
L 89.318501 230.370343 
L 89.622932 229.577436 
L 89.927364 230.515734 
L 90.231796 229.254922 
L 90.536227 230.915586 
L 90.840659 230.626781 
L 91.14509 232.012759 
L 91.449522 232.766652 
L 91.753954 234.517909 
L 92.058385 235.019243 
L 92.362817 234.483889 
L 92.667248 234.479602 
L 92.97168 235.930325 
L 93.276112 234.030533 
L 93.580543 233.609854 
L 94.189406 231.694336 
L 94.493838 232.646936 
L 94.798269 234.960205 
L 95.102701 235.871173 
L 95.407133 234.256595 
L 95.711564 235.395008 
L 96.015996 234.293323 
L 96.320427 234.926362 
L 96.624859 234.35254 
L 96.929291 236.357492 
L 97.233722 234.760337 
L 97.538154 234.695308 
L 97.842585 233.584232 
L 98.147017 233.375772 
L 98.451449 232.49646 
L 98.75588 232.72863 
L 99.060312 231.97625 
L 99.669175 235.070162 
L 99.973607 234.103966 
L 100.278038 234.104016 
L 100.886901 234.457858 
L 101.191333 233.807358 
L 101.495764 234.467314 
L 101.800196 233.806108 
L 102.104628 234.832903 
L 102.409059 235.178665 
L 103.017922 232.663438 
L 103.322354 234.010762 
L 103.626786 233.02181 
L 103.931217 234.267365 
L 104.235649 233.372863 
L 104.54008 235.560956 
L 104.844512 236.641224 
L 105.148944 236.921838 
L 105.453375 236.784887 
L 105.757807 234.853234 
L 106.062238 233.705697 
L 106.671102 230.71197 
L 107.279965 231.864304 
L 107.584396 230.828039 
L 107.888828 231.065212 
L 108.193259 231.503127 
L 108.497691 233.23721 
L 108.802123 233.400455 
L 109.106554 236.600457 
L 109.410986 236.825037 
L 109.715417 237.622838 
L 110.019849 236.43879 
L 110.324281 236.705188 
L 110.628712 236.774785 
L 110.933144 234.931155 
L 111.237575 235.997018 
L 111.542007 235.403076 
L 111.846439 237.384116 
L 112.15087 236.909547 
L 112.455302 236.117894 
L 112.759733 234.894077 
L 113.064165 235.792618 
L 113.673028 234.698194 
L 113.97746 234.616137 
L 114.281891 234.349803 
L 114.890754 233.291575 
L 115.499618 235.740875 
L 116.108481 230.59694 
L 116.412912 232.485888 
L 117.021776 231.534364 
L 117.326207 230.892334 
L 117.630639 231.009321 
L 117.93507 232.328396 
L 118.239502 232.668911 
L 118.543934 233.326459 
L 118.848365 233.206883 
L 119.152797 233.5573 
L 119.457228 233.717213 
L 120.066092 231.264094 
L 120.370523 232.846825 
L 120.674955 233.451105 
L 120.979386 234.371249 
L 121.283818 232.908294 
L 121.588249 233.050874 
L 121.892681 231.463764 
L 122.197113 232.226423 
L 122.501544 232.340102 
L 122.805976 234.005833 
L 123.110407 232.489787 
L 123.414839 233.019092 
L 123.719271 234.772118 
L 124.023702 235.334594 
L 124.328134 237.788361 
L 124.936997 236.9084 
L 125.241429 236.255824 
L 125.54586 234.292357 
L 125.850292 234.571307 
L 126.154723 233.56176 
L 126.459155 233.21637 
L 126.763586 233.480485 
L 127.068018 235.860242 
L 127.37245 234.562529 
L 127.676881 235.045329 
L 127.981313 234.886265 
L 128.285744 236.208404 
L 128.590176 235.631608 
L 129.199039 235.112762 
L 129.503471 235.120675 
L 130.112334 232.670137 
L 130.416766 231.94344 
L 130.721197 228.337975 
L 131.634492 231.875452 
L 131.938924 231.557957 
L 132.243355 232.549921 
L 132.547787 235.729624 
L 132.852218 236.902462 
L 133.15665 236.495936 
L 133.461081 235.063817 
L 133.765513 236.694011 
L 134.069945 237.087021 
L 134.374376 236.902692 
L 134.678808 237.406868 
L 134.983239 236.427987 
L 135.287671 236.146529 
L 135.592103 235.532396 
L 135.896534 236.169822 
L 136.200966 234.171251 
L 136.505397 234.120443 
L 136.809829 232.603156 
L 137.114261 233.207996 
L 137.418692 232.582044 
L 138.331987 235.274077 
L 138.636419 235.164723 
L 138.94085 235.262903 
L 139.245282 233.351987 
L 139.854145 235.826089 
L 140.158576 233.675773 
L 140.463008 232.981726 
L 140.76744 235.189143 
L 141.071871 234.470583 
L 141.376303 234.1195 
L 141.680734 236.512284 
L 141.985166 236.647243 
L 142.289598 236.368261 
L 142.898461 234.019318 
L 143.202892 233.874386 
L 143.507324 232.67751 
L 143.811756 232.942004 
L 144.420619 235.018341 
L 144.72505 234.265256 
L 145.029482 236.431616 
L 145.333914 235.383484 
L 145.638345 236.469515 
L 145.942777 236.596994 
L 146.247208 235.728422 
L 146.55164 234.136325 
L 146.856071 236.295689 
L 147.160503 236.948864 
L 147.464935 236.564071 
L 147.769366 236.951474 
L 148.073798 235.642307 
L 148.378229 237.816786 
L 148.987093 236.172072 
L 149.291524 235.864937 
L 149.595956 234.390777 
L 149.900387 235.715965 
L 150.204819 234.249447 
L 150.509251 234.989813 
L 150.813682 234.031565 
L 151.118114 234.363011 
L 151.726977 232.508089 
L 152.031408 234.288215 
L 152.944703 234.625131 
L 153.249135 235.387912 
L 153.553566 233.1094 
L 153.857998 232.926548 
L 154.16243 231.231288 
L 154.466861 232.121333 
L 154.771293 233.482655 
L 155.075724 233.349877 
L 155.380156 234.02134 
L 155.684588 231.266821 
L 155.989019 231.226913 
L 156.293451 230.159279 
L 156.902314 231.42455 
L 157.206746 231.683141 
L 157.511177 231.476166 
L 157.815609 230.728218 
L 158.12004 231.16021 
L 158.728903 233.546331 
L 159.033335 233.644795 
L 159.642198 232.5402 
L 159.94663 232.672334 
L 160.251061 233.453519 
L 160.555493 233.307144 
L 160.859925 232.692015 
L 161.164356 232.830576 
L 161.468788 232.785614 
L 161.773219 233.044109 
L 162.077651 232.064406 
L 162.382083 232.722214 
L 162.686514 232.604876 
L 162.990946 232.261702 
L 163.295377 231.576297 
L 163.599809 230.083311 
L 164.208672 229.389833 
L 164.513104 231.488818 
L 164.817535 231.016173 
L 165.121967 228.671837 
L 165.73083 231.628426 
L 166.035262 232.075597 
L 166.339693 231.072478 
L 166.644125 230.73433 
L 166.948556 231.569413 
L 167.252988 231.819293 
L 167.55742 230.823846 
L 167.861851 230.342392 
L 168.166283 227.911719 
L 168.470714 227.342686 
L 168.775146 227.572201 
L 169.079578 227.481753 
L 169.384009 228.496362 
L 169.688441 230.124623 
L 169.992872 230.282487 
L 170.297304 230.062221 
L 170.601736 232.008723 
L 171.210599 233.276867 
L 171.51503 233.01296 
L 171.819462 233.373779 
L 172.123893 232.89609 
L 172.428325 232.860789 
L 172.732757 231.734707 
L 173.037188 233.873211 
L 173.646051 230.524034 
L 173.950483 230.780297 
L 174.559346 229.971772 
L 174.863778 231.178993 
L 175.168209 231.239713 
L 175.472641 230.596627 
L 175.777073 230.550505 
L 176.081504 229.665694 
L 176.690367 230.235333 
L 176.994799 231.450902 
L 177.603662 232.766377 
L 177.908094 230.91601 
L 178.212525 230.916776 
L 178.516957 232.327621 
L 178.821388 232.00743 
L 179.12582 232.39094 
L 179.430252 235.990735 
L 179.734683 235.211823 
L 180.039115 236.822391 
L 180.343546 235.848164 
L 180.647978 236.722468 
L 180.95241 238.074642 
L 181.256841 237.070861 
L 181.561273 238.428988 
L 181.865704 238.460004 
L 182.170136 237.747459 
L 182.778999 235.496834 
L 183.083431 235.354303 
L 183.387862 236.131433 
L 183.692294 233.696255 
L 183.996725 234.381693 
L 184.301157 232.258221 
L 184.605589 232.912938 
L 185.214452 230.649176 
L 185.518883 232.139219 
L 185.823315 231.887128 
L 186.432178 230.653363 
L 186.73661 231.180166 
L 187.041041 231.084625 
L 187.345473 231.790927 
L 187.649905 233.31041 
L 187.954336 232.226158 
L 188.258768 233.005949 
L 188.563199 231.502067 
L 188.867631 231.032593 
L 189.172063 232.310417 
L 189.780926 233.057326 
L 190.085357 234.107931 
L 190.389789 233.49276 
L 190.69422 234.053695 
L 190.998652 232.158519 
L 191.303084 231.329479 
L 191.607515 232.563447 
L 191.911947 232.694602 
L 192.216378 233.048923 
L 192.52081 234.889211 
L 193.434105 231.673184 
L 193.738536 232.391482 
L 194.042968 231.302483 
L 194.3474 231.776674 
L 194.651831 230.901368 
L 194.956263 229.115762 
L 195.260694 229.410731 
L 195.565126 231.449524 
L 195.869558 232.030869 
L 196.173989 231.464689 
L 196.478421 230.296767 
L 196.782852 231.922424 
L 197.087284 232.31278 
L 197.391715 232.18202 
L 197.696147 231.834991 
L 198.000579 230.981972 
L 198.30501 232.328311 
L 198.609442 232.942985 
L 198.913873 231.868233 
L 199.522737 231.296947 
L 199.827168 230.25333 
L 200.1316 230.475549 
L 200.436031 230.193395 
L 200.740463 230.897694 
L 201.349326 234.272094 
L 201.653758 234.126251 
L 201.958189 234.306474 
L 202.262621 234.986187 
L 202.567053 234.491786 
L 202.871484 235.42099 
L 203.175916 235.118159 
L 203.480347 234.994436 
L 203.784779 235.816189 
L 204.08921 238.214174 
L 204.393642 236.102162 
L 204.698074 235.497729 
L 205.002505 238.343716 
L 205.306937 238.360205 
L 205.611368 237.442226 
L 205.9158 237.323355 
L 206.220232 236.29691 
L 206.524663 237.139991 
L 206.829095 236.592667 
L 207.133526 236.360117 
L 207.74239 236.285633 
L 208.046821 235.795777 
L 208.351253 234.52132 
L 208.960116 235.363216 
L 209.264548 235.010177 
L 209.568979 235.011694 
L 209.873411 234.437876 
L 210.177842 233.543078 
L 210.482274 232.086211 
L 210.786705 232.375911 
L 211.091137 235.094146 
L 211.395569 235.029804 
L 211.7 234.490263 
L 212.004432 234.619748 
L 212.004432 234.619748 
" style="fill:none;stroke:#808080;stroke-linecap:square;stroke-width:0.75;"/>
   </g>
   <g id="line2d_17">
    <path clip-path="url(#pce38071910)" d="M 60.093068 233.658904 
L 60.3975 233.526125 
L 60.701931 234.365087 
L 61.310795 234.8827 
L 61.615226 234.618959 
L 61.919658 235.207548 
L 62.224089 235.063139 
L 62.528521 235.701595 
L 62.832952 235.036029 
L 63.137384 233.063948 
L 63.746247 232.480785 
L 64.050679 233.712234 
L 64.35511 232.856851 
L 64.963974 234.486405 
L 65.268405 233.797914 
L 65.572837 233.52674 
L 66.1817 230.45779 
L 66.486132 230.958424 
L 66.790563 230.697864 
L 67.094995 228.581516 
L 68.00829 224.70664 
L 68.312721 225.164279 
L 68.617153 224.221472 
L 69.226016 220.255591 
L 69.530447 220.963327 
L 69.834879 221.007525 
L 70.139311 220.32839 
L 70.748174 220.671589 
L 71.052605 219.66458 
L 71.357037 219.887173 
L 71.661469 221.729922 
L 71.9659 221.049884 
L 72.270332 221.28703 
L 72.574763 221.864204 
L 72.879195 223.373277 
L 73.183627 221.955947 
L 73.79249 225.906074 
L 74.096921 226.013024 
L 74.705785 222.683181 
L 75.010216 223.719591 
L 75.314648 223.66682 
L 75.619079 225.128384 
L 75.923511 223.758716 
L 76.227942 225.184277 
L 76.532374 225.128741 
L 76.836806 223.734314 
L 77.141237 223.73288 
L 77.445669 221.806467 
L 77.7501 222.525564 
L 78.054532 221.827723 
L 78.358964 220.58647 
L 78.663395 220.520222 
L 78.967827 218.721585 
L 79.272258 217.96484 
L 79.57669 219.726055 
L 79.881122 215.04155 
L 80.185553 214.213682 
L 80.489985 213.980512 
L 80.794416 215.456847 
L 81.098848 215.287326 
L 81.40328 215.728295 
L 82.012143 214.41059 
L 82.316574 212.195915 
L 82.621006 211.916044 
L 83.229869 210.669317 
L 83.838732 210.792445 
L 84.447595 208.375221 
L 84.752027 208.910634 
L 85.056459 210.012214 
L 85.36089 209.949163 
L 85.665322 208.487284 
L 85.969753 208.341648 
L 86.274185 206.17395 
L 86.578617 206.815883 
L 86.883048 206.427321 
L 87.18748 209.053559 
L 87.491911 209.570028 
L 87.796343 209.772677 
L 88.100775 209.046978 
L 88.405206 206.940327 
L 88.709638 206.676127 
L 89.014069 204.791992 
L 89.622932 202.425884 
L 89.927364 202.746833 
L 90.231796 200.954994 
L 90.536227 201.998274 
L 90.840659 201.235068 
L 91.14509 202.133927 
L 91.449522 202.520327 
L 91.753954 203.971009 
L 92.058385 204.312951 
L 92.362817 203.664235 
L 92.667248 203.503165 
L 92.97168 204.800395 
L 93.276112 202.877896 
L 93.580543 202.27445 
L 94.189406 199.852977 
L 94.493838 200.465559 
L 94.798269 202.514543 
L 95.102701 203.344424 
L 95.407133 201.719395 
L 95.711564 202.72319 
L 96.015996 201.578979 
L 96.320427 202.083977 
L 96.624859 201.435062 
L 96.929291 203.320965 
L 97.233722 201.762575 
L 97.538154 201.612421 
L 97.842585 200.412805 
L 98.147017 200.035406 
L 98.451449 198.978285 
L 98.75588 198.977978 
L 99.060312 198.016347 
L 99.669175 200.732369 
L 99.973607 199.736366 
L 100.278038 199.641158 
L 100.886901 199.828223 
L 101.191333 199.114863 
L 101.495764 199.669437 
L 101.800196 198.951479 
L 102.104628 199.877529 
L 102.409059 200.196328 
L 103.017922 197.58855 
L 103.322354 198.749895 
L 103.626786 197.686226 
L 103.931217 198.780292 
L 104.235649 197.835918 
L 104.54008 199.905324 
L 104.844512 201.030529 
L 105.148944 201.430447 
L 105.453375 201.431476 
L 106.36667 196.565505 
L 106.671102 195.111882 
L 107.279965 195.542802 
L 107.584396 194.234855 
L 107.888828 194.07664 
L 108.193259 194.140121 
L 108.497691 195.544677 
L 108.802123 195.573556 
L 109.106554 198.65592 
L 109.410986 199.067215 
L 109.715417 200.062812 
L 110.019849 199.124775 
L 110.628712 199.789166 
L 110.933144 198.11564 
L 111.237575 199.213603 
L 111.542007 198.730272 
L 111.846439 200.776349 
L 112.15087 200.502135 
L 112.455302 199.87135 
L 112.759733 198.749271 
L 113.064165 199.661444 
L 113.673028 198.677142 
L 113.97746 198.591025 
L 114.281891 198.314622 
L 114.890754 197.147862 
L 115.499618 199.461828 
L 116.108481 194.215725 
L 116.412912 195.685845 
L 117.021776 194.271098 
L 117.326207 193.304936 
L 117.630639 193.017645 
L 117.93507 193.940723 
L 118.239502 194.030727 
L 118.543934 194.473402 
L 118.848365 194.212296 
L 119.152797 194.404819 
L 119.457228 194.445155 
L 120.066092 191.649283 
L 120.370523 192.860519 
L 120.674955 193.251096 
L 120.979386 194.02213 
L 121.283818 192.514384 
L 121.588249 192.447391 
L 121.892681 190.664781 
L 122.197113 191.082084 
L 122.501544 190.925104 
L 122.805976 192.332487 
L 123.110407 190.716281 
L 123.414839 191.002826 
L 123.719271 192.564976 
L 124.023702 193.104447 
L 124.328134 195.595678 
L 124.632565 195.540377 
L 124.936997 195.320191 
L 125.241429 194.897154 
L 125.54586 193.091702 
L 125.850292 193.30375 
L 126.154723 192.257805 
L 126.459155 191.767855 
L 126.763586 191.854836 
L 127.068018 194.08331 
L 127.37245 192.890784 
L 127.676881 193.331708 
L 127.981313 193.184029 
L 128.285744 194.499732 
L 128.894608 193.831986 
L 129.199039 193.679172 
L 129.503471 193.710517 
L 130.416766 190.208596 
L 130.721197 186.302212 
L 131.025629 186.75187 
L 131.33006 186.948368 
L 131.634492 187.868402 
L 131.938924 187.152259 
L 132.243355 187.702066 
L 132.547787 190.5471 
L 132.852218 191.800915 
L 133.15665 191.585642 
L 133.461081 190.305716 
L 133.765513 191.9484 
L 134.069945 192.510968 
L 134.374376 192.534928 
L 134.678808 193.229042 
L 134.983239 192.496344 
L 135.287671 192.357226 
L 135.592103 191.857019 
L 135.896534 192.548341 
L 136.200966 190.666472 
L 136.505397 190.541057 
L 136.809829 188.943803 
L 137.114261 189.26473 
L 137.418692 188.431735 
L 137.723124 189.001817 
L 138.331987 190.572908 
L 138.636419 190.499064 
L 138.94085 190.621508 
L 139.245282 188.745102 
L 139.854145 190.965763 
L 140.158576 188.905485 
L 140.463008 188.032818 
L 140.76744 189.956344 
L 141.376303 188.823778 
L 141.680734 191.078158 
L 141.985166 191.371072 
L 142.289598 191.261215 
L 142.898461 189.087019 
L 143.202892 188.807182 
L 143.507324 187.446558 
L 143.811756 187.384817 
L 144.420619 188.980141 
L 144.72505 188.186535 
L 145.029482 190.201968 
L 145.333914 189.301628 
L 145.638345 190.399973 
L 145.942777 190.681498 
L 146.247208 189.980898 
L 146.55164 188.461658 
L 146.856071 190.467428 
L 147.160503 191.257777 
L 147.464935 191.073222 
L 147.769366 191.623792 
L 148.073798 190.512067 
L 148.378229 192.758635 
L 148.987093 191.594704 
L 149.291524 191.407302 
L 149.595956 190.023729 
L 149.900387 191.289063 
L 150.204819 189.899234 
L 150.509251 190.562337 
L 150.813682 189.611138 
L 151.118114 189.833555 
L 151.726977 187.6943 
L 152.031408 189.135427 
L 152.944703 189.178905 
L 153.249135 189.87206 
L 153.553566 187.62933 
L 153.857998 187.166422 
L 154.16243 185.166032 
L 154.466861 185.599784 
L 154.771293 186.586079 
L 155.075724 186.2006 
L 155.380156 186.609476 
L 155.684588 183.656064 
L 155.989019 183.185546 
L 156.293451 181.688548 
L 157.206746 181.820647 
L 157.511177 181.239348 
L 157.815609 180.111692 
L 158.12004 180.127506 
L 158.424472 180.77817 
L 158.728903 181.846696 
L 159.033335 181.756664 
L 159.642198 180.257617 
L 159.94663 180.149751 
L 160.251061 180.707853 
L 160.555493 180.397406 
L 160.859925 179.6142 
L 161.164356 179.551182 
L 161.468788 179.32099 
L 161.773219 179.399274 
L 162.077651 178.261902 
L 162.382083 178.716166 
L 162.686514 178.439711 
L 162.990946 177.938736 
L 163.295377 177.084049 
L 163.599809 175.385232 
L 164.208672 174.010319 
L 164.513104 175.721772 
L 164.817535 175.064514 
L 165.121967 172.493837 
L 165.73083 174.68822 
L 166.035262 174.971009 
L 166.339693 173.847786 
L 166.644125 173.290818 
L 166.948556 173.875979 
L 167.252988 173.956644 
L 167.861851 172.098101 
L 168.166283 169.389735 
L 168.470714 168.282481 
L 168.775146 167.870329 
L 169.079578 167.14217 
L 169.384009 167.485199 
L 169.688441 168.552779 
L 169.992872 168.359712 
L 170.297304 167.795376 
L 170.601736 169.349907 
L 171.210599 170.452191 
L 171.51503 170.210537 
L 171.819462 170.564189 
L 172.123893 170.119372 
L 172.428325 170.063698 
L 172.732757 168.912678 
L 173.037188 170.877015 
L 173.646051 167.466684 
L 173.950483 167.364402 
L 174.559346 165.829239 
L 174.863778 166.620682 
L 175.168209 166.375757 
L 175.472641 165.435174 
L 175.777073 165.041067 
L 176.081504 163.805403 
L 176.690367 163.490175 
L 176.994799 164.302239 
L 177.603662 165.149601 
L 177.908094 163.169924 
L 178.212525 162.831668 
L 178.516957 163.901397 
L 178.821388 163.393352 
L 179.12582 163.549333 
L 179.430252 166.961997 
L 179.734683 166.35963 
L 180.039115 168.070109 
L 180.343546 167.392257 
L 180.647978 168.438017 
L 180.95241 170.093763 
L 181.256841 169.586998 
L 181.561273 171.329237 
L 181.865704 171.898418 
L 182.170136 171.722123 
L 182.778999 170.298934 
L 183.083431 170.398899 
L 183.387862 171.40548 
L 183.692294 169.278203 
L 183.996725 169.999927 
L 184.301157 168.002329 
L 184.605589 168.493882 
L 185.214452 165.902881 
L 185.518883 167.043675 
L 185.823315 166.584036 
L 186.432178 164.825674 
L 186.73661 165.010991 
L 187.041041 164.627514 
L 187.345473 165.033529 
L 187.649905 166.326191 
L 187.954336 165.152136 
L 188.258768 165.748591 
L 188.563199 164.133625 
L 188.867631 163.397855 
L 189.172063 164.35072 
L 189.476494 164.487184 
L 189.780926 164.768148 
L 190.085357 165.717202 
L 190.389789 165.101624 
L 190.69422 165.605949 
L 190.998652 163.70652 
L 191.303084 162.669468 
L 191.607515 163.603118 
L 191.911947 163.565169 
L 192.216378 163.762951 
L 192.52081 165.485177 
L 193.434105 162.140816 
L 193.738536 162.593461 
L 194.042968 161.310237 
L 194.3474 161.482271 
L 194.651831 160.352465 
L 194.956263 158.221194 
L 195.260694 157.989024 
L 195.565126 159.531069 
L 195.869558 159.819422 
L 196.173989 159.019096 
L 196.478421 157.558447 
L 196.782852 158.777698 
L 197.087284 158.920786 
L 197.391715 158.581942 
L 197.696147 158.013626 
L 198.000579 156.906182 
L 198.30501 157.914078 
L 198.609442 158.324085 
L 198.913873 157.104602 
L 199.522737 156.004596 
L 199.827168 154.638266 
L 200.1316 154.390401 
L 200.436031 153.653295 
L 200.740463 153.85595 
L 201.349326 156.597251 
L 201.653758 156.438841 
L 201.958189 156.589373 
L 202.262621 157.259846 
L 202.567053 156.828502 
L 202.871484 157.769671 
L 203.175916 157.57206 
L 203.480347 157.524026 
L 203.784779 158.409245 
L 204.08921 160.949614 
L 204.393642 159.225503 
L 204.698074 158.792554 
L 205.002505 161.748813 
L 205.306937 162.167435 
L 205.611368 161.652451 
L 205.9158 161.845647 
L 206.220232 161.11916 
L 206.524663 162.159022 
L 206.829095 161.892688 
L 207.133526 161.886945 
L 207.74239 162.21311 
L 208.046821 161.918703 
L 208.351253 160.791316 
L 208.960116 161.72262 
L 209.264548 161.473692 
L 209.568979 161.544053 
L 209.873411 161.039265 
L 210.177842 160.155073 
L 210.482274 158.616124 
L 210.786705 158.674931 
L 211.091137 161.191223 
L 211.395569 161.203602 
L 211.7 160.734382 
L 212.004432 160.878515 
L 212.004432 160.878515 
" style="fill:none;stroke:#ff7f0e;stroke-linecap:square;stroke-width:1.5;"/>
   </g>
   <g id="line2d_18">
    <path clip-path="url(#pce38071910)" d="M 52.4975 233.658904 
L 219.6 233.658904 
" style="fill:none;stroke:#808080;stroke-dasharray:2.775,1.2;stroke-dashoffset:0;stroke-width:0.75;"/>
   </g>
   <g id="patch_8">
    <path d="M 52.4975 242.9725 
L 52.4975 149.4 
" style="fill:none;stroke:#000000;stroke-linecap:square;stroke-linejoin:miter;stroke-width:0.8;"/>
   </g>
   <g id="patch_9">
    <path d="M 219.6 242.9725 
L 219.6 149.4 
" style="fill:none;stroke:#000000;stroke-linecap:square;stroke-linejoin:miter;stroke-width:0.8;"/>
   </g>
   <g id="patch_10">
    <path d="M 52.4975 242.9725 
L 219.6 242.9725 
" style="fill:none;stroke:#000000;stroke-linecap:square;stroke-linejoin:miter;stroke-width:0.8;"/>
   </g>
   <g id="patch_11">
    <path d="M 52.4975 149.4 
L 219.6 149.4 
" style="fill:none;stroke:#000000;stroke-linecap:square;stroke-linejoin:miter;stroke-width:0.8;"/>
   </g>
  </g>
 </g>
 <defs>
  <clipPath id="p49cb4fef4e">
   <rect height="93.5725" width="167.1025" x="52.4975" y="10.8"/>
  </clipPath>
  <clipPath id="pce38071910">
   <rect height="93.5725" width="167.1025" x="52.4975" y="149.4"/>
  </clipPath>
 </defs>
</svg>
