<?xml version="1.0" encoding="utf-8" standalone="no"?>
<!DOCTYPE svg PUBLIC "-//W3C//DTD SVG 1.1//EN"
  "http://www.w3.org/Graphics/SVG/1.1/DTD/svg11.dtd">
<svg xmlns:xlink="http://www.w3.org/1999/xlink" width="230.4pt" height="288pt" viewBox="0 0 230.4 288" xmlns="http://www.w3.org/2000/svg" version="1.1">
 <metadata>
  <rdf:RDF xmlns:dc="http://purl.org/dc/elements/1.1/" xmlns:cc="http://creativecommons.org/ns#" xmlns:rdf="http://www.w3.org/1999/02/22-rdf-syntax-ns#">
   <cc:Work>
    <dc:type rdf:resource="http://purl.org/dc/dcmitype/StillImage"/>
    <dc:date>2025-06-20T15:26:26.018253</dc:date>
    <dc:format>image/svg+xml</dc:format>
    <dc:creator>
     <cc:Agent>
      <dc:title>Matplotlib v3.5.2, https://matplotlib.org/</dc:title>
     </cc:Agent>
    </dc:creator>
   </cc:Work>
  </rdf:RDF>
 </metadata>
 <defs>
  <style type="text/css">*{stroke-linejoin: round; stroke-linecap: butt}</style>
 </defs>
 <g id="figure_1">
  <g id="patch_1">
   <path d="M 0 288 
L 230.4 288 
L 230.4 0 
L 0 0 
z
" style="fill: #ffffff"/>
  </g>
  <g id="axes_1">
   <g id="patch_2">
    <path d="M 62.553125 104.3725 
L 219.6 104.3725 
L 219.6 14.951253 
L 62.553125 14.951253 
z
" style="fill: #ffffff"/>
   </g>
   <g id="line2d_1">
    <path d="M 69.691619 74.442754 
L 69.977731 74.868683 
L 70.263843 73.691102 
L 70.549955 73.198997 
L 70.836067 71.527929 
L 71.122179 73.006777 
L 71.980515 69.876388 
L 72.552739 69.596282 
L 72.838851 69.999415 
L 73.124963 69.445101 
L 73.411075 69.54049 
L 73.697187 69.758433 
L 73.983299 70.900543 
L 74.269411 70.048818 
L 74.555523 71.533394 
L 75.127747 69.37477 
L 75.986083 71.960633 
L 76.272195 70.619566 
L 76.558307 70.153798 
L 76.844419 69.136885 
L 77.130531 69.803586 
L 77.702755 67.913633 
L 77.988867 68.998355 
L 78.274979 68.550028 
L 78.847203 66.490391 
L 79.133315 67.574615 
L 79.419427 65.897768 
L 79.705539 65.682744 
L 80.277763 67.337424 
L 80.563875 65.568684 
L 81.136099 59.489581 
L 81.422211 60.135646 
L 81.708323 59.375252 
L 81.994435 58.184564 
L 82.280547 58.757168 
L 82.566659 57.977686 
L 82.852771 58.592215 
L 83.138883 58.897884 
L 83.424995 58.424852 
L 83.711107 59.894882 
L 84.283331 59.914334 
L 84.855555 61.763179 
L 85.141667 61.358167 
L 85.713891 63.489732 
L 86.000003 63.778641 
L 86.572227 66.034694 
L 87.144451 67.015183 
L 87.430563 69.640603 
L 87.716675 69.653981 
L 88.002787 70.246222 
L 88.288899 70.362278 
L 88.575011 71.348036 
L 88.861123 68.588429 
L 89.147235 68.773415 
L 89.433347 71.448809 
L 90.005571 74.01682 
L 90.291683 74.809649 
L 90.577795 73.961918 
L 90.863907 74.918738 
L 91.150019 73.878109 
L 91.436131 77.03776 
L 92.008355 78.311823 
L 92.294467 76.854468 
L 92.580579 76.619545 
L 92.866691 76.694561 
L 93.152803 75.731831 
L 93.438915 76.482551 
L 93.725027 78.328276 
L 94.011139 76.437807 
L 94.297251 76.164021 
L 94.583363 78.134707 
L 94.869475 77.354844 
L 95.155587 76.125353 
L 95.441699 76.050471 
L 96.013923 73.000371 
L 96.300035 75.200093 
L 96.872259 73.14426 
L 97.730595 69.359436 
L 98.016707 69.32547 
L 98.302819 71.322174 
L 98.588931 72.123067 
L 98.875043 73.415706 
L 99.161155 73.71231 
L 99.447267 73.282756 
L 99.733379 73.703154 
L 100.019491 72.795225 
L 100.305603 73.626327 
L 100.591715 73.644029 
L 100.877827 71.096628 
L 101.450051 69.217717 
L 102.022275 70.331699 
L 102.594499 68.487211 
L 102.880611 69.962958 
L 103.166723 70.753874 
L 103.452835 69.74946 
L 103.738947 69.331864 
L 104.025059 68.333584 
L 104.311171 64.948215 
L 104.597283 65.477361 
L 104.883395 66.825744 
L 105.169507 67.088016 
L 105.455619 70.202552 
L 105.741731 66.959193 
L 106.027843 68.695424 
L 106.313955 68.234257 
L 106.600067 68.255866 
L 107.172291 69.414974 
L 107.458403 67.496501 
L 107.744515 68.916015 
L 108.030627 67.057624 
L 108.316739 66.392288 
L 108.602851 63.630848 
L 108.888963 64.122417 
L 109.175075 66.034215 
L 109.461187 65.060848 
L 109.747299 65.785692 
L 110.319523 70.908636 
L 110.605635 70.889904 
L 110.891747 72.757556 
L 111.177859 70.583446 
L 111.463971 71.43617 
L 111.750083 72.757148 
L 112.036195 72.452663 
L 112.322307 73.601669 
L 112.608419 72.805655 
L 112.894531 73.779931 
L 113.180643 72.725457 
L 113.466755 72.383098 
L 113.752867 73.390414 
L 114.038979 71.73442 
L 114.325091 72.899757 
L 114.611203 72.518374 
L 114.897315 73.776581 
L 115.183427 76.673415 
L 115.755651 73.82836 
L 116.041763 76.470508 
L 116.327875 75.458541 
L 116.613987 76.007621 
L 116.900099 74.834411 
L 117.472323 76.263668 
L 117.758435 76.959868 
L 118.044547 76.964534 
L 118.330659 76.236164 
L 118.616771 77.061918 
L 119.188995 81.343592 
L 119.475107 81.095853 
L 120.047331 78.628766 
L 120.333443 78.777013 
L 120.905667 81.889914 
L 121.477891 78.824722 
L 122.050115 84.365423 
L 122.336227 82.34819 
L 122.622339 83.957971 
L 122.908451 84.04403 
L 123.194563 83.076153 
L 123.480675 84.231833 
L 123.766787 82.009566 
L 124.052899 82.541873 
L 124.339011 83.836043 
L 124.625123 83.883206 
L 124.911235 84.80233 
L 125.197347 83.745776 
L 125.483459 84.205281 
L 125.769571 84.013715 
L 126.055683 84.190172 
L 126.341795 83.849898 
L 126.627907 83.195 
L 126.914019 83.262181 
L 127.200131 81.443158 
L 128.058467 78.821568 
L 128.344579 78.644085 
L 128.630691 77.044033 
L 128.916803 76.652224 
L 129.202915 77.007393 
L 129.489027 74.569398 
L 129.775139 74.774133 
L 130.347363 71.685075 
L 130.633475 73.25516 
L 131.205699 74.221077 
L 131.491811 75.001135 
L 131.777923 72.818376 
L 132.064035 72.142374 
L 132.636259 72.016555 
L 132.922371 71.589541 
L 133.208483 72.601953 
L 133.494595 71.607526 
L 133.780707 74.698372 
L 134.066819 75.02715 
L 134.352931 74.984569 
L 134.639043 76.114799 
L 135.497379 73.036176 
L 135.783491 72.484013 
L 136.355715 73.67176 
L 136.641827 73.575596 
L 136.927939 72.404077 
L 137.214051 73.038873 
L 137.500163 70.835367 
L 137.786275 70.843372 
L 138.072387 70.35621 
L 138.358499 66.725851 
L 138.644611 69.988767 
L 138.930723 71.347386 
L 139.216835 71.850429 
L 139.502947 71.329211 
L 139.789059 72.027682 
L 140.075171 73.820339 
L 140.361283 73.153238 
L 140.647395 74.022863 
L 140.933507 73.884075 
L 141.219618 72.755432 
L 141.50573 74.499526 
L 141.791842 79.091022 
L 142.077954 79.421012 
L 142.364066 78.774853 
L 142.650178 79.522405 
L 142.93629 79.599143 
L 143.508514 80.413307 
L 143.794626 79.403634 
L 144.080738 80.226645 
L 144.36685 79.033354 
L 144.652962 80.707948 
L 144.939074 80.904109 
L 145.225186 80.120815 
L 145.511298 82.567683 
L 145.79741 83.187598 
L 146.083522 81.510471 
L 146.655746 84.872816 
L 146.941858 84.470156 
L 147.22797 85.170861 
L 147.514082 84.496325 
L 147.800194 87.482181 
L 148.086306 86.227571 
L 148.372418 86.481293 
L 148.65853 87.357357 
L 148.944642 87.652709 
L 149.230754 88.344478 
L 149.802978 93.150034 
L 150.08909 92.367089 
L 150.375202 92.982212 
L 150.661314 94.156249 
L 150.947426 92.140967 
L 151.233538 93.919519 
L 151.51965 93.895272 
L 151.805762 94.936915 
L 152.091874 94.834976 
L 152.377986 92.226433 
L 152.664098 93.049288 
L 152.95021 94.326593 
L 153.236322 93.557235 
L 153.522434 96.024339 
L 154.094658 90.722238 
L 154.38077 91.007062 
L 154.666882 91.765075 
L 154.952994 92.032645 
L 155.239106 91.36551 
L 155.525218 89.185658 
L 155.81133 89.476451 
L 156.383554 91.355373 
L 156.669666 91.652008 
L 156.955778 92.487141 
L 157.24189 92.685536 
L 157.528002 94.349612 
L 157.814114 93.654849 
L 158.100226 93.506819 
L 158.386338 93.501502 
L 158.958562 92.551808 
L 159.244674 92.490533 
L 159.816898 90.016934 
L 160.10301 89.673462 
L 160.389122 90.469564 
L 160.961346 92.876984 
L 161.247458 93.096865 
L 161.53357 92.669242 
L 161.819682 94.219594 
L 162.105794 93.695984 
L 162.391906 94.032339 
L 162.678018 95.20861 
L 162.96413 95.003454 
L 163.250242 91.809268 
L 163.536354 92.269224 
L 163.822466 91.405184 
L 164.680802 93.400985 
L 164.966914 90.838169 
L 165.253026 89.97106 
L 165.539138 89.677471 
L 165.82525 89.556563 
L 166.111362 87.480613 
L 166.397474 87.262083 
L 166.683586 84.966076 
L 166.969698 88.104587 
L 167.25581 89.270999 
L 167.541922 85.682785 
L 167.828034 84.90766 
L 168.114146 82.767104 
L 168.400258 81.572939 
L 168.68637 81.48632 
L 168.972482 82.413334 
L 169.258594 82.930582 
L 169.544706 82.576913 
L 169.830818 81.980251 
L 170.11693 80.851548 
L 170.403042 81.074722 
L 170.689154 81.132704 
L 170.975266 80.421001 
L 171.261378 81.82377 
L 171.54749 80.92737 
L 171.833602 83.25183 
L 172.119714 84.307424 
L 172.691938 82.639285 
L 172.97805 83.543488 
L 173.264162 84.989734 
L 173.836386 89.591975 
L 174.122498 87.559689 
L 174.40861 88.32844 
L 174.694722 88.205095 
L 174.980834 89.708082 
L 175.266946 90.415565 
L 175.553058 90.60677 
L 175.83917 89.901432 
L 176.125282 90.902876 
L 176.411394 92.560867 
L 176.697506 91.739521 
L 177.26973 93.972036 
L 177.555842 93.544099 
L 177.841954 96.988588 
L 178.128066 97.074346 
L 178.414178 97.573649 
L 178.70029 95.36713 
L 178.986402 97.437375 
L 179.272514 97.844756 
L 179.558626 96.697583 
L 180.13085 100.307898 
L 180.703074 96.101026 
L 180.989186 96.266521 
L 181.275298 92.593404 
L 181.56141 92.816008 
L 181.847522 93.715901 
L 182.133634 91.017162 
L 182.419746 91.732084 
L 182.705858 89.519053 
L 182.99197 91.534148 
L 183.278082 91.002612 
L 183.564194 92.099392 
L 183.850306 88.903095 
L 184.136418 88.194079 
L 184.42253 87.990793 
L 184.708642 86.303334 
L 184.994754 85.574057 
L 185.280866 86.475158 
L 185.566978 86.84832 
L 185.85309 86.845878 
L 186.425314 84.460447 
L 186.711426 84.362828 
L 186.997538 83.316114 
L 187.28365 82.700167 
L 187.569762 80.958617 
L 187.855874 81.744373 
L 188.141986 81.263884 
L 188.428098 80.263811 
L 188.71421 81.024582 
L 189.286434 78.369709 
L 189.572546 80.535055 
L 189.858658 81.499304 
L 190.430882 78.633562 
L 191.003106 79.625564 
L 191.57533 76.356783 
L 191.861442 75.405734 
L 192.433666 76.57663 
L 192.719778 76.431331 
L 193.00589 75.229074 
L 193.292002 75.465643 
L 193.578114 74.94216 
L 193.864226 74.848459 
L 194.150338 77.536315 
L 194.43645 78.505571 
L 194.722562 75.5021 
L 195.008674 74.88373 
L 195.294786 76.07727 
L 195.86701 79.568548 
L 196.153122 79.664747 
L 196.439234 79.597393 
L 196.725346 81.10107 
L 197.011458 81.246836 
L 197.29757 79.419456 
L 197.583682 78.85758 
L 197.869794 79.486994 
L 198.155906 78.126728 
L 198.442018 78.795543 
L 198.72813 78.709669 
L 199.014242 78.822651 
L 199.586466 81.23298 
L 199.872578 81.028115 
L 200.15869 80.963599 
L 200.444802 81.808684 
L 200.730914 80.424254 
L 201.303138 76.532977 
L 201.58925 77.153746 
L 201.875362 78.936807 
L 202.161474 79.822243 
L 202.447586 77.284563 
L 202.733698 79.383638 
L 203.01981 78.008758 
L 203.305922 78.208057 
L 203.592034 78.05833 
L 203.878146 79.803515 
L 204.45037 86.198606 
L 205.022594 82.755187 
L 205.308706 82.51211 
L 205.594818 81.747063 
L 205.88093 82.305829 
L 206.167042 84.086021 
L 206.453154 85.084728 
L 206.739266 84.472937 
L 207.025378 85.162726 
L 207.31149 86.674344 
L 207.597602 87.564428 
L 208.169826 91.587995 
L 208.455938 89.815938 
L 209.028162 91.929212 
L 209.314274 92.132106 
L 209.600386 92.573447 
L 210.17261 90.601201 
L 210.744834 93.551236 
L 211.030946 92.368878 
L 211.317058 92.095635 
L 211.60317 89.812923 
L 211.889282 89.181685 
L 212.175394 88.865789 
L 212.461506 88.915251 
L 212.461506 88.915251 
" clip-path="url(#p53d3d55ec2)" style="fill: none; stroke: #00bfbf; stroke-width: 1.5; stroke-linecap: square"/>
   </g>
   <g id="matplotlib.axis_1">
    <g id="xtick_1">
     <g id="line2d_2">
      <defs>
       <path id="maaa1f50416" d="M 0 0 
L 0 3.5 
" style="stroke: #000000; stroke-width: 0.8"/>
      </defs>
      <g>
       <use xlink:href="#maaa1f50416" x="69.691619" y="104.3725" style="stroke: #000000; stroke-width: 0.8"/>
      </g>
     </g>
     <g id="text_1">
      <!-- 0.0 -->
      <g transform="translate(60.149744 120.490625)scale(0.12 -0.12)">
       <defs>
        <path id="DejaVuSans-30" d="M 2034 4250 
Q 1547 4250 1301 3770 
Q 1056 3291 1056 2328 
Q 1056 1369 1301 889 
Q 1547 409 2034 409 
Q 2525 409 2770 889 
Q 3016 1369 3016 2328 
Q 3016 3291 2770 3770 
Q 2525 4250 2034 4250 
z
M 2034 4750 
Q 2819 4750 3233 4129 
Q 3647 3509 3647 2328 
Q 3647 1150 3233 529 
Q 2819 -91 2034 -91 
Q 1250 -91 836 529 
Q 422 1150 422 2328 
Q 422 3509 836 4129 
Q 1250 4750 2034 4750 
z
" transform="scale(0.015625)"/>
        <path id="DejaVuSans-2e" d="M 684 794 
L 1344 794 
L 1344 0 
L 684 0 
L 684 794 
z
" transform="scale(0.015625)"/>
       </defs>
       <use xlink:href="#DejaVuSans-30"/>
       <use xlink:href="#DejaVuSans-2e" x="63.623047"/>
       <use xlink:href="#DejaVuSans-30" x="95.410156"/>
      </g>
     </g>
    </g>
    <g id="xtick_2">
     <g id="line2d_3">
      <g>
       <use xlink:href="#maaa1f50416" x="126.914019" y="104.3725" style="stroke: #000000; stroke-width: 0.8"/>
      </g>
     </g>
     <g id="text_2">
      <!-- 0.2 -->
      <g transform="translate(117.372144 120.490625)scale(0.12 -0.12)">
       <defs>
        <path id="DejaVuSans-32" d="M 1228 531 
L 3431 531 
L 3431 0 
L 469 0 
L 469 531 
Q 828 903 1448 1529 
Q 2069 2156 2228 2338 
Q 2531 2678 2651 2914 
Q 2772 3150 2772 3378 
Q 2772 3750 2511 3984 
Q 2250 4219 1831 4219 
Q 1534 4219 1204 4116 
Q 875 4013 500 3803 
L 500 4441 
Q 881 4594 1212 4672 
Q 1544 4750 1819 4750 
Q 2544 4750 2975 4387 
Q 3406 4025 3406 3419 
Q 3406 3131 3298 2873 
Q 3191 2616 2906 2266 
Q 2828 2175 2409 1742 
Q 1991 1309 1228 531 
z
" transform="scale(0.015625)"/>
       </defs>
       <use xlink:href="#DejaVuSans-30"/>
       <use xlink:href="#DejaVuSans-2e" x="63.623047"/>
       <use xlink:href="#DejaVuSans-32" x="95.410156"/>
      </g>
     </g>
    </g>
    <g id="xtick_3">
     <g id="line2d_4">
      <g>
       <use xlink:href="#maaa1f50416" x="184.136418" y="104.3725" style="stroke: #000000; stroke-width: 0.8"/>
      </g>
     </g>
     <g id="text_3">
      <!-- 0.4 -->
      <g transform="translate(174.594543 120.490625)scale(0.12 -0.12)">
       <defs>
        <path id="DejaVuSans-34" d="M 2419 4116 
L 825 1625 
L 2419 1625 
L 2419 4116 
z
M 2253 4666 
L 3047 4666 
L 3047 1625 
L 3713 1625 
L 3713 1100 
L 3047 1100 
L 3047 0 
L 2419 0 
L 2419 1100 
L 313 1100 
L 313 1709 
L 2253 4666 
z
" transform="scale(0.015625)"/>
       </defs>
       <use xlink:href="#DejaVuSans-30"/>
       <use xlink:href="#DejaVuSans-2e" x="63.623047"/>
       <use xlink:href="#DejaVuSans-34" x="95.410156"/>
      </g>
     </g>
    </g>
    <g id="text_4">
     <!-- Time (s) -->
     <g transform="translate(116.681875 136.104375)scale(0.12 -0.12)">
      <defs>
       <path id="DejaVuSans-54" d="M -19 4666 
L 3928 4666 
L 3928 4134 
L 2272 4134 
L 2272 0 
L 1638 0 
L 1638 4134 
L -19 4134 
L -19 4666 
z
" transform="scale(0.015625)"/>
       <path id="DejaVuSans-69" d="M 603 3500 
L 1178 3500 
L 1178 0 
L 603 0 
L 603 3500 
z
M 603 4863 
L 1178 4863 
L 1178 4134 
L 603 4134 
L 603 4863 
z
" transform="scale(0.015625)"/>
       <path id="DejaVuSans-6d" d="M 3328 2828 
Q 3544 3216 3844 3400 
Q 4144 3584 4550 3584 
Q 5097 3584 5394 3201 
Q 5691 2819 5691 2113 
L 5691 0 
L 5113 0 
L 5113 2094 
Q 5113 2597 4934 2840 
Q 4756 3084 4391 3084 
Q 3944 3084 3684 2787 
Q 3425 2491 3425 1978 
L 3425 0 
L 2847 0 
L 2847 2094 
Q 2847 2600 2669 2842 
Q 2491 3084 2119 3084 
Q 1678 3084 1418 2786 
Q 1159 2488 1159 1978 
L 1159 0 
L 581 0 
L 581 3500 
L 1159 3500 
L 1159 2956 
Q 1356 3278 1631 3431 
Q 1906 3584 2284 3584 
Q 2666 3584 2933 3390 
Q 3200 3197 3328 2828 
z
" transform="scale(0.015625)"/>
       <path id="DejaVuSans-65" d="M 3597 1894 
L 3597 1613 
L 953 1613 
Q 991 1019 1311 708 
Q 1631 397 2203 397 
Q 2534 397 2845 478 
Q 3156 559 3463 722 
L 3463 178 
Q 3153 47 2828 -22 
Q 2503 -91 2169 -91 
Q 1331 -91 842 396 
Q 353 884 353 1716 
Q 353 2575 817 3079 
Q 1281 3584 2069 3584 
Q 2775 3584 3186 3129 
Q 3597 2675 3597 1894 
z
M 3022 2063 
Q 3016 2534 2758 2815 
Q 2500 3097 2075 3097 
Q 1594 3097 1305 2825 
Q 1016 2553 972 2059 
L 3022 2063 
z
" transform="scale(0.015625)"/>
       <path id="DejaVuSans-20" transform="scale(0.015625)"/>
       <path id="DejaVuSans-28" d="M 1984 4856 
Q 1566 4138 1362 3434 
Q 1159 2731 1159 2009 
Q 1159 1288 1364 580 
Q 1569 -128 1984 -844 
L 1484 -844 
Q 1016 -109 783 600 
Q 550 1309 550 2009 
Q 550 2706 781 3412 
Q 1013 4119 1484 4856 
L 1984 4856 
z
" transform="scale(0.015625)"/>
       <path id="DejaVuSans-73" d="M 2834 3397 
L 2834 2853 
Q 2591 2978 2328 3040 
Q 2066 3103 1784 3103 
Q 1356 3103 1142 2972 
Q 928 2841 928 2578 
Q 928 2378 1081 2264 
Q 1234 2150 1697 2047 
L 1894 2003 
Q 2506 1872 2764 1633 
Q 3022 1394 3022 966 
Q 3022 478 2636 193 
Q 2250 -91 1575 -91 
Q 1294 -91 989 -36 
Q 684 19 347 128 
L 347 722 
Q 666 556 975 473 
Q 1284 391 1588 391 
Q 1994 391 2212 530 
Q 2431 669 2431 922 
Q 2431 1156 2273 1281 
Q 2116 1406 1581 1522 
L 1381 1569 
Q 847 1681 609 1914 
Q 372 2147 372 2553 
Q 372 3047 722 3315 
Q 1072 3584 1716 3584 
Q 2034 3584 2315 3537 
Q 2597 3491 2834 3397 
z
" transform="scale(0.015625)"/>
       <path id="DejaVuSans-29" d="M 513 4856 
L 1013 4856 
Q 1481 4119 1714 3412 
Q 1947 2706 1947 2009 
Q 1947 1309 1714 600 
Q 1481 -109 1013 -844 
L 513 -844 
Q 928 -128 1133 580 
Q 1338 1288 1338 2009 
Q 1338 2731 1133 3434 
Q 928 4138 513 4856 
z
" transform="scale(0.015625)"/>
      </defs>
      <use xlink:href="#DejaVuSans-54"/>
      <use xlink:href="#DejaVuSans-69" x="57.958984"/>
      <use xlink:href="#DejaVuSans-6d" x="85.742188"/>
      <use xlink:href="#DejaVuSans-65" x="183.154297"/>
      <use xlink:href="#DejaVuSans-20" x="244.677734"/>
      <use xlink:href="#DejaVuSans-28" x="276.464844"/>
      <use xlink:href="#DejaVuSans-73" x="315.478516"/>
      <use xlink:href="#DejaVuSans-29" x="367.578125"/>
     </g>
    </g>
   </g>
   <g id="matplotlib.axis_2">
    <g id="ytick_1">
     <g id="line2d_5">
      <defs>
       <path id="mdc37214cfa" d="M 0 0 
L -3.5 0 
" style="stroke: #000000; stroke-width: 0.8"/>
      </defs>
      <g>
       <use xlink:href="#mdc37214cfa" x="62.553125" y="101.793781" style="stroke: #000000; stroke-width: 0.8"/>
      </g>
     </g>
     <g id="text_5">
      <!-- −0.1 -->
      <g transform="translate(26.41375 106.352844)scale(0.12 -0.12)">
       <defs>
        <path id="DejaVuSans-2212" d="M 678 2272 
L 4684 2272 
L 4684 1741 
L 678 1741 
L 678 2272 
z
" transform="scale(0.015625)"/>
        <path id="DejaVuSans-31" d="M 794 531 
L 1825 531 
L 1825 4091 
L 703 3866 
L 703 4441 
L 1819 4666 
L 2450 4666 
L 2450 531 
L 3481 531 
L 3481 0 
L 794 0 
L 794 531 
z
" transform="scale(0.015625)"/>
       </defs>
       <use xlink:href="#DejaVuSans-2212"/>
       <use xlink:href="#DejaVuSans-30" x="83.789062"/>
       <use xlink:href="#DejaVuSans-2e" x="147.412109"/>
       <use xlink:href="#DejaVuSans-31" x="179.199219"/>
      </g>
     </g>
    </g>
    <g id="ytick_2">
     <g id="line2d_6">
      <g>
       <use xlink:href="#mdc37214cfa" x="62.553125" y="72.966863" style="stroke: #000000; stroke-width: 0.8"/>
      </g>
     </g>
     <g id="text_6">
      <!-- 0.0 -->
      <g transform="translate(36.469375 77.525926)scale(0.12 -0.12)">
       <use xlink:href="#DejaVuSans-30"/>
       <use xlink:href="#DejaVuSans-2e" x="63.623047"/>
       <use xlink:href="#DejaVuSans-30" x="95.410156"/>
      </g>
     </g>
    </g>
    <g id="ytick_3">
     <g id="line2d_7">
      <g>
       <use xlink:href="#mdc37214cfa" x="62.553125" y="44.139945" style="stroke: #000000; stroke-width: 0.8"/>
      </g>
     </g>
     <g id="text_7">
      <!-- 0.1 -->
      <g transform="translate(36.469375 48.699008)scale(0.12 -0.12)">
       <use xlink:href="#DejaVuSans-30"/>
       <use xlink:href="#DejaVuSans-2e" x="63.623047"/>
       <use xlink:href="#DejaVuSans-31" x="95.410156"/>
      </g>
     </g>
    </g>
    <g id="ytick_4">
     <g id="line2d_8">
      <g>
       <use xlink:href="#mdc37214cfa" x="62.553125" y="15.313027" style="stroke: #000000; stroke-width: 0.8"/>
      </g>
     </g>
     <g id="text_8">
      <!-- 0.2 -->
      <g transform="translate(36.469375 19.87209)scale(0.12 -0.12)">
       <use xlink:href="#DejaVuSans-30"/>
       <use xlink:href="#DejaVuSans-2e" x="63.623047"/>
       <use xlink:href="#DejaVuSans-32" x="95.410156"/>
      </g>
     </g>
    </g>
    <g id="text_9">
     <!-- x -->
     <g transform="translate(19.918125 63.213127)rotate(-90)scale(0.12 -0.12)">
      <defs>
       <path id="DejaVuSans-78" d="M 3513 3500 
L 2247 1797 
L 3578 0 
L 2900 0 
L 1881 1375 
L 863 0 
L 184 0 
L 1544 1831 
L 300 3500 
L 978 3500 
L 1906 2253 
L 2834 3500 
L 3513 3500 
z
" transform="scale(0.015625)"/>
      </defs>
      <use xlink:href="#DejaVuSans-78"/>
     </g>
    </g>
   </g>
   <g id="line2d_9">
    <path d="M 69.691619 72.966863 
L 69.977731 73.392792 
L 70.263843 72.172619 
L 70.549955 71.759938 
L 70.836067 70.209563 
L 71.122179 71.96414 
L 71.980515 69.428908 
L 72.552739 69.832721 
L 72.838851 70.549268 
L 73.124963 70.236714 
L 73.697187 71.059235 
L 73.983299 72.392108 
L 74.269411 71.597859 
L 74.555523 73.219335 
L 75.127747 71.131868 
L 75.986083 73.945716 
L 76.272195 72.506763 
L 76.558307 72.087005 
L 76.844419 71.158078 
L 77.130531 72.005657 
L 77.702755 70.400773 
L 77.988867 71.742104 
L 78.274979 71.416253 
L 78.561091 70.37873 
L 78.847203 69.770491 
L 79.133315 71.174352 
L 79.419427 69.676756 
L 79.705539 69.790743 
L 80.277763 71.967256 
L 80.563875 70.298477 
L 81.136099 65.026205 
L 81.422211 66.466336 
L 81.708323 66.355994 
L 81.994435 65.826393 
L 82.280547 67.113044 
L 82.566659 66.918944 
L 83.138883 68.926794 
L 83.424995 68.857769 
L 83.711107 70.738708 
L 84.283331 71.178822 
L 84.855555 73.27904 
L 85.141667 72.842811 
L 85.713891 74.883171 
L 86.000003 74.98045 
L 86.572227 76.738224 
L 86.858339 76.925848 
L 87.144451 76.945677 
L 87.430563 79.173216 
L 87.716675 78.565959 
L 88.002787 78.59829 
L 88.288899 78.151204 
L 88.575011 78.618528 
L 88.861123 75.293754 
L 89.147235 75.246051 
L 89.433347 77.693526 
L 89.719459 78.724222 
L 90.005571 79.213136 
L 90.291683 79.381337 
L 90.577795 77.892159 
L 90.863907 78.356449 
L 91.150019 76.776861 
L 91.436131 79.555513 
L 91.722243 79.422492 
L 92.008355 79.525148 
L 92.294467 77.411964 
L 92.580579 76.732532 
L 92.866691 76.43098 
L 93.152803 75.121839 
L 93.438915 75.657061 
L 93.725027 77.233766 
L 94.011139 74.916607 
L 94.297251 74.447846 
L 94.583363 76.270435 
L 95.155587 73.711388 
L 95.441699 73.562054 
L 95.727811 71.637773 
L 96.013923 70.585344 
L 96.300035 73.023218 
L 97.444483 69.608142 
L 97.730595 68.077291 
L 98.016707 68.532282 
L 98.302819 70.972443 
L 99.161155 73.621634 
L 99.447267 73.126603 
L 99.733379 73.531027 
L 100.019491 72.566682 
L 100.305603 73.437802 
L 100.591715 73.40841 
L 100.877827 70.816854 
L 101.450051 69.435315 
L 102.022275 71.153356 
L 102.308387 70.217109 
L 102.594499 69.765194 
L 102.880611 71.561108 
L 103.166723 72.492599 
L 103.452835 71.535611 
L 103.738947 71.261141 
L 104.025059 70.433433 
L 104.311171 67.301407 
L 104.597283 68.397099 
L 104.883395 70.202458 
L 105.169507 70.741171 
L 105.455619 74.078276 
L 105.741731 70.723776 
L 106.027843 72.684315 
L 106.313955 72.251403 
L 106.600067 72.344558 
L 107.172291 73.556506 
L 107.458403 71.579069 
L 107.744515 73.137363 
L 108.030627 71.261921 
L 108.316739 70.76708 
L 108.602851 68.225618 
L 108.888963 69.191312 
L 109.175075 71.480665 
L 109.461187 70.655917 
L 109.747299 71.611856 
L 110.319523 76.735404 
L 110.605635 76.339818 
L 110.891747 77.870175 
L 111.177859 75.205734 
L 111.463971 75.834571 
L 111.750083 76.868778 
L 112.036195 76.174102 
L 112.322307 77.002384 
L 112.608419 75.802817 
L 112.894531 76.493498 
L 113.180643 75.086361 
L 113.466755 74.532053 
L 113.752867 75.382849 
L 114.038979 73.485257 
L 114.325091 74.598754 
L 114.611203 74.054183 
L 114.897315 75.203658 
L 115.183427 77.876811 
L 115.755651 74.260296 
L 116.041763 76.7731 
L 116.327875 75.38051 
L 116.613987 75.688225 
L 116.900099 74.242879 
L 117.758435 75.825041 
L 118.044547 75.543888 
L 118.330659 74.557817 
L 118.616771 75.224474 
L 118.902883 77.589763 
L 119.188995 78.818098 
L 119.475107 77.985235 
L 120.047331 74.695081 
L 120.333443 74.670506 
L 120.905667 77.281174 
L 121.477891 73.548216 
L 122.050115 78.725894 
L 122.336227 76.132759 
L 122.622339 77.42595 
L 122.908451 77.066101 
L 123.194563 75.6883 
L 123.480675 76.571836 
L 123.766787 73.989072 
L 124.052899 74.419158 
L 124.339011 75.568099 
L 124.625123 75.355137 
L 124.911235 76.035435 
L 125.197347 74.672023 
L 125.483459 74.961012 
L 125.769571 74.570032 
L 126.055683 74.586172 
L 126.341795 74.083967 
L 126.627907 73.317358 
L 126.914019 73.34949 
L 127.200131 71.492204 
L 127.772355 70.043494 
L 128.058467 69.535733 
L 128.344579 69.701363 
L 128.630691 68.427861 
L 128.916803 68.489952 
L 129.202915 69.292812 
L 129.489027 67.222223 
L 129.775139 68.001421 
L 130.061251 66.652139 
L 130.347363 66.04038 
L 130.633475 68.303114 
L 131.491811 71.181251 
L 131.777923 69.177053 
L 132.064035 68.880032 
L 132.636259 69.535707 
L 132.922371 69.451808 
L 133.208483 70.815726 
L 133.494595 70.036413 
L 133.780707 73.420304 
L 134.066819 73.703738 
L 134.352931 73.587469 
L 134.639043 74.655639 
L 135.497379 71.430587 
L 135.783491 71.032051 
L 136.355715 72.523448 
L 136.641827 72.471626 
L 136.927939 71.349631 
L 137.214051 72.146151 
L 137.500163 70.024716 
L 137.786275 70.326936 
L 138.072387 70.103766 
L 138.358499 66.759717 
L 138.644611 70.643348 
L 138.930723 72.234318 
L 139.216835 72.810615 
L 139.502947 72.305023 
L 139.789059 73.069677 
L 140.075171 74.852053 
L 140.361283 73.996434 
L 140.647395 74.763102 
L 140.933507 74.44469 
L 141.219618 73.168264 
L 141.50573 74.892218 
L 141.791842 79.291179 
L 142.077954 78.988737 
L 142.364066 77.74039 
L 142.650178 78.01059 
L 142.93629 77.582955 
L 143.508514 77.480011 
L 143.794626 76.019024 
L 144.080738 76.536818 
L 144.36685 74.986532 
L 144.652962 76.459159 
L 144.939074 76.30609 
L 145.225186 75.188873 
L 145.511298 77.41354 
L 145.79741 77.588788 
L 146.083522 75.449468 
L 146.655746 78.153761 
L 146.941858 77.232411 
L 147.22797 77.506562 
L 147.514082 76.378056 
L 147.800194 79.022793 
L 148.086306 77.16259 
L 148.372418 76.996739 
L 148.65853 77.469816 
L 148.944642 77.314872 
L 149.230754 77.57184 
L 149.802978 81.244401 
L 150.08909 79.633701 
L 150.375202 79.58214 
L 150.661314 80.09465 
L 150.947426 77.366589 
L 151.233538 78.705169 
L 151.51965 78.107091 
L 151.805762 78.634711 
L 152.091874 77.965988 
L 152.377986 74.857532 
L 152.664098 75.49132 
L 152.95021 76.51618 
L 153.236322 75.39189 
L 153.522434 77.616491 
L 153.808546 73.906752 
L 154.094658 71.755439 
L 154.38077 72.161405 
L 154.666882 72.999964 
L 154.952994 73.264224 
L 155.239106 72.567353 
L 155.525218 70.427452 
L 155.81133 70.972186 
L 156.383554 73.128252 
L 156.669666 73.408749 
L 156.955778 74.199693 
L 157.24189 74.274805 
L 157.528002 75.808087 
L 157.814114 74.829202 
L 158.100226 74.494938 
L 158.386338 74.336813 
L 158.958562 73.183997 
L 159.244674 73.101008 
L 159.530786 71.613933 
L 159.816898 70.749289 
L 160.10301 70.627574 
L 160.389122 71.657605 
L 160.675234 73.254113 
L 160.961346 74.167225 
L 161.247458 74.26707 
L 161.53357 73.709426 
L 161.819682 75.185523 
L 162.105794 74.440047 
L 162.391906 74.629083 
L 162.678018 75.639132 
L 162.96413 75.16675 
L 163.250242 71.752575 
L 163.536354 72.33396 
L 163.822466 71.53321 
L 164.680802 73.719231 
L 164.966914 71.081179 
L 165.253026 70.402638 
L 165.539138 70.365472 
L 165.82525 70.504703 
L 166.111362 68.674969 
L 166.397474 68.885628 
L 166.683586 66.997744 
L 166.969698 70.733168 
L 167.25581 72.122949 
L 167.541922 68.619126 
L 167.828034 68.278776 
L 168.114146 66.607028 
L 168.400258 66.048847 
L 168.68637 66.65403 
L 169.258594 69.205028 
L 169.544706 69.227543 
L 169.830818 69.004813 
L 170.11693 68.272315 
L 170.689154 69.423118 
L 170.975266 69.065789 
L 171.261378 70.858666 
L 171.54749 70.173085 
L 171.833602 72.776923 
L 172.119714 73.851511 
L 172.691938 72.10842 
L 172.97805 73.098468 
L 173.264162 74.531553 
L 173.836386 78.604433 
L 174.122498 76.008391 
L 174.40861 76.472989 
L 174.694722 75.999032 
L 174.980834 77.198801 
L 175.266946 77.483091 
L 175.553058 77.222673 
L 175.83917 76.091754 
L 176.125282 76.780709 
L 176.411394 78.057315 
L 176.697506 76.726924 
L 177.26973 78.126718 
L 177.555842 77.182796 
L 177.841954 80.205691 
L 178.128066 79.567566 
L 178.414178 79.406799 
L 178.70029 76.556286 
L 178.986402 78.26759 
L 179.272514 78.144898 
L 179.558626 76.479921 
L 179.844738 78.249168 
L 180.13085 79.2107 
L 180.416962 76.016659 
L 180.703074 74.074464 
L 180.989186 74.1292 
L 181.275298 70.339849 
L 181.56141 70.825155 
L 181.847522 71.939219 
L 182.133634 69.343244 
L 182.419746 70.420528 
L 182.705858 68.46213 
L 182.99197 70.927699 
L 183.278082 70.600079 
L 183.564194 71.933537 
L 183.850306 68.840574 
L 184.136418 68.544186 
L 184.42253 68.783168 
L 184.708642 67.514079 
L 184.994754 67.33008 
L 185.280866 68.794859 
L 185.566978 69.585221 
L 185.85309 69.920944 
L 186.139202 69.223969 
L 186.425314 68.214394 
L 186.711426 68.592022 
L 186.997538 67.982792 
L 187.28365 67.865253 
L 187.569762 66.633863 
L 187.855874 68.052919 
L 188.141986 68.063825 
L 188.428098 67.554056 
L 188.71421 68.856107 
L 189.286434 67.103776 
L 189.572546 69.855431 
L 189.858658 71.130823 
L 190.430882 68.769707 
L 191.003106 70.51472 
L 191.57533 67.891368 
L 191.861442 67.447869 
L 192.433666 69.618609 
L 192.719778 69.808135 
L 193.00589 68.92175 
L 193.292002 69.562831 
L 193.578114 69.379751 
L 193.864226 69.644761 
L 194.150338 72.664828 
L 194.43645 73.664288 
L 194.722562 70.591074 
L 195.008674 70.210283 
L 195.580898 73.640721 
L 195.86701 75.232112 
L 196.153122 75.101785 
L 196.439234 74.820939 
L 196.725346 76.139208 
L 197.011458 75.96774 
L 197.29757 73.840272 
L 197.583682 73.191056 
L 197.869794 73.798051 
L 198.155906 72.354666 
L 198.442018 73.0847 
L 198.72813 72.987043 
L 199.014242 73.098007 
L 199.300354 74.52857 
L 199.586466 75.339051 
L 200.15869 74.63944 
L 200.444802 75.317268 
L 201.303138 69.867427 
L 201.58925 70.798141 
L 201.875362 72.798074 
L 202.161474 73.700389 
L 202.447586 71.089356 
L 202.733698 73.376182 
L 203.01981 71.96037 
L 203.305922 72.260319 
L 203.592034 72.181245 
L 203.878146 74.004993 
L 204.164258 77.6995 
L 204.45037 79.823007 
L 205.022594 75.257309 
L 205.308706 74.785188 
L 205.594818 73.838309 
L 205.88093 74.30993 
L 206.167042 75.955815 
L 206.453154 76.655627 
L 206.739266 75.674959 
L 207.025378 76.093939 
L 207.31149 77.292849 
L 207.597602 77.750335 
L 208.169826 80.668777 
L 208.455938 78.126529 
L 208.74205 78.529327 
L 209.028162 79.16759 
L 209.314274 78.750412 
L 209.600386 78.613398 
L 210.17261 75.670068 
L 210.744834 77.944992 
L 211.030946 76.264822 
L 211.317058 75.661783 
L 211.60317 73.109579 
L 211.889282 72.46407 
L 212.175394 72.198453 
L 212.461506 72.324756 
L 212.461506 72.324756 
" clip-path="url(#p53d3d55ec2)" style="fill: none; stroke: #808080; stroke-width: 0.75; stroke-linecap: square"/>
   </g>
   <g id="line2d_10">
    <path d="M 69.691619 72.966863 
L 69.977731 73.108141 
L 70.263843 71.643139 
L 70.549955 70.892626 
L 70.836067 68.974105 
L 71.122179 70.251085 
L 71.980515 66.527207 
L 72.552739 65.978832 
L 72.838851 66.249054 
L 73.124963 65.561604 
L 73.411075 65.52149 
L 73.697187 65.603491 
L 73.983299 66.610519 
L 74.269411 65.622862 
L 74.555523 66.972538 
L 75.127747 64.53754 
L 75.986083 66.691289 
L 76.272195 65.213264 
L 76.558307 64.606953 
L 76.844419 63.433121 
L 77.130531 63.892003 
L 77.702755 61.581034 
L 77.988867 62.410754 
L 78.274979 61.722129 
L 78.847203 59.13853 
L 79.133315 59.934404 
L 79.419427 57.982374 
L 79.705539 57.447791 
L 80.277763 58.443007 
L 80.563875 56.368556 
L 81.136099 49.45976 
L 81.422211 49.787219 
L 81.994435 47.22045 
L 82.280547 47.57817 
L 82.566659 46.569268 
L 82.852771 46.988779 
L 83.138883 47.087718 
L 83.424995 46.404612 
L 83.711107 47.683108 
L 84.283331 47.243459 
L 84.855555 48.632063 
L 85.141667 47.947776 
L 85.713891 49.54333 
L 86.000003 49.509808 
L 86.572227 51.087255 
L 86.858339 51.264137 
L 87.144451 51.285216 
L 87.430563 53.515194 
L 87.716675 53.080186 
L 88.002787 53.228197 
L 88.288899 52.898262 
L 88.575011 53.442467 
L 88.861123 50.234956 
L 89.147235 50.066958 
L 89.433347 52.396612 
L 89.719459 53.468802 
L 90.005571 54.085363 
L 90.291683 54.428957 
L 90.577795 53.134111 
L 90.863907 53.646017 
L 91.150019 52.156344 
L 91.436131 54.89127 
L 91.722243 54.976264 
L 92.008355 55.285264 
L 92.294467 53.396094 
L 92.580579 52.713619 
L 92.866691 52.350393 
L 93.152803 50.957662 
L 93.438915 51.325583 
L 93.725027 52.774355 
L 94.011139 50.44449 
L 94.297251 49.808843 
L 94.583363 51.445138 
L 95.441699 48.323709 
L 96.013923 44.821435 
L 96.300035 46.847249 
L 96.872259 44.406375 
L 97.730595 40.181123 
L 98.016707 40.060415 
L 98.302819 41.971246 
L 98.588931 42.651378 
L 98.875043 43.807069 
L 99.161155 43.944229 
L 99.447267 43.352998 
L 99.733379 43.621938 
L 100.019491 42.557707 
L 100.305603 43.254001 
L 100.591715 43.122123 
L 100.877827 40.427727 
L 101.450051 38.374217 
L 102.022275 39.310591 
L 102.594499 37.289955 
L 102.880611 38.676982 
L 103.166723 39.378922 
L 103.452835 38.288964 
L 103.738947 37.781248 
L 104.025059 36.692823 
L 104.311171 33.222429 
L 104.597283 33.70349 
L 104.883395 35.003013 
L 105.169507 35.201908 
L 105.455619 38.250024 
L 105.741731 34.916485 
L 106.027843 36.590648 
L 106.313955 36.045321 
L 106.600067 35.988546 
L 107.172291 36.986048 
L 107.458403 34.980452 
L 107.744515 36.336931 
L 108.030627 34.396828 
L 108.316739 33.676645 
L 108.602851 30.866462 
L 108.888963 31.326322 
L 109.175075 33.195051 
L 109.461187 32.173568 
L 109.747299 32.847765 
L 110.319523 37.852788 
L 110.605635 37.743819 
L 110.891747 39.521386 
L 111.177859 37.262202 
L 111.463971 38.026329 
L 111.750083 39.256973 
L 112.036195 38.866407 
L 112.322307 39.927311 
L 112.608419 39.046076 
L 112.894531 39.933186 
L 113.180643 38.793469 
L 113.466755 38.362653 
L 113.752867 39.279991 
L 114.038979 37.538023 
L 114.325091 38.613747 
L 114.611203 38.143138 
L 114.897315 39.311052 
L 115.183427 42.122054 
L 115.755651 39.06379 
L 116.041763 41.618866 
L 116.327875 40.494624 
L 116.613987 40.953518 
L 116.900099 39.682508 
L 117.472323 40.939998 
L 117.758435 41.538658 
L 118.044547 41.43293 
L 118.330659 40.596604 
L 118.616771 41.330714 
L 119.188995 45.347139 
L 119.475107 44.920294 
L 120.047331 42.125114 
L 120.333443 42.148854 
L 120.905667 44.977193 
L 121.477891 41.586269 
L 122.050115 46.852892 
L 122.336227 44.633171 
L 122.622339 46.071314 
L 122.908451 45.971186 
L 123.194563 44.81836 
L 123.480675 45.800166 
L 123.766787 43.394781 
L 124.052899 43.774853 
L 124.339011 44.910116 
L 124.625123 44.78238 
L 124.911235 45.528048 
L 125.197347 44.290838 
L 125.483459 44.58337 
L 125.769571 44.220804 
L 126.055683 44.231316 
L 126.341795 43.724941 
L 126.627907 42.911974 
L 126.914019 42.83649 
L 127.200131 40.876419 
L 128.058467 37.985419 
L 128.344579 37.717608 
L 128.630691 36.027518 
L 128.916803 35.557545 
L 129.202915 35.840944 
L 129.489027 33.327197 
L 129.775139 33.4839 
L 130.347363 30.299434 
L 130.633475 31.857007 
L 130.919587 32.197556 
L 131.491811 33.453224 
L 131.777923 31.222343 
L 132.064035 30.505406 
L 132.636259 30.342206 
L 132.922371 29.901112 
L 133.208483 30.915874 
L 133.494595 29.888294 
L 133.780707 32.981967 
L 134.066819 33.262181 
L 134.352931 33.171549 
L 134.639043 34.25363 
L 135.497379 31.023269 
L 135.783491 30.434986 
L 136.355715 31.568296 
L 136.641827 31.425169 
L 136.927939 30.208808 
L 137.214051 30.834446 
L 137.500163 28.600191 
L 137.786275 28.648863 
L 138.072387 28.201487 
L 138.358499 24.617259 
L 138.644611 27.911511 
L 138.930723 29.318633 
L 139.216835 29.844419 
L 139.502947 29.327656 
L 139.789059 30.048582 
L 140.075171 31.838073 
L 140.361283 31.121402 
L 140.647395 31.952418 
L 140.933507 31.763454 
L 141.219618 30.585788 
L 141.50573 32.30717 
L 141.791842 36.84809 
L 142.077954 37.091874 
L 142.364066 36.35797 
L 142.650178 37.023592 
L 142.93629 37.012978 
L 143.508514 37.650982 
L 143.794626 36.551407 
L 144.080738 37.290607 
L 144.36685 36.008594 
L 144.652962 37.605261 
L 144.939074 37.711628 
L 145.225186 36.838306 
L 145.511298 39.199037 
L 145.79741 39.732586 
L 146.083522 37.970628 
L 146.655746 41.157815 
L 146.941858 40.653238 
L 147.22797 41.261427 
L 147.514082 40.482758 
L 147.800194 43.378588 
L 148.086306 41.972044 
L 148.372418 42.104985 
L 148.65853 42.857031 
L 148.944642 43.010891 
L 149.230754 43.557926 
L 149.802978 48.02321 
L 150.08909 46.990494 
L 150.375202 47.398832 
L 150.661314 48.350996 
L 150.947426 46.070139 
L 151.233538 47.66252 
L 151.51965 47.405148 
L 151.805762 48.224661 
L 152.091874 47.863281 
L 152.377986 45.012484 
L 152.664098 45.659361 
L 152.95021 46.754866 
L 153.236322 45.785815 
L 153.522434 48.069941 
L 154.094658 42.344975 
L 154.38077 42.499989 
L 154.666882 43.124533 
L 154.952994 43.24506 
L 155.239106 42.428518 
L 155.525218 40.116873 
L 155.81133 40.32142 
L 156.383554 42.008339 
L 156.669666 42.18331 
L 156.955778 42.892523 
L 157.24189 42.948667 
L 157.528002 44.469304 
L 157.814114 43.605056 
L 158.386338 43.145221 
L 158.958562 41.916338 
L 159.244674 41.735637 
L 159.816898 39.060514 
L 160.10301 38.629952 
L 160.389122 39.33689 
L 160.961346 41.565047 
L 161.247458 41.673918 
L 161.53357 41.132713 
L 161.819682 42.581674 
L 162.105794 41.922704 
L 162.391906 42.139479 
L 162.678018 43.190893 
L 162.96413 42.837383 
L 163.250242 39.50213 
L 163.536354 39.876961 
L 163.822466 38.927863 
L 164.680802 40.664142 
L 164.966914 38.008638 
L 165.253026 37.051197 
L 165.82525 36.464347 
L 166.111362 34.305403 
L 166.397474 34.033107 
L 166.683586 31.686074 
L 166.969698 34.776267 
L 167.25581 35.882691 
L 167.541922 32.218169 
L 167.828034 31.392396 
L 168.114146 29.207558 
L 168.400258 28.039549 
L 168.68637 28.000519 
L 168.972482 28.97542 
L 169.258594 29.525251 
L 169.544706 29.187489 
L 169.830818 28.617578 
L 170.11693 27.529233 
L 170.403042 27.802772 
L 170.689154 27.909902 
L 170.975266 27.246712 
L 171.261378 28.70068 
L 171.54749 27.843072 
L 171.833602 30.216454 
L 172.119714 31.262606 
L 172.691938 29.540527 
L 172.97805 30.46011 
L 173.264162 31.888026 
L 173.836386 36.388205 
L 174.122498 34.273678 
L 174.40861 34.989023 
L 174.694722 34.802513 
L 174.980834 36.245126 
L 175.266946 36.871889 
L 175.553058 36.97672 
L 175.83917 36.184317 
L 176.125282 37.105726 
L 176.411394 38.675896 
L 176.697506 37.765569 
L 177.26973 39.819823 
L 177.555842 39.30696 
L 177.841954 42.665599 
L 178.128066 42.614087 
L 178.414178 42.977289 
L 178.70029 40.626731 
L 178.986402 42.604876 
L 179.272514 42.876365 
L 179.558626 41.587285 
L 180.13085 44.930213 
L 180.703074 40.422253 
L 180.989186 40.498502 
L 181.275298 36.735146 
L 181.56141 36.872387 
L 181.847522 37.685903 
L 182.133634 34.897187 
L 182.419746 35.550331 
L 182.705858 33.265634 
L 182.99197 35.23268 
L 183.278082 34.634254 
L 183.564194 35.67307 
L 183.850306 32.403339 
L 184.136418 31.643919 
L 184.42253 31.392761 
L 184.708642 29.661014 
L 184.994754 28.942875 
L 185.280866 29.877378 
L 185.566978 30.253771 
L 185.85309 30.240503 
L 186.425314 27.870261 
L 186.711426 27.821404 
L 186.997538 26.823734 
L 187.28365 26.259651 
L 187.569762 24.569707 
L 187.855874 25.38563 
L 188.141986 24.951131 
L 188.428098 23.989907 
L 188.71421 24.766237 
L 189.286434 22.152646 
L 189.572546 24.310642 
L 189.858658 25.298501 
L 190.430882 22.488339 
L 191.003106 23.46848 
L 191.57533 20.198853 
L 191.861442 19.267373 
L 192.433666 20.534931 
L 192.719778 20.39858 
L 193.00589 19.209162 
L 193.292002 19.510195 
L 193.578114 19.036154 
L 193.864226 19.015855 
L 194.150338 21.778175 
L 194.43645 22.741899 
L 194.722562 19.732286 
L 195.008674 19.152878 
L 195.294786 20.413768 
L 195.86701 23.909837 
L 196.153122 24.019673 
L 196.439234 23.968606 
L 196.725346 25.487327 
L 197.011458 25.680272 
L 197.29757 23.901867 
L 197.583682 23.35344 
L 197.869794 23.984768 
L 198.155906 22.639938 
L 198.442018 23.301928 
L 198.72813 23.217061 
L 199.014242 23.329637 
L 199.586466 25.776512 
L 199.872578 25.621314 
L 200.15869 25.605285 
L 200.444802 26.498715 
L 200.730914 25.166189 
L 201.303138 21.317212 
L 201.58925 21.935427 
L 201.875362 23.712057 
L 202.161474 24.606606 
L 202.447586 22.100001 
L 202.733698 24.191901 
L 203.01981 22.837606 
L 203.305922 23.031588 
L 203.592034 22.878746 
L 203.878146 24.619024 
L 204.45037 31.088591 
L 205.022594 27.632341 
L 205.308706 27.439227 
L 205.594818 26.72485 
L 205.88093 27.335538 
L 206.167042 29.166703 
L 206.453154 30.19277 
L 206.739266 29.572417 
L 207.025378 30.276478 
L 207.31149 31.77643 
L 207.597602 32.617387 
L 208.169826 36.534622 
L 208.455938 34.678908 
L 209.028162 36.662092 
L 209.314274 36.780214 
L 209.600386 37.135845 
L 210.17261 34.997421 
L 210.744834 37.800373 
L 211.030946 36.527843 
L 211.317058 36.171006 
L 211.60317 33.808411 
L 211.889282 33.12777 
L 212.175394 32.763653 
L 212.461506 32.763844 
L 212.461506 32.763844 
" clip-path="url(#p53d3d55ec2)" style="fill: none; stroke: #1f77b4; stroke-width: 1.5; stroke-linecap: square"/>
   </g>
   <g id="line2d_11">
    <path d="M 62.553125 72.966863 
L 219.6 72.966863 
" clip-path="url(#p53d3d55ec2)" style="fill: none; stroke-dasharray: 2.775,1.2; stroke-dashoffset: 0; stroke: #808080; stroke-width: 0.75"/>
   </g>
   <g id="patch_3">
    <path d="M 62.553125 104.3725 
L 62.553125 14.951253 
" style="fill: none; stroke: #000000; stroke-width: 0.8; stroke-linejoin: miter; stroke-linecap: square"/>
   </g>
   <g id="patch_4">
    <path d="M 219.6 104.3725 
L 219.6 14.951253 
" style="fill: none; stroke: #000000; stroke-width: 0.8; stroke-linejoin: miter; stroke-linecap: square"/>
   </g>
   <g id="patch_5">
    <path d="M 62.553125 104.3725 
L 219.6 104.3725 
" style="fill: none; stroke: #000000; stroke-width: 0.8; stroke-linejoin: miter; stroke-linecap: square"/>
   </g>
   <g id="patch_6">
    <path d="M 62.553125 14.951253 
L 219.6 14.951253 
" style="fill: none; stroke: #000000; stroke-width: 0.8; stroke-linejoin: miter; stroke-linecap: square"/>
   </g>
  </g>
  <g id="axes_2">
   <g id="patch_7">
    <path d="M 62.553125 242.9725 
L 219.6 242.9725 
L 219.6 153.551253 
L 62.553125 153.551253 
z
" style="fill: #ffffff"/>
   </g>
   <g id="line2d_12">
    <path d="M 69.691619 213.042754 
L 69.977731 213.468683 
L 70.263843 212.291102 
L 70.549955 211.798997 
L 70.836067 210.127929 
L 71.122179 211.606777 
L 71.980515 208.476388 
L 72.552739 208.196282 
L 72.838851 208.599415 
L 73.124963 208.045101 
L 73.411075 208.14049 
L 73.697187 208.358433 
L 73.983299 209.500543 
L 74.269411 208.648818 
L 74.555523 210.133394 
L 75.127747 207.97477 
L 75.986083 210.560633 
L 76.272195 209.219566 
L 76.558307 208.753798 
L 76.844419 207.736885 
L 77.130531 208.403586 
L 77.702755 206.513633 
L 77.988867 207.598355 
L 78.274979 207.150028 
L 78.847203 205.090391 
L 79.133315 206.174615 
L 79.419427 204.497768 
L 79.705539 204.282744 
L 80.277763 205.937424 
L 80.563875 204.168684 
L 81.136099 198.089581 
L 81.422211 198.735646 
L 81.708323 197.975252 
L 81.994435 196.784564 
L 82.280547 197.357168 
L 82.566659 196.577686 
L 82.852771 197.192215 
L 83.138883 197.497884 
L 83.424995 197.024852 
L 83.711107 198.494882 
L 84.283331 198.514334 
L 84.855555 200.363179 
L 85.141667 199.958167 
L 85.713891 202.089732 
L 86.000003 202.378641 
L 86.572227 204.634694 
L 87.144451 205.615183 
L 87.430563 208.240603 
L 87.716675 208.253981 
L 88.002787 208.846222 
L 88.288899 208.962278 
L 88.575011 209.948036 
L 88.861123 207.188429 
L 89.147235 207.373415 
L 89.433347 210.048809 
L 90.005571 212.61682 
L 90.291683 213.409649 
L 90.577795 212.561918 
L 90.863907 213.518738 
L 91.150019 212.478109 
L 91.436131 215.63776 
L 92.008355 216.911823 
L 92.294467 215.454468 
L 92.580579 215.219545 
L 92.866691 215.294561 
L 93.152803 214.331831 
L 93.438915 215.082551 
L 93.725027 216.928276 
L 94.011139 215.037807 
L 94.297251 214.764021 
L 94.583363 216.734707 
L 94.869475 215.954844 
L 95.155587 214.725353 
L 95.441699 214.650471 
L 96.013923 211.600371 
L 96.300035 213.800093 
L 96.872259 211.74426 
L 97.730595 207.959436 
L 98.016707 207.92547 
L 98.302819 209.922174 
L 98.588931 210.723067 
L 98.875043 212.015706 
L 99.161155 212.31231 
L 99.447267 211.882756 
L 99.733379 212.303154 
L 100.019491 211.395225 
L 100.305603 212.226327 
L 100.591715 212.244029 
L 100.877827 209.696628 
L 101.450051 207.817717 
L 102.022275 208.931699 
L 102.594499 207.087211 
L 102.880611 208.562958 
L 103.166723 209.353874 
L 103.452835 208.34946 
L 103.738947 207.931864 
L 104.025059 206.933584 
L 104.311171 203.548215 
L 104.597283 204.077361 
L 104.883395 205.425744 
L 105.169507 205.688016 
L 105.455619 208.802552 
L 105.741731 205.559193 
L 106.027843 207.295424 
L 106.313955 206.834257 
L 106.600067 206.855866 
L 107.172291 208.014974 
L 107.458403 206.096501 
L 107.744515 207.516015 
L 108.030627 205.657624 
L 108.316739 204.992288 
L 108.602851 202.230848 
L 108.888963 202.722417 
L 109.175075 204.634215 
L 109.461187 203.660848 
L 109.747299 204.385692 
L 110.319523 209.508636 
L 110.605635 209.489904 
L 110.891747 211.357556 
L 111.177859 209.183446 
L 111.463971 210.03617 
L 111.750083 211.357148 
L 112.036195 211.052663 
L 112.322307 212.201669 
L 112.608419 211.405655 
L 112.894531 212.379931 
L 113.180643 211.325457 
L 113.466755 210.983098 
L 113.752867 211.990414 
L 114.038979 210.33442 
L 114.325091 211.499757 
L 114.611203 211.118374 
L 114.897315 212.376581 
L 115.183427 215.273415 
L 115.755651 212.42836 
L 116.041763 215.070508 
L 116.327875 214.058541 
L 116.613987 214.607621 
L 116.900099 213.434411 
L 117.472323 214.863668 
L 117.758435 215.559868 
L 118.044547 215.564534 
L 118.330659 214.836164 
L 118.616771 215.661918 
L 119.188995 219.943592 
L 119.475107 219.695853 
L 120.047331 217.228766 
L 120.333443 217.377013 
L 120.905667 220.489914 
L 121.477891 217.424722 
L 122.050115 222.965423 
L 122.336227 220.94819 
L 122.622339 222.557971 
L 122.908451 222.64403 
L 123.194563 221.676153 
L 123.480675 222.831833 
L 123.766787 220.609566 
L 124.052899 221.141873 
L 124.339011 222.436043 
L 124.625123 222.483206 
L 124.911235 223.40233 
L 125.197347 222.345776 
L 125.483459 222.805281 
L 125.769571 222.613715 
L 126.055683 222.790172 
L 126.341795 222.449898 
L 126.627907 221.795 
L 126.914019 221.862181 
L 127.200131 220.043158 
L 128.058467 217.421568 
L 128.344579 217.244085 
L 128.630691 215.644033 
L 128.916803 215.252224 
L 129.202915 215.607393 
L 129.489027 213.169398 
L 129.775139 213.374133 
L 130.347363 210.285075 
L 130.633475 211.85516 
L 131.205699 212.821077 
L 131.491811 213.601135 
L 131.777923 211.418376 
L 132.064035 210.742374 
L 132.636259 210.616555 
L 132.922371 210.189541 
L 133.208483 211.201953 
L 133.494595 210.207526 
L 133.780707 213.298372 
L 134.066819 213.62715 
L 134.352931 213.584569 
L 134.639043 214.714799 
L 135.497379 211.636176 
L 135.783491 211.084013 
L 136.355715 212.27176 
L 136.641827 212.175596 
L 136.927939 211.004077 
L 137.214051 211.638873 
L 137.500163 209.435367 
L 137.786275 209.443372 
L 138.072387 208.95621 
L 138.358499 205.325851 
L 138.644611 208.588767 
L 138.930723 209.947386 
L 139.216835 210.450429 
L 139.502947 209.929211 
L 139.789059 210.627682 
L 140.075171 212.420339 
L 140.361283 211.753238 
L 140.647395 212.622863 
L 140.933507 212.484075 
L 141.219618 211.355432 
L 141.50573 213.099526 
L 141.791842 217.691022 
L 142.077954 218.021012 
L 142.364066 217.374853 
L 142.650178 218.122405 
L 142.93629 218.199143 
L 143.508514 219.013307 
L 143.794626 218.003634 
L 144.080738 218.826645 
L 144.36685 217.633354 
L 144.652962 219.307948 
L 144.939074 219.504109 
L 145.225186 218.720815 
L 145.511298 221.167683 
L 145.79741 221.787598 
L 146.083522 220.110471 
L 146.655746 223.472816 
L 146.941858 223.070156 
L 147.22797 223.770861 
L 147.514082 223.096325 
L 147.800194 226.082181 
L 148.086306 224.827571 
L 148.372418 225.081293 
L 148.65853 225.957357 
L 148.944642 226.252709 
L 149.230754 226.944478 
L 149.802978 231.750034 
L 150.08909 230.967089 
L 150.375202 231.582212 
L 150.661314 232.756249 
L 150.947426 230.740967 
L 151.233538 232.519519 
L 151.51965 232.495272 
L 151.805762 233.536915 
L 152.091874 233.434976 
L 152.377986 230.826433 
L 152.664098 231.649288 
L 152.95021 232.926593 
L 153.236322 232.157235 
L 153.522434 234.624339 
L 154.094658 229.322238 
L 154.38077 229.607062 
L 154.666882 230.365075 
L 154.952994 230.632645 
L 155.239106 229.96551 
L 155.525218 227.785658 
L 155.81133 228.076451 
L 156.383554 229.955373 
L 156.669666 230.252008 
L 156.955778 231.087141 
L 157.24189 231.285536 
L 157.528002 232.949612 
L 157.814114 232.254849 
L 158.100226 232.106819 
L 158.386338 232.101502 
L 158.958562 231.151808 
L 159.244674 231.090533 
L 159.816898 228.616934 
L 160.10301 228.273462 
L 160.389122 229.069564 
L 160.961346 231.476984 
L 161.247458 231.696865 
L 161.53357 231.269242 
L 161.819682 232.819594 
L 162.105794 232.295984 
L 162.391906 232.632339 
L 162.678018 233.80861 
L 162.96413 233.603454 
L 163.250242 230.409268 
L 163.536354 230.869224 
L 163.822466 230.005184 
L 164.680802 232.000985 
L 164.966914 229.438169 
L 165.253026 228.57106 
L 165.539138 228.277471 
L 165.82525 228.156563 
L 166.111362 226.080613 
L 166.397474 225.862083 
L 166.683586 223.566076 
L 166.969698 226.704587 
L 167.25581 227.870999 
L 167.541922 224.282785 
L 167.828034 223.50766 
L 168.114146 221.367104 
L 168.400258 220.172939 
L 168.68637 220.08632 
L 168.972482 221.013334 
L 169.258594 221.530582 
L 169.544706 221.176913 
L 169.830818 220.580251 
L 170.11693 219.451548 
L 170.403042 219.674722 
L 170.689154 219.732704 
L 170.975266 219.021001 
L 171.261378 220.42377 
L 171.54749 219.52737 
L 171.833602 221.85183 
L 172.119714 222.907424 
L 172.691938 221.239285 
L 172.97805 222.143488 
L 173.264162 223.589734 
L 173.836386 228.191975 
L 174.122498 226.159689 
L 174.40861 226.92844 
L 174.694722 226.805095 
L 174.980834 228.308082 
L 175.266946 229.015565 
L 175.553058 229.20677 
L 175.83917 228.501432 
L 176.125282 229.502876 
L 176.411394 231.160867 
L 176.697506 230.339521 
L 177.26973 232.572036 
L 177.555842 232.144099 
L 177.841954 235.588588 
L 178.128066 235.674346 
L 178.414178 236.173649 
L 178.70029 233.96713 
L 178.986402 236.037375 
L 179.272514 236.444756 
L 179.558626 235.297583 
L 180.13085 238.907898 
L 180.703074 234.701026 
L 180.989186 234.866521 
L 181.275298 231.193404 
L 181.56141 231.416008 
L 181.847522 232.315901 
L 182.133634 229.617162 
L 182.419746 230.332084 
L 182.705858 228.119053 
L 182.99197 230.134148 
L 183.278082 229.602612 
L 183.564194 230.699392 
L 183.850306 227.503095 
L 184.136418 226.794079 
L 184.42253 226.590793 
L 184.708642 224.903334 
L 184.994754 224.174057 
L 185.280866 225.075158 
L 185.566978 225.44832 
L 185.85309 225.445878 
L 186.425314 223.060447 
L 186.711426 222.962828 
L 186.997538 221.916114 
L 187.28365 221.300167 
L 187.569762 219.558617 
L 187.855874 220.344373 
L 188.141986 219.863884 
L 188.428098 218.863811 
L 188.71421 219.624582 
L 189.286434 216.969709 
L 189.572546 219.135055 
L 189.858658 220.099304 
L 190.430882 217.233562 
L 191.003106 218.225564 
L 191.57533 214.956783 
L 191.861442 214.005734 
L 192.433666 215.17663 
L 192.719778 215.031331 
L 193.00589 213.829074 
L 193.292002 214.065643 
L 193.578114 213.54216 
L 193.864226 213.448459 
L 194.150338 216.136315 
L 194.43645 217.105571 
L 194.722562 214.1021 
L 195.008674 213.48373 
L 195.294786 214.67727 
L 195.86701 218.168548 
L 196.153122 218.264747 
L 196.439234 218.197393 
L 196.725346 219.70107 
L 197.011458 219.846836 
L 197.29757 218.019456 
L 197.583682 217.45758 
L 197.869794 218.086994 
L 198.155906 216.726728 
L 198.442018 217.395543 
L 198.72813 217.309669 
L 199.014242 217.422651 
L 199.586466 219.83298 
L 199.872578 219.628115 
L 200.15869 219.563599 
L 200.444802 220.408684 
L 200.730914 219.024254 
L 201.303138 215.132977 
L 201.58925 215.753746 
L 201.875362 217.536807 
L 202.161474 218.422243 
L 202.447586 215.884563 
L 202.733698 217.983638 
L 203.01981 216.608758 
L 203.305922 216.808057 
L 203.592034 216.65833 
L 203.878146 218.403515 
L 204.45037 224.798606 
L 205.022594 221.355187 
L 205.308706 221.11211 
L 205.594818 220.347063 
L 205.88093 220.905829 
L 206.167042 222.686021 
L 206.453154 223.684728 
L 206.739266 223.072937 
L 207.025378 223.762726 
L 207.31149 225.274344 
L 207.597602 226.164428 
L 208.169826 230.187995 
L 208.455938 228.415938 
L 209.028162 230.529212 
L 209.314274 230.732106 
L 209.600386 231.173447 
L 210.17261 229.201201 
L 210.744834 232.151236 
L 211.030946 230.968878 
L 211.317058 230.695635 
L 211.60317 228.412923 
L 211.889282 227.781685 
L 212.175394 227.465789 
L 212.461506 227.515251 
L 212.461506 227.515251 
" clip-path="url(#p139ca7c3f5)" style="fill: none; stroke: #00bfbf; stroke-width: 1.5; stroke-linecap: square"/>
   </g>
   <g id="matplotlib.axis_3">
    <g id="xtick_4">
     <g id="line2d_13">
      <g>
       <use xlink:href="#maaa1f50416" x="69.691619" y="242.9725" style="stroke: #000000; stroke-width: 0.8"/>
      </g>
     </g>
     <g id="text_10">
      <!-- 0.0 -->
      <g transform="translate(60.149744 259.090625)scale(0.12 -0.12)">
       <use xlink:href="#DejaVuSans-30"/>
       <use xlink:href="#DejaVuSans-2e" x="63.623047"/>
       <use xlink:href="#DejaVuSans-30" x="95.410156"/>
      </g>
     </g>
    </g>
    <g id="xtick_5">
     <g id="line2d_14">
      <g>
       <use xlink:href="#maaa1f50416" x="126.914019" y="242.9725" style="stroke: #000000; stroke-width: 0.8"/>
      </g>
     </g>
     <g id="text_11">
      <!-- 0.2 -->
      <g transform="translate(117.372144 259.090625)scale(0.12 -0.12)">
       <use xlink:href="#DejaVuSans-30"/>
       <use xlink:href="#DejaVuSans-2e" x="63.623047"/>
       <use xlink:href="#DejaVuSans-32" x="95.410156"/>
      </g>
     </g>
    </g>
    <g id="xtick_6">
     <g id="line2d_15">
      <g>
       <use xlink:href="#maaa1f50416" x="184.136418" y="242.9725" style="stroke: #000000; stroke-width: 0.8"/>
      </g>
     </g>
     <g id="text_12">
      <!-- 0.4 -->
      <g transform="translate(174.594543 259.090625)scale(0.12 -0.12)">
       <use xlink:href="#DejaVuSans-30"/>
       <use xlink:href="#DejaVuSans-2e" x="63.623047"/>
       <use xlink:href="#DejaVuSans-34" x="95.410156"/>
      </g>
     </g>
    </g>
    <g id="text_13">
     <!-- Time (s) -->
     <g transform="translate(116.681875 274.704375)scale(0.12 -0.12)">
      <use xlink:href="#DejaVuSans-54"/>
      <use xlink:href="#DejaVuSans-69" x="57.958984"/>
      <use xlink:href="#DejaVuSans-6d" x="85.742188"/>
      <use xlink:href="#DejaVuSans-65" x="183.154297"/>
      <use xlink:href="#DejaVuSans-20" x="244.677734"/>
      <use xlink:href="#DejaVuSans-28" x="276.464844"/>
      <use xlink:href="#DejaVuSans-73" x="315.478516"/>
      <use xlink:href="#DejaVuSans-29" x="367.578125"/>
     </g>
    </g>
   </g>
   <g id="matplotlib.axis_4">
    <g id="ytick_5">
     <g id="line2d_16">
      <g>
       <use xlink:href="#mdc37214cfa" x="62.553125" y="240.393781" style="stroke: #000000; stroke-width: 0.8"/>
      </g>
     </g>
     <g id="text_14">
      <!-- −0.1 -->
      <g transform="translate(26.41375 244.952844)scale(0.12 -0.12)">
       <use xlink:href="#DejaVuSans-2212"/>
       <use xlink:href="#DejaVuSans-30" x="83.789062"/>
       <use xlink:href="#DejaVuSans-2e" x="147.412109"/>
       <use xlink:href="#DejaVuSans-31" x="179.199219"/>
      </g>
     </g>
    </g>
    <g id="ytick_6">
     <g id="line2d_17">
      <g>
       <use xlink:href="#mdc37214cfa" x="62.553125" y="211.566863" style="stroke: #000000; stroke-width: 0.8"/>
      </g>
     </g>
     <g id="text_15">
      <!-- 0.0 -->
      <g transform="translate(36.469375 216.125926)scale(0.12 -0.12)">
       <use xlink:href="#DejaVuSans-30"/>
       <use xlink:href="#DejaVuSans-2e" x="63.623047"/>
       <use xlink:href="#DejaVuSans-30" x="95.410156"/>
      </g>
     </g>
    </g>
    <g id="ytick_7">
     <g id="line2d_18">
      <g>
       <use xlink:href="#mdc37214cfa" x="62.553125" y="182.739945" style="stroke: #000000; stroke-width: 0.8"/>
      </g>
     </g>
     <g id="text_16">
      <!-- 0.1 -->
      <g transform="translate(36.469375 187.299008)scale(0.12 -0.12)">
       <use xlink:href="#DejaVuSans-30"/>
       <use xlink:href="#DejaVuSans-2e" x="63.623047"/>
       <use xlink:href="#DejaVuSans-31" x="95.410156"/>
      </g>
     </g>
    </g>
    <g id="ytick_8">
     <g id="line2d_19">
      <g>
       <use xlink:href="#mdc37214cfa" x="62.553125" y="153.913027" style="stroke: #000000; stroke-width: 0.8"/>
      </g>
     </g>
     <g id="text_17">
      <!-- 0.2 -->
      <g transform="translate(36.469375 158.47209)scale(0.12 -0.12)">
       <use xlink:href="#DejaVuSans-30"/>
       <use xlink:href="#DejaVuSans-2e" x="63.623047"/>
       <use xlink:href="#DejaVuSans-32" x="95.410156"/>
      </g>
     </g>
    </g>
    <g id="text_18">
     <!-- x -->
     <g transform="translate(19.918125 201.813127)rotate(-90)scale(0.12 -0.12)">
      <use xlink:href="#DejaVuSans-78"/>
     </g>
    </g>
   </g>
   <g id="line2d_20">
    <path d="M 69.691619 211.566863 
L 69.977731 211.992792 
L 70.263843 210.772619 
L 70.549955 210.359938 
L 70.836067 208.809563 
L 71.122179 210.56414 
L 71.980515 208.028908 
L 72.552739 208.432721 
L 72.838851 209.149268 
L 73.124963 208.836714 
L 73.697187 209.659235 
L 73.983299 210.992108 
L 74.269411 210.197859 
L 74.555523 211.819335 
L 75.127747 209.731868 
L 75.986083 212.545716 
L 76.272195 211.106763 
L 76.558307 210.687005 
L 76.844419 209.758078 
L 77.130531 210.605657 
L 77.702755 209.000773 
L 77.988867 210.342104 
L 78.274979 210.016253 
L 78.561091 208.97873 
L 78.847203 208.370491 
L 79.133315 209.774352 
L 79.419427 208.276756 
L 79.705539 208.390743 
L 80.277763 210.567256 
L 80.563875 208.898477 
L 81.136099 203.626205 
L 81.422211 205.066336 
L 81.708323 204.955994 
L 81.994435 204.426393 
L 82.280547 205.713044 
L 82.566659 205.518944 
L 83.138883 207.526794 
L 83.424995 207.457769 
L 83.711107 209.338708 
L 84.283331 209.778822 
L 84.855555 211.87904 
L 85.141667 211.442811 
L 85.713891 213.483171 
L 86.000003 213.58045 
L 86.572227 215.338224 
L 86.858339 215.525848 
L 87.144451 215.545677 
L 87.430563 217.773216 
L 87.716675 217.165959 
L 88.002787 217.19829 
L 88.288899 216.751204 
L 88.575011 217.218528 
L 88.861123 213.893754 
L 89.147235 213.846051 
L 89.433347 216.293526 
L 89.719459 217.324222 
L 90.005571 217.813136 
L 90.291683 217.981337 
L 90.577795 216.492159 
L 90.863907 216.956449 
L 91.150019 215.376861 
L 91.436131 218.155513 
L 91.722243 218.022492 
L 92.008355 218.125148 
L 92.294467 216.011964 
L 92.580579 215.332532 
L 92.866691 215.03098 
L 93.152803 213.721839 
L 93.438915 214.257061 
L 93.725027 215.833766 
L 94.011139 213.516607 
L 94.297251 213.047846 
L 94.583363 214.870435 
L 95.155587 212.311388 
L 95.441699 212.162054 
L 95.727811 210.237773 
L 96.013923 209.185344 
L 96.300035 211.623218 
L 97.444483 208.208142 
L 97.730595 206.677291 
L 98.016707 207.132282 
L 98.302819 209.572443 
L 99.161155 212.221634 
L 99.447267 211.726603 
L 99.733379 212.131027 
L 100.019491 211.166682 
L 100.305603 212.037802 
L 100.591715 212.00841 
L 100.877827 209.416854 
L 101.450051 208.035315 
L 102.022275 209.753356 
L 102.308387 208.817109 
L 102.594499 208.365194 
L 102.880611 210.161108 
L 103.166723 211.092599 
L 103.452835 210.135611 
L 103.738947 209.861141 
L 104.025059 209.033433 
L 104.311171 205.901407 
L 104.597283 206.997099 
L 104.883395 208.802458 
L 105.169507 209.341171 
L 105.455619 212.678276 
L 105.741731 209.323776 
L 106.027843 211.284315 
L 106.313955 210.851403 
L 106.600067 210.944558 
L 107.172291 212.156506 
L 107.458403 210.179069 
L 107.744515 211.737363 
L 108.030627 209.861921 
L 108.316739 209.36708 
L 108.602851 206.825618 
L 108.888963 207.791312 
L 109.175075 210.080665 
L 109.461187 209.255917 
L 109.747299 210.211856 
L 110.319523 215.335404 
L 110.605635 214.939818 
L 110.891747 216.470175 
L 111.177859 213.805734 
L 111.463971 214.434571 
L 111.750083 215.468778 
L 112.036195 214.774102 
L 112.322307 215.602384 
L 112.608419 214.402817 
L 112.894531 215.093498 
L 113.180643 213.686361 
L 113.466755 213.132053 
L 113.752867 213.982849 
L 114.038979 212.085257 
L 114.325091 213.198754 
L 114.611203 212.654183 
L 114.897315 213.803658 
L 115.183427 216.476811 
L 115.755651 212.860296 
L 116.041763 215.3731 
L 116.327875 213.98051 
L 116.613987 214.288225 
L 116.900099 212.842879 
L 117.758435 214.425041 
L 118.044547 214.143888 
L 118.330659 213.157817 
L 118.616771 213.824474 
L 118.902883 216.189763 
L 119.188995 217.418098 
L 119.475107 216.585235 
L 120.047331 213.295081 
L 120.333443 213.270506 
L 120.905667 215.881174 
L 121.477891 212.148216 
L 122.050115 217.325894 
L 122.336227 214.732759 
L 122.622339 216.02595 
L 122.908451 215.666101 
L 123.194563 214.2883 
L 123.480675 215.171836 
L 123.766787 212.589072 
L 124.052899 213.019158 
L 124.339011 214.168099 
L 124.625123 213.955137 
L 124.911235 214.635435 
L 125.197347 213.272023 
L 125.483459 213.561012 
L 125.769571 213.170032 
L 126.055683 213.186172 
L 126.341795 212.683967 
L 126.627907 211.917358 
L 126.914019 211.94949 
L 127.200131 210.092204 
L 127.772355 208.643494 
L 128.058467 208.135733 
L 128.344579 208.301363 
L 128.630691 207.027861 
L 128.916803 207.089952 
L 129.202915 207.892812 
L 129.489027 205.822223 
L 129.775139 206.601421 
L 130.061251 205.252139 
L 130.347363 204.64038 
L 130.633475 206.903114 
L 131.491811 209.781251 
L 131.777923 207.777053 
L 132.064035 207.480032 
L 132.636259 208.135707 
L 132.922371 208.051808 
L 133.208483 209.415726 
L 133.494595 208.636413 
L 133.780707 212.020304 
L 134.066819 212.303738 
L 134.352931 212.187469 
L 134.639043 213.255639 
L 135.497379 210.030587 
L 135.783491 209.632051 
L 136.355715 211.123448 
L 136.641827 211.071626 
L 136.927939 209.949631 
L 137.214051 210.746151 
L 137.500163 208.624716 
L 137.786275 208.926936 
L 138.072387 208.703766 
L 138.358499 205.359717 
L 138.644611 209.243348 
L 138.930723 210.834318 
L 139.216835 211.410615 
L 139.502947 210.905023 
L 139.789059 211.669677 
L 140.075171 213.452053 
L 140.361283 212.596434 
L 140.647395 213.363102 
L 140.933507 213.04469 
L 141.219618 211.768264 
L 141.50573 213.492218 
L 141.791842 217.891179 
L 142.077954 217.588737 
L 142.364066 216.34039 
L 142.650178 216.61059 
L 142.93629 216.182955 
L 143.508514 216.080011 
L 143.794626 214.619024 
L 144.080738 215.136818 
L 144.36685 213.586532 
L 144.652962 215.059159 
L 144.939074 214.90609 
L 145.225186 213.788873 
L 145.511298 216.01354 
L 145.79741 216.188788 
L 146.083522 214.049468 
L 146.655746 216.753761 
L 146.941858 215.832411 
L 147.22797 216.106562 
L 147.514082 214.978056 
L 147.800194 217.622793 
L 148.086306 215.76259 
L 148.372418 215.596739 
L 148.65853 216.069816 
L 148.944642 215.914872 
L 149.230754 216.17184 
L 149.802978 219.844401 
L 150.08909 218.233701 
L 150.375202 218.18214 
L 150.661314 218.69465 
L 150.947426 215.966589 
L 151.233538 217.305169 
L 151.51965 216.707091 
L 151.805762 217.234711 
L 152.091874 216.565988 
L 152.377986 213.457532 
L 152.664098 214.09132 
L 152.95021 215.11618 
L 153.236322 213.99189 
L 153.522434 216.216491 
L 153.808546 212.506752 
L 154.094658 210.355439 
L 154.38077 210.761405 
L 154.666882 211.599964 
L 154.952994 211.864224 
L 155.239106 211.167353 
L 155.525218 209.027452 
L 155.81133 209.572186 
L 156.383554 211.728252 
L 156.669666 212.008749 
L 156.955778 212.799693 
L 157.24189 212.874805 
L 157.528002 214.408087 
L 157.814114 213.429202 
L 158.100226 213.094938 
L 158.386338 212.936813 
L 158.958562 211.783997 
L 159.244674 211.701008 
L 159.530786 210.213933 
L 159.816898 209.349289 
L 160.10301 209.227574 
L 160.389122 210.257605 
L 160.675234 211.854113 
L 160.961346 212.767225 
L 161.247458 212.86707 
L 161.53357 212.309426 
L 161.819682 213.785523 
L 162.105794 213.040047 
L 162.391906 213.229083 
L 162.678018 214.239132 
L 162.96413 213.76675 
L 163.250242 210.352575 
L 163.536354 210.93396 
L 163.822466 210.13321 
L 164.680802 212.319231 
L 164.966914 209.681179 
L 165.253026 209.002638 
L 165.539138 208.965472 
L 165.82525 209.104703 
L 166.111362 207.274969 
L 166.397474 207.485628 
L 166.683586 205.597744 
L 166.969698 209.333168 
L 167.25581 210.722949 
L 167.541922 207.219126 
L 167.828034 206.878776 
L 168.114146 205.207028 
L 168.400258 204.648847 
L 168.68637 205.25403 
L 169.258594 207.805028 
L 169.544706 207.827543 
L 169.830818 207.604813 
L 170.11693 206.872315 
L 170.689154 208.023118 
L 170.975266 207.665789 
L 171.261378 209.458666 
L 171.54749 208.773085 
L 171.833602 211.376923 
L 172.119714 212.451511 
L 172.691938 210.70842 
L 172.97805 211.698468 
L 173.264162 213.131553 
L 173.836386 217.204433 
L 174.122498 214.608391 
L 174.40861 215.072989 
L 174.694722 214.599032 
L 174.980834 215.798801 
L 175.266946 216.083091 
L 175.553058 215.822673 
L 175.83917 214.691754 
L 176.125282 215.380709 
L 176.411394 216.657315 
L 176.697506 215.326924 
L 177.26973 216.726718 
L 177.555842 215.782796 
L 177.841954 218.805691 
L 178.128066 218.167566 
L 178.414178 218.006799 
L 178.70029 215.156286 
L 178.986402 216.86759 
L 179.272514 216.744898 
L 179.558626 215.079921 
L 179.844738 216.849168 
L 180.13085 217.8107 
L 180.416962 214.616659 
L 180.703074 212.674464 
L 180.989186 212.7292 
L 181.275298 208.939849 
L 181.56141 209.425155 
L 181.847522 210.539219 
L 182.133634 207.943244 
L 182.419746 209.020528 
L 182.705858 207.06213 
L 182.99197 209.527699 
L 183.278082 209.200079 
L 183.564194 210.533537 
L 183.850306 207.440574 
L 184.136418 207.144186 
L 184.42253 207.383168 
L 184.708642 206.114079 
L 184.994754 205.93008 
L 185.280866 207.394859 
L 185.566978 208.185221 
L 185.85309 208.520944 
L 186.139202 207.823969 
L 186.425314 206.814394 
L 186.711426 207.192022 
L 186.997538 206.582792 
L 187.28365 206.465253 
L 187.569762 205.233863 
L 187.855874 206.652919 
L 188.141986 206.663825 
L 188.428098 206.154056 
L 188.71421 207.456107 
L 189.286434 205.703776 
L 189.572546 208.455431 
L 189.858658 209.730823 
L 190.430882 207.369707 
L 191.003106 209.11472 
L 191.57533 206.491368 
L 191.861442 206.047869 
L 192.433666 208.218609 
L 192.719778 208.408135 
L 193.00589 207.52175 
L 193.292002 208.162831 
L 193.578114 207.979751 
L 193.864226 208.244761 
L 194.150338 211.264828 
L 194.43645 212.264288 
L 194.722562 209.191074 
L 195.008674 208.810283 
L 195.580898 212.240721 
L 195.86701 213.832112 
L 196.153122 213.701785 
L 196.439234 213.420939 
L 196.725346 214.739208 
L 197.011458 214.56774 
L 197.29757 212.440272 
L 197.583682 211.791056 
L 197.869794 212.398051 
L 198.155906 210.954666 
L 198.442018 211.6847 
L 198.72813 211.587043 
L 199.014242 211.698007 
L 199.300354 213.12857 
L 199.586466 213.939051 
L 200.15869 213.23944 
L 200.444802 213.917268 
L 201.303138 208.467427 
L 201.58925 209.398141 
L 201.875362 211.398074 
L 202.161474 212.300389 
L 202.447586 209.689356 
L 202.733698 211.976182 
L 203.01981 210.56037 
L 203.305922 210.860319 
L 203.592034 210.781245 
L 203.878146 212.604993 
L 204.164258 216.2995 
L 204.45037 218.423007 
L 205.022594 213.857309 
L 205.308706 213.385188 
L 205.594818 212.438309 
L 205.88093 212.90993 
L 206.167042 214.555815 
L 206.453154 215.255627 
L 206.739266 214.274959 
L 207.025378 214.693939 
L 207.31149 215.892849 
L 207.597602 216.350335 
L 208.169826 219.268777 
L 208.455938 216.726529 
L 208.74205 217.129327 
L 209.028162 217.76759 
L 209.314274 217.350412 
L 209.600386 217.213398 
L 210.17261 214.270068 
L 210.744834 216.544992 
L 211.030946 214.864822 
L 211.317058 214.261783 
L 211.60317 211.709579 
L 211.889282 211.06407 
L 212.175394 210.798453 
L 212.461506 210.924756 
L 212.461506 210.924756 
" clip-path="url(#p139ca7c3f5)" style="fill: none; stroke: #808080; stroke-width: 0.75; stroke-linecap: square"/>
   </g>
   <g id="line2d_21">
    <path d="M 69.691619 211.566863 
L 69.977731 211.780883 
L 70.263843 210.387506 
L 70.549955 209.707145 
L 70.836067 207.858911 
L 71.122179 209.202084 
L 71.980515 205.669583 
L 72.552739 205.258874 
L 72.838851 205.602072 
L 73.124963 204.982045 
L 73.411075 205.020276 
L 73.697187 205.180781 
L 73.983299 206.263914 
L 74.269411 205.329516 
L 74.555523 206.753172 
L 75.127747 204.433215 
L 75.986083 206.821192 
L 76.272195 205.379599 
L 76.558307 204.852148 
L 76.844419 203.778786 
L 77.130531 204.381218 
L 77.702755 202.357659 
L 77.988867 203.326088 
L 78.274979 202.801894 
L 78.847203 200.496529 
L 79.133315 201.408107 
L 79.419427 199.578442 
L 79.705539 199.178019 
L 80.277763 200.460081 
L 80.563875 198.518102 
L 81.136099 191.950109 
L 81.422211 192.227561 
L 81.994435 189.551108 
L 82.280547 189.820011 
L 82.566659 188.72636 
L 82.852771 189.071506 
L 83.138883 189.093076 
L 83.424995 188.335043 
L 83.711107 189.552951 
L 84.283331 188.976041 
L 84.855555 190.239984 
L 85.141667 189.505453 
L 85.713891 191.001804 
L 86.000003 190.938083 
L 86.572227 192.476679 
L 86.858339 192.670396 
L 87.144451 192.715315 
L 87.430563 194.970069 
L 87.716675 194.674889 
L 88.002787 194.944104 
L 88.288899 194.750309 
L 88.575011 195.416664 
L 88.861123 192.370313 
L 89.147235 192.184391 
L 89.433347 194.489547 
L 90.005571 196.450318 
L 90.291683 196.997289 
L 90.577795 195.920471 
L 90.863907 196.612332 
L 91.150019 195.33107 
L 91.436131 198.199926 
L 91.722243 198.523632 
L 92.008355 199.074258 
L 92.294467 197.42573 
L 92.580579 196.973144 
L 92.866691 196.818383 
L 93.152803 195.621344 
L 93.438915 196.094621 
L 93.725027 197.682054 
L 94.011139 195.579863 
L 94.297251 195.026796 
L 94.583363 196.691752 
L 94.869475 195.673735 
L 95.155587 194.169084 
L 95.441699 193.749761 
L 96.013923 189.979215 
L 96.300035 191.858788 
L 97.444483 186.670183 
L 97.730595 184.630603 
L 98.016707 184.490325 
L 98.302819 186.382353 
L 98.588931 187.023901 
L 98.875043 188.126528 
L 99.161155 188.180464 
L 99.447267 187.505779 
L 99.733379 187.712713 
L 100.019491 186.58142 
L 100.305603 187.243893 
L 100.591715 187.060836 
L 100.877827 184.321616 
L 101.450051 182.246369 
L 102.022275 183.19652 
L 102.594499 181.187861 
L 102.880611 182.60778 
L 103.166723 183.315556 
L 103.452835 182.217963 
L 103.738947 181.723714 
L 104.025059 180.658035 
L 104.311171 177.229511 
L 104.597283 177.749502 
L 104.883395 179.091234 
L 105.169507 179.343222 
L 105.455619 182.443604 
L 105.741731 179.119759 
L 106.027843 180.845312 
L 106.313955 180.336431 
L 106.600067 180.322713 
L 107.172291 181.396788 
L 107.458403 179.417786 
L 107.744515 180.821845 
L 108.030627 178.916307 
L 108.316739 178.242818 
L 108.602851 175.476448 
L 108.888963 175.961767 
L 109.175075 177.864666 
L 109.461187 176.885212 
L 109.747299 177.599971 
L 110.319523 182.684334 
L 110.605635 182.581261 
L 110.891747 184.366194 
L 111.177859 182.088677 
L 111.463971 182.867048 
L 111.750083 184.100921 
L 112.036195 183.695419 
L 112.322307 184.747064 
L 112.608419 183.843169 
L 112.894531 184.718688 
L 113.180643 183.556736 
L 113.466755 183.118436 
L 113.752867 184.035105 
L 114.038979 182.278661 
L 114.325091 183.366292 
L 114.611203 182.891119 
L 114.897315 184.061868 
L 115.183427 186.858021 
L 115.755651 183.717678 
L 116.041763 186.262247 
L 116.327875 185.096362 
L 116.613987 185.531352 
L 116.900099 184.232522 
L 117.472323 185.451879 
L 117.758435 186.024896 
L 118.044547 185.885839 
L 118.330659 185.019322 
L 118.616771 185.732572 
L 118.902883 188.191209 
L 119.188995 189.636213 
L 119.475107 189.081414 
L 120.047331 186.116981 
L 120.333443 186.117643 
L 120.905667 188.857541 
L 121.477891 185.325395 
L 122.050115 190.522233 
L 122.336227 188.166069 
L 122.622339 189.531375 
L 122.908451 189.314519 
L 123.194563 188.052478 
L 123.480675 188.968891 
L 123.766787 186.466852 
L 124.052899 186.835912 
L 124.339011 187.94923 
L 124.625123 187.761908 
L 124.911235 188.455337 
L 125.197347 187.141289 
L 125.483459 187.405044 
L 125.769571 187.004883 
L 126.055683 186.992256 
L 126.341795 186.463514 
L 126.627907 185.645525 
L 126.914019 185.583339 
L 127.200131 183.637027 
L 128.058467 180.76981 
L 128.344579 180.546445 
L 128.630691 178.905966 
L 128.916803 178.506113 
L 129.202915 178.856041 
L 129.489027 176.41051 
L 129.775139 176.605137 
L 130.347363 173.506397 
L 130.633475 175.09488 
L 131.205699 176.051407 
L 131.491811 176.822231 
L 131.777923 174.629301 
L 132.064035 173.955337 
L 132.636259 173.853144 
L 132.922371 173.439211 
L 133.208483 174.471028 
L 133.494595 173.480683 
L 133.780707 176.590313 
L 134.066819 176.908828 
L 134.352931 176.8562 
L 134.639043 177.976301 
L 135.497379 174.873808 
L 135.783491 174.320812 
L 136.355715 175.512877 
L 136.641827 175.410213 
L 136.927939 174.232921 
L 137.214051 174.875111 
L 137.500163 172.670758 
L 137.786275 172.707786 
L 138.072387 172.249302 
L 138.358499 168.650722 
L 138.644611 171.99109 
L 138.930723 173.382088 
L 139.216835 173.905381 
L 139.502947 173.396445 
L 139.789059 174.114953 
L 140.075171 175.91673 
L 140.361283 175.240915 
L 140.647395 176.10612 
L 140.933507 175.957918 
L 141.219618 174.820391 
L 141.50573 176.564248 
L 141.791842 181.145491 
L 142.077954 181.420632 
L 142.364066 180.713422 
L 142.650178 181.416468 
L 142.93629 181.432246 
L 143.508514 182.116755 
L 143.794626 181.032223 
L 144.080738 181.803041 
L 144.36685 180.540776 
L 144.652962 182.175082 
L 144.939074 182.295344 
L 145.225186 181.434058 
L 145.511298 183.819583 
L 145.79741 184.340957 
L 146.083522 182.560665 
L 146.655746 185.737446 
L 146.941858 185.202197 
L 147.22797 185.786413 
L 147.514082 184.977502 
L 147.800194 187.851662 
L 148.086306 186.367128 
L 148.372418 186.462201 
L 148.65853 187.175235 
L 148.944642 187.273179 
L 149.230754 187.762761 
L 149.802978 192.017391 
L 150.08909 190.865276 
L 150.375202 191.131329 
L 150.661314 191.949637 
L 150.947426 189.565747 
L 151.233538 191.040018 
L 151.51965 190.662197 
L 151.805762 191.360581 
L 152.091874 190.898131 
L 152.377986 187.939634 
L 152.664098 188.528451 
L 152.95021 189.545026 
L 153.236322 188.47221 
L 153.522434 190.681071 
L 154.094658 184.841783 
L 154.38077 185.017281 
L 154.666882 185.662832 
L 154.952994 185.800442 
L 155.239106 184.998411 
L 155.525218 182.706464 
L 155.81133 182.912573 
L 156.383554 184.604967 
L 156.669666 184.79561 
L 156.955778 185.522141 
L 157.24189 185.595207 
L 157.528002 187.131604 
L 157.814114 186.241564 
L 158.386338 185.794915 
L 158.958562 184.596607 
L 159.244674 184.42944 
L 159.816898 181.764927 
L 160.10301 181.353233 
L 160.389122 182.089768 
L 160.961346 184.3277 
L 161.247458 184.444541 
L 161.53357 183.912726 
L 161.819682 185.363697 
L 162.105794 184.719434 
L 162.391906 184.948301 
L 162.678018 186.013417 
L 162.96413 185.665012 
L 163.250242 182.340791 
L 163.536354 182.721981 
L 163.822466 181.773019 
L 164.680802 183.532112 
L 164.966914 180.87362 
L 165.253026 179.958112 
L 165.539138 179.638038 
L 165.82525 179.49748 
L 166.111362 177.404614 
L 166.397474 177.177677 
L 166.683586 174.872326 
L 166.969698 178.010021 
L 167.25581 179.170955 
L 167.541922 175.571327 
L 167.828034 174.789319 
L 168.114146 172.64888 
L 168.400258 171.483934 
L 168.68637 171.428927 
L 168.972482 172.387373 
L 169.258594 172.93574 
L 169.544706 172.608314 
L 169.830818 172.04122 
L 170.11693 170.944841 
L 170.403042 171.198013 
L 170.689154 171.286645 
L 170.975266 170.605888 
L 171.261378 172.038833 
L 171.54749 171.174761 
L 171.833602 173.529796 
L 172.119714 174.603433 
L 172.691938 172.953489 
L 172.97805 173.883724 
L 173.264162 175.342583 
L 173.836386 179.932443 
L 174.122498 177.874246 
L 174.40861 178.636955 
L 174.694722 178.507771 
L 174.980834 180.00551 
L 175.266946 180.685436 
L 175.553058 180.832818 
L 175.83917 180.080068 
L 176.125282 181.052247 
L 176.411394 182.657572 
L 176.697506 181.752301 
L 177.26973 183.829736 
L 177.555842 183.303164 
L 177.841954 186.654626 
L 178.128066 186.568271 
L 178.414178 186.899568 
L 178.70029 184.509102 
L 178.986402 186.474467 
L 179.272514 186.718246 
L 179.558626 185.395908 
L 180.13085 188.676563 
L 180.703074 184.066097 
L 180.989186 184.130876 
L 181.275298 180.356482 
L 181.56141 180.543277 
L 181.847522 181.40282 
L 182.133634 178.643419 
L 182.419746 179.352464 
L 182.705858 177.125121 
L 182.99197 179.130698 
L 183.278082 178.58833 
L 183.564194 179.679528 
L 183.850306 176.462741 
L 184.136418 175.743551 
L 184.42253 175.532378 
L 184.708642 173.838288 
L 184.994754 173.122321 
L 185.280866 174.047321 
L 185.566978 174.430611 
L 185.85309 174.432795 
L 186.425314 172.071415 
L 186.711426 172.006075 
L 186.997538 170.991726 
L 187.28365 170.405864 
L 187.569762 168.695523 
L 187.855874 169.557048 
L 188.141986 169.122868 
L 188.428098 168.182917 
L 188.71421 169.038328 
L 189.286434 166.551081 
L 189.572546 168.845534 
L 189.858658 169.879944 
L 190.430882 167.140911 
L 191.003106 168.365219 
L 191.57533 165.312825 
L 191.861442 164.49467 
L 192.433666 165.929852 
L 192.719778 165.916457 
L 193.00589 164.846141 
L 193.292002 165.215294 
L 193.578114 164.824727 
L 193.864226 164.863566 
L 194.150338 167.684039 
L 194.43645 168.763773 
L 194.722562 165.833512 
L 195.008674 165.347295 
L 195.294786 166.673711 
L 195.86701 170.371223 
L 196.153122 170.498898 
L 196.439234 170.46217 
L 196.725346 171.99668 
L 197.011458 172.174821 
L 197.29757 170.379476 
L 197.583682 169.84901 
L 197.869794 170.51752 
L 198.155906 169.187785 
L 198.442018 169.914476 
L 198.72813 169.866361 
L 199.014242 170.018074 
L 199.586466 172.495925 
L 199.872578 172.321491 
L 200.15869 172.288439 
L 200.444802 173.165141 
L 200.730914 171.804035 
L 201.303138 167.984421 
L 201.58925 168.706572 
L 201.875362 170.564987 
L 202.161474 171.480745 
L 202.447586 168.974666 
L 202.733698 171.139153 
L 203.01981 169.794739 
L 203.305922 170.034322 
L 203.592034 169.92019 
L 203.878146 171.703023 
L 204.45037 178.123664 
L 205.022594 174.665168 
L 205.308706 174.423685 
L 205.594818 173.663359 
L 205.88093 174.238127 
L 206.167042 176.025637 
L 206.453154 177.015202 
L 206.739266 176.393585 
L 207.025378 177.073291 
L 207.31149 178.575236 
L 207.597602 179.459802 
L 208.169826 183.406414 
L 208.455938 181.540093 
L 209.028162 183.510069 
L 209.314274 183.617527 
L 209.600386 183.96229 
L 210.17261 181.80345 
L 210.744834 184.590912 
L 211.030946 183.302732 
L 211.317058 182.936467 
L 211.60317 180.565639 
L 211.889282 179.893506 
L 212.175394 179.552562 
L 212.461506 179.58406 
L 212.461506 179.58406 
" clip-path="url(#p139ca7c3f5)" style="fill: none; stroke: #ff7f0e; stroke-width: 1.5; stroke-linecap: square"/>
   </g>
   <g id="line2d_22">
    <path d="M 62.553125 211.566863 
L 219.6 211.566863 
" clip-path="url(#p139ca7c3f5)" style="fill: none; stroke-dasharray: 2.775,1.2; stroke-dashoffset: 0; stroke: #808080; stroke-width: 0.75"/>
   </g>
   <g id="patch_8">
    <path d="M 62.553125 242.9725 
L 62.553125 153.551253 
" style="fill: none; stroke: #000000; stroke-width: 0.8; stroke-linejoin: miter; stroke-linecap: square"/>
   </g>
   <g id="patch_9">
    <path d="M 219.6 242.9725 
L 219.6 153.551253 
" style="fill: none; stroke: #000000; stroke-width: 0.8; stroke-linejoin: miter; stroke-linecap: square"/>
   </g>
   <g id="patch_10">
    <path d="M 62.553125 242.9725 
L 219.6 242.9725 
" style="fill: none; stroke: #000000; stroke-width: 0.8; stroke-linejoin: miter; stroke-linecap: square"/>
   </g>
   <g id="patch_11">
    <path d="M 62.553125 153.551253 
L 219.6 153.551253 
" style="fill: none; stroke: #000000; stroke-width: 0.8; stroke-linejoin: miter; stroke-linecap: square"/>
   </g>
  </g>
 </g>
 <defs>
  <clipPath id="p53d3d55ec2">
   <rect x="62.553125" y="14.951253" width="157.046875" height="89.421247"/>
  </clipPath>
  <clipPath id="p139ca7c3f5">
   <rect x="62.553125" y="153.551253" width="157.046875" height="89.421247"/>
  </clipPath>
 </defs>
</svg>
